<svg width="24" height="24" viewBox="0 0 24 24" fill="none" xmlns="http://www.w3.org/2000/svg">
  <defs>
    <linearGradient id="paint0_linear_light" x1="20" y1="18.5" x2="4.94145" y2="4.48822" gradientUnits="userSpaceOnUse">
      <stop stop-color="#6A738C"/>
      <stop offset="1" stop-color="#6A738C" stop-opacity="0"/>
    </linearGradient>
    <mask id="cardMask">
      <!-- Full white mask (show everything) -->
      <rect x="0" y="0" width="24" height="24" fill="white"/>
      <!-- Slightly larger black circle mask -->
      <circle cx="18" cy="18" r="5" fill="black"/>
    </mask>
  </defs>

  <!-- Card with mask applied -->
  <g mask="url(#cardMask)">
    <rect opacity="0.1" x="3" y="5" width="18" height="14" rx="2" fill="url(#paint0_linear_light)"/>
    <path d="M9.57 15H7M14 12H7" stroke="#606376" stroke-width="1.5" stroke-linecap="round" stroke-linejoin="round"/>
    <path d="M21 8V16C21 17.6569 19.6569 19 18 19H6C4.34315 19 3 17.6569 3 16V8M21 8C21 6.34315 19.6569 5 18 5H6C4.34315 5 3 6.34315 3 8M21 8L3 8" stroke="#969EC2" stroke-width="1.5" stroke-linecap="round" stroke-linejoin="round"/>
  </g>

  <!-- Refresh icon in dark color -->
  <path d="M20.83 15.67L22 14.5V18.5H18L19.77 16.73C19.32 16.28 18.69 16 18 16C16.62 16 15.5 17.12 15.5 18.5C15.5 19.88 16.62 21 18 21C18.82 21 19.54 20.61 20 20H21.71C21.12 21.47 19.68 22.5 18 22.5C15.79 22.5 14 20.71 14 18.5C14 16.29 15.79 14.5 18 14.5C19.11 14.5 20.11 14.95 20.83 15.67Z" fill="#606376"/>
</svg>
