<svg width="24" height="24" viewBox="0 0 24 24" fill="none" xmlns="http://www.w3.org/2000/svg">
  <path opacity="0.25" d="M5.42857 10.5279H12.2857H14.8571H17.4286H18.7143L18.8691 9.65234C19.0298 8.74398 18.5483 7.84358 17.7037 7.47275L12.8754 5.35298C12.363 5.12802 11.7798 5.12802 11.2674 5.35298L6.43917 7.47275C5.59453 7.84358 5.11308 8.74398 5.27373 9.65234L5.42857 10.5279Z" fill="url(#paint0_linear_1511_29836)"/>
  <path d="M14.5 10V16.5714M17 16.5714V10M12.7143 19H18.4666C18.7372 19 18.9566 18.7806 18.9566 18.5099V18.5099C18.9566 18.448 18.9449 18.3866 18.922 18.329L18.4745 17.2023C18.3232 16.8214 17.9549 16.5714 17.5451 16.5714H12.9783C12.426 16.5714 11.9783 16.1237 11.9783 15.5714V10M5.59457 7.8409L11.5933 5.18037C11.8522 5.06555 12.1476 5.06589 12.4063 5.18131L18.3642 7.8402C18.7245 8.00102 18.9566 8.35875 18.9566 8.75338V9C18.9566 9.55228 18.5089 10 17.9566 10H6C5.44772 10 5 9.55228 5 9V8.75503C5 8.35955 5.23306 8.00123 5.59457 7.8409Z" stroke="#C7CAD9" stroke-width="1.5" stroke-linecap="round" stroke-linejoin="round"/>
  <path d="M4 18.9999V18.8554C4 17.9877 4.62913 17.5 5.5 17.5H7.64286C8.51373 17.5 9.14286 17.9877 9.14286 18.8554V18.9999" stroke="#606376" stroke-width="1.5" stroke-linecap="round" stroke-linejoin="round"/>
  <path d="M7.80005 14.05C7.80005 14.7404 7.2404 15.3 6.55005 15.3C5.85969 15.3 5.30005 14.7404 5.30005 14.05C5.30005 13.3597 5.85969 12.8 6.55005 12.8C7.2404 12.8 7.80005 13.3597 7.80005 14.05Z" stroke="#606376" stroke-width="1.5" stroke-linecap="round" stroke-linejoin="round"/>
  <defs>
    <linearGradient id="paint0_linear_1511_29836" x1="5" y1="5" x2="9.23818" y2="13.6489" gradientUnits="userSpaceOnUse">
      <stop stop-color="#6A738C"/>
      <stop offset="1" stop-color="#6A738C" stop-opacity="0"/>
    </linearGradient>
  </defs>
</svg>
