<svg width="24" height="24" viewBox="0 0 24 24" fill="none" xmlns="http://www.w3.org/2000/svg">
<path fill-rule="evenodd" clip-rule="evenodd" d="M17.3605 7.10854C15.4492 4.96858 12.3267 4.17596 9.62404 5.14494L9.62402 5.14494C5.18969 6.73469 3.50019 11.7926 5.72995 15.6303C5.8685 15.8159 5.91557 16.0587 5.84934 16.2875L5.09034 18.9095L5.09033 18.9095C5.04448 19.0679 5.16331 19.2279 5.33092 19.2279H11.9999C12.0354 19.2279 12.0703 19.2304 12.1045 19.2352C13.3517 19.217 14.595 18.8775 15.7057 18.2172L15.7057 18.2172C19.5555 15.9289 20.5136 10.6392 17.3605 7.10854ZM17.9199 6.60894L17.3605 7.10854L17.9199 6.60894ZM11.889 20.7279H5.33092C4.16653 20.7279 3.32536 19.612 3.64949 18.4924C3.64949 18.4924 3.6495 18.4924 3.6495 18.4924L4.3186 16.1809C1.80105 11.5743 3.86255 5.617 9.1178 3.73294C12.3952 2.55791 16.1606 3.5133 18.4793 6.10933L18.4793 6.10937C22.2723 10.3567 21.1183 16.745 16.4721 19.5066C15.0941 20.3258 13.5464 20.7359 11.9989 20.7359C11.9616 20.7359 11.9249 20.7332 11.889 20.7279Z" fill="#8C90A4"/>
</svg>
