<svg width="24" height="24" viewBox="0 0 24 24" fill="none" xmlns="http://www.w3.org/2000/svg">
  <path fill-rule="evenodd" clip-rule="evenodd" d="M10.6961 2.35218C11.1009 2.11942 11.5518 2.0028 12.0034 2.00491C12.4467 2.00698 12.8884 2.12349 13.285 2.35293C13.2848 2.35281 13.2852 2.35306 13.285 2.35293L19.7039 6.05732C19.7037 6.0572 19.7041 6.05743 19.7039 6.05732C20.0743 6.27059 20.3809 6.56741 20.6023 6.91791C20.8583 7.32314 20.9998 7.79832 20.9998 8.29537V15.7053C20.9998 15.8101 20.9781 15.9112 20.9381 16.0035C20.833 16.7873 20.3707 17.4924 19.6816 17.8985L19.6766 17.9015L13.261 21.6147C12.873 21.8348 12.4405 21.9463 12.0101 21.9521C11.556 21.9582 11.0972 21.8469 10.6888 21.6135L10.6862 21.6121L4.27259 17.914C3.45769 17.4545 2.98389 16.5892 2.98389 15.6824V8.28237C2.98389 7.79439 3.12327 7.32351 3.37391 6.9216C3.59487 6.56729 3.90373 6.26434 4.28263 6.05069L10.6961 2.35218ZM19.4998 15.4235V8.29537C19.4998 8.08491 19.4403 7.88707 19.3341 7.71904C19.2422 7.57344 19.1141 7.44852 18.9558 7.35743L12.5341 3.65145C12.366 3.55411 12.1811 3.50575 11.9964 3.50489C11.8084 3.50401 11.6182 3.55232 11.444 3.65238C11.4439 3.65245 11.4441 3.65232 11.444 3.65238L5.02106 7.3564C4.86697 7.44291 4.73923 7.56695 4.64669 7.71534C4.54174 7.88363 4.48388 8.08028 4.48388 8.28237V15.6824C4.48388 16.074 4.68847 16.4273 5.01103 16.6084L5.01854 16.6126L11.433 20.3112C11.4333 20.3113 11.4336 20.3115 11.4339 20.3117C11.6003 20.4065 11.7931 20.4549 11.9897 20.4522C12.1753 20.4497 12.358 20.4018 12.5182 20.3115C12.519 20.311 12.5199 20.3105 12.5208 20.31L18.9201 16.6062C18.9208 16.6058 18.9215 16.6053 18.9222 16.6049C19.2532 16.4089 19.4608 16.0448 19.4608 15.6623C19.4608 15.5796 19.4744 15.4992 19.4998 15.4235ZM6.0888 8.53648C6.29822 8.1791 6.7577 8.05916 7.11507 8.26859L11.9994 11.1308L16.87 8.26903C17.2271 8.05919 17.6867 8.17859 17.8965 8.53572C18.1064 8.89285 17.987 9.35247 17.6298 9.5623L12.7499 12.4296V18.0004C12.7499 18.4146 12.4141 18.7504 11.9999 18.7504C11.5857 18.7504 11.2499 18.4146 11.2499 18.0004V12.4302L6.35669 9.56275C5.99932 9.35332 5.87938 8.89385 6.0888 8.53648Z" fill="#8C90A4"/>
</svg>
