<svg width="24" height="24" viewBox="0 0 24 24" fill="none" xmlns="http://www.w3.org/2000/svg">
  <path fill-rule="evenodd" clip-rule="evenodd" d="M10.6962 2.35169C11.101 2.11893 11.5519 2.00231 12.0035 2.00442C12.4469 2.00649 12.8885 2.123 13.2851 2.35245C13.2849 2.35232 13.2853 2.35257 13.2851 2.35245L19.704 6.05683C19.7038 6.05671 19.7042 6.05694 19.704 6.05683C20.0744 6.2701 20.381 6.56692 20.6024 6.91742C20.8584 7.32266 21 7.79783 21 8.29488V15.7049C21 15.8096 20.9782 15.9107 20.9382 16.003C20.8331 16.7868 20.3708 17.4919 19.6817 17.898L19.6767 17.901L13.2611 21.6142C12.8731 21.8343 12.4406 21.9458 12.0102 21.9516C11.5562 21.9578 11.0974 21.8464 10.6889 21.613L10.6864 21.6116L4.27272 17.9135C3.45781 17.454 2.98401 16.5887 2.98401 15.6819V8.28188C2.98401 7.79391 3.12339 7.32302 3.37403 6.92112C3.59499 6.5668 3.90385 6.26385 4.28275 6.0502L10.6962 2.35169ZM19.5 15.423V8.29488C19.5 8.08443 19.4404 7.88658 19.3343 7.71855C19.2423 7.57295 19.1142 7.44803 18.9559 7.35694L12.5342 3.65096C12.3661 3.55362 12.1812 3.50526 11.9965 3.5044C11.8086 3.50352 11.6183 3.55183 11.4441 3.6519C11.444 3.65196 11.4443 3.65183 11.4441 3.6519L5.02118 7.35591C4.86709 7.44242 4.73935 7.56646 4.64681 7.71486C4.54186 7.88315 4.484 8.07979 4.484 8.28188V15.6819C4.484 16.0735 4.68859 16.4268 5.01115 16.6079L5.01866 16.6121L11.4331 20.3107C11.4334 20.3109 11.4337 20.311 11.4341 20.3112C11.6004 20.406 11.7932 20.4544 11.9899 20.4517C12.1754 20.4492 12.3581 20.4013 12.5183 20.311C12.5192 20.3105 12.52 20.31 12.5209 20.3095L18.9202 16.6057C18.9209 16.6053 18.9216 16.6049 18.9224 16.6044C19.2533 16.4084 19.461 16.0443 19.461 15.6619C19.461 15.5791 19.4746 15.4987 19.5 15.423ZM6.08892 8.53599C6.29834 8.17862 6.75782 8.05868 7.11519 8.2681L11.9995 11.1303L16.8701 8.26854C17.2272 8.0587 17.6868 8.17811 17.8967 8.53523C18.1065 8.89236 17.9871 9.35198 17.63 9.56182L12.75 12.4291V17.9999C12.75 18.4141 12.4142 18.7499 12 18.7499C11.5858 18.7499 11.25 18.4141 11.25 17.9999V12.4297L6.35681 9.56226C5.99944 9.35284 5.8795 8.89336 6.08892 8.53599Z" fill="#969EC2"/>
</svg>
