<svg width="24" height="24" viewBox="0 0 24 24" fill="none" xmlns="http://www.w3.org/2000/svg">
  <path fill-rule="evenodd" clip-rule="evenodd" d="M4.00097 3.25C3.31062 3.25 2.75097 3.80964 2.75097 4.5V8.5C2.75097 9.19036 3.31062 9.75 4.00097 9.75H8.00097C8.69133 9.75 9.25097 9.19036 9.25097 8.5V4.5C9.25097 3.80964 8.69133 3.25 8.00097 3.25H4.00097ZM1.25097 4.5C1.25097 2.98122 2.48219 1.75 4.00097 1.75H8.00097C9.51975 1.75 10.751 2.98122 10.751 4.5V8.5C10.751 10.0188 9.51975 11.25 8.00097 11.25H4.00097C2.48219 11.25 1.25097 10.0188 1.25097 8.5V4.5ZM5.98486 14.25C4.20263 14.2528 2.74998 15.7047 2.74998 17.5C2.74998 17.5522 2.74465 17.6031 2.73452 17.6523C2.82448 19.3664 4.24161 20.7303 5.98169 20.739C7.77465 20.7381 9.22725 19.2883 9.23994 17.5051C9.20287 15.7125 7.76169 14.2771 5.98486 14.25ZM1.25464 17.2875C1.23855 17.3487 1.22998 17.4128 1.22998 17.479C1.22998 20.1039 3.35568 22.2271 5.97659 22.239L5.97998 22.239C8.60339 22.239 10.7281 20.1158 10.74 17.5034L10.7399 17.4864C10.6926 14.8847 8.59824 12.7857 6.00025 12.7501L5.98998 12.75C3.44554 12.75 1.36569 14.7631 1.25464 17.2875Z" fill="#969EC2"/>
  <path d="M4.46841 5.37368C4.46841 4.98127 4.78652 4.66315 5.17893 4.66315H6.78945C7.18187 4.66315 7.49998 4.98127 7.49998 5.37368V7.78947C7.49998 8.18189 7.18187 8.5 6.78945 8.5C6.39704 8.5 6.07893 8.18189 6.07893 7.78947V6.08421H5.17893C4.78652 6.08421 4.46841 5.76609 4.46841 5.37368Z" fill="#969EC2"/>
  <path fill-rule="evenodd" clip-rule="evenodd" d="M16.2995 3.09499C17.0241 1.93565 18.7125 1.93565 19.4371 3.09499L22.4524 7.91951C23.2225 9.1517 22.3367 10.75 20.8836 10.75H14.8529C13.3999 10.75 12.514 9.1517 13.2841 7.91951L16.2995 3.09499ZM18.1651 3.88998C18.028 3.67065 17.7085 3.67065 17.5715 3.88998L14.5561 8.71451C14.4104 8.94763 14.578 9.25001 14.8529 9.25001H20.8836C21.1585 9.25001 21.3261 8.94763 21.1804 8.71451L18.1651 3.88998ZM16.8582 12.5207C17.4832 12.1598 18.2533 12.1598 18.8784 12.5207L21.6082 14.0967C22.2332 14.4576 22.6183 15.1245 22.6183 15.8462V18.9984C22.6183 19.7201 22.2332 20.387 21.6082 20.7479L18.8784 22.324C18.2533 22.6848 17.4832 22.6848 16.8582 22.324L14.1284 20.7479C13.5033 20.387 13.1183 19.7201 13.1183 18.9984V15.8462C13.1183 15.1245 13.5033 14.4576 14.1284 14.0967L16.8582 12.5207ZM18.1284 13.8197C17.9674 13.7268 17.7691 13.7268 17.6082 13.8197L14.8784 15.3958C14.7174 15.4887 14.6183 15.6604 14.6183 15.8462V18.9984C14.6183 19.1842 14.7174 19.3559 14.8784 19.4489L17.6082 21.0249C17.7691 21.1178 17.9674 21.1178 18.1284 21.0249L20.8582 19.4489C21.0191 19.3559 21.1183 19.1842 21.1183 18.9984V15.8462C21.1183 15.6604 21.0191 15.4887 20.8582 15.3958L18.1284 13.8197Z" fill="#969EC2"/>
</svg>
