<svg width="24" height="24" viewBox="0 0 24 24" fill="none" xmlns="http://www.w3.org/2000/svg">
    <path opacity="0"
        d="M19.8789 8.97003L20.6789 5.08204C20.8989 4.02204 19.9589 3.08204 18.8989 3.30804L15.0109 4.10804C13.8609 4.33804 12.8109 4.90804 11.9809 5.73804L9.46833 8.24907L8.78995 8.92703C7.67244 10.0354 6.91573 11.4583 6.60433 12.9923C6.57577 13.133 6.55096 13.2746 6.52995 13.417L6.50995 13.487C6.34995 14.567 6.70995 15.667 7.48995 16.447C8.25995 17.217 9.35994 17.587 10.4499 17.427L10.5199 17.407C12.2199 17.157 13.7999 16.357 15.0099 15.147L18.1989 11.958C18.6146 11.5372 18.9661 11.0599 19.2429 10.5417C19.512 10.0377 19.7106 9.49502 19.8289 8.92803L19.8789 8.97003Z"
        fill="url(#paint0_linear_898_13179)" fill-opacity="0.5" />
    <path d="M12.94 11.0599L10.5 13.5" stroke="#8C90A4" stroke-width="1.5" stroke-linecap="round"
        stroke-linejoin="round" />
    <path
        d="M7.49988 16.5001L5.86987 18.13M6.6328 12.999L3.16981 12.179C2.77981 12.089 2.64981 11.609 2.92981 11.339L5.67981 8.57905C5.85981 8.38905 6.10981 8.27905 6.3698 8.27905L9.4698 8.24905M13.3999 4.71004C15.7109 6.28003 17.6973 8.25408 19.2673 10.5651M10.9998 17.367L11.8098 20.827C11.8998 21.207 12.3698 21.337 12.6498 21.057L15.3997 18.297C15.5797 18.107 15.6897 17.857 15.6897 17.597L15.7097 14.487M19.8789 8.97003L20.6789 5.08204C20.8989 4.02204 19.9589 3.08204 18.8989 3.30804L15.0109 4.10804C13.8609 4.33804 12.8109 4.90804 11.9809 5.73804L8.78995 8.92703C7.56995 10.137 6.77995 11.722 6.52995 13.417L6.50995 13.487C6.34995 14.567 6.70995 15.667 7.48995 16.447C8.25995 17.217 9.35994 17.587 10.4499 17.427L10.5199 17.407C12.2199 17.157 13.7999 16.357 15.0099 15.147L18.1989 11.958C19.0189 11.128 19.6389 10.12 19.8789 8.97003Z"
        stroke="#8C90A4" stroke-width="1.5" stroke-linecap="round" stroke-linejoin="round" />
</svg>