<svg width="24" height="24" viewBox="0 0 24 24" fill="none" xmlns="http://www.w3.org/2000/svg">
    <path fill-rule="evenodd" clip-rule="evenodd" d="M12 3.75C7.44272 3.75 3.75 7.4347 3.75 12C3.75 16.5573 7.4347 20.25 12 20.25C16.5568 20.25 20.25 16.5568 20.25 12C20.25 7.44321 16.5568 3.75 12 3.75ZM2.25 12C2.25 6.6053 6.61527 2.25 12 2.25C17.3852 2.25 21.75 6.61479 21.75 12C21.75 17.3852 17.3852 21.75 12 21.75C6.6053 21.75 2.25 17.3847 2.25 12Z" fill="#8C90A4" />
    <path fill-rule="evenodd" clip-rule="evenodd" d="M9.24 9.83C9.24 8.30579 10.4658 7.08 11.99 7.08C13.5018 7.08 14.74 8.30335 14.74 9.83C14.74 11.0216 13.969 11.6474 13.4376 12.0162L13.4261 12.0241C12.9689 12.3289 12.75 12.5731 12.75 13V13.25C12.75 13.6642 12.4142 14 12 14C11.5858 14 11.25 13.6642 11.25 13.25V13C11.25 11.7913 12.0255 11.1558 12.5878 10.7801C13.0327 10.4707 13.24 10.2367 13.24 9.83C13.24 9.13665 12.6782 8.58 11.99 8.58C11.2942 8.58 10.74 9.13421 10.74 9.83C10.74 10.2442 10.4042 10.58 9.99 10.58C9.57579 10.58 9.24 10.2442 9.24 9.83Z" fill="#8C90A4" />
    <path fill-rule="evenodd" clip-rule="evenodd" d="M11.9939 15.25C11.9956 15.25 11.9973 15.25 11.999 15.25C12.0238 15.25 12.0483 15.2512 12.0725 15.2536C12.5566 15.2947 12.999 15.6902 12.999 16.25C12.999 16.5451 12.8662 16.7909 12.7031 16.9541C12.5399 17.1172 12.2941 17.25 11.999 17.25C11.4255 17.25 10.999 16.7747 10.999 16.25C10.999 15.72 11.4067 15.2891 11.9271 15.2525C11.9475 15.2509 11.9681 15.25 11.989 15.25C11.9906 15.25 11.9923 15.25 11.9939 15.25Z" fill="#8C90A4" />
</svg>