<svg width="24" height="24" viewBox="0 0 24 24" fill="none" xmlns="http://www.w3.org/2000/svg">
    <path fill-rule="evenodd" clip-rule="evenodd" d="M9.69311 3.03568C11.0533 1.98371 12.9406 1.98371 14.3008 3.03568L14.3026 3.0371L20.2859 7.69407L20.2935 7.68781C21.2035 8.39838 21.7419 9.48548 21.7419 10.649V17.982C21.7419 20.0532 20.0632 21.732 17.9919 21.732H5.99194C3.92073 21.732 2.24194 20.0532 2.24194 17.982V10.649C2.24194 9.50439 2.76369 8.40098 3.69541 7.69389L9.69311 3.03568ZM19.3888 8.88464L19.3813 8.89081L13.3831 4.22223C12.5636 3.58896 11.4309 3.5884 10.6114 4.22173L4.60456 8.88706C4.05876 9.30009 3.74194 9.95514 3.74194 10.649V17.982C3.74194 19.2247 4.74916 20.232 5.99194 20.232H17.9919C19.2347 20.232 20.2419 19.2247 20.2419 17.982V10.649C20.2419 9.96025 19.9275 9.3142 19.3888 8.88464Z" fill="#8C90A4" />
    <path d="M9.49994 11.399C9.49994 10.9847 9.83573 10.649 10.2499 10.649H12.9499C13.3641 10.649 13.6999 10.9847 13.6999 11.399V15.949C13.6999 16.3632 13.3641 16.699 12.9499 16.699C12.5357 16.699 12.1999 16.3632 12.1999 15.949V12.149H10.2499C9.83573 12.149 9.49994 11.8132 9.49994 11.399Z" fill="#8C90A4" />
</svg>