<svg width="24" height="24" viewBox="0 0 24 24" fill="none" xmlns="http://www.w3.org/2000/svg">
  <path fill-rule="evenodd" clip-rule="evenodd" d="M12.4905 7.59953C12.3587 7.38391 12.1212 7.24 11.85 7.24C11.2958 7.24 10.85 7.68579 10.85 8.24C10.85 8.76471 11.2765 9.24 11.85 9.24C12.1451 9.24 12.3909 9.10725 12.5541 8.94408C12.7172 8.78091 12.85 8.53514 12.85 8.24C12.85 7.96883 12.7061 7.73127 12.4905 7.59953Z" fill="#969EC2"/>
  <path fill-rule="evenodd" clip-rule="evenodd" d="M8.26884 2.99217C9.45176 2.50219 10.7196 2.25 12 2.25C13.2804 2.25 14.5482 2.50219 15.7312 2.99217C16.9141 3.48216 17.9889 4.20034 18.8943 5.10571C19.7997 6.01108 20.5178 7.08591 21.0078 8.26884C21.4978 9.45176 21.75 10.7196 21.75 12C21.75 13.2804 21.4978 14.5482 21.0078 15.7312C20.5178 16.9141 19.7997 17.9889 18.8943 18.8943C17.9889 19.7997 16.9141 20.5178 15.7312 21.0078C14.5482 21.4978 13.2804 21.75 12 21.75C10.7196 21.75 9.45176 21.4978 8.26884 21.0078C7.08591 20.5178 6.01108 19.7997 5.10571 18.8943C4.20034 17.9889 3.48216 16.9141 2.99217 15.7312C2.50219 14.5482 2.25 13.2804 2.25 12C2.25 10.7196 2.50219 9.45176 2.99217 8.26884C3.48216 7.08591 4.20034 6.01108 5.10571 5.10571C6.01108 4.20034 7.08591 3.48216 8.26884 2.99217ZM12 3.75C10.9166 3.75 9.8438 3.96339 8.84286 4.37799C7.84193 4.79259 6.93245 5.40029 6.16637 6.16637C5.40029 6.93245 4.7926 7.84193 4.37799 8.84286C3.96339 9.8438 3.75 10.9166 3.75 12C3.75 13.0834 3.96339 14.1562 4.37799 15.1571C4.7926 16.1581 5.40029 17.0675 6.16637 17.8336C6.93245 18.5997 7.84193 19.2074 8.84286 19.622C9.8438 20.0366 10.9166 20.25 12 20.25C13.0834 20.25 14.1562 20.0366 15.1571 19.622C16.1581 19.2074 17.0675 18.5997 17.8336 17.8336C18.5997 17.0675 19.2074 16.1581 19.622 15.1571C20.0366 14.1562 20.25 13.0834 20.25 12C20.25 10.9166 20.0366 9.8438 19.622 8.84286C19.2074 7.84193 18.5997 6.93245 17.8336 6.16637C17.0675 5.40029 16.1581 4.79259 15.1571 4.37799C14.1562 3.96339 13.0834 3.75 12 3.75ZM11.4596 8.63648C11.5931 8.84318 11.8256 8.98 12.09 8.98C12.5042 8.98 12.84 8.64421 12.84 8.23C12.84 7.93612 12.7081 7.68661 12.5368 7.51995C12.3646 7.35248 12.0989 7.21787 11.7825 7.24221C11.3807 7.27312 11.0751 7.61606 11.0906 8.01878C11.1007 8.28297 11.2466 8.51092 11.4596 8.63648Z" fill="#969EC2"/>
  <path d="M14.06 15.5C14.06 15.0858 13.7242 14.75 13.31 14.75H12.909V11.25C12.909 10.8358 12.5732 10.5 12.159 10.5H11.009C10.5948 10.5 10.259 10.8358 10.259 11.25C10.259 11.6642 10.5948 12 11.009 12H11.409V14.75L10.9733 14.7505C10.5715 14.7645 10.25 15.0947 10.25 15.5C10.25 15.9142 10.5858 16.25 11 16.25H13.31C13.7242 16.25 14.06 15.9142 14.06 15.5Z" fill="#969EC2"/>
</svg>
