<svg width="24" height="24" viewBox="0 0 24 24" fill="none" xmlns="http://www.w3.org/2000/svg">
  <path fill-rule="evenodd" clip-rule="evenodd" d="M17.581 5.11386C17.6171 5.07936 17.6503 5.04072 17.6798 4.99808C17.69 4.98331 17.6996 4.96829 17.7087 4.95306C17.8778 4.78278 18.1141 4.67718 18.3801 4.67718C18.4212 4.67718 18.4614 4.67388 18.5007 4.66754C18.9528 4.73487 19.3001 5.12242 19.3001 5.59718C19.3001 6.10718 18.8809 6.52938 18.3661 6.53717C17.8522 6.53499 17.4401 6.1216 17.4401 5.60718C17.4401 5.42608 17.4914 5.25693 17.581 5.11386ZM16.972 3.61986C14.958 2.40818 12.5697 1.97499 10.247 2.40363C9.83969 2.4788 9.57042 2.86995 9.6456 3.27729C9.72077 3.68462 10.1119 3.95389 10.5193 3.87872C12.4324 3.52566 14.3956 3.86429 16.0673 4.82779C15.9848 5.0722 15.9401 5.33427 15.9401 5.60718C15.9401 6.95139 17.0259 8.03718 18.3701 8.03718L18.3783 8.03713C19.7016 8.02275 20.8001 6.94583 20.8001 5.59718C20.8001 4.26976 19.749 3.20467 18.4478 3.15872C18.3761 3.1496 18.2941 3.14962 18.2055 3.16734C18.1743 3.17358 18.1444 3.1816 18.1156 3.19116C17.6922 3.23622 17.3017 3.38828 16.972 3.61986ZM3.16014 5.56918C3.16014 4.22356 4.2491 3.13476 5.60812 3.14922L5.60264 3.66442C5.6053 3.62902 5.60906 3.59639 5.61383 3.56638L5.61821 3.15922C6.95167 3.17356 8.05014 4.25057 8.05014 5.60918V5.61724C8.03584 6.94781 6.96161 8.04918 5.61014 8.04918H5.60208C5.33429 8.0463 5.07548 8.00032 4.83303 7.91769C3.86861 9.58085 3.52955 11.5358 3.88258 13.4405C3.95807 13.8478 3.6891 14.2391 3.28182 14.3146C2.87455 14.3901 2.48319 14.1211 2.4077 13.7139C1.97897 11.4007 2.41189 9.02191 3.62297 7.0173C3.33997 6.61949 3.17448 6.13203 3.18019 5.60111C3.1803 5.59041 3.18064 5.57976 3.1812 5.56918H3.16014ZM4.66601 5.46346C4.67579 5.51316 4.68067 5.56459 4.6801 5.61724C4.6773 5.87717 4.78711 6.11686 4.96766 6.28807C4.97976 6.29551 4.99173 6.30334 5.00353 6.31156C5.04025 6.33711 5.07398 6.36535 5.10464 6.39583C5.25009 6.49 5.42448 6.54636 5.61414 6.54917C6.11961 6.54699 6.54234 6.13129 6.55013 5.60516C6.54798 5.08561 6.12726 4.66478 5.60208 4.65913C5.56997 4.65879 5.53809 4.65638 5.50661 4.652C5.06221 4.68672 4.71476 5.02724 4.66601 5.46346ZM20.7033 9.67777C21.1106 9.60219 21.502 9.87106 21.5776 10.2783C22.0063 12.5886 21.5733 14.9651 20.3728 16.9752C20.6541 17.3724 20.8201 17.858 20.8201 18.3862C20.8201 18.4302 20.8163 18.4734 20.8091 18.5154C20.7789 19.0931 20.5456 19.6616 20.1105 20.1034C20.0584 20.1563 20.0004 20.1999 19.9385 20.234C18.9787 21.0493 17.5424 20.9941 16.6458 20.0975C16.5746 20.0263 16.5087 19.9517 16.4481 19.8743C16.1195 19.4595 15.924 18.9344 15.9302 18.3581C15.9311 18.2732 15.9363 18.1892 15.9457 18.1064C15.9793 17.7998 16.0713 17.4985 16.222 17.2206C16.6338 16.4531 17.4416 15.9261 18.3881 15.9362C18.659 15.9391 18.9203 15.9859 19.1646 16.07C20.1186 14.4004 20.4548 12.4491 20.1027 10.552C20.0272 10.1448 20.296 9.75335 20.7033 9.67777ZM18.8772 17.5898C18.5134 17.357 18.0244 17.3995 17.7065 17.7175L17.7024 17.7216C17.3835 18.0356 17.3429 18.5369 17.5958 18.904C17.7627 19.1414 18.0413 19.3014 18.3641 19.3062C18.6155 19.3051 18.8425 19.2057 19.0088 19.0442C19.0124 19.0404 19.0153 19.0374 19.0172 19.0355L19.0258 19.0268C19.0286 19.0241 19.0313 19.0214 19.0341 19.0187C19.193 18.852 19.2901 18.626 19.2901 18.3762V18.367C19.2901 18.3237 19.2938 18.2804 19.3009 18.2391C19.2709 18.0481 19.1827 17.8644 19.0358 17.7175L19.0326 17.7143C19.0201 17.7067 19.0076 17.6987 18.9954 17.6903C18.9518 17.6603 18.9123 17.6266 18.8772 17.5898ZM3.17451 18.2244C3.2509 16.9438 4.3206 15.9412 5.61014 15.9412C6.95871 15.9412 8.03581 17.0296 8.0501 18.3732L8.05019 18.3812C8.05019 18.6526 8.00597 18.9133 7.92449 19.1565C9.58989 20.1152 11.5545 20.4551 13.47 20.1016C13.8774 20.0265 14.2685 20.2957 14.3437 20.7031C14.4189 21.1104 14.1496 21.5015 13.7423 21.5767C11.4194 22.0054 9.03145 21.5721 7.02493 20.3676C6.63009 20.6487 6.14813 20.8155 5.62821 20.8211C5.55809 20.8219 5.49012 20.813 5.42556 20.7957C4.16369 20.7114 3.14619 19.6648 3.16019 18.3631C3.1607 18.3157 3.1656 18.2693 3.17451 18.2244ZM4.66369 18.47C4.70268 18.9017 5.05032 19.2539 5.49797 19.2968C5.52818 19.2931 5.55894 19.2912 5.59014 19.2912C5.64661 19.2912 5.70162 19.2974 5.75451 19.3092C5.9754 19.2741 6.16954 19.1641 6.31074 19.0067C6.31379 19.0021 6.31688 18.9975 6.32004 18.9929C6.34091 18.9627 6.36359 18.9345 6.38785 18.9084C6.48979 18.7589 6.54933 18.5787 6.55014 18.3851C6.54237 17.8507 6.1203 17.4412 5.61014 17.4412C5.08855 17.4412 4.67014 17.8612 4.67014 18.3712C4.67014 18.4047 4.66795 18.4377 4.66369 18.47Z" fill="#969EC2"/>
  <path d="M10.0003 10.7502C10.0003 10.336 10.3361 10.0002 10.7503 10.0002H12.7503C13.1645 10.0002 13.5003 10.336 13.5003 10.7502V13.7502C13.5003 14.1645 13.1645 14.5002 12.7503 14.5002C12.3361 14.5002 12.0003 14.1645 12.0003 13.7502V11.5002H10.7503C10.3361 11.5002 10.0003 11.1645 10.0003 10.7502Z" fill="#969EC2"/>
</svg>
