<svg width="24" height="24" viewBox="0 0 24 24" fill="none" xmlns="http://www.w3.org/2000/svg">
  <path fill-rule="evenodd" clip-rule="evenodd" d="M17.581 5.11386C17.6171 5.07936 17.6502 5.04072 17.6797 4.99808C17.69 4.98331 17.6996 4.96829 17.7086 4.95306C17.8778 4.78278 18.1141 4.67718 18.3801 4.67718C18.4211 4.67718 18.4614 4.67388 18.5006 4.66754C18.9528 4.73487 19.3001 5.12242 19.3001 5.59718C19.3001 6.10718 18.8808 6.52938 18.366 6.53717C17.8521 6.53499 17.4401 6.1216 17.4401 5.60718C17.4401 5.42608 17.4914 5.25693 17.581 5.11386ZM16.972 3.61986C14.9579 2.40818 12.5696 1.97499 10.247 2.40363C9.83963 2.4788 9.57036 2.86995 9.64554 3.27729C9.72071 3.68462 10.1119 3.95389 10.5192 3.87872C12.4323 3.52566 14.3955 3.86429 16.0673 4.82779C15.9848 5.0722 15.9401 5.33427 15.9401 5.60718C15.9401 6.95139 17.0259 8.03718 18.3701 8.03718L18.3782 8.03713C19.7016 8.02275 20.8001 6.94583 20.8001 5.59718C20.8001 4.26976 19.7489 3.20467 18.4477 3.15872C18.376 3.1496 18.2941 3.14962 18.2054 3.16734C18.1743 3.17358 18.1443 3.1816 18.1155 3.19116C17.6921 3.23622 17.3017 3.38828 16.972 3.61986ZM3.16008 5.56918C3.16008 4.22356 4.24904 3.13476 5.60806 3.14922L5.60258 3.66442C5.60524 3.62902 5.60899 3.59639 5.61377 3.56638L5.61815 3.15922C6.95161 3.17356 8.05008 4.25057 8.05008 5.60918V5.61724C8.03578 6.94781 6.96155 8.04918 5.61008 8.04918H5.60202C5.33422 8.0463 5.07542 8.00032 4.83297 7.91769C3.86855 9.58085 3.52949 11.5358 3.88252 13.4405C3.95801 13.8478 3.68904 14.2391 3.28176 14.3146C2.87449 14.3901 2.48313 14.1211 2.40764 13.7139C1.97891 11.4007 2.41183 9.02191 3.62291 7.0173C3.33991 6.61949 3.17442 6.13203 3.18013 5.60111C3.18024 5.59041 3.18058 5.57976 3.18114 5.56918H3.16008ZM4.66594 5.46346C4.67573 5.51316 4.6806 5.56459 4.68004 5.61724C4.67724 5.87717 4.78705 6.11686 4.9676 6.28807C4.9797 6.29551 4.99166 6.30334 5.00347 6.31156C5.04019 6.33711 5.07392 6.36535 5.10457 6.39583C5.25003 6.49 5.42442 6.54636 5.61408 6.54917C6.11955 6.54699 6.54228 6.13129 6.55007 5.60516C6.54792 5.08561 6.1272 4.66478 5.60202 4.65913C5.56991 4.65879 5.53802 4.65638 5.50655 4.652C5.06215 4.68672 4.7147 5.02724 4.66594 5.46346ZM20.7032 9.67777C21.1105 9.60219 21.5019 9.87106 21.5775 10.2783C22.0063 12.5886 21.5732 14.9651 20.3728 16.9752C20.6541 17.3724 20.8201 17.858 20.8201 18.3862C20.8201 18.4302 20.8163 18.4734 20.809 18.5154C20.7789 19.0931 20.5456 19.6616 20.1104 20.1034C20.0583 20.1563 20.0003 20.1999 19.9385 20.234C18.9786 21.0493 17.5423 20.9941 16.6458 20.0975C16.5745 20.0263 16.5086 19.9517 16.448 19.8743C16.1195 19.4595 15.9239 18.9344 15.9301 18.3581C15.931 18.2732 15.9363 18.1892 15.9456 18.1064C15.9793 17.7998 16.0713 17.4985 16.2219 17.2206C16.6338 16.4531 17.4416 15.9261 18.3881 15.9362C18.659 15.9391 18.9202 15.9859 19.1645 16.07C20.1185 14.4004 20.4547 12.4491 20.1027 10.552C20.0271 10.1448 20.296 9.75335 20.7032 9.67777ZM18.8771 17.5898C18.5134 17.357 18.0244 17.3995 17.7064 17.7175L17.7024 17.7216C17.3835 18.0356 17.3429 18.5369 17.5957 18.904C17.7626 19.1414 18.0412 19.3014 18.3641 19.3062C18.6154 19.3051 18.8424 19.2057 19.0088 19.0442C19.0124 19.0404 19.0153 19.0374 19.0171 19.0355L19.0258 19.0268C19.0285 19.0241 19.0313 19.0214 19.0341 19.0187C19.1929 18.852 19.2901 18.626 19.2901 18.3762V18.367C19.2901 18.3237 19.2938 18.2804 19.3008 18.2391C19.2709 18.0481 19.1826 17.8644 19.0358 17.7175L19.0326 17.7143C19.02 17.7067 19.0076 17.6987 18.9953 17.6903C18.9517 17.6603 18.9123 17.6266 18.8771 17.5898ZM3.17445 18.2244C3.25084 16.9438 4.32054 15.9412 5.61008 15.9412C6.95865 15.9412 8.03575 17.0296 8.05004 18.3732L8.05012 18.3812C8.05012 18.6526 8.00591 18.9133 7.92442 19.1565C9.58983 20.1152 11.5545 20.4551 13.47 20.1016C13.8773 20.0265 14.2685 20.2957 14.3436 20.7031C14.4188 21.1104 14.1495 21.5015 13.7422 21.5767C11.4194 22.0054 9.03139 21.5721 7.02487 20.3676C6.63003 20.6487 6.14807 20.8155 5.62815 20.8211C5.55803 20.8219 5.49006 20.813 5.4255 20.7957C4.16362 20.7114 3.14613 19.6648 3.16013 18.3631C3.16064 18.3157 3.16554 18.2693 3.17445 18.2244ZM4.66363 18.47C4.70262 18.9017 5.05026 19.2539 5.49791 19.2968C5.52811 19.2931 5.55888 19.2912 5.59008 19.2912C5.64654 19.2912 5.70156 19.2974 5.75445 19.3092C5.97534 19.2741 6.16948 19.1641 6.31068 19.0067C6.31372 19.0021 6.31682 18.9975 6.31998 18.9929C6.34085 18.9627 6.36353 18.9345 6.38779 18.9084C6.48973 18.7589 6.54927 18.5787 6.55007 18.3851C6.5423 17.8507 6.12024 17.4412 5.61008 17.4412C5.08849 17.4412 4.67008 17.8612 4.67008 18.3712C4.67008 18.4047 4.66789 18.4377 4.66363 18.47Z" fill="#8C90A4"/>
  <path d="M10.0002 10.7502C10.0002 10.336 10.336 10.0002 10.7502 10.0002H12.7502C13.1645 10.0002 13.5002 10.336 13.5002 10.7502V13.7502C13.5002 14.1645 13.1645 14.5002 12.7502 14.5002C12.336 14.5002 12.0002 14.1645 12.0002 13.7502V11.5002H10.7502C10.336 11.5002 10.0002 11.1645 10.0002 10.7502Z" fill="#8C90A4"/>
</svg>
