<svg width="24" height="24" viewBox="0 0 24 24" fill="none" xmlns="http://www.w3.org/2000/svg">
  <path fill-rule="evenodd" clip-rule="evenodd" d="M5 3.75C4.30421 3.75 3.75 4.30421 3.75 5V10C3.75 10.4142 3.41421 10.75 3 10.75C2.58579 10.75 2.25 10.4142 2.25 10V5C2.25 3.47579 3.47579 2.25 5 2.25H10C10.4142 2.25 10.75 2.58579 10.75 3C10.75 3.41421 10.4142 3.75 10 3.75H5ZM4.06544 12.7394C4.97957 12.4151 6.1935 12.23 7.5 12.23C8.80288 12.23 10.0171 12.4179 10.9324 12.745C11.3868 12.9074 11.8078 13.1182 12.1295 13.39C12.4478 13.6588 12.75 14.0611 12.75 14.59V19.38L12.75 19.3857L12.75 19.39C12.75 19.9194 12.4446 20.3202 12.1275 20.586C11.806 20.8555 11.3854 21.0651 10.9314 21.2266C10.1311 21.5114 9.10175 21.6909 7.98401 21.7313C7.82433 21.7371 7.66286 21.74 7.5 21.74C7.20394 21.74 6.91265 21.7304 6.62854 21.7117C5.65794 21.6478 4.77137 21.4784 4.06448 21.2265C3.61089 21.0648 3.19102 20.8551 2.87016 20.5852C2.55331 20.3186 2.25 19.918 2.25 19.39V14.58C2.25 14.0519 2.55073 13.65 2.86947 13.3812C3.191 13.11 3.61165 12.9005 4.06544 12.7394ZM3.75 15.5149V14.6158C3.76151 14.5995 3.78643 14.5701 3.83647 14.5279C3.96962 14.4156 4.2071 14.2808 4.56706 14.1531C5.28043 13.8999 6.3165 13.73 7.5 13.73C8.67712 13.73 9.71286 13.9021 10.4276 14.1575C10.7882 14.2864 11.0272 14.4224 11.1617 14.536C11.213 14.5793 11.2384 14.6095 11.25 14.626V15.52C11.2379 15.5365 11.2127 15.5655 11.1638 15.6065C11.029 15.7195 10.7896 15.8549 10.4286 15.9834C9.7132 16.2379 8.67702 16.41 7.5 16.41C6.31758 16.41 5.28208 16.2378 4.56898 15.9826C4.20921 15.8538 3.97142 15.718 3.83785 15.6048C3.78661 15.5614 3.76144 15.5313 3.75 15.5149ZM11.25 17.2725C11.1463 17.3167 11.0398 17.358 10.9314 17.3966C10.0168 17.7221 8.80298 17.91 7.5 17.91C6.19242 17.91 4.97792 17.7222 4.06352 17.3949C3.95687 17.3567 3.85208 17.3159 3.75 17.2722V19.3449C3.76144 19.3613 3.78661 19.3914 3.83785 19.4348C3.97142 19.548 4.20921 19.6838 4.56898 19.8126C5.19294 20.0359 6.06374 20.1957 7.06382 20.2321C7.20669 20.2373 7.3522 20.24 7.5 20.24C7.76792 20.24 8.02852 20.2311 8.27967 20.2143C9.13198 20.1573 9.87554 20.0098 10.4276 19.8125C10.7882 19.6836 11.0272 19.5476 11.1617 19.434C11.213 19.3907 11.2384 19.3605 11.25 19.344V17.2725ZM21 13.25C21.4142 13.25 21.75 13.5858 21.75 14V19C21.75 20.5142 20.5142 21.75 19 21.75H16C15.5858 21.75 15.25 21.4142 15.25 21C15.25 20.5858 15.5858 20.25 16 20.25H19C19.6858 20.25 20.25 19.6858 20.25 19V14C20.25 13.5858 20.5858 13.25 21 13.25Z" fill="#8C90A4"/>
  <path d="M15.8895 5.31579C15.8895 4.92338 16.2076 4.60527 16.6 4.60527H18.2105C18.6029 4.60527 18.9211 4.92338 18.9211 5.31579V7.73159C18.9211 8.124 18.6029 8.44211 18.2105 8.44211C17.8181 8.44211 17.5 8.124 17.5 7.73159V6.02632H16.6C16.2076 6.02632 15.8895 5.7082 15.8895 5.31579Z" fill="#8C90A4"/>
  <path fill-rule="evenodd" clip-rule="evenodd" d="M15.6053 2C14.1664 2 13 3.16642 13 4.60526V8.39474C13 9.83358 14.1664 11 15.6053 11H19.3947C20.8336 11 22 9.83358 22 8.39474V4.60526C22 3.16642 20.8336 2 19.3947 2H15.6053ZM15.6053 3.42105C14.9512 3.42105 14.4211 3.95124 14.4211 4.60526V8.39474C14.4211 9.04876 14.9512 9.57895 15.6053 9.57895H19.3947C20.0488 9.57895 20.5789 9.04876 20.5789 8.39474V4.60526C20.5789 3.95124 20.0488 3.42105 19.3947 3.42105H15.6053Z" fill="#8C90A4"/>
</svg>
