<svg width="24" height="24" viewBox="0 0 24 24" fill="none" xmlns="http://www.w3.org/2000/svg">
<rect opacity="0.1" x="4" y="6" width="16" height="12" fill="url(#paint0_linear_898_13209)"/>
<path d="M12 6H6C4.89543 6 4 6.89543 4 8V16C4 17.1046 4.89543 18 6 18H18C19.1046 18 20 17.1046 20 16V12" stroke="#B9BCD1" stroke-width="1.5" stroke-linecap="round" stroke-linejoin="round"/>
<path d="M11.9974 12.035C12.0074 12.045 12.0074 12.085 11.9974 12.105C11.9774 12.115 11.9374 12.115 11.9174 12.105C11.8974 12.085 11.8974 12.045 11.9074 12.025C11.9074 12.015 11.9074 12.015 11.9074 12.015C11.9174 11.995 11.9574 11.995 11.9774 12.015M14.9974 12.035C15.0074 12.045 15.0074 12.085 14.9974 12.105C14.9774 12.115 14.9374 12.115 14.9174 12.105C14.8974 12.085 14.8974 12.045 14.9074 12.025C14.9074 12.015 14.9074 12.015 14.9074 12.015C14.9174 11.995 14.9574 11.995 14.9774 12.015M9.09757 12.035C9.10757 12.045 9.10657 12.085 9.09657 12.105C9.07657 12.115 9.03657 12.115 9.01657 12.105C8.99657 12.085 8.99657 12.045 9.00657 12.025C9.00657 12.015 9.00657 12.015 9.00657 12.015C9.01657 11.995 9.05657 11.995 9.07657 12.015" stroke="#606376" stroke-width="1.5" stroke-linecap="round" stroke-linejoin="round"/>
<path d="M18.03 2.5V3.75M18.03 3.75C16.78 3.75 15.78 4.75003 15.78 6.00003C15.78 7.24003 16.78 8.25004 18.03 8.25004M18.03 3.75C19.27 3.75 20.28 4.75003 20.28 6.00003C20.28 7.24003 19.27 8.25004 18.03 8.25004M18.03 8.25004V9.50003M15 4.24997L16.08 4.87496M19.98 7.12504L21.06 7.75003M21.07 4.24997L19.98 4.87496M16.09 7.12504L15 7.75003" stroke="#606376" stroke-width="1.5" stroke-linecap="round" stroke-linejoin="round"/>
<defs>
<linearGradient id="paint0_linear_898_13209" x1="7.42857" y1="17.7857" x2="19.2087" y2="6.36255" gradientUnits="userSpaceOnUse">
<stop stop-color="#6A738C"/>
<stop offset="1" stop-color="#6A738C" stop-opacity="0"/>
</linearGradient>
</defs>
</svg>
