<svg width="24" height="24" viewBox="0 0 24 24" fill="none" xmlns="http://www.w3.org/2000/svg">
  <path fill-rule="evenodd" clip-rule="evenodd" d="M6 3.75C4.75721 3.75 3.75 4.75721 3.75 6V18C3.75 19.2428 4.75721 20.25 6 20.25H18C19.2428 20.25 20.25 19.2428 20.25 18V6C20.25 4.75721 19.2428 3.75 18 3.75H6ZM2.25 6C2.25 3.92879 3.92879 2.25 6 2.25H18C20.0712 2.25 21.75 3.92879 21.75 6V18C21.75 20.0712 20.0712 21.75 18 21.75H6C3.92879 21.75 2.25 20.0712 2.25 18V6ZM7.42383 8.51986C7.68901 8.20165 8.16193 8.15866 8.48014 8.42383L11.4801 10.9238C11.6511 11.0663 11.75 11.2774 11.75 11.5C11.75 11.7226 11.6511 11.9337 11.4801 12.0762L8.48014 14.5762C8.16193 14.8413 7.68901 14.7983 7.42383 14.4801C7.15866 14.1619 7.20165 13.689 7.51986 13.4238L9.82846 11.5L7.51986 9.57617C7.20165 9.31099 7.15866 8.83807 7.42383 8.51986ZM12.25 15C12.25 14.5858 12.5858 14.25 13 14.25H16C16.4142 14.25 16.75 14.5858 16.75 15C16.75 15.4142 16.4142 15.75 16 15.75H13C12.5858 15.75 12.25 15.4142 12.25 15Z" fill="#969EC2"/>
</svg>
