<svg width="24" height="24" viewBox="0 0 24 24" fill="none" xmlns="http://www.w3.org/2000/svg">
<rect opacity="0.1" x="3" y="5" width="18" height="14" fill="url(#paint0_linear_4359_11907)"/>
<rect x="3" y="5" width="18" height="14" rx="2" stroke="#B9BCD1" stroke-width="1.5" stroke-linecap="round" stroke-linejoin="round"/>
<path d="M15.278 10.1523L17.8817 13.4379C18.0331 13.6316 18.1466 13.803 18.1466 14.0563C18.1466 14.6151 17.7152 14.8982 17.1929 14.8982H15.5277C15.2401 14.8982 14.9904 14.8461 14.7633 14.6598C14.5589 14.4959 14.4075 14.2277 14.4075 13.9669C14.4075 13.7285 14.5438 13.5199 14.8087 13.5199C15.0282 13.5199 15.1644 13.6987 15.1644 13.8999C15.1644 14.1234 15.2855 14.1532 15.4975 14.1532H17.1399C17.2005 14.1532 17.3897 14.1755 17.3897 14.0638C17.3897 14.0042 17.2837 13.8924 17.2535 13.8477L14.6573 10.5621C14.4984 10.3609 14.4075 10.2119 14.4075 9.95113C14.4075 9.65311 14.5514 9.3998 14.8087 9.23589C15.0206 9.10178 15.1947 9.10178 15.4369 9.10178H17.0415C17.3292 9.10178 17.5714 9.16139 17.7909 9.34765C17.9876 9.51901 18.1466 9.79467 18.1466 10.0554C18.1466 10.2939 18.0255 10.4876 17.753 10.4876C17.5259 10.4876 17.3897 10.346 17.3897 10.1374C17.3897 9.88408 17.261 9.84683 17.0264 9.84683H15.4218C15.3385 9.84683 15.1644 9.82447 15.1644 9.95113C15.1644 10.0182 15.2477 10.1076 15.278 10.1523Z" fill="#606376"/>
<path d="M11.0962 14.1532V9.84683H10.8161C10.5664 9.84683 10.3544 9.75742 10.3544 9.4743C10.3544 9.20609 10.5588 9.10178 10.7934 9.10178H12.0574C12.6478 9.10178 12.943 9.3402 13.2004 9.84683L13.8664 11.1581C14.0178 11.4636 14.0935 11.6796 14.0935 12.0224C14.0935 12.3204 14.0102 12.5737 13.874 12.8419L13.1852 14.1979C12.9203 14.7269 12.5797 14.8982 11.9893 14.8982H10.7329C10.5361 14.8982 10.3544 14.7939 10.3544 14.5257C10.3544 14.2575 10.5361 14.1532 10.7329 14.1532H11.0962ZM11.8531 9.84683V14.1532H11.9969C12.3148 14.1532 12.3905 14.1159 12.5267 13.8403L13.1928 12.5141C13.276 12.3427 13.3366 12.2161 13.3366 12.0298C13.3366 11.7765 13.2533 11.6349 13.1474 11.4189L12.5192 10.1597C12.3602 9.83937 12.2921 9.84683 11.9439 9.84683H11.8531Z" fill="#606376"/>
<path d="M8.58556 9.84683H5.98185C5.78505 9.84683 5.6034 9.74252 5.6034 9.4743C5.6034 9.20609 5.78505 9.10178 5.98185 9.10178H8.58556C9.01699 9.10178 9.34245 9.42215 9.34245 9.84683V11.2773C9.34245 11.5753 9.2819 11.7914 9.04727 12C9.2819 12.2086 9.34245 12.4247 9.34245 12.7227V14.1532C9.34245 14.5779 9.01699 14.8982 8.58556 14.8982H5.98185C5.78505 14.8982 5.6034 14.7939 5.6034 14.5257C5.6034 14.2575 5.78505 14.1532 5.98185 14.1532H8.58556V12.9164C8.58556 12.4992 8.41904 12.3725 8.20711 12.3725H6.7236C6.52681 12.3725 6.34516 12.2682 6.34516 12C6.34516 11.7318 6.52681 11.6275 6.7236 11.6275H8.20711C8.41904 11.6275 8.58556 11.5008 8.58556 11.0836V9.84683Z" fill="#606376"/>
<path fill-rule="evenodd" clip-rule="evenodd" d="M17.8817 13.4379C18.0331 13.6316 18.1466 13.803 18.1466 14.0563C18.1466 14.6151 17.7152 14.8982 17.1929 14.8982H15.5277C15.2401 14.8982 14.9904 14.8461 14.7633 14.6598C14.5589 14.4959 14.4075 14.2277 14.4075 13.9669C14.4075 13.7285 14.5438 13.5199 14.8087 13.5199C15.0282 13.5199 15.1644 13.6987 15.1644 13.8999C15.1644 14.1234 15.2855 14.1532 15.4975 14.1532H17.1399C17.1473 14.1532 17.1567 14.1535 17.1673 14.1539C17.2439 14.1566 17.3897 14.1619 17.3897 14.0638C17.3897 14.0193 17.3308 13.9459 17.2883 13.8929C17.2738 13.8748 17.2612 13.8591 17.2535 13.8477L14.6573 10.5621C14.4984 10.3609 14.4075 10.2119 14.4075 9.95113C14.4075 9.65311 14.5514 9.3998 14.8087 9.23589C15.0206 9.10178 15.1947 9.10178 15.4369 9.10178H17.0415C17.3292 9.10178 17.5714 9.16139 17.7909 9.34765C17.9876 9.51901 18.1466 9.79467 18.1466 10.0554C18.1466 10.2939 18.0255 10.4876 17.753 10.4876C17.5259 10.4876 17.3897 10.346 17.3897 10.1374C17.3897 9.88408 17.261 9.84683 17.0264 9.84683H15.4218C15.4117 9.84683 15.4004 9.8465 15.3882 9.84615C15.2991 9.8436 15.1644 9.83975 15.1644 9.95113C15.1644 10.0034 15.2151 10.0694 15.2518 10.1171C15.2621 10.1304 15.2713 10.1425 15.278 10.1523L17.8817 13.4379ZM15.3617 10.0924L17.9636 13.3759C18.1173 13.5725 18.25 13.7671 18.25 14.0563C18.25 14.3641 18.1299 14.6041 17.9314 14.7653C17.7355 14.9245 17.4719 15 17.1929 15H15.5277C15.2264 15 14.9497 14.945 14.6976 14.7384C14.4737 14.5586 14.3041 14.2632 14.3041 13.9669C14.3041 13.8298 14.3432 13.6939 14.4283 13.5901C14.5155 13.4837 14.6456 13.4181 14.8087 13.4181C15.0987 13.4181 15.2678 13.6566 15.2678 13.8999C15.2678 13.9943 15.2925 14.0154 15.3068 14.0243C15.3349 14.0419 15.3887 14.0514 15.4975 14.0514H17.1399C17.1498 14.0514 17.1616 14.0518 17.1718 14.0522C17.1828 14.0526 17.1941 14.053 17.2059 14.0532C17.23 14.0535 17.2526 14.0527 17.2717 14.0498C17.2731 14.0496 17.2745 14.0494 17.2758 14.0491C17.2691 14.0378 17.2601 14.0247 17.2493 14.01C17.2357 13.9915 17.2209 13.9732 17.2066 13.9553L17.2049 13.9532C17.1931 13.9385 17.1797 13.9218 17.1698 13.9076L14.5757 10.6246C14.4952 10.5227 14.4262 10.427 14.3782 10.32C14.3293 10.211 14.3041 10.0944 14.3041 9.95113C14.3041 9.61743 14.4667 9.33247 14.7525 9.15044C14.99 9.00014 15.191 8.99998 15.4296 9L17.0415 9C17.3457 9 17.6147 9.06376 17.8584 9.27056L17.8594 9.27141C18.0721 9.45662 18.25 9.75817 18.25 10.0554C18.25 10.19 18.216 10.3233 18.1324 10.4249C18.0461 10.5298 17.9167 10.5893 17.753 10.5893C17.6172 10.5893 17.4983 10.5466 17.4131 10.4627C17.328 10.3789 17.2863 10.2638 17.2863 10.1374C17.2863 10.0257 17.2583 9.99491 17.2381 9.9814C17.206 9.96 17.1459 9.94861 17.0264 9.94861H15.4218C15.4102 9.94861 15.3974 9.94824 15.3858 9.94791L15.3838 9.94785C15.371 9.94748 15.3586 9.94714 15.346 9.94709C15.3203 9.94699 15.2986 9.94817 15.2815 9.95142C15.2761 9.95245 15.272 9.95352 15.269 9.95447C15.2697 9.95662 15.2708 9.95963 15.2726 9.96355C15.2775 9.97459 15.2853 9.98801 15.2959 10.0036C15.3063 10.0191 15.318 10.0345 15.33 10.0501C15.3313 10.0518 15.3327 10.0537 15.3341 10.0555C15.3432 10.0673 15.3535 10.0806 15.3617 10.0924ZM13.8664 11.1581C14.0178 11.4636 14.0935 11.6796 14.0935 12.0224C14.0935 12.3204 14.0102 12.5737 13.874 12.8419L13.1852 14.1979C12.9203 14.7269 12.5797 14.8982 11.9893 14.8982H10.7329C10.5361 14.8982 10.3544 14.7939 10.3544 14.5257C10.3544 14.2575 10.5361 14.1532 10.7329 14.1532H11.0962V9.84683H10.8161C10.5664 9.84683 10.3544 9.75742 10.3544 9.4743C10.3544 9.20609 10.5588 9.10178 10.7934 9.10178H12.0574C12.6478 9.10178 12.943 9.3402 13.2004 9.84683L13.8664 11.1581ZM10.9928 9.94861H10.8161C10.6817 9.94861 10.5416 9.92505 10.4325 9.85025C10.3169 9.77099 10.251 9.64456 10.251 9.4743C10.251 9.31146 10.3149 9.18685 10.4238 9.10615C10.5282 9.02878 10.6627 9 10.7934 9H12.0574C12.3673 9 12.6111 9.06279 12.8128 9.20073C13.0128 9.33751 13.1606 9.54087 13.2928 9.80131L13.9594 11.1135C14.1148 11.4271 14.1969 11.6588 14.1969 12.0224C14.1969 12.3412 14.1072 12.6104 13.9665 12.8874L13.278 14.2429C13.2779 14.243 13.278 14.2428 13.278 14.2429C13.1397 14.5189 12.9761 14.7126 12.761 14.8346C12.5469 14.956 12.2937 15 11.9893 15H10.7329C10.6174 15 10.4961 14.9695 10.4022 14.8895C10.3057 14.8074 10.251 14.6841 10.251 14.5257C10.251 14.3673 10.3057 14.244 10.4022 14.1619C10.4961 14.0819 10.6174 14.0514 10.7329 14.0514H10.9928V9.94861ZM12.5192 10.1597C12.3638 9.84662 12.2952 9.84666 11.9671 9.84682L11.8531 9.84683V14.1532H11.9969C12.3148 14.1532 12.3905 14.1159 12.5267 13.8403L13.1928 12.5141C13.276 12.3427 13.3366 12.2161 13.3366 12.0298C13.3366 11.8001 13.2682 11.6623 13.1764 11.4776C13.167 11.4586 13.1573 11.439 13.1474 11.4189L12.5192 10.1597ZM13.0543 11.4631C13.0542 11.463 13.0543 11.4632 13.0543 11.4631L12.4263 10.2046C12.3464 10.0435 12.3025 9.99617 12.2576 9.97482C12.2339 9.96359 12.2024 9.95602 12.1505 9.95216C12.1021 9.94855 12.0439 9.94857 11.9659 9.9486C11.9628 9.9486 11.9597 9.9486 11.9565 9.9486V14.0514H11.9969C12.1582 14.0514 12.2292 14.0403 12.2776 14.0123C12.324 13.9855 12.3657 13.9334 12.4337 13.7957L12.434 13.7951L13.0998 12.4695C13.1832 12.2978 13.2332 12.1902 13.2332 12.0298C13.2332 11.8245 13.1748 11.7065 13.0828 11.5209C13.0737 11.5025 13.064 11.483 13.0543 11.4631ZM8.48216 9.94861H5.98185C5.86631 9.94861 5.74509 9.91807 5.65119 9.83813C5.5547 9.75599 5.5 9.63269 5.5 9.4743C5.5 9.31591 5.5547 9.19262 5.65119 9.11048C5.74509 9.03053 5.86631 9 5.98185 9H8.58556C9.0741 9 9.44585 9.36594 9.44585 9.84683V11.2773C9.44585 11.4325 9.4302 11.5746 9.37973 11.7078C9.33988 11.8129 9.27977 11.9088 9.19434 12C9.27977 12.0912 9.33988 12.1871 9.37973 12.2922C9.4302 12.4255 9.44585 12.5675 9.44585 12.7227V14.1532C9.44585 14.6341 9.0741 15 8.58556 15H5.98185C5.86631 15 5.74509 14.9695 5.65119 14.8895C5.5547 14.8074 5.5 14.6841 5.5 14.5257C5.5 14.3673 5.5547 14.244 5.65119 14.1619C5.74509 14.0819 5.86631 14.0514 5.98185 14.0514H8.48216V12.9164C8.48216 12.7182 8.44211 12.6095 8.39507 12.5516C8.35175 12.4983 8.29102 12.4743 8.20711 12.4743H6.7236C6.60807 12.4743 6.48685 12.4438 6.39294 12.3638C6.29646 12.2817 6.24176 12.1584 6.24176 12C6.24176 11.8416 6.29646 11.7183 6.39294 11.6362C6.48685 11.5562 6.60807 11.5257 6.7236 11.5257H8.20711C8.29101 11.5257 8.35175 11.5017 8.39507 11.4484C8.44211 11.3905 8.48216 11.2818 8.48216 11.0836V9.94861ZM5.98185 9.84683C5.78505 9.84683 5.6034 9.74252 5.6034 9.4743C5.6034 9.20609 5.78505 9.10178 5.98185 9.10178H8.58556C9.01699 9.10178 9.34245 9.42215 9.34245 9.84683V11.2773C9.34245 11.5414 9.29491 11.7411 9.12085 11.9283C9.09847 11.9524 9.074 11.9762 9.04727 12C9.074 12.0238 9.09847 12.0476 9.12085 12.0717C9.29491 12.2589 9.34245 12.4586 9.34245 12.7227V14.1532C9.34245 14.5779 9.01699 14.8982 8.58556 14.8982H5.98185C5.78505 14.8982 5.6034 14.7939 5.6034 14.5257C5.6034 14.2575 5.78505 14.1532 5.98185 14.1532H8.58556V12.9164C8.58556 12.4992 8.41904 12.3725 8.20711 12.3725H6.7236C6.52681 12.3725 6.34516 12.2682 6.34516 12C6.34516 11.7318 6.52681 11.6275 6.7236 11.6275H8.20711C8.41904 11.6275 8.58556 11.5008 8.58556 11.0836V9.84683H5.98185Z" fill="#606376"/>
<defs>
<linearGradient id="paint0_linear_4359_11907" x1="6.85714" y1="18.75" x2="20.5762" y2="5.92178" gradientUnits="userSpaceOnUse">
<stop stop-color="#6A738C"/>
<stop offset="1" stop-color="#6A738C" stop-opacity="0"/>
</linearGradient>
</defs>
</svg>
