<svg width="18" height="18" viewBox="0 0 18 18" fill="none" xmlns="http://www.w3.org/2000/svg">
<path fill-rule="evenodd" clip-rule="evenodd" d="M9.4496 4.96624C9.32884 4.76859 9.11108 4.63667 8.8625 4.63667C8.35447 4.63667 7.94583 5.0453 7.94583 5.55333C7.94583 6.03432 8.33684 6.47 8.8625 6.47C9.13304 6.47 9.35834 6.34831 9.50791 6.19874C9.65748 6.04917 9.77917 5.82388 9.77917 5.55333C9.77917 5.30476 9.64725 5.087 9.4496 4.96624Z" fill="#29B6F6"/>
<path fill-rule="evenodd" clip-rule="evenodd" d="M7.39583 12.2083C7.39583 11.8286 7.70364 11.5208 8.08333 11.5208H10.2008C10.5805 11.5208 10.8883 11.8286 10.8883 12.2083C10.8883 12.588 10.5805 12.8958 10.2008 12.8958H8.08333C7.70364 12.8958 7.39583 12.588 7.39583 12.2083Z" fill="#29B6F6"/>
<path fill-rule="evenodd" clip-rule="evenodd" d="M5.57977 0.742827C6.66411 0.293675 7.82631 0.0625 9 0.0625C10.1737 0.0625 11.3359 0.293675 12.4202 0.742827C13.5046 1.19198 14.4898 1.85031 15.3198 2.68023C16.1497 3.51016 16.808 4.49542 17.2572 5.57977C17.7063 6.66411 17.9375 7.82631 17.9375 9C17.9375 10.1737 17.7063 11.3359 17.2572 12.4202C16.808 13.5046 16.1497 14.4898 15.3198 15.3198C14.4898 16.1497 13.5046 16.808 12.4202 17.2572C11.3359 17.7063 10.1737 17.9375 9 17.9375C7.82631 17.9375 6.66411 17.7063 5.57977 17.2572C4.49542 16.808 3.51016 16.1497 2.68023 15.3198C1.85031 14.4898 1.19198 13.5046 0.742827 12.4202C0.293675 11.3359 0.0625 10.1737 0.0625 9C0.0625 7.82631 0.293675 6.66411 0.742827 5.57977C1.19198 4.49542 1.85031 3.51016 2.68023 2.68023C3.51016 1.85031 4.49542 1.19198 5.57977 0.742827ZM9 1.4375C8.00688 1.4375 7.02348 1.63311 6.10596 2.01316C5.18843 2.39321 4.35475 2.95026 3.65251 3.6525C2.95026 4.35475 2.39321 5.18843 2.01316 6.10596C1.63311 7.02348 1.4375 8.00688 1.4375 9C1.4375 9.99312 1.63311 10.9765 2.01316 11.894C2.39321 12.8116 2.95026 13.6453 3.65251 14.3475C4.35475 15.0497 5.18843 15.6068 6.10596 15.9868C7.02348 16.3669 8.00688 16.5625 9 16.5625C9.99312 16.5625 10.9765 16.3669 11.894 15.9868C12.8116 15.6068 13.6453 15.0497 14.3475 14.3475C15.0497 13.6453 15.6068 12.8116 15.9868 11.894C16.3669 10.9765 16.5625 9.99312 16.5625 9C16.5625 8.00688 16.3669 7.02348 15.9868 6.10596C15.6068 5.18843 15.0497 4.35475 14.3475 3.6525C13.6453 2.95026 12.8116 2.39321 11.894 2.01316C10.9765 1.63311 9.99312 1.4375 9 1.4375ZM8.50463 5.91677C8.62705 6.10625 8.84013 6.23167 9.0825 6.23167C9.4622 6.23167 9.77 5.92386 9.77 5.54417C9.77 5.27478 9.64905 5.04606 9.49204 4.89329C9.33425 4.73977 9.09063 4.61638 8.8006 4.63869C8.43226 4.66703 8.15216 4.98139 8.16634 5.35055C8.17564 5.59273 8.3094 5.80168 8.50463 5.91677ZM7.40408 8.3125C7.40408 7.9328 7.71189 7.625 8.09158 7.625H9.14575C9.52545 7.625 9.83325 7.9328 9.83325 8.3125V12.2083C9.83325 12.588 9.52545 12.8958 9.14575 12.8958C8.76606 12.8958 8.45825 12.588 8.45825 12.2083V9H8.09158C7.71189 9 7.40408 8.6922 7.40408 8.3125Z" fill="#29B6F6"/>
</svg>
