<svg width="18" height="18" viewBox="0 0 18 18" fill="none" xmlns="http://www.w3.org/2000/svg">
<path fill-rule="evenodd" clip-rule="evenodd" d="M5.57977 0.742827C6.66411 0.293675 7.82631 0.0625 9 0.0625C10.1737 0.0625 11.3359 0.293675 12.4202 0.742827C13.5046 1.19198 14.4898 1.85031 15.3198 2.68023C16.1497 3.51016 16.808 4.49542 17.2572 5.57977C17.7063 6.66411 17.9375 7.82631 17.9375 9C17.9375 10.1737 17.7063 11.3359 17.2572 12.4202C16.808 13.5046 16.1497 14.4898 15.3198 15.3198C14.4898 16.1497 13.5046 16.808 12.4202 17.2572C11.3359 17.7063 10.1737 17.9375 9 17.9375C7.82631 17.9375 6.66411 17.7063 5.57977 17.2572C4.49542 16.808 3.51016 16.1497 2.68023 15.3198C1.85031 14.4898 1.19198 13.5046 0.742827 12.4202C0.293675 11.3359 0.0625 10.1737 0.0625 9C0.0625 7.82631 0.293675 6.66411 0.742827 5.57977C1.19198 4.49542 1.85031 3.51016 2.68023 2.68023C3.51016 1.85031 4.49542 1.19198 5.57977 0.742827ZM9 1.4375C8.00688 1.4375 7.02348 1.63311 6.10596 2.01316C5.18843 2.39321 4.35475 2.95026 3.65251 3.6525C2.95026 4.35475 2.39321 5.18843 2.01316 6.10596C1.63311 7.02348 1.4375 8.00688 1.4375 9C1.4375 9.99312 1.63311 10.9765 2.01316 11.894C2.39321 12.8116 2.95026 13.6453 3.65251 14.3475C4.35475 15.0497 5.18843 15.6068 6.10596 15.9868C7.02348 16.3669 8.00688 16.5625 9 16.5625C9.99312 16.5625 10.9765 16.3669 11.894 15.9868C12.8116 15.6068 13.6453 15.0497 14.3475 14.3475C15.0497 13.6453 15.6068 12.8116 15.9868 11.894C16.3669 10.9765 16.5625 9.99312 16.5625 9C16.5625 8.00688 16.3669 7.02348 15.9868 6.10596C15.6068 5.18843 15.0497 4.35475 14.3475 3.6525C13.6453 2.95026 12.8116 2.39321 11.894 2.01316C10.9765 1.63311 9.99312 1.4375 9 1.4375Z" fill="#00B68A"/>
<path fill-rule="evenodd" clip-rule="evenodd" d="M12.6637 6.3097C12.9325 6.57791 12.9329 7.01321 12.6647 7.28197L8.32393 11.6317C8.29364 11.686 8.2554 11.7371 8.20923 11.7833C7.94075 12.0518 7.50545 12.0518 7.23696 11.7833L7.21863 11.765C7.21842 11.7648 7.21883 11.7652 7.21863 11.765L5.25053 9.79689C4.98204 9.5284 4.98204 9.0931 5.25053 8.82461C5.51902 8.55613 5.95432 8.55613 6.2228 8.82461L7.70425 10.3061L11.6914 6.3107C11.9597 6.04193 12.395 6.04149 12.6637 6.3097Z" fill="#00B68A"/>
</svg>
