<svg width="20" height="18" viewBox="0 0 20 18" fill="none" xmlns="http://www.w3.org/2000/svg">
<path fill-rule="evenodd" clip-rule="evenodd" d="M7.65606 1.61378C8.69583 -0.194507 11.3048 -0.194502 12.3446 1.61379L19.4004 13.8848C20.437 15.6875 19.1357 17.9369 17.0561 17.9369H2.94451C0.864965 17.9369 -0.43634 15.6875 0.600255 13.8847L7.65606 1.61378ZM11.1526 2.29919C10.6415 1.41036 9.35913 1.41036 8.84806 2.29918L1.79225 14.5701C1.28274 15.4563 1.92236 16.5619 2.94451 16.5619H17.0561C18.0783 16.5619 18.7179 15.4563 18.2084 14.5701L11.1526 2.29919Z" fill="#FFA726"/>
<path fill-rule="evenodd" clip-rule="evenodd" d="M10.001 5.88325C10.3807 5.88325 10.6885 6.19106 10.6885 6.57075V9.99909C10.6885 10.3788 10.3807 10.6866 10.001 10.6866C9.6213 10.6866 9.3135 10.3788 9.3135 9.99909V6.57075C9.3135 6.19106 9.6213 5.88325 10.001 5.88325ZM9.99543 12.0662L10.0001 12.0662C10.0228 12.0662 10.0453 12.0673 10.0675 12.0694C10.5112 12.1072 10.9167 12.4696 10.9167 12.9828C10.9167 13.2534 10.7951 13.4787 10.6455 13.6282C10.4959 13.7778 10.2706 13.8995 10.0001 13.8995C9.47442 13.8995 9.08341 13.4638 9.08341 12.9828C9.08341 12.497 9.45716 12.102 9.93415 12.0685C9.95287 12.0669 9.9718 12.0662 9.99092 12.0662L9.99543 12.0662Z" fill="#FFA726"/>
</svg>
