<svg width="24" height="24" viewBox="0 0 24 24" fill="none" xmlns="http://www.w3.org/2000/svg">
  <rect opacity="0.25" width="16" height="12" transform="matrix(1 0 0 -1 4 18)" fill="url(#paint0_linear_1637_7047)"/>
  <path d="M11.9974 12.035C12.0074 12.045 12.0074 12.085 11.9974 12.105C11.9774 12.115 11.9374 12.115 11.9174 12.105C11.8974 12.085 11.8974 12.045 11.9074 12.025C11.9074 12.015 11.9074 12.015 11.9074 12.015C11.9174 11.995 11.9574 11.995 11.9774 12.015M14.9974 12.035C15.0074 12.045 15.0074 12.085 14.9974 12.105C14.9774 12.115 14.9374 12.115 14.9174 12.105C14.8974 12.085 14.8974 12.045 14.9074 12.025C14.9074 12.015 14.9074 12.015 14.9074 12.015C14.9174 11.995 14.9574 11.995 14.9774 12.015M9.09757 12.035C9.10757 12.045 9.10657 12.085 9.09657 12.105C9.07657 12.115 9.03657 12.115 9.01657 12.105C8.99657 12.085 8.99657 12.045 9.00657 12.025C9.00657 12.015 9.00657 12.015 9.00657 12.015C9.01657 11.995 9.05657 11.995 9.07657 12.015M17.7522 9.75C17.7522 9.75 20 8.67175 20 7.0525V5.19873L18.3591 4.60678C17.962 4.46441 17.535 4.46441 17.1379 4.60678L15.5 5.19123V7.04501C15.5 8.65602 17.7478 9.73501 17.7478 9.73501L17.7522 9.75Z" stroke="#EBEDFF" stroke-width="1.5" stroke-linecap="round" stroke-linejoin="round"/>
  <path d="M12 6H6C4.89543 6 4 6.89543 4 8V16C4 17.1046 4.89543 18 6 18H18C19.1046 18 20 17.1046 20 16V12" stroke="#3E445D" stroke-width="1.5" stroke-linecap="round" stroke-linejoin="round"/>
  <defs>
    <linearGradient id="paint0_linear_1637_7047" x1="0" y1="0" x2="11.6197" y2="12.3576" gradientUnits="userSpaceOnUse">
      <stop stop-color="#6A738C"/>
      <stop offset="1" stop-color="#6A738C" stop-opacity="0"/>
    </linearGradient>
  </defs>
</svg>
