<svg width="24" height="24" viewBox="0 0 24 24" fill="none" xmlns="http://www.w3.org/2000/svg">
<path opacity="0.25" d="M12 3C10.8181 3 9.64778 3.23279 8.55585 3.68508C7.46392 4.13738 6.47177 4.80031 5.63604 5.63604C4.80031 6.47177 4.13738 7.46392 3.68508 8.55585C3.23279 9.64778 3 10.8181 3 12C3 13.1819 3.23279 14.3522 3.68508 15.4442C4.13738 16.5361 4.80031 17.5282 5.63604 18.364C6.47177 19.1997 7.46392 19.8626 8.55585 20.3149C9.64778 20.7672 10.8181 21 12 21C13.1819 21 14.3522 20.7672 15.4442 20.3149C16.5361 19.8626 17.5282 19.1997 18.364 18.364C19.1997 17.5282 19.8626 16.5361 20.3149 15.4442C20.7672 14.3522 21 13.1819 21 12C21 10.8181 20.7672 9.64778 20.3149 8.55585C19.8626 7.46392 19.1997 6.47177 18.364 5.63604C17.5282 4.80031 16.5361 4.13738 15.4442 3.68508C14.3522 3.23279 13.1819 3 12 3Z" fill="url(#paint0_linear_2197_9580)"/>
<path d="M12 3C10.8181 3 9.64778 3.23279 8.55585 3.68508C7.46392 4.13738 6.47177 4.80031 5.63604 5.63604C4.80031 6.47177 4.13738 7.46392 3.68508 8.55585C3.23279 9.64778 3 10.8181 3 12C3 13.1819 3.23279 14.3522 3.68508 15.4442C4.13738 16.5361 4.80031 17.5282 5.63604 18.364C6.47177 19.1997 7.46392 19.8626 8.55585 20.3149C9.64778 20.7672 10.8181 21 12 21C13.1819 21 14.3522 20.7672 15.4442 20.3149C16.5361 19.8626 17.5282 19.1997 18.364 18.364C19.1997 17.5282 19.8626 16.5361 20.3149 15.4442C20.7672 14.3522 21 13.1819 21 12C21 10.8181 20.7672 9.64778 20.3149 8.55585C19.8626 7.46392 19.1997 6.47177 18.364 5.63604C17.5282 4.80031 16.5361 4.13738 15.4442 3.68508C14.3522 3.23279 13.1819 3 12 3Z" stroke="#5D637F" stroke-width="1.5" stroke-linecap="round" stroke-linejoin="round"/>
<path d="M11.87 7.5L12.29 7M11.77 9.86C11.45 9.86 10.97 9.49 10.46 9.49C9.76995 9.51 9.14995 9.89 8.81995 10.5C8.27995 11.82 8.46995 13.33 9.31995 14.48C9.64995 14.95 10.04 15.49 10.56 15.48C11.06 15.45 11.24 15.15 11.85 15.15C12.45 15.15 12.62 15.47 13.15 15.46C13.68 15.44 14.03 14.97 14.36 14.48C14.59 14.13 14.78 13.75 14.9 13.35C14.25 13.07 13.84 12.44 13.83 11.74C13.83 11.12 14.159 10.55 14.679 10.23C14.339 9.75 13.809 9.46 13.229 9.44C12.559 9.38 12.009 9.79 11.699 9.79L11.77 9.86Z" stroke="#EBEDFF" stroke-width="1.3" stroke-linecap="round" stroke-linejoin="round"/>
<defs>
<linearGradient id="paint0_linear_2197_9580" x1="3" y1="3" x2="20.0255" y2="16.5801" gradientUnits="userSpaceOnUse">
<stop stop-color="#6A738C"/>
<stop offset="1" stop-color="#6A738C" stop-opacity="0"/>
</linearGradient>
</defs>
</svg>
