<svg width="24" height="24" viewBox="0 0 24 24" fill="none" xmlns="http://www.w3.org/2000/svg">
  <path fill-rule="evenodd" clip-rule="evenodd" d="M8 3.75C6.87283 3.75 5.79183 4.19777 4.9948 4.9948C4.19777 5.79183 3.75 6.87283 3.75 8V16C3.75 17.1272 4.19777 18.2082 4.9948 19.0052C5.79183 19.8022 6.87283 20.25 8 20.25H10C10.4142 20.25 10.75 20.5858 10.75 21C10.75 21.4142 10.4142 21.75 10 21.75H8C6.47501 21.75 5.01247 21.1442 3.93414 20.0659C2.8558 18.9875 2.25 17.525 2.25 16V8C2.25 6.47501 2.8558 5.01247 3.93414 3.93414C5.01247 2.8558 6.47501 2.25 8 2.25H16C17.525 2.25 18.9875 2.8558 20.0659 3.93414C21.1442 5.01247 21.75 6.47501 21.75 8V11C21.75 11.4142 21.4142 11.75 21 11.75C20.5858 11.75 20.25 11.4142 20.25 11V8C20.25 6.87283 19.8022 5.79183 19.0052 4.9948C18.2082 4.19777 17.1272 3.75 16 3.75H8ZM10.3263 8.38611C10.6035 8.69391 10.5787 9.16813 10.2709 9.44532L8.42089 11.1113C8.13556 11.3683 7.70224 11.3682 7.41698 11.1112L6.49798 10.2832C6.19024 10.0059 6.16554 9.53171 6.4428 9.22397C6.72006 8.91624 7.19429 8.89154 7.50203 9.1688L7.91912 9.5446L9.26711 8.33068C9.57491 8.05349 10.0491 8.07831 10.3263 8.38611ZM12.25 10C12.25 9.58579 12.5858 9.25 13 9.25H17C17.4142 9.25 17.75 9.58579 17.75 10C17.75 10.4142 17.4142 10.75 17 10.75H13C12.5858 10.75 12.25 10.4142 12.25 10ZM10.3263 13.3861C10.6035 13.6939 10.5787 14.1681 10.2709 14.4453L8.42089 16.1113C8.13556 16.3683 7.70224 16.3682 7.41698 16.1112L6.49798 15.2832C6.19024 15.0059 6.16554 14.5317 6.4428 14.224C6.72006 13.9162 7.19429 13.8915 7.50203 14.1688L7.91912 14.5446L9.26711 13.3307C9.57491 13.0535 10.0491 13.0783 10.3263 13.3861Z" fill="#969EC2" fill-opacity="0.6"/>
  <path fill-rule="evenodd" clip-rule="evenodd" d="M20.2067 13C18.2619 13 16.4211 13.8833 15.2077 15.3998L15.2055 15.4026L14.9584 15.7144H12.9403C12.4524 15.7144 11.9974 15.9924 11.7824 16.4392L11.1329 17.7449C11.124 17.7628 11.1158 17.7811 11.1083 17.7996C11.1083 17.7996 11.1084 17.7996 11.1049 17.8078C11.1024 17.8138 11.0964 17.8281 11.09 17.8443C11.0799 17.8703 11.0662 17.9081 11.0539 17.9552C10.8558 18.6198 11.2198 19.3282 11.8846 19.5533L11.8875 19.5542L12.7584 19.8451L14.6658 21.7469L14.9574 22.6143L14.9839 22.6859C14.9965 22.7182 15.0152 22.762 15.0433 22.8122C15.3731 23.4313 16.1327 23.671 16.7584 23.3716L18.0823 22.7172L18.0845 22.7161C18.5272 22.4955 18.792 22.0493 18.8046 21.583L18.8049 21.5627V19.5299L19.1062 19.2662C20.6167 18.0527 21.5002 16.2285 21.5002 14.2918C21.5002 13.567 20.9127 13 20.2067 13ZM16.3799 16.3358L16.3789 16.337L15.9088 16.9302C15.7665 17.1097 15.55 17.2144 15.321 17.2144H13.0721L12.5798 18.204L13.4008 18.4782C13.5107 18.515 13.6107 18.5767 13.6927 18.6585L15.85 20.8094C15.9323 20.8915 15.9943 20.9915 16.0314 21.1016L16.307 21.9215L17.3049 21.4283V19.1896C17.3049 18.9734 17.3983 18.7676 17.561 18.6252L18.1306 18.1268C18.139 18.1194 18.1476 18.1122 18.1563 18.1052C19.2667 17.218 19.9341 15.9067 19.9956 14.5045C18.5846 14.5652 17.264 15.2315 16.3799 16.3358Z" fill="#969EC2" fill-opacity="0.6"/>
</svg>
