<svg width="24" height="24" viewBox="0 0 24 24" fill="none" xmlns="http://www.w3.org/2000/svg">
<path d="M7.5 8.74999V6C7.5 4.75736 6.49264 3.75 5.25 3.75L4.5 3.75M9.5249 6.99268L7.52491 8.99267L5.52491 6.99268" stroke="#EBEDFF" stroke-width="1.5" stroke-linecap="round" stroke-linejoin="round"/>
<rect opacity="0.25" width="16" height="12" transform="matrix(-1 0 0 1 20 6)" fill="url(#paint0_linear_898_12776)"/>
<path d="M12 6H18C19.1046 6 20 6.89543 20 8V16C20 17.1046 19.1046 18 18 18H6C4.89543 18 4 17.1046 4 16V11" stroke="#969EC2" stroke-opacity="0.6" stroke-width="1.5" stroke-linecap="round" stroke-linejoin="round"/>
<path d="M11.9974 12.035C12.0074 12.045 12.0074 12.085 11.9974 12.105C11.9774 12.115 11.9374 12.115 11.9174 12.105C11.8974 12.085 11.8974 12.045 11.9074 12.025C11.9074 12.015 11.9074 12.015 11.9074 12.015C11.9174 11.995 11.9574 11.995 11.9774 12.015M14.9974 12.035C15.0074 12.045 15.0074 12.085 14.9974 12.105C14.9774 12.115 14.9374 12.115 14.9174 12.105C14.8974 12.085 14.8974 12.045 14.9074 12.025C14.9074 12.015 14.9074 12.015 14.9074 12.015C14.9174 11.995 14.9574 11.995 14.9774 12.015M9.09757 12.035C9.10757 12.045 9.10657 12.085 9.09657 12.105C9.07657 12.115 9.03657 12.115 9.01657 12.105C8.99657 12.085 8.99657 12.045 9.00657 12.025C9.00657 12.015 9.00657 12.015 9.00657 12.015C9.01657 11.995 9.05657 11.995 9.07657 12.015" stroke="#EBEDFF" stroke-width="1.5" stroke-linecap="round" stroke-linejoin="round"/>
<defs>
<linearGradient id="paint0_linear_898_12776" x1="0" y1="0" x2="11.6197" y2="12.3576" gradientUnits="userSpaceOnUse">
<stop stop-color="#6A738C"/>
<stop offset="1" stop-color="#6A738C" stop-opacity="0"/>
</linearGradient>
</defs>
</svg>
