<svg width="24" height="24" viewBox="0 0 24 24" fill="none" xmlns="http://www.w3.org/2000/svg">
    <path fill-rule="evenodd" clip-rule="evenodd"
        d="M4.25 5C4.25 3.48079 5.48079 2.25 7 2.25H14.172C14.9011 2.25 15.6008 2.54018 16.1163 3.05567L18.9443 5.88367C19.4598 6.39916 19.75 7.09886 19.75 7.828V19C19.75 20.5192 18.5192 21.75 17 21.75H7C5.48079 21.75 4.25 20.5192 4.25 19V5ZM7 3.75C6.30921 3.75 5.75 4.30921 5.75 5V19C5.75 19.6908 6.30921 20.25 7 20.25H17C17.6908 20.25 18.25 19.6908 18.25 19V7.828C18.25 7.49714 18.1182 7.17884 17.8837 6.94433L15.0557 4.11633C14.8212 3.88182 14.5029 3.75 14.172 3.75H7ZM7.25 9C7.25 8.58579 7.58579 8.25 8 8.25H16C16.4142 8.25 16.75 8.58579 16.75 9C16.75 9.41421 16.4142 9.75 16 9.75H8C7.58579 9.75 7.25 9.41421 7.25 9ZM7.25 12C7.25 11.5858 7.58579 11.25 8 11.25H16C16.4142 11.25 16.75 11.5858 16.75 12C16.75 12.4142 16.4142 12.75 16 12.75H8C7.58579 12.75 7.25 12.4142 7.25 12ZM7.25 15C7.25 14.5858 7.58579 14.25 8 14.25H10C10.4142 14.25 10.75 14.5858 10.75 15C10.75 15.4142 10.4142 15.75 10 15.75H8C7.58579 15.75 7.25 15.4142 7.25 15ZM14.5 15.75C14.0862 15.75 13.75 16.0862 13.75 16.5C13.75 16.9138 14.0862 17.25 14.5 17.25C14.9138 17.25 15.25 16.9138 15.25 16.5C15.25 16.0862 14.9138 15.75 14.5 15.75ZM12.25 16.5C12.25 15.2578 13.2578 14.25 14.5 14.25C15.7422 14.25 16.75 15.2578 16.75 16.5C16.75 17.7422 15.7422 18.75 14.5 18.75C13.2578 18.75 12.25 17.7422 12.25 16.5Z"
        fill="#969EC2" fill-opacity="0.6" />
</svg>