<svg width="24" height="24" viewBox="0 0 24 24" fill="none" xmlns="http://www.w3.org/2000/svg">
  <path fill-rule="evenodd" clip-rule="evenodd" d="M7 4.75C6.02421 4.75 5.25 5.52421 5.25 6.5V9.5C5.25 10.504 4.79411 11.4021 4.07815 11.9984C4.79384 12.5927 5.25 13.4896 5.25 14.5V17.5C5.25 18.4677 6.02617 19.25 7 19.25C7.41421 19.25 7.75 19.5858 7.75 20C7.75 20.4142 7.41421 20.75 7 20.75C5.19383 20.75 3.75 19.2923 3.75 17.5V14.5C3.75 13.5262 2.96774 12.75 2 12.75C1.58579 12.75 1.25 12.4142 1.25 12C1.25 11.5858 1.58579 11.25 2 11.25C2.96579 11.25 3.75 10.4658 3.75 9.5V6.5C3.75 4.69579 5.19579 3.25 7 3.25C7.41421 3.25 7.75 3.58579 7.75 4C7.75 4.41421 7.41421 4.75 7 4.75ZM16.25 4C16.25 3.58579 16.5858 3.25 17 3.25C18.7923 3.25 20.25 4.69383 20.25 6.5V9.5C20.25 10.4677 21.0262 11.25 22 11.25C22.4142 11.25 22.75 11.5858 22.75 12C22.75 12.4142 22.4142 12.75 22 12.75C21.0242 12.75 20.25 13.5242 20.25 14.5V17.5C20.25 19.2942 18.7942 20.75 17 20.75C16.5858 20.75 16.25 20.4142 16.25 20C16.25 19.5858 16.5858 19.25 17 19.25C17.9658 19.25 18.75 18.4658 18.75 17.5V14.5C18.75 13.4904 19.2027 12.593 19.9177 11.9984C19.2025 11.4018 18.75 10.5033 18.75 9.5V6.5C18.75 5.52617 17.9677 4.75 17 4.75C16.5858 4.75 16.25 4.41421 16.25 4Z" fill="#969EC2" fill-opacity="0.6"/>
  <path fill-rule="evenodd" clip-rule="evenodd" d="M9.75 12.25C9.88421 12.25 10 12.1342 10 12C10 11.8656 9.89393 11.75 9.75 11.75C9.66912 11.75 9.60785 11.784 9.57092 11.8209C9.53399 11.8579 9.5 11.9191 9.5 12C9.5 12.1439 9.61557 12.25 9.75 12.25ZM8.5 12C8.5 11.3058 9.05579 10.75 9.75 10.75C10.4244 10.75 11 11.2961 11 12C11 12.6842 10.4342 13.25 9.75 13.25C9.04607 13.25 8.5 12.6744 8.5 12ZM14.75 12.25C14.8842 12.25 15 12.1342 15 12C15 11.8656 14.8939 11.75 14.75 11.75C14.6691 11.75 14.6079 11.784 14.5709 11.8209C14.534 11.8579 14.5 11.9191 14.5 12C14.5 12.1439 14.6156 12.25 14.75 12.25ZM13.5 12C13.5 11.3058 14.0558 10.75 14.75 10.75C15.4244 10.75 16 11.2961 16 12C16 12.6842 15.4342 13.25 14.75 13.25C14.0461 13.25 13.5 12.6744 13.5 12Z" fill="#969EC2" fill-opacity="0.6"/>
  <path d="M10 12C10 12.1342 9.88421 12.25 9.75 12.25C9.61557 12.25 9.5 12.1439 9.5 12C9.5 11.9191 9.53399 11.8579 9.57092 11.8209C9.60785 11.784 9.66912 11.75 9.75 11.75C9.89393 11.75 10 11.8656 10 12Z" fill="#969EC2" fill-opacity="0.6"/>
  <path d="M15 12C15 12.1342 14.8842 12.25 14.75 12.25C14.6156 12.25 14.5 12.1439 14.5 12C14.5 11.9191 14.534 11.8579 14.5709 11.8209C14.6079 11.784 14.6691 11.75 14.75 11.75C14.8939 11.75 15 11.8656 15 12Z" fill="#969EC2" fill-opacity="0.6"/>
</svg>
