<svg width="24" height="24" viewBox="0 0 24 24" fill="none" xmlns="http://www.w3.org/2000/svg">
    <path opacity="0.25"
        d="M19.879 8.96979L20.679 5.08179C20.899 4.0218 19.959 3.0818 18.899 3.3078L15.0111 4.1078C13.8611 4.3378 12.8111 4.9078 11.9811 5.73779L9.46845 8.24882L8.79007 8.92678C7.67257 10.0351 6.91585 11.4581 6.60445 12.9921C6.57589 13.1327 6.55108 13.2744 6.53007 13.4168L6.51007 13.4868C6.35007 14.5668 6.71007 15.6668 7.49007 16.4468C8.26007 17.2168 9.36007 17.5868 10.4501 17.4268L10.5201 17.4068C12.2201 17.1568 13.8001 16.3568 15.0101 15.1468L18.199 11.9578C18.6148 11.537 18.9662 11.0597 19.243 10.5415C19.5122 10.0375 19.7107 9.49478 19.829 8.92779L19.879 8.96979Z"
        fill="#969EC2c" />
    <path d="M12.94 11.0601L10.5 13.5001" stroke="#969EC2" stroke-width="1.5" stroke-linecap="round"
        stroke-linejoin="round" />
    <path
        d="M7.5 16.4998L5.87 18.1298M6.63293 12.9988L3.16993 12.1788C2.77994 12.0888 2.64994 11.6088 2.92994 11.3388L5.67993 8.57881C5.85993 8.38881 6.10993 8.27881 6.36993 8.27881L9.46992 8.24881M13.4 4.70979C15.711 6.27979 17.6974 8.25383 19.2674 10.5648M10.9999 17.3667L11.8099 20.8267C11.8999 21.2067 12.3699 21.3367 12.6499 21.0567L15.3999 18.2967C15.5799 18.1067 15.6899 17.8567 15.6899 17.5967L15.7099 14.4868M19.879 8.96979L20.679 5.08179C20.899 4.0218 19.959 3.0818 18.899 3.3078L15.0111 4.1078C13.8611 4.3378 12.8111 4.9078 11.9811 5.73779L8.79007 8.92678C7.57007 10.1368 6.78007 11.7218 6.53007 13.4168L6.51007 13.4868C6.35007 14.5668 6.71007 15.6668 7.49007 16.4468C8.26007 17.2168 9.36007 17.5868 10.4501 17.4268L10.5201 17.4068C12.2201 17.1568 13.8001 16.3568 15.0101 15.1468L18.199 11.9578C19.019 11.1278 19.639 10.1198 19.879 8.96979Z"
        stroke="#969EC2" stroke-width="1.5" stroke-linecap="round" stroke-linejoin="round" />
</svg>