<svg width="24" height="24" viewBox="0 0 24 24" fill="none" xmlns="http://www.w3.org/2000/svg">
  <g opacity="0.1">
    <path d="M7.5 16.5001L5.87 18.13M6.63293 12.999L6.60445 12.9923M9.46992 8.24905L9.46845 8.24907M13.4 4.71004C15.6929 6.26772 17.6786 8.2536 19.243 10.5417M19.28 10.596C19.2677 10.5779 19.2554 10.5598 19.243 10.5417M10.9999 17.367L11.8099 20.827C11.8999 21.207 12.3699 21.337 12.6499 21.057L15.3999 18.297C15.5799 18.107 15.6899 17.857 15.6899 17.597L15.7099 14.487M9.46845 8.24907L11.9811 5.73804C12.8111 4.90804 13.8611 4.33804 15.0111 4.10804L18.899 3.30804C19.959 3.08204 20.899 4.02204 20.679 5.08204L19.879 8.97003L19.829 8.92803C19.7107 9.49502 19.5122 10.0377 19.243 10.5417M9.46845 8.24907L8.79007 8.92703C7.67257 10.0354 6.91585 11.4583 6.60445 12.9923M9.46845 8.24907L6.36993 8.27905C6.10993 8.27905 5.85993 8.38905 5.67993 8.57905L2.92994 11.339C2.64994 11.609 2.77994 12.089 3.16993 12.179L6.60445 12.9923M6.60445 12.9923C6.57589 13.133 6.55108 13.2746 6.53007 13.417L6.51007 13.487C6.35007 14.567 6.71007 15.667 7.49007 16.447C8.26007 17.217 9.36007 17.587 10.4501 17.427L10.5201 17.407C12.2201 17.157 13.8001 16.357 15.0101 15.147L18.199 11.958C18.6148 11.5372 18.9662 11.0599 19.243 10.5417" stroke="#3E445D" stroke-width="1.07143" stroke-linecap="round" stroke-linejoin="round"/>
  </g>
  <path d="M12.9401 11.0599L10.5001 13.5" stroke="#EBEDFF" stroke-width="1.5" stroke-linecap="round" stroke-linejoin="round"/>
  <path d="M7.5 16.5001L5.87 18.13M6.63293 12.999L3.16993 12.179C2.77994 12.089 2.64994 11.609 2.92994 11.339L5.67993 8.57905C5.85993 8.38905 6.10993 8.27905 6.36993 8.27905L9.46992 8.24905M13.4 4.71004C15.711 6.28003 17.6961 8.25638 19.2661 10.5674M10.9999 17.367L11.8099 20.827C11.8999 21.207 12.3699 21.337 12.6499 21.057L15.3999 18.297C15.5799 18.107 15.6899 17.857 15.6899 17.597L15.7099 14.487M19.879 8.97003L20.679 5.08204C20.899 4.02204 19.959 3.08204 18.899 3.30804L15.0111 4.10804C13.8611 4.33804 12.8111 4.90804 11.9811 5.73804L8.79007 8.92703C7.57007 10.137 6.78007 11.722 6.53007 13.417L6.51007 13.487C6.35007 14.567 6.71007 15.667 7.49007 16.447C8.26007 17.217 9.36007 17.587 10.4501 17.427L10.5201 17.407C12.2201 17.157 13.8001 16.357 15.0101 15.147L18.199 11.958C19.019 11.128 19.639 10.12 19.879 8.97003Z" stroke="#3E445D" stroke-width="1.5" stroke-linecap="round" stroke-linejoin="round"/>
  <defs>
    <linearGradient id="paint0_linear_264_6715" x1="19.6633" y1="21.5277" x2="2.29837" y2="8.90005" gradientUnits="userSpaceOnUse">
      <stop stop-color="#00D2EF"/>
      <stop offset="1" stop-color="#00D2EF" stop-opacity="0"/>
    </linearGradient>
  </defs>
</svg>
