<svg width="24" height="24" viewBox="0 0 24 24" fill="none" xmlns="http://www.w3.org/2000/svg">
<path fill-rule="evenodd" clip-rule="evenodd" d="M9.69311 3.0358C11.0533 1.98383 12.9406 1.98383 14.3008 3.0358L14.3026 3.03722L20.2859 7.6942L20.2935 7.68794C21.2035 8.3985 21.7419 9.4856 21.7419 10.6491V17.9821C21.7419 20.0533 20.0632 21.7321 17.9919 21.7321H5.99194C3.92073 21.7321 2.24194 20.0533 2.24194 17.9821V10.6491C2.24194 9.50451 2.76369 8.4011 3.69541 7.69401L9.69311 3.0358ZM19.3888 8.88477L19.3813 8.89093L13.3831 4.22235C12.5636 3.58908 11.4309 3.58852 10.6114 4.22185L4.60456 8.88718C4.05876 9.30021 3.74194 9.95526 3.74194 10.6491V17.9821C3.74194 19.2249 4.74916 20.2321 5.99194 20.2321H17.9919C19.2347 20.2321 20.2419 19.2249 20.2419 17.9821V10.6491C20.2419 9.96037 19.9275 9.31432 19.3888 8.88477Z" fill="#969EC2" fill-opacity="0.6"/>
<path d="M9.49994 11.3991C9.49994 10.9849 9.83573 10.6491 10.2499 10.6491H12.9499C13.3641 10.6491 13.6999 10.9849 13.6999 11.3991V15.9491C13.6999 16.3633 13.3641 16.6991 12.9499 16.6991C12.5357 16.6991 12.1999 16.3633 12.1999 15.9491V12.1491H10.2499C9.83573 12.1491 9.49994 11.8133 9.49994 11.3991Z" fill="#969EC2" fill-opacity="0.6"/>
</svg>
