<svg width="24" height="24" viewBox="0 0 24 24" fill="none" xmlns="http://www.w3.org/2000/svg">
  <path fill-rule="evenodd" clip-rule="evenodd" d="M17.581 5.11374C17.6171 5.07924 17.6502 5.0406 17.6797 4.99796C17.69 4.98318 17.6996 4.96816 17.7086 4.95294C17.8778 4.78266 18.1141 4.67705 18.3801 4.67705C18.4211 4.67705 18.4614 4.67375 18.5006 4.66742C18.9528 4.73475 19.3001 5.1223 19.3001 5.59705C19.3001 6.10705 18.8808 6.52926 18.366 6.53705C17.8521 6.53487 17.4401 6.12148 17.4401 5.60705C17.4401 5.42596 17.4914 5.2568 17.581 5.11374ZM16.972 3.61974C14.9579 2.40806 12.5696 1.97486 10.247 2.40351C9.83963 2.47868 9.57036 2.86983 9.64554 3.27717C9.72071 3.6845 10.1119 3.95377 10.5192 3.8786C12.4323 3.52553 14.3955 3.86417 16.0673 4.82767C15.9848 5.07208 15.9401 5.33414 15.9401 5.60705C15.9401 6.95127 17.0259 8.03705 18.3701 8.03705L18.3782 8.03701C19.7016 8.02262 20.8001 6.94571 20.8001 5.59705C20.8001 4.26963 19.7489 3.20455 18.4477 3.1586C18.376 3.14948 18.2941 3.14949 18.2054 3.16722C18.1743 3.17345 18.1443 3.18148 18.1155 3.19104C17.6921 3.2361 17.3017 3.38815 16.972 3.61974ZM3.16008 5.56905C3.16008 4.22343 4.24904 3.13464 5.60806 3.1491L5.60258 3.6643C5.60524 3.6289 5.60899 3.59627 5.61377 3.56626L5.61815 3.1591C6.95161 3.17343 8.05008 4.25044 8.05008 5.60905V5.61712C8.03578 6.94768 6.96155 8.04905 5.61008 8.04905H5.60202C5.33422 8.04617 5.07542 8.0002 4.83297 7.91757C3.86855 9.58073 3.52949 11.5356 3.88252 13.4404C3.95801 13.8476 3.68904 14.239 3.28176 14.3145C2.87449 14.39 2.48313 14.121 2.40764 13.7137C1.97891 11.4006 2.41183 9.02178 3.62291 7.01718C3.33991 6.61937 3.17442 6.13191 3.18013 5.60099C3.18024 5.59029 3.18058 5.57964 3.18114 5.56905H3.16008ZM4.66594 5.46334C4.67573 5.51303 4.6806 5.56447 4.68004 5.61712C4.67724 5.87705 4.78705 6.11674 4.9676 6.28794C4.9797 6.29539 4.99166 6.30322 5.00347 6.31144C5.04019 6.33699 5.07392 6.36523 5.10457 6.39571C5.25003 6.48987 5.42442 6.54624 5.61408 6.54905C6.11955 6.54687 6.54228 6.13117 6.55007 5.60504C6.54792 5.08549 6.1272 4.66466 5.60202 4.65901C5.56991 4.65866 5.53802 4.65626 5.50655 4.65188C5.06215 4.6866 4.7147 5.02712 4.66594 5.46334ZM20.7032 9.67764C21.1105 9.60206 21.5019 9.87094 21.5775 10.2782C22.0063 12.5885 21.5732 14.965 20.3728 16.9751C20.6541 17.3723 20.8201 17.8579 20.8201 18.3861C20.8201 18.4301 20.8163 18.4733 20.809 18.5153C20.7789 19.0929 20.5456 19.6615 20.1104 20.1033C20.0583 20.1562 20.0003 20.1998 19.9385 20.2339C18.9786 21.0491 17.5423 20.994 16.6458 20.0974C16.5745 20.0262 16.5086 19.9516 16.448 19.8742C16.1195 19.4594 15.9239 18.9343 15.9301 18.358C15.931 18.2731 15.9363 18.1891 15.9456 18.1063C15.9793 17.7996 16.0713 17.4984 16.2219 17.2205C16.6338 16.453 17.4416 15.926 18.3881 15.9361C18.659 15.939 18.9202 15.9858 19.1645 16.0699C20.1185 14.4003 20.4547 12.449 20.1027 10.5519C20.0271 10.1446 20.296 9.75323 20.7032 9.67764ZM18.8771 17.5897C18.5134 17.3569 18.0244 17.3994 17.7064 17.7174L17.7024 17.7214C17.3835 18.0355 17.3429 18.5368 17.5957 18.9039C17.7626 19.1413 18.0412 19.3013 18.3641 19.306C18.6154 19.305 18.8424 19.2056 19.0088 19.0441C19.0124 19.0403 19.0153 19.0373 19.0171 19.0354L19.0258 19.0267C19.0285 19.024 19.0313 19.0212 19.0341 19.0185C19.1929 18.8519 19.2901 18.6259 19.2901 18.3761V18.3669C19.2901 18.3236 19.2938 18.2803 19.3008 18.239C19.2709 18.0479 19.1826 17.8643 19.0358 17.7174L19.0326 17.7142C19.02 17.7066 19.0076 17.6986 18.9953 17.6902C18.9517 17.6602 18.9123 17.6265 18.8771 17.5897ZM3.17445 18.2243C3.25084 16.9436 4.32054 15.9411 5.61008 15.9411C6.95865 15.9411 8.03575 17.0295 8.05004 18.3731L8.05012 18.3811C8.05012 18.6525 8.00591 18.9131 7.92442 19.1564C9.58983 20.1151 11.5545 20.455 13.47 20.1015C13.8773 20.0263 14.2685 20.2956 14.3436 20.7029C14.4188 21.1103 14.1495 21.5014 13.7422 21.5766C11.4194 22.0053 9.03139 21.572 7.02487 20.3675C6.63003 20.6486 6.14807 20.8154 5.62815 20.821C5.55803 20.8218 5.49006 20.8129 5.4255 20.7956C4.16362 20.7112 3.14613 19.6647 3.16013 18.363C3.16064 18.3156 3.16554 18.2692 3.17445 18.2243ZM4.66363 18.4699C4.70262 18.9016 5.05026 19.2538 5.49791 19.2967C5.52811 19.293 5.55888 19.2911 5.59008 19.2911C5.64654 19.2911 5.70156 19.2973 5.75445 19.3091C5.97534 19.274 6.16948 19.164 6.31068 19.0066C6.31372 19.002 6.31682 18.9974 6.31998 18.9928C6.34085 18.9626 6.36353 18.9344 6.38779 18.9082C6.48973 18.7587 6.54927 18.5786 6.55007 18.385C6.5423 17.8506 6.12024 17.4411 5.61008 17.4411C5.08849 17.4411 4.67008 17.8611 4.67008 18.3711C4.67008 18.4046 4.66789 18.4375 4.66363 18.4699Z" fill="#969EC2" fill-opacity="0.6"/>
  <path d="M10.0002 10.7501C10.0002 10.3359 10.336 10.0001 10.7502 10.0001H12.7502C13.1645 10.0001 13.5002 10.3359 13.5002 10.7501V13.7501C13.5002 14.1643 13.1645 14.5001 12.7502 14.5001C12.336 14.5001 12.0002 14.1643 12.0002 13.7501V11.5001H10.7502C10.336 11.5001 10.0002 11.1643 10.0002 10.7501Z" fill="#969EC2" fill-opacity="0.6"/>
</svg>
