<svg width="24" height="24" viewBox="0 0 24 24" fill="none" xmlns="http://www.w3.org/2000/svg">
  <rect opacity="0.25" x="3" y="5" width="18" height="14" rx="2" fill="url(#paint0_linear_1511_19595)"/>
  <rect x="3" y="5" width="18" height="14" rx="2" stroke="#3E445D" stroke-width="1.5" stroke-linecap="round" stroke-linejoin="round"/>
  <path d="M10.0652 8.94642C10.6449 9.5261 10.6449 10.4789 10.0652 11.0652C9.4789 11.6449 8.5261 11.6449 7.93976 11.0652C7.35341 10.4789 7.35341 9.5261 7.93976 8.93976C8.51943 8.35341 9.47224 8.35341 10.0586 8.93976" stroke="#EBEDFF" stroke-width="1.5" stroke-linecap="round" stroke-linejoin="round"/>
  <path d="M16.5 13.5H14.5" stroke="#EBEDFF" stroke-width="1.5" stroke-linecap="round" stroke-linejoin="round"/>
  <path d="M17.5 10.5H14.5" stroke="#EBEDFF" stroke-width="1.5" stroke-linecap="round" stroke-linejoin="round"/>
  <path d="M12 16C12 14.8954 11.1046 14 10 14H8C6.89543 14 6 14.8954 6 16" stroke="#EBEDFF" stroke-width="1.5" stroke-linecap="round" stroke-linejoin="round"/>
  <defs>
    <linearGradient id="paint0_linear_1511_19595" x1="3" y1="5" x2="16.5777" y2="18.9243" gradientUnits="userSpaceOnUse">
      <stop stop-color="#6A738C"/>
      <stop offset="1" stop-color="#6A738C" stop-opacity="0"/>
    </linearGradient>
  </defs>
</svg>
