<svg width="24" height="24" viewBox="0 0 24 24" fill="none" xmlns="http://www.w3.org/2000/svg">
    <path fill-rule="evenodd" clip-rule="evenodd" d="M12.0019 2.14014C12.2877 2.14085 12.5483 2.30395 12.6738 2.56072L15.4301 8.19832L21.5987 9.10104C21.8806 9.1423 22.1148 9.33972 22.2031 9.61059C22.2914 9.88146 22.2187 10.179 22.0153 10.3785L17.5452 14.7639L18.5994 20.9634C18.6474 21.2452 18.5309 21.5298 18.2991 21.6972C18.0673 21.8646 17.7606 21.8856 17.5081 21.7514L11.9885 18.8182L6.46914 21.7419C6.21666 21.8756 5.91012 21.8543 5.6786 21.6869C5.44707 21.5195 5.33077 21.2351 5.37867 20.9534L6.43303 14.7534L1.96225 10.358C1.75933 10.1585 1.6868 9.86129 1.77497 9.59074C1.86315 9.32018 2.09685 9.12283 2.37835 9.0812L8.55006 8.16862L11.3279 2.55739C11.4547 2.30124 11.7161 2.13943 12.0019 2.14014ZM11.9959 4.5891L9.7202 9.18588C9.61113 9.40622 9.40098 9.55911 9.15777 9.59507L4.08831 10.3447L7.76387 13.9583C7.93881 14.1303 8.01857 14.377 7.97744 14.6189L7.11277 19.7035L11.638 17.3064C11.8579 17.1899 12.1213 17.1901 12.341 17.3068L16.8649 19.711L16.0007 14.6289C15.9595 14.3867 16.0395 14.1398 16.2148 13.9678L19.8858 10.3664L14.8215 9.62523C14.5765 9.58939 14.365 9.43496 14.2563 9.21255L11.9959 4.5891Z" fill="#969EC2" fill-opacity="0.6" />
</svg>