<svg width="48" height="48" viewBox="0 0 48 48" fill="none" xmlns="http://www.w3.org/2000/svg">
<path d="M18.2274 19.1731C18.3228 18.9503 18.677 18.9386 18.7809 19.1614C19.2852 20.0158 19.7738 20.8805 20.2741 21.7389C22.6468 20.66 25.4846 20.6616 27.8589 21.7373C28.3608 20.882 28.8463 20.0158 29.3521 19.1621C29.4662 18.9104 29.8798 18.9667 29.9283 19.2388C29.9619 19.4553 29.7852 19.632 29.6969 19.8157C29.27 20.5482 28.8502 21.2847 28.4226 22.0164C29.7187 22.727 30.8359 23.7652 31.6208 25.0192C32.3744 26.2138 32.8255 27.5928 32.9397 29C27.0232 28.9977 21.1067 29.0031 15.1895 28.9969C15.4037 26.1066 17.1494 23.3829 19.712 22.018C19.2469 21.2237 18.7919 20.4231 18.3267 19.6281C18.254 19.492 18.1383 19.3294 18.2274 19.1731ZM19.6831 25.0638C19.2351 25.2506 19.0991 25.8979 19.4556 26.2372C19.8199 26.6555 20.5853 26.4498 20.6971 25.9073C20.8659 25.3491 20.2077 24.7917 19.6831 25.0638ZM27.8824 25.0481C27.3992 25.2178 27.2499 25.9167 27.6408 26.2568C28.0176 26.6609 28.7744 26.4272 28.8658 25.8831C29.0065 25.3413 28.3952 24.8222 27.8824 25.0481Z" fill="#3DDB86"/>
<rect x="0.5" y="0.5" width="47" height="47" rx="23.5" stroke="#3347CC" stroke-opacity="0.12"/>
</svg>
