<svg width="48" height="48" viewBox="0 0 48 48" fill="none" xmlns="http://www.w3.org/2000/svg">
<path d="M22.2705 19.1446C22.8021 19.0277 23.3503 18.9729 23.8941 19.0131C24.3368 19.0455 24.775 19.145 25.1858 19.3129C25.9007 19.6091 26.5461 20.0904 26.9993 20.7208C27.2057 21.0022 27.3684 21.3127 27.508 21.6313C27.5427 21.7225 27.4359 21.7718 27.3652 21.7885C26.6067 21.9842 25.8501 22.1864 25.0922 22.3846C25.038 22.3976 24.9753 22.4112 24.9264 22.3767C24.8523 22.3257 24.7997 22.251 24.738 22.187C24.6138 22.0459 24.4771 21.9129 24.314 21.8174C23.9355 21.601 23.4986 21.4747 23.0606 21.4996C22.6765 21.5182 22.3048 21.6485 21.9732 21.8387C21.6593 22.0206 21.3689 22.2477 21.1333 22.5247C20.7986 22.9123 20.5853 23.3997 20.5159 23.9065C20.4546 24.3391 20.4701 24.793 20.6378 25.2015C20.7841 25.5703 21.0392 25.8963 21.3666 26.1212C21.6552 26.3211 21.9974 26.4409 22.347 26.4706C22.7507 26.5105 23.1664 26.4551 23.5383 26.29C23.8971 26.1323 24.2107 25.8825 24.466 25.587C24.5881 25.4361 24.6962 25.2749 24.8086 25.117C23.9673 25.1164 23.126 25.1175 22.2847 25.1164C22.1904 25.1158 22.0794 25.0907 22.0315 25.0002C21.9832 24.9046 22.0179 24.7944 22.057 24.7022C22.2598 24.2308 22.4726 23.7631 22.7095 23.3077C22.7676 23.182 22.8977 23.0907 23.0388 23.0974C24.4357 23.0967 25.8325 23.0976 27.2293 23.0969C27.4671 22.3422 27.8934 21.6583 28.4079 21.0616C28.8518 20.5477 29.3883 20.1109 29.9942 19.8021C30.6854 19.4471 31.4497 19.2556 32.2179 19.1615C32.972 19.0731 33.7517 19.1203 34.4717 19.3731C35.1815 19.6217 35.8203 20.0595 36.3289 20.6117C36.6037 20.915 36.8337 21.2596 37.0009 21.6334C37.2307 22.1377 37.3421 22.6895 37.3701 23.241C37.4189 24.0439 37.2947 24.863 36.9631 25.5988C36.6723 26.2519 36.2328 26.8315 35.7191 27.3255C35.1092 27.917 34.3674 28.3692 33.5652 28.6477C33.155 28.788 32.732 28.9007 32.2992 28.9402C32.0841 28.9603 31.8689 28.9822 31.6538 29C30.9584 28.986 30.2601 28.8549 29.622 28.5729C28.9707 28.2848 28.3861 27.844 27.9366 27.291C27.5864 26.8609 27.3272 26.3575 27.18 25.8227C26.8752 26.4409 26.4478 26.9939 25.9535 27.4721C25.4292 27.9755 24.8043 28.3767 24.1208 28.627C23.6326 28.8083 23.1181 28.916 22.5991 28.9559C22.0769 28.9975 21.5471 28.9647 21.038 28.8388C20.1707 28.6258 19.3762 28.1401 18.7776 27.4792C18.4897 27.1591 18.2537 26.7922 18.0835 26.3968C17.7914 25.714 17.6884 24.9586 17.7341 24.2201C17.7843 23.4162 18.049 22.6334 18.463 21.9449C18.8073 21.376 19.2361 20.8565 19.7365 20.4181C20.4548 19.7871 21.3376 19.3501 22.2705 19.1446ZM32.3759 21.5207C31.9413 21.5711 31.5158 21.7104 31.1353 21.9261C30.6272 22.213 30.226 22.674 29.9948 23.2082C29.8355 23.5805 29.7192 23.9809 29.7286 24.3892C29.7359 24.7758 29.8476 25.1603 30.0519 25.4888C30.2616 25.8298 30.5718 26.1074 30.9333 26.2791C31.2854 26.443 31.6755 26.5306 32.0646 26.5122C32.5277 26.4926 32.9743 26.3249 33.3636 26.0788C33.6724 25.8896 33.9538 25.6516 34.1769 25.3654C34.4316 25.0416 34.6076 24.6569 34.6919 24.2538C34.7364 24.0311 34.7761 23.8026 34.7529 23.5747C34.7245 22.9949 34.4638 22.4246 34.0264 22.0394C33.5819 21.6426 32.966 21.459 32.3759 21.5207Z" fill="#00ACD7"/>
<path d="M12.9496 21.5584C12.9804 21.5469 13.0138 21.5464 13.0462 21.5456C14.5723 21.5458 16.0981 21.5464 17.624 21.5454C17.6545 21.5479 17.6925 21.5383 17.716 21.5644C17.7312 21.596 17.7047 21.6253 17.6902 21.6512C17.6227 21.7522 17.5583 21.8555 17.4899 21.956C17.4546 22.0066 17.3959 22.0434 17.3327 22.0407C15.8127 22.0365 14.293 22.0319 12.7732 22.0281C12.7138 22.0254 12.6511 22.0371 12.5942 22.0162C12.5739 21.9945 12.6009 21.9686 12.6111 21.9493C12.6902 21.8456 12.7717 21.7442 12.8503 21.6403C12.876 21.6054 12.9068 21.5711 12.9496 21.5584Z" fill="#00ACD7"/>
<path d="M10.8957 22.8235C10.936 22.7631 11.0105 22.7417 11.0797 22.7442C13.0456 22.7451 15.0113 22.7438 16.9771 22.7449C17.0195 22.7384 17.0747 22.7702 17.0557 22.8195C17.0224 22.9299 16.9859 23.0399 16.9463 23.1482C16.9267 23.2034 16.8617 23.2147 16.8104 23.2142C14.8378 23.218 12.865 23.222 10.8923 23.2268C10.8016 23.2268 10.7102 23.2312 10.6201 23.2176V23.1858C10.7054 23.0604 10.8049 22.9449 10.8957 22.8235Z" fill="#00ACD7"/>
<path d="M14.0534 23.9535C14.0847 23.941 14.1194 23.9441 14.1525 23.9429C14.9963 23.9439 15.8399 23.9427 16.6835 23.9433C16.7283 23.9372 16.7795 23.9631 16.7803 24.0135C16.7805 24.1243 16.7644 24.2352 16.7565 24.3458C16.7563 24.4037 16.6978 24.4463 16.6426 24.4394C15.7569 24.4346 14.8711 24.4311 13.9854 24.4269C13.921 24.4248 13.8549 24.4336 13.7916 24.4189C13.7868 24.4118 13.777 24.3976 13.7721 24.3905C13.801 24.3004 13.8612 24.2237 13.903 24.1392C13.9436 24.0712 13.9731 23.9843 14.0534 23.9535Z" fill="#00ACD7"/>
<rect x="0.5" y="0.5" width="47" height="47" rx="23.5" stroke="#3347CC" stroke-opacity="0.12"/>
</svg>
