<svg width="48" height="48" viewBox="0 0 48 48" fill="none" xmlns="http://www.w3.org/2000/svg">
<path d="M15.8799 16H31.8799V32H15.8799V16ZM27.7243 23.2797C27.108 23.3416 26.4968 23.65 26.1586 24.1816C25.8552 24.6428 25.7989 25.2269 25.9052 25.7591C25.9858 26.1866 26.2205 26.5784 26.5508 26.8597C27.0439 27.2931 27.6749 27.5069 28.2636 27.7734C28.4964 27.8834 28.7411 27.9872 28.9286 28.1691C29.138 28.3672 29.1911 28.7056 29.0627 28.9619C28.9561 29.1716 28.7399 29.3016 28.5186 29.3609C28.188 29.4459 27.8299 29.4266 27.5096 29.3088C27.123 29.1659 26.8371 28.845 26.6286 28.5006C26.2202 28.7356 25.8136 28.9738 25.4061 29.21C25.5408 29.4725 25.7149 29.7156 25.9258 29.9222C26.3511 30.3444 26.9208 30.6034 27.5093 30.6959C28.0355 30.7778 28.5824 30.7653 29.0971 30.6216C29.5949 30.4825 30.0664 30.1894 30.3424 29.7437C30.6539 29.2525 30.693 28.6341 30.5768 28.0759C30.4883 27.6616 30.2455 27.2903 29.9211 27.0209C29.4405 26.6163 28.8493 26.3816 28.2789 26.1353C28.0274 26.0219 27.7643 25.9163 27.5543 25.7325C27.2693 25.4866 27.2596 24.9806 27.5543 24.7388C27.7839 24.5469 28.1136 24.5412 28.3899 24.6181C28.6839 24.7044 28.8808 24.9603 29.0252 25.2163C29.4158 24.9663 29.8055 24.715 30.1958 24.4647C29.9793 24.0834 29.6799 23.7369 29.2877 23.5303C28.8114 23.2778 28.253 23.2284 27.7243 23.2797ZM23.0899 23.3459C23.0893 25.0644 23.0911 26.7828 23.0889 28.5013C23.0836 28.7813 23.0374 29.1112 22.7877 29.2819C22.5589 29.4225 22.2649 29.4313 22.0105 29.3634C21.6671 29.2578 21.4836 28.9216 21.3164 28.6306C20.9086 28.8775 20.5008 29.1241 20.0933 29.3709C20.2627 29.7312 20.5136 30.0569 20.8368 30.2919C21.2611 30.6056 21.7949 30.7416 22.3174 30.7431C22.8436 30.7484 23.3943 30.6419 23.8224 30.3191C24.1905 30.0475 24.4243 29.625 24.5199 29.1828C24.6143 28.7847 24.5902 28.3731 24.5933 27.9678C24.5933 26.4272 24.5933 24.8866 24.5933 23.3459C24.0921 23.3456 23.5908 23.3456 23.0899 23.3459Z" fill="#F7DF1E"/>
<path d="M27.7242 23.2796C28.253 23.2284 28.8114 23.2777 29.2876 23.5302C29.6798 23.7368 29.9792 24.0834 30.1958 24.4646C29.8055 24.7149 29.4158 24.9662 29.0251 25.2162C28.8808 24.9602 28.6839 24.7043 28.3898 24.6181C28.1136 24.5412 27.7839 24.5468 27.5542 24.7387C27.2595 24.9806 27.2692 25.4865 27.5542 25.7324C27.7642 25.9162 28.0273 26.0218 28.2789 26.1352C28.8492 26.3815 29.4405 26.6162 29.9211 27.0209C30.2455 27.2902 30.4883 27.6615 30.5767 28.0759C30.693 28.634 30.6539 29.2524 30.3423 29.7437C30.0664 30.1893 29.5948 30.4824 29.097 30.6215C28.5823 30.7652 28.0355 30.7777 27.5092 30.6959C26.9208 30.6034 26.3511 30.3443 25.9258 29.9221C25.7148 29.7156 25.5408 29.4724 25.4061 29.2099C25.8136 28.9737 26.2201 28.7356 26.6286 28.5006C26.837 28.8449 27.1229 29.1659 27.5095 29.3087C27.8298 29.4265 28.188 29.4459 28.5186 29.3609C28.7398 29.3015 28.9561 29.1715 29.0626 28.9618C29.1911 28.7056 29.138 28.3671 28.9286 28.169C28.7411 27.9871 28.4964 27.8834 28.2636 27.7734C27.6748 27.5068 27.0439 27.2931 26.5508 26.8596C26.2204 26.5784 25.9858 26.1865 25.9051 25.759C25.7989 25.2268 25.8551 24.6427 26.1586 24.1815C26.4967 23.6499 27.1079 23.3415 27.7242 23.2796Z" fill="black"/>
<path d="M23.0898 23.3459C23.5908 23.3456 24.092 23.3456 24.5933 23.3459C24.5933 24.8865 24.5933 26.4271 24.5933 27.9677C24.5901 28.3731 24.6142 28.7846 24.5198 29.1827C24.4242 29.6249 24.1904 30.0474 23.8223 30.319C23.3942 30.6418 22.8436 30.7484 22.3173 30.7431C21.7948 30.7415 21.2611 30.6056 20.8367 30.2918C20.5136 30.0568 20.2626 29.7312 20.0933 29.3709C20.5008 29.124 20.9086 28.8774 21.3164 28.6306C21.4836 28.9215 21.667 29.2577 22.0104 29.3634C22.2648 29.4312 22.5589 29.4224 22.7876 29.2818C23.0373 29.1112 23.0836 28.7812 23.0889 28.5012C23.0911 26.7827 23.0892 25.0643 23.0898 23.3459Z" fill="black"/>
<rect x="0.5" y="0.5" width="47" height="47" rx="23.5" stroke="#3347CC" stroke-opacity="0.12"/>
</svg>
