<svg width="48" height="48" viewBox="0 0 48 48" fill="none" xmlns="http://www.w3.org/2000/svg">
<path d="M23.9869 33C23.7458 33 23.5064 32.9368 23.2951 32.8151L21.093 31.5114C20.7642 31.3275 20.9246 31.2624 21.0331 31.225C21.4716 31.0714 21.5606 31.0367 22.0287 30.7709C22.0779 30.7429 22.1423 30.7528 22.1927 30.7825L23.8843 31.7863C23.9454 31.8194 24.0321 31.8194 24.0887 31.7863L30.6848 27.979C30.7459 27.9443 30.7855 27.8733 30.7855 27.8007V20.1892C30.7855 20.1133 30.7459 20.0456 30.6834 20.0076L24.0901 16.2036C24.029 16.1672 23.9481 16.1672 23.887 16.2036L17.2949 20.0076C17.231 20.0439 17.1904 20.1149 17.1904 20.1876V27.799C17.1904 27.8717 17.23 27.941 17.2928 27.9757L19.0991 29.0191C20.0798 29.5095 20.6791 28.9316 20.6791 28.3505V20.8381C20.6791 20.7308 20.7633 20.6482 20.8707 20.6482H21.7061C21.8101 20.6482 21.896 20.7308 21.896 20.8381V28.3538C21.896 29.6614 21.1827 30.4126 19.9428 30.4126C19.5614 30.4126 19.2609 30.4126 18.4221 29.9999L16.6918 29.0026C16.4814 28.8799 16.3069 28.7042 16.1855 28.493C16.0641 28.2818 16.0002 28.0426 16 27.799V20.1876C16 19.6923 16.2642 19.23 16.6918 18.9856L23.2944 15.1766C23.7121 14.9405 24.2669 14.9405 24.6813 15.1766L31.2757 18.9873C31.486 19.1096 31.6606 19.285 31.782 19.4959C31.9034 19.7068 31.9673 19.9459 31.9675 20.1892V27.8007C31.9675 28.2943 31.7017 28.755 31.2757 29.0026L24.6813 32.8116C24.4699 32.9334 24.2302 32.9971 23.9862 32.9966" fill="#689F63"/>
<path d="M26.0253 27.7548C23.1393 27.7548 22.5341 26.43 22.5341 25.3188C22.5341 25.2131 22.6193 25.1289 22.7252 25.1289H23.5771C23.6712 25.1289 23.7505 25.1974 23.7653 25.2904C23.8941 26.1585 24.2772 26.5964 26.0224 26.5964C27.4126 26.5964 28.0036 26.2824 28.0036 25.5452C28.0036 25.1208 27.8352 24.8055 25.6756 24.5941C23.8694 24.4158 22.7532 24.0179 22.7532 22.5732C22.7532 21.2425 23.876 20.45 25.7565 20.45C27.8683 20.45 28.915 21.183 29.0471 22.7581C29.0493 22.7846 29.046 22.8113 29.0374 22.8364C29.0287 22.8615 29.015 22.8846 28.997 22.9042C28.979 22.9237 28.9571 22.9393 28.9328 22.95C28.9085 22.9607 28.8822 22.9662 28.8556 22.9662H27.9987C27.9095 22.9662 27.8319 22.9034 27.8138 22.8176C27.6074 21.9045 27.1088 21.6123 25.7532 21.6123C24.2359 21.6123 24.0592 22.1406 24.0592 22.5369C24.0592 23.0174 24.2673 23.1577 26.3146 23.4285C28.3421 23.6976 29.3047 24.0774 29.3047 25.5022C29.3047 26.9387 28.106 27.7625 26.0158 27.7625L26.0253 27.7548Z" fill="#689F63"/>
<rect x="0.5" y="0.5" width="47" height="47" rx="23.5" stroke="#3347CC" stroke-opacity="0.12"/>
</svg>
