<svg width="16" height="18" viewBox="0 0 16 18" fill="none" xmlns="http://www.w3.org/2000/svg">
<path fill-rule="evenodd" clip-rule="evenodd" d="M6.91314 0.959823C7.25052 0.765856 7.62626 0.668676 8.00259 0.670434C8.37204 0.672159 8.74009 0.769246 9.07057 0.960452C9.07076 0.960558 9.07039 0.960347 9.07057 0.960452L14.4197 4.04744C14.4199 4.04753 14.4195 4.04734 14.4197 4.04744C14.7283 4.22516 14.9838 4.47252 15.1683 4.7646C15.3817 5.10229 15.4996 5.49828 15.4996 5.91248V12.0875C15.4996 12.1748 15.4815 12.259 15.4481 12.3359C15.3606 12.9891 14.9753 13.5767 14.4011 13.9151L14.3969 13.9176L9.05058 17.0119C8.72723 17.1954 8.36682 17.2882 8.00814 17.2931C7.62979 17.2982 7.24745 17.2055 6.90706 17.0109L6.90495 17.0097L1.56025 13.928C0.881165 13.5451 0.486328 12.824 0.486328 12.0683V5.90165C0.486328 5.495 0.602481 5.1026 0.811347 4.76768C0.995479 4.47242 1.25286 4.21996 1.56862 4.04192L6.91314 0.959823ZM14.2496 11.8526V5.91248C14.2496 5.7371 14.2 5.57223 14.1115 5.43221C14.0349 5.31087 13.9282 5.20678 13.7962 5.13086L8.44483 2.04255C8.30472 1.96143 8.15066 1.92114 7.99675 1.92042C7.84013 1.91969 7.6816 1.95994 7.53644 2.04333C7.53634 2.04338 7.53654 2.04327 7.53644 2.04333L2.18397 5.13001C2.05557 5.2021 1.94912 5.30547 1.872 5.42913C1.78454 5.56937 1.73633 5.73324 1.73633 5.90165V12.0683C1.73633 12.3947 1.90682 12.6891 2.17562 12.84L2.18187 12.8435L7.52723 15.9256C7.5275 15.9258 7.52777 15.9259 7.52804 15.9261C7.66665 16.0051 7.82735 16.0454 7.9912 16.0432C8.14584 16.0411 8.29805 16.0012 8.43158 15.9259C8.43229 15.9255 8.433 15.9251 8.43372 15.9247L13.7665 12.8382C13.7671 12.8378 13.7677 12.8375 13.7683 12.8371C14.0441 12.6737 14.2171 12.3704 14.2171 12.0516C14.2171 11.9827 14.2284 11.9156 14.2496 11.8526ZM3.07376 6.1134C3.24827 5.81559 3.63117 5.71564 3.92898 5.89016L7.99925 8.27534L12.0581 5.89053C12.3557 5.71567 12.7387 5.81517 12.9135 6.11278C13.0884 6.41038 12.9889 6.7934 12.6913 6.96826L8.62467 9.35766V14C8.62467 14.3452 8.34485 14.625 7.99967 14.625C7.65449 14.625 7.37467 14.3452 7.37467 14V9.35815L3.297 6.96863C2.99919 6.79411 2.89924 6.41121 3.07376 6.1134Z" fill="#8C90A4"/>
</svg>
