<svg width="48" height="48" viewBox="0 0 48 48" fill="none" xmlns="http://www.w3.org/2000/svg">
<path d="M23.893 15.0001C23.1508 15.0036 22.4419 15.0669 21.8183 15.1773C19.981 15.5018 19.6474 16.1812 19.6474 17.4342V19.0889H23.9891V19.6404H18.018C16.7561 19.6404 15.6512 20.3989 15.3056 21.8417C14.907 23.4955 14.8893 24.5274 15.3056 26.2543C15.6143 27.5396 16.3513 28.4555 17.6131 28.4555H19.1059V26.4719C19.1059 25.0388 20.3459 23.7747 21.8183 23.7747H26.1549C27.3621 23.7747 28.3258 22.7808 28.3258 21.5684V17.4342C28.3258 16.2575 27.3332 15.3736 26.1549 15.1773C25.4091 15.0531 24.6352 14.9967 23.893 15.0001ZM21.545 16.331C21.9935 16.331 22.3597 16.7032 22.3597 17.1609C22.3597 17.6169 21.9935 17.9857 21.545 17.9857C21.0949 17.9857 20.7303 17.6169 20.7303 17.1609C20.7303 16.7032 21.0949 16.331 21.545 16.331Z" fill="url(#paint0_linear_566_15667)"/>
<path d="M28.8664 19.6426V21.5706C28.8664 23.0653 27.5991 24.3234 26.154 24.3234H21.8174C20.6295 24.3234 19.6465 25.34 19.6465 26.5296V30.6639C19.6465 31.8406 20.6697 32.5326 21.8174 32.8702C23.1917 33.2743 24.5096 33.3474 26.154 32.8702C27.2471 32.5537 28.3249 31.9168 28.3249 30.6639V29.0092H23.9882V28.4576H30.4958C31.7576 28.4576 32.2278 27.5775 32.6666 26.2564C33.1199 24.8964 33.1006 23.5885 32.6666 21.8438C32.3548 20.5876 31.7592 19.6426 30.4958 19.6426H28.8664ZM26.4273 30.1123C26.8774 30.1123 27.242 30.4811 27.242 30.9372C27.242 31.3948 26.8774 31.7671 26.4273 31.7671C25.9788 31.7671 25.6126 31.3948 25.6126 30.9372C25.6126 30.4811 25.9788 30.1123 26.4273 30.1123Z" fill="url(#paint1_linear_566_15667)"/>
<rect x="0.5" y="0.5" width="47" height="47" rx="23.5" stroke="#3347CC" stroke-opacity="0.12"/>
<defs>
<linearGradient id="paint0_linear_566_15667" x1="15" y1="15" x2="25.0116" y2="23.5312" gradientUnits="userSpaceOnUse">
<stop stop-color="#5A9FD4"/>
<stop offset="1" stop-color="#306998"/>
</linearGradient>
<linearGradient id="paint1_linear_566_15667" x1="26.323" y1="30.7981" x2="22.7312" y2="25.7649" gradientUnits="userSpaceOnUse">
<stop stop-color="#FFD43B"/>
<stop offset="1" stop-color="#FFE873"/>
</linearGradient>
</defs>
</svg>
