<svg width="48" height="49" viewBox="0 0 48 49" fill="none" xmlns="http://www.w3.org/2000/svg">
<rect y="0.459961" width="48" height="48" rx="24" fill="#00A4BA" fill-opacity="0.15"/>
<path fill-rule="evenodd" clip-rule="evenodd" d="M20 16.21C17.6532 16.21 15.75 18.1132 15.75 20.46V28.46C15.75 30.55 17.2608 32.2894 19.25 32.6439V23.46C19.25 21.9357 20.4758 20.71 22 20.71H32.25V20.46C32.25 18.1133 30.3459 16.21 28 16.21H20ZM33.75 20.46C33.75 17.2846 31.1741 14.71 28 14.71H20C16.8248 14.71 14.25 17.2847 14.25 20.46V28.46C14.25 31.6341 16.8247 34.21 20 34.21H28C31.1742 34.21 33.75 31.6342 33.75 28.46V20.46ZM32.25 22.21H22C21.3042 22.21 20.75 22.7642 20.75 23.46V25.71H32.25V22.21ZM32.25 27.21H20.75V32.71H28C30.3458 32.71 32.25 30.8057 32.25 28.46V27.21ZM22.235 23.93C22.235 23.5158 22.5707 23.18 22.9849 23.18L22.985 23.93C22.9849 23.18 22.9846 23.18 22.9849 23.18L22.9864 23.18L22.9879 23.18L22.9909 23.18L22.9971 23.1801L23.01 23.1804C23.019 23.1807 23.0286 23.1812 23.0388 23.1819C23.059 23.1833 23.083 23.1858 23.1098 23.1903C23.1599 23.1987 23.2381 23.2167 23.3254 23.2604C23.4109 23.3031 23.517 23.3768 23.6035 23.4979C23.6986 23.6236 23.755 23.7802 23.755 23.95C23.755 24.3642 23.4192 24.7 23.005 24.7H22.9959C22.6981 24.7 22.4399 24.5264 22.3189 24.2749C22.2653 24.1717 22.235 24.0544 22.235 23.93ZM24.77 23.93C24.77 23.5158 25.1057 23.18 25.5199 23.18L25.52 23.93C25.5199 23.18 25.5196 23.18 25.5199 23.18L25.5214 23.18L25.5229 23.18L25.5259 23.18L25.5321 23.1801L25.545 23.1804C25.554 23.1807 25.5636 23.1812 25.5738 23.1819C25.594 23.1833 25.618 23.1858 25.6448 23.1903C25.6949 23.1987 25.7731 23.2167 25.8604 23.2604C25.946 23.3032 26.052 23.3768 26.1385 23.4979C26.2336 23.6236 26.29 23.7802 26.29 23.95C26.29 24.3642 25.9542 24.7 25.54 24.7H25.5309C25.2331 24.7 24.9749 24.5264 24.8538 24.2749C24.8003 24.1716 24.77 24.0544 24.77 23.93ZM27.31 23.93C27.31 23.5158 27.6457 23.18 28.0599 23.18L28.06 23.93C28.0599 23.18 28.0596 23.18 28.0599 23.18L28.0614 23.18L28.0629 23.18L28.0659 23.18L28.0721 23.1801L28.085 23.1804C28.094 23.1807 28.1036 23.1812 28.1138 23.1819C28.134 23.1833 28.158 23.1858 28.1848 23.1903C28.2349 23.1987 28.3131 23.2167 28.4004 23.2604C28.4859 23.3031 28.592 23.3768 28.6785 23.4979C28.7736 23.6236 28.83 23.7802 28.83 23.95C28.83 24.3642 28.4942 24.7 28.08 24.7H28.0709C27.7731 24.7 27.5149 24.5264 27.3939 24.2749C27.3403 24.1717 27.31 24.0544 27.31 23.93Z" fill="#00A4BA"/>
<rect x="0.5" y="0.959961" width="47" height="47" rx="23.5" stroke="#00A4BA" stroke-opacity="0.15"/>
</svg>
