<svg width="48" height="49" viewBox="0 0 48 49" fill="none" xmlns="http://www.w3.org/2000/svg">
<rect y="0.459961" width="48" height="48" rx="24" fill="#00A4BA" fill-opacity="0.15"/>
<path fill-rule="evenodd" clip-rule="evenodd" d="M19 17.21C18.0242 17.21 17.25 17.9842 17.25 18.96V21.96C17.25 22.964 16.7941 23.8621 16.0781 24.4584C16.7938 25.0526 17.25 25.9496 17.25 26.96V29.96C17.25 30.9277 18.0262 31.71 19 31.71C19.4142 31.71 19.75 32.0457 19.75 32.46C19.75 32.8742 19.4142 33.21 19 33.21C17.1938 33.21 15.75 31.7522 15.75 29.96V26.96C15.75 25.9861 14.9677 25.21 14 25.21C13.5858 25.21 13.25 24.8742 13.25 24.46C13.25 24.0457 13.5858 23.71 14 23.71C14.9658 23.71 15.75 22.9257 15.75 21.96V18.96C15.75 17.1557 17.1958 15.71 19 15.71C19.4142 15.71 19.75 16.0457 19.75 16.46C19.75 16.8742 19.4142 17.21 19 17.21ZM28.25 16.46C28.25 16.0457 28.5858 15.71 29 15.71C30.7923 15.71 32.25 17.1538 32.25 18.96V21.96C32.25 22.9277 33.0262 23.71 34 23.71C34.4142 23.71 34.75 24.0457 34.75 24.46C34.75 24.8742 34.4142 25.21 34 25.21C33.0242 25.21 32.25 25.9842 32.25 26.96V29.96C32.25 31.7542 30.7942 33.21 29 33.21C28.5858 33.21 28.25 32.8742 28.25 32.46C28.25 32.0457 28.5858 31.71 29 31.71C29.9658 31.71 30.75 30.9257 30.75 29.96V26.96C30.75 25.9503 31.2027 25.053 31.9177 24.4584C31.2025 23.8618 30.75 22.9633 30.75 21.96V18.96C30.75 17.9861 29.9677 17.21 29 17.21C28.5858 17.21 28.25 16.8742 28.25 16.46Z" fill="#00A4BA"/>
<path fill-rule="evenodd" clip-rule="evenodd" d="M21.75 24.71C21.8842 24.71 22 24.5942 22 24.46C22 24.3255 21.8939 24.21 21.75 24.21C21.6691 24.21 21.6079 24.244 21.5709 24.2809C21.534 24.3178 21.5 24.3791 21.5 24.46C21.5 24.6039 21.6156 24.71 21.75 24.71ZM20.5 24.46C20.5 23.7657 21.0558 23.21 21.75 23.21C22.4244 23.21 23 23.756 23 24.46C23 25.1442 22.4342 25.71 21.75 25.71C21.0461 25.71 20.5 25.1344 20.5 24.46ZM26.75 24.71C26.8842 24.71 27 24.5942 27 24.46C27 24.3255 26.8939 24.21 26.75 24.21C26.6691 24.21 26.6079 24.244 26.5709 24.2809C26.534 24.3178 26.5 24.3791 26.5 24.46C26.5 24.6039 26.6156 24.71 26.75 24.71ZM25.5 24.46C25.5 23.7657 26.0558 23.21 26.75 23.21C27.4244 23.21 28 23.756 28 24.46C28 25.1442 27.4342 25.71 26.75 25.71C26.0461 25.71 25.5 25.1344 25.5 24.46Z" fill="#00A4BA"/>
<path d="M22 24.46C22 24.5942 21.8842 24.71 21.75 24.71C21.6156 24.71 21.5 24.6039 21.5 24.46C21.5 24.3791 21.534 24.3178 21.5709 24.2809C21.6079 24.244 21.6691 24.21 21.75 24.21C21.8939 24.21 22 24.3255 22 24.46Z" fill="#00A4BA"/>
<path d="M27 24.46C27 24.5942 26.8842 24.71 26.75 24.71C26.6156 24.71 26.5 24.6039 26.5 24.46C26.5 24.3791 26.534 24.3178 26.5709 24.2809C26.6079 24.244 26.6691 24.21 26.75 24.21C26.8939 24.21 27 24.3255 27 24.46Z" fill="#00A4BA"/>
<rect x="0.5" y="0.959961" width="47" height="47" rx="23.5" stroke="#00A4BA" stroke-opacity="0.15"/>
</svg>
