<svg width="48" height="49" viewBox="0 0 48 49" fill="none" xmlns="http://www.w3.org/2000/svg">
<rect y="0.459961" width="48" height="48" rx="24" fill="#00A4BA" fill-opacity="0.15"/>
<path fill-rule="evenodd" clip-rule="evenodd" d="M24.4905 20.0595C24.3587 19.8439 24.1212 19.7 23.85 19.7C23.2958 19.7 22.85 20.1457 22.85 20.7C22.85 21.2247 23.2765 21.7 23.85 21.7C24.1451 21.7 24.3909 21.5672 24.5541 21.404C24.7172 21.2409 24.85 20.9951 24.85 20.7C24.85 20.4288 24.7061 20.1912 24.4905 20.0595Z" fill="#00A4BA"/>
<path fill-rule="evenodd" clip-rule="evenodd" d="M22.25 27.96C22.25 27.5457 22.5858 27.21 23 27.21H25.31C25.7242 27.21 26.06 27.5457 26.06 27.96C26.06 28.3742 25.7242 28.71 25.31 28.71H23C22.5858 28.71 22.25 28.3742 22.25 27.96Z" fill="#00A4BA"/>
<path fill-rule="evenodd" clip-rule="evenodd" d="M20.2688 15.4521C21.4518 14.9622 22.7196 14.71 24 14.71C25.2804 14.71 26.5482 14.9622 27.7312 15.4521C28.9141 15.9421 29.9889 16.6603 30.8943 17.5657C31.7997 18.471 32.5178 19.5459 33.0078 20.7288C33.4978 21.9117 33.75 23.1796 33.75 24.46C33.75 25.7403 33.4978 27.0082 33.0078 28.1911C32.5178 29.374 31.7997 30.4489 30.8943 31.3543C29.9889 32.2596 28.9141 32.9778 27.7312 33.4678C26.5482 33.9578 25.2804 34.21 24 34.21C22.7196 34.21 21.4518 33.9578 20.2688 33.4678C19.0859 32.9778 18.0111 32.2596 17.1057 31.3543C16.2003 30.4489 15.4822 29.374 14.9922 28.1911C14.5022 27.0082 14.25 25.7403 14.25 24.46C14.25 23.1796 14.5022 21.9117 14.9922 20.7288C15.4822 19.5459 16.2003 18.471 17.1057 17.5657C18.0111 16.6603 19.0859 15.9421 20.2688 15.4521ZM24 16.21C22.9166 16.21 21.8438 16.4234 20.8429 16.838C19.8419 17.2526 18.9325 17.8602 18.1664 18.6263C17.4003 19.3924 16.7926 20.3019 16.378 21.3028C15.9634 22.3038 15.75 23.3766 15.75 24.46C15.75 25.5434 15.9634 26.6162 16.378 27.6171C16.7926 28.618 17.4003 29.5275 18.1664 30.2936C18.9325 31.0597 19.8419 31.6674 20.8429 32.082C21.8438 32.4966 22.9166 32.71 24 32.71C25.0834 32.71 26.1562 32.4966 27.1571 32.082C28.1581 31.6674 29.0675 31.0597 29.8336 30.2936C30.5997 29.5275 31.2074 28.618 31.622 27.6171C32.0366 26.6162 32.25 25.5434 32.25 24.46C32.25 23.3766 32.0366 22.3038 31.622 21.3028C31.2074 20.3019 30.5997 19.3924 29.8336 18.6263C29.0675 17.8602 28.1581 17.2526 27.1571 16.838C26.1562 16.4234 25.0834 16.21 24 16.21ZM23.4596 21.0964C23.5931 21.3031 23.8256 21.44 24.09 21.44C24.5042 21.44 24.84 21.1042 24.84 20.69C24.84 20.3961 24.7081 20.1466 24.5368 19.9799C24.3646 19.8124 24.0989 19.6778 23.7825 19.7022C23.3807 19.7331 23.0751 20.076 23.0906 20.4787C23.1007 20.7429 23.2466 20.9709 23.4596 21.0964ZM22.259 23.71C22.259 23.2957 22.5948 22.96 23.009 22.96H24.159C24.5732 22.96 24.909 23.2957 24.909 23.71V27.96C24.909 28.3742 24.5732 28.71 24.159 28.71C23.7448 28.71 23.409 28.3742 23.409 27.96V24.46H23.009C22.5948 24.46 22.259 24.1242 22.259 23.71Z" fill="#00A4BA"/>
<rect x="0.5" y="0.959961" width="47" height="47" rx="23.5" stroke="#00A4BA" stroke-opacity="0.15"/>
</svg>
