<svg width="48" height="49" viewBox="0 0 48 49" fill="none" xmlns="http://www.w3.org/2000/svg">
<rect y="0.459961" width="48" height="48" rx="24" fill="#00A4BA" fill-opacity="0.15"/>
<path fill-rule="evenodd" clip-rule="evenodd" d="M29.3289 16.2472C24.8016 13.3015 18.7472 14.59 15.8115 19.1072L29.3289 16.2472ZM15.8115 19.1072C13.8319 22.1484 13.7074 26.018 15.4501 29.1566L15.0322 29.5736C15.006 29.5933 14.9811 29.6149 14.9575 29.6381C13.9204 30.6612 13.9198 32.3403 14.9557 33.3642C15.9806 34.3871 17.6545 34.383 18.6821 33.3518L19.1293 32.9036C23.5932 35.4852 29.3575 34.1372 32.1991 29.7647C35.1339 25.2379 33.8459 19.183 29.3289 16.2472M20.2328 31.7976C23.9556 33.7156 28.6106 32.5338 30.9413 28.9474C33.4258 25.1144 32.3339 19.989 28.5115 17.5049C24.6789 15.011 19.5533 16.1021 17.0691 19.9247C15.4721 22.3778 15.3016 25.4655 16.5625 28.0467L19.096 25.5188C18.5701 23.6619 19.0961 21.6467 20.5022 20.2836C20.527 20.2594 20.5534 20.2372 20.5811 20.2169C22.159 18.7193 24.4838 18.3065 26.4915 19.1735C26.5326 19.1913 26.572 19.2126 26.6091 19.2373C26.6366 19.2542 26.6568 19.269 26.6692 19.2783C26.7004 19.3017 26.7242 19.3231 26.7377 19.3357C26.9004 19.4801 27.0011 19.683 27.0142 19.9043C27.0226 20.0478 26.9935 20.1776 26.9455 20.2879C26.9082 20.3863 26.8503 20.4766 26.7745 20.5524L24.335 22.9919L24.7615 23.4117L25.3082 23.9584L27.8265 21.5062C27.9554 21.3797 28.0985 21.3244 28.2071 21.3003C28.3432 21.2641 28.5056 21.2571 28.6771 21.3143C28.8613 21.3757 28.9889 21.4888 29.0726 21.5962C29.1201 21.6521 29.1592 21.7147 29.1886 21.7821C29.7459 23.0591 29.792 24.5095 29.305 25.8313C28.3301 28.471 25.5089 29.8809 22.8549 29.1697L20.2328 31.7976ZM22.0079 27.8949L17.6203 32.2923C17.1744 32.74 16.4496 32.7368 16.0145 32.3017L16.0109 32.2981C15.5866 31.8795 15.5694 31.2002 15.9592 30.7605C15.9818 30.7427 16.0034 30.7235 16.0239 30.703L16.7287 29.9998C16.7626 29.9844 16.7957 29.9664 16.8279 29.9456C16.953 29.8645 17.046 29.7525 17.1032 29.6261L20.4839 26.253C20.6946 26.0428 20.761 25.728 20.6534 25.4506C20.1128 24.0582 20.44 22.4818 21.4843 21.422C21.511 21.4019 21.5365 21.38 21.5606 21.3563C22.4606 20.4695 23.7165 20.0827 24.9334 20.2722L22.7399 22.4657C22.5985 22.6071 22.5194 22.7991 22.5202 22.999C22.521 23.1989 22.6016 23.3903 22.7441 23.5305L23.703 24.4745L24.7709 25.5424C25.061 25.8325 25.5305 25.8356 25.8244 25.5494L28.0931 23.3402C28.1961 23.9951 28.1327 24.674 27.8976 25.3122M22.0079 27.8949C22.2005 27.607 22.566 27.488 22.892 27.6088C24.9054 28.3555 27.152 27.331 27.8976 25.3122" fill="#00A4BA"/>
<rect x="0.5" y="0.959961" width="47" height="47" rx="23.5" stroke="#00A4BA" stroke-opacity="0.15"/>
</svg>
