<svg width="48" height="48" viewBox="0 0 48 48" fill="none" xmlns="http://www.w3.org/2000/svg">
    <rect width="48" height="48" rx="24" fill="#5383FF" fill-opacity="0.15" />
    <path fill-rule="evenodd" clip-rule="evenodd" d="M18 17.75C16.7572 17.75 15.75 18.7572 15.75 20V20.25H32.25V20C32.25 18.7572 31.2428 17.75 30 17.75H18ZM33.75 20C33.75 17.9288 32.0712 16.25 30 16.25H18C15.9288 16.25 14.25 17.9288 14.25 20V28C14.25 30.0712 15.9288 31.75 18 31.75H30C32.0712 31.75 33.75 30.0712 33.75 28V20ZM32.25 21.75H15.75V28C15.75 29.2428 16.7572 30.25 18 30.25H30C31.2428 30.25 32.25 29.2428 32.25 28V21.75ZM18.25 25C18.25 24.5858 18.5858 24.25 19 24.25H21.57C21.9842 24.25 22.32 24.5858 22.32 25C22.32 25.4142 21.9842 25.75 21.57 25.75H19C18.5858 25.75 18.25 25.4142 18.25 25Z" fill="#5383FF" />
    <rect x="0.5" y="0.5" width="47" height="47" rx="23.5" stroke="#5383FF" stroke-opacity="0.15" />
</svg>