<svg width="48" height="48" viewBox="0 0 48 48" fill="none" xmlns="http://www.w3.org/2000/svg">
<rect width="48" height="48" rx="24" fill="#5383FF" fill-opacity="0.15"/>
<rect x="0.5" y="0.5" width="47" height="47" rx="23.5" stroke="#5383FF" stroke-opacity="0.15"/>
<path fill-rule="evenodd" clip-rule="evenodd" d="M16.001 15.25C15.3106 15.25 14.751 15.8096 14.751 16.5V20.5C14.751 21.1904 15.3106 21.75 16.001 21.75H20.001C20.6913 21.75 21.251 21.1904 21.251 20.5V16.5C21.251 15.8096 20.6913 15.25 20.001 15.25H16.001ZM13.251 16.5C13.251 14.9812 14.4822 13.75 16.001 13.75H20.001C21.5198 13.75 22.751 14.9812 22.751 16.5V20.5C22.751 22.0188 21.5198 23.25 20.001 23.25H16.001C14.4822 23.25 13.251 22.0188 13.251 20.5V16.5ZM17.9849 26.25C16.2026 26.2528 14.75 27.7047 14.75 29.5C14.75 29.5522 14.7447 29.6031 14.7345 29.6523C14.8245 31.3664 16.2416 32.7303 17.9817 32.739C19.7746 32.7381 21.2272 31.2883 21.2399 29.5051C21.2029 27.7125 19.7617 26.2771 17.9849 26.25ZM13.2546 29.2875C13.2386 29.3487 13.23 29.4128 13.23 29.479C13.23 32.1039 15.3557 34.2271 17.9766 34.239L17.98 34.239C20.6034 34.239 22.7281 32.1158 22.74 29.5034L22.7399 29.4864C22.6926 26.8847 20.5982 24.7857 18.0003 24.7501L17.99 24.75C15.4455 24.75 13.3657 26.7631 13.2546 29.2875Z" fill="#5383FF"/>
<path d="M16.4684 17.3737C16.4684 16.9813 16.7865 16.6632 17.1789 16.6632H18.7895C19.1819 16.6632 19.5 16.9813 19.5 17.3737V19.7895C19.5 20.1819 19.1819 20.5 18.7895 20.5C18.397 20.5 18.0789 20.1819 18.0789 19.7895V18.0842H17.1789C16.7865 18.0842 16.4684 17.7661 16.4684 17.3737Z" fill="#5383FF"/>
<path fill-rule="evenodd" clip-rule="evenodd" d="M28.2995 15.095C29.0241 13.9356 30.7125 13.9357 31.4371 15.095L34.4524 19.9195C35.2225 21.1517 34.3367 22.75 32.8836 22.75H26.8529C25.3999 22.75 24.514 21.1517 25.2841 19.9195L28.2995 15.095ZM30.1651 15.89C30.028 15.6707 29.7085 15.6707 29.5715 15.89L26.5561 20.7145C26.4104 20.9476 26.578 21.25 26.8529 21.25H32.8836C33.1585 21.25 33.3261 20.9476 33.1804 20.7145L30.1651 15.89ZM28.8582 24.5207C29.4832 24.1598 30.2533 24.1598 30.8784 24.5207L33.6082 26.0967C34.2332 26.4576 34.6183 27.1245 34.6183 27.8462V30.9984C34.6183 31.7201 34.2332 32.387 33.6082 32.7479L30.8784 34.324C30.2533 34.6848 29.4832 34.6848 28.8582 34.324L26.1284 32.7479C25.5033 32.387 25.1183 31.7201 25.1183 30.9984V27.8462C25.1183 27.1245 25.5033 26.4576 26.1284 26.0967L28.8582 24.5207ZM30.1284 25.8197C29.9674 25.7268 29.7691 25.7268 29.6082 25.8197L26.8784 27.3958C26.7174 27.4887 26.6183 27.6604 26.6183 27.8462V30.9984C26.6183 31.1842 26.7174 31.3559 26.8784 31.4489L29.6082 33.0249C29.7691 33.1178 29.9674 33.1178 30.1284 33.0249L32.8582 31.4489C33.0191 31.3559 33.1183 31.1842 33.1183 30.9984V27.8462C33.1183 27.6604 33.0191 27.4887 32.8582 27.3958L30.1284 25.8197Z" fill="#5383FF"/>
</svg>
