<svg width="114" height="114" viewBox="0 0 114 114" fill="none" xmlns="http://www.w3.org/2000/svg">
<g filter="url(#filter0_ddi_1947_6759)">
<g clip-path="url(#clip0_1947_6759)">
<rect x="5" y="1" width="104" height="104" rx="52" fill="#1E2237"/>
<rect x="5" y="1" width="104" height="104" rx="52" fill="url(#paint0_radial_1947_6759)" fill-opacity="0.3"/>
<path opacity="0.1" d="M89.5781 53H57M89.5781 53H109.125M89.5781 53V32.3672M89.5781 53H143.875M89.5781 53V85.5781M89.5781 53H196M57 53V20.4219M57 53H24.4219M57 53V85.5781M196 53H109.125M196 53V-33.875M196 53H143.875M196 53V192H143.875M57 20.4219V-33.875M57 20.4219H89.5781M57 20.4219V0.875M57 20.4219H36.3672M57 20.4219V-86M109.125 53V32.3672M196 -33.875V-86H57M196 -33.875H109.125M57 -86V-33.875M57 -86V0.875M57 -86H-29.875M57 -33.875H109.125M109.125 -33.875V20.4219M109.125 20.4219H97.1797M109.125 20.4219V32.3672M89.5781 20.4219H97.1797M89.5781 20.4219V32.3672M97.1797 20.4219V32.3672M97.1797 32.3672H89.5781M97.1797 32.3672H109.125M24.4219 53H-29.875M24.4219 53V20.4219M24.4219 53H4.875M24.4219 53V73.6328M24.4219 53H-82M57 0.875H36.3672M-29.875 -86H-82V53M-29.875 -86V0.875M-82 53H-29.875M-82 53H4.875M-82 53V139.875M-29.875 53V0.875M-29.875 0.875H24.4219M24.4219 0.875V12.8203M24.4219 0.875H36.3672M24.4219 20.4219V12.8203M24.4219 20.4219H36.3672M24.4219 12.8203H36.3672M36.3672 12.8203V20.4219M36.3672 12.8203V0.875M57 85.5781V105.125M57 85.5781H77.6328M57 85.5781V139.875M57 85.5781H24.4219M57 85.5781V192M57 192V105.125M57 192H143.875M57 192V139.875M57 192H-82V139.875M57 105.125H77.6328M143.875 192V105.125M143.875 53V105.125M143.875 105.125H89.5781M89.5781 105.125V93.1797M89.5781 105.125H77.6328M89.5781 85.5781V93.1797M89.5781 85.5781H77.6328M89.5781 93.1797H77.6328M77.6328 93.1797V85.5781M77.6328 93.1797V105.125M4.875 53V73.6328M-82 139.875H4.875M57 139.875H4.875M4.875 139.875V85.5781M4.875 85.5781H16.8203M4.875 85.5781V73.6328M24.4219 85.5781H16.8203M24.4219 85.5781V73.6328M16.8203 85.5781V73.6328M16.8203 73.6328H24.4219M16.8203 73.6328H4.875" stroke="url(#paint1_radial_1947_6759)" stroke-width="1.31132"/>
<path fill-rule="evenodd" clip-rule="evenodd" d="M38.4189 32.6509C36.7937 32.6509 35.4762 33.9684 35.4762 35.5936V45.0103C35.4762 46.6355 36.7937 47.953 38.4189 47.953H47.8355C49.4608 47.953 50.7783 46.6355 50.7783 45.0103V35.5936C50.7783 33.9684 49.4608 32.6509 47.8355 32.6509H38.4189ZM31.9449 35.5936C31.9449 32.0181 34.8434 29.1196 38.4189 29.1196H47.8355C51.411 29.1196 54.3095 32.0181 54.3095 35.5936V45.0103C54.3095 48.5857 51.411 51.4842 47.8355 51.4842H38.4189C34.8434 51.4842 31.9449 48.5857 31.9449 45.0103V35.5936ZM43.0893 58.5467C38.8936 58.5533 35.4738 61.9714 35.4738 66.1978C35.4738 66.3206 35.4613 66.4405 35.4374 66.5562C35.6492 70.5916 38.9854 73.8023 43.0818 73.8229C47.3027 73.8208 50.7224 70.4077 50.7523 66.2098C50.665 61.9898 47.2722 58.6105 43.0893 58.5467ZM31.9536 65.6976C31.9157 65.8415 31.8955 65.9925 31.8955 66.1483C31.8955 72.3277 36.8998 77.3262 43.0698 77.3542L43.0778 77.3542C49.2537 77.3542 54.2557 72.3557 54.2836 66.2058L54.2833 66.1657C54.172 60.0408 49.2416 55.0994 43.1255 55.0157L43.1013 55.0155C37.1113 55.0155 32.215 59.7547 31.9536 65.6976Z" fill="#5383FF"/>
<path d="M39.5193 37.6504C39.5193 36.7266 40.2682 35.9777 41.192 35.9777H44.9834C45.9072 35.9777 46.6561 36.7266 46.6561 37.6504V43.3376C46.6561 44.2614 45.9072 45.0103 44.9834 45.0103C44.0596 45.0103 43.3107 44.2614 43.3107 43.3376V39.3231H41.192C40.2682 39.3231 39.5193 38.5742 39.5193 37.6504Z" fill="#5383FF"/>
<path fill-rule="evenodd" clip-rule="evenodd" d="M67.3716 32.2859C69.0774 29.5567 73.0522 29.5567 74.758 32.286L81.8566 43.6437C83.6696 46.5445 81.5841 50.3071 78.1634 50.3071H63.9662C60.5455 50.3071 58.46 46.5445 60.273 43.6437L67.3716 32.2859ZM71.7635 34.1575C71.4408 33.6412 70.6888 33.6412 70.3661 34.1575L63.2675 45.5152C62.9245 46.064 63.3191 46.7759 63.9662 46.7759H78.1634C78.8106 46.7759 79.2051 46.064 78.8621 45.5152L71.7635 34.1575ZM68.6869 54.4756C70.1583 53.626 71.9713 53.626 73.4427 54.4756L79.8692 58.1859C81.3406 59.0354 82.2471 60.6055 82.2471 62.3045V69.7252C82.2471 71.4243 81.3406 72.9943 79.8692 73.8439L73.4427 77.5542C71.9713 78.4037 70.1583 78.4037 68.6869 77.5542L62.2604 73.8439C60.789 72.9943 59.8825 71.4243 59.8825 69.7252V62.3045C59.8825 60.6055 60.789 59.0354 62.2604 58.1859L68.6869 54.4756ZM71.6771 57.5337C71.2982 57.315 70.8314 57.315 70.4525 57.5337L64.026 61.244C63.6472 61.4628 63.4138 61.867 63.4138 62.3045V69.7252C63.4138 70.1627 63.6472 70.567 64.026 70.7857L70.4525 74.496C70.8314 74.7148 71.2982 74.7148 71.6771 74.496L78.1036 70.7857C78.4824 70.567 78.7158 70.1627 78.7158 69.7252V62.3045C78.7158 61.867 78.4824 61.4628 78.1036 61.244L71.6771 57.5337Z" fill="#5383FF"/>
</g>
</g>
<defs>
<filter id="filter0_ddi_1947_6759" x="0" y="0" width="114" height="114" filterUnits="userSpaceOnUse" color-interpolation-filters="sRGB">
<feFlood flood-opacity="0" result="BackgroundImageFix"/>
<feColorMatrix in="SourceAlpha" type="matrix" values="0 0 0 0 0 0 0 0 0 0 0 0 0 0 0 0 0 0 127 0" result="hardAlpha"/>
<feMorphology radius="1" operator="erode" in="SourceAlpha" result="effect1_dropShadow_1947_6759"/>
<feOffset dy="4"/>
<feGaussianBlur stdDeviation="3"/>
<feComposite in2="hardAlpha" operator="out"/>
<feColorMatrix type="matrix" values="0 0 0 0 0.027451 0 0 0 0 0.0392157 0 0 0 0 0.105882 0 0 0 0.05 0"/>
<feBlend mode="normal" in2="BackgroundImageFix" result="effect1_dropShadow_1947_6759"/>
<feColorMatrix in="SourceAlpha" type="matrix" values="0 0 0 0 0 0 0 0 0 0 0 0 0 0 0 0 0 0 127 0" result="hardAlpha"/>
<feMorphology radius="2" operator="erode" in="SourceAlpha" result="effect2_dropShadow_1947_6759"/>
<feOffset dy="2"/>
<feGaussianBlur stdDeviation="2"/>
<feComposite in2="hardAlpha" operator="out"/>
<feColorMatrix type="matrix" values="0 0 0 0 0.027451 0 0 0 0 0.0392157 0 0 0 0 0.105882 0 0 0 0.05 0"/>
<feBlend mode="normal" in2="effect1_dropShadow_1947_6759" result="effect2_dropShadow_1947_6759"/>
<feBlend mode="normal" in="SourceGraphic" in2="effect2_dropShadow_1947_6759" result="shape"/>
<feColorMatrix in="SourceAlpha" type="matrix" values="0 0 0 0 0 0 0 0 0 0 0 0 0 0 0 0 0 0 127 0" result="hardAlpha"/>
<feMorphology radius="1" operator="erode" in="SourceAlpha" result="effect3_innerShadow_1947_6759"/>
<feOffset/>
<feComposite in2="hardAlpha" operator="arithmetic" k2="-1" k3="1"/>
<feColorMatrix type="matrix" values="0 0 0 0 0.32549 0 0 0 0 0.513726 0 0 0 0 1 0 0 0 0.2 0"/>
<feBlend mode="normal" in2="shape" result="effect3_innerShadow_1947_6759"/>
</filter>
<radialGradient id="paint0_radial_1947_6759" cx="0" cy="0" r="1" gradientUnits="userSpaceOnUse" gradientTransform="translate(5 1) rotate(45) scale(147.078)">
<stop stop-color="#5383FF"/>
<stop offset="0.973958" stop-color="#5383FF" stop-opacity="0.1"/>
</radialGradient>
<radialGradient id="paint1_radial_1947_6759" cx="0" cy="0" r="1" gradientUnits="userSpaceOnUse" gradientTransform="translate(36.5 30) rotate(43.7267) scale(170.815 230.998)">
<stop stop-color="#E0E7FF" stop-opacity="0"/>
<stop offset="1" stop-color="#E0E7FF"/>
</radialGradient>
<clipPath id="clip0_1947_6759">
<rect x="5" y="1" width="104" height="104" rx="52" fill="white"/>
</clipPath>
</defs>
</svg>
