<svg width="114" height="115" viewBox="0 0 114 115" fill="none" xmlns="http://www.w3.org/2000/svg">
<g filter="url(#filter0_ddi_1955_3821)">
<g clip-path="url(#clip0_1955_3821)">
<rect x="5" y="1.5" width="104" height="104" rx="52" fill="white"/>
<rect x="5" y="1.5" width="104" height="104" rx="52" fill="url(#paint0_radial_1955_3821)"/>
<path opacity="0.7" d="M89.5781 53.5H57M89.5781 53.5H109.125M89.5781 53.5V32.8672M89.5781 53.5H143.875M89.5781 53.5V86.0781M89.5781 53.5H196M57 53.5V20.9219M57 53.5H24.4219M57 53.5V86.0781M196 53.5H109.125M196 53.5V-33.375M196 53.5H143.875M196 53.5V192.5H143.875M57 20.9219V-33.375M57 20.9219H89.5781M57 20.9219V1.375M57 20.9219H36.3672M57 20.9219V-85.5M109.125 53.5V32.8672M196 -33.375V-85.5H57M196 -33.375H109.125M57 -85.5V-33.375M57 -85.5V1.375M57 -85.5H-29.875M57 -33.375H109.125M109.125 -33.375V20.9219M109.125 20.9219H97.1797M109.125 20.9219V32.8672M89.5781 20.9219H97.1797M89.5781 20.9219V32.8672M97.1797 20.9219V32.8672M97.1797 32.8672H89.5781M97.1797 32.8672H109.125M24.4219 53.5H-29.875M24.4219 53.5V20.9219M24.4219 53.5H4.875M24.4219 53.5V74.1328M24.4219 53.5H-82M57 1.375H36.3672M-29.875 -85.5H-82V53.5M-29.875 -85.5V1.375M-82 53.5H-29.875M-82 53.5H4.875M-82 53.5V140.375M-29.875 53.5V1.375M-29.875 1.375H24.4219M24.4219 1.375V13.3203M24.4219 1.375H36.3672M24.4219 20.9219V13.3203M24.4219 20.9219H36.3672M24.4219 13.3203H36.3672M36.3672 13.3203V20.9219M36.3672 13.3203V1.375M57 86.0781V105.625M57 86.0781H77.6328M57 86.0781V140.375M57 86.0781H24.4219M57 86.0781V192.5M57 192.5V105.625M57 192.5H143.875M57 192.5V140.375M57 192.5H-82V140.375M57 105.625H77.6328M143.875 192.5V105.625M143.875 53.5V105.625M143.875 105.625H89.5781M89.5781 105.625V93.6797M89.5781 105.625H77.6328M89.5781 86.0781V93.6797M89.5781 86.0781H77.6328M89.5781 93.6797H77.6328M77.6328 93.6797V86.0781M77.6328 93.6797V105.625M4.875 53.5V74.1328M-82 140.375H4.875M57 140.375H4.875M4.875 140.375V86.0781M4.875 86.0781H16.8203M4.875 86.0781V74.1328M24.4219 86.0781H16.8203M24.4219 86.0781V74.1328M16.8203 86.0781V74.1328M16.8203 74.1328H24.4219M16.8203 74.1328H4.875" stroke="url(#paint1_radial_1955_3821)" stroke-width="1.31132"/>
<path fill-rule="evenodd" clip-rule="evenodd" d="M38.4189 33.1509C36.7937 33.1509 35.4762 34.4684 35.4762 36.0936V45.5103C35.4762 47.1355 36.7937 48.453 38.4189 48.453H47.8355C49.4608 48.453 50.7783 47.1355 50.7783 45.5103V36.0936C50.7783 34.4684 49.4608 33.1509 47.8355 33.1509H38.4189ZM31.9449 36.0936C31.9449 32.5181 34.8434 29.6196 38.4189 29.6196H47.8355C51.411 29.6196 54.3095 32.5181 54.3095 36.0936V45.5103C54.3095 49.0857 51.411 51.9842 47.8355 51.9842H38.4189C34.8434 51.9842 31.9449 49.0857 31.9449 45.5103V36.0936ZM43.0893 59.0467C38.8936 59.0533 35.4738 62.4714 35.4738 66.6978C35.4738 66.8206 35.4613 66.9405 35.4374 67.0562C35.6492 71.0916 38.9854 74.3023 43.0818 74.3229C47.3027 74.3208 50.7224 70.9077 50.7523 66.7098C50.665 62.4898 47.2722 59.1105 43.0893 59.0467ZM31.9536 66.1976C31.9157 66.3415 31.8955 66.4925 31.8955 66.6483C31.8955 72.8277 36.8998 77.8262 43.0698 77.8542L43.0778 77.8542C49.2537 77.8542 54.2557 72.8557 54.2836 66.7058L54.2833 66.6657C54.172 60.5408 49.2416 55.5994 43.1255 55.5157L43.1013 55.5155C37.1113 55.5155 32.215 60.2547 31.9536 66.1976Z" fill="#5383FF"/>
<path d="M39.5193 38.1504C39.5193 37.2266 40.2682 36.4777 41.192 36.4777H44.9834C45.9072 36.4777 46.6561 37.2266 46.6561 38.1504V43.8376C46.6561 44.7614 45.9072 45.5103 44.9834 45.5103C44.0596 45.5103 43.3107 44.7614 43.3107 43.8376V39.8231H41.192C40.2682 39.8231 39.5193 39.0742 39.5193 38.1504Z" fill="#5383FF"/>
<path fill-rule="evenodd" clip-rule="evenodd" d="M67.3716 32.7859C69.0774 30.0567 73.0522 30.0567 74.758 32.786L81.8566 44.1437C83.6696 47.0445 81.5841 50.8071 78.1634 50.8071H63.9662C60.5455 50.8071 58.46 47.0445 60.273 44.1437L67.3716 32.7859ZM71.7635 34.6575C71.4408 34.1412 70.6888 34.1412 70.3661 34.6575L63.2675 46.0152C62.9245 46.564 63.3191 47.2759 63.9662 47.2759H78.1634C78.8106 47.2759 79.2051 46.564 78.8621 46.0152L71.7635 34.6575ZM68.6869 54.9756C70.1583 54.126 71.9713 54.126 73.4427 54.9756L79.8692 58.6859C81.3406 59.5354 82.2471 61.1055 82.2471 62.8045V70.2252C82.2471 71.9243 81.3406 73.4943 79.8692 74.3439L73.4427 78.0542C71.9713 78.9037 70.1583 78.9037 68.6869 78.0542L62.2604 74.3439C60.789 73.4943 59.8825 71.9243 59.8825 70.2252V62.8045C59.8825 61.1055 60.789 59.5354 62.2604 58.6859L68.6869 54.9756ZM71.6771 58.0337C71.2982 57.815 70.8314 57.815 70.4525 58.0337L64.026 61.744C63.6472 61.9628 63.4138 62.367 63.4138 62.8045V70.2252C63.4138 70.6627 63.6472 71.067 64.026 71.2857L70.4525 74.996C70.8314 75.2148 71.2982 75.2148 71.6771 74.996L78.1036 71.2857C78.4824 71.067 78.7158 70.6627 78.7158 70.2252V62.8045C78.7158 62.367 78.4824 61.9628 78.1036 61.744L71.6771 58.0337Z" fill="#5383FF"/>
</g>
</g>
<defs>
<filter id="filter0_ddi_1955_3821" x="0" y="0.5" width="114" height="114" filterUnits="userSpaceOnUse" color-interpolation-filters="sRGB">
<feFlood flood-opacity="0" result="BackgroundImageFix"/>
<feColorMatrix in="SourceAlpha" type="matrix" values="0 0 0 0 0 0 0 0 0 0 0 0 0 0 0 0 0 0 127 0" result="hardAlpha"/>
<feMorphology radius="1" operator="erode" in="SourceAlpha" result="effect1_dropShadow_1955_3821"/>
<feOffset dy="4"/>
<feGaussianBlur stdDeviation="3"/>
<feComposite in2="hardAlpha" operator="out"/>
<feColorMatrix type="matrix" values="0 0 0 0 0.027451 0 0 0 0 0.0392157 0 0 0 0 0.105882 0 0 0 0.05 0"/>
<feBlend mode="normal" in2="BackgroundImageFix" result="effect1_dropShadow_1955_3821"/>
<feColorMatrix in="SourceAlpha" type="matrix" values="0 0 0 0 0 0 0 0 0 0 0 0 0 0 0 0 0 0 127 0" result="hardAlpha"/>
<feMorphology radius="2" operator="erode" in="SourceAlpha" result="effect2_dropShadow_1955_3821"/>
<feOffset dy="2"/>
<feGaussianBlur stdDeviation="2"/>
<feComposite in2="hardAlpha" operator="out"/>
<feColorMatrix type="matrix" values="0 0 0 0 0.027451 0 0 0 0 0.0392157 0 0 0 0 0.105882 0 0 0 0.05 0"/>
<feBlend mode="normal" in2="effect1_dropShadow_1955_3821" result="effect2_dropShadow_1955_3821"/>
<feBlend mode="normal" in="SourceGraphic" in2="effect2_dropShadow_1955_3821" result="shape"/>
<feColorMatrix in="SourceAlpha" type="matrix" values="0 0 0 0 0 0 0 0 0 0 0 0 0 0 0 0 0 0 127 0" result="hardAlpha"/>
<feMorphology radius="1" operator="erode" in="SourceAlpha" result="effect3_innerShadow_1955_3821"/>
<feOffset/>
<feComposite in2="hardAlpha" operator="arithmetic" k2="-1" k3="1"/>
<feColorMatrix type="matrix" values="0 0 0 0 0.764706 0 0 0 0 0.831373 0 0 0 0 1 0 0 0 1 0"/>
<feBlend mode="normal" in2="shape" result="effect3_innerShadow_1955_3821"/>
</filter>
<radialGradient id="paint0_radial_1955_3821" cx="0" cy="0" r="1" gradientUnits="userSpaceOnUse" gradientTransform="translate(5 1.5) rotate(45) scale(147.078)">
<stop stop-color="#5383FF" stop-opacity="0"/>
<stop offset="1" stop-color="#5383FF" stop-opacity="0.1"/>
</radialGradient>
<radialGradient id="paint1_radial_1955_3821" cx="0" cy="0" r="1" gradientUnits="userSpaceOnUse" gradientTransform="translate(36.5 30.5) rotate(43.7267) scale(170.815 230.998)">
<stop stop-color="#E0E7FF" stop-opacity="0"/>
<stop offset="1" stop-color="#E0E7FF"/>
</radialGradient>
<clipPath id="clip0_1955_3821">
<rect x="5" y="1.5" width="104" height="104" rx="52" fill="white"/>
</clipPath>
</defs>
</svg>
