<svg width="48" height="48" viewBox="0 0 48 48" fill="none" xmlns="http://www.w3.org/2000/svg">
  <rect width="48" height="48" rx="24" fill="#5383FF" fill-opacity="0.15"/>
  <rect x="0.5" y="0.5" width="47" height="47" rx="23.5" stroke="#5383FF" stroke-opacity="0.15"/>
  <path fill-rule="evenodd" clip-rule="evenodd" d="M18.797 15.5223C20.1638 15.0352 22.0031 14.75 24 14.75C25.9921 14.75 27.8312 15.0352 29.199 15.5222C29.8797 15.7645 30.4843 16.071 30.933 16.45C31.3788 16.8264 31.75 17.347 31.75 18V30C31.75 30.652 31.3771 31.1713 30.9325 31.5462C30.4843 31.9242 29.8802 32.2309 29.1997 32.4738C27.832 32.9621 25.9929 33.25 24 33.25C22.0023 33.25 20.163 32.9621 18.7964 32.4738C18.1163 32.2307 17.513 31.9239 17.0654 31.5457C16.6213 31.1704 16.25 30.6511 16.25 30V18C16.25 17.3479 16.6197 16.8274 17.065 16.4505C17.513 16.0713 18.1168 15.7647 18.797 15.5223ZM17.75 20.0097V22C17.75 22.0389 17.7699 22.1771 18.0336 22.4C18.2939 22.6199 18.7149 22.8518 19.3011 23.0612C20.467 23.4779 22.1277 23.75 24 23.75C25.8671 23.75 27.528 23.4779 28.6953 23.0612C29.2823 22.8516 29.7045 22.6196 29.9656 22.3994C30.2304 22.1762 30.25 22.038 30.25 22V20.0083C29.9326 20.184 29.5779 20.3388 29.1997 20.4738C27.832 20.9621 25.9929 21.25 24 21.25C22.0023 21.25 20.163 20.9621 18.7964 20.4738C18.4195 20.3391 18.0663 20.1848 17.75 20.0097ZM30.25 24.0083C29.9326 24.184 29.5779 24.3388 29.1997 24.4738C27.832 24.9621 25.9929 25.25 24 25.25C22.0023 25.25 20.163 24.9621 18.7964 24.4738C18.4195 24.3391 18.0663 24.1848 17.75 24.0097V26C17.75 26.0389 17.7699 26.1771 18.0336 26.4C18.2939 26.6199 18.7149 26.8518 19.3011 27.0612C20.467 27.4779 22.1277 27.75 24 27.75C25.8671 27.75 27.528 27.4779 28.6953 27.0612C29.2823 26.8516 29.7045 26.6196 29.9656 26.3994C30.2304 26.1762 30.25 26.038 30.25 26V24.0083ZM30.25 28.0083C29.9326 28.184 29.5779 28.3388 29.1997 28.4738C27.832 28.9621 25.9929 29.25 24 29.25C22.0023 29.25 20.163 28.9621 18.7964 28.4738C18.4195 28.3391 18.0663 28.1848 17.75 28.0097V30C17.75 30.0389 17.7699 30.1771 18.0336 30.4C18.2939 30.6199 18.7149 30.8518 19.3011 31.0612C20.467 31.4779 22.1277 31.75 24 31.75C25.8671 31.75 27.528 31.4779 28.6953 31.0612C29.2823 30.8516 29.7045 30.6196 29.9656 30.3994C30.2304 30.1762 30.25 30.038 30.25 30V28.0083ZM17.75 18C17.75 18.0389 17.7699 18.1771 18.0336 18.4C18.2939 18.6199 18.7149 18.8518 19.3011 19.0612C20.467 19.4779 22.1277 19.75 24 19.75C25.8671 19.75 27.528 19.4779 28.6953 19.0612C29.2823 18.8516 29.7045 18.6196 29.9656 18.3994C30.2304 18.1762 30.25 18.038 30.25 18C30.25 17.958 30.2287 17.8186 29.9652 17.596C29.7045 17.3758 29.2828 17.1442 28.696 16.9353C27.5288 16.5198 25.8679 16.25 24 16.25C22.1269 16.25 20.4662 16.5198 19.3005 16.9352C18.7145 17.1441 18.2939 17.3756 18.0341 17.5955C17.7716 17.8176 17.75 17.9571 17.75 18Z" fill="#5383FF"/>
</svg>
