<svg width="114" height="115" viewBox="0 0 114 115" fill="none" xmlns="http://www.w3.org/2000/svg">
  <g filter="url(#filter0_ddi_4382_10088)">
    <g clip-path="url(#clip0_4382_10088)">
      <rect x="5" y="1.5" width="104" height="104" rx="52" fill="white"/>
      <rect x="5" y="1.5" width="104" height="104" rx="52" fill="url(#paint0_radial_4382_10088)"/>
      <path opacity="0.7" d="M89.5781 53.5H57M89.5781 53.5H109.125M89.5781 53.5V32.8672M89.5781 53.5H143.875M89.5781 53.5V86.0781M89.5781 53.5H196M57 53.5V20.9219M57 53.5H24.4219M57 53.5V86.0781M196 53.5H109.125M196 53.5V-33.375M196 53.5H143.875M196 53.5V192.5H143.875M57 20.9219V-33.375M57 20.9219H89.5781M57 20.9219V1.375M57 20.9219H36.3672M57 20.9219V-85.5M109.125 53.5V32.8672M196 -33.375V-85.5H57M196 -33.375H109.125M57 -85.5V-33.375M57 -85.5V1.375M57 -85.5H-29.875M57 -33.375H109.125M109.125 -33.375V20.9219M109.125 20.9219H97.1797M109.125 20.9219V32.8672M89.5781 20.9219H97.1797M89.5781 20.9219V32.8672M97.1797 20.9219V32.8672M97.1797 32.8672H89.5781M97.1797 32.8672H109.125M24.4219 53.5H-29.875M24.4219 53.5V20.9219M24.4219 53.5H4.875M24.4219 53.5V74.1328M24.4219 53.5H-82M57 1.375H36.3672M-29.875 -85.5H-82V53.5M-29.875 -85.5V1.375M-82 53.5H-29.875M-82 53.5H4.875M-82 53.5V140.375M-29.875 53.5V1.375M-29.875 1.375H24.4219M24.4219 1.375V13.3203M24.4219 1.375H36.3672M24.4219 20.9219V13.3203M24.4219 20.9219H36.3672M24.4219 13.3203H36.3672M36.3672 13.3203V20.9219M36.3672 13.3203V1.375M57 86.0781V105.625M57 86.0781H77.6328M57 86.0781V140.375M57 86.0781H24.4219M57 86.0781V192.5M57 192.5V105.625M57 192.5H143.875M57 192.5V140.375M57 192.5H-82V140.375M57 105.625H77.6328M143.875 192.5V105.625M143.875 53.5V105.625M143.875 105.625H89.5781M89.5781 105.625V93.6797M89.5781 105.625H77.6328M89.5781 86.0781V93.6797M89.5781 86.0781H77.6328M89.5781 93.6797H77.6328M77.6328 93.6797V86.0781M77.6328 93.6797V105.625M4.875 53.5V74.1328M-82 140.375H4.875M57 140.375H4.875M4.875 140.375V86.0781M4.875 86.0781H16.8203M4.875 86.0781V74.1328M24.4219 86.0781H16.8203M24.4219 86.0781V74.1328M16.8203 86.0781V74.1328M16.8203 74.1328H24.4219M16.8203 74.1328H4.875" stroke="url(#paint1_radial_4382_10088)" stroke-width="1.31132"/>
      <path d="M51.3299 60.5H45.3333" stroke="#5383FF" stroke-width="3.5" stroke-linecap="round" stroke-linejoin="round"/>
      <path d="M61.6666 53.5H45.3333" stroke="#5383FF" stroke-width="3.5" stroke-linecap="round" stroke-linejoin="round"/>
      <path d="M78 53.4998V44.1665M61.6667 69.8332H43C39.134 69.8332 36 66.6992 36 62.8332V44.1665M78 44.1665C78 40.3005 74.866 37.1665 71 37.1665H43C39.134 37.1665 36 40.3005 36 44.1665M78 44.1665L36 44.1665" stroke="#5383FF" stroke-width="3.5" stroke-linecap="round" stroke-linejoin="round"/>
      <path d="M73.3334 60.5V69.8333M68.6667 65.1667H78.0001" stroke="#5383FF" stroke-width="3.5" stroke-linecap="round" stroke-linejoin="round"/>
    </g>
  </g>
  <defs>
    <filter id="filter0_ddi_4382_10088" x="0" y="0.5" width="114" height="114" filterUnits="userSpaceOnUse" color-interpolation-filters="sRGB">
      <feFlood flood-opacity="0" result="BackgroundImageFix"/>
      <feColorMatrix in="SourceAlpha" type="matrix" values="0 0 0 0 0 0 0 0 0 0 0 0 0 0 0 0 0 0 127 0" result="hardAlpha"/>
      <feMorphology radius="1" operator="erode" in="SourceAlpha" result="effect1_dropShadow_4382_10088"/>
      <feOffset dy="4"/>
      <feGaussianBlur stdDeviation="3"/>
      <feComposite in2="hardAlpha" operator="out"/>
      <feColorMatrix type="matrix" values="0 0 0 0 0.027451 0 0 0 0 0.0392157 0 0 0 0 0.105882 0 0 0 0.05 0"/>
      <feBlend mode="normal" in2="BackgroundImageFix" result="effect1_dropShadow_4382_10088"/>
      <feColorMatrix in="SourceAlpha" type="matrix" values="0 0 0 0 0 0 0 0 0 0 0 0 0 0 0 0 0 0 127 0" result="hardAlpha"/>
      <feMorphology radius="2" operator="erode" in="SourceAlpha" result="effect2_dropShadow_4382_10088"/>
      <feOffset dy="2"/>
      <feGaussianBlur stdDeviation="2"/>
      <feComposite in2="hardAlpha" operator="out"/>
      <feColorMatrix type="matrix" values="0 0 0 0 0.027451 0 0 0 0 0.0392157 0 0 0 0 0.105882 0 0 0 0.05 0"/>
      <feBlend mode="normal" in2="effect1_dropShadow_4382_10088" result="effect2_dropShadow_4382_10088"/>
      <feBlend mode="normal" in="SourceGraphic" in2="effect2_dropShadow_4382_10088" result="shape"/>
      <feColorMatrix in="SourceAlpha" type="matrix" values="0 0 0 0 0 0 0 0 0 0 0 0 0 0 0 0 0 0 127 0" result="hardAlpha"/>
      <feMorphology radius="1" operator="erode" in="SourceAlpha" result="effect3_innerShadow_4382_10088"/>
      <feOffset/>
      <feComposite in2="hardAlpha" operator="arithmetic" k2="-1" k3="1"/>
      <feColorMatrix type="matrix" values="0 0 0 0 0.764706 0 0 0 0 0.831373 0 0 0 0 1 0 0 0 1 0"/>
      <feBlend mode="normal" in2="shape" result="effect3_innerShadow_4382_10088"/>
    </filter>
    <radialGradient id="paint0_radial_4382_10088" cx="0" cy="0" r="1" gradientUnits="userSpaceOnUse" gradientTransform="translate(5 1.5) rotate(45) scale(147.078)">
      <stop stop-color="#5383FF" stop-opacity="0"/>
      <stop offset="1" stop-color="#5383FF" stop-opacity="0.1"/>
    </radialGradient>
    <radialGradient id="paint1_radial_4382_10088" cx="0" cy="0" r="1" gradientUnits="userSpaceOnUse" gradientTransform="translate(36.5 30.5) rotate(43.7267) scale(170.815 230.998)">
      <stop stop-color="#E0E7FF" stop-opacity="0"/>
      <stop offset="1" stop-color="#E0E7FF"/>
    </radialGradient>
    <clipPath id="clip0_4382_10088">
      <rect x="5" y="1.5" width="104" height="104" rx="52" fill="white"/>
    </clipPath>
  </defs>
</svg>
