<svg width="48" height="48" viewBox="0 0 48 48" fill="none" xmlns="http://www.w3.org/2000/svg">
  <rect width="48" height="48" rx="24" fill="#5383FF" fill-opacity="0.15"/>
  <path fill-rule="evenodd" clip-rule="evenodd" d="M18 16.75C16.7542 16.75 15.75 17.7542 15.75 19V19.25H32.25V19C32.25 17.7558 31.2374 16.75 30 16.75H18ZM33.75 19C33.75 16.9242 32.0626 15.25 30 15.25H18C15.9258 15.25 14.25 16.9258 14.25 19V27C14.25 29.0626 15.9242 30.75 18 30.75H22C22.4142 30.75 22.75 30.4142 22.75 30C22.75 29.5858 22.4142 29.25 22 29.25H18C16.7558 29.25 15.75 28.2374 15.75 27V20.75H32.25V24C32.25 24.4142 32.5858 24.75 33 24.75C33.4142 24.75 33.75 24.4142 33.75 24V19ZM18.25 24C18.25 23.5858 18.5858 23.25 19 23.25H21.5C21.9142 23.25 22.25 23.5858 22.25 24C22.25 24.4142 21.9142 24.75 21.5 24.75H19C18.5858 24.75 18.25 24.4142 18.25 24ZM29.5787 25.2505C29.6335 25.2445 29.6889 25.2445 29.7438 25.2506C31.6839 25.4662 33.4193 26.5964 34.4006 28.3036C34.8703 29.0286 34.865 29.9704 34.4016 30.6965C33.4204 32.3949 31.6855 33.5243 29.7481 33.7509C29.6904 33.7577 29.6321 33.7577 29.5744 33.751C27.6302 33.5249 25.8946 32.3983 24.9218 30.6991C24.4466 29.9718 24.4412 29.0272 24.9228 28.301C25.8957 26.5931 27.6318 25.4656 29.5787 25.2505ZM29.6607 26.7513C28.2117 26.9375 26.931 27.7911 26.2146 29.0639C26.2036 29.0834 26.1917 29.1024 26.179 29.1209C26.0268 29.3424 26.0219 29.6477 26.1831 29.887C26.1939 29.903 26.204 29.9195 26.2135 29.9362C26.929 31.1989 28.2095 32.0542 29.6607 32.2501C31.1015 32.0543 32.3842 31.1994 33.1104 29.933C33.1176 29.9204 33.1251 29.908 33.133 29.8959C33.292 29.6525 33.2873 29.3375 33.137 29.112C33.1272 29.0974 33.118 29.0824 33.1093 29.0672C32.3822 27.7906 31.0993 26.9374 29.6607 26.7513ZM30.3748 28.9299C30.6801 29.3096 30.6071 29.8336 30.2963 30.1443C30.2828 30.1579 30.2687 30.171 30.2541 30.1834C29.8959 30.4905 29.3514 30.4901 28.9957 30.1343C28.6398 29.7785 28.6329 29.2188 28.9749 28.8551C29.3469 28.4446 29.9161 28.5034 30.2441 28.7846C30.295 28.8282 30.3386 28.8771 30.3748 28.9299Z" fill="#5383FF"/>
  <rect x="0.5" y="0.5" width="47" height="47" rx="23.5" stroke="#5383FF" stroke-opacity="0.15"/>
</svg>
