<svg width="48" height="48" viewBox="0 0 48 48" fill="none" xmlns="http://www.w3.org/2000/svg">
  <rect width="48" height="48" rx="24" fill="#5383FF" fill-opacity="0.15"/>
  <path fill-rule="evenodd" clip-rule="evenodd" d="M14.25 17C14.25 15.4758 15.4758 14.25 17 14.25H19.5C19.9142 14.25 20.25 14.5858 20.25 15C20.25 15.4142 19.9142 15.75 19.5 15.75H17C16.3042 15.75 15.75 16.3042 15.75 17V19.5C15.75 19.9142 15.4142 20.25 15 20.25C14.5858 20.25 14.25 19.9142 14.25 19.5V17ZM27.75 15C27.75 14.5858 28.0858 14.25 28.5 14.25H31C32.513 14.25 33.75 15.4796 33.75 17V19.5C33.75 19.9142 33.4142 20.25 33 20.25C32.5858 20.25 32.25 19.9142 32.25 19.5V17C32.25 16.3104 31.687 15.75 31 15.75H28.5C28.0858 15.75 27.75 15.4142 27.75 15ZM20 20.07C19.3042 20.07 18.75 20.6242 18.75 21.32V21.75H29.25V21.32C29.25 20.6267 28.6882 20.07 28 20.07H20ZM30.75 21.32C30.75 19.7933 29.5118 18.57 28 18.57H20C18.4758 18.57 17.25 19.7958 17.25 21.32V26.667C17.25 28.1788 18.4733 29.417 20 29.417H28C28.0582 29.417 28.1148 29.4104 28.1692 29.3978C29.6052 29.3099 30.75 28.1104 30.75 26.653V21.32ZM29.25 23.25H18.75V26.667C18.75 27.3552 19.3067 27.917 20 27.917H27.855C27.9019 27.9078 27.9504 27.903 28 27.903C28.6858 27.903 29.25 27.3388 29.25 26.653V23.25ZM20.25 25.5C20.25 25.0858 20.5858 24.75 21 24.75H23C23.4142 24.75 23.75 25.0858 23.75 25.5C23.75 25.9142 23.4142 26.25 23 26.25H21C20.5858 26.25 20.25 25.9142 20.25 25.5ZM15 27.75C15.4142 27.75 15.75 28.0858 15.75 28.5V31C15.75 31.687 16.3104 32.25 17 32.25H19.5C19.9142 32.25 20.25 32.5858 20.25 33C20.25 33.4142 19.9142 33.75 19.5 33.75H17C15.4796 33.75 14.25 32.513 14.25 31V28.5C14.25 28.0858 14.5858 27.75 15 27.75ZM33 27.75C33.4142 27.75 33.75 28.0858 33.75 28.5V31C33.75 32.5142 32.5142 33.75 31 33.75H28.5C28.0858 33.75 27.75 33.4142 27.75 33C27.75 32.5858 28.0858 32.25 28.5 32.25H31C31.6858 32.25 32.25 31.6858 32.25 31V28.5C32.25 28.0858 32.5858 27.75 33 27.75Z" fill="#5383FF"/>
  <rect x="0.5" y="0.5" width="47" height="47" rx="23.5" stroke="#5383FF" stroke-opacity="0.15"/>
</svg>
