<svg width="48" height="48" viewBox="0 0 48 48" fill="none" xmlns="http://www.w3.org/2000/svg">
  <rect width="48" height="48" rx="24" fill="#5383FF" fill-opacity="0.15"/>
  <path fill-rule="evenodd" clip-rule="evenodd" d="M18 16.75C16.7542 16.75 15.75 17.7542 15.75 19V19.25H32.25V19C32.25 17.7558 31.2374 16.75 30 16.75H18ZM33.75 19C33.75 16.9242 32.0626 15.25 30 15.25H18C15.9258 15.25 14.25 16.9258 14.25 19V27C14.25 29.0626 15.9242 30.75 18 30.75H24C24.4142 30.75 24.75 30.4142 24.75 30C24.75 29.5858 24.4142 29.25 24 29.25H18C16.7558 29.25 15.75 28.2374 15.75 27V20.75H32.25V26C32.25 26.4142 32.5858 26.75 33 26.75C33.4142 26.75 33.75 26.4142 33.75 26V19ZM18.25 24C18.25 23.5858 18.5858 23.25 19 23.25H21C21.4142 23.25 21.75 23.5858 21.75 24C21.75 24.4142 21.4142 24.75 21 24.75H19C18.5858 24.75 18.25 24.4142 18.25 24ZM30.5 28.25C30.9142 28.25 31.25 28.5858 31.25 29V30.25H32.5C32.9142 30.25 33.25 30.5858 33.25 31C33.25 31.4142 32.9142 31.75 32.5 31.75H31.25V33C31.25 33.4142 30.9142 33.75 30.5 33.75C30.0858 33.75 29.75 33.4142 29.75 33V31.75H28.5C28.0858 31.75 27.75 31.4142 27.75 31C27.75 30.5858 28.0858 30.25 28.5 30.25H29.75V29C29.75 28.5858 30.0858 28.25 30.5 28.25Z" fill="#5383FF"/>
  <rect x="0.5" y="0.5" width="47" height="47" rx="23.5" stroke="#5383FF" stroke-opacity="0.15"/>
</svg>
