<svg width="114" height="114" viewBox="0 0 114 114" fill="none" xmlns="http://www.w3.org/2000/svg">
  <g filter="url(#filter0_ddi_1576_19492)">
    <g clip-path="url(#clip0_1576_19492)">
      <rect x="5" y="1" width="104" height="104" rx="52" fill="#1E2237"/>
      <rect x="5" y="1" width="104" height="104" rx="52" fill="url(#paint0_radial_1576_19492)" fill-opacity="0.3"/>
      <path opacity="0.1" d="M89.5781 53H57M89.5781 53H109.125M89.5781 53V32.3672M89.5781 53H143.875M89.5781 53V85.5781M89.5781 53H196M57 53V20.4219M57 53H24.4219M57 53V85.5781M196 53H109.125M196 53V-33.875M196 53H143.875M196 53V192H143.875M57 20.4219V-33.875M57 20.4219H89.5781M57 20.4219V0.875M57 20.4219H36.3672M57 20.4219V-86M109.125 53V32.3672M196 -33.875V-86H57M196 -33.875H109.125M57 -86V-33.875M57 -86V0.875M57 -86H-29.875M57 -33.875H109.125M109.125 -33.875V20.4219M109.125 20.4219H97.1797M109.125 20.4219V32.3672M89.5781 20.4219H97.1797M89.5781 20.4219V32.3672M97.1797 20.4219V32.3672M97.1797 32.3672H89.5781M97.1797 32.3672H109.125M24.4219 53H-29.875M24.4219 53V20.4219M24.4219 53H4.875M24.4219 53V73.6328M24.4219 53H-82M57 0.875H36.3672M-29.875 -86H-82V53M-29.875 -86V0.875M-82 53H-29.875M-82 53H4.875M-82 53V139.875M-29.875 53V0.875M-29.875 0.875H24.4219M24.4219 0.875V12.8203M24.4219 0.875H36.3672M24.4219 20.4219V12.8203M24.4219 20.4219H36.3672M24.4219 12.8203H36.3672M36.3672 12.8203V20.4219M36.3672 12.8203V0.875M57 85.5781V105.125M57 85.5781H77.6328M57 85.5781V139.875M57 85.5781H24.4219M57 85.5781V192M57 192V105.125M57 192H143.875M57 192V139.875M57 192H-82V139.875M57 105.125H77.6328M143.875 192V105.125M143.875 53V105.125M143.875 105.125H89.5781M89.5781 105.125V93.1797M89.5781 105.125H77.6328M89.5781 85.5781V93.1797M89.5781 85.5781H77.6328M89.5781 93.1797H77.6328M77.6328 93.1797V85.5781M77.6328 93.1797V105.125M4.875 53V73.6328M-82 139.875H4.875M57 139.875H4.875M4.875 139.875V85.5781M4.875 85.5781H16.8203M4.875 85.5781V73.6328M24.4219 85.5781H16.8203M24.4219 85.5781V73.6328M16.8203 85.5781V73.6328M16.8203 73.6328H24.4219M16.8203 73.6328H4.875" stroke="url(#paint1_radial_1576_19492)" stroke-width="1.31132"/>
      <path fill-rule="evenodd" clip-rule="evenodd" d="M43.125 38.5366C40.1993 38.5366 37.8281 40.9078 37.8281 43.8335V44.422H76.6719V43.8335C76.6719 40.9078 74.3007 38.5366 71.375 38.5366H43.125ZM80.2031 43.8335C80.2031 38.9575 76.251 35.0054 71.375 35.0054H43.125C38.249 35.0054 34.2969 38.9575 34.2969 43.8335V62.6668C34.2969 67.5428 38.249 71.495 43.125 71.495H71.375C76.251 71.495 80.2031 67.5428 80.2031 62.6668V43.8335ZM76.6719 47.9533H37.8281V62.6668C37.8281 65.5926 40.1993 67.9637 43.125 67.9637H71.375C74.3007 67.9637 76.6719 65.5926 76.6719 62.6668V47.9533ZM43.7135 55.6043C43.7135 54.6292 44.504 53.8387 45.4792 53.8387H51.5294C52.5045 53.8387 53.295 54.6292 53.295 55.6043C53.295 56.5795 52.5045 57.37 51.5294 57.37H45.4792C44.504 57.37 43.7135 56.5795 43.7135 55.6043Z" fill="#5383FF"/>
    </g>
  </g>
  <defs>
    <filter id="filter0_ddi_1576_19492" x="0" y="0" width="114" height="114" filterUnits="userSpaceOnUse" color-interpolation-filters="sRGB">
      <feFlood flood-opacity="0" result="BackgroundImageFix"/>
      <feColorMatrix in="SourceAlpha" type="matrix" values="0 0 0 0 0 0 0 0 0 0 0 0 0 0 0 0 0 0 127 0" result="hardAlpha"/>
      <feMorphology radius="1" operator="erode" in="SourceAlpha" result="effect1_dropShadow_1576_19492"/>
      <feOffset dy="4"/>
      <feGaussianBlur stdDeviation="3"/>
      <feComposite in2="hardAlpha" operator="out"/>
      <feColorMatrix type="matrix" values="0 0 0 0 0.027451 0 0 0 0 0.0392157 0 0 0 0 0.105882 0 0 0 0.05 0"/>
      <feBlend mode="normal" in2="BackgroundImageFix" result="effect1_dropShadow_1576_19492"/>
      <feColorMatrix in="SourceAlpha" type="matrix" values="0 0 0 0 0 0 0 0 0 0 0 0 0 0 0 0 0 0 127 0" result="hardAlpha"/>
      <feMorphology radius="2" operator="erode" in="SourceAlpha" result="effect2_dropShadow_1576_19492"/>
      <feOffset dy="2"/>
      <feGaussianBlur stdDeviation="2"/>
      <feComposite in2="hardAlpha" operator="out"/>
      <feColorMatrix type="matrix" values="0 0 0 0 0.027451 0 0 0 0 0.0392157 0 0 0 0 0.105882 0 0 0 0.05 0"/>
      <feBlend mode="normal" in2="effect1_dropShadow_1576_19492" result="effect2_dropShadow_1576_19492"/>
      <feBlend mode="normal" in="SourceGraphic" in2="effect2_dropShadow_1576_19492" result="shape"/>
      <feColorMatrix in="SourceAlpha" type="matrix" values="0 0 0 0 0 0 0 0 0 0 0 0 0 0 0 0 0 0 127 0" result="hardAlpha"/>
      <feMorphology radius="1" operator="erode" in="SourceAlpha" result="effect3_innerShadow_1576_19492"/>
      <feOffset/>
      <feComposite in2="hardAlpha" operator="arithmetic" k2="-1" k3="1"/>
      <feColorMatrix type="matrix" values="0 0 0 0 0.32549 0 0 0 0 0.513726 0 0 0 0 1 0 0 0 0.2 0"/>
      <feBlend mode="normal" in2="shape" result="effect3_innerShadow_1576_19492"/>
    </filter>
    <radialGradient id="paint0_radial_1576_19492" cx="0" cy="0" r="1" gradientUnits="userSpaceOnUse" gradientTransform="translate(5 1) rotate(45) scale(147.078)">
      <stop stop-color="#5383FF"/>
      <stop offset="0.973958" stop-color="#5383FF" stop-opacity="0.1"/>
    </radialGradient>
    <radialGradient id="paint1_radial_1576_19492" cx="0" cy="0" r="1" gradientUnits="userSpaceOnUse" gradientTransform="translate(36.5 30) rotate(43.7267) scale(170.815 230.998)">
      <stop stop-color="#E0E7FF" stop-opacity="0"/>
      <stop offset="1" stop-color="#E0E7FF"/>
    </radialGradient>
    <clipPath id="clip0_1576_19492">
      <rect x="5" y="1" width="104" height="104" rx="52" fill="white"/>
    </clipPath>
  </defs>
</svg>
