<svg width="114" height="114" viewBox="0 0 114 114" fill="none" xmlns="http://www.w3.org/2000/svg">
  <g filter="url(#filter0_ddi_941_18487)">
    <rect x="5" y="1" width="104" height="104" rx="52" fill="white"/>
    <rect x="5" y="1" width="104" height="104" rx="52" fill="url(#paint0_radial_941_18487)"/>
    <g opacity="0.25">
      <path d="M78 45.9998H36V62.3332C36 66.1995 39.1337 69.3332 43 69.3332H71C74.8663 69.3332 78 66.1995 78 62.3332V45.9998Z" fill="url(#paint1_linear_941_18487)"/>
      <path d="M36 45.9998H78V43.6665C78 39.8002 74.8663 36.6665 71 36.6665H43C39.1337 36.6665 36 39.8002 36 43.6665V45.9998Z" fill="url(#paint2_linear_941_18487)"/>
    </g>
    <path d="M36 62.1429C36 65.9303 39.1337 69 43 69H71C74.8663 69 78 65.9303 78 62.1429M36 62.1429V43.8571M36 62.1429V46V43.8571M36 43.8571C36 40.0697 39.1337 37 43 37H71C74.8663 37 78 40.0697 78 43.8571M78 43.8571V62.1429M78 43.8571V46V62.1429" stroke="url(#paint3_linear_941_18487)" stroke-width="2.5" stroke-linecap="round" stroke-linejoin="round"/>
    <path d="M48.9967 61H43" stroke="#5383FF" stroke-width="2.5" stroke-linecap="round" stroke-linejoin="round"/>
    <path d="M71 61L68 61" stroke="#5383FF" stroke-width="2.5" stroke-linecap="round" stroke-linejoin="round"/>
    <path d="M59 55H43" stroke="#5383FF" stroke-width="2.5" stroke-linecap="round" stroke-linejoin="round"/>
  </g>
  <defs>
    <filter id="filter0_ddi_941_18487" x="0" y="0" width="114" height="114" filterUnits="userSpaceOnUse" color-interpolation-filters="sRGB">
      <feFlood flood-opacity="0" result="BackgroundImageFix"/>
      <feColorMatrix in="SourceAlpha" type="matrix" values="0 0 0 0 0 0 0 0 0 0 0 0 0 0 0 0 0 0 127 0" result="hardAlpha"/>
      <feMorphology radius="1" operator="erode" in="SourceAlpha" result="effect1_dropShadow_941_18487"/>
      <feOffset dy="4"/>
      <feGaussianBlur stdDeviation="3"/>
      <feComposite in2="hardAlpha" operator="out"/>
      <feColorMatrix type="matrix" values="0 0 0 0 0.027451 0 0 0 0 0.0392157 0 0 0 0 0.105882 0 0 0 0.05 0"/>
      <feBlend mode="normal" in2="BackgroundImageFix" result="effect1_dropShadow_941_18487"/>
      <feColorMatrix in="SourceAlpha" type="matrix" values="0 0 0 0 0 0 0 0 0 0 0 0 0 0 0 0 0 0 127 0" result="hardAlpha"/>
      <feMorphology radius="2" operator="erode" in="SourceAlpha" result="effect2_dropShadow_941_18487"/>
      <feOffset dy="2"/>
      <feGaussianBlur stdDeviation="2"/>
      <feComposite in2="hardAlpha" operator="out"/>
      <feColorMatrix type="matrix" values="0 0 0 0 0.027451 0 0 0 0 0.0392157 0 0 0 0 0.105882 0 0 0 0.05 0"/>
      <feBlend mode="normal" in2="effect1_dropShadow_941_18487" result="effect2_dropShadow_941_18487"/>
      <feBlend mode="normal" in="SourceGraphic" in2="effect2_dropShadow_941_18487" result="shape"/>
      <feColorMatrix in="SourceAlpha" type="matrix" values="0 0 0 0 0 0 0 0 0 0 0 0 0 0 0 0 0 0 127 0" result="hardAlpha"/>
      <feMorphology radius="1" operator="erode" in="SourceAlpha" result="effect3_innerShadow_941_18487"/>
      <feOffset/>
      <feComposite in2="hardAlpha" operator="arithmetic" k2="-1" k3="1"/>
      <feColorMatrix type="matrix" values="0 0 0 0 0.764706 0 0 0 0 0.831373 0 0 0 0 1 0 0 0 1 0"/>
      <feBlend mode="normal" in2="shape" result="effect3_innerShadow_941_18487"/>
    </filter>
    <radialGradient id="paint0_radial_941_18487" cx="0" cy="0" r="1" gradientUnits="userSpaceOnUse" gradientTransform="translate(5 1) rotate(45) scale(147.078)">
      <stop stop-color="#5383FF" stop-opacity="0"/>
      <stop offset="1" stop-color="#5383FF" stop-opacity="0.1"/>
    </radialGradient>
    <linearGradient id="paint1_linear_941_18487" x1="78" y1="69.3332" x2="49.4356" y2="41.7889" gradientUnits="userSpaceOnUse">
      <stop stop-color="#5383FF"/>
      <stop offset="1" stop-color="#5383FF" stop-opacity="0"/>
    </linearGradient>
    <linearGradient id="paint2_linear_941_18487" x1="78" y1="69.3332" x2="49.4356" y2="41.7889" gradientUnits="userSpaceOnUse">
      <stop stop-color="#5383FF"/>
      <stop offset="1" stop-color="#5383FF" stop-opacity="0"/>
    </linearGradient>
    <linearGradient id="paint3_linear_941_18487" x1="77.7273" y1="69.5714" x2="34.9349" y2="39.4735" gradientUnits="userSpaceOnUse">
      <stop stop-color="#9AB6FF"/>
      <stop offset="1" stop-color="#CEDCFF"/>
    </linearGradient>
  </defs>
</svg>
