<svg width="48" height="48" viewBox="0 0 48 48" fill="none" xmlns="http://www.w3.org/2000/svg">
  <rect width="48" height="48" rx="24" fill="#5383FF" fill-opacity="0.15"/>
  <path fill-rule="evenodd" clip-rule="evenodd" d="M24 13.25C24.4142 13.25 24.75 13.5858 24.75 14V17.1893L25.4697 16.4697C25.7626 16.1768 26.2374 16.1768 26.5303 16.4697C26.8232 16.7626 26.8232 17.2374 26.5303 17.5303L24.5303 19.5303C24.2374 19.8232 23.7626 19.8232 23.4697 19.5303L21.4697 17.5303C21.1768 17.2374 21.1768 16.7626 21.4697 16.4697C21.7626 16.1768 22.2374 16.1768 22.5303 16.4697L23.25 17.1893V14C23.25 13.5858 23.5858 13.25 24 13.25ZM18 18.75C16.7542 18.75 15.75 19.7542 15.75 21V22.75H32.25V21C32.25 19.7558 31.2374 18.75 30 18.75H29C28.5858 18.75 28.25 18.4142 28.25 18C28.25 17.5858 28.5858 17.25 29 17.25H30C32.0626 17.25 33.75 18.9242 33.75 21V30C33.75 32.0642 32.0642 33.75 30 33.75H18C15.9242 33.75 14.25 32.0626 14.25 30V21C14.25 18.9258 15.9258 17.25 18 17.25H19C19.4142 17.25 19.75 17.5858 19.75 18C19.75 18.4142 19.4142 18.75 19 18.75H18ZM15.75 24.25V30C15.75 31.2374 16.7558 32.25 18 32.25H30C31.2358 32.25 32.25 31.2358 32.25 30V24.25H15.75ZM18.3 29.06C18.3 28.6458 18.6358 28.31 19.05 28.31H21.05C21.4642 28.31 21.8 28.6458 21.8 29.06C21.8 29.4742 21.4642 29.81 21.05 29.81H19.05C18.6358 29.81 18.3 29.4742 18.3 29.06Z" fill="#5383FF"/>
  <rect x="0.5" y="0.5" width="47" height="47" rx="23.5" stroke="#5383FF" stroke-opacity="0.15"/>
</svg>
