<svg width="48" height="48" viewBox="0 0 48 48" fill="none" xmlns="http://www.w3.org/2000/svg">
  <rect width="48" height="48" rx="24" fill="#5383FF" fill-opacity="0.15"/>
  <path fill-rule="evenodd" clip-rule="evenodd" d="M17.25 18.5C17.25 16.6958 18.6958 15.25 20.5 15.25H31.5C33.2923 15.25 34.75 16.6938 34.75 18.5V25.5C34.75 27.2942 33.2942 28.75 31.5 28.75H30.75V29.5C30.75 31.2949 29.2949 32.75 27.5 32.75H16.5C14.7051 32.75 13.25 31.2949 13.25 29.5V22.5C13.25 20.7051 14.7051 19.25 16.5 19.25H17.25V18.5ZM16.5 20.75C15.5335 20.75 14.75 21.5335 14.75 22.5V29.5C14.75 30.4665 15.5335 31.25 16.5 31.25H27.5C28.4665 31.25 29.25 30.4665 29.25 29.5V22.5C29.25 21.5335 28.4665 20.75 27.5 20.75H16.5ZM30.75 27.25V22.5C30.75 20.7051 29.2949 19.25 27.5 19.25H18.75V18.5C18.75 17.5242 19.5242 16.75 20.5 16.75H31.5C32.4677 16.75 33.25 17.5262 33.25 18.5V25.5C33.25 26.4658 32.4658 27.25 31.5 27.25H30.75ZM19.3213 25.3145C19.5721 25.4359 19.745 25.6927 19.745 25.99V26C19.745 26.4142 19.4092 26.75 18.995 26.75C18.7853 26.75 18.5958 26.664 18.4597 26.5253C18.458 26.5236 18.4563 26.522 18.4547 26.5203L18.4447 26.5103C18.1518 26.2174 18.1518 25.7426 18.4447 25.4497C18.682 25.2124 19.0387 25.1673 19.3213 25.3145ZM22.3163 25.3145C22.5671 25.4359 22.74 25.6928 22.74 25.99V26C22.74 26.4142 22.4042 26.75 21.99 26.75C21.7804 26.75 21.5908 26.664 21.4547 26.5253C21.453 26.5236 21.4513 26.522 21.4496 26.5203L21.4396 26.5103C21.1468 26.2174 21.1468 25.7425 21.4397 25.4496C21.677 25.2124 22.0337 25.1673 22.3163 25.3145ZM25.3163 25.3145C25.5671 25.4359 25.74 25.6928 25.74 25.99V26C25.74 26.4142 25.4042 26.75 24.99 26.75C24.7804 26.75 24.5908 26.664 24.4547 26.5253C24.453 26.5237 24.4513 26.522 24.4496 26.5203L24.4396 26.5103C24.1468 26.2174 24.1468 25.7425 24.4397 25.4496C24.677 25.2124 25.0337 25.1673 25.3163 25.3145Z" fill="#5383FF"/>
  <rect x="0.5" y="0.5" width="47" height="47" rx="23.5" stroke="#5383FF" stroke-opacity="0.15"/>
</svg>
