<svg width="48" height="48" viewBox="0 0 48 48" fill="none" xmlns="http://www.w3.org/2000/svg">
  <rect width="48" height="48" rx="24" fill="#5383FF" fill-opacity="0.15"/>
  <rect x="0.5" y="0.5" width="47" height="47" rx="23.5" stroke="#5383FF" stroke-opacity="0.15"/>
  <path fill-rule="evenodd" clip-rule="evenodd" d="M13.25 21C13.25 18.9289 14.9289 17.25 17 17.25H31C33.0711 17.25 34.75 18.9289 34.75 21V27C34.75 29.0711 33.0711 30.75 31 30.75H17C14.9289 30.75 13.25 29.0711 13.25 27V21ZM17 18.75C15.7574 18.75 14.75 19.7574 14.75 21V27C14.75 28.2426 15.7574 29.25 17 29.25H31C32.2426 29.25 33.25 28.2426 33.25 27V21C33.25 19.7574 32.2426 18.75 31 18.75H17Z" fill="#5383FF"/>
  <path fill-rule="evenodd" clip-rule="evenodd" d="M27.25 22.5C27.25 21.2574 28.2574 20.25 29.5 20.25H30.2154C30.6296 20.25 30.9654 20.5858 30.9654 21C30.9654 21.4142 30.6296 21.75 30.2154 21.75H29.5C29.0858 21.75 28.75 22.0858 28.75 22.5V22.6154C28.75 22.9659 29.0341 23.25 29.3846 23.25C30.5635 23.25 31.5192 24.2057 31.5192 25.3846V25.5C31.5192 26.7426 30.5119 27.75 29.2692 27.75H28C27.5858 27.75 27.25 27.4142 27.25 27C27.25 26.5858 27.5858 26.25 28 26.25H29.2692C29.6834 26.25 30.0192 25.9142 30.0192 25.5V25.3846C30.0192 25.0341 29.7351 24.75 29.3846 24.75C28.2057 24.75 27.25 23.7943 27.25 22.6154V22.5Z" fill="#5383FF"/>
  <path fill-rule="evenodd" clip-rule="evenodd" d="M23.9231 21.75C23.8275 21.75 23.75 21.8275 23.75 21.9231V26.0769C23.75 26.1725 23.8275 26.25 23.9231 26.25C24.5285 26.25 25.0192 25.7592 25.0192 25.1538V22.8462C25.0192 22.2408 24.5285 21.75 23.9231 21.75ZM22.25 21.9231C22.25 20.9991 22.9991 20.25 23.9231 20.25C25.3569 20.25 26.5192 21.4123 26.5192 22.8462V25.1538C26.5192 26.5877 25.3569 27.75 23.9231 27.75C22.9991 27.75 22.25 27.0009 22.25 26.0769V21.9231Z" fill="#5383FF"/>
  <path fill-rule="evenodd" clip-rule="evenodd" d="M16.75 21C16.75 20.5858 17.0858 20.25 17.5 20.25H19C20.2426 20.25 21.25 21.2574 21.25 22.5C21.25 23.0783 21.0318 23.6057 20.6733 24.0043C21.0322 24.4026 21.25 24.9297 21.25 25.5062C21.25 26.7454 20.2454 27.75 19.0062 27.75H17.5C17.0858 27.75 16.75 27.4142 16.75 27C16.75 26.5858 17.0858 26.25 17.5 26.25H19.0062C19.417 26.25 19.75 25.917 19.75 25.5062C19.75 25.106 19.4334 24.7776 19.0336 24.7628L18.6723 24.7495C18.2638 24.7344 17.9426 24.3949 17.9501 23.9862C17.9577 23.5774 18.2912 23.25 18.7 23.25H19C19.4142 23.25 19.75 22.9142 19.75 22.5C19.75 22.0858 19.4142 21.75 19 21.75H17.5C17.0858 21.75 16.75 21.4142 16.75 21Z" fill="#5383FF"/>
</svg>
