<svg width="48" height="48" viewBox="0 0 48 48" fill="none" xmlns="http://www.w3.org/2000/svg">
  <rect width="48" height="48" rx="24" fill="#5383FF" fill-opacity="0.15"/>
  <rect x="0.5" y="0.5" width="47" height="47" rx="23.5" stroke="#5383FF" stroke-opacity="0.15"/>
  <path fill-rule="evenodd" clip-rule="evenodd" d="M18 16.75C16.7542 16.75 15.75 17.7542 15.75 19V19.25H32.25V19C32.25 17.7558 31.2374 16.75 30 16.75H18ZM33.75 19C33.75 16.9242 32.0626 15.25 30 15.25H18C15.9258 15.25 14.25 16.9258 14.25 19V27C14.25 29.0626 15.9242 30.75 18 30.75H23C23.4142 30.75 23.75 30.4142 23.75 30C23.75 29.5858 23.4142 29.25 23 29.25H18C16.7558 29.25 15.75 28.2374 15.75 27V20.75H32.25V24C32.25 24.4142 32.5858 24.75 33 24.75C33.4142 24.75 33.75 24.4142 33.75 24V19ZM18.25 24C18.25 23.5858 18.5858 23.25 19 23.25H21C21.4142 23.25 21.75 23.5858 21.75 24C21.75 24.4142 21.4142 24.75 21 24.75H19C18.5858 24.75 18.25 24.4142 18.25 24Z" fill="#5383FF"/>
  <path fill-rule="evenodd" clip-rule="evenodd" d="M32.5303 27.4697C32.8232 27.7626 32.8232 28.2374 32.5303 28.5303L29.5303 31.5303C29.2374 31.8232 28.7626 31.8232 28.4697 31.5303L26.4697 29.5303C26.1768 29.2374 26.1768 28.7626 26.4697 28.4697C26.7626 28.1768 27.2374 28.1768 27.5303 28.4697L29 29.9393L31.4697 27.4697C31.7626 27.1768 32.2374 27.1768 32.5303 27.4697Z" fill="#5383FF"/>
</svg>
