<svg width="280" height="281" viewBox="0 0 280 281" fill="none" xmlns="http://www.w3.org/2000/svg">
<path d="M172.578 140.5H140M172.578 140.5H192.125M172.578 140.5V119.867M172.578 140.5H226.875M172.578 140.5V173.078M172.578 140.5H279M140 140.5V107.922M140 140.5H107.422M140 140.5V173.078M279 140.5H192.125M279 140.5V53.625M279 140.5H226.875M279 140.5V279.5H226.875M140 107.922V53.625M140 107.922H172.578M140 107.922V88.375M140 107.922H119.367M140 107.922V1.5M192.125 140.5V119.867M279 53.625V1.5H140M279 53.625H192.125M140 1.5V53.625M140 1.5V88.375M140 1.5H53.125M140 53.625H192.125M192.125 53.625V107.922M192.125 107.922H180.18M192.125 107.922V119.867M172.578 107.922H180.18M172.578 107.922V119.867M180.18 107.922V119.867M180.18 119.867H172.578M180.18 119.867H192.125M107.422 140.5H53.125M107.422 140.5V107.922M107.422 140.5H87.875M107.422 140.5V161.133M107.422 140.5H1M140 88.375H119.367M53.125 1.5H1V140.5M53.125 1.5V88.375M1 140.5H53.125M1 140.5H87.875M1 140.5V227.375M53.125 140.5V88.375M53.125 88.375H107.422M107.422 88.375V100.32M107.422 88.375H119.367M107.422 107.922V100.32M107.422 107.922H119.367M107.422 100.32H119.367M119.367 100.32V107.922M119.367 100.32V88.375M140 173.078V192.625M140 173.078H160.633M140 173.078V227.375M140 173.078H107.422M140 173.078V279.5M140 279.5V192.625M140 279.5H226.875M140 279.5V227.375M140 279.5H1V227.375M140 192.625H160.633M226.875 279.5V192.625M226.875 140.5V192.625M226.875 192.625H172.578M172.578 192.625V180.68M172.578 192.625H160.633M172.578 173.078V180.68M172.578 173.078H160.633M172.578 180.68H160.633M160.633 180.68V173.078M160.633 180.68V192.625M87.875 140.5V161.133M1 227.375H87.875M140 227.375H87.875M87.875 227.375V173.078M87.875 173.078H99.8203M87.875 173.078V161.133M107.422 173.078H99.8203M107.422 173.078V161.133M99.8203 173.078V161.133M99.8203 161.133H107.422M99.8203 161.133H87.875" stroke="url(#paint0_radial_401_14985)" stroke-width="1.31132"/>
<g filter="url(#filter0_ddi_401_14985)">
<g clip-path="url(#clip0_401_14985)">
<rect x="88" y="88.5" width="104" height="104" rx="52" fill="white"/>
<rect x="88" y="88.5" width="104" height="104" rx="52" fill="url(#paint1_radial_401_14985)"/>
<path opacity="0.7" d="M172.578 140.5H140M172.578 140.5H192.125M172.578 140.5V119.867M172.578 140.5H226.875M172.578 140.5V173.078M172.578 140.5H279M140 140.5V107.922M140 140.5H107.422M140 140.5V173.078M279 140.5H192.125M279 140.5V53.625M279 140.5H226.875M279 140.5V279.5H226.875M140 107.922V53.625M140 107.922H172.578M140 107.922V88.375M140 107.922H119.367M140 107.922V1.5M192.125 140.5V119.867M279 53.625V1.5H140M279 53.625H192.125M140 1.5V53.625M140 1.5V88.375M140 1.5H53.125M140 53.625H192.125M192.125 53.625V107.922M192.125 107.922H180.18M192.125 107.922V119.867M172.578 107.922H180.18M172.578 107.922V119.867M180.18 107.922V119.867M180.18 119.867H172.578M180.18 119.867H192.125M107.422 140.5H53.125M107.422 140.5V107.922M107.422 140.5H87.875M107.422 140.5V161.133M107.422 140.5H1M140 88.375H119.367M53.125 1.5H1V140.5M53.125 1.5V88.375M1 140.5H53.125M1 140.5H87.875M1 140.5V227.375M53.125 140.5V88.375M53.125 88.375H107.422M107.422 88.375V100.32M107.422 88.375H119.367M107.422 107.922V100.32M107.422 107.922H119.367M107.422 100.32H119.367M119.367 100.32V107.922M119.367 100.32V88.375M140 173.078V192.625M140 173.078H160.633M140 173.078V227.375M140 173.078H107.422M140 173.078V279.5M140 279.5V192.625M140 279.5H226.875M140 279.5V227.375M140 279.5H1V227.375M140 192.625H160.633M226.875 279.5V192.625M226.875 140.5V192.625M226.875 192.625H172.578M172.578 192.625V180.68M172.578 192.625H160.633M172.578 173.078V180.68M172.578 173.078H160.633M172.578 180.68H160.633M160.633 180.68V173.078M160.633 180.68V192.625M87.875 140.5V161.133M1 227.375H87.875M140 227.375H87.875M87.875 227.375V173.078M87.875 173.078H99.8203M87.875 173.078V161.133M107.422 173.078H99.8203M107.422 173.078V161.133M99.8203 173.078V161.133M99.8203 161.133H107.422M99.8203 161.133H87.875" stroke="url(#paint2_radial_401_14985)" stroke-width="1.31132"/>
<path fill-rule="evenodd" clip-rule="evenodd" d="M126.125 121.328C123.199 121.328 120.828 123.699 120.828 126.625V154.875C120.828 157.801 123.199 160.172 126.125 160.172H154.375C157.301 160.172 159.672 157.801 159.672 154.875V126.625C159.672 123.699 157.301 121.328 154.375 121.328H126.125ZM117.297 126.625C117.297 121.749 121.249 117.797 126.125 117.797H154.375C159.251 117.797 163.203 121.749 163.203 126.625V154.875C163.203 159.751 159.251 163.703 154.375 163.703H126.125C121.249 163.703 117.297 159.751 117.297 154.875V126.625ZM129.477 132.557C130.101 131.808 131.215 131.707 131.964 132.331L139.026 138.217C139.429 138.552 139.661 139.049 139.661 139.573C139.661 140.097 139.429 140.594 139.026 140.929L131.964 146.815C131.215 147.439 130.101 147.338 129.477 146.589C128.853 145.84 128.954 144.726 129.703 144.102L135.138 139.573L129.703 135.044C128.954 134.42 128.853 133.306 129.477 132.557ZM140.839 147.813C140.839 146.837 141.629 146.047 142.604 146.047H149.667C150.642 146.047 151.432 146.837 151.432 147.813C151.432 148.788 150.642 149.578 149.667 149.578H142.604C141.629 149.578 140.839 148.788 140.839 147.813Z" fill="#5383FF"/>
</g>
</g>
<defs>
<filter id="filter0_ddi_401_14985" x="83" y="87.5" width="114" height="114" filterUnits="userSpaceOnUse" color-interpolation-filters="sRGB">
<feFlood flood-opacity="0" result="BackgroundImageFix"/>
<feColorMatrix in="SourceAlpha" type="matrix" values="0 0 0 0 0 0 0 0 0 0 0 0 0 0 0 0 0 0 127 0" result="hardAlpha"/>
<feMorphology radius="1" operator="erode" in="SourceAlpha" result="effect1_dropShadow_401_14985"/>
<feOffset dy="4"/>
<feGaussianBlur stdDeviation="3"/>
<feComposite in2="hardAlpha" operator="out"/>
<feColorMatrix type="matrix" values="0 0 0 0 0.027451 0 0 0 0 0.0392157 0 0 0 0 0.105882 0 0 0 0.05 0"/>
<feBlend mode="normal" in2="BackgroundImageFix" result="effect1_dropShadow_401_14985"/>
<feColorMatrix in="SourceAlpha" type="matrix" values="0 0 0 0 0 0 0 0 0 0 0 0 0 0 0 0 0 0 127 0" result="hardAlpha"/>
<feMorphology radius="2" operator="erode" in="SourceAlpha" result="effect2_dropShadow_401_14985"/>
<feOffset dy="2"/>
<feGaussianBlur stdDeviation="2"/>
<feComposite in2="hardAlpha" operator="out"/>
<feColorMatrix type="matrix" values="0 0 0 0 0.027451 0 0 0 0 0.0392157 0 0 0 0 0.105882 0 0 0 0.05 0"/>
<feBlend mode="normal" in2="effect1_dropShadow_401_14985" result="effect2_dropShadow_401_14985"/>
<feBlend mode="normal" in="SourceGraphic" in2="effect2_dropShadow_401_14985" result="shape"/>
<feColorMatrix in="SourceAlpha" type="matrix" values="0 0 0 0 0 0 0 0 0 0 0 0 0 0 0 0 0 0 127 0" result="hardAlpha"/>
<feMorphology radius="1" operator="erode" in="SourceAlpha" result="effect3_innerShadow_401_14985"/>
<feOffset/>
<feComposite in2="hardAlpha" operator="arithmetic" k2="-1" k3="1"/>
<feColorMatrix type="matrix" values="0 0 0 0 0.835833 0 0 0 0 0.876996 0 0 0 0 0.983333 0 0 0 1 0"/>
<feBlend mode="normal" in2="shape" result="effect3_innerShadow_401_14985"/>
</filter>
<radialGradient id="paint0_radial_401_14985" cx="0" cy="0" r="1" gradientUnits="userSpaceOnUse" gradientTransform="translate(140 141) rotate(45) scale(63.6396 86.0615)">
<stop stop-color="#E0E7FF"/>
<stop offset="1" stop-color="#E0E7FF" stop-opacity="0"/>
</radialGradient>
<radialGradient id="paint1_radial_401_14985" cx="0" cy="0" r="1" gradientUnits="userSpaceOnUse" gradientTransform="translate(88 88.5) rotate(45) scale(147.078)">
<stop stop-color="#5383FF" stop-opacity="0"/>
<stop offset="0.973958" stop-color="#5383FF" stop-opacity="0.1"/>
</radialGradient>
<radialGradient id="paint2_radial_401_14985" cx="0" cy="0" r="1" gradientUnits="userSpaceOnUse" gradientTransform="translate(119.5 117.5) rotate(43.7267) scale(170.815 230.998)">
<stop stop-color="#E0E7FF" stop-opacity="0"/>
<stop offset="1" stop-color="#00D2EF" stop-opacity="0.52"/>
</radialGradient>
<clipPath id="clip0_401_14985">
<rect x="88" y="88.5" width="104" height="104" rx="52" fill="white"/>
</clipPath>
</defs>
</svg>
