<svg width="48" height="48" viewBox="0 0 48 48" fill="none" xmlns="http://www.w3.org/2000/svg">
  <rect width="48" height="48" rx="24" fill="url(#paint0_linear_1447_20200)"/>
  <g clip-path="url(#clip0_1447_20200)">
    <path d="M18 15C18 17.2 16.2 19 14 19C16.2 19 18 20.79 18 23C18 20.79 19.79 19 22 19C19.79 19 18 17.2 18 15Z" stroke="white" stroke-width="1.5" stroke-linecap="round" stroke-linejoin="round"/>
    <path d="M31 27C31 24.23 28.76 22 26 22C28.76 22 31 19.76 31 17C31 19.76 33.23 22 36 22C33.23 22 31 24.23 31 27Z" stroke="white" stroke-width="1.5" stroke-linecap="round" stroke-linejoin="round"/>
    <path d="M22 25.5C22 27.7 20.2 29.5 18 29.5C20.2 29.5 22 31.29 22 33.5C22 31.29 23.79 29.5 26 29.5C23.79 29.5 22 27.7 22 25.5Z" stroke="white" stroke-width="1.5" stroke-linecap="round" stroke-linejoin="round"/>
  </g>
  <rect x="0.5" y="0.5" width="47" height="47" rx="23.5" stroke="#D1D7FF" stroke-opacity="0.15"/>
  <defs>
    <linearGradient id="paint0_linear_1447_20200" x1="3.5" y1="2.5" x2="46.5" y2="48" gradientUnits="userSpaceOnUse">
      <stop stop-color="#6A13FE"/>
      <stop offset="1" stop-color="#0DB8E2"/>
    </linearGradient>
    <clipPath id="clip0_1447_20200">
      <rect width="24" height="24" fill="white" transform="translate(13 12)"/>
    </clipPath>
  </defs>
</svg>
