<svg width="89" height="30" viewBox="0 0 89 30" fill="none" xmlns="http://www.w3.org/2000/svg">
<path d="M0.0123291 1.56545C0.0123291 0.829052 0.609301 0.23208 1.3457 0.23208H25.3455C26.0819 0.23208 26.6789 0.829052 26.6789 1.56545V25.5654C26.6789 26.3018 26.0819 26.8987 25.3455 26.8987H20.3458C19.6094 26.8987 19.0124 26.3018 19.0124 25.5654V15.603C19.0124 14.5683 18.6114 13.5738 17.8936 12.8284L14.3266 9.12414C13.5726 8.34109 12.5323 7.89866 11.4452 7.89866H1.3457C0.609301 7.89866 0.0123291 7.30169 0.0123291 6.56529V1.56545Z" fill="white" style="fill:white;fill-opacity:1;"/>
<path d="M13.306 15.7534C13.5452 16.0019 13.6789 16.3334 13.6789 16.6783V25.5654C13.6789 26.3018 13.0819 26.8987 12.3455 26.8987H3.86476C3.51112 26.8987 3.17197 26.7583 2.92192 26.5082L0.402864 23.9891C0.152809 23.7391 0.0123291 23.3999 0.0123291 23.0463V14.5655C0.0123291 13.8291 0.609301 13.2322 1.3457 13.2322H10.311C10.6734 13.2322 11.0202 13.3796 11.2715 13.6407L13.306 15.7534Z" fill="white" style="fill:white;fill-opacity:1;"/>
<path d="M66.5866 0.0776009C67.1111 -0.128827 67.7818 0.0871503 68.0404 0.599914C68.3144 1.13178 68.0918 1.86126 67.5438 2.11911C67.009 2.4203 66.2546 2.18302 66.0011 1.62103C65.7146 1.06199 65.9725 0.28109 66.5866 0.0776009Z" fill="white" style="fill:white;fill-opacity:1;"/>
<path d="M36.2792 0.249501C38.1943 0.249501 40.1095 0.248767 42.0246 0.250236C43.0465 0.265663 44.0911 0.690272 44.7309 1.5057C45.3642 2.29321 45.5376 3.3731 45.3546 4.35014C45.2231 5.06273 44.8022 5.71654 44.1925 6.11323C44.8984 6.47319 45.4722 7.10129 45.7095 7.86309C46.0525 8.95841 45.8601 10.2381 45.121 11.1314C44.4459 11.9601 43.3807 12.4214 42.3207 12.4288C40.3063 12.4324 38.2928 12.4295 36.2792 12.4302C36.2799 8.36998 36.2784 4.30974 36.2792 0.249501ZM38.3596 2.15951C38.3596 3.20928 38.3596 4.25905 38.3589 5.30882C39.3851 5.30956 40.4107 5.30882 41.4369 5.30956C41.7528 5.31397 42.076 5.28605 42.3699 5.16043C43.3359 4.79753 43.5467 3.41497 42.9018 2.67374C42.5748 2.3057 42.0658 2.15437 41.586 2.15951C40.5106 2.16025 39.4343 2.15951 38.3596 2.15951ZM38.3596 7.04913C38.3589 8.20469 38.3596 9.36025 38.3596 10.5158C39.5556 10.5158 40.7523 10.5158 41.9489 10.5158C42.4103 10.5231 42.8849 10.3667 43.2176 10.0383C43.8737 9.39257 43.8905 8.20983 43.2375 7.55529C42.9062 7.20928 42.4206 7.04473 41.9475 7.04913C40.7515 7.04913 39.5556 7.04987 38.3596 7.04913Z" fill="white" style="fill:white;fill-opacity:1;"/>
<path d="M58.5242 4.26052C59.3976 3.58467 60.5686 3.46199 61.6367 3.55161C62.7945 3.66107 64.025 4.2113 64.5576 5.30295C64.1146 5.58357 63.6709 5.86273 63.2294 6.14555C62.8738 5.61002 62.2568 5.31176 61.6514 5.15823C61.0975 5.03922 60.4628 5.01791 59.9699 5.33674C59.5776 5.58357 59.5019 6.20212 59.8465 6.52168C60.2108 6.86401 60.717 6.9742 61.182 7.11305C62.0885 7.37751 63.0391 7.63242 63.784 8.24216C64.2351 8.60285 64.5627 9.1428 64.5877 9.72829C64.6288 10.4548 64.4004 11.2247 63.8524 11.7257C63.214 12.3193 62.317 12.5206 61.4707 12.5669C60.3137 12.6293 59.0839 12.3972 58.1627 11.6567C57.7888 11.3606 57.4847 10.9735 57.2995 10.5327C57.7682 10.2293 58.2355 9.92296 58.7027 9.61663C59.0318 10.269 59.715 10.6723 60.3989 10.8662C60.9712 11.0065 61.6132 11.0234 62.1546 10.7626C62.6637 10.5261 62.8018 9.73196 62.3611 9.36465C61.8909 8.96355 61.2569 8.86879 60.6861 8.6866C59.7958 8.42655 58.8481 8.13931 58.1973 7.43995C57.3613 6.55106 57.5699 4.98265 58.5242 4.26052Z" fill="white" style="fill:white;fill-opacity:1;"/>
<path d="M70.735 4.20028C71.6474 3.55455 72.8331 3.4473 73.9152 3.56851C75.0259 3.70295 76.18 4.25905 76.692 5.30295C76.2483 5.58137 75.8075 5.86493 75.3638 6.14262C74.9906 5.59679 74.3574 5.28972 73.7293 5.145C73.204 5.04216 72.6156 5.03114 72.1418 5.31029C71.7781 5.51745 71.6386 6.03757 71.8736 6.38945C72.0874 6.69652 72.4525 6.8405 72.7927 6.95804C73.6316 7.2203 74.5043 7.40836 75.286 7.82489C75.7818 8.08862 76.2512 8.45373 76.5128 8.96208C76.8081 9.52554 76.7662 10.2073 76.5811 10.7994C76.3416 11.5487 75.679 12.0945 74.9444 12.3281C73.9938 12.6308 72.9609 12.6455 71.9883 12.4434C70.9238 12.2128 69.8689 11.5722 69.4332 10.5349C69.8997 10.2278 70.3684 9.92443 70.8349 9.61736C71.0869 10.136 71.5857 10.4842 72.0984 10.7149C72.7633 10.9999 73.5508 11.0668 74.2303 10.7942C74.7791 10.5812 74.9546 9.754 74.497 9.36539C73.9754 8.9327 73.2775 8.84528 72.6538 8.63738C71.7818 8.38247 70.8562 8.06805 70.2538 7.34886C69.4803 6.41883 69.7565 4.8776 70.735 4.20028Z" fill="white" style="fill:white;fill-opacity:1;"/>
<path d="M48.1984 4.95106C48.9491 4.05777 50.1194 3.56704 51.2786 3.57953C52.3115 3.55823 53.373 3.98798 53.9982 4.83059C53.996 4.4574 53.9967 4.08421 53.9974 3.71176C54.6667 3.71176 55.3352 3.71103 56.0044 3.71176C56.0037 6.58412 56.0037 9.45648 56.0037 12.3296C55.3352 12.3296 54.6659 12.3296 53.9974 12.3296C53.9967 11.963 53.996 11.5972 53.9982 11.2306C53.5265 11.8352 52.8338 12.2576 52.0823 12.4038C50.94 12.6293 49.6933 12.3692 48.7758 11.6405C47.8656 10.9375 47.3197 9.83408 47.1831 8.70423C47.0186 7.39 47.3175 5.96924 48.1984 4.95106ZM51.023 5.52333C50.6108 5.6034 50.2156 5.78706 49.9049 6.07136C49.1497 6.75014 48.958 7.88293 49.2151 8.83352C49.3752 9.42636 49.7572 9.96631 50.2979 10.269C50.9774 10.6524 51.8325 10.687 52.5546 10.4027C53.2033 10.1411 53.6933 9.55418 53.8806 8.88495C54.1429 7.94684 53.9872 6.82655 53.2694 6.12425C52.6905 5.54757 51.8075 5.37273 51.023 5.52333Z" fill="white" style="fill:white;fill-opacity:1;"/>
<path d="M65.9989 3.71176C66.6799 3.71103 67.3616 3.71176 68.0433 3.71176C68.0367 6.58412 68.0316 9.45648 68.0235 12.3296C67.3491 12.3296 66.674 12.3296 65.9996 12.3296C65.9974 9.45648 65.9996 6.58412 65.9989 3.71176Z" fill="white" style="fill:white;fill-opacity:1;"/>
<path d="M36.3798 14.648C37.6 14.6473 38.8202 14.648 40.0404 14.6473C40.2762 14.6407 40.5135 14.7186 40.6972 14.8692C41.0094 15.1211 41.3194 15.376 41.6309 15.6295C41.9005 15.8234 42.0827 16.143 42.0738 16.4809C42.0731 19.9454 42.0753 23.4098 42.0731 26.875C41.3995 26.875 40.7265 26.875 40.0529 26.875C40.0514 23.7287 40.0566 20.5816 40.0507 17.4352C40.0595 17.2346 39.9045 17.0936 39.762 16.9804C39.6004 16.8534 39.4527 16.6616 39.2265 16.6704C38.2781 16.6653 37.3289 16.6697 36.3805 16.6682C36.3791 15.9953 36.3805 15.3217 36.3798 14.648Z" fill="white" style="fill:white;fill-opacity:1;"/>
<path d="M44.2042 14.6987C44.8727 14.698 45.5412 14.6987 46.2105 14.6987C46.2105 16.1907 46.2119 17.682 46.2097 19.174C46.7409 18.5525 47.5409 18.2117 48.3453 18.1456C49.3818 18.0493 50.5087 18.3255 51.2478 19.0925C51.8663 19.7184 52.119 20.6168 52.1315 21.4785C52.1359 23.2791 52.133 25.0789 52.133 26.8794C51.4586 26.8802 50.7835 26.8787 50.1091 26.8802C50.1076 25.2016 50.1098 23.5237 50.1084 21.8451C50.104 21.3551 49.9732 20.846 49.6456 20.4699C48.9161 19.639 47.4535 19.6119 46.7027 20.4258C46.3523 20.8071 46.2156 21.3367 46.2112 21.8436C46.2097 23.5222 46.2112 25.2008 46.2105 26.8794C45.5412 26.8794 44.8727 26.8802 44.2035 26.8787C44.2042 22.8192 44.2028 18.759 44.2042 14.6987Z" fill="white" style="fill:white;fill-opacity:1;"/>
<path d="M79.2242 18.0133C79.9177 18.0133 80.6112 18.0133 81.3047 18.0133C82.0672 19.9535 82.8246 21.8958 83.5908 23.8344C84.3695 21.895 85.1386 19.952 85.9151 18.0119C86.6145 18.0148 87.3139 18.0119 88.014 18.0133C86.4771 21.873 84.9447 25.7334 83.4101 29.5931C82.7541 29.5924 82.0988 29.5939 81.4435 29.5924C81.8307 28.6051 82.2259 27.6207 82.6152 26.6341C81.4869 23.7602 80.3548 20.8872 79.2242 18.0133Z" fill="white" style="fill:white;fill-opacity:1;"/>
<path d="M56.6634 18.2616C57.7344 17.9905 58.9209 18.0647 59.9052 18.5907C60.8287 19.0807 61.4979 19.9748 61.7969 20.968C62.0224 21.6658 62.043 22.4056 62.0283 23.1329C59.8656 23.1344 57.7043 23.1321 55.5423 23.1336C55.6496 23.8308 55.9963 24.5162 56.5943 24.9151C57.2437 25.3669 58.0973 25.4087 58.8452 25.2163C59.3991 25.0759 59.8972 24.7388 60.2336 24.2767C60.6942 24.6153 61.1578 24.9489 61.6176 25.2897C61.0241 26.15 60.072 26.7259 59.056 26.9367C57.8116 27.1983 56.4364 27.0146 55.3851 26.2697C54.4529 25.6232 53.8498 24.5669 53.6691 23.4561C53.4869 22.3358 53.6353 21.1384 54.2002 20.1423C54.7174 19.2115 55.632 18.5224 56.6634 18.2616ZM56.2204 20.3986C55.8553 20.7946 55.6584 21.3147 55.56 21.8377C57.0924 21.837 58.6241 21.8392 60.1558 21.837C60.0485 21.2802 59.8252 20.7255 59.4182 20.3193C58.5844 19.451 57.0175 19.5075 56.2204 20.3986Z" fill="white" style="fill:white;fill-opacity:1;"/>
<path d="M66.8173 18.1551C67.9471 17.9773 69.16 18.1588 70.1289 18.7876C71.0061 19.3437 71.6312 20.2546 71.892 21.2545C72.2902 22.77 71.9897 24.5169 70.9062 25.6872C69.2753 27.4723 66.148 27.5068 64.4569 25.7893C63.0186 24.3501 62.8136 21.9332 63.8009 20.19C64.4202 19.091 65.5758 18.3402 66.8173 18.1551ZM67.1839 20.057C66.4463 20.1687 65.7793 20.6587 65.4678 21.3382C64.9763 22.3865 65.1482 23.7845 66.0408 24.5676C66.7247 25.1656 67.7488 25.2875 68.5833 24.9606C69.221 24.7116 69.7073 24.1474 69.9115 23.4995C70.2083 22.5525 70.0555 21.4073 69.3333 20.6866C68.7853 20.1239 67.9434 19.9292 67.1839 20.057Z" fill="white" style="fill:white;fill-opacity:1;"/>
<path d="M75.0795 18.8251C75.9368 18.2837 76.977 18.1397 77.9732 18.1265C77.9739 18.7634 77.9739 19.4003 77.9732 20.0372C77.3488 20.0467 76.6876 20.1973 76.2226 20.6389C75.7348 21.098 75.5563 21.7893 75.5416 22.4387C75.5394 23.9189 75.5409 25.3992 75.5409 26.8794C74.8716 26.8802 74.2024 26.8794 73.5331 26.8794C73.5331 25.6423 73.5331 24.4052 73.5331 23.1681C73.5398 22.3483 73.4817 21.5101 73.7161 20.713C73.9196 19.9454 74.4 19.2467 75.0795 18.8251Z" fill="white" style="fill:white;fill-opacity:1;"/>
</svg>
