<svg width="89" height="30" viewBox="0 0 89 30" fill="none" xmlns="http://www.w3.org/2000/svg">
<path d="M0.0123291 1.76541C0.0123291 1.029 0.609301 0.432031 1.3457 0.432031H25.3455C26.0819 0.432031 26.6789 1.029 26.6789 1.76541V25.7653C26.6789 26.5017 26.0819 27.0987 25.3455 27.0987H20.3458C19.6094 27.0987 19.0124 26.5017 19.0124 25.7653V15.803C19.0124 14.7682 18.6114 13.7737 17.8936 13.0283L14.3266 9.32409C13.5726 8.54104 12.5323 8.09861 11.4452 8.09861H1.3457C0.609301 8.09861 0.0123291 7.50164 0.0123291 6.76524V1.76541Z" fill="#18181B" style="fill:#18181B;fill:color(display-p3 0.0941 0.0941 0.1059);fill-opacity:1;"/>
<path d="M13.306 15.9533C13.5452 16.2018 13.6789 16.5333 13.6789 16.8782V25.7653C13.6789 26.5017 13.0819 27.0987 12.3455 27.0987H3.86476C3.51112 27.0987 3.17197 26.9582 2.92192 26.7082L0.402864 24.1891C0.152809 23.939 0.0123291 23.5999 0.0123291 23.2463V14.7655C0.0123291 14.0291 0.609301 13.4321 1.3457 13.4321H10.311C10.6734 13.4321 11.0202 13.5796 11.2715 13.8406L13.306 15.9533Z" fill="#18181B" style="fill:#18181B;fill:color(display-p3 0.0941 0.0941 0.1059);fill-opacity:1;"/>

</svg>

