<svg width="172" height="40" viewBox="0 0 172 40" fill="none" xmlns="http://www.w3.org/2000/svg">
<path fill-rule="evenodd" clip-rule="evenodd" d="M40 0H0V40H40V0ZM22.0537 11.4715C19.7025 11.4704 17.3512 11.4694 15 11.474C15.0008 11.8673 15.0008 12.2607 15.0008 12.654C15.0008 13.0472 15.0008 13.4405 15.0016 13.8337C16.2414 13.8345 17.4811 13.8341 18.7209 13.8337C19.9609 13.8333 21.2009 13.8329 22.4409 13.8337C22.4409 15.4598 22.4407 17.086 22.4405 18.7121C22.4402 21.9644 22.4398 25.2167 22.4409 28.469C23.3199 28.4706 24.1973 28.4706 25.0763 28.4706V11.4723C24.0688 11.4723 23.0613 11.4719 22.0537 11.4715Z" fill="#EBEDFF"/>
<path d="M59.4392 31.4152V20.0485H61.3615V31.4152H59.4392ZM54.5833 21.4694V19.7142H61.3615V21.4694H54.5833Z" fill="#EBEDFF"/>
<path d="M70.3503 31.4362V26.8059C70.3503 26.271 70.1776 25.8309 69.8322 25.4854C69.4978 25.1399 69.0632 24.9672 68.5283 24.9672C68.1717 24.9672 67.8541 25.0452 67.5755 25.2012C67.2969 25.3572 67.0796 25.5745 66.9236 25.8531C66.7676 26.1317 66.6896 26.4493 66.6896 26.8059L65.9708 26.4048C65.9708 25.7918 66.1045 25.2514 66.372 24.7833C66.6395 24.3041 67.0072 23.9308 67.4752 23.6634C67.9544 23.3848 68.4893 23.2455 69.0799 23.2455C69.6817 23.2455 70.2166 23.3792 70.6847 23.6467C71.1527 23.9141 71.5204 24.2874 71.7879 24.7666C72.0553 25.2347 72.1891 25.7807 72.1891 26.4048V31.4362H70.3503ZM64.8509 31.4362V19.7142H66.6896V31.4362H64.8509Z" fill="#EBEDFF"/>
<path d="M78.8965 31.6034C78.0941 31.6034 77.3698 31.4251 76.7234 31.0685C76.0882 30.7007 75.5812 30.1992 75.2023 29.564C74.8346 28.9288 74.6507 28.2156 74.6507 27.4244C74.6507 26.6332 74.8346 25.9256 75.2023 25.3015C75.57 24.6663 76.066 24.1649 76.69 23.7971C77.3252 23.4294 78.0273 23.2455 78.7962 23.2455C79.5428 23.2455 80.2003 23.4182 80.7686 23.7637C81.3481 24.1091 81.7994 24.5827 82.1226 25.1845C82.4569 25.7863 82.6241 26.4716 82.6241 27.2405C82.6241 27.3743 82.6129 27.5136 82.5907 27.6584C82.5795 27.7922 82.5572 27.9426 82.5238 28.1098H75.9378V26.6053H81.571L80.8857 27.2071C80.8634 26.7168 80.7686 26.3045 80.6015 25.9701C80.4343 25.6358 80.1947 25.3795 79.8827 25.2012C79.5818 25.0229 79.2085 24.9338 78.7628 24.9338C78.2947 24.9338 77.888 25.0341 77.5425 25.2347C77.197 25.4352 76.9296 25.7194 76.7402 26.0872C76.5507 26.4438 76.456 26.8728 76.456 27.3743C76.456 27.8757 76.5563 28.3159 76.7569 28.6948C76.9575 29.0737 77.2416 29.369 77.6094 29.5807C77.9771 29.7813 78.4006 29.8816 78.8798 29.8816C79.2921 29.8816 79.671 29.8092 80.0164 29.6643C80.373 29.5195 80.6739 29.3077 80.9191 29.0291L82.0892 30.2159C81.6992 30.6728 81.2255 31.0183 80.6683 31.2523C80.1112 31.4863 79.5205 31.6034 78.8965 31.6034Z" fill="#EBEDFF"/>
<path d="M88.8868 31.6034C88.1068 31.6034 87.3991 31.4195 86.7639 31.0517C86.1287 30.6728 85.6217 30.1658 85.2428 29.5306C84.8751 28.8954 84.6912 28.1878 84.6912 27.4077C84.6912 26.6276 84.8751 25.9256 85.2428 25.3015C85.6217 24.6775 86.1287 24.1816 86.7639 23.8138C87.3991 23.4349 88.1068 23.2455 88.8868 23.2455C89.678 23.2455 90.3913 23.4294 91.0264 23.7971C91.6616 24.1649 92.1631 24.6663 92.5309 25.3015C92.9098 25.9256 93.0992 26.6276 93.0992 27.4077C93.0992 28.1878 92.9098 28.8954 92.5309 29.5306C92.1631 30.1658 91.6616 30.6728 91.0264 31.0517C90.3913 31.4195 89.678 31.6034 88.8868 31.6034ZM88.8868 29.8315C89.3437 29.8315 89.7449 29.7312 90.0904 29.5306C90.447 29.3189 90.72 29.0291 90.9094 28.6614C91.11 28.2936 91.2103 27.8757 91.2103 27.4077C91.2103 26.9397 91.11 26.5273 90.9094 26.1707C90.7088 25.8141 90.4358 25.5355 90.0904 25.335C89.7449 25.1232 89.3437 25.0174 88.8868 25.0174C88.4411 25.0174 88.0399 25.1232 87.6833 25.335C87.3378 25.5355 87.0648 25.8141 86.8642 26.1707C86.6748 26.5273 86.5801 26.9397 86.5801 27.4077C86.5801 27.8757 86.6748 28.2936 86.8642 28.6614C87.0648 29.0291 87.3378 29.3189 87.6833 29.5306C88.0399 29.7312 88.4411 29.8315 88.8868 29.8315Z" fill="#EBEDFF"/>
<path d="M95.2318 31.4362V23.4126H97.0706V25.1845V31.4362H95.2318Z" fill="#EBEDFF"/>
<path d="M105.479 31.5198L102.052 23.4126H104.075L106.415 29.3634H105.83L108.304 23.4126H110.343L106.615 31.5198H105.479ZM103.088 34.7793L105.579 29.6476L106.615 31.5198L105.128 34.7793H103.088Z" fill="#EBEDFF"/>
<path d="M100.063 23.4126H97.0706V25.1845H100.063V23.4126Z" fill="#EBEDFF"/>
<path d="M55.9039 16.9981V15.3266H59.2637C59.8543 15.3266 60.3112 15.1427 60.6344 14.7749C60.9576 14.4072 61.1192 13.9837 61.1192 13.5045C61.1192 13.1814 61.0467 12.8805 60.9019 12.6019C60.757 12.3233 60.5453 12.1004 60.2667 11.9333C59.9881 11.7661 59.6538 11.6825 59.2637 11.6825H55.9039V10.011H58.9796C59.481 10.011 59.8822 9.8828 60.1831 9.6265C60.484 9.37019 60.6344 8.9913 60.6344 8.48983C60.6344 7.98835 60.484 7.60946 60.1831 7.35316C59.8822 7.09685 59.481 6.96869 58.9796 6.96869H55.9039V5.29712H59.0297C59.8209 5.29712 60.4784 5.44199 61.0022 5.73173C61.5259 6.02147 61.9159 6.39479 62.1723 6.85168C62.4286 7.30858 62.5567 7.79891 62.5567 8.32267C62.5567 8.93558 62.384 9.47605 62.0385 9.94409C61.7042 10.4121 61.2083 10.791 60.5508 11.0808L60.7013 10.479C61.4368 10.7799 62.0107 11.2033 62.423 11.7494C62.8353 12.2954 63.0415 12.9362 63.0415 13.6717C63.0415 14.2735 62.891 14.8251 62.5901 15.3266C62.3004 15.828 61.8658 16.2348 61.2863 16.5468C60.718 16.8477 60.0159 16.9981 59.1801 16.9981H55.9039ZM54.5833 16.9981V5.29712H56.5056V16.9981H54.5833Z" fill="#EBEDFF"/>
<path d="M69.2021 17.1653C68.4777 17.1653 67.8203 16.9814 67.2296 16.6137C66.6502 16.2459 66.1877 15.75 65.8422 15.126C65.5079 14.4908 65.3408 13.7831 65.3408 13.0031C65.3408 12.2119 65.5079 11.5042 65.8422 10.8802C66.1877 10.245 66.6502 9.74351 67.2296 9.37576C67.8203 8.99687 68.4777 8.80742 69.2021 8.80742C69.815 8.80742 70.3555 8.94115 70.8235 9.2086C71.3027 9.46491 71.6816 9.82151 71.9602 10.2784C72.2388 10.7353 72.3781 11.2535 72.3781 11.833V14.1397C72.3781 14.7192 72.2388 15.2374 71.9602 15.6943C71.6927 16.1512 71.3194 16.5134 70.8402 16.7808C70.361 17.0371 69.815 17.1653 69.2021 17.1653ZM69.503 15.4269C70.1828 15.4269 70.7288 15.1984 71.1411 14.7415C71.5646 14.2846 71.7763 13.6996 71.7763 12.9864C71.7763 12.5072 71.6816 12.0837 71.4921 11.716C71.3027 11.3482 71.0353 11.064 70.6898 10.8635C70.3555 10.6517 69.9599 10.5459 69.503 10.5459C69.0572 10.5459 68.6616 10.6517 68.3162 10.8635C67.9818 11.064 67.7144 11.3482 67.5138 11.716C67.3244 12.0837 67.2296 12.5072 67.2296 12.9864C67.2296 13.4655 67.3244 13.889 67.5138 14.2568C67.7144 14.6245 67.9818 14.9142 68.3162 15.126C68.6616 15.3266 69.0572 15.4269 69.503 15.4269ZM71.6593 16.9981V14.8418L71.9769 12.8861L71.6593 10.947V8.97458H73.498V16.9981H71.6593Z" fill="#EBEDFF"/>
<path d="M79.2743 17.1653C78.8286 17.1653 78.3995 17.1096 77.9872 16.9981C77.5749 16.8756 77.196 16.7084 76.8505 16.4967C76.5051 16.2738 76.2042 16.0063 75.9479 15.6943L77.118 14.5242C77.3966 14.8474 77.7142 15.0925 78.0708 15.2597C78.4385 15.4157 78.8509 15.4937 79.3078 15.4937C79.7201 15.4937 80.0321 15.4324 80.2438 15.3098C80.4556 15.1873 80.5614 15.009 80.5614 14.7749C80.5614 14.5298 80.4611 14.3403 80.2606 14.2066C80.06 14.0729 79.7981 13.9614 79.4749 13.8723C79.1629 13.772 78.8286 13.6717 78.472 13.5714C78.1265 13.4711 77.7922 13.3374 77.469 13.1702C77.157 12.9919 76.9007 12.7523 76.7001 12.4515C76.4995 12.1506 76.3992 11.7605 76.3992 11.2814C76.3992 10.7687 76.5162 10.3286 76.7502 9.96081C76.9954 9.59306 77.3353 9.3089 77.7699 9.10831C78.2157 8.90772 78.745 8.80742 79.3579 8.80742C80.0042 8.80742 80.5726 8.92443 81.0629 9.15845C81.5644 9.38133 81.9823 9.72122 82.3166 10.1781L81.1465 11.3482C80.9125 11.0585 80.645 10.8412 80.3441 10.6963C80.0432 10.5514 79.6978 10.479 79.3078 10.479C78.94 10.479 78.6558 10.5347 78.4553 10.6462C78.2547 10.7576 78.1544 10.9192 78.1544 11.1309C78.1544 11.3538 78.2547 11.5265 78.4553 11.6491C78.6558 11.7717 78.9122 11.8775 79.2242 11.9667C79.5473 12.0558 79.8817 12.1561 80.2271 12.2676C80.5837 12.3679 80.918 12.5127 81.2301 12.7022C81.5532 12.8805 81.8151 13.1257 82.0157 13.4377C82.2163 13.7386 82.3166 14.1342 82.3166 14.6245C82.3166 15.4046 82.0436 16.0231 81.4975 16.4799C80.9515 16.9368 80.2104 17.1653 79.2743 17.1653Z" fill="#EBEDFF"/>
<path d="M85.9006 16.9981V10.6963V8.97458H87.7394V16.9981H85.9006ZM86.82 7.5036C86.508 7.5036 86.2461 7.39773 86.0344 7.186C85.8338 6.97427 85.7335 6.71239 85.7335 6.40036C85.7335 6.08833 85.8338 5.82645 86.0344 5.61472C86.2461 5.40299 86.508 5.29712 86.82 5.29712C87.1432 5.29712 87.4051 5.40299 87.6057 5.61472C87.8062 5.82645 87.9065 6.08833 87.9065 6.40036C87.9065 6.71239 87.8062 6.97427 87.6057 7.186C87.4051 7.39773 87.1432 7.5036 86.82 7.5036Z" fill="#EBEDFF"/>
<path d="M93.5373 17.1653C93.0916 17.1653 92.6626 17.1096 92.2502 16.9981C91.8379 16.8756 91.459 16.7084 91.1136 16.4967C90.7681 16.2738 90.4672 16.0063 90.2109 15.6943L91.381 14.5242C91.6596 14.8474 91.9772 15.0925 92.3338 15.2597C92.7016 15.4157 93.1139 15.4937 93.5708 15.4937C93.9831 15.4937 94.2951 15.4324 94.5069 15.3098C94.7186 15.1873 94.8245 15.009 94.8245 14.7749C94.8245 14.5298 94.7242 14.3403 94.5236 14.2066C94.323 14.0729 94.0611 13.9614 93.7379 13.8723C93.4259 13.772 93.0916 13.6717 92.735 13.5714C92.3895 13.4711 92.0552 13.3374 91.732 13.1702C91.42 12.9919 91.1637 12.7523 90.9631 12.4515C90.7625 12.1506 90.6622 11.7605 90.6622 11.2814C90.6622 10.7687 90.7793 10.3286 91.0133 9.96081C91.2584 9.59306 91.5983 9.3089 92.0329 9.10831C92.4787 8.90772 93.008 8.80742 93.6209 8.80742C94.2673 8.80742 94.8356 8.92443 95.3259 9.15845C95.8274 9.38133 96.2453 9.72122 96.5796 10.1781L95.4095 11.3482C95.1755 11.0585 94.908 10.8412 94.6072 10.6963C94.3063 10.5514 93.9608 10.479 93.5708 10.479C93.203 10.479 92.9189 10.5347 92.7183 10.6462C92.5177 10.7576 92.4174 10.9192 92.4174 11.1309C92.4174 11.3538 92.5177 11.5265 92.7183 11.6491C92.9189 11.7717 93.1752 11.8775 93.4872 11.9667C93.8104 12.0558 94.1447 12.1561 94.4901 12.2676C94.8467 12.3679 95.1811 12.5127 95.4931 12.7022C95.8163 12.8805 96.0781 13.1257 96.2787 13.4377C96.4793 13.7386 96.5796 14.1342 96.5796 14.6245C96.5796 15.4046 96.3066 16.0231 95.7605 16.4799C95.2145 16.9368 94.4734 17.1653 93.5373 17.1653Z" fill="#EBEDFF"/>
<path d="M85.9006 10.6963V8.97458H84.4378V10.6963H85.9006Z" fill="#EBEDFF"/>
<rect x="123.865" y="7" width="48" height="26" rx="4" fill="url(#paint0_linear_228_10851)" fill-opacity="0.2"/>
<path d="M134.035 24V22.53H136.611C137.283 22.53 137.871 22.3853 138.375 22.096C138.888 21.8067 139.285 21.4053 139.565 20.892C139.854 20.3693 139.999 19.7673 139.999 19.086C139.999 18.414 139.854 17.8213 139.565 17.308C139.275 16.7947 138.874 16.3933 138.361 16.104C137.857 15.8147 137.273 15.67 136.611 15.67H134.035V14.2H136.653C137.362 14.2 138.02 14.326 138.627 14.578C139.233 14.8207 139.761 15.166 140.209 15.614C140.666 16.0527 141.021 16.5707 141.273 17.168C141.525 17.756 141.651 18.4 141.651 19.1C141.651 19.7907 141.525 20.4347 141.273 21.032C141.021 21.6293 140.671 22.152 140.223 22.6C139.775 23.0387 139.247 23.384 138.641 23.636C138.034 23.8787 137.381 24 136.681 24H134.035ZM132.929 24V14.2H134.539V24H132.929ZM146.262 24.14C145.609 24.14 145.016 23.986 144.484 23.678C143.952 23.3607 143.527 22.936 143.21 22.404C142.902 21.872 142.748 21.2793 142.748 20.626C142.748 19.9727 142.902 19.3847 143.21 18.862C143.527 18.3393 143.952 17.924 144.484 17.616C145.016 17.2987 145.609 17.14 146.262 17.14C146.925 17.14 147.522 17.294 148.054 17.602C148.586 17.91 149.006 18.33 149.314 18.862C149.631 19.3847 149.79 19.9727 149.79 20.626C149.79 21.2793 149.631 21.872 149.314 22.404C149.006 22.936 148.586 23.3607 148.054 23.678C147.522 23.986 146.925 24.14 146.262 24.14ZM146.262 22.656C146.645 22.656 146.981 22.572 147.27 22.404C147.569 22.2267 147.797 21.984 147.956 21.676C148.124 21.368 148.208 21.018 148.208 20.626C148.208 20.234 148.124 19.8887 147.956 19.59C147.788 19.2913 147.559 19.058 147.27 18.89C146.981 18.7127 146.645 18.624 146.262 18.624C145.889 18.624 145.553 18.7127 145.254 18.89C144.965 19.058 144.736 19.2913 144.568 19.59C144.409 19.8887 144.33 20.234 144.33 20.626C144.33 21.018 144.409 21.368 144.568 21.676C144.736 21.984 144.965 22.2267 145.254 22.404C145.553 22.572 145.889 22.656 146.262 22.656ZM154.265 24.14C153.602 24.14 153 23.986 152.459 23.678C151.927 23.37 151.507 22.95 151.199 22.418C150.891 21.886 150.737 21.2933 150.737 20.64C150.737 19.9773 150.891 19.3847 151.199 18.862C151.507 18.33 151.927 17.91 152.459 17.602C153 17.294 153.602 17.14 154.265 17.14C154.787 17.14 155.273 17.2427 155.721 17.448C156.178 17.644 156.565 17.9287 156.883 18.302L155.875 19.324C155.679 19.0907 155.441 18.918 155.161 18.806C154.89 18.6847 154.591 18.624 154.265 18.624C153.882 18.624 153.541 18.7127 153.243 18.89C152.953 19.058 152.725 19.2913 152.557 19.59C152.398 19.8887 152.319 20.2387 152.319 20.64C152.319 21.032 152.398 21.382 152.557 21.69C152.725 21.9887 152.953 22.2267 153.243 22.404C153.541 22.572 153.882 22.656 154.265 22.656C154.591 22.656 154.89 22.6 155.161 22.488C155.441 22.3667 155.679 22.1893 155.875 21.956L156.883 22.978C156.565 23.3513 156.178 23.6407 155.721 23.846C155.273 24.042 154.787 24.14 154.265 24.14ZM160.291 24.14C159.918 24.14 159.558 24.0933 159.213 24C158.868 23.8973 158.55 23.7573 158.261 23.58C157.972 23.3933 157.72 23.1693 157.505 22.908L158.485 21.928C158.718 22.1987 158.984 22.404 159.283 22.544C159.591 22.6747 159.936 22.74 160.319 22.74C160.664 22.74 160.926 22.6887 161.103 22.586C161.28 22.4833 161.369 22.334 161.369 22.138C161.369 21.9327 161.285 21.774 161.117 21.662C160.949 21.55 160.73 21.4567 160.459 21.382C160.198 21.298 159.918 21.214 159.619 21.13C159.33 21.046 159.05 20.934 158.779 20.794C158.518 20.6447 158.303 20.444 158.135 20.192C157.967 19.94 157.883 19.6133 157.883 19.212C157.883 18.7827 157.981 18.414 158.177 18.106C158.382 17.798 158.667 17.56 159.031 17.392C159.404 17.224 159.848 17.14 160.361 17.14C160.902 17.14 161.378 17.238 161.789 17.434C162.209 17.6207 162.559 17.9053 162.839 18.288L161.859 19.268C161.663 19.0253 161.439 18.8433 161.187 18.722C160.935 18.6007 160.646 18.54 160.319 18.54C160.011 18.54 159.773 18.5867 159.605 18.68C159.437 18.7733 159.353 18.9087 159.353 19.086C159.353 19.2727 159.437 19.4173 159.605 19.52C159.773 19.6227 159.988 19.7113 160.249 19.786C160.52 19.8607 160.8 19.9447 161.089 20.038C161.388 20.122 161.668 20.2433 161.929 20.402C162.2 20.5513 162.419 20.7567 162.587 21.018C162.755 21.27 162.839 21.6013 162.839 22.012C162.839 22.6653 162.61 23.1833 162.153 23.566C161.696 23.9487 161.075 24.14 160.291 24.14Z" fill="#00D2EF"/>
<rect opacity="0.4" x="128" y="7" width="24" height="1" fill="url(#paint1_linear_228_10851)"/>
<rect opacity="0.2" x="144" y="32" width="24" height="1" fill="url(#paint2_linear_228_10851)"/>
<rect x="124.365" y="7.5" width="47" height="25" rx="3.5" stroke="url(#paint3_linear_228_10851)" stroke-opacity="0.21"/>
<defs>
<linearGradient id="paint0_linear_228_10851" x1="137.335" y1="8.5" x2="156.335" y2="33" gradientUnits="userSpaceOnUse">
<stop stop-color="#00D2EF"/>
<stop offset="1" stop-color="#00D2EF" stop-opacity="0.34"/>
</linearGradient>
<linearGradient id="paint1_linear_228_10851" x1="128" y1="7.5" x2="152" y2="7.49999" gradientUnits="userSpaceOnUse">
<stop stop-color="#61DAFB" stop-opacity="0"/>
<stop offset="0.489583" stop-color="#61DAFB"/>
<stop offset="1" stop-color="#61DAFB" stop-opacity="0"/>
</linearGradient>
<linearGradient id="paint2_linear_228_10851" x1="144" y1="32.5" x2="168" y2="32.5" gradientUnits="userSpaceOnUse">
<stop stop-color="#61DAFB" stop-opacity="0"/>
<stop offset="0.489583" stop-color="#61DAFB"/>
<stop offset="1" stop-color="#61DAFB" stop-opacity="0"/>
</linearGradient>
<linearGradient id="paint3_linear_228_10851" x1="126.787" y1="5.78125" x2="152.819" y2="51.3659" gradientUnits="userSpaceOnUse">
<stop stop-color="#00D2EF"/>
<stop offset="1" stop-color="#00D2EF" stop-opacity="0"/>
</linearGradient>
</defs>
</svg>
