<svg width="89" height="30" viewBox="0 0 89 30" fill="none" xmlns="http://www.w3.org/2000/svg">
<path d="M0.0123291 1.56545C0.0123291 0.829052 0.609301 0.23208 1.3457 0.23208H25.3455C26.0819 0.23208 26.6789 0.829052 26.6789 1.56545V25.5654C26.6789 26.3018 26.0819 26.8987 25.3455 26.8987H20.3458C19.6094 26.8987 19.0124 26.3018 19.0124 25.5654V15.603C19.0124 14.5683 18.6114 13.5738 17.8936 12.8284L14.3266 9.12414C13.5726 8.34109 12.5323 7.89866 11.4452 7.89866H1.3457C0.609301 7.89866 0.0123291 7.30169 0.0123291 6.56529V1.56545Z" fill="white" style="fill:white;fill-opacity:1;"/>
<path d="M13.306 15.7534C13.5452 16.0019 13.6789 16.3334 13.6789 16.6783V25.5654C13.6789 26.3018 13.0819 26.8987 12.3455 26.8987H3.86476C3.51112 26.8987 3.17197 26.7583 2.92192 26.5082L0.402864 23.9891C0.152809 23.7391 0.0123291 23.3999 0.0123291 23.0463V14.5655C0.0123291 13.8291 0.609301 13.2322 1.3457 13.2322H10.311C10.6734 13.2322 11.0202 13.3796 11.2715 13.6407L13.306 15.7534Z" fill="white" style="fill:white;fill-opacity:1;"/>
</svg>
