<svg width="172" height="40" viewBox="0 0 172 40" fill="none" xmlns="http://www.w3.org/2000/svg">
<path fill-rule="evenodd" clip-rule="evenodd" d="M40 0H0V40H40V0ZM22.0537 11.4715C19.7025 11.4704 17.3512 11.4694 15 11.474C15.0008 11.8673 15.0008 12.2607 15.0008 12.654C15.0008 13.0472 15.0008 13.4405 15.0016 13.8337C16.2414 13.8345 17.4811 13.8341 18.7209 13.8337C19.9609 13.8333 21.2009 13.8329 22.4409 13.8337C22.4409 15.4598 22.4407 17.086 22.4405 18.7121C22.4402 21.9644 22.4398 25.2167 22.4409 28.469C23.3199 28.4706 24.1973 28.4706 25.0763 28.4706V11.4723C24.0688 11.4723 23.0613 11.4719 22.0537 11.4715Z" fill="#1D2032"/>
<mask id="path-2-outside-1_254_6181" maskUnits="userSpaceOnUse" x="53.5833" y="18.7142" width="57" height="17" fill="black">
<rect fill="white" x="53.5833" y="18.7142" width="57" height="17"/>
<path d="M59.4392 31.4152V20.0485H61.3615V31.4152H59.4392ZM54.5833 21.4694V19.7142H61.3615V21.4694H54.5833Z"/>
<path d="M70.3503 31.4362V26.8059C70.3503 26.271 70.1776 25.8309 69.8322 25.4854C69.4978 25.1399 69.0632 24.9672 68.5283 24.9672C68.1717 24.9672 67.8541 25.0452 67.5755 25.2012C67.2969 25.3572 67.0796 25.5745 66.9236 25.8531C66.7676 26.1317 66.6896 26.4493 66.6896 26.8059L65.9708 26.4048C65.9708 25.7918 66.1045 25.2514 66.372 24.7833C66.6395 24.3041 67.0072 23.9308 67.4752 23.6634C67.9544 23.3848 68.4893 23.2455 69.0799 23.2455C69.6817 23.2455 70.2166 23.3792 70.6847 23.6467C71.1527 23.9141 71.5204 24.2874 71.7879 24.7666C72.0553 25.2347 72.1891 25.7807 72.1891 26.4048V31.4362H70.3503ZM64.8509 31.4362V19.7142H66.6896V31.4362H64.8509Z"/>
<path d="M78.8965 31.6034C78.0941 31.6034 77.3698 31.4251 76.7234 31.0685C76.0882 30.7007 75.5812 30.1992 75.2023 29.564C74.8346 28.9288 74.6507 28.2156 74.6507 27.4244C74.6507 26.6332 74.8346 25.9256 75.2023 25.3015C75.57 24.6663 76.066 24.1649 76.69 23.7971C77.3252 23.4294 78.0273 23.2455 78.7962 23.2455C79.5428 23.2455 80.2003 23.4182 80.7686 23.7637C81.3481 24.1091 81.7994 24.5827 82.1226 25.1845C82.4569 25.7863 82.6241 26.4716 82.6241 27.2405C82.6241 27.3743 82.6129 27.5136 82.5907 27.6584C82.5795 27.7922 82.5572 27.9426 82.5238 28.1098H75.9378V26.6053H81.571L80.8857 27.2071C80.8634 26.7168 80.7686 26.3045 80.6015 25.9701C80.4343 25.6358 80.1947 25.3795 79.8827 25.2012C79.5818 25.0229 79.2085 24.9338 78.7628 24.9338C78.2947 24.9338 77.888 25.0341 77.5425 25.2347C77.197 25.4352 76.9296 25.7194 76.7402 26.0872C76.5507 26.4438 76.456 26.8728 76.456 27.3743C76.456 27.8757 76.5563 28.3159 76.7569 28.6948C76.9575 29.0737 77.2416 29.369 77.6094 29.5807C77.9771 29.7813 78.4006 29.8816 78.8798 29.8816C79.2921 29.8816 79.671 29.8092 80.0164 29.6643C80.373 29.5195 80.6739 29.3077 80.9191 29.0291L82.0892 30.2159C81.6992 30.6728 81.2255 31.0183 80.6683 31.2523C80.1112 31.4863 79.5205 31.6034 78.8965 31.6034Z"/>
<path d="M88.8868 31.6034C88.1068 31.6034 87.3991 31.4195 86.7639 31.0517C86.1287 30.6728 85.6217 30.1658 85.2428 29.5306C84.8751 28.8954 84.6912 28.1878 84.6912 27.4077C84.6912 26.6276 84.8751 25.9256 85.2428 25.3015C85.6217 24.6775 86.1287 24.1816 86.7639 23.8138C87.3991 23.4349 88.1068 23.2455 88.8868 23.2455C89.678 23.2455 90.3913 23.4294 91.0264 23.7971C91.6616 24.1649 92.1631 24.6663 92.5309 25.3015C92.9098 25.9256 93.0992 26.6276 93.0992 27.4077C93.0992 28.1878 92.9098 28.8954 92.5309 29.5306C92.1631 30.1658 91.6616 30.6728 91.0264 31.0517C90.3913 31.4195 89.678 31.6034 88.8868 31.6034ZM88.8868 29.8315C89.3437 29.8315 89.7449 29.7312 90.0904 29.5306C90.447 29.3189 90.72 29.0291 90.9094 28.6614C91.11 28.2936 91.2103 27.8757 91.2103 27.4077C91.2103 26.9397 91.11 26.5273 90.9094 26.1707C90.7088 25.8141 90.4358 25.5355 90.0904 25.335C89.7449 25.1232 89.3437 25.0174 88.8868 25.0174C88.4411 25.0174 88.0399 25.1232 87.6833 25.335C87.3378 25.5355 87.0648 25.8141 86.8642 26.1707C86.6748 26.5273 86.5801 26.9397 86.5801 27.4077C86.5801 27.8757 86.6748 28.2936 86.8642 28.6614C87.0648 29.0291 87.3378 29.3189 87.6833 29.5306C88.0399 29.7312 88.4411 29.8315 88.8868 29.8315Z"/>
<path d="M95.2318 31.4362V23.4126H97.0706V25.1845V31.4362H95.2318Z"/>
<path d="M105.479 31.5198L102.052 23.4126H104.075L106.415 29.3634H105.83L108.304 23.4126H110.343L106.615 31.5198H105.479ZM103.088 34.7793L105.579 29.6476L106.615 31.5198L105.128 34.7793H103.088Z"/>
<path d="M100.063 23.4126H97.0706V25.1845H100.063V23.4126Z"/>
</mask>
<path d="M59.4392 31.4152V20.0485H61.3615V31.4152H59.4392ZM54.5833 21.4694V19.7142H61.3615V21.4694H54.5833Z" fill="#1D2032"/>
<path d="M70.3503 31.4362V26.8059C70.3503 26.271 70.1776 25.8309 69.8322 25.4854C69.4978 25.1399 69.0632 24.9672 68.5283 24.9672C68.1717 24.9672 67.8541 25.0452 67.5755 25.2012C67.2969 25.3572 67.0796 25.5745 66.9236 25.8531C66.7676 26.1317 66.6896 26.4493 66.6896 26.8059L65.9708 26.4048C65.9708 25.7918 66.1045 25.2514 66.372 24.7833C66.6395 24.3041 67.0072 23.9308 67.4752 23.6634C67.9544 23.3848 68.4893 23.2455 69.0799 23.2455C69.6817 23.2455 70.2166 23.3792 70.6847 23.6467C71.1527 23.9141 71.5204 24.2874 71.7879 24.7666C72.0553 25.2347 72.1891 25.7807 72.1891 26.4048V31.4362H70.3503ZM64.8509 31.4362V19.7142H66.6896V31.4362H64.8509Z" fill="#1D2032"/>
<path d="M78.8965 31.6034C78.0941 31.6034 77.3698 31.4251 76.7234 31.0685C76.0882 30.7007 75.5812 30.1992 75.2023 29.564C74.8346 28.9288 74.6507 28.2156 74.6507 27.4244C74.6507 26.6332 74.8346 25.9256 75.2023 25.3015C75.57 24.6663 76.066 24.1649 76.69 23.7971C77.3252 23.4294 78.0273 23.2455 78.7962 23.2455C79.5428 23.2455 80.2003 23.4182 80.7686 23.7637C81.3481 24.1091 81.7994 24.5827 82.1226 25.1845C82.4569 25.7863 82.6241 26.4716 82.6241 27.2405C82.6241 27.3743 82.6129 27.5136 82.5907 27.6584C82.5795 27.7922 82.5572 27.9426 82.5238 28.1098H75.9378V26.6053H81.571L80.8857 27.2071C80.8634 26.7168 80.7686 26.3045 80.6015 25.9701C80.4343 25.6358 80.1947 25.3795 79.8827 25.2012C79.5818 25.0229 79.2085 24.9338 78.7628 24.9338C78.2947 24.9338 77.888 25.0341 77.5425 25.2347C77.197 25.4352 76.9296 25.7194 76.7402 26.0872C76.5507 26.4438 76.456 26.8728 76.456 27.3743C76.456 27.8757 76.5563 28.3159 76.7569 28.6948C76.9575 29.0737 77.2416 29.369 77.6094 29.5807C77.9771 29.7813 78.4006 29.8816 78.8798 29.8816C79.2921 29.8816 79.671 29.8092 80.0164 29.6643C80.373 29.5195 80.6739 29.3077 80.9191 29.0291L82.0892 30.2159C81.6992 30.6728 81.2255 31.0183 80.6683 31.2523C80.1112 31.4863 79.5205 31.6034 78.8965 31.6034Z" fill="#1D2032"/>
<path d="M88.8868 31.6034C88.1068 31.6034 87.3991 31.4195 86.7639 31.0517C86.1287 30.6728 85.6217 30.1658 85.2428 29.5306C84.8751 28.8954 84.6912 28.1878 84.6912 27.4077C84.6912 26.6276 84.8751 25.9256 85.2428 25.3015C85.6217 24.6775 86.1287 24.1816 86.7639 23.8138C87.3991 23.4349 88.1068 23.2455 88.8868 23.2455C89.678 23.2455 90.3913 23.4294 91.0264 23.7971C91.6616 24.1649 92.1631 24.6663 92.5309 25.3015C92.9098 25.9256 93.0992 26.6276 93.0992 27.4077C93.0992 28.1878 92.9098 28.8954 92.5309 29.5306C92.1631 30.1658 91.6616 30.6728 91.0264 31.0517C90.3913 31.4195 89.678 31.6034 88.8868 31.6034ZM88.8868 29.8315C89.3437 29.8315 89.7449 29.7312 90.0904 29.5306C90.447 29.3189 90.72 29.0291 90.9094 28.6614C91.11 28.2936 91.2103 27.8757 91.2103 27.4077C91.2103 26.9397 91.11 26.5273 90.9094 26.1707C90.7088 25.8141 90.4358 25.5355 90.0904 25.335C89.7449 25.1232 89.3437 25.0174 88.8868 25.0174C88.4411 25.0174 88.0399 25.1232 87.6833 25.335C87.3378 25.5355 87.0648 25.8141 86.8642 26.1707C86.6748 26.5273 86.5801 26.9397 86.5801 27.4077C86.5801 27.8757 86.6748 28.2936 86.8642 28.6614C87.0648 29.0291 87.3378 29.3189 87.6833 29.5306C88.0399 29.7312 88.4411 29.8315 88.8868 29.8315Z" fill="#1D2032"/>
<path d="M95.2318 31.4362V23.4126H97.0706V25.1845V31.4362H95.2318Z" fill="#1D2032"/>
<path d="M105.479 31.5198L102.052 23.4126H104.075L106.415 29.3634H105.83L108.304 23.4126H110.343L106.615 31.5198H105.479ZM103.088 34.7793L105.579 29.6476L106.615 31.5198L105.128 34.7793H103.088Z" fill="#1D2032"/>
<path d="M100.063 23.4126H97.0706V25.1845H100.063V23.4126Z" fill="#1D2032"/>
<path d="M97.0206 23.4126V25.1845H97.1206V23.4126H97.0206ZM59.4392 31.4152H59.3392V31.5152H59.4392V31.4152ZM59.4392 20.0485V19.9485H59.3392V20.0485H59.4392ZM61.3615 20.0485H61.4615V19.9485H61.3615V20.0485ZM61.3615 31.4152V31.5152H61.4615V31.4152H61.3615ZM54.5833 21.4694H54.4833V21.5694H54.5833V21.4694ZM54.5833 19.7142V19.6142H54.4833V19.7142H54.5833ZM61.3615 19.7142H61.4615V19.6142H61.3615V19.7142ZM61.3615 21.4694V21.5694H61.4615V21.4694H61.3615ZM70.3503 31.4362H70.2503V31.5362H70.3503V31.4362ZM69.8322 25.4854L69.7603 25.5549L69.7614 25.5561L69.8322 25.4854ZM67.5755 25.2012L67.5267 25.114L67.5755 25.2012ZM66.9236 25.8531L66.8364 25.8043L66.9236 25.8531ZM66.6896 26.8059L66.6409 26.8933L66.7896 26.9763V26.8059H66.6896ZM65.9708 26.4048H65.8708V26.4635L65.9221 26.4921L65.9708 26.4048ZM66.372 24.7833L66.4588 24.8329L66.4593 24.8321L66.372 24.7833ZM67.4752 23.6634L67.5249 23.7502L67.5255 23.7498L67.4752 23.6634ZM71.7879 24.7666L71.7006 24.8154L71.7011 24.8162L71.7879 24.7666ZM72.1891 31.4362V31.5362H72.2891V31.4362H72.1891ZM64.8509 31.4362H64.7509V31.5362H64.8509V31.4362ZM64.8509 19.7142V19.6142H64.7509V19.7142H64.8509ZM66.6896 19.7142H66.7896V19.6142H66.6896V19.7142ZM66.6896 31.4362V31.5362H66.7896V31.4362H66.6896ZM76.7234 31.0685L76.6733 31.155L76.6751 31.156L76.7234 31.0685ZM75.2023 29.564L75.1158 29.6141L75.1164 29.6153L75.2023 29.564ZM75.2023 25.3015L75.2885 25.3523L75.2888 25.3516L75.2023 25.3015ZM76.69 23.7971L76.6399 23.7106L76.6392 23.711L76.69 23.7971ZM80.7686 23.7637L80.7167 23.8491L80.7174 23.8496L80.7686 23.7637ZM82.1226 25.1845L82.0345 25.2318L82.0352 25.2331L82.1226 25.1845ZM82.5907 27.6584L82.4916 27.6432L82.491 27.6501L82.5907 27.6584ZM82.5238 28.1098V28.2098H82.6058L82.6219 28.1294L82.5238 28.1098ZM75.9378 28.1098H75.8378V28.2098H75.9378V28.1098ZM75.9378 26.6053V26.5053H75.8378V26.6053H75.9378ZM81.571 26.6053L81.637 26.6805L81.8364 26.5053H81.571V26.6053ZM80.8857 27.2071L80.7858 27.2117L80.7952 27.4196L80.9516 27.2823L80.8857 27.2071ZM80.6015 25.9701L80.512 26.0149V26.0149L80.6015 25.9701ZM79.8827 25.2012L79.8317 25.2873L79.8331 25.2881L79.8827 25.2012ZM76.7402 26.0872L76.8285 26.1341L76.829 26.133L76.7402 26.0872ZM76.7569 28.6948L76.6685 28.7416L76.7569 28.6948ZM77.6094 29.5807L77.5595 29.6674L77.5615 29.6685L77.6094 29.5807ZM80.0164 29.6643L79.9788 29.5717L79.9778 29.5721L80.0164 29.6643ZM80.9191 29.0291L80.9903 28.9589L80.9149 28.8825L80.844 28.9631L80.9191 29.0291ZM82.0892 30.2159L82.1652 30.2809L82.2248 30.2111L82.1604 30.1457L82.0892 30.2159ZM80.6683 31.2523L80.6296 31.1601L80.6683 31.2523ZM86.7639 31.0517L86.7127 31.1376L86.7138 31.1383L86.7639 31.0517ZM85.2428 29.5306L85.1562 29.5807L85.1569 29.5818L85.2428 29.5306ZM85.2428 25.3015L85.1573 25.2496L85.1566 25.2508L85.2428 25.3015ZM86.7639 23.8138L86.814 23.9004L86.8152 23.8997L86.7639 23.8138ZM91.0264 23.7971L90.9763 23.8836L91.0264 23.7971ZM92.5309 25.3015L92.4443 25.3516L92.4454 25.3534L92.5309 25.3015ZM92.5309 29.5306L92.445 29.4794L92.4443 29.4805L92.5309 29.5306ZM91.0264 31.0517L91.0766 31.1383L91.0777 31.1376L91.0264 31.0517ZM90.0904 29.5306L90.1406 29.6171L90.1414 29.6166L90.0904 29.5306ZM90.9094 28.6614L90.8216 28.6135L90.8205 28.6156L90.9094 28.6614ZM90.9094 26.1707L90.9966 26.1217L90.9094 26.1707ZM90.0904 25.335L90.0381 25.4202L90.0402 25.4214L90.0904 25.335ZM87.6833 25.335L87.7335 25.4214L87.7344 25.4209L87.6833 25.335ZM86.8642 26.1707L86.777 26.1217L86.7759 26.1238L86.8642 26.1707ZM86.8642 28.6614L86.7753 28.7072L86.7764 28.7093L86.8642 28.6614ZM87.6833 29.5306L87.631 29.6159L87.6343 29.6178L87.6833 29.5306ZM95.2318 31.4362H95.1318V31.5362H95.2318V31.4362ZM95.2318 23.4126V23.3126H95.1318V23.4126H95.2318ZM97.0706 31.4362V31.5362H97.1706V31.4362H97.0706ZM105.479 31.5198L105.387 31.5587L105.412 31.6198H105.479V31.5198ZM102.052 23.4126V23.3126H101.901L101.96 23.4516L102.052 23.4126ZM104.075 23.4126L104.168 23.376L104.143 23.3126H104.075V23.4126ZM106.415 29.3634V29.4634H106.562L106.508 29.3268L106.415 29.3634ZM105.83 29.3634L105.737 29.3251L105.68 29.4634H105.83V29.3634ZM108.304 23.4126V23.3126H108.237L108.211 23.3743L108.304 23.4126ZM110.343 23.4126L110.434 23.4544L110.499 23.3126H110.343V23.4126ZM103.088 34.7793L102.998 34.7357L102.929 34.8793H103.088V34.7793ZM105.579 29.6476L105.666 29.5992L105.573 29.4306L105.489 29.6039L105.579 29.6476ZM105.128 34.7793V34.8793H105.192L105.219 34.8209L105.128 34.7793ZM100.063 23.4126H100.163V23.3126H100.063V23.4126ZM100.063 25.1845V25.2845H100.163V25.1845H100.063ZM97.0706 25.1845V25.0845H96.9706V25.1845H97.0706ZM59.5392 31.4152V20.0485H59.3392V31.4152H59.5392ZM59.4392 20.1485H61.3615V19.9485H59.4392V20.1485ZM61.2615 20.0485V31.4152H61.4615V20.0485H61.2615ZM61.3615 31.3152H59.4392V31.5152H61.3615V31.3152ZM54.6833 21.4694V19.7142H54.4833V21.4694H54.6833ZM54.5833 19.8142H61.3615V19.6142H54.5833V19.8142ZM61.2615 19.7142V21.4694H61.4615V19.7142H61.2615ZM61.3615 21.3694H54.5833V21.5694H61.3615V21.3694ZM70.4503 31.4362V26.8059H70.2503V31.4362H70.4503ZM70.4503 26.8059C70.4503 26.2473 70.2689 25.7808 69.9029 25.4147L69.7614 25.5561C70.0863 25.8809 70.2503 26.2948 70.2503 26.8059H70.4503ZM69.904 25.4159C69.5486 25.0486 69.087 24.8672 68.5283 24.8672V25.0672C69.0395 25.0672 69.447 25.2312 69.7603 25.5549L69.904 25.4159ZM68.5283 24.8672C68.1567 24.8672 67.8219 24.9487 67.5267 25.114L67.6244 25.2885C67.8864 25.1418 68.1868 25.0672 68.5283 25.0672V24.8672ZM67.5267 25.114C67.232 25.279 67.0014 25.5096 66.8364 25.8043L67.0109 25.902C67.1579 25.6395 67.3619 25.4355 67.6244 25.2885L67.5267 25.114ZM66.8364 25.8043C66.6711 26.0995 66.5896 26.4343 66.5896 26.8059H66.7896C66.7896 26.4644 66.8642 26.164 67.0109 25.902L66.8364 25.8043ZM66.7383 26.7186L66.0196 26.3174L65.9221 26.4921L66.6409 26.8933L66.7383 26.7186ZM66.0708 26.4048C66.0708 25.8068 66.2011 25.2839 66.4588 24.8329L66.2852 24.7337C66.008 25.2188 65.8708 25.7769 65.8708 26.4048H66.0708ZM66.4593 24.8321C66.7181 24.3685 67.0729 24.0085 67.5249 23.7502L67.4256 23.5766C66.9415 23.8532 66.5608 24.2398 66.2847 24.7346L66.4593 24.8321ZM67.5255 23.7498C67.9884 23.4807 68.5058 23.3455 69.0799 23.3455V23.1455C68.4729 23.1455 67.9204 23.2889 67.425 23.5769L67.5255 23.7498ZM69.0799 23.3455C69.6664 23.3455 70.1838 23.4756 70.635 23.7335L70.7343 23.5598C70.2494 23.2828 69.697 23.1455 69.0799 23.1455V23.3455ZM70.635 23.7335C71.087 23.9917 71.4418 24.3518 71.7006 24.8154L71.8752 24.7179C71.5991 24.2231 71.2184 23.8365 70.7343 23.5598L70.635 23.7335ZM71.7011 24.8162C71.9586 25.2669 72.0891 25.7953 72.0891 26.4048H72.2891C72.2891 25.7661 72.1521 25.2024 71.8747 24.717L71.7011 24.8162ZM72.0891 26.4048V31.4362H72.2891V26.4048H72.0891ZM72.1891 31.3362H70.3503V31.5362H72.1891V31.3362ZM64.9509 31.4362V19.7142H64.7509V31.4362H64.9509ZM64.8509 19.8142H66.6896V19.6142H64.8509V19.8142ZM66.5896 19.7142V31.4362H66.7896V19.7142H66.5896ZM66.6896 31.3362H64.8509V31.5362H66.6896V31.3362ZM78.8965 31.5034C78.1095 31.5034 77.402 31.3286 76.7717 30.9809L76.6751 31.156C77.3375 31.5215 78.0787 31.7034 78.8965 31.7034V31.5034ZM76.7735 30.9819C76.1532 30.6228 75.6584 30.1335 75.2882 29.5128L75.1164 29.6153C75.504 30.265 76.0233 30.7786 76.6733 31.155L76.7735 30.9819ZM75.2888 29.5139C74.9306 28.8951 74.7507 28.1995 74.7507 27.4244H74.5507C74.5507 28.2318 74.7385 28.9625 75.1158 29.6141L75.2888 29.5139ZM74.7507 27.4244C74.7507 26.6494 74.9306 25.9596 75.2885 25.3523L75.1161 25.2508C74.7385 25.8916 74.5507 26.6171 74.5507 27.4244H74.7507ZM75.2888 25.3516C75.6481 24.7311 76.1318 24.2421 76.7408 23.8833L76.6392 23.711C76.0001 24.0876 75.492 24.6015 75.1158 25.2514L75.2888 25.3516ZM76.7401 23.8836C77.3593 23.5251 78.044 23.3455 78.7962 23.3455V23.1455C78.0105 23.1455 77.2911 23.3336 76.6399 23.7106L76.7401 23.8836ZM78.7962 23.3455C79.5268 23.3455 80.1659 23.5143 80.7167 23.8491L80.8206 23.6782C80.2347 23.3221 79.5588 23.1455 78.7962 23.1455V23.3455ZM80.7174 23.8496C81.2811 24.1856 81.7198 24.6458 82.0345 25.2318L82.2107 25.1372C81.8791 24.5197 81.4151 24.0326 80.8198 23.6778L80.7174 23.8496ZM82.0352 25.2331C82.3603 25.8183 82.5241 26.4866 82.5241 27.2405H82.7241C82.7241 26.4567 82.5535 25.7542 82.21 25.1359L82.0352 25.2331ZM82.5241 27.2405C82.5241 27.3687 82.5134 27.5029 82.4918 27.6432L82.6895 27.6736C82.7125 27.5242 82.7241 27.3798 82.7241 27.2405H82.5241ZM82.491 27.6501C82.4802 27.7792 82.4586 27.9258 82.4257 28.0902L82.6219 28.1294C82.6558 27.9594 82.6788 27.8051 82.6903 27.6667L82.491 27.6501ZM82.5238 28.0098H75.9378V28.2098H82.5238V28.0098ZM76.0378 28.1098V26.6053H75.8378V28.1098H76.0378ZM75.9378 26.7053H81.571V26.5053H75.9378V26.7053ZM81.505 26.5302L80.8197 27.132L80.9516 27.2823L81.637 26.6805L81.505 26.5302ZM80.9855 27.2026C80.9628 26.7024 80.866 26.2755 80.6909 25.9254L80.512 26.0149C80.6713 26.3334 80.7639 26.7311 80.7858 27.2117L80.9855 27.2026ZM80.6909 25.9254C80.5153 25.5742 80.2622 25.3029 79.9323 25.1144L79.8331 25.2881C80.1273 25.4561 80.3533 25.6975 80.512 26.0149L80.6909 25.9254ZM79.9337 25.1152C79.6137 24.9256 79.2216 24.8338 78.7628 24.8338V25.0338C79.1954 25.0338 79.55 25.1203 79.8317 25.2873L79.9337 25.1152ZM78.7628 24.8338C78.2801 24.8338 77.8554 24.9373 77.4923 25.1482L77.5927 25.3211C77.9205 25.1308 78.3093 25.0338 78.7628 25.0338V24.8338ZM77.4923 25.1482C77.1297 25.3587 76.8491 25.6573 76.6513 26.0414L76.829 26.133C77.0101 25.7815 77.2644 25.5118 77.5927 25.3211L77.4923 25.1482ZM76.6518 26.0402C76.4531 26.4144 76.356 26.8603 76.356 27.3743H76.556C76.556 26.8853 76.6483 26.4731 76.8285 26.1341L76.6518 26.0402ZM76.356 27.3743C76.356 27.8893 76.4591 28.346 76.6685 28.7416L76.8452 28.648C76.6535 28.2858 76.556 27.8622 76.556 27.3743H76.356ZM76.6685 28.7416C76.8778 29.137 77.1752 29.4462 77.5595 29.6674L77.6593 29.4941C77.308 29.2919 77.0371 29.0104 76.8452 28.648L76.6685 28.7416ZM77.5615 29.6685C77.9459 29.8782 78.3863 29.9816 78.8798 29.9816V29.7816C78.4149 29.7816 78.0083 29.6844 77.6573 29.493L77.5615 29.6685ZM78.8798 29.9816C79.304 29.9816 79.6962 29.907 80.0551 29.7565L79.9778 29.5721C79.6457 29.7113 79.2801 29.7816 78.8798 29.7816V29.9816ZM80.0541 29.757C80.4245 29.6065 80.7384 29.3859 80.9942 29.0952L80.844 28.9631C80.6095 29.2296 80.3216 29.4324 79.9788 29.5717L80.0541 29.757ZM80.8479 29.0993L82.018 30.2862L82.1604 30.1457L80.9903 28.9589L80.8479 29.0993ZM82.0131 30.151C81.6333 30.596 81.1725 30.9321 80.6296 31.1601L80.7071 31.3445C81.2786 31.1045 81.765 30.7497 82.1652 30.2809L82.0131 30.151ZM80.6296 31.1601C80.0851 31.3888 79.5077 31.5034 78.8965 31.5034V31.7034C79.5334 31.7034 80.1372 31.5839 80.7071 31.3445L80.6296 31.1601ZM88.8868 31.5034C88.1232 31.5034 87.433 31.3236 86.814 30.9652L86.7138 31.1383C87.3652 31.5154 88.0903 31.7034 88.8868 31.7034V31.5034ZM86.8152 30.9659C86.1942 30.5955 85.6991 30.1003 85.3287 29.4794L85.1569 29.5818C85.5443 30.2313 86.0633 30.7502 86.7127 31.1376L86.8152 30.9659ZM85.3293 29.4805C84.971 28.8615 84.7912 28.1713 84.7912 27.4077H84.5912C84.5912 28.2042 84.7791 28.9293 85.1563 29.5807L85.3293 29.4805ZM84.7912 27.4077C84.7912 26.6441 84.971 25.9598 85.329 25.3523L85.1566 25.2508C84.7791 25.8914 84.5912 26.6112 84.5912 27.4077H84.7912ZM85.3283 25.3534C85.6984 24.7438 86.1933 24.2598 86.814 23.9004L86.7138 23.7273C86.0642 24.1034 85.545 24.6112 85.1573 25.2496L85.3283 25.3534ZM86.8152 23.8997C87.434 23.5306 88.1238 23.3455 88.8868 23.3455V23.1455C88.0898 23.1455 87.3643 23.3393 86.7127 23.7279L86.8152 23.8997ZM88.8868 23.3455C89.6619 23.3455 90.3576 23.5254 90.9763 23.8836L91.0765 23.7106C90.4249 23.3333 89.6942 23.1455 88.8868 23.1455V23.3455ZM90.9763 23.8836C91.5964 24.2426 92.0853 24.7315 92.4443 25.3516L92.6174 25.2514C92.2409 24.6011 91.7269 24.0871 91.0765 23.7106L90.9763 23.8836ZM92.4454 25.3534C92.8141 25.9608 92.9992 26.6446 92.9992 27.4077H93.1992C93.1992 26.6106 93.0054 25.8904 92.6163 25.2496L92.4454 25.3534ZM92.9992 27.4077C92.9992 28.1708 92.8141 28.8605 92.445 29.4794L92.6167 29.5818C93.0054 28.9303 93.1992 28.2048 93.1992 27.4077H92.9992ZM92.4443 29.4805C92.0852 30.1008 91.5959 30.5956 90.9752 30.9659L91.0777 31.1376C91.7274 30.7501 92.2411 30.2308 92.6174 29.5807L92.4443 29.4805ZM90.9763 30.9652C90.3576 31.3234 89.6619 31.5034 88.8868 31.5034V31.7034C89.6942 31.7034 90.4249 31.5155 91.0765 31.1383L90.9763 30.9652ZM88.8868 29.9315C89.3588 29.9315 89.7778 29.8277 90.1406 29.6171L90.0402 29.4441C89.712 29.6346 89.3287 29.7315 88.8868 29.7315V29.9315ZM90.1414 29.6166C90.5141 29.3953 90.8003 29.0917 90.9983 28.7072L90.8205 28.6156C90.6397 28.9666 90.3798 29.2424 90.0393 29.4446L90.1414 29.6166ZM90.9972 28.7093C91.2067 28.3252 91.3103 27.8905 91.3103 27.4077H91.1103C91.1103 27.861 91.0133 28.2621 90.8216 28.6135L90.9972 28.7093ZM91.3103 27.4077C91.3103 26.925 91.2068 26.4953 90.9966 26.1217L90.8223 26.2198C91.0133 26.5594 91.1103 26.9543 91.1103 27.4077H91.3103ZM90.9966 26.1217C90.7875 25.7499 90.5019 25.4583 90.1406 25.2485L90.0402 25.4214C90.3698 25.6128 90.6302 25.8783 90.8223 26.2198L90.9966 26.1217ZM90.1426 25.2497C89.7795 25.0271 89.3598 24.9174 88.8868 24.9174V25.1174C89.3277 25.1174 89.7103 25.2193 90.0381 25.4202L90.1426 25.2497ZM88.8868 24.9174C88.4245 24.9174 88.0055 25.0274 87.6322 25.249L87.7344 25.4209C88.0744 25.2191 88.4577 25.1174 88.8868 25.1174V24.9174ZM87.6331 25.2485C87.2718 25.4583 86.9862 25.7499 86.7771 26.1217L86.9514 26.2198C87.1434 25.8783 87.4039 25.6128 87.7335 25.4214L87.6331 25.2485ZM86.7759 26.1238C86.5777 26.497 86.4801 26.9259 86.4801 27.4077H86.6801C86.6801 26.9534 86.7719 26.5577 86.9525 26.2177L86.7759 26.1238ZM86.4801 27.4077C86.4801 27.8896 86.5777 28.3235 86.7753 28.7072L86.9531 28.6156C86.7719 28.2638 86.6801 27.8619 86.6801 27.4077H86.4801ZM86.7764 28.7093C86.9851 29.0918 87.2702 29.3947 87.631 29.6159L87.7356 29.4453C87.4055 29.2431 87.1445 28.9664 86.952 28.6135L86.7764 28.7093ZM87.6343 29.6178C88.0072 29.8275 88.4255 29.9315 88.8868 29.9315V29.7315C88.4567 29.7315 88.0726 29.6349 87.7323 29.4434L87.6343 29.6178ZM95.3318 31.4362V23.4126H95.1318V31.4362H95.3318ZM95.2318 23.5126H97.0706V23.3126H95.2318V23.5126ZM97.0706 31.3362H95.2318V31.5362H97.0706V31.3362ZM105.571 31.4808L102.144 23.3737L101.96 23.4516L105.387 31.5587L105.571 31.4808ZM102.052 23.5126H104.075V23.3126H102.052V23.5126ZM103.981 23.4492L106.322 29.4L106.508 29.3268L104.168 23.376L103.981 23.4492ZM106.415 29.2634H105.83V29.4634H106.415V29.2634ZM105.922 29.4018L108.396 23.451L108.211 23.3743L105.737 29.3251L105.922 29.4018ZM108.304 23.5126H110.343V23.3126H108.304V23.5126ZM110.252 23.3709L106.524 31.478L106.706 31.5615L110.434 23.4544L110.252 23.3709ZM106.615 31.4198H105.479V31.6198H106.615V31.4198ZM103.178 34.823L105.669 29.6913L105.489 29.6039L102.998 34.7357L103.178 34.823ZM105.491 29.696L106.528 31.5682L106.703 31.4713L105.666 29.5992L105.491 29.696ZM106.524 31.4783L105.037 34.7378L105.219 34.8209L106.706 31.5613L106.524 31.4783ZM105.128 34.6793H103.088V34.8793H105.128V34.6793ZM97.0706 23.5126H100.063V23.3126H97.0706V23.5126ZM99.9628 23.4126V25.1845H100.163V23.4126H99.9628ZM96.9706 25.1845V31.4362H97.1706V25.1845H96.9706ZM100.063 25.0845H97.0706V25.2845H100.063V25.0845Z" fill="#1D2032" mask="url(#path-2-outside-1_254_6181)"/>
<mask id="path-4-outside-2_254_6181" maskUnits="userSpaceOnUse" x="53.5833" y="4.29712" width="44" height="13" fill="black">
<rect fill="white" x="53.5833" y="4.29712" width="44" height="13"/>
<path d="M55.9039 16.9981V15.3266H59.2637C59.8543 15.3266 60.3112 15.1427 60.6344 14.7749C60.9576 14.4072 61.1192 13.9837 61.1192 13.5045C61.1192 13.1814 61.0467 12.8805 60.9019 12.6019C60.757 12.3233 60.5453 12.1004 60.2667 11.9333C59.9881 11.7661 59.6538 11.6825 59.2637 11.6825H55.9039V10.011H58.9796C59.481 10.011 59.8822 9.8828 60.1831 9.6265C60.484 9.37019 60.6344 8.9913 60.6344 8.48983C60.6344 7.98835 60.484 7.60946 60.1831 7.35316C59.8822 7.09685 59.481 6.96869 58.9796 6.96869H55.9039V5.29712H59.0297C59.8209 5.29712 60.4784 5.44199 61.0022 5.73173C61.5259 6.02147 61.9159 6.39479 62.1723 6.85168C62.4286 7.30858 62.5567 7.79891 62.5567 8.32267C62.5567 8.93558 62.384 9.47605 62.0385 9.94409C61.7042 10.4121 61.2083 10.791 60.5508 11.0808L60.7013 10.479C61.4368 10.7799 62.0107 11.2033 62.423 11.7494C62.8353 12.2954 63.0415 12.9362 63.0415 13.6717C63.0415 14.2735 62.891 14.8251 62.5901 15.3266C62.3004 15.828 61.8658 16.2348 61.2863 16.5468C60.718 16.8477 60.0159 16.9981 59.1801 16.9981H55.9039ZM54.5833 16.9981V5.29712H56.5056V16.9981H54.5833Z"/>
<path d="M69.2021 17.1653C68.4777 17.1653 67.8203 16.9814 67.2296 16.6137C66.6502 16.2459 66.1877 15.75 65.8422 15.126C65.5079 14.4908 65.3408 13.7831 65.3408 13.0031C65.3408 12.2119 65.5079 11.5042 65.8422 10.8802C66.1877 10.245 66.6502 9.74351 67.2296 9.37576C67.8203 8.99687 68.4777 8.80742 69.2021 8.80742C69.815 8.80742 70.3555 8.94115 70.8235 9.2086C71.3027 9.46491 71.6816 9.82151 71.9602 10.2784C72.2388 10.7353 72.3781 11.2535 72.3781 11.833V14.1397C72.3781 14.7192 72.2388 15.2374 71.9602 15.6943C71.6927 16.1512 71.3194 16.5134 70.8402 16.7808C70.361 17.0371 69.815 17.1653 69.2021 17.1653ZM69.503 15.4269C70.1828 15.4269 70.7288 15.1984 71.1411 14.7415C71.5646 14.2846 71.7763 13.6996 71.7763 12.9864C71.7763 12.5072 71.6816 12.0837 71.4921 11.716C71.3027 11.3482 71.0353 11.064 70.6898 10.8635C70.3555 10.6517 69.9599 10.5459 69.503 10.5459C69.0572 10.5459 68.6616 10.6517 68.3162 10.8635C67.9818 11.064 67.7144 11.3482 67.5138 11.716C67.3244 12.0837 67.2296 12.5072 67.2296 12.9864C67.2296 13.4655 67.3244 13.889 67.5138 14.2568C67.7144 14.6245 67.9818 14.9142 68.3162 15.126C68.6616 15.3266 69.0572 15.4269 69.503 15.4269ZM71.6593 16.9981V14.8418L71.9769 12.8861L71.6593 10.947V8.97458H73.498V16.9981H71.6593Z"/>
<path d="M79.2743 17.1653C78.8286 17.1653 78.3995 17.1096 77.9872 16.9981C77.5749 16.8756 77.196 16.7084 76.8505 16.4967C76.5051 16.2738 76.2042 16.0063 75.9479 15.6943L77.118 14.5242C77.3966 14.8474 77.7142 15.0925 78.0708 15.2597C78.4385 15.4157 78.8509 15.4937 79.3078 15.4937C79.7201 15.4937 80.0321 15.4324 80.2438 15.3098C80.4556 15.1873 80.5614 15.009 80.5614 14.7749C80.5614 14.5298 80.4611 14.3403 80.2606 14.2066C80.06 14.0729 79.7981 13.9614 79.4749 13.8723C79.1629 13.772 78.8286 13.6717 78.472 13.5714C78.1265 13.4711 77.7922 13.3374 77.469 13.1702C77.157 12.9919 76.9007 12.7523 76.7001 12.4515C76.4995 12.1506 76.3992 11.7605 76.3992 11.2814C76.3992 10.7687 76.5162 10.3286 76.7502 9.96081C76.9954 9.59306 77.3353 9.3089 77.7699 9.10831C78.2157 8.90772 78.745 8.80742 79.3579 8.80742C80.0042 8.80742 80.5726 8.92443 81.0629 9.15845C81.5644 9.38133 81.9823 9.72122 82.3166 10.1781L81.1465 11.3482C80.9125 11.0585 80.645 10.8412 80.3441 10.6963C80.0432 10.5514 79.6978 10.479 79.3078 10.479C78.94 10.479 78.6558 10.5347 78.4553 10.6462C78.2547 10.7576 78.1544 10.9192 78.1544 11.1309C78.1544 11.3538 78.2547 11.5265 78.4553 11.6491C78.6558 11.7717 78.9122 11.8775 79.2242 11.9667C79.5473 12.0558 79.8817 12.1561 80.2271 12.2676C80.5837 12.3679 80.918 12.5127 81.2301 12.7022C81.5532 12.8805 81.8151 13.1257 82.0157 13.4377C82.2163 13.7386 82.3166 14.1342 82.3166 14.6245C82.3166 15.4046 82.0436 16.0231 81.4975 16.4799C80.9515 16.9368 80.2104 17.1653 79.2743 17.1653Z"/>
<path d="M85.9006 16.9981V10.6963V8.97458H87.7394V16.9981H85.9006ZM86.82 7.5036C86.508 7.5036 86.2461 7.39773 86.0344 7.186C85.8338 6.97427 85.7335 6.71239 85.7335 6.40036C85.7335 6.08833 85.8338 5.82645 86.0344 5.61472C86.2461 5.40299 86.508 5.29712 86.82 5.29712C87.1432 5.29712 87.4051 5.40299 87.6057 5.61472C87.8062 5.82645 87.9065 6.08833 87.9065 6.40036C87.9065 6.71239 87.8062 6.97427 87.6057 7.186C87.4051 7.39773 87.1432 7.5036 86.82 7.5036Z"/>
<path d="M93.5373 17.1653C93.0916 17.1653 92.6626 17.1096 92.2502 16.9981C91.8379 16.8756 91.459 16.7084 91.1136 16.4967C90.7681 16.2738 90.4672 16.0063 90.2109 15.6943L91.381 14.5242C91.6596 14.8474 91.9772 15.0925 92.3338 15.2597C92.7016 15.4157 93.1139 15.4937 93.5708 15.4937C93.9831 15.4937 94.2951 15.4324 94.5069 15.3098C94.7186 15.1873 94.8245 15.009 94.8245 14.7749C94.8245 14.5298 94.7242 14.3403 94.5236 14.2066C94.323 14.0729 94.0611 13.9614 93.7379 13.8723C93.4259 13.772 93.0916 13.6717 92.735 13.5714C92.3895 13.4711 92.0552 13.3374 91.732 13.1702C91.42 12.9919 91.1637 12.7523 90.9631 12.4515C90.7625 12.1506 90.6622 11.7605 90.6622 11.2814C90.6622 10.7687 90.7793 10.3286 91.0133 9.96081C91.2584 9.59306 91.5983 9.3089 92.0329 9.10831C92.4787 8.90772 93.008 8.80742 93.6209 8.80742C94.2673 8.80742 94.8356 8.92443 95.3259 9.15845C95.8274 9.38133 96.2453 9.72122 96.5796 10.1781L95.4095 11.3482C95.1755 11.0585 94.908 10.8412 94.6072 10.6963C94.3063 10.5514 93.9608 10.479 93.5708 10.479C93.203 10.479 92.9189 10.5347 92.7183 10.6462C92.5177 10.7576 92.4174 10.9192 92.4174 11.1309C92.4174 11.3538 92.5177 11.5265 92.7183 11.6491C92.9189 11.7717 93.1752 11.8775 93.4872 11.9667C93.8104 12.0558 94.1447 12.1561 94.4901 12.2676C94.8467 12.3679 95.1811 12.5127 95.4931 12.7022C95.8163 12.8805 96.0781 13.1257 96.2787 13.4377C96.4793 13.7386 96.5796 14.1342 96.5796 14.6245C96.5796 15.4046 96.3066 16.0231 95.7605 16.4799C95.2145 16.9368 94.4734 17.1653 93.5373 17.1653Z"/>
<path d="M85.9006 10.6963V8.97458H84.4378V10.6963H85.9006Z"/>
</mask>
<path d="M55.9039 16.9981V15.3266H59.2637C59.8543 15.3266 60.3112 15.1427 60.6344 14.7749C60.9576 14.4072 61.1192 13.9837 61.1192 13.5045C61.1192 13.1814 61.0467 12.8805 60.9019 12.6019C60.757 12.3233 60.5453 12.1004 60.2667 11.9333C59.9881 11.7661 59.6538 11.6825 59.2637 11.6825H55.9039V10.011H58.9796C59.481 10.011 59.8822 9.8828 60.1831 9.6265C60.484 9.37019 60.6344 8.9913 60.6344 8.48983C60.6344 7.98835 60.484 7.60946 60.1831 7.35316C59.8822 7.09685 59.481 6.96869 58.9796 6.96869H55.9039V5.29712H59.0297C59.8209 5.29712 60.4784 5.44199 61.0022 5.73173C61.5259 6.02147 61.9159 6.39479 62.1723 6.85168C62.4286 7.30858 62.5567 7.79891 62.5567 8.32267C62.5567 8.93558 62.384 9.47605 62.0385 9.94409C61.7042 10.4121 61.2083 10.791 60.5508 11.0808L60.7013 10.479C61.4368 10.7799 62.0107 11.2033 62.423 11.7494C62.8353 12.2954 63.0415 12.9362 63.0415 13.6717C63.0415 14.2735 62.891 14.8251 62.5901 15.3266C62.3004 15.828 61.8658 16.2348 61.2863 16.5468C60.718 16.8477 60.0159 16.9981 59.1801 16.9981H55.9039ZM54.5833 16.9981V5.29712H56.5056V16.9981H54.5833Z" fill="#1D2032"/>
<path d="M69.2021 17.1653C68.4777 17.1653 67.8203 16.9814 67.2296 16.6137C66.6502 16.2459 66.1877 15.75 65.8422 15.126C65.5079 14.4908 65.3408 13.7831 65.3408 13.0031C65.3408 12.2119 65.5079 11.5042 65.8422 10.8802C66.1877 10.245 66.6502 9.74351 67.2296 9.37576C67.8203 8.99687 68.4777 8.80742 69.2021 8.80742C69.815 8.80742 70.3555 8.94115 70.8235 9.2086C71.3027 9.46491 71.6816 9.82151 71.9602 10.2784C72.2388 10.7353 72.3781 11.2535 72.3781 11.833V14.1397C72.3781 14.7192 72.2388 15.2374 71.9602 15.6943C71.6927 16.1512 71.3194 16.5134 70.8402 16.7808C70.361 17.0371 69.815 17.1653 69.2021 17.1653ZM69.503 15.4269C70.1828 15.4269 70.7288 15.1984 71.1411 14.7415C71.5646 14.2846 71.7763 13.6996 71.7763 12.9864C71.7763 12.5072 71.6816 12.0837 71.4921 11.716C71.3027 11.3482 71.0353 11.064 70.6898 10.8635C70.3555 10.6517 69.9599 10.5459 69.503 10.5459C69.0572 10.5459 68.6616 10.6517 68.3162 10.8635C67.9818 11.064 67.7144 11.3482 67.5138 11.716C67.3244 12.0837 67.2296 12.5072 67.2296 12.9864C67.2296 13.4655 67.3244 13.889 67.5138 14.2568C67.7144 14.6245 67.9818 14.9142 68.3162 15.126C68.6616 15.3266 69.0572 15.4269 69.503 15.4269ZM71.6593 16.9981V14.8418L71.9769 12.8861L71.6593 10.947V8.97458H73.498V16.9981H71.6593Z" fill="#1D2032"/>
<path d="M79.2743 17.1653C78.8286 17.1653 78.3995 17.1096 77.9872 16.9981C77.5749 16.8756 77.196 16.7084 76.8505 16.4967C76.5051 16.2738 76.2042 16.0063 75.9479 15.6943L77.118 14.5242C77.3966 14.8474 77.7142 15.0925 78.0708 15.2597C78.4385 15.4157 78.8509 15.4937 79.3078 15.4937C79.7201 15.4937 80.0321 15.4324 80.2438 15.3098C80.4556 15.1873 80.5614 15.009 80.5614 14.7749C80.5614 14.5298 80.4611 14.3403 80.2606 14.2066C80.06 14.0729 79.7981 13.9614 79.4749 13.8723C79.1629 13.772 78.8286 13.6717 78.472 13.5714C78.1265 13.4711 77.7922 13.3374 77.469 13.1702C77.157 12.9919 76.9007 12.7523 76.7001 12.4515C76.4995 12.1506 76.3992 11.7605 76.3992 11.2814C76.3992 10.7687 76.5162 10.3286 76.7502 9.96081C76.9954 9.59306 77.3353 9.3089 77.7699 9.10831C78.2157 8.90772 78.745 8.80742 79.3579 8.80742C80.0042 8.80742 80.5726 8.92443 81.0629 9.15845C81.5644 9.38133 81.9823 9.72122 82.3166 10.1781L81.1465 11.3482C80.9125 11.0585 80.645 10.8412 80.3441 10.6963C80.0432 10.5514 79.6978 10.479 79.3078 10.479C78.94 10.479 78.6558 10.5347 78.4553 10.6462C78.2547 10.7576 78.1544 10.9192 78.1544 11.1309C78.1544 11.3538 78.2547 11.5265 78.4553 11.6491C78.6558 11.7717 78.9122 11.8775 79.2242 11.9667C79.5473 12.0558 79.8817 12.1561 80.2271 12.2676C80.5837 12.3679 80.918 12.5127 81.2301 12.7022C81.5532 12.8805 81.8151 13.1257 82.0157 13.4377C82.2163 13.7386 82.3166 14.1342 82.3166 14.6245C82.3166 15.4046 82.0436 16.0231 81.4975 16.4799C80.9515 16.9368 80.2104 17.1653 79.2743 17.1653Z" fill="#1D2032"/>
<path d="M85.9006 16.9981V10.6963V8.97458H87.7394V16.9981H85.9006ZM86.82 7.5036C86.508 7.5036 86.2461 7.39773 86.0344 7.186C85.8338 6.97427 85.7335 6.71239 85.7335 6.40036C85.7335 6.08833 85.8338 5.82645 86.0344 5.61472C86.2461 5.40299 86.508 5.29712 86.82 5.29712C87.1432 5.29712 87.4051 5.40299 87.6057 5.61472C87.8062 5.82645 87.9065 6.08833 87.9065 6.40036C87.9065 6.71239 87.8062 6.97427 87.6057 7.186C87.4051 7.39773 87.1432 7.5036 86.82 7.5036Z" fill="#1D2032"/>
<path d="M93.5373 17.1653C93.0916 17.1653 92.6626 17.1096 92.2502 16.9981C91.8379 16.8756 91.459 16.7084 91.1136 16.4967C90.7681 16.2738 90.4672 16.0063 90.2109 15.6943L91.381 14.5242C91.6596 14.8474 91.9772 15.0925 92.3338 15.2597C92.7016 15.4157 93.1139 15.4937 93.5708 15.4937C93.9831 15.4937 94.2951 15.4324 94.5069 15.3098C94.7186 15.1873 94.8245 15.009 94.8245 14.7749C94.8245 14.5298 94.7242 14.3403 94.5236 14.2066C94.323 14.0729 94.0611 13.9614 93.7379 13.8723C93.4259 13.772 93.0916 13.6717 92.735 13.5714C92.3895 13.4711 92.0552 13.3374 91.732 13.1702C91.42 12.9919 91.1637 12.7523 90.9631 12.4515C90.7625 12.1506 90.6622 11.7605 90.6622 11.2814C90.6622 10.7687 90.7793 10.3286 91.0133 9.96081C91.2584 9.59306 91.5983 9.3089 92.0329 9.10831C92.4787 8.90772 93.008 8.80742 93.6209 8.80742C94.2673 8.80742 94.8356 8.92443 95.3259 9.15845C95.8274 9.38133 96.2453 9.72122 96.5796 10.1781L95.4095 11.3482C95.1755 11.0585 94.908 10.8412 94.6072 10.6963C94.3063 10.5514 93.9608 10.479 93.5708 10.479C93.203 10.479 92.9189 10.5347 92.7183 10.6462C92.5177 10.7576 92.4174 10.9192 92.4174 11.1309C92.4174 11.3538 92.5177 11.5265 92.7183 11.6491C92.9189 11.7717 93.1752 11.8775 93.4872 11.9667C93.8104 12.0558 94.1447 12.1561 94.4901 12.2676C94.8467 12.3679 95.1811 12.5127 95.4931 12.7022C95.8163 12.8805 96.0781 13.1257 96.2787 13.4377C96.4793 13.7386 96.5796 14.1342 96.5796 14.6245C96.5796 15.4046 96.3066 16.0231 95.7605 16.4799C95.2145 16.9368 94.4734 17.1653 93.5373 17.1653Z" fill="#1D2032"/>
<path d="M85.9006 10.6963V8.97458H84.4378V10.6963H85.9006Z" fill="#1D2032"/>
<path d="M85.9506 10.6963V8.97458H85.8506V10.6963H85.9506ZM55.9039 16.9981H55.8039V17.0981H55.9039V16.9981ZM55.9039 15.3266V15.2266H55.8039V15.3266H55.9039ZM60.6344 14.7749L60.7095 14.841L60.6344 14.7749ZM60.9019 12.6019L60.9906 12.5558V12.5558L60.9019 12.6019ZM60.2667 11.9333L60.2152 12.019H60.2152L60.2667 11.9333ZM55.9039 11.6825H55.8039V11.7825H55.9039V11.6825ZM55.9039 10.011V9.91096H55.8039V10.011H55.9039ZM55.9039 6.96869H55.8039V7.06869H55.9039V6.96869ZM55.9039 5.29712V5.19712H55.8039V5.29712H55.9039ZM61.0022 5.73173L60.9537 5.81923L61.0022 5.73173ZM62.1723 6.85168L62.2595 6.80276V6.80276L62.1723 6.85168ZM62.0385 9.94409L61.9581 9.8847L61.9572 9.88597L62.0385 9.94409ZM60.5508 11.0808L60.4538 11.0565L60.4043 11.2546L60.5912 11.1723L60.5508 11.0808ZM60.7013 10.479L60.7391 10.3864L60.6323 10.3427L60.6043 10.4547L60.7013 10.479ZM62.5901 15.3266L62.5044 15.2751L62.5036 15.2765L62.5901 15.3266ZM61.2863 16.5468L61.3331 16.6352L61.3337 16.6349L61.2863 16.5468ZM54.5833 16.9981H54.4833V17.0981H54.5833V16.9981ZM54.5833 5.29712V5.19712H54.4833V5.29712H54.5833ZM56.5056 5.29712H56.6056V5.19712H56.5056V5.29712ZM56.5056 16.9981V17.0981H56.6056V16.9981H56.5056ZM67.2296 16.6137L67.1761 16.6981L67.1768 16.6986L67.2296 16.6137ZM65.8422 15.126L65.7537 15.1726L65.7547 15.1744L65.8422 15.126ZM65.8422 10.8802L65.7544 10.8324L65.7541 10.833L65.8422 10.8802ZM67.2296 9.37576L67.2832 9.46019L67.2836 9.45993L67.2296 9.37576ZM70.8235 9.2086L70.7739 9.29546L70.7764 9.29678L70.8235 9.2086ZM71.9602 10.2784L71.8748 10.3305L71.9602 10.2784ZM71.9602 15.6943L71.8748 15.6422L71.8739 15.6438L71.9602 15.6943ZM70.8402 16.7808L70.8874 16.869L70.889 16.8681L70.8402 16.7808ZM71.1411 14.7415L71.0678 14.6735L71.0669 14.6745L71.1411 14.7415ZM70.6898 10.8635L70.6363 10.948L70.6396 10.9499L70.6898 10.8635ZM68.3162 10.8635L68.3676 10.9492L68.3684 10.9487L68.3162 10.8635ZM67.5138 11.716L67.426 11.6681L67.4249 11.6702L67.5138 11.716ZM67.5138 14.2568L67.4249 14.3026L67.426 14.3046L67.5138 14.2568ZM68.3162 15.126L68.2626 15.2105L68.2659 15.2125L68.3162 15.126ZM71.6593 16.9981H71.5593V17.0981H71.6593V16.9981ZM71.6593 14.8418L71.5606 14.8258L71.5593 14.8337V14.8418H71.6593ZM71.9769 12.8861L72.0756 12.9021L72.0782 12.886L72.0756 12.8699L71.9769 12.8861ZM71.6593 10.947H71.5593V10.9552L71.5606 10.9632L71.6593 10.947ZM71.6593 8.97458V8.87458H71.5593V8.97458H71.6593ZM73.498 8.97458H73.598V8.87458H73.498V8.97458ZM73.498 16.9981V17.0981H73.598V16.9981H73.498ZM77.9872 16.9981L77.9587 17.094L77.9611 17.0947L77.9872 16.9981ZM76.8505 16.4967L76.7963 16.5807L76.7983 16.5819L76.8505 16.4967ZM75.9479 15.6943L75.8772 15.6236L75.8131 15.6877L75.8706 15.7578L75.9479 15.6943ZM77.118 14.5242L77.1937 14.4589L77.1234 14.3774L77.0473 14.4535L77.118 14.5242ZM78.0708 15.2597L78.0283 15.3503L78.0317 15.3518L78.0708 15.2597ZM80.2438 15.3098L80.2939 15.3964L80.2438 15.3098ZM80.2606 14.2066L80.316 14.1234L80.2606 14.2066ZM79.4749 13.8723L79.4443 13.9676L79.4483 13.9687L79.4749 13.8723ZM78.472 13.5714L78.4441 13.6674L78.4449 13.6677L78.472 13.5714ZM77.469 13.1702L77.4194 13.2571L77.4231 13.2591L77.469 13.1702ZM76.7502 9.96081L76.667 9.90533L76.6659 9.90712L76.7502 9.96081ZM77.7699 9.10831L77.7289 9.01711L77.728 9.01751L77.7699 9.10831ZM81.0629 9.15845L81.0198 9.24874L81.0223 9.24984L81.0629 9.15845ZM82.3166 10.1781L82.3873 10.2488L82.4479 10.1882L82.3973 10.1191L82.3166 10.1781ZM81.1465 11.3482L81.0687 11.411L81.1386 11.4976L81.2172 11.4189L81.1465 11.3482ZM80.3441 10.6963L80.3008 10.7864L80.3441 10.6963ZM78.4553 10.6462L78.4067 10.5587H78.4067L78.4553 10.6462ZM78.4553 11.6491L78.5074 11.5638L78.4553 11.6491ZM79.2242 11.9667L79.1967 12.0629L79.1976 12.0631L79.2242 11.9667ZM80.2271 12.2676L80.1964 12.3628L80.2 12.3638L80.2271 12.2676ZM81.2301 12.7022L81.1781 12.7877L81.1818 12.7897L81.2301 12.7022ZM82.0157 13.4377L81.9316 13.4918L81.9325 13.4932L82.0157 13.4377ZM81.4975 16.4799L81.5617 16.5566L81.4975 16.4799ZM85.9006 16.9981H85.8006V17.0981H85.9006V16.9981ZM87.7394 8.97458H87.8394V8.87458H87.7394V8.97458ZM87.7394 16.9981V17.0981H87.8394V16.9981H87.7394ZM86.0344 7.186L85.9618 7.2548L85.9637 7.25671L86.0344 7.186ZM86.0344 5.61472L85.9636 5.54398L85.9618 5.54594L86.0344 5.61472ZM87.6057 5.61472L87.5331 5.68349V5.68349L87.6057 5.61472ZM87.6057 7.186L87.5331 7.11722L87.6057 7.186ZM92.2502 16.9981L92.2217 17.094L92.2241 17.0947L92.2502 16.9981ZM91.1136 16.4967L91.0593 16.5807L91.0613 16.5819L91.1136 16.4967ZM90.2109 15.6943L90.1402 15.6236L90.0761 15.6877L90.1336 15.7578L90.2109 15.6943ZM91.381 14.5242L91.4568 14.4589L91.3864 14.3774L91.3103 14.4535L91.381 14.5242ZM92.3338 15.2597L92.2913 15.3503L92.2948 15.3518L92.3338 15.2597ZM94.5069 15.3098L94.557 15.3964L94.5069 15.3098ZM94.5236 14.2066L94.579 14.1234L94.5236 14.2066ZM93.7379 13.8723L93.7073 13.9676L93.7113 13.9687L93.7379 13.8723ZM92.735 13.5714L92.7071 13.6674L92.7079 13.6677L92.735 13.5714ZM91.732 13.1702L91.6824 13.2571L91.6861 13.2591L91.732 13.1702ZM91.0133 9.96081L90.93 9.90533L90.9289 9.90712L91.0133 9.96081ZM92.0329 9.10831L91.9919 9.01711L91.991 9.01751L92.0329 9.10831ZM95.3259 9.15845L95.2828 9.24874L95.2853 9.24984L95.3259 9.15845ZM96.5796 10.1781L96.6503 10.2488L96.7109 10.1882L96.6603 10.1191L96.5796 10.1781ZM95.4095 11.3482L95.3317 11.411L95.4016 11.4976L95.4802 11.4189L95.4095 11.3482ZM94.6072 10.6963L94.5638 10.7864L94.6072 10.6963ZM92.7183 10.6462L92.6697 10.5587L92.7183 10.6462ZM92.7183 11.6491L92.7704 11.5638L92.7183 11.6491ZM93.4872 11.9667L93.4597 12.0629L93.4606 12.0631L93.4872 11.9667ZM94.4901 12.2676L94.4594 12.3628L94.4631 12.3638L94.4901 12.2676ZM95.4931 12.7022L95.4412 12.7877L95.4448 12.7897L95.4931 12.7022ZM96.2787 13.4377L96.1946 13.4918L96.1955 13.4932L96.2787 13.4377ZM95.7605 16.4799L95.8247 16.5566L95.7605 16.4799ZM85.9006 10.6963H86.0006V10.5963H85.9006V10.6963ZM84.4378 10.6963H84.3378V10.7963H84.4378V10.6963ZM84.4378 8.97458V8.87458H84.3378V8.97458H84.4378ZM56.0039 16.9981V15.3266H55.8039V16.9981H56.0039ZM55.9039 15.4266H59.2637V15.2266H55.9039V15.4266ZM59.2637 15.4266C59.8766 15.4266 60.3635 15.2347 60.7095 14.841L60.5593 14.7089C60.259 15.0506 59.8321 15.2266 59.2637 15.2266V15.4266ZM60.7095 14.841C61.0484 14.4554 61.2192 14.0086 61.2192 13.5045H61.0192C61.0192 13.9589 60.8668 14.359 60.5593 14.7089L60.7095 14.841ZM61.2192 13.5045C61.2192 13.1658 61.1431 12.849 60.9906 12.5558L60.8131 12.648C60.9504 12.912 61.0192 13.197 61.0192 13.5045H61.2192ZM60.9906 12.5558C60.8369 12.2602 60.612 12.0238 60.3181 11.8475L60.2152 12.019C60.4785 12.177 60.6771 12.3864 60.8131 12.648L60.9906 12.5558ZM60.3181 11.8475C60.0211 11.6693 59.6682 11.5825 59.2637 11.5825V11.7825C59.6393 11.7825 59.955 11.8629 60.2152 12.019L60.3181 11.8475ZM59.2637 11.5825H55.9039V11.7825H59.2637V11.5825ZM56.0039 11.6825V10.011H55.8039V11.6825H56.0039ZM55.9039 10.111H58.9796V9.91096H55.9039V10.111ZM58.9796 10.111C59.4982 10.111 59.9245 9.97812 60.2479 9.70262L60.1182 9.55037C59.8399 9.78749 59.4638 9.91096 58.9796 9.91096V10.111ZM60.2479 9.70262C60.5769 9.42242 60.7344 9.0121 60.7344 8.48983H60.5344C60.5344 8.97049 60.3911 9.31796 60.1182 9.55037L60.2479 9.70262ZM60.7344 8.48983C60.7344 7.96755 60.5769 7.55723 60.2479 7.27703L60.1182 7.42928C60.3911 7.66169 60.5344 8.00916 60.5344 8.48983H60.7344ZM60.2479 7.27703C59.9245 7.00153 59.4982 6.86869 58.9796 6.86869V7.06869C59.4638 7.06869 59.8399 7.19216 60.1182 7.42928L60.2479 7.27703ZM58.9796 6.86869H55.9039V7.06869H58.9796V6.86869ZM56.0039 6.96869V5.29712H55.8039V6.96869H56.0039ZM55.9039 5.39712H59.0297V5.19712H55.9039V5.39712ZM59.0297 5.39712C59.8092 5.39712 60.4488 5.53991 60.9537 5.81923L61.0506 5.64423C60.508 5.34407 59.8326 5.19712 59.0297 5.19712V5.39712ZM60.9537 5.81923C61.4636 6.10128 61.8391 6.46214 62.085 6.90061L62.2595 6.80276C61.9928 6.32743 61.5882 5.94165 61.0506 5.64423L60.9537 5.81923ZM62.085 6.90061C62.333 7.34256 62.4567 7.81605 62.4567 8.32267H62.6567C62.6567 7.78177 62.5242 7.27459 62.2595 6.80276L62.085 6.90061ZM62.4567 8.32267C62.4567 8.91542 62.2901 9.43482 61.9581 9.88471L62.119 10.0035C62.4778 9.51728 62.6567 8.95573 62.6567 8.32267H62.4567ZM61.9572 9.88597C61.6356 10.3362 61.1556 10.705 60.5105 10.9893L60.5912 11.1723C61.261 10.8771 61.7728 10.4881 62.1199 10.0022L61.9572 9.88597ZM60.6478 11.105L60.7983 10.5033L60.6043 10.4547L60.4538 11.0565L60.6478 11.105ZM60.6634 10.5716C61.385 10.8667 61.9433 11.2801 62.3432 11.8097L62.5028 11.6891C62.078 11.1266 61.4885 10.693 60.7391 10.3864L60.6634 10.5716ZM62.3432 11.8097C62.7414 12.337 62.9415 12.9562 62.9415 13.6717H63.1415C63.1415 12.9162 62.9292 12.2539 62.5028 11.6891L62.3432 11.8097ZM62.9415 13.6717C62.9415 14.2559 62.7957 14.7896 62.5044 15.2751L62.6759 15.378C62.9864 14.8605 63.1415 14.291 63.1415 13.6717H62.9415ZM62.5036 15.2765C62.2243 15.7598 61.8043 16.1543 61.2389 16.4588L61.3337 16.6349C61.9273 16.3153 62.3765 15.8962 62.6767 15.3766L62.5036 15.2765ZM61.2395 16.4584C60.6893 16.7497 60.0044 16.8981 59.1801 16.8981V17.0981C60.0275 17.0981 60.7467 16.9456 61.3331 16.6352L61.2395 16.4584ZM59.1801 16.8981H55.9039V17.0981H59.1801V16.8981ZM54.6833 16.9981V5.29712H54.4833V16.9981H54.6833ZM54.5833 5.39712H56.5056V5.19712H54.5833V5.39712ZM56.4056 5.29712V16.9981H56.6056V5.29712H56.4056ZM56.5056 16.8981H54.5833V17.0981H56.5056V16.8981ZM69.2021 17.0653C68.4956 17.0653 67.8566 16.8862 67.2825 16.5288L67.1768 16.6986C67.7839 17.0766 68.4599 17.2653 69.2021 17.2653V17.0653ZM67.2832 16.5292C66.7184 16.1708 66.2674 15.6875 65.9297 15.0775L65.7547 15.1744C66.108 15.8125 66.5819 16.321 67.1761 16.6981L67.2832 16.5292ZM65.9307 15.0794C65.6046 14.4598 65.4408 13.7684 65.4408 13.0031H65.2408C65.2408 13.7979 65.4112 14.5218 65.7537 15.1725L65.9307 15.0794ZM65.4408 13.0031C65.4408 12.2264 65.6047 11.5353 65.9304 10.9274L65.7541 10.833C65.4111 11.4732 65.2408 12.1974 65.2408 13.0031H65.4408ZM65.9301 10.928C66.2679 10.3069 66.7189 9.81834 67.2832 9.46019L67.1761 9.29133C66.5814 9.66867 66.1075 10.1831 65.7544 10.8324L65.9301 10.928ZM67.2836 9.45993C67.8576 9.09172 68.4962 8.90742 69.2021 8.90742V8.70742C68.4593 8.70742 67.7829 8.90202 67.1756 9.29159L67.2836 9.45993ZM69.2021 8.90742C69.8 8.90742 70.323 9.03774 70.7739 9.29543L70.8731 9.12178C70.388 8.84456 69.83 8.70742 69.2021 8.70742V8.90742ZM70.7764 9.29678C71.2401 9.54481 71.6057 9.88905 71.8748 10.3305L72.0456 10.2263C71.7575 9.75397 71.3653 9.38501 70.8707 9.12042L70.7764 9.29678ZM71.8748 10.3305C72.1431 10.7704 72.2781 11.2703 72.2781 11.833H72.4781C72.4781 11.2367 72.3345 10.7002 72.0456 10.2263L71.8748 10.3305ZM72.2781 11.833V14.1397H72.4781V11.833H72.2781ZM72.2781 14.1397C72.2781 14.7024 72.1431 15.2023 71.8748 15.6422L72.0456 15.7464C72.3345 15.2725 72.4781 14.736 72.4781 14.1397H72.2781ZM71.8739 15.6438C71.6158 16.0847 71.2557 16.4344 70.7915 16.6935L70.889 16.8681C71.3831 16.5923 71.7697 16.2177 72.0465 15.7448L71.8739 15.6438ZM70.7931 16.6927C70.3302 16.9403 69.8007 17.0653 69.2021 17.0653V17.2653C69.8293 17.2653 70.3919 17.134 70.8874 16.869L70.7931 16.6927ZM69.503 15.5269C70.2078 15.5269 70.782 15.2887 71.2154 14.8085L71.0669 14.6745C70.6756 15.1081 70.1578 15.3269 69.503 15.3269V15.5269ZM71.2145 14.8095C71.6576 14.3314 71.8763 13.7209 71.8763 12.9864H71.6763C71.6763 13.6783 71.4716 14.2378 71.0678 14.6735L71.2145 14.8095ZM71.8763 12.9864C71.8763 12.4938 71.7789 12.0542 71.581 11.6702L71.4032 11.7618C71.5843 12.1133 71.6763 12.5206 71.6763 12.9864H71.8763ZM71.581 11.6702C71.3832 11.2861 71.1026 10.9875 70.74 10.777L70.6396 10.9499C70.9679 11.1406 71.2222 11.4104 71.4032 11.7618L71.581 11.6702ZM70.7433 10.779C70.3906 10.5556 69.9758 10.4459 69.503 10.4459V10.6459C69.9439 10.6459 70.3203 10.7478 70.6363 10.9479L70.7433 10.779ZM69.503 10.4459C69.0407 10.4459 68.6266 10.5559 68.2639 10.7782L68.3684 10.9487C68.6966 10.7476 69.0738 10.6459 69.503 10.6459V10.4459ZM68.2647 10.7777C67.914 10.9881 67.6345 11.2859 67.426 11.6681L67.6016 11.7638C67.7943 11.4105 68.0497 11.14 68.3676 10.9492L68.2647 10.7777ZM67.4249 11.6702C67.2271 12.0542 67.1296 12.4938 67.1296 12.9864H67.3296C67.3296 12.5206 67.4216 12.1133 67.6027 11.7618L67.4249 11.6702ZM67.1296 12.9864C67.1296 13.4789 67.2271 13.9186 67.4249 14.3025L67.6027 14.211C67.4216 13.8595 67.3296 13.4521 67.3296 12.9864H67.1296ZM67.426 14.3046C67.6342 14.6864 67.9131 14.9891 68.2627 15.2105L68.3697 15.0415C68.0505 14.8394 67.7945 14.5626 67.6016 14.2089L67.426 14.3046ZM68.2659 15.2125C68.6284 15.4229 69.0417 15.5269 69.503 15.5269V15.3269C69.0728 15.3269 68.6949 15.2302 68.3664 15.0395L68.2659 15.2125ZM71.7593 16.9981V14.8418H71.5593V16.9981H71.7593ZM71.758 14.8578L72.0756 12.9021L71.8782 12.87L71.5606 14.8258L71.758 14.8578ZM72.0756 12.8699L71.758 10.9309L71.5606 10.9632L71.8782 12.9022L72.0756 12.8699ZM71.7593 10.947V8.97458H71.5593V10.947H71.7593ZM71.6593 9.07458H73.498V8.87458H71.6593V9.07458ZM73.398 8.97458V16.9981H73.598V8.97458H73.398ZM73.498 16.8981H71.6593V17.0981H73.498V16.8981ZM79.2743 17.0653C78.837 17.0653 78.4168 17.0106 78.0133 16.9016L77.9611 17.0947C78.3823 17.2085 78.8201 17.2653 79.2743 17.2653V17.0653ZM78.0157 16.9023C77.6112 16.782 77.2404 16.6183 76.9028 16.4114L76.7983 16.5819C77.1516 16.7985 77.5386 16.9691 77.9587 17.094L78.0157 16.9023ZM76.9048 16.4126C76.5678 16.1953 76.2748 15.9347 76.0252 15.6308L75.8706 15.7578C76.1336 16.078 76.4423 16.3523 76.7963 16.5807L76.9048 16.4126ZM76.0186 15.765L77.1887 14.5949L77.0473 14.4535L75.8772 15.6236L76.0186 15.765ZM77.0423 14.5895C77.3293 14.9224 77.658 15.1766 78.0283 15.3502L78.1132 15.1692C77.7704 15.0085 77.4639 14.7723 77.1937 14.4589L77.0423 14.5895ZM78.0317 15.3518C78.4135 15.5137 78.8394 15.5937 79.3078 15.5937V15.3937C78.8624 15.3937 78.4636 15.3177 78.1098 15.1676L78.0317 15.3518ZM79.3078 15.5937C79.727 15.5937 80.0599 15.5319 80.2939 15.3964L80.1937 15.2233C80.0044 15.3329 79.7131 15.3937 79.3078 15.3937V15.5937ZM80.2939 15.3964C80.5348 15.2569 80.6614 15.0466 80.6614 14.7749H80.4614C80.4614 14.9713 80.3763 15.1176 80.1937 15.2233L80.2939 15.3964ZM80.6614 14.7749C80.6614 14.497 80.545 14.2761 80.316 14.1234L80.2051 14.2898C80.3773 14.4046 80.4614 14.5625 80.4614 14.7749H80.6614ZM80.316 14.1234C80.1039 13.982 79.8312 13.8669 79.5015 13.7759L79.4483 13.9687C79.7649 14.056 80.0161 14.1638 80.2051 14.2898L80.316 14.1234ZM79.5055 13.7771C79.1922 13.6764 78.8567 13.5757 78.499 13.4751L78.4449 13.6677C78.8005 13.7677 79.1336 13.8676 79.4443 13.9675L79.5055 13.7771ZM78.4998 13.4754C78.1607 13.3769 77.8324 13.2456 77.515 13.0814L77.4231 13.2591C77.752 13.4292 78.0923 13.5653 78.4441 13.6674L78.4998 13.4754ZM77.5186 13.0834C77.2202 12.9129 76.9753 12.684 76.7833 12.396L76.6169 12.5069C76.826 12.8206 77.0938 13.071 77.4194 13.2571L77.5186 13.0834ZM76.7833 12.396C76.5967 12.1161 76.4992 11.7471 76.4992 11.2814H76.2992C76.2992 11.774 76.4023 12.1851 76.6169 12.5069L76.7833 12.396ZM76.4992 11.2814C76.4992 10.7844 76.6125 10.3636 76.8346 10.0145L76.6659 9.90712C76.42 10.2936 76.2992 10.7531 76.2992 11.2814H76.4992ZM76.8335 10.0163C77.0675 9.66517 77.3925 9.39262 77.8118 9.1991L77.728 9.01751C77.2781 9.22517 76.9233 9.52096 76.667 9.90534L76.8335 10.0163ZM77.8109 9.1995C78.241 9.00599 78.7557 8.90742 79.3579 8.90742V8.70742C78.7343 8.70742 78.1904 8.80944 77.7289 9.01711L77.8109 9.1995ZM79.3579 8.90742C79.9921 8.90742 80.5453 9.02221 81.0198 9.2487L81.106 9.06821C80.5999 8.82666 80.0164 8.70742 79.3579 8.70742V8.90742ZM81.0223 9.24984C81.5073 9.46539 81.9115 9.79389 82.2359 10.2372L82.3973 10.1191C82.053 9.64854 81.6215 9.29727 81.1035 9.06707L81.0223 9.24984ZM82.2459 10.1074L81.0758 11.2775L81.2172 11.4189L82.3873 10.2488L82.2459 10.1074ZM81.2243 11.2854C80.982 10.9855 80.7032 10.7582 80.3875 10.6062L80.3008 10.7864C80.5868 10.9241 80.8429 11.1315 81.0687 11.411L81.2243 11.2854ZM80.3875 10.6062C80.071 10.4538 79.7103 10.379 79.3078 10.379V10.579C79.6853 10.579 80.0155 10.6491 80.3008 10.7864L80.3875 10.6062ZM79.3078 10.379C78.9322 10.379 78.6285 10.4355 78.4067 10.5587L78.5038 10.7336C78.6832 10.6339 78.9478 10.579 79.3078 10.579V10.379ZM78.4067 10.5587C78.1776 10.686 78.0544 10.8793 78.0544 11.1309H78.2544C78.2544 10.9591 78.3317 10.8292 78.5038 10.7336L78.4067 10.5587ZM78.0544 11.1309C78.0544 11.3909 78.1748 11.5949 78.4031 11.7344L78.5074 11.5638C78.3346 11.4581 78.2544 11.3167 78.2544 11.1309H78.0544ZM78.4031 11.7344C78.6137 11.8631 78.879 11.9721 79.1967 12.0629L79.2516 11.8705C78.9453 11.783 78.698 11.6802 78.5074 11.5638L78.4031 11.7344ZM79.1976 12.0631C79.5193 12.1518 79.8522 12.2517 80.1964 12.3628L80.2578 12.1724C79.9111 12.0606 79.5754 11.9599 79.2508 11.8703L79.1976 12.0631ZM80.2 12.3638C80.5481 12.4617 80.874 12.603 81.1782 12.7877L81.282 12.6167C80.9621 12.4225 80.6194 12.274 80.2542 12.1713L80.2 12.3638ZM81.1818 12.7897C81.4903 12.96 81.7399 13.1936 81.9316 13.4918L82.0998 13.3836C81.8903 13.0577 81.6161 12.801 81.2784 12.6146L81.1818 12.7897ZM81.9325 13.4932C82.1189 13.7727 82.2166 14.1471 82.2166 14.6245H82.4166C82.4166 14.1213 82.3137 13.7044 82.0989 13.3822L81.9325 13.4932ZM82.2166 14.6245C82.2166 15.3782 81.9543 15.9673 81.4333 16.4033L81.5617 16.5566C82.1328 16.0788 82.4166 15.431 82.4166 14.6245H82.2166ZM81.4333 16.4033C80.9103 16.8409 80.1944 17.0653 79.2743 17.0653V17.2653C80.2264 17.2653 80.9926 17.0328 81.5617 16.5566L81.4333 16.4033ZM85.9006 9.07458H87.7394V8.87458H85.9006V9.07458ZM87.6394 8.97458V16.9981H87.8394V8.97458H87.6394ZM87.7394 16.8981H85.9006V17.0981H87.7394V16.8981ZM86.82 7.4036C86.5333 7.4036 86.2972 7.3074 86.1051 7.11529L85.9637 7.25671C86.195 7.48806 86.4827 7.6036 86.82 7.6036V7.4036ZM86.107 7.11722C85.9253 6.92544 85.8335 6.68876 85.8335 6.40036H85.6335C85.6335 6.73601 85.7423 7.02309 85.9618 7.25477L86.107 7.11722ZM85.8335 6.40036C85.8335 6.11195 85.9253 5.87527 86.107 5.68349L85.9618 5.54594C85.7423 5.77763 85.6335 6.06471 85.6335 6.40036H85.8335ZM86.1051 5.68543C86.2972 5.49331 86.5333 5.39712 86.82 5.39712V5.19712C86.4827 5.19712 86.195 5.31266 85.9637 5.54401L86.1051 5.68543ZM86.82 5.39712C87.119 5.39712 87.3535 5.49396 87.5331 5.68349L87.6782 5.54594C87.4566 5.31201 87.1674 5.19712 86.82 5.19712V5.39712ZM87.5331 5.68349C87.7147 5.87527 87.8065 6.11195 87.8065 6.40036H88.0065C88.0065 6.06471 87.8977 5.77763 87.6782 5.54594L87.5331 5.68349ZM87.8065 6.40036C87.8065 6.68876 87.7147 6.92544 87.5331 7.11722L87.6782 7.25477C87.8977 7.02309 88.0065 6.73601 88.0065 6.40036H87.8065ZM87.5331 7.11722C87.3535 7.30676 87.119 7.4036 86.82 7.4036V7.6036C87.1674 7.6036 87.4566 7.4887 87.6782 7.25477L87.5331 7.11722ZM93.5373 17.0653C93.1 17.0653 92.6798 17.0106 92.2763 16.9016L92.2241 17.0947C92.6453 17.2085 93.0832 17.2653 93.5373 17.2653V17.0653ZM92.2787 16.9023C91.8742 16.782 91.5034 16.6183 91.1658 16.4114L91.0613 16.5819C91.4146 16.7985 91.8016 16.9691 92.2217 17.094L92.2787 16.9023ZM91.1678 16.4126C90.8309 16.1953 90.5378 15.9347 90.2882 15.6308L90.1336 15.7578C90.3966 16.078 90.7053 16.3523 91.0593 16.5807L91.1678 16.4126ZM90.2816 15.765L91.4517 14.5949L91.3103 14.4535L90.1402 15.6236L90.2816 15.765ZM91.3053 14.5895C91.5923 14.9224 91.921 15.1766 92.2914 15.3502L92.3763 15.1692C92.0334 15.0085 91.7269 14.7723 91.4568 14.4589L91.3053 14.5895ZM92.2948 15.3518C92.6765 15.5137 93.1024 15.5937 93.5708 15.5937V15.3937C93.1254 15.3937 92.7266 15.3177 92.3729 15.1676L92.2948 15.3518ZM93.5708 15.5937C93.9901 15.5937 94.3229 15.5319 94.557 15.3964L94.4568 15.2233C94.2674 15.3329 93.9762 15.3937 93.5708 15.3937V15.5937ZM94.557 15.3964C94.7979 15.2569 94.9245 15.0466 94.9245 14.7749H94.7245C94.7245 14.9713 94.6393 15.1176 94.4568 15.2233L94.557 15.3964ZM94.9245 14.7749C94.9245 14.497 94.808 14.276 94.579 14.1234L94.4681 14.2898C94.6403 14.4046 94.7245 14.5625 94.7245 14.7749H94.9245ZM94.579 14.1234C94.3669 13.982 94.0943 13.8669 93.7645 13.7759L93.7113 13.9687C94.0279 14.056 94.2791 14.1638 94.4681 14.2898L94.579 14.1234ZM93.7685 13.7771C93.4552 13.6764 93.1197 13.5757 92.7621 13.4751L92.7079 13.6677C93.0635 13.7677 93.3966 13.8676 93.7073 13.9675L93.7685 13.7771ZM92.7629 13.4754C92.4237 13.3769 92.0955 13.2456 91.778 13.0814L91.6861 13.2591C92.015 13.4292 92.3553 13.5653 92.7071 13.6674L92.7629 13.4754ZM91.7817 13.0834C91.4832 12.9129 91.2384 12.684 91.0463 12.396L90.8799 12.5069C91.0891 12.8206 91.3568 13.071 91.6824 13.2571L91.7817 13.0834ZM91.0463 12.396C90.8597 12.1161 90.7622 11.7471 90.7622 11.2814H90.5622C90.5622 11.774 90.6653 12.1851 90.8799 12.5069L91.0463 12.396ZM90.7622 11.2814C90.7622 10.7844 90.8755 10.3636 91.0976 10.0145L90.9289 9.90712C90.683 10.2936 90.5622 10.7531 90.5622 11.2814H90.7622ZM91.0965 10.0163C91.3306 9.66517 91.6555 9.39262 92.0748 9.1991L91.991 9.01751C91.5411 9.22517 91.1863 9.52096 90.9301 9.90534L91.0965 10.0163ZM92.074 9.1995C92.504 9.00599 93.0187 8.90742 93.6209 8.90742V8.70742C92.9973 8.70742 92.4534 8.80944 91.9919 9.01711L92.074 9.1995ZM93.6209 8.90742C94.2552 8.90742 94.8083 9.02221 95.2829 9.2487L95.369 9.06821C94.8629 8.82666 94.2794 8.70742 93.6209 8.70742V8.90742ZM95.2853 9.24984C95.7703 9.46539 96.1746 9.79389 96.4989 10.2372L96.6603 10.1191C96.316 9.64854 95.8845 9.29727 95.3665 9.06707L95.2853 9.24984ZM96.5089 10.1074L95.3388 11.2775L95.4802 11.4189L96.6503 10.2488L96.5089 10.1074ZM95.4873 11.2854C95.2451 10.9855 94.9662 10.7582 94.6505 10.6062L94.5638 10.7864C94.8498 10.9241 95.1059 11.1315 95.3317 11.411L95.4873 11.2854ZM94.6505 10.6062C94.334 10.4538 93.9733 10.379 93.5708 10.379V10.579C93.9483 10.579 94.2785 10.6491 94.5638 10.7864L94.6505 10.6062ZM93.5708 10.379C93.1952 10.379 92.8915 10.4355 92.6697 10.5587L92.7668 10.7336C92.9462 10.6339 93.2108 10.579 93.5708 10.579V10.379ZM92.6697 10.5587C92.4406 10.686 92.3174 10.8793 92.3174 11.1309H92.5174C92.5174 10.9591 92.5947 10.8292 92.7668 10.7336L92.6697 10.5587ZM92.3174 11.1309C92.3174 11.3909 92.4378 11.5949 92.6661 11.7344L92.7704 11.5638C92.5976 11.4581 92.5174 11.3167 92.5174 11.1309H92.3174ZM92.6661 11.7344C92.8767 11.8631 93.1421 11.9721 93.4597 12.0629L93.5147 11.8705C93.2083 11.783 92.961 11.6802 92.7704 11.5638L92.6661 11.7344ZM93.4606 12.0631C93.7823 12.1518 94.1152 12.2517 94.4594 12.3628L94.5208 12.1724C94.1741 12.0606 93.8384 11.9599 93.5138 11.8703L93.4606 12.0631ZM94.4631 12.3638C94.8111 12.4617 95.137 12.603 95.4412 12.7877L95.545 12.6167C95.2251 12.4225 94.8824 12.274 94.5172 12.1713L94.4631 12.3638ZM95.4448 12.7897C95.7533 12.96 96.0029 13.1936 96.1946 13.4918L96.3628 13.3836C96.1533 13.0577 95.8792 12.801 95.5414 12.6146L95.4448 12.7897ZM96.1955 13.4932C96.3819 13.7727 96.4796 14.1471 96.4796 14.6245H96.6796C96.6796 14.1213 96.5767 13.7044 96.3619 13.3822L96.1955 13.4932ZM96.4796 14.6245C96.4796 15.3782 96.2174 15.9673 95.6964 16.4033L95.8247 16.5566C96.3958 16.0788 96.6796 15.431 96.6796 14.6245H96.4796ZM95.6964 16.4033C95.1733 16.8409 94.4574 17.0653 93.5373 17.0653V17.2653C94.4894 17.2653 95.2557 17.0328 95.8247 16.5566L95.6964 16.4033ZM86.0006 16.9981V10.6963H85.8006V16.9981H86.0006ZM85.9006 10.5963H84.4378V10.7963H85.9006V10.5963ZM84.5378 10.6963V8.97458H84.3378V10.6963H84.5378ZM84.4378 9.07458H85.9006V8.87458H84.4378V9.07458Z" fill="#1D2032" mask="url(#path-4-outside-2_254_6181)"/>
<rect x="123.865" y="7" width="48" height="26" rx="4" fill="url(#paint0_linear_254_6181)" fill-opacity="0.15"/>
<path d="M134.035 24V22.53H136.611C137.283 22.53 137.871 22.3853 138.375 22.096C138.888 21.8067 139.285 21.4053 139.565 20.892C139.854 20.3693 139.999 19.7673 139.999 19.086C139.999 18.414 139.854 17.8213 139.565 17.308C139.275 16.7947 138.874 16.3933 138.361 16.104C137.857 15.8147 137.273 15.67 136.611 15.67H134.035V14.2H136.653C137.362 14.2 138.02 14.326 138.627 14.578C139.233 14.8207 139.761 15.166 140.209 15.614C140.666 16.0527 141.021 16.5707 141.273 17.168C141.525 17.756 141.651 18.4 141.651 19.1C141.651 19.7907 141.525 20.4347 141.273 21.032C141.021 21.6293 140.671 22.152 140.223 22.6C139.775 23.0387 139.247 23.384 138.641 23.636C138.034 23.8787 137.381 24 136.681 24H134.035ZM132.929 24V14.2H134.539V24H132.929ZM146.262 24.14C145.609 24.14 145.016 23.986 144.484 23.678C143.952 23.3607 143.527 22.936 143.21 22.404C142.902 21.872 142.748 21.2793 142.748 20.626C142.748 19.9727 142.902 19.3847 143.21 18.862C143.527 18.3393 143.952 17.924 144.484 17.616C145.016 17.2987 145.609 17.14 146.262 17.14C146.925 17.14 147.522 17.294 148.054 17.602C148.586 17.91 149.006 18.33 149.314 18.862C149.631 19.3847 149.79 19.9727 149.79 20.626C149.79 21.2793 149.631 21.872 149.314 22.404C149.006 22.936 148.586 23.3607 148.054 23.678C147.522 23.986 146.925 24.14 146.262 24.14ZM146.262 22.656C146.645 22.656 146.981 22.572 147.27 22.404C147.569 22.2267 147.797 21.984 147.956 21.676C148.124 21.368 148.208 21.018 148.208 20.626C148.208 20.234 148.124 19.8887 147.956 19.59C147.788 19.2913 147.559 19.058 147.27 18.89C146.981 18.7127 146.645 18.624 146.262 18.624C145.889 18.624 145.553 18.7127 145.254 18.89C144.965 19.058 144.736 19.2913 144.568 19.59C144.409 19.8887 144.33 20.234 144.33 20.626C144.33 21.018 144.409 21.368 144.568 21.676C144.736 21.984 144.965 22.2267 145.254 22.404C145.553 22.572 145.889 22.656 146.262 22.656ZM154.265 24.14C153.602 24.14 153 23.986 152.459 23.678C151.927 23.37 151.507 22.95 151.199 22.418C150.891 21.886 150.737 21.2933 150.737 20.64C150.737 19.9773 150.891 19.3847 151.199 18.862C151.507 18.33 151.927 17.91 152.459 17.602C153 17.294 153.602 17.14 154.265 17.14C154.787 17.14 155.273 17.2427 155.721 17.448C156.178 17.644 156.565 17.9287 156.883 18.302L155.875 19.324C155.679 19.0907 155.441 18.918 155.161 18.806C154.89 18.6847 154.591 18.624 154.265 18.624C153.882 18.624 153.541 18.7127 153.243 18.89C152.953 19.058 152.725 19.2913 152.557 19.59C152.398 19.8887 152.319 20.2387 152.319 20.64C152.319 21.032 152.398 21.382 152.557 21.69C152.725 21.9887 152.953 22.2267 153.243 22.404C153.541 22.572 153.882 22.656 154.265 22.656C154.591 22.656 154.89 22.6 155.161 22.488C155.441 22.3667 155.679 22.1893 155.875 21.956L156.883 22.978C156.565 23.3513 156.178 23.6407 155.721 23.846C155.273 24.042 154.787 24.14 154.265 24.14ZM160.291 24.14C159.918 24.14 159.558 24.0933 159.213 24C158.868 23.8973 158.55 23.7573 158.261 23.58C157.972 23.3933 157.72 23.1693 157.505 22.908L158.485 21.928C158.718 22.1987 158.984 22.404 159.283 22.544C159.591 22.6747 159.936 22.74 160.319 22.74C160.664 22.74 160.926 22.6887 161.103 22.586C161.28 22.4833 161.369 22.334 161.369 22.138C161.369 21.9327 161.285 21.774 161.117 21.662C160.949 21.55 160.73 21.4567 160.459 21.382C160.198 21.298 159.918 21.214 159.619 21.13C159.33 21.046 159.05 20.934 158.779 20.794C158.518 20.6447 158.303 20.444 158.135 20.192C157.967 19.94 157.883 19.6133 157.883 19.212C157.883 18.7827 157.981 18.414 158.177 18.106C158.382 17.798 158.667 17.56 159.031 17.392C159.404 17.224 159.848 17.14 160.361 17.14C160.902 17.14 161.378 17.238 161.789 17.434C162.209 17.6207 162.559 17.9053 162.839 18.288L161.859 19.268C161.663 19.0253 161.439 18.8433 161.187 18.722C160.935 18.6007 160.646 18.54 160.319 18.54C160.011 18.54 159.773 18.5867 159.605 18.68C159.437 18.7733 159.353 18.9087 159.353 19.086C159.353 19.2727 159.437 19.4173 159.605 19.52C159.773 19.6227 159.988 19.7113 160.249 19.786C160.52 19.8607 160.8 19.9447 161.089 20.038C161.388 20.122 161.668 20.2433 161.929 20.402C162.2 20.5513 162.419 20.7567 162.587 21.018C162.755 21.27 162.839 21.6013 162.839 22.012C162.839 22.6653 162.61 23.1833 162.153 23.566C161.696 23.9487 161.075 24.14 160.291 24.14Z" fill="#00A0BC"/>
<rect opacity="0.6" x="128" y="7" width="24" height="1" fill="url(#paint1_linear_254_6181)"/>
<rect opacity="0.4" x="144" y="32" width="24" height="1" fill="url(#paint2_linear_254_6181)"/>
<rect x="124.365" y="7.5" width="47" height="25" rx="3.5" stroke="url(#paint3_linear_254_6181)" stroke-opacity="0.25"/>
<defs>
<linearGradient id="paint0_linear_254_6181" x1="133.835" y1="7" x2="159.835" y2="33" gradientUnits="userSpaceOnUse">
<stop stop-color="#00A0BC"/>
<stop offset="1" stop-color="#00A0BC" stop-opacity="0.3"/>
</linearGradient>
<linearGradient id="paint1_linear_254_6181" x1="128" y1="7.5" x2="152" y2="7.49999" gradientUnits="userSpaceOnUse">
<stop stop-color="#61DAFB" stop-opacity="0"/>
<stop offset="0.489583" stop-color="#61DAFB"/>
<stop offset="1" stop-color="#61DAFB" stop-opacity="0"/>
</linearGradient>
<linearGradient id="paint2_linear_254_6181" x1="144" y1="32.5" x2="168" y2="32.5" gradientUnits="userSpaceOnUse">
<stop stop-color="#61DAFB" stop-opacity="0"/>
<stop offset="0.489583" stop-color="#61DAFB"/>
<stop offset="1" stop-color="#61DAFB" stop-opacity="0"/>
</linearGradient>
<linearGradient id="paint3_linear_254_6181" x1="126.787" y1="5.78125" x2="152.336" y2="50.8499" gradientUnits="userSpaceOnUse">
<stop stop-color="#00A0BC"/>
<stop offset="1" stop-color="#00A0BC" stop-opacity="0"/>
</linearGradient>
</defs>
</svg>
