<svg width="89" height="30" viewBox="0 0 89 30" fill="none" xmlns="http://www.w3.org/2000/svg">
<path d="M0.0123291 1.76541C0.0123291 1.029 0.609301 0.432031 1.3457 0.432031H25.3455C26.0819 0.432031 26.6789 1.029 26.6789 1.76541V25.7653C26.6789 26.5017 26.0819 27.0987 25.3455 27.0987H20.3458C19.6094 27.0987 19.0124 26.5017 19.0124 25.7653V15.803C19.0124 14.7682 18.6114 13.7737 17.8936 13.0283L14.3266 9.32409C13.5726 8.54104 12.5323 8.09861 11.4452 8.09861H1.3457C0.609301 8.09861 0.0123291 7.50164 0.0123291 6.76524V1.76541Z" fill="#18181B" style="fill:#18181B;fill:color(display-p3 0.0941 0.0941 0.1059);fill-opacity:1;"/>
<path d="M13.306 15.9533C13.5452 16.2018 13.6789 16.5333 13.6789 16.8782V25.7653C13.6789 26.5017 13.0819 27.0987 12.3455 27.0987H3.86476C3.51112 27.0987 3.17197 26.9582 2.92192 26.7082L0.402864 24.1891C0.152809 23.939 0.0123291 23.5999 0.0123291 23.2463V14.7655C0.0123291 14.0291 0.609301 13.4321 1.3457 13.4321H10.311C10.6734 13.4321 11.0202 13.5796 11.2715 13.8406L13.306 15.9533Z" fill="#18181B" style="fill:#18181B;fill:color(display-p3 0.0941 0.0941 0.1059);fill-opacity:1;"/>
<path d="M66.5866 0.277552C67.1111 0.0711241 67.7818 0.287102 68.0404 0.799866C68.3144 1.33173 68.0918 2.06121 67.5438 2.31906C67.009 2.62025 66.2546 2.38297 66.0011 1.82099C65.7146 1.26194 65.9725 0.481042 66.5866 0.277552Z" fill="#18181B" style="fill:#18181B;fill:color(display-p3 0.0941 0.0941 0.1059);fill-opacity:1;"/>
<path d="M36.2792 0.449452C38.1943 0.449452 40.1095 0.448718 42.0246 0.450187C43.0465 0.465614 44.0911 0.890224 44.7309 1.70565C45.3642 2.49316 45.5376 3.57305 45.3546 4.5501C45.2231 5.26268 44.8022 5.91649 44.1925 6.31318C44.8984 6.67315 45.4722 7.30124 45.7095 8.06304C46.0525 9.15836 45.8601 10.4381 45.121 11.3314C44.4459 12.16 43.3807 12.6214 42.3207 12.6287C40.3063 12.6324 38.2928 12.6294 36.2792 12.6302C36.2799 8.56993 36.2784 4.50969 36.2792 0.449452ZM38.3596 2.35946C38.3596 3.40923 38.3596 4.459 38.3589 5.50877C39.3851 5.50951 40.4107 5.50877 41.4369 5.50951C41.7528 5.51392 42.076 5.486 42.3699 5.36038C43.3359 4.99748 43.5467 3.61493 42.9018 2.8737C42.5748 2.50565 42.0658 2.35432 41.586 2.35946C40.5106 2.3602 39.4343 2.35946 38.3596 2.35946ZM38.3596 7.24909C38.3589 8.40464 38.3596 9.5602 38.3596 10.7158C39.5556 10.7158 40.7523 10.7158 41.9489 10.7158C42.4103 10.7231 42.8849 10.5666 43.2176 10.2383C43.8737 9.59252 43.8905 8.40978 43.2375 7.75524C42.9062 7.40923 42.4206 7.24468 41.9475 7.24909C40.7515 7.24909 39.5556 7.24982 38.3596 7.24909Z" fill="#18181B" style="fill:#18181B;fill:color(display-p3 0.0941 0.0941 0.1059);fill-opacity:1;"/>
<path d="M58.5242 4.46047C59.3976 3.78462 60.5686 3.66194 61.6367 3.75157C62.7945 3.86102 64.025 4.41125 64.5576 5.5029C64.1146 5.78352 63.6709 6.06268 63.2294 6.34551C62.8738 5.80997 62.2568 5.51171 61.6514 5.35818C61.0975 5.23917 60.4628 5.21787 59.9699 5.53669C59.5776 5.78352 59.5019 6.40207 59.8465 6.72163C60.2108 7.06396 60.717 7.17415 61.182 7.313C62.0885 7.57746 63.0391 7.83237 63.784 8.44211C64.2351 8.80281 64.5627 9.34275 64.5877 9.92824C64.6288 10.6548 64.4004 11.4247 63.8524 11.9257C63.214 12.5192 62.317 12.7205 61.4707 12.7668C60.3137 12.8293 59.0839 12.5971 58.1627 11.8566C57.7888 11.5606 57.4847 11.1734 57.2995 10.7327C57.7682 10.4293 58.2355 10.1229 58.7027 9.81658C59.0318 10.4689 59.715 10.8722 60.3989 11.0662C60.9712 11.2065 61.6132 11.2234 62.1546 10.9626C62.6637 10.726 62.8018 9.93192 62.3611 9.56461C61.8909 9.1635 61.2569 9.06874 60.6861 8.88655C59.7958 8.6265 58.8481 8.33926 58.1973 7.6399C57.3613 6.75102 57.5699 5.1826 58.5242 4.46047Z" fill="#18181B" style="fill:#18181B;fill:color(display-p3 0.0941 0.0941 0.1059);fill-opacity:1;"/>
<path d="M70.735 4.40023C71.6474 3.7545 72.8331 3.64725 73.9152 3.76846C75.0259 3.9029 76.18 4.459 76.692 5.5029C76.2483 5.78132 75.8075 6.06488 75.3638 6.34257C74.9906 5.79675 74.3574 5.48967 73.7293 5.34495C73.204 5.24211 72.6156 5.23109 72.1418 5.51024C71.7781 5.71741 71.6386 6.23752 71.8736 6.5894C72.0874 6.89647 72.4525 7.04046 72.7927 7.158C73.6316 7.42025 74.5043 7.60831 75.286 8.02484C75.7818 8.28857 76.2512 8.65368 76.5128 9.16204C76.8081 9.72549 76.7662 10.4072 76.5811 10.9993C76.3416 11.7486 75.679 12.2945 74.9444 12.5281C73.9938 12.8307 72.9609 12.8454 71.9883 12.6434C70.9238 12.4127 69.8689 11.7721 69.4332 10.7349C69.8997 10.4278 70.3684 10.1244 70.8349 9.81732C71.0869 10.336 71.5857 10.6842 72.0984 10.9148C72.7633 11.1999 73.5508 11.2667 74.2303 10.9942C74.7791 10.7811 74.9546 9.95395 74.497 9.56534C73.9754 9.13265 73.2775 9.04523 72.6538 8.83733C71.7818 8.58242 70.8562 8.268 70.2538 7.54881C69.4803 6.61878 69.7565 5.07755 70.735 4.40023Z" fill="#18181B" style="fill:#18181B;fill:color(display-p3 0.0941 0.0941 0.1059);fill-opacity:1;"/>
<path d="M48.1984 5.15101C48.9491 4.25772 50.1194 3.76699 51.2786 3.77948C52.3115 3.75818 53.373 4.18793 53.9982 5.03054C53.996 4.65735 53.9967 4.28416 53.9974 3.91171C54.6667 3.91171 55.3352 3.91098 56.0044 3.91171C56.0037 6.78407 56.0037 9.65643 56.0037 12.5295C55.3352 12.5295 54.6659 12.5295 53.9974 12.5295C53.9967 12.163 53.996 11.7971 53.9982 11.4305C53.5265 12.0351 52.8338 12.4575 52.0823 12.6037C50.94 12.8293 49.6933 12.5692 48.7758 11.8405C47.8656 11.1374 47.3197 10.034 47.1831 8.90418C47.0186 7.58995 47.3175 6.1692 48.1984 5.15101ZM51.023 5.72328C50.6108 5.80335 50.2156 5.98701 49.9049 6.27131C49.1497 6.9501 48.958 8.08288 49.2151 9.03348C49.3752 9.62631 49.7572 10.1663 50.2979 10.4689C50.9774 10.8524 51.8325 10.8869 52.5546 10.6026C53.2033 10.3411 53.6933 9.75414 53.8806 9.0849C54.1429 8.14679 53.9872 7.0265 53.2694 6.3242C52.6905 5.74752 51.8075 5.57268 51.023 5.72328Z" fill="#18181B" style="fill:#18181B;fill:color(display-p3 0.0941 0.0941 0.1059);fill-opacity:1;"/>
<path d="M65.9989 3.91171C66.6799 3.91098 67.3616 3.91171 68.0433 3.91171C68.0367 6.78407 68.0316 9.65643 68.0235 12.5295C67.3491 12.5295 66.674 12.5295 65.9996 12.5295C65.9974 9.65643 65.9996 6.78407 65.9989 3.91171Z" fill="#18181B" style="fill:#18181B;fill:color(display-p3 0.0941 0.0941 0.1059);fill-opacity:1;"/>
<path d="M36.3798 14.848C37.6 14.8473 38.8202 14.848 40.0404 14.8472C40.2762 14.8406 40.5135 14.9185 40.6972 15.0691C41.0094 15.3211 41.3194 15.576 41.6309 15.8294C41.9005 16.0234 42.0827 16.3429 42.0738 16.6809C42.0731 20.1453 42.0753 23.6098 42.0731 27.075C41.3995 27.075 40.7265 27.075 40.0529 27.075C40.0514 23.9286 40.0566 20.7815 40.0507 17.6351C40.0595 17.4346 39.9045 17.2935 39.762 17.1804C39.6004 17.0533 39.4527 16.8616 39.2265 16.8704C38.2781 16.8652 37.3289 16.8697 36.3805 16.8682C36.3791 16.1953 36.3805 15.5216 36.3798 14.848Z" fill="#18181B" style="fill:#18181B;fill:color(display-p3 0.0941 0.0941 0.1059);fill-opacity:1;"/>
<path d="M44.2042 14.8987C44.8727 14.8979 45.5412 14.8987 46.2105 14.8987C46.2105 16.3907 46.2119 17.882 46.2097 19.374C46.7409 18.7525 47.5409 18.4116 48.3453 18.3455C49.3818 18.2493 50.5087 18.5255 51.2478 19.2924C51.8663 19.9183 52.119 20.8168 52.1315 21.6785C52.1359 23.479 52.133 25.2788 52.133 27.0794C51.4586 27.0801 50.7835 27.0787 50.1091 27.0801C50.1076 25.4015 50.1098 23.7236 50.1084 22.045C50.104 21.5551 49.9732 21.046 49.6456 20.6698C48.9161 19.839 47.4535 19.8118 46.7027 20.6258C46.3523 21.007 46.2156 21.5367 46.2112 22.0436C46.2097 23.7222 46.2112 25.4008 46.2105 27.0794C45.5412 27.0794 44.8727 27.0801 44.2035 27.0787C44.2042 23.0191 44.2028 18.9589 44.2042 14.8987Z" fill="#18181B" style="fill:#18181B;fill:color(display-p3 0.0941 0.0941 0.1059);fill-opacity:1;"/>
<path d="M79.2242 18.2133C79.9177 18.2133 80.6112 18.2133 81.3047 18.2133C82.0672 20.1534 82.8246 22.0957 83.5908 24.0344C84.3695 22.095 85.1386 20.1519 85.9151 18.2118C86.6145 18.2147 87.3139 18.2118 88.014 18.2133C86.4771 22.073 84.9447 25.9334 83.4101 29.7931C82.7541 29.7923 82.0988 29.7938 81.4435 29.7923C81.8307 28.805 82.2259 27.8206 82.6152 26.834C81.4869 23.9602 80.3548 21.0871 79.2242 18.2133Z" fill="#18181B" style="fill:#18181B;fill:color(display-p3 0.0941 0.0941 0.1059);fill-opacity:1;"/>
<path d="M56.6634 18.4616C57.7344 18.1905 58.9209 18.2647 59.9052 18.7907C60.8287 19.2807 61.4979 20.1747 61.7969 21.1679C62.0224 21.8658 62.043 22.6056 62.0283 23.3328C59.8656 23.3343 57.7043 23.3321 55.5423 23.3336C55.6496 24.0307 55.9963 24.7161 56.5943 25.115C57.2437 25.5668 58.0973 25.6087 58.8452 25.4162C59.3991 25.2759 59.8972 24.9387 60.2336 24.4766C60.6942 24.8153 61.1578 25.1488 61.6176 25.4897C61.0241 26.3499 60.072 26.9259 59.056 27.1367C57.8116 27.3982 56.4364 27.2146 55.3851 26.4697C54.4529 25.8232 53.8498 24.7668 53.6691 23.6561C53.4869 22.5358 53.6353 21.3383 54.2002 20.3422C54.7174 19.4114 55.632 18.7224 56.6634 18.4616ZM56.2204 20.5986C55.8553 20.9945 55.6584 21.5147 55.56 22.0377C57.0924 22.037 58.6241 22.0392 60.1558 22.037C60.0485 21.4801 59.8252 20.9255 59.4182 20.5192C58.5844 19.6509 57.0175 19.7075 56.2204 20.5986Z" fill="#18181B" style="fill:#18181B;fill:color(display-p3 0.0941 0.0941 0.1059);fill-opacity:1;"/>
<path d="M66.8173 18.3551C67.9471 18.1773 69.16 18.3587 70.1289 18.9876C71.0061 19.5437 71.6312 20.4546 71.892 21.4544C72.2902 22.9699 71.9897 24.7169 70.9062 25.8871C69.2753 27.6722 66.148 27.7068 64.4569 25.9892C63.0186 24.5501 62.8136 22.1332 63.8009 20.39C64.4202 19.291 65.5758 18.5402 66.8173 18.3551ZM67.1839 20.257C66.4463 20.3686 65.7793 20.8586 65.4678 21.5382C64.9763 22.5865 65.1482 23.9844 66.0408 24.7675C66.7247 25.3655 67.7488 25.4875 68.5833 25.1606C69.221 24.9115 69.7073 24.3473 69.9115 23.6994C70.2083 22.7525 70.0555 21.6072 69.3333 20.8866C68.7853 20.3238 67.9434 20.1292 67.1839 20.257Z" fill="#18181B" style="fill:#18181B;fill:color(display-p3 0.0941 0.0941 0.1059);fill-opacity:1;"/>
<path d="M75.0795 19.025C75.9368 18.4836 76.977 18.3396 77.9732 18.3264C77.9739 18.9633 77.9739 19.6002 77.9732 20.2371C77.3488 20.2467 76.6876 20.3973 76.2226 20.8388C75.7348 21.2979 75.5563 21.9892 75.5416 22.6386C75.5394 24.1189 75.5409 25.5991 75.5409 27.0794C74.8716 27.0801 74.2024 27.0794 73.5331 27.0794C73.5331 25.8423 73.5331 24.6052 73.5331 23.3681C73.5398 22.5483 73.4817 21.7101 73.7161 20.913C73.9196 20.1453 74.4 19.4467 75.0795 19.025Z" fill="#18181B" style="fill:#18181B;fill:color(display-p3 0.0941 0.0941 0.1059);fill-opacity:1;"/>
</svg>

