<svg width="104" height="40" viewBox="0 0 104 40" fill="none" xmlns="http://www.w3.org/2000/svg">
    <path fill-rule="evenodd" clip-rule="evenodd" d="M40 0H0V40H40V0ZM22.0537 11.4715C19.7025 11.4704 17.3512 11.4694 15 11.474C15.0008 11.8673 15.0008 12.2607 15.0008 12.654C15.0008 13.0472 15.0008 13.4405 15.0016 13.8337C16.2414 13.8345 17.4811 13.8341 18.7209 13.8337C19.9609 13.8333 21.2009 13.8329 22.4409 13.8337C22.4409 15.4598 22.4407 17.086 22.4405 18.7121C22.4402 21.9644 22.4398 25.2167 22.4409 28.469C23.3199 28.4706 24.1973 28.4706 25.0763 28.4706V11.4723C24.0688 11.4723 23.0613 11.4719 22.0537 11.4715Z" fill="#EBEDFF" />
    <rect x="56" y="7" width="48" height="26" rx="4" fill="url(#paint0_linear_882_16897)" fill-opacity="0.2" />
    <path d="M66.17 24V22.53H68.746C69.418 22.53 70.006 22.3853 70.51 22.096C71.0233 21.8067 71.42 21.4053 71.7 20.892C71.9893 20.3693 72.134 19.7673 72.134 19.086C72.134 18.414 71.9893 17.8213 71.7 17.308C71.4107 16.7947 71.0093 16.3933 70.496 16.104C69.992 15.8147 69.4087 15.67 68.746 15.67H66.17V14.2H68.788C69.4973 14.2 70.1553 14.326 70.762 14.578C71.3687 14.8207 71.896 15.166 72.344 15.614C72.8013 16.0527 73.156 16.5707 73.408 17.168C73.66 17.756 73.786 18.4 73.786 19.1C73.786 19.7907 73.66 20.4347 73.408 21.032C73.156 21.6293 72.806 22.152 72.358 22.6C71.91 23.0387 71.3827 23.384 70.776 23.636C70.1693 23.8787 69.516 24 68.816 24H66.17ZM65.064 24V14.2H66.674V24H65.064ZM78.3973 24.14C77.7439 24.14 77.1513 23.986 76.6193 23.678C76.0873 23.3607 75.6626 22.936 75.3453 22.404C75.0373 21.872 74.8833 21.2793 74.8833 20.626C74.8833 19.9727 75.0373 19.3847 75.3453 18.862C75.6626 18.3393 76.0873 17.924 76.6193 17.616C77.1513 17.2987 77.7439 17.14 78.3973 17.14C79.0599 17.14 79.6573 17.294 80.1893 17.602C80.7213 17.91 81.1413 18.33 81.4493 18.862C81.7666 19.3847 81.9253 19.9727 81.9253 20.626C81.9253 21.2793 81.7666 21.872 81.4493 22.404C81.1413 22.936 80.7213 23.3607 80.1893 23.678C79.6573 23.986 79.0599 24.14 78.3973 24.14ZM78.3973 22.656C78.7799 22.656 79.1159 22.572 79.4053 22.404C79.7039 22.2267 79.9326 21.984 80.0913 21.676C80.2593 21.368 80.3433 21.018 80.3433 20.626C80.3433 20.234 80.2593 19.8887 80.0913 19.59C79.9233 19.2913 79.6946 19.058 79.4053 18.89C79.1159 18.7127 78.7799 18.624 78.3973 18.624C78.0239 18.624 77.6879 18.7127 77.3893 18.89C77.0999 19.058 76.8713 19.2913 76.7033 19.59C76.5446 19.8887 76.4653 20.234 76.4653 20.626C76.4653 21.018 76.5446 21.368 76.7033 21.676C76.8713 21.984 77.0999 22.2267 77.3893 22.404C77.6879 22.572 78.0239 22.656 78.3973 22.656ZM86.4 24.14C85.7373 24.14 85.1353 23.986 84.594 23.678C84.062 23.37 83.642 22.95 83.334 22.418C83.026 21.886 82.872 21.2933 82.872 20.64C82.872 19.9773 83.026 19.3847 83.334 18.862C83.642 18.33 84.062 17.91 84.594 17.602C85.1353 17.294 85.7373 17.14 86.4 17.14C86.9226 17.14 87.408 17.2427 87.856 17.448C88.3133 17.644 88.7006 17.9287 89.018 18.302L88.01 19.324C87.814 19.0907 87.576 18.918 87.296 18.806C87.0253 18.6847 86.7266 18.624 86.4 18.624C86.0173 18.624 85.6766 18.7127 85.378 18.89C85.0886 19.058 84.86 19.2913 84.692 19.59C84.5333 19.8887 84.454 20.2387 84.454 20.64C84.454 21.032 84.5333 21.382 84.692 21.69C84.86 21.9887 85.0886 22.2267 85.378 22.404C85.6766 22.572 86.0173 22.656 86.4 22.656C86.7266 22.656 87.0253 22.6 87.296 22.488C87.576 22.3667 87.814 22.1893 88.01 21.956L89.018 22.978C88.7006 23.3513 88.3133 23.6407 87.856 23.846C87.408 24.042 86.9226 24.14 86.4 24.14ZM92.4262 24.14C92.0529 24.14 91.6936 24.0933 91.3482 24C91.0029 23.8973 90.6856 23.7573 90.3962 23.58C90.1069 23.3933 89.8549 23.1693 89.6402 22.908L90.6202 21.928C90.8536 22.1987 91.1196 22.404 91.4182 22.544C91.7262 22.6747 92.0716 22.74 92.4542 22.74C92.7996 22.74 93.0609 22.6887 93.2382 22.586C93.4156 22.4833 93.5042 22.334 93.5042 22.138C93.5042 21.9327 93.4202 21.774 93.2522 21.662C93.0842 21.55 92.8649 21.4567 92.5942 21.382C92.3329 21.298 92.0529 21.214 91.7542 21.13C91.4649 21.046 91.1849 20.934 90.9142 20.794C90.6529 20.6447 90.4382 20.444 90.2702 20.192C90.1022 19.94 90.0182 19.6133 90.0182 19.212C90.0182 18.7827 90.1162 18.414 90.3122 18.106C90.5176 17.798 90.8022 17.56 91.1662 17.392C91.5396 17.224 91.9829 17.14 92.4962 17.14C93.0376 17.14 93.5136 17.238 93.9242 17.434C94.3442 17.6207 94.6942 17.9053 94.9742 18.288L93.9942 19.268C93.7982 19.0253 93.5742 18.8433 93.3222 18.722C93.0702 18.6007 92.7809 18.54 92.4542 18.54C92.1462 18.54 91.9082 18.5867 91.7402 18.68C91.5722 18.7733 91.4882 18.9087 91.4882 19.086C91.4882 19.2727 91.5722 19.4173 91.7402 19.52C91.9082 19.6227 92.1229 19.7113 92.3842 19.786C92.6549 19.8607 92.9349 19.9447 93.2242 20.038C93.5229 20.122 93.8029 20.2433 94.0642 20.402C94.3349 20.5513 94.5542 20.7567 94.7222 21.018C94.8902 21.27 94.9742 21.6013 94.9742 22.012C94.9742 22.6653 94.7456 23.1833 94.2882 23.566C93.8309 23.9487 93.2102 24.14 92.4262 24.14Z" fill="#00D2EF" />
    <rect opacity="0.4" x="60.1353" y="7" width="24" height="1" fill="url(#paint1_linear_882_16897)" />
    <rect opacity="0.2" x="76.1353" y="32" width="24" height="1" fill="url(#paint2_linear_882_16897)" />
    <rect x="56.5" y="7.5" width="47" height="25" rx="3.5" stroke="url(#paint3_linear_882_16897)" stroke-opacity="0.21" />
    <defs>
        <linearGradient id="paint0_linear_882_16897" x1="69.4706" y1="8.5" x2="88.4706" y2="33" gradientUnits="userSpaceOnUse">
            <stop stop-color="#00D2EF" />
            <stop offset="1" stop-color="#00D2EF" stop-opacity="0.34" />
        </linearGradient>
        <linearGradient id="paint1_linear_882_16897" x1="60.1353" y1="7.5" x2="84.1353" y2="7.49999" gradientUnits="userSpaceOnUse">
            <stop stop-color="#61DAFB" stop-opacity="0" />
            <stop offset="0.489583" stop-color="#61DAFB" />
            <stop offset="1" stop-color="#61DAFB" stop-opacity="0" />
        </linearGradient>
        <linearGradient id="paint2_linear_882_16897" x1="76.1353" y1="32.5" x2="100.135" y2="32.5" gradientUnits="userSpaceOnUse">
            <stop stop-color="#61DAFB" stop-opacity="0" />
            <stop offset="0.489583" stop-color="#61DAFB" />
            <stop offset="1" stop-color="#61DAFB" stop-opacity="0" />
        </linearGradient>
        <linearGradient id="paint3_linear_882_16897" x1="58.9226" y1="5.78125" x2="84.9542" y2="51.3659" gradientUnits="userSpaceOnUse">
            <stop stop-color="#00D2EF" />
            <stop offset="1" stop-color="#00D2EF" stop-opacity="0" />
        </linearGradient>
    </defs>
</svg>