<svg width="280" height="281" viewBox="0 0 280 281" fill="none" xmlns="http://www.w3.org/2000/svg">
<path d="M172.578 140.5H140M172.578 140.5H192.125M172.578 140.5V119.867M172.578 140.5H226.875M172.578 140.5V173.078M172.578 140.5H279M140 140.5V107.922M140 140.5H107.422M140 140.5V173.078M279 140.5H192.125M279 140.5V53.625M279 140.5H226.875M279 140.5V279.5H226.875M140 107.922V53.625M140 107.922H172.578M140 107.922V88.375M140 107.922H119.367M140 107.922V1.5M192.125 140.5V119.867M279 53.625V1.5H140M279 53.625H192.125M140 1.5V53.625M140 1.5V88.375M140 1.5H53.125M140 53.625H192.125M192.125 53.625V107.922M192.125 107.922H180.18M192.125 107.922V119.867M172.578 107.922H180.18M172.578 107.922V119.867M180.18 107.922V119.867M180.18 119.867H172.578M180.18 119.867H192.125M107.422 140.5H53.125M107.422 140.5V107.922M107.422 140.5H87.875M107.422 140.5V161.133M107.422 140.5H1M140 88.375H119.367M53.125 1.5H1V140.5M53.125 1.5V88.375M1 140.5H53.125M1 140.5H87.875M1 140.5V227.375M53.125 140.5V88.375M53.125 88.375H107.422M107.422 88.375V100.32M107.422 88.375H119.367M107.422 107.922V100.32M107.422 107.922H119.367M107.422 100.32H119.367M119.367 100.32V107.922M119.367 100.32V88.375M140 173.078V192.625M140 173.078H160.633M140 173.078V227.375M140 173.078H107.422M140 173.078V279.5M140 279.5V192.625M140 279.5H226.875M140 279.5V227.375M140 279.5H1V227.375M140 192.625H160.633M226.875 279.5V192.625M226.875 140.5V192.625M226.875 192.625H172.578M172.578 192.625V180.68M172.578 192.625H160.633M172.578 173.078V180.68M172.578 173.078H160.633M172.578 180.68H160.633M160.633 180.68V173.078M160.633 180.68V192.625M87.875 140.5V161.133M1 227.375H87.875M140 227.375H87.875M87.875 227.375V173.078M87.875 173.078H99.8203M87.875 173.078V161.133M107.422 173.078H99.8203M107.422 173.078V161.133M99.8203 173.078V161.133M99.8203 161.133H107.422M99.8203 161.133H87.875" stroke="url(#paint0_radial_752_19536)" stroke-width="1.31132"/>
<g filter="url(#filter0_ddi_752_19536)">
<g clip-path="url(#clip0_752_19536)">
<rect x="88" y="88.5" width="104" height="104" rx="52" fill="white"/>
<rect x="88" y="88.5" width="104" height="104" rx="52" fill="url(#paint1_radial_752_19536)"/>
<path opacity="0.7" d="M172.578 140.5H140M172.578 140.5H192.125M172.578 140.5V119.867M172.578 140.5H226.875M172.578 140.5V173.078M172.578 140.5H279M140 140.5V107.922M140 140.5H107.422M140 140.5V173.078M279 140.5H192.125M279 140.5V53.625M279 140.5H226.875M279 140.5V279.5H226.875M140 107.922V53.625M140 107.922H172.578M140 107.922V88.375M140 107.922H119.367M140 107.922V1.5M192.125 140.5V119.867M279 53.625V1.5H140M279 53.625H192.125M140 1.5V53.625M140 1.5V88.375M140 1.5H53.125M140 53.625H192.125M192.125 53.625V107.922M192.125 107.922H180.18M192.125 107.922V119.867M172.578 107.922H180.18M172.578 107.922V119.867M180.18 107.922V119.867M180.18 119.867H172.578M180.18 119.867H192.125M107.422 140.5H53.125M107.422 140.5V107.922M107.422 140.5H87.875M107.422 140.5V161.133M107.422 140.5H1M140 88.375H119.367M53.125 1.5H1V140.5M53.125 1.5V88.375M1 140.5H53.125M1 140.5H87.875M1 140.5V227.375M53.125 140.5V88.375M53.125 88.375H107.422M107.422 88.375V100.32M107.422 88.375H119.367M107.422 107.922V100.32M107.422 107.922H119.367M107.422 100.32H119.367M119.367 100.32V107.922M119.367 100.32V88.375M140 173.078V192.625M140 173.078H160.633M140 173.078V227.375M140 173.078H107.422M140 173.078V279.5M140 279.5V192.625M140 279.5H226.875M140 279.5V227.375M140 279.5H1V227.375M140 192.625H160.633M226.875 279.5V192.625M226.875 140.5V192.625M226.875 192.625H172.578M172.578 192.625V180.68M172.578 192.625H160.633M172.578 173.078V180.68M172.578 173.078H160.633M172.578 180.68H160.633M160.633 180.68V173.078M160.633 180.68V192.625M87.875 140.5V161.133M1 227.375H87.875M140 227.375H87.875M87.875 227.375V173.078M87.875 173.078H99.8203M87.875 173.078V161.133M107.422 173.078H99.8203M107.422 173.078V161.133M99.8203 173.078V161.133M99.8203 161.133H107.422M99.8203 161.133H87.875" stroke="url(#paint2_radial_752_19536)" stroke-width="1.31132"/>
<path fill-rule="evenodd" clip-rule="evenodd" d="M128.479 123.682C126.182 123.682 124.36 125.505 124.36 127.802V134.865C124.36 137.228 123.286 139.343 121.601 140.746C123.286 142.145 124.36 144.257 124.36 146.635V153.698C124.36 155.976 126.187 157.818 128.479 157.818C129.454 157.818 130.245 158.608 130.245 159.583C130.245 160.559 129.454 161.349 128.479 161.349C124.227 161.349 120.828 157.917 120.828 153.698V146.635C120.828 144.343 118.987 142.516 116.708 142.516C115.733 142.516 114.943 141.725 114.943 140.75C114.943 139.775 115.733 138.984 116.708 138.984C118.982 138.984 120.828 137.138 120.828 134.865V127.802C120.828 123.555 124.232 120.151 128.479 120.151C129.454 120.151 130.245 120.942 130.245 121.917C130.245 122.892 129.454 123.682 128.479 123.682ZM150.255 121.917C150.255 120.942 151.046 120.151 152.021 120.151C156.24 120.151 159.672 123.55 159.672 127.802V134.865C159.672 137.143 161.499 138.984 163.792 138.984C164.767 138.984 165.557 139.775 165.557 140.75C165.557 141.725 164.767 142.516 163.792 142.516C161.495 142.516 159.672 144.338 159.672 146.635V153.698C159.672 157.922 156.245 161.349 152.021 161.349C151.046 161.349 150.255 160.559 150.255 159.583C150.255 158.608 151.046 157.818 152.021 157.818C154.295 157.818 156.141 155.972 156.141 153.698V146.635C156.141 144.259 157.207 142.146 158.89 140.746C157.206 139.342 156.141 137.227 156.141 134.865V127.802C156.141 125.51 154.299 123.682 152.021 123.682C151.046 123.682 150.255 122.892 150.255 121.917Z" fill="#5383FF"/>
<path fill-rule="evenodd" clip-rule="evenodd" d="M134.953 141.339C135.269 141.339 135.542 141.066 135.542 140.75C135.542 140.434 135.292 140.162 134.953 140.162C134.763 140.162 134.619 140.242 134.532 140.328C134.445 140.415 134.365 140.56 134.365 140.75C134.365 141.089 134.637 141.339 134.953 141.339ZM132.011 140.75C132.011 139.116 133.319 137.807 134.953 137.807C136.541 137.807 137.896 139.093 137.896 140.75C137.896 142.361 136.564 143.693 134.953 143.693C133.296 143.693 132.011 142.338 132.011 140.75ZM146.724 141.339C147.04 141.339 147.313 141.066 147.313 140.75C147.313 140.434 147.063 140.162 146.724 140.162C146.534 140.162 146.389 140.242 146.303 140.328C146.216 140.415 146.136 140.56 146.136 140.75C146.136 141.089 146.408 141.339 146.724 141.339ZM143.781 140.75C143.781 139.116 145.09 137.807 146.724 137.807C148.312 137.807 149.667 139.093 149.667 140.75C149.667 142.361 148.335 143.693 146.724 143.693C145.067 143.693 143.781 142.338 143.781 140.75Z" fill="#5383FF"/>
<path d="M135.542 140.75C135.542 141.066 135.269 141.339 134.953 141.339C134.637 141.339 134.365 141.089 134.365 140.75C134.365 140.56 134.445 140.415 134.532 140.328C134.619 140.242 134.763 140.162 134.953 140.162C135.292 140.162 135.542 140.434 135.542 140.75Z" fill="#5383FF"/>
<path d="M147.313 140.75C147.313 141.066 147.04 141.339 146.724 141.339C146.408 141.339 146.136 141.089 146.136 140.75C146.136 140.56 146.216 140.415 146.303 140.328C146.389 140.242 146.534 140.162 146.724 140.162C147.063 140.162 147.313 140.434 147.313 140.75Z" fill="#5383FF"/>
</g>
</g>
<defs>
<filter id="filter0_ddi_752_19536" x="83" y="87.5" width="114" height="114" filterUnits="userSpaceOnUse" color-interpolation-filters="sRGB">
<feFlood flood-opacity="0" result="BackgroundImageFix"/>
<feColorMatrix in="SourceAlpha" type="matrix" values="0 0 0 0 0 0 0 0 0 0 0 0 0 0 0 0 0 0 127 0" result="hardAlpha"/>
<feMorphology radius="1" operator="erode" in="SourceAlpha" result="effect1_dropShadow_752_19536"/>
<feOffset dy="4"/>
<feGaussianBlur stdDeviation="3"/>
<feComposite in2="hardAlpha" operator="out"/>
<feColorMatrix type="matrix" values="0 0 0 0 0.027451 0 0 0 0 0.0392157 0 0 0 0 0.105882 0 0 0 0.05 0"/>
<feBlend mode="normal" in2="BackgroundImageFix" result="effect1_dropShadow_752_19536"/>
<feColorMatrix in="SourceAlpha" type="matrix" values="0 0 0 0 0 0 0 0 0 0 0 0 0 0 0 0 0 0 127 0" result="hardAlpha"/>
<feMorphology radius="2" operator="erode" in="SourceAlpha" result="effect2_dropShadow_752_19536"/>
<feOffset dy="2"/>
<feGaussianBlur stdDeviation="2"/>
<feComposite in2="hardAlpha" operator="out"/>
<feColorMatrix type="matrix" values="0 0 0 0 0.027451 0 0 0 0 0.0392157 0 0 0 0 0.105882 0 0 0 0.05 0"/>
<feBlend mode="normal" in2="effect1_dropShadow_752_19536" result="effect2_dropShadow_752_19536"/>
<feBlend mode="normal" in="SourceGraphic" in2="effect2_dropShadow_752_19536" result="shape"/>
<feColorMatrix in="SourceAlpha" type="matrix" values="0 0 0 0 0 0 0 0 0 0 0 0 0 0 0 0 0 0 127 0" result="hardAlpha"/>
<feMorphology radius="1" operator="erode" in="SourceAlpha" result="effect3_innerShadow_752_19536"/>
<feOffset/>
<feComposite in2="hardAlpha" operator="arithmetic" k2="-1" k3="1"/>
<feColorMatrix type="matrix" values="0 0 0 0 0.835833 0 0 0 0 0.876996 0 0 0 0 0.983333 0 0 0 1 0"/>
<feBlend mode="normal" in2="shape" result="effect3_innerShadow_752_19536"/>
</filter>
<radialGradient id="paint0_radial_752_19536" cx="0" cy="0" r="1" gradientUnits="userSpaceOnUse" gradientTransform="translate(140 141) rotate(45) scale(63.6396 86.0615)">
<stop stop-color="#E0E7FF"/>
<stop offset="1" stop-color="#E0E7FF" stop-opacity="0"/>
</radialGradient>
<radialGradient id="paint1_radial_752_19536" cx="0" cy="0" r="1" gradientUnits="userSpaceOnUse" gradientTransform="translate(88 88.5) rotate(45) scale(147.078)">
<stop stop-color="#5383FF" stop-opacity="0"/>
<stop offset="0.973958" stop-color="#5383FF" stop-opacity="0.1"/>
</radialGradient>
<radialGradient id="paint2_radial_752_19536" cx="0" cy="0" r="1" gradientUnits="userSpaceOnUse" gradientTransform="translate(119.5 117.5) rotate(43.7267) scale(170.815 230.998)">
<stop stop-color="#E0E7FF" stop-opacity="0"/>
<stop offset="1" stop-color="#00D2EF" stop-opacity="0.52"/>
</radialGradient>
<clipPath id="clip0_752_19536">
<rect x="88" y="88.5" width="104" height="104" rx="52" fill="white"/>
</clipPath>
</defs>
</svg>
