<svg width="280" height="281" viewBox="0 0 280 281" fill="none" xmlns="http://www.w3.org/2000/svg">
<path d="M172.578 140.5H140M172.578 140.5H192.125M172.578 140.5V119.867M172.578 140.5H226.875M172.578 140.5V173.078M172.578 140.5H279M140 140.5V107.922M140 140.5H107.422M140 140.5V173.078M279 140.5H192.125M279 140.5V53.625M279 140.5H226.875M279 140.5V279.5H226.875M140 107.922V53.625M140 107.922H172.578M140 107.922V88.375M140 107.922H119.367M140 107.922V1.5M192.125 140.5V119.867M279 53.625V1.5H140M279 53.625H192.125M140 1.5V53.625M140 1.5V88.375M140 1.5H53.125M140 53.625H192.125M192.125 53.625V107.922M192.125 107.922H180.18M192.125 107.922V119.867M172.578 107.922H180.18M172.578 107.922V119.867M180.18 107.922V119.867M180.18 119.867H172.578M180.18 119.867H192.125M107.422 140.5H53.125M107.422 140.5V107.922M107.422 140.5H87.875M107.422 140.5V161.133M107.422 140.5H1M140 88.375H119.367M53.125 1.5H1V140.5M53.125 1.5V88.375M1 140.5H53.125M1 140.5H87.875M1 140.5V227.375M53.125 140.5V88.375M53.125 88.375H107.422M107.422 88.375V100.32M107.422 88.375H119.367M107.422 107.922V100.32M107.422 107.922H119.367M107.422 100.32H119.367M119.367 100.32V107.922M119.367 100.32V88.375M140 173.078V192.625M140 173.078H160.633M140 173.078V227.375M140 173.078H107.422M140 173.078V279.5M140 279.5V192.625M140 279.5H226.875M140 279.5V227.375M140 279.5H1V227.375M140 192.625H160.633M226.875 279.5V192.625M226.875 140.5V192.625M226.875 192.625H172.578M172.578 192.625V180.68M172.578 192.625H160.633M172.578 173.078V180.68M172.578 173.078H160.633M172.578 180.68H160.633M160.633 180.68V173.078M160.633 180.68V192.625M87.875 140.5V161.133M1 227.375H87.875M140 227.375H87.875M87.875 227.375V173.078M87.875 173.078H99.8203M87.875 173.078V161.133M107.422 173.078H99.8203M107.422 173.078V161.133M99.8203 173.078V161.133M99.8203 161.133H107.422M99.8203 161.133H87.875" stroke="url(#paint0_radial_401_15501)" stroke-width="1.31132"/>
<g filter="url(#filter0_ddi_401_15501)">
<g clip-path="url(#clip0_401_15501)">
<rect x="88" y="88.5" width="104" height="104" rx="52" fill="white"/>
<rect x="88" y="88.5" width="104" height="104" rx="52" fill="url(#paint1_radial_401_15501)"/>
<path opacity="0.7" d="M172.578 140.5H140M172.578 140.5H192.125M172.578 140.5V119.867M172.578 140.5H226.875M172.578 140.5V173.078M172.578 140.5H279M140 140.5V107.922M140 140.5H107.422M140 140.5V173.078M279 140.5H192.125M279 140.5V53.625M279 140.5H226.875M279 140.5V279.5H226.875M140 107.922V53.625M140 107.922H172.578M140 107.922V88.375M140 107.922H119.367M140 107.922V1.5M192.125 140.5V119.867M279 53.625V1.5H140M279 53.625H192.125M140 1.5V53.625M140 1.5V88.375M140 1.5H53.125M140 53.625H192.125M192.125 53.625V107.922M192.125 107.922H180.18M192.125 107.922V119.867M172.578 107.922H180.18M172.578 107.922V119.867M180.18 107.922V119.867M180.18 119.867H172.578M180.18 119.867H192.125M107.422 140.5H53.125M107.422 140.5V107.922M107.422 140.5H87.875M107.422 140.5V161.133M107.422 140.5H1M140 88.375H119.367M53.125 1.5H1V140.5M53.125 1.5V88.375M1 140.5H53.125M1 140.5H87.875M1 140.5V227.375M53.125 140.5V88.375M53.125 88.375H107.422M107.422 88.375V100.32M107.422 88.375H119.367M107.422 107.922V100.32M107.422 107.922H119.367M107.422 100.32H119.367M119.367 100.32V107.922M119.367 100.32V88.375M140 173.078V192.625M140 173.078H160.633M140 173.078V227.375M140 173.078H107.422M140 173.078V279.5M140 279.5V192.625M140 279.5H226.875M140 279.5V227.375M140 279.5H1V227.375M140 192.625H160.633M226.875 279.5V192.625M226.875 140.5V192.625M226.875 192.625H172.578M172.578 192.625V180.68M172.578 192.625H160.633M172.578 173.078V180.68M172.578 173.078H160.633M172.578 180.68H160.633M160.633 180.68V173.078M160.633 180.68V192.625M87.875 140.5V161.133M1 227.375H87.875M140 227.375H87.875M87.875 227.375V173.078M87.875 173.078H99.8203M87.875 173.078V161.133M107.422 173.078H99.8203M107.422 173.078V161.133M99.8203 173.078V161.133M99.8203 161.133H107.422M99.8203 161.133H87.875" stroke="url(#paint2_radial_401_15501)" stroke-width="1.31132"/>
<path opacity="0.1" d="M158.384 133.43L160.251 124.358C160.764 121.885 158.571 119.691 156.098 120.219L147.026 122.085C144.342 122.622 141.892 123.952 139.956 125.889L134.093 131.748L132.51 133.33C129.903 135.916 128.137 139.236 127.41 142.815C127.344 143.144 127.286 143.474 127.237 143.806L127.19 143.97C126.817 146.49 127.657 149.056 129.477 150.876C131.273 152.673 133.84 153.536 136.383 153.163L136.547 153.116C140.513 152.533 144.2 150.666 147.023 147.843L154.464 140.402C155.434 139.42 156.254 138.306 156.9 137.097C157.528 135.921 157.992 134.655 158.268 133.332L158.384 133.43Z" fill="url(#paint3_linear_401_15501)"/>
<path d="M142.193 138.306L136.5 144" stroke="#10C0D9" stroke-width="3.49999" stroke-linecap="round" stroke-linejoin="round"/>
<path d="M129.5 151L125.697 154.803M127.477 142.831L119.396 140.918C118.486 140.708 118.183 139.588 118.836 138.958L125.253 132.518C125.673 132.074 126.256 131.818 126.863 131.818L134.096 131.748M143.267 123.49C148.659 127.153 153.323 131.832 156.987 137.224M137.666 153.023L139.556 161.096C139.766 161.983 140.863 162.286 141.516 161.633L147.933 155.193C148.353 154.75 148.61 154.166 148.61 153.56L148.656 146.303M158.384 133.43L160.251 124.358C160.764 121.885 158.571 119.691 156.098 120.219L147.026 122.085C144.342 122.622 141.892 123.952 139.956 125.889L132.51 133.33C129.663 136.153 127.82 139.851 127.237 143.806L127.19 143.97C126.817 146.49 127.657 149.056 129.477 150.876C131.273 152.673 133.84 153.536 136.383 153.163L136.547 153.116C140.513 152.533 144.2 150.666 147.023 147.843L154.464 140.402C156.378 138.465 157.708 136.015 158.268 133.332L158.384 133.43Z" stroke="url(#paint4_linear_401_15501)" stroke-width="2.5" stroke-linecap="round" stroke-linejoin="round"/>
</g>
</g>
<defs>
<filter id="filter0_ddi_401_15501" x="83" y="87.5" width="114" height="114" filterUnits="userSpaceOnUse" color-interpolation-filters="sRGB">
<feFlood flood-opacity="0" result="BackgroundImageFix"/>
<feColorMatrix in="SourceAlpha" type="matrix" values="0 0 0 0 0 0 0 0 0 0 0 0 0 0 0 0 0 0 127 0" result="hardAlpha"/>
<feMorphology radius="1" operator="erode" in="SourceAlpha" result="effect1_dropShadow_401_15501"/>
<feOffset dy="4"/>
<feGaussianBlur stdDeviation="3"/>
<feComposite in2="hardAlpha" operator="out"/>
<feColorMatrix type="matrix" values="0 0 0 0 0.027451 0 0 0 0 0.0392157 0 0 0 0 0.105882 0 0 0 0.05 0"/>
<feBlend mode="normal" in2="BackgroundImageFix" result="effect1_dropShadow_401_15501"/>
<feColorMatrix in="SourceAlpha" type="matrix" values="0 0 0 0 0 0 0 0 0 0 0 0 0 0 0 0 0 0 127 0" result="hardAlpha"/>
<feMorphology radius="2" operator="erode" in="SourceAlpha" result="effect2_dropShadow_401_15501"/>
<feOffset dy="2"/>
<feGaussianBlur stdDeviation="2"/>
<feComposite in2="hardAlpha" operator="out"/>
<feColorMatrix type="matrix" values="0 0 0 0 0.027451 0 0 0 0 0.0392157 0 0 0 0 0.105882 0 0 0 0.05 0"/>
<feBlend mode="normal" in2="effect1_dropShadow_401_15501" result="effect2_dropShadow_401_15501"/>
<feBlend mode="normal" in="SourceGraphic" in2="effect2_dropShadow_401_15501" result="shape"/>
<feColorMatrix in="SourceAlpha" type="matrix" values="0 0 0 0 0 0 0 0 0 0 0 0 0 0 0 0 0 0 127 0" result="hardAlpha"/>
<feMorphology radius="1" operator="erode" in="SourceAlpha" result="effect3_innerShadow_401_15501"/>
<feOffset/>
<feComposite in2="hardAlpha" operator="arithmetic" k2="-1" k3="1"/>
<feColorMatrix type="matrix" values="0 0 0 0 0.623529 0 0 0 0 0.847059 0 0 0 0 0.878431 0 0 0 1 0"/>
<feBlend mode="normal" in2="shape" result="effect3_innerShadow_401_15501"/>
</filter>
<radialGradient id="paint0_radial_401_15501" cx="0" cy="0" r="1" gradientUnits="userSpaceOnUse" gradientTransform="translate(140 141) rotate(45) scale(63.6396 86.0615)">
<stop stop-color="#E0E7FF"/>
<stop offset="1" stop-color="#E0E7FF" stop-opacity="0"/>
</radialGradient>
<radialGradient id="paint1_radial_401_15501" cx="0" cy="0" r="1" gradientUnits="userSpaceOnUse" gradientTransform="translate(88 88.5) rotate(45) scale(147.078)">
<stop stop-color="#00A4BA" stop-opacity="0"/>
<stop offset="0.973958" stop-color="#00A4BA" stop-opacity="0.1"/>
</radialGradient>
<radialGradient id="paint2_radial_401_15501" cx="0" cy="0" r="1" gradientUnits="userSpaceOnUse" gradientTransform="translate(119.5 117.5) rotate(43.7267) scale(170.815 230.998)">
<stop stop-color="#E0E7FF" stop-opacity="0"/>
<stop offset="1" stop-color="#00D2EF" stop-opacity="0.52"/>
</radialGradient>
<linearGradient id="paint3_linear_401_15501" x1="157.881" y1="162.731" x2="117.363" y2="133.267" gradientUnits="userSpaceOnUse">
<stop stop-color="#00D2EF"/>
<stop offset="1" stop-color="#00D2EF" stop-opacity="0"/>
</linearGradient>
<linearGradient id="paint4_linear_401_15501" x1="156.5" y1="163.5" x2="121" y2="118.5" gradientUnits="userSpaceOnUse">
<stop stop-color="#8DD1DB"/>
<stop offset="1" stop-color="#C1E5EA" stop-opacity="0.99"/>
</linearGradient>
<clipPath id="clip0_401_15501">
<rect x="88" y="88.5" width="104" height="104" rx="52" fill="white"/>
</clipPath>
</defs>
</svg>
