<svg
    width="15"
    height="15"
    viewBox="0 0 15 15"
    fill="none"
    xmlns="http://www.w3.org/2000/svg"
>
    <path
        fill-rule="evenodd"
        clip-rule="evenodd"
        d="M9.4375 1.25C9.4375 0.93934 9.68934 0.6875 10 0.6875H13.75C14.0607 0.6875 14.3125 0.93934 14.3125 1.25V5C14.3125 5.31066 14.0607 5.5625 13.75 5.5625C13.4393 5.5625 13.1875 5.31066 13.1875 5V2.608L8.89775 6.89775C8.67808 7.11742 8.32192 7.11742 8.10225 6.89775C7.88258 6.67808 7.88258 6.32192 8.10225 6.10225L12.392 1.8125H10C9.68934 1.8125 9.4375 1.56066 9.4375 1.25ZM2.5 4.0625C1.98099 4.0625 1.5625 4.47908 1.5625 5V12.5C1.5625 13.0153 1.98282 13.4375 2.5 13.4375H10C10.5143 13.4375 10.9375 13.0143 10.9375 12.5V9.5C10.9375 9.18934 11.1893 8.9375 11.5 8.9375C11.8107 8.9375 12.0625 9.18934 12.0625 9.5V12.5C12.0625 13.6357 11.1357 14.5625 10 14.5625H2.5C1.35968 14.5625 0.4375 13.6347 0.4375 12.5V5C0.4375 3.85592 1.36151 2.9375 2.5 2.9375H5.5C5.81066 2.9375 6.0625 3.18934 6.0625 3.5C6.0625 3.81066 5.81066 4.0625 5.5 4.0625H2.5Z"
        fill="#00A4BA"
    />
</svg>