<svg width="280" height="281" viewBox="0 0 280 281" fill="none" xmlns="http://www.w3.org/2000/svg">
<path d="M172.578 140.5H140M172.578 140.5H192.125M172.578 140.5V119.867M172.578 140.5H226.875M172.578 140.5V173.078M172.578 140.5H279M140 140.5V107.922M140 140.5H107.422M140 140.5V173.078M279 140.5H192.125M279 140.5V53.625M279 140.5H226.875M279 140.5V279.5H226.875M140 107.922V53.625M140 107.922H172.578M140 107.922V88.375M140 107.922H119.367M140 107.922V1.5M192.125 140.5V119.867M279 53.625V1.5H140M279 53.625H192.125M140 1.5V53.625M140 1.5V88.375M140 1.5H53.125M140 53.625H192.125M192.125 53.625V107.922M192.125 107.922H180.18M192.125 107.922V119.867M172.578 107.922H180.18M172.578 107.922V119.867M180.18 107.922V119.867M180.18 119.867H172.578M180.18 119.867H192.125M107.422 140.5H53.125M107.422 140.5V107.922M107.422 140.5H87.875M107.422 140.5V161.133M107.422 140.5H1M140 88.375H119.367M53.125 1.5H1V140.5M53.125 1.5V88.375M1 140.5H53.125M1 140.5H87.875M1 140.5V227.375M53.125 140.5V88.375M53.125 88.375H107.422M107.422 88.375V100.32M107.422 88.375H119.367M107.422 107.922V100.32M107.422 107.922H119.367M107.422 100.32H119.367M119.367 100.32V107.922M119.367 100.32V88.375M140 173.078V192.625M140 173.078H160.633M140 173.078V227.375M140 173.078H107.422M140 173.078V279.5M140 279.5V192.625M140 279.5H226.875M140 279.5V227.375M140 279.5H1V227.375M140 192.625H160.633M226.875 279.5V192.625M226.875 140.5V192.625M226.875 192.625H172.578M172.578 192.625V180.68M172.578 192.625H160.633M172.578 173.078V180.68M172.578 173.078H160.633M172.578 180.68H160.633M160.633 180.68V173.078M160.633 180.68V192.625M87.875 140.5V161.133M1 227.375H87.875M140 227.375H87.875M87.875 227.375V173.078M87.875 173.078H99.8203M87.875 173.078V161.133M107.422 173.078H99.8203M107.422 173.078V161.133M99.8203 173.078V161.133M99.8203 161.133H107.422M99.8203 161.133H87.875" stroke="url(#paint0_radial_483_17182)" stroke-width="1.31132"/>
<g filter="url(#filter0_ddi_483_17182)">
<g clip-path="url(#clip0_483_17182)">
<rect x="88" y="88.5" width="104" height="104" rx="52" fill="white"/>
<rect x="88" y="88.5" width="104" height="104" rx="52" fill="url(#paint1_radial_483_17182)"/>
<path opacity="0.7" d="M172.578 140.5H140M172.578 140.5H192.125M172.578 140.5V119.867M172.578 140.5H226.875M172.578 140.5V173.078M172.578 140.5H279M140 140.5V107.922M140 140.5H107.422M140 140.5V173.078M279 140.5H192.125M279 140.5V53.625M279 140.5H226.875M279 140.5V279.5H226.875M140 107.922V53.625M140 107.922H172.578M140 107.922V88.375M140 107.922H119.367M140 107.922V1.5M192.125 140.5V119.867M279 53.625V1.5H140M279 53.625H192.125M140 1.5V53.625M140 1.5V88.375M140 1.5H53.125M140 53.625H192.125M192.125 53.625V107.922M192.125 107.922H180.18M192.125 107.922V119.867M172.578 107.922H180.18M172.578 107.922V119.867M180.18 107.922V119.867M180.18 119.867H172.578M180.18 119.867H192.125M107.422 140.5H53.125M107.422 140.5V107.922M107.422 140.5H87.875M107.422 140.5V161.133M107.422 140.5H1M140 88.375H119.367M53.125 1.5H1V140.5M53.125 1.5V88.375M1 140.5H53.125M1 140.5H87.875M1 140.5V227.375M53.125 140.5V88.375M53.125 88.375H107.422M107.422 88.375V100.32M107.422 88.375H119.367M107.422 107.922V100.32M107.422 107.922H119.367M107.422 100.32H119.367M119.367 100.32V107.922M119.367 100.32V88.375M140 173.078V192.625M140 173.078H160.633M140 173.078V227.375M140 173.078H107.422M140 173.078V279.5M140 279.5V192.625M140 279.5H226.875M140 279.5V227.375M140 279.5H1V227.375M140 192.625H160.633M226.875 279.5V192.625M226.875 140.5V192.625M226.875 192.625H172.578M172.578 192.625V180.68M172.578 192.625H160.633M172.578 173.078V180.68M172.578 173.078H160.633M172.578 180.68H160.633M160.633 180.68V173.078M160.633 180.68V192.625M87.875 140.5V161.133M1 227.375H87.875M140 227.375H87.875M87.875 227.375V173.078M87.875 173.078H99.8203M87.875 173.078V161.133M107.422 173.078H99.8203M107.422 173.078V161.133M99.8203 173.078V161.133M99.8203 161.133H107.422M99.8203 161.133H87.875" stroke="url(#paint2_radial_483_17182)" stroke-width="1.31132"/>
<path fill-rule="evenodd" clip-rule="evenodd" d="M137.18 118.037C138.133 117.489 139.195 117.214 140.258 117.219C141.302 117.224 142.341 117.498 143.275 118.038C143.275 118.039 143.274 118.038 143.275 118.038L158.386 126.759C158.387 126.759 158.386 126.759 158.386 126.759C159.258 127.261 159.98 127.96 160.501 128.785C161.104 129.739 161.437 130.858 161.437 132.028V149.472C161.437 149.719 161.386 149.957 161.292 150.174C161.044 152.019 159.956 153.679 158.334 154.635L158.322 154.642L143.218 163.384C142.305 163.902 141.287 164.164 140.274 164.178C139.205 164.193 138.125 163.93 137.163 163.381L137.157 163.378L122.058 154.672C120.14 153.59 119.024 151.553 119.024 149.418V131.997C119.024 130.848 119.353 129.74 119.943 128.794C120.463 127.96 121.19 127.246 122.082 126.744L137.18 118.037ZM157.906 148.809V132.028C157.906 131.532 157.766 131.067 157.516 130.671C157.299 130.328 156.998 130.034 156.625 129.82L141.507 121.095C141.111 120.866 140.676 120.752 140.241 120.75C139.799 120.748 139.351 120.862 138.941 121.097C138.941 121.098 138.941 121.097 138.941 121.097L123.82 129.817C123.458 130.021 123.157 130.313 122.939 130.662C122.692 131.059 122.556 131.521 122.556 131.997V149.418C122.556 150.34 123.037 151.172 123.797 151.598L123.814 151.608L138.915 160.315C138.916 160.315 138.916 160.316 138.917 160.316C139.309 160.54 139.763 160.653 140.226 160.647C140.663 160.641 141.093 160.528 141.47 160.316C141.472 160.315 141.474 160.313 141.476 160.312L156.541 151.593C156.543 151.592 156.544 151.591 156.546 151.59C157.325 151.128 157.814 150.271 157.814 149.371C157.814 149.176 157.846 148.987 157.906 148.809ZM126.334 132.595C126.827 131.754 127.909 131.472 128.75 131.965L140.248 138.703L151.715 131.966C152.555 131.472 153.637 131.753 154.131 132.594C154.625 133.434 154.344 134.516 153.503 135.01L142.015 141.76V154.875C142.015 155.85 141.225 156.641 140.25 156.641C139.274 156.641 138.484 155.85 138.484 154.875V141.762L126.965 135.011C126.123 134.518 125.841 133.437 126.334 132.595Z" fill="#5383FF"/>
</g>
</g>
<defs>
<filter id="filter0_ddi_483_17182" x="83" y="87.5" width="114" height="114" filterUnits="userSpaceOnUse" color-interpolation-filters="sRGB">
<feFlood flood-opacity="0" result="BackgroundImageFix"/>
<feColorMatrix in="SourceAlpha" type="matrix" values="0 0 0 0 0 0 0 0 0 0 0 0 0 0 0 0 0 0 127 0" result="hardAlpha"/>
<feMorphology radius="1" operator="erode" in="SourceAlpha" result="effect1_dropShadow_483_17182"/>
<feOffset dy="4"/>
<feGaussianBlur stdDeviation="3"/>
<feComposite in2="hardAlpha" operator="out"/>
<feColorMatrix type="matrix" values="0 0 0 0 0.027451 0 0 0 0 0.0392157 0 0 0 0 0.105882 0 0 0 0.05 0"/>
<feBlend mode="normal" in2="BackgroundImageFix" result="effect1_dropShadow_483_17182"/>
<feColorMatrix in="SourceAlpha" type="matrix" values="0 0 0 0 0 0 0 0 0 0 0 0 0 0 0 0 0 0 127 0" result="hardAlpha"/>
<feMorphology radius="2" operator="erode" in="SourceAlpha" result="effect2_dropShadow_483_17182"/>
<feOffset dy="2"/>
<feGaussianBlur stdDeviation="2"/>
<feComposite in2="hardAlpha" operator="out"/>
<feColorMatrix type="matrix" values="0 0 0 0 0.027451 0 0 0 0 0.0392157 0 0 0 0 0.105882 0 0 0 0.05 0"/>
<feBlend mode="normal" in2="effect1_dropShadow_483_17182" result="effect2_dropShadow_483_17182"/>
<feBlend mode="normal" in="SourceGraphic" in2="effect2_dropShadow_483_17182" result="shape"/>
<feColorMatrix in="SourceAlpha" type="matrix" values="0 0 0 0 0 0 0 0 0 0 0 0 0 0 0 0 0 0 127 0" result="hardAlpha"/>
<feMorphology radius="1" operator="erode" in="SourceAlpha" result="effect3_innerShadow_483_17182"/>
<feOffset/>
<feComposite in2="hardAlpha" operator="arithmetic" k2="-1" k3="1"/>
<feColorMatrix type="matrix" values="0 0 0 0 0.835833 0 0 0 0 0.876996 0 0 0 0 0.983333 0 0 0 1 0"/>
<feBlend mode="normal" in2="shape" result="effect3_innerShadow_483_17182"/>
</filter>
<radialGradient id="paint0_radial_483_17182" cx="0" cy="0" r="1" gradientUnits="userSpaceOnUse" gradientTransform="translate(140 141) rotate(45) scale(63.6396 86.0615)">
<stop stop-color="#E0E7FF"/>
<stop offset="1" stop-color="#E0E7FF" stop-opacity="0"/>
</radialGradient>
<radialGradient id="paint1_radial_483_17182" cx="0" cy="0" r="1" gradientUnits="userSpaceOnUse" gradientTransform="translate(88 88.5) rotate(45) scale(147.078)">
<stop stop-color="#5383FF" stop-opacity="0"/>
<stop offset="0.973958" stop-color="#5383FF" stop-opacity="0.1"/>
</radialGradient>
<radialGradient id="paint2_radial_483_17182" cx="0" cy="0" r="1" gradientUnits="userSpaceOnUse" gradientTransform="translate(119.5 117.5) rotate(43.7267) scale(170.815 230.998)">
<stop stop-color="#E0E7FF" stop-opacity="0"/>
<stop offset="1" stop-color="#00D2EF" stop-opacity="0.52"/>
</radialGradient>
<clipPath id="clip0_483_17182">
<rect x="88" y="88.5" width="104" height="104" rx="52" fill="white"/>
</clipPath>
</defs>
</svg>
