<svg width="114" height="114" viewBox="0 0 114 114" fill="none" xmlns="http://www.w3.org/2000/svg">
<g filter="url(#filter0_ddi_773_20312)">
<g clip-path="url(#clip0_773_20312)">
<rect x="5" y="1" width="104" height="104" rx="52" fill="#1E2237"/>
<rect x="5" y="1" width="104" height="104" rx="52" fill="url(#paint0_radial_773_20312)" fill-opacity="0.3"/>
<path opacity="0.1" d="M89.5781 53H57M89.5781 53H109.125M89.5781 53V32.3672M89.5781 53H143.875M89.5781 53V85.5781M89.5781 53H196M57 53V20.4219M57 53H24.4219M57 53V85.5781M196 53H109.125M196 53V-33.875M196 53H143.875M196 53V192H143.875M57 20.4219V-33.875M57 20.4219H89.5781M57 20.4219V0.875M57 20.4219H36.3672M57 20.4219V-86M109.125 53V32.3672M196 -33.875V-86H57M196 -33.875H109.125M57 -86V-33.875M57 -86V0.875M57 -86H-29.875M57 -33.875H109.125M109.125 -33.875V20.4219M109.125 20.4219H97.1797M109.125 20.4219V32.3672M89.5781 20.4219H97.1797M89.5781 20.4219V32.3672M97.1797 20.4219V32.3672M97.1797 32.3672H89.5781M97.1797 32.3672H109.125M24.4219 53H-29.875M24.4219 53V20.4219M24.4219 53H4.875M24.4219 53V73.6328M24.4219 53H-82M57 0.875H36.3672M-29.875 -86H-82V53M-29.875 -86V0.875M-82 53H-29.875M-82 53H4.875M-82 53V139.875M-29.875 53V0.875M-29.875 0.875H24.4219M24.4219 0.875V12.8203M24.4219 0.875H36.3672M24.4219 20.4219V12.8203M24.4219 20.4219H36.3672M24.4219 12.8203H36.3672M36.3672 12.8203V20.4219M36.3672 12.8203V0.875M57 85.5781V105.125M57 85.5781H77.6328M57 85.5781V139.875M57 85.5781H24.4219M57 85.5781V192M57 192V105.125M57 192H143.875M57 192V139.875M57 192H-82V139.875M57 105.125H77.6328M143.875 192V105.125M143.875 53V105.125M143.875 105.125H89.5781M89.5781 105.125V93.1797M89.5781 105.125H77.6328M89.5781 85.5781V93.1797M89.5781 85.5781H77.6328M89.5781 93.1797H77.6328M77.6328 93.1797V85.5781M77.6328 93.1797V105.125M4.875 53V73.6328M-82 139.875H4.875M57 139.875H4.875M4.875 139.875V85.5781M4.875 85.5781H16.8203M4.875 85.5781V73.6328M24.4219 85.5781H16.8203M24.4219 85.5781V73.6328M16.8203 85.5781V73.6328M16.8203 73.6328H24.4219M16.8203 73.6328H4.875" stroke="url(#paint1_radial_773_20312)" stroke-width="1.31132"/>
<path fill-rule="evenodd" clip-rule="evenodd" d="M43.125 33.8281C40.1993 33.8281 37.8281 36.1993 37.8281 39.125V67.375C37.8281 70.3007 40.1993 72.6719 43.125 72.6719H71.375C74.3007 72.6719 76.6719 70.3007 76.6719 67.375V39.125C76.6719 36.1993 74.3007 33.8281 71.375 33.8281H43.125ZM34.2969 39.125C34.2969 34.249 38.249 30.2969 43.125 30.2969H71.375C76.251 30.2969 80.2031 34.249 80.2031 39.125V67.375C80.2031 72.251 76.251 76.2031 71.375 76.2031H43.125C38.249 76.2031 34.2969 72.251 34.2969 67.375V39.125ZM46.4769 45.0572C47.1012 44.3081 48.2145 44.2068 48.9637 44.8311L56.0262 50.7165C56.4287 51.052 56.6615 51.5489 56.6615 52.0729C56.6615 52.5969 56.4287 53.0939 56.0262 53.4293L48.9637 59.3147C48.2145 59.939 47.1012 59.8378 46.4769 59.0887C45.8527 58.3395 45.9539 57.2262 46.703 56.6019L52.1378 52.0729L46.703 47.5439C45.9539 46.9196 45.8527 45.8063 46.4769 45.0572ZM57.8385 60.3125C57.8385 59.3374 58.629 58.5469 59.6042 58.5469H66.6667C67.6418 58.5469 68.4323 59.3374 68.4323 60.3125C68.4323 61.2876 67.6418 62.0781 66.6667 62.0781H59.6042C58.629 62.0781 57.8385 61.2876 57.8385 60.3125Z" fill="#5383FF"/>
</g>
</g>
<defs>
<filter id="filter0_ddi_773_20312" x="0" y="0" width="114" height="114" filterUnits="userSpaceOnUse" color-interpolation-filters="sRGB">
<feFlood flood-opacity="0" result="BackgroundImageFix"/>
<feColorMatrix in="SourceAlpha" type="matrix" values="0 0 0 0 0 0 0 0 0 0 0 0 0 0 0 0 0 0 127 0" result="hardAlpha"/>
<feMorphology radius="1" operator="erode" in="SourceAlpha" result="effect1_dropShadow_773_20312"/>
<feOffset dy="4"/>
<feGaussianBlur stdDeviation="3"/>
<feComposite in2="hardAlpha" operator="out"/>
<feColorMatrix type="matrix" values="0 0 0 0 0.027451 0 0 0 0 0.0392157 0 0 0 0 0.105882 0 0 0 0.05 0"/>
<feBlend mode="normal" in2="BackgroundImageFix" result="effect1_dropShadow_773_20312"/>
<feColorMatrix in="SourceAlpha" type="matrix" values="0 0 0 0 0 0 0 0 0 0 0 0 0 0 0 0 0 0 127 0" result="hardAlpha"/>
<feMorphology radius="2" operator="erode" in="SourceAlpha" result="effect2_dropShadow_773_20312"/>
<feOffset dy="2"/>
<feGaussianBlur stdDeviation="2"/>
<feComposite in2="hardAlpha" operator="out"/>
<feColorMatrix type="matrix" values="0 0 0 0 0.027451 0 0 0 0 0.0392157 0 0 0 0 0.105882 0 0 0 0.05 0"/>
<feBlend mode="normal" in2="effect1_dropShadow_773_20312" result="effect2_dropShadow_773_20312"/>
<feBlend mode="normal" in="SourceGraphic" in2="effect2_dropShadow_773_20312" result="shape"/>
<feColorMatrix in="SourceAlpha" type="matrix" values="0 0 0 0 0 0 0 0 0 0 0 0 0 0 0 0 0 0 127 0" result="hardAlpha"/>
<feMorphology radius="1" operator="erode" in="SourceAlpha" result="effect3_innerShadow_773_20312"/>
<feOffset/>
<feComposite in2="hardAlpha" operator="arithmetic" k2="-1" k3="1"/>
<feColorMatrix type="matrix" values="0 0 0 0 0.32549 0 0 0 0 0.513726 0 0 0 0 1 0 0 0 0.2 0"/>
<feBlend mode="normal" in2="shape" result="effect3_innerShadow_773_20312"/>
</filter>
<radialGradient id="paint0_radial_773_20312" cx="0" cy="0" r="1" gradientUnits="userSpaceOnUse" gradientTransform="translate(5 1) rotate(45) scale(147.078)">
<stop stop-color="#5383FF"/>
<stop offset="0.973958" stop-color="#5383FF" stop-opacity="0.1"/>
</radialGradient>
<radialGradient id="paint1_radial_773_20312" cx="0" cy="0" r="1" gradientUnits="userSpaceOnUse" gradientTransform="translate(36.5 30) rotate(43.7267) scale(170.815 230.998)">
<stop stop-color="#E0E7FF" stop-opacity="0"/>
<stop offset="1" stop-color="#E0E7FF"/>
</radialGradient>
<clipPath id="clip0_773_20312">
<rect x="5" y="1" width="104" height="104" rx="52" fill="white"/>
</clipPath>
</defs>
</svg>
