<svg width="114" height="114" viewBox="0 0 114 114" fill="none" xmlns="http://www.w3.org/2000/svg">
<g filter="url(#filter0_ddi_2206_10411)">
<g clip-path="url(#clip0_2206_10411)">
<rect x="5" y="1" width="104" height="104" rx="52" fill="#1E2237"/>
<rect x="5" y="1" width="104" height="104" rx="52" fill="url(#paint0_radial_2206_10411)" fill-opacity="0.3"/>
<path opacity="0.1" d="M89.5781 53H57M89.5781 53H109.125M89.5781 53V32.3672M89.5781 53H143.875M89.5781 53V85.5781M89.5781 53H196M57 53V20.4219M57 53H24.4219M57 53V85.5781M196 53H109.125M196 53V-33.875M196 53H143.875M196 53V192H143.875M57 20.4219V-33.875M57 20.4219H89.5781M57 20.4219V0.875M57 20.4219H36.3672M57 20.4219V-86M109.125 53V32.3672M196 -33.875V-86H57M196 -33.875H109.125M57 -86V-33.875M57 -86V0.875M57 -86H-29.875M57 -33.875H109.125M109.125 -33.875V20.4219M109.125 20.4219H97.1797M109.125 20.4219V32.3672M89.5781 20.4219H97.1797M89.5781 20.4219V32.3672M97.1797 20.4219V32.3672M97.1797 32.3672H89.5781M97.1797 32.3672H109.125M24.4219 53H-29.875M24.4219 53V20.4219M24.4219 53H4.875M24.4219 53V73.6328M24.4219 53H-82M57 0.875H36.3672M-29.875 -86H-82V53M-29.875 -86V0.875M-82 53H-29.875M-82 53H4.875M-82 53V139.875M-29.875 53V0.875M-29.875 0.875H24.4219M24.4219 0.875V12.8203M24.4219 0.875H36.3672M24.4219 20.4219V12.8203M24.4219 20.4219H36.3672M24.4219 12.8203H36.3672M36.3672 12.8203V20.4219M36.3672 12.8203V0.875M57 85.5781V105.125M57 85.5781H77.6328M57 85.5781V139.875M57 85.5781H24.4219M57 85.5781V192M57 192V105.125M57 192H143.875M57 192V139.875M57 192H-82V139.875M57 105.125H77.6328M143.875 192V105.125M143.875 53V105.125M143.875 105.125H89.5781M89.5781 105.125V93.1797M89.5781 105.125H77.6328M89.5781 85.5781V93.1797M89.5781 85.5781H77.6328M89.5781 93.1797H77.6328M77.6328 93.1797V85.5781M77.6328 93.1797V105.125M4.875 53V73.6328M-82 139.875H4.875M57 139.875H4.875M4.875 139.875V85.5781M4.875 85.5781H16.8203M4.875 85.5781V73.6328M24.4219 85.5781H16.8203M24.4219 85.5781V73.6328M16.8203 85.5781V73.6328M16.8203 73.6328H24.4219M16.8203 73.6328H4.875" stroke="url(#paint1_radial_2206_10411)" stroke-width="1.31132"/>
<path fill-rule="evenodd" clip-rule="evenodd" d="M31.9426 46.1875C31.9426 41.3119 35.8951 37.3594 40.7708 37.3594H73.7291C78.6047 37.3594 82.5572 41.3119 82.5572 46.1875V60.3125C82.5572 65.1881 78.6047 69.1406 73.7291 69.1406H40.7708C35.8951 69.1406 31.9426 65.1881 31.9426 60.3125V46.1875ZM40.7708 40.8906C37.8454 40.8906 35.4739 43.2621 35.4739 46.1875V60.3125C35.4739 63.2379 37.8454 65.6094 40.7708 65.6094H73.7291C76.6545 65.6094 79.026 63.2379 79.026 60.3125V46.1875C79.026 43.2621 76.6545 40.8906 73.7291 40.8906H40.7708Z" fill="#5383FF"/>
<path fill-rule="evenodd" clip-rule="evenodd" d="M64.901 49.7188C64.901 46.7934 67.2725 44.4219 70.1978 44.4219H71.882C72.8571 44.4219 73.6476 45.2124 73.6476 46.1875C73.6476 47.1626 72.8571 47.9531 71.882 47.9531H70.1978C69.2227 47.9531 68.4322 48.7436 68.4322 49.7188V49.9904C68.4322 50.8155 69.1011 51.4844 69.9262 51.4844C72.7016 51.4844 74.9514 53.7343 74.9514 56.5096V56.7812C74.9514 59.7066 72.5799 62.0781 69.6546 62.0781H66.6666C65.6915 62.0781 64.901 61.2876 64.901 60.3125C64.901 59.3374 65.6915 58.5469 66.6666 58.5469H69.6546C70.6297 58.5469 71.4202 57.7564 71.4202 56.7812V56.5096C71.4202 55.6845 70.7513 55.0156 69.9262 55.0156C67.1508 55.0156 64.901 52.7657 64.901 49.9904V49.7188Z" fill="#5383FF"/>
<path fill-rule="evenodd" clip-rule="evenodd" d="M57.0688 47.9531C56.8438 47.9531 56.6614 48.1355 56.6614 48.3606V58.1394C56.6614 58.3645 56.8438 58.5469 57.0688 58.5469C58.494 58.5469 59.6494 57.3915 59.6494 55.9663V50.5337C59.6494 49.1085 58.494 47.9531 57.0688 47.9531ZM53.1301 48.3606C53.1301 46.1853 54.8935 44.4219 57.0688 44.4219C60.4443 44.4219 63.1806 47.1582 63.1806 50.5337V55.9663C63.1806 59.3418 60.4443 62.0781 57.0688 62.0781C54.8936 62.0781 53.1301 60.3147 53.1301 58.1394V48.3606Z" fill="#5383FF"/>
<path fill-rule="evenodd" clip-rule="evenodd" d="M40.1822 46.1875C40.1822 45.2124 40.9727 44.4219 41.9478 44.4219H45.4791C48.4045 44.4219 50.776 46.7934 50.776 49.7188C50.776 51.0802 50.2623 52.3217 49.4182 53.26C50.2632 54.1977 50.776 55.4386 50.776 56.7957C50.776 59.7131 48.411 62.0781 45.4936 62.0781H41.9478C40.9727 62.0781 40.1822 61.2876 40.1822 60.3125C40.1822 59.3374 40.9727 58.5469 41.9478 58.5469H45.4936C46.4607 58.5469 47.2447 57.7629 47.2447 56.7957C47.2447 55.8537 46.4995 55.0805 45.5581 55.0458L44.7077 55.0144C43.746 54.9789 42.9898 54.1797 43.0075 53.2174C43.0253 52.2552 43.8104 51.4844 44.7728 51.4844H45.4791C46.4542 51.4844 47.2447 50.6939 47.2447 49.7188C47.2447 48.7436 46.4542 47.9531 45.4791 47.9531H41.9478C40.9727 47.9531 40.1822 47.1626 40.1822 46.1875Z" fill="#5383FF"/>
</g>
</g>
<defs>
<filter id="filter0_ddi_2206_10411" x="0" y="0" width="114" height="114" filterUnits="userSpaceOnUse" color-interpolation-filters="sRGB">
<feFlood flood-opacity="0" result="BackgroundImageFix"/>
<feColorMatrix in="SourceAlpha" type="matrix" values="0 0 0 0 0 0 0 0 0 0 0 0 0 0 0 0 0 0 127 0" result="hardAlpha"/>
<feMorphology radius="1" operator="erode" in="SourceAlpha" result="effect1_dropShadow_2206_10411"/>
<feOffset dy="4"/>
<feGaussianBlur stdDeviation="3"/>
<feComposite in2="hardAlpha" operator="out"/>
<feColorMatrix type="matrix" values="0 0 0 0 0.027451 0 0 0 0 0.0392157 0 0 0 0 0.105882 0 0 0 0.05 0"/>
<feBlend mode="normal" in2="BackgroundImageFix" result="effect1_dropShadow_2206_10411"/>
<feColorMatrix in="SourceAlpha" type="matrix" values="0 0 0 0 0 0 0 0 0 0 0 0 0 0 0 0 0 0 127 0" result="hardAlpha"/>
<feMorphology radius="2" operator="erode" in="SourceAlpha" result="effect2_dropShadow_2206_10411"/>
<feOffset dy="2"/>
<feGaussianBlur stdDeviation="2"/>
<feComposite in2="hardAlpha" operator="out"/>
<feColorMatrix type="matrix" values="0 0 0 0 0.027451 0 0 0 0 0.0392157 0 0 0 0 0.105882 0 0 0 0.05 0"/>
<feBlend mode="normal" in2="effect1_dropShadow_2206_10411" result="effect2_dropShadow_2206_10411"/>
<feBlend mode="normal" in="SourceGraphic" in2="effect2_dropShadow_2206_10411" result="shape"/>
<feColorMatrix in="SourceAlpha" type="matrix" values="0 0 0 0 0 0 0 0 0 0 0 0 0 0 0 0 0 0 127 0" result="hardAlpha"/>
<feMorphology radius="1" operator="erode" in="SourceAlpha" result="effect3_innerShadow_2206_10411"/>
<feOffset/>
<feComposite in2="hardAlpha" operator="arithmetic" k2="-1" k3="1"/>
<feColorMatrix type="matrix" values="0 0 0 0 0.32549 0 0 0 0 0.513726 0 0 0 0 1 0 0 0 0.2 0"/>
<feBlend mode="normal" in2="shape" result="effect3_innerShadow_2206_10411"/>
</filter>
<radialGradient id="paint0_radial_2206_10411" cx="0" cy="0" r="1" gradientUnits="userSpaceOnUse" gradientTransform="translate(5 1) rotate(45) scale(147.078)">
<stop stop-color="#5383FF"/>
<stop offset="0.973958" stop-color="#5383FF" stop-opacity="0.1"/>
</radialGradient>
<radialGradient id="paint1_radial_2206_10411" cx="0" cy="0" r="1" gradientUnits="userSpaceOnUse" gradientTransform="translate(36.5 30) rotate(43.7267) scale(170.815 230.998)">
<stop stop-color="#E0E7FF" stop-opacity="0"/>
<stop offset="1" stop-color="#E0E7FF"/>
</radialGradient>
<clipPath id="clip0_2206_10411">
<rect x="5" y="1" width="104" height="104" rx="52" fill="white"/>
</clipPath>
</defs>
</svg>
