<svg width="114" height="114" viewBox="0 0 114 114" fill="none" xmlns="http://www.w3.org/2000/svg">
<g filter="url(#filter0_ddi_919_17074)">
<g clip-path="url(#clip0_919_17074)">
<rect x="5" y="1" width="104" height="104" rx="52" fill="#1E2237"/>
<rect x="5" y="1" width="104" height="104" rx="52" fill="url(#paint0_radial_919_17074)" fill-opacity="0.3"/>
<path opacity="0.1" d="M89.5781 53H57M89.5781 53H109.125M89.5781 53V32.3672M89.5781 53H143.875M89.5781 53V85.5781M89.5781 53H196M57 53V20.4219M57 53H24.4219M57 53V85.5781M196 53H109.125M196 53V-33.875M196 53H143.875M196 53V192H143.875M57 20.4219V-33.875M57 20.4219H89.5781M57 20.4219V0.875M57 20.4219H36.3672M57 20.4219V-86M109.125 53V32.3672M196 -33.875V-86H57M196 -33.875H109.125M57 -86V-33.875M57 -86V0.875M57 -86H-29.875M57 -33.875H109.125M109.125 -33.875V20.4219M109.125 20.4219H97.1797M109.125 20.4219V32.3672M89.5781 20.4219H97.1797M89.5781 20.4219V32.3672M97.1797 20.4219V32.3672M97.1797 32.3672H89.5781M97.1797 32.3672H109.125M24.4219 53H-29.875M24.4219 53V20.4219M24.4219 53H4.875M24.4219 53V73.6328M24.4219 53H-82M57 0.875H36.3672M-29.875 -86H-82V53M-29.875 -86V0.875M-82 53H-29.875M-82 53H4.875M-82 53V139.875M-29.875 53V0.875M-29.875 0.875H24.4219M24.4219 0.875V12.8203M24.4219 0.875H36.3672M24.4219 20.4219V12.8203M24.4219 20.4219H36.3672M24.4219 12.8203H36.3672M36.3672 12.8203V20.4219M36.3672 12.8203V0.875M57 85.5781V105.125M57 85.5781H77.6328M57 85.5781V139.875M57 85.5781H24.4219M57 85.5781V192M57 192V105.125M57 192H143.875M57 192V139.875M57 192H-82V139.875M57 105.125H77.6328M143.875 192V105.125M143.875 53V105.125M143.875 105.125H89.5781M89.5781 105.125V93.1797M89.5781 105.125H77.6328M89.5781 85.5781V93.1797M89.5781 85.5781H77.6328M89.5781 93.1797H77.6328M77.6328 93.1797V85.5781M77.6328 93.1797V105.125M4.875 53V73.6328M-82 139.875H4.875M57 139.875H4.875M4.875 139.875V85.5781M4.875 85.5781H16.8203M4.875 85.5781V73.6328M24.4219 85.5781H16.8203M24.4219 85.5781V73.6328M16.8203 85.5781V73.6328M16.8203 73.6328H24.4219M16.8203 73.6328H4.875" stroke="url(#paint1_radial_919_17074)" stroke-width="1.31132"/>
<path fill-rule="evenodd" clip-rule="evenodd" d="M58.4046 42.8906C58.0945 42.383 57.5353 42.0442 56.8969 42.0442C55.5922 42.0442 54.5427 43.0936 54.5427 44.3983C54.5427 45.6336 55.5469 46.7525 56.8969 46.7525C57.5917 46.7525 58.1703 46.44 58.5544 46.0559C58.9385 45.6717 59.251 45.0931 59.251 44.3983C59.251 43.7599 58.9122 43.2007 58.4046 42.8906Z" fill="#5383FF"/>
<path fill-rule="evenodd" clip-rule="evenodd" d="M53.1302 61.4896C53.1302 60.5145 53.9207 59.724 54.8958 59.724H60.334C61.3091 59.724 62.0996 60.5145 62.0996 61.4896C62.0996 62.4647 61.3091 63.2552 60.334 63.2552H54.8958C53.9207 63.2552 53.1302 62.4647 53.1302 61.4896Z" fill="#5383FF"/>
<path fill-rule="evenodd" clip-rule="evenodd" d="M48.4662 32.0441C51.251 30.8906 54.2358 30.2969 57.25 30.2969C60.2642 30.2969 63.249 30.8906 66.0338 32.0441C68.8186 33.1976 71.3489 34.8883 73.4803 37.0197C75.6117 39.1511 77.3024 41.6814 78.4559 44.4662C79.6094 47.251 80.2031 50.2358 80.2031 53.25C80.2031 56.2642 79.6094 59.249 78.4559 62.0338C77.3024 64.8186 75.6117 67.3489 73.4803 69.4803C71.3489 71.6117 68.8186 73.3024 66.0338 74.4559C63.249 75.6094 60.2642 76.2031 57.25 76.2031C54.2358 76.2031 51.251 75.6094 48.4662 74.4559C45.6814 73.3024 43.1511 71.6117 41.0197 69.4803C38.8883 67.3489 37.1976 64.8186 36.0441 62.0338C34.8906 59.249 34.2969 56.2642 34.2969 53.25C34.2969 50.2358 34.8906 47.251 36.0441 44.4662C37.1976 41.6814 38.8883 39.1511 41.0197 37.0197C43.1511 34.8883 45.6814 33.1976 48.4662 32.0441ZM57.25 33.8281C54.6995 33.8281 52.1739 34.3305 49.8176 35.3065C47.4612 36.2826 45.3201 37.7132 43.5167 39.5167C41.7132 41.3201 40.2826 43.4612 39.3065 45.8176C38.3305 48.1739 37.8281 50.6995 37.8281 53.25C37.8281 55.8005 38.3305 58.3261 39.3065 60.6824C40.2826 63.0388 41.7132 65.1799 43.5167 66.9833C45.3201 68.7868 47.4612 70.2174 49.8176 71.1935C52.1739 72.1695 54.6995 72.6719 57.25 72.6719C59.8005 72.6719 62.3261 72.1695 64.6824 71.1935C67.0388 70.2174 69.1798 68.7868 70.9833 66.9833C72.7868 65.1798 74.2174 63.0388 75.1935 60.6824C76.1695 58.3261 76.6719 55.8005 76.6719 53.25C76.6719 50.6995 76.1695 48.1739 75.1935 45.8176C74.2174 43.4612 72.7868 41.3201 70.9833 39.5167C69.1799 37.7132 67.0388 36.2826 64.6824 35.3065C62.3261 34.3305 59.8005 33.8281 57.25 33.8281ZM55.9778 45.3317C56.2922 45.8183 56.8394 46.1404 57.4619 46.1404C58.437 46.1404 59.2275 45.3499 59.2275 44.3748C59.2275 43.6829 58.9169 43.0956 58.5136 42.7032C58.1084 42.309 57.4827 41.9921 56.7379 42.0494C55.7919 42.1221 55.0726 42.9295 55.109 43.8776C55.1329 44.4995 55.4764 45.0361 55.9778 45.3317ZM53.1514 51.4844C53.1514 50.5092 53.9419 49.7188 54.917 49.7188H57.6243C58.5994 49.7188 59.3899 50.5092 59.3899 51.4844V61.4896C59.3899 62.4647 58.5994 63.2552 57.6243 63.2552C56.6492 63.2552 55.8587 62.4647 55.8587 61.4896V53.25H54.917C53.9419 53.25 53.1514 52.4595 53.1514 51.4844Z" fill="#5383FF"/>
</g>
</g>
<defs>
<filter id="filter0_ddi_919_17074" x="0" y="0" width="114" height="114" filterUnits="userSpaceOnUse" color-interpolation-filters="sRGB">
<feFlood flood-opacity="0" result="BackgroundImageFix"/>
<feColorMatrix in="SourceAlpha" type="matrix" values="0 0 0 0 0 0 0 0 0 0 0 0 0 0 0 0 0 0 127 0" result="hardAlpha"/>
<feMorphology radius="1" operator="erode" in="SourceAlpha" result="effect1_dropShadow_919_17074"/>
<feOffset dy="4"/>
<feGaussianBlur stdDeviation="3"/>
<feComposite in2="hardAlpha" operator="out"/>
<feColorMatrix type="matrix" values="0 0 0 0 0.027451 0 0 0 0 0.0392157 0 0 0 0 0.105882 0 0 0 0.05 0"/>
<feBlend mode="normal" in2="BackgroundImageFix" result="effect1_dropShadow_919_17074"/>
<feColorMatrix in="SourceAlpha" type="matrix" values="0 0 0 0 0 0 0 0 0 0 0 0 0 0 0 0 0 0 127 0" result="hardAlpha"/>
<feMorphology radius="2" operator="erode" in="SourceAlpha" result="effect2_dropShadow_919_17074"/>
<feOffset dy="2"/>
<feGaussianBlur stdDeviation="2"/>
<feComposite in2="hardAlpha" operator="out"/>
<feColorMatrix type="matrix" values="0 0 0 0 0.027451 0 0 0 0 0.0392157 0 0 0 0 0.105882 0 0 0 0.05 0"/>
<feBlend mode="normal" in2="effect1_dropShadow_919_17074" result="effect2_dropShadow_919_17074"/>
<feBlend mode="normal" in="SourceGraphic" in2="effect2_dropShadow_919_17074" result="shape"/>
<feColorMatrix in="SourceAlpha" type="matrix" values="0 0 0 0 0 0 0 0 0 0 0 0 0 0 0 0 0 0 127 0" result="hardAlpha"/>
<feMorphology radius="1" operator="erode" in="SourceAlpha" result="effect3_innerShadow_919_17074"/>
<feOffset/>
<feComposite in2="hardAlpha" operator="arithmetic" k2="-1" k3="1"/>
<feColorMatrix type="matrix" values="0 0 0 0 0.32549 0 0 0 0 0.513726 0 0 0 0 1 0 0 0 0.2 0"/>
<feBlend mode="normal" in2="shape" result="effect3_innerShadow_919_17074"/>
</filter>
<radialGradient id="paint0_radial_919_17074" cx="0" cy="0" r="1" gradientUnits="userSpaceOnUse" gradientTransform="translate(5 1) rotate(45) scale(147.078)">
<stop stop-color="#5383FF"/>
<stop offset="0.973958" stop-color="#5383FF" stop-opacity="0.1"/>
</radialGradient>
<radialGradient id="paint1_radial_919_17074" cx="0" cy="0" r="1" gradientUnits="userSpaceOnUse" gradientTransform="translate(36.5 30) rotate(43.7267) scale(170.815 230.998)">
<stop stop-color="#E0E7FF" stop-opacity="0"/>
<stop offset="1" stop-color="#E0E7FF"/>
</radialGradient>
<clipPath id="clip0_919_17074">
<rect x="5" y="1" width="104" height="104" rx="52" fill="white"/>
</clipPath>
</defs>
</svg>
