<svg width="48" height="48" viewBox="0 0 48 48" fill="none" xmlns="http://www.w3.org/2000/svg">
<rect width="48" height="48" rx="24" fill="#5383FF" fill-opacity="0.15"/>
<rect x="0.5" y="0.5" width="47" height="47" rx="23.5" stroke="#5383FF" stroke-opacity="0.15"/>
<path fill-rule="evenodd" clip-rule="evenodd" d="M18 15.75C16.7542 15.75 15.75 16.7542 15.75 18V18.25H32.25V18C32.25 16.7558 31.2374 15.75 30 15.75H18ZM33.75 18C33.75 15.9242 32.0626 14.25 30 14.25H18C15.9258 14.25 14.25 15.9258 14.25 18V26C14.25 28.0626 15.9242 29.75 18 29.75H23C23.4142 29.75 23.75 29.4142 23.75 29C23.75 28.5858 23.4142 28.25 23 28.25H18C16.7558 28.25 15.75 27.2374 15.75 26V19.75H32.25V21C32.25 21.4142 32.5858 21.75 33 21.75C33.4142 21.75 33.75 21.4142 33.75 21V18ZM18.24 23C18.24 22.5858 18.5758 22.25 18.99 22.25H21.52C21.9342 22.25 22.27 22.5858 22.27 23C22.27 23.4142 21.9342 23.75 21.52 23.75H18.99C18.5758 23.75 18.24 23.4142 18.24 23ZM27.5555 23.5555C28.0712 23.0397 28.7707 22.75 29.5 22.75C30.2293 22.75 30.9288 23.0397 31.4445 23.5555C31.9603 24.0712 32.25 24.7707 32.25 25.5C32.25 26.2293 31.9603 26.9288 31.4445 27.4445C30.9288 27.9603 30.2293 28.25 29.5 28.25C28.7707 28.25 28.0712 27.9603 27.5555 27.4445C27.0397 26.9288 26.75 26.2293 26.75 25.5C26.75 24.7707 27.0397 24.0712 27.5555 23.5555ZM29.5 24.25C29.1685 24.25 28.8505 24.3817 28.6161 24.6161C28.3817 24.8505 28.25 25.1685 28.25 25.5C28.25 25.8315 28.3817 26.1495 28.6161 26.3839C28.8505 26.6183 29.1685 26.75 29.5 26.75C29.8315 26.75 30.1495 26.6183 30.3839 26.3839C30.6183 26.1495 30.75 25.8315 30.75 25.5C30.75 25.1685 30.6183 24.8505 30.3839 24.6161C30.1495 24.3817 29.8315 24.25 29.5 24.25ZM28.09 30.74C27.3489 30.74 26.75 31.3395 26.75 32.09V32.23H32.24V32.08C32.24 31.3365 31.6381 30.74 30.9 30.74H28.09ZM25.25 32.3576V32.09C25.25 30.5205 26.5111 29.24 28.09 29.24H30.9C32.4619 29.24 33.74 30.5035 33.74 32.08V32.48C33.74 33.1642 33.1742 33.73 32.49 33.73H26.49C25.7861 33.73 25.24 33.1544 25.24 32.48C25.24 32.4384 25.2434 32.3975 25.25 32.3576Z" fill="#5383FF"/>
</svg>
