<svg width="114" height="114" viewBox="0 0 114 114" fill="none" xmlns="http://www.w3.org/2000/svg">
<g filter="url(#filter0_ddi_773_20631)">
<g clip-path="url(#clip0_773_20631)">
<rect x="5" y="1" width="104" height="104" rx="52" fill="#1E2237"/>
<rect x="5" y="1" width="104" height="104" rx="52" fill="url(#paint0_radial_773_20631)" fill-opacity="0.3"/>
<path opacity="0.1" d="M89.5781 53H57M89.5781 53H109.125M89.5781 53V32.3672M89.5781 53H143.875M89.5781 53V85.5781M89.5781 53H196M57 53V20.4219M57 53H24.4219M57 53V85.5781M196 53H109.125M196 53V-33.875M196 53H143.875M196 53V192H143.875M57 20.4219V-33.875M57 20.4219H89.5781M57 20.4219V0.875M57 20.4219H36.3672M57 20.4219V-86M109.125 53V32.3672M196 -33.875V-86H57M196 -33.875H109.125M57 -86V-33.875M57 -86V0.875M57 -86H-29.875M57 -33.875H109.125M109.125 -33.875V20.4219M109.125 20.4219H97.1797M109.125 20.4219V32.3672M89.5781 20.4219H97.1797M89.5781 20.4219V32.3672M97.1797 20.4219V32.3672M97.1797 32.3672H89.5781M97.1797 32.3672H109.125M24.4219 53H-29.875M24.4219 53V20.4219M24.4219 53H4.875M24.4219 53V73.6328M24.4219 53H-82M57 0.875H36.3672M-29.875 -86H-82V53M-29.875 -86V0.875M-82 53H-29.875M-82 53H4.875M-82 53V139.875M-29.875 53V0.875M-29.875 0.875H24.4219M24.4219 0.875V12.8203M24.4219 0.875H36.3672M24.4219 20.4219V12.8203M24.4219 20.4219H36.3672M24.4219 12.8203H36.3672M36.3672 12.8203V20.4219M36.3672 12.8203V0.875M57 85.5781V105.125M57 85.5781H77.6328M57 85.5781V139.875M57 85.5781H24.4219M57 85.5781V192M57 192V105.125M57 192H143.875M57 192V139.875M57 192H-82V139.875M57 105.125H77.6328M143.875 192V105.125M143.875 53V105.125M143.875 105.125H89.5781M89.5781 105.125V93.1797M89.5781 105.125H77.6328M89.5781 85.5781V93.1797M89.5781 85.5781H77.6328M89.5781 93.1797H77.6328M77.6328 93.1797V85.5781M77.6328 93.1797V105.125M4.875 53V73.6328M-82 139.875H4.875M57 139.875H4.875M4.875 139.875V85.5781M4.875 85.5781H16.8203M4.875 85.5781V73.6328M24.4219 85.5781H16.8203M24.4219 85.5781V73.6328M16.8203 85.5781V73.6328M16.8203 73.6328H24.4219M16.8203 73.6328H4.875" stroke="url(#paint1_radial_773_20631)" stroke-width="1.31132"/>
<path fill-rule="evenodd" clip-rule="evenodd" d="M54.1804 30.5363C55.1335 29.9884 56.195 29.7139 57.2581 29.7188C58.3018 29.7237 59.3415 29.998 60.2752 30.5381C60.2757 30.5384 60.2746 30.5378 60.2752 30.5381L75.3864 39.2589C75.3869 39.2591 75.3859 39.2586 75.3864 39.2589C76.2584 39.7609 76.98 40.4597 77.5013 41.2848C78.104 42.2388 78.4372 43.3575 78.4372 44.5276V61.9719C78.4372 62.2185 78.386 62.4566 78.2918 62.6738C78.0445 64.5189 76.9561 66.179 75.3339 67.135L75.322 67.142L60.2187 75.8835C59.3052 76.4017 58.287 76.6641 57.2738 76.6778C56.2049 76.6923 55.1248 76.4302 54.1632 75.8807L54.1573 75.8773L39.0585 67.1715C37.1401 66.0897 36.0247 64.0526 36.0247 61.9178V44.497C36.0247 43.3482 36.3528 42.2397 36.9428 41.2935C37.463 40.4594 38.1901 39.7462 39.0821 39.2433L54.1804 30.5363ZM74.906 61.3085V44.5276C74.906 44.0322 74.7658 43.5664 74.5159 43.1708C74.2994 42.8281 73.9978 42.534 73.6252 42.3195L58.5074 33.595C58.1116 33.3659 57.6764 33.252 57.2416 33.25C56.7991 33.248 56.3513 33.3617 55.9412 33.5972C55.941 33.5974 55.9415 33.5971 55.9412 33.5972L40.8205 42.3171C40.4578 42.5208 40.157 42.8128 39.9392 43.1621C39.6921 43.5583 39.5559 44.0212 39.5559 44.497V61.9178C39.5559 62.8398 40.0375 63.6715 40.7969 64.0978L40.8146 64.1077L55.9152 72.8148C55.916 72.8152 55.9167 72.8156 55.9175 72.8161C56.3091 73.0393 56.763 73.1532 57.2259 73.1469C57.6628 73.141 58.0928 73.0282 58.47 72.8155C58.472 72.8144 58.474 72.8132 58.476 72.8121L73.5411 64.0927C73.5428 64.0917 73.5445 64.0907 73.5462 64.0897C74.3252 63.6281 74.8142 62.7711 74.8142 61.8707C74.8142 61.6759 74.8461 61.4865 74.906 61.3085ZM43.3341 45.0952C43.8272 44.2539 44.9088 43.9715 45.7501 44.4646L57.2487 51.2027L68.7148 44.4656C69.5555 43.9716 70.6375 44.2527 71.1315 45.0934C71.6255 45.9342 71.3444 47.0162 70.5037 47.5102L59.0155 54.2602V67.3748C59.0155 68.3499 58.225 69.1404 57.2498 69.1404C56.2747 69.1404 55.4842 68.3499 55.4842 67.3748V54.2616L43.9648 47.5112C43.1235 47.0182 42.8411 45.9365 43.3341 45.0952Z" fill="#5383FF"/>
</g>
</g>
<defs>
<filter id="filter0_ddi_773_20631" x="0" y="0" width="114" height="114" filterUnits="userSpaceOnUse" color-interpolation-filters="sRGB">
<feFlood flood-opacity="0" result="BackgroundImageFix"/>
<feColorMatrix in="SourceAlpha" type="matrix" values="0 0 0 0 0 0 0 0 0 0 0 0 0 0 0 0 0 0 127 0" result="hardAlpha"/>
<feMorphology radius="1" operator="erode" in="SourceAlpha" result="effect1_dropShadow_773_20631"/>
<feOffset dy="4"/>
<feGaussianBlur stdDeviation="3"/>
<feComposite in2="hardAlpha" operator="out"/>
<feColorMatrix type="matrix" values="0 0 0 0 0.027451 0 0 0 0 0.0392157 0 0 0 0 0.105882 0 0 0 0.05 0"/>
<feBlend mode="normal" in2="BackgroundImageFix" result="effect1_dropShadow_773_20631"/>
<feColorMatrix in="SourceAlpha" type="matrix" values="0 0 0 0 0 0 0 0 0 0 0 0 0 0 0 0 0 0 127 0" result="hardAlpha"/>
<feMorphology radius="2" operator="erode" in="SourceAlpha" result="effect2_dropShadow_773_20631"/>
<feOffset dy="2"/>
<feGaussianBlur stdDeviation="2"/>
<feComposite in2="hardAlpha" operator="out"/>
<feColorMatrix type="matrix" values="0 0 0 0 0.027451 0 0 0 0 0.0392157 0 0 0 0 0.105882 0 0 0 0.05 0"/>
<feBlend mode="normal" in2="effect1_dropShadow_773_20631" result="effect2_dropShadow_773_20631"/>
<feBlend mode="normal" in="SourceGraphic" in2="effect2_dropShadow_773_20631" result="shape"/>
<feColorMatrix in="SourceAlpha" type="matrix" values="0 0 0 0 0 0 0 0 0 0 0 0 0 0 0 0 0 0 127 0" result="hardAlpha"/>
<feMorphology radius="1" operator="erode" in="SourceAlpha" result="effect3_innerShadow_773_20631"/>
<feOffset/>
<feComposite in2="hardAlpha" operator="arithmetic" k2="-1" k3="1"/>
<feColorMatrix type="matrix" values="0 0 0 0 0.32549 0 0 0 0 0.513726 0 0 0 0 1 0 0 0 0.2 0"/>
<feBlend mode="normal" in2="shape" result="effect3_innerShadow_773_20631"/>
</filter>
<radialGradient id="paint0_radial_773_20631" cx="0" cy="0" r="1" gradientUnits="userSpaceOnUse" gradientTransform="translate(5 1) rotate(45) scale(147.078)">
<stop stop-color="#5383FF"/>
<stop offset="0.973958" stop-color="#5383FF" stop-opacity="0.1"/>
</radialGradient>
<radialGradient id="paint1_radial_773_20631" cx="0" cy="0" r="1" gradientUnits="userSpaceOnUse" gradientTransform="translate(36.5 30) rotate(43.7267) scale(170.815 230.998)">
<stop stop-color="#E0E7FF" stop-opacity="0"/>
<stop offset="1" stop-color="#E0E7FF"/>
</radialGradient>
<clipPath id="clip0_773_20631">
<rect x="5" y="1" width="104" height="104" rx="52" fill="white"/>
</clipPath>
</defs>
</svg>
