<svg width="12" height="12" viewBox="0 0 12 12" fill="none" xmlns="http://www.w3.org/2000/svg">
<path fill-rule="evenodd" clip-rule="evenodd" d="M6.00093 0.248353C6.16766 0.248766 6.31966 0.343908 6.39289 0.493693L8.0007 3.78229L11.599 4.30888C11.7635 4.33295 11.9001 4.44811 11.9516 4.60612C12.0032 4.76412 11.9607 4.93768 11.8421 5.05407L9.2345 7.61223L9.84949 11.2286C9.87745 11.393 9.80951 11.559 9.6743 11.6566C9.53909 11.7543 9.36014 11.7665 9.21288 11.6883L5.99311 9.9772L2.77348 11.6827C2.6262 11.7607 2.44739 11.7483 2.31233 11.6506C2.17727 11.553 2.10944 11.3871 2.13738 11.2228L2.75242 7.60611L0.144463 5.04208C0.0260943 4.9257 -0.0162184 4.75236 0.0352179 4.59454C0.0866542 4.43671 0.222979 4.32159 0.387189 4.29731L3.98735 3.76497L5.60777 0.491749C5.68174 0.342329 5.83421 0.247941 6.00093 0.248353ZM5.9974 1.67692L4.66994 4.35837C4.60631 4.4869 4.48372 4.57608 4.34185 4.59706L1.38466 5.03433L3.52874 7.14229C3.63079 7.24263 3.67732 7.38653 3.65333 7.52762L3.14893 10.4936L5.78864 9.09533C5.91692 9.02738 6.07055 9.02748 6.19874 9.0956L8.83769 10.498L8.33354 7.53345C8.30952 7.3922 8.35619 7.24814 8.45846 7.1478L10.5999 5.04698L7.64567 4.61466C7.50278 4.59375 7.37941 4.50367 7.31598 4.37393L5.9974 1.67692Z" fill="#8C90A4"/>
</svg>
