<svg width="114" height="114" viewBox="0 0 114 114" fill="none" xmlns="http://www.w3.org/2000/svg">
<g filter="url(#filter0_ddi_773_20365)">
<g clip-path="url(#clip0_773_20365)">
<rect x="5" y="1" width="104" height="104" rx="52" fill="white"/>
<rect x="5" y="1" width="104" height="104" rx="52" fill="url(#paint0_radial_773_20365)"/>
<path opacity="0.7" d="M89.5781 53H57M89.5781 53H109.125M89.5781 53V32.3672M89.5781 53H143.875M89.5781 53V85.5781M89.5781 53H196M57 53V20.4219M57 53H24.4219M57 53V85.5781M196 53H109.125M196 53V-33.875M196 53H143.875M196 53V192H143.875M57 20.4219V-33.875M57 20.4219H89.5781M57 20.4219V0.875M57 20.4219H36.3672M57 20.4219V-86M109.125 53V32.3672M196 -33.875V-86H57M196 -33.875H109.125M57 -86V-33.875M57 -86V0.875M57 -86H-29.875M57 -33.875H109.125M109.125 -33.875V20.4219M109.125 20.4219H97.1797M109.125 20.4219V32.3672M89.5781 20.4219H97.1797M89.5781 20.4219V32.3672M97.1797 20.4219V32.3672M97.1797 32.3672H89.5781M97.1797 32.3672H109.125M24.4219 53H-29.875M24.4219 53V20.4219M24.4219 53H4.875M24.4219 53V73.6328M24.4219 53H-82M57 0.875H36.3672M-29.875 -86H-82V53M-29.875 -86V0.875M-82 53H-29.875M-82 53H4.875M-82 53V139.875M-29.875 53V0.875M-29.875 0.875H24.4219M24.4219 0.875V12.8203M24.4219 0.875H36.3672M24.4219 20.4219V12.8203M24.4219 20.4219H36.3672M24.4219 12.8203H36.3672M36.3672 12.8203V20.4219M36.3672 12.8203V0.875M57 85.5781V105.125M57 85.5781H77.6328M57 85.5781V139.875M57 85.5781H24.4219M57 85.5781V192M57 192V105.125M57 192H143.875M57 192V139.875M57 192H-82V139.875M57 105.125H77.6328M143.875 192V105.125M143.875 53V105.125M143.875 105.125H89.5781M89.5781 105.125V93.1797M89.5781 105.125H77.6328M89.5781 85.5781V93.1797M89.5781 85.5781H77.6328M89.5781 93.1797H77.6328M77.6328 93.1797V85.5781M77.6328 93.1797V105.125M4.875 53V73.6328M-82 139.875H4.875M57 139.875H4.875M4.875 139.875V85.5781M4.875 85.5781H16.8203M4.875 85.5781V73.6328M24.4219 85.5781H16.8203M24.4219 85.5781V73.6328M16.8203 85.5781V73.6328M16.8203 73.6328H24.4219M16.8203 73.6328H4.875" stroke="url(#paint1_radial_773_20365)" stroke-width="1.31132"/>
<path fill-rule="evenodd" clip-rule="evenodd" d="M45.4791 36.1821C43.1819 36.1821 41.3593 38.0048 41.3593 40.3019V47.3644C41.3593 49.7281 40.2861 51.8423 38.6006 53.246C40.2854 54.6451 41.3593 56.7567 41.3593 59.1353V66.1978C41.3593 68.476 43.1865 70.3175 45.4791 70.3175C46.4542 70.3175 47.2447 71.108 47.2447 72.0832C47.2447 73.0583 46.4542 73.8488 45.4791 73.8488C41.2271 73.8488 37.828 70.417 37.828 66.1978V59.1353C37.828 56.8427 35.9865 55.0155 33.7083 55.0155C32.7331 55.0155 31.9426 54.225 31.9426 53.2498C31.9426 52.2747 32.7331 51.4842 33.7083 51.4842C35.9819 51.4842 37.828 49.638 37.828 47.3644V40.3019C37.828 36.0545 41.2317 32.6509 45.4791 32.6509C46.4542 32.6509 47.2447 33.4414 47.2447 34.4165C47.2447 35.3916 46.4542 36.1821 45.4791 36.1821ZM67.2551 34.4165C67.2551 33.4414 68.0456 32.6509 69.0208 32.6509C73.24 32.6509 76.6718 36.0499 76.6718 40.3019V47.3644C76.6718 49.6427 78.499 51.4842 80.7916 51.4842C81.7667 51.4842 82.5572 52.2747 82.5572 53.2498C82.5572 54.225 81.7667 55.0155 80.7916 55.0155C78.4944 55.0155 76.6718 56.8381 76.6718 59.1353V66.1978C76.6718 70.4216 73.2446 73.8488 69.0208 73.8488C68.0456 73.8488 67.2551 73.0583 67.2551 72.0832C67.2551 71.108 68.0456 70.3175 69.0208 70.3175C71.2944 70.3175 73.1405 68.4714 73.1405 66.1978V59.1353C73.1405 56.7584 74.2064 54.6459 75.8894 53.2461C74.2057 51.8416 73.1405 49.7264 73.1405 47.3644V40.3019C73.1405 38.0094 71.299 36.1821 69.0208 36.1821C68.0456 36.1821 67.2551 35.3916 67.2551 34.4165Z" fill="#5383FF"/>
<path fill-rule="evenodd" clip-rule="evenodd" d="M51.953 53.8384C52.269 53.8384 52.5416 53.5658 52.5416 53.2498C52.5416 52.9334 52.2919 52.6613 51.953 52.6613C51.7626 52.6613 51.6184 52.7413 51.5315 52.8283C51.4445 52.9152 51.3645 53.0594 51.3645 53.2498C51.3645 53.5887 51.6366 53.8384 51.953 53.8384ZM49.0103 53.2498C49.0103 51.6155 50.3188 50.3071 51.953 50.3071C53.5408 50.3071 54.8958 51.5927 54.8958 53.2498C54.8958 54.8606 53.5638 56.1925 51.953 56.1925C50.2959 56.1925 49.0103 54.8376 49.0103 53.2498ZM63.7239 53.8384C64.0398 53.8384 64.3124 53.5658 64.3124 53.2498C64.3124 52.9334 64.0627 52.6613 63.7239 52.6613C63.5335 52.6613 63.3892 52.7413 63.3023 52.8283C63.2154 52.9152 63.1353 53.0594 63.1353 53.2498C63.1353 53.5887 63.4074 53.8384 63.7239 53.8384ZM60.7812 53.2498C60.7812 51.6155 62.0896 50.3071 63.7239 50.3071C65.3116 50.3071 66.6666 51.5927 66.6666 53.2498C66.6666 54.8606 65.3346 56.1925 63.7239 56.1925C62.0667 56.1925 60.7812 54.8376 60.7812 53.2498Z" fill="#5383FF"/>
<path d="M52.5416 53.2498C52.5416 53.5658 52.269 53.8384 51.953 53.8384C51.6366 53.8384 51.3645 53.5887 51.3645 53.2498C51.3645 53.0594 51.4445 52.9152 51.5315 52.8283C51.6184 52.7413 51.7626 52.6613 51.953 52.6613C52.2919 52.6613 52.5416 52.9334 52.5416 53.2498Z" fill="#5383FF"/>
<path d="M64.3124 53.2498C64.3124 53.5658 64.0398 53.8384 63.7239 53.8384C63.4074 53.8384 63.1353 53.5887 63.1353 53.2498C63.1353 53.0594 63.2154 52.9152 63.3023 52.8283C63.3892 52.7413 63.5335 52.6613 63.7239 52.6613C64.0627 52.6613 64.3124 52.9334 64.3124 53.2498Z" fill="#5383FF"/>
</g>
</g>
<defs>
<filter id="filter0_ddi_773_20365" x="0" y="0" width="114" height="114" filterUnits="userSpaceOnUse" color-interpolation-filters="sRGB">
<feFlood flood-opacity="0" result="BackgroundImageFix"/>
<feColorMatrix in="SourceAlpha" type="matrix" values="0 0 0 0 0 0 0 0 0 0 0 0 0 0 0 0 0 0 127 0" result="hardAlpha"/>
<feMorphology radius="1" operator="erode" in="SourceAlpha" result="effect1_dropShadow_773_20365"/>
<feOffset dy="4"/>
<feGaussianBlur stdDeviation="3"/>
<feComposite in2="hardAlpha" operator="out"/>
<feColorMatrix type="matrix" values="0 0 0 0 0.027451 0 0 0 0 0.0392157 0 0 0 0 0.105882 0 0 0 0.05 0"/>
<feBlend mode="normal" in2="BackgroundImageFix" result="effect1_dropShadow_773_20365"/>
<feColorMatrix in="SourceAlpha" type="matrix" values="0 0 0 0 0 0 0 0 0 0 0 0 0 0 0 0 0 0 127 0" result="hardAlpha"/>
<feMorphology radius="2" operator="erode" in="SourceAlpha" result="effect2_dropShadow_773_20365"/>
<feOffset dy="2"/>
<feGaussianBlur stdDeviation="2"/>
<feComposite in2="hardAlpha" operator="out"/>
<feColorMatrix type="matrix" values="0 0 0 0 0.027451 0 0 0 0 0.0392157 0 0 0 0 0.105882 0 0 0 0.05 0"/>
<feBlend mode="normal" in2="effect1_dropShadow_773_20365" result="effect2_dropShadow_773_20365"/>
<feBlend mode="normal" in="SourceGraphic" in2="effect2_dropShadow_773_20365" result="shape"/>
<feColorMatrix in="SourceAlpha" type="matrix" values="0 0 0 0 0 0 0 0 0 0 0 0 0 0 0 0 0 0 127 0" result="hardAlpha"/>
<feMorphology radius="1" operator="erode" in="SourceAlpha" result="effect3_innerShadow_773_20365"/>
<feOffset/>
<feComposite in2="hardAlpha" operator="arithmetic" k2="-1" k3="1"/>
<feColorMatrix type="matrix" values="0 0 0 0 0.764706 0 0 0 0 0.831373 0 0 0 0 1 0 0 0 1 0"/>
<feBlend mode="normal" in2="shape" result="effect3_innerShadow_773_20365"/>
</filter>
<radialGradient id="paint0_radial_773_20365" cx="0" cy="0" r="1" gradientUnits="userSpaceOnUse" gradientTransform="translate(5 1) rotate(45) scale(147.078)">
<stop stop-color="#5383FF" stop-opacity="0"/>
<stop offset="1" stop-color="#5383FF" stop-opacity="0.1"/>
</radialGradient>
<radialGradient id="paint1_radial_773_20365" cx="0" cy="0" r="1" gradientUnits="userSpaceOnUse" gradientTransform="translate(36.5 30) rotate(43.7267) scale(170.815 230.998)">
<stop stop-color="#E0E7FF" stop-opacity="0"/>
<stop offset="1" stop-color="#E0E7FF"/>
</radialGradient>
<clipPath id="clip0_773_20365">
<rect x="5" y="1" width="104" height="104" rx="52" fill="white"/>
</clipPath>
</defs>
</svg>
