<svg width="48" height="48" viewBox="0 0 48 48" fill="none" xmlns="http://www.w3.org/2000/svg">
<path d="M20.584 20.9528C21.4489 23.5978 21.7766 28.3162 24.3058 28.3162C24.4984 28.3162 24.693 28.2974 24.8883 28.2603C22.5891 27.7242 22.3166 23.0571 20.9136 20.6401C20.8036 20.7401 20.6944 20.8443 20.584 20.9528Z" fill="url(#paint0_linear_566_15578)"/>
<path d="M20.9141 20.6392C22.317 23.0561 22.5895 27.7233 24.8887 28.2594C25.0694 28.2262 25.2504 28.176 25.4318 28.1127C23.368 27.1015 22.7976 22.5694 21.2043 20.3876C21.1078 20.4679 21.0109 20.552 20.9141 20.6392Z" fill="url(#paint1_linear_566_15578)"/>
<path d="M22.935 19.2021C22.7428 19.2021 22.5479 19.221 22.3522 19.2581C21.8404 19.3546 21.3205 19.575 20.7964 19.9085C20.9396 20.0497 21.0758 20.2114 21.2039 20.3878C21.737 19.9455 22.2665 19.6186 22.7941 19.4221C22.9921 19.3488 23.1894 19.2936 23.3874 19.2574C23.2446 19.221 23.094 19.2021 22.935 19.2021Z" fill="#14559A"/>
<path d="M27.0423 27.1815C27.2534 27.0136 27.4649 26.8279 27.6768 26.6253C26.798 23.9926 26.4834 19.2067 23.9364 19.2067C23.7543 19.2067 23.5705 19.2236 23.3872 19.2576C25.7072 19.8346 26.0044 24.8823 27.0423 27.1815Z" fill="url(#paint2_linear_566_15578)"/>
<path d="M23.3879 19.2573C23.2451 19.221 23.0946 19.2021 22.9355 19.2021L23.9371 19.2058C23.755 19.2058 23.5712 19.2228 23.3879 19.2572" fill="#3092C4"/>
<path d="M26.9973 27.7404C26.8977 27.6454 26.8032 27.5412 26.7101 27.4301C26.2817 27.7334 25.8548 27.9635 25.4307 28.1132C25.5816 28.1869 25.7398 28.2418 25.9077 28.2757C26.0378 28.3023 26.1725 28.3159 26.3141 28.3159C26.79 28.3159 27.1663 28.2595 27.4867 28.1059C27.3103 28.0105 27.1486 27.887 26.9973 27.7404Z" fill="#1969BC"/>
<path d="M22.7944 19.4223C24.8725 20.5092 25.0531 25.431 26.7112 27.4296C26.8224 27.3512 26.9324 27.2682 27.0424 27.1806C26.0045 24.8814 25.7077 19.8333 23.3881 19.2567C23.1901 19.2938 22.9924 19.3486 22.7944 19.4223Z" fill="url(#paint3_linear_566_15578)"/>
<path d="M21.2036 20.3876C22.7969 22.5695 23.3673 27.1015 25.4311 28.1128C25.8553 27.963 26.2821 27.733 26.7106 27.4296C25.0525 25.4311 24.8718 20.5092 22.7938 19.4224C22.2662 19.6184 21.7366 19.9453 21.2036 20.3876Z" fill="url(#paint4_linear_566_15578)"/>
<path d="M19.5647 20.8891C19.315 21.4538 19.0599 22.196 18.7515 23.1648C19.3648 22.3006 19.9761 21.5561 20.584 20.9528C20.5003 20.6954 20.4103 20.458 20.3135 20.2465C20.0649 20.4368 19.8144 20.651 19.5647 20.8891Z" fill="url(#paint5_linear_566_15578)"/>
<path d="M20.5356 20.0829C20.4623 20.1354 20.3886 20.189 20.3145 20.2458C20.4113 20.4573 20.5009 20.6947 20.5846 20.9521C20.695 20.844 20.8046 20.7394 20.9142 20.6394C20.7965 20.4372 20.6715 20.2504 20.5356 20.0829Z" fill="#2B74B1"/>
<path d="M20.7968 19.9093C20.7096 19.9645 20.6228 20.0228 20.5352 20.0838C20.671 20.2513 20.7961 20.4381 20.9142 20.6407C21.0111 20.5531 21.1079 20.4686 21.2044 20.3887C21.0763 20.2123 20.94 20.0506 20.7968 19.9093Z" fill="#125A9E"/>
<path d="M34.9706 19.0011C33.7954 23.5334 31.3406 27.1739 29.2827 28.0917H29.2788C29.2413 28.1087 29.2043 28.1241 29.1676 28.1392C29.1626 28.1422 29.158 28.1426 29.1541 28.1444C29.1433 28.1488 29.1332 28.1521 29.1224 28.1565C29.1174 28.1595 29.1128 28.1605 29.1082 28.1624C29.0908 28.1685 29.0738 28.1738 29.0568 28.1806C29.0495 28.1836 29.0426 28.1855 29.0356 28.188C29.0279 28.1911 29.019 28.1939 29.0101 28.1963C29.0024 28.1994 28.9943 28.2016 28.9854 28.205C28.9781 28.208 28.9703 28.2093 28.9634 28.2124C28.9484 28.2167 28.9345 28.2204 28.9194 28.2257C28.9132 28.2257 28.9075 28.229 28.9009 28.2306C28.8916 28.2337 28.8812 28.2359 28.8712 28.2387C28.8642 28.2417 28.8584 28.2427 28.8511 28.2442C28.8407 28.2473 28.8291 28.2501 28.8187 28.2526C28.8048 28.2556 28.7924 28.2585 28.7793 28.2612C28.8723 28.2956 28.9692 28.3129 29.0738 28.3129C31.0252 28.3129 32.9929 24.8157 36.2485 19H34.9702L34.9706 19.0011Z" fill="url(#paint6_linear_566_15578)"/>
<path d="M18.3277 19.3867C18.329 19.3867 18.3305 19.3836 18.3313 19.3836C18.3328 19.3836 18.3352 19.3836 18.3359 19.3806H18.3384C18.3492 19.3769 18.3592 19.3725 18.37 19.3685C18.3728 19.3685 18.3742 19.3685 18.3762 19.3655C18.379 19.3655 18.3816 19.3624 18.3843 19.362C18.3959 19.3583 18.4075 19.354 18.4183 19.35H18.4201C18.446 19.3423 18.4699 19.3327 18.495 19.3237C18.4985 19.3237 18.502 19.3207 18.5062 19.3207C18.5166 19.3173 18.5274 19.3136 18.5382 19.3111C18.5433 19.308 18.5483 19.308 18.5529 19.3064C18.5641 19.3031 18.5749 19.2993 18.5853 19.2969C18.59 19.2969 18.5942 19.2938 18.5977 19.2935C18.6336 19.2836 18.6691 19.2744 18.705 19.2657C18.71 19.2657 18.7142 19.2627 18.7196 19.2623C18.73 19.2593 18.7397 19.2577 18.7509 19.2562C18.7555 19.2531 18.7609 19.2531 18.7663 19.2515C18.7767 19.2484 18.7868 19.2481 18.798 19.2456H18.8053C18.8269 19.2412 18.8489 19.2376 18.8705 19.2336H18.8837C18.8941 19.2305 18.9033 19.2302 18.9138 19.2283C18.9195 19.2283 18.9254 19.2252 18.9308 19.2252C18.9404 19.2252 18.9501 19.2222 18.9597 19.2209C18.9647 19.2209 18.9697 19.2209 18.9755 19.2178C18.9983 19.2148 19.0218 19.2135 19.0458 19.2116C18.9782 19.2051 18.9088 19.2008 18.8381 19.2008C16.6404 19.2008 13.6125 23.2785 12.2485 28.5593H12.5114C12.9479 27.7808 13.34 27.0444 13.6986 26.3531C14.6539 22.6127 16.5995 20.0619 18.3279 19.3861" fill="url(#paint7_linear_566_15578)"/>
<path d="M19.5649 20.8883C19.8147 20.6502 20.0652 20.4359 20.3137 20.2457C20.257 20.1214 20.1983 20.0064 20.1354 19.901C19.9343 20.1449 19.7506 20.4668 19.5649 20.8883Z" fill="#0D82CA"/>
<path d="M19.7456 19.417C19.8891 19.5374 20.0177 19.703 20.1354 19.9014C20.1724 19.8558 20.2099 19.8137 20.2489 19.7744C20.0856 19.6219 19.9092 19.4969 19.7178 19.4027C19.7255 19.407 19.7332 19.4104 19.7412 19.4138C19.7412 19.4138 19.7443 19.4169 19.7456 19.4169" fill="#0D82CA"/>
<path d="M13.6982 26.3536C15.7022 22.492 16.6516 20.048 18.3275 19.3865C16.5995 20.0627 14.6535 22.6135 13.6982 26.3536Z" fill="url(#paint8_linear_566_15578)"/>
<path d="M20.2482 19.775C20.2093 19.8148 20.1722 19.8565 20.1348 19.902C20.1977 20.0074 20.2563 20.122 20.3135 20.2467C20.3876 20.19 20.4613 20.1363 20.5346 20.0838C20.4439 19.9719 20.3482 19.8681 20.2482 19.775Z" fill="#127BCA"/>
<path d="M14.6078 28.5423C14.5955 28.5453 14.5831 28.5453 14.5716 28.5466H14.5646C14.5542 28.5466 14.5434 28.5497 14.5337 28.5497H14.5287C14.5036 28.5527 14.4789 28.5527 14.455 28.5547H14.4473C16.4755 28.4979 17.4026 27.4824 17.8627 26.0096C18.2124 24.893 18.4995 23.9524 18.7512 23.1631C17.9017 24.3588 17.0483 25.7842 16.1903 27.3809C15.7765 28.1505 15.1474 28.472 14.6078 28.5408" fill="url(#paint9_linear_566_15578)"/>
<path d="M14.6084 28.5416C15.148 28.4729 15.7771 28.1518 16.1909 27.3818C17.0489 25.7854 17.9026 24.3597 18.7514 23.164C19.0601 22.1948 19.3149 21.453 19.565 20.8883C17.8733 22.4986 16.175 25.176 14.6084 28.5409" fill="url(#paint10_linear_566_15578)"/>
<path d="M13.6985 26.3538C13.3399 27.045 12.9478 27.7815 12.5112 28.5599H13.2758C13.377 27.7868 13.5205 27.0496 13.6985 26.3541" fill="#05A1E6"/>
<path d="M18.9754 19.2194C18.9693 19.2194 18.9646 19.2225 18.9592 19.2225C18.95 19.2255 18.9403 19.2255 18.9307 19.2265C18.9249 19.2265 18.9195 19.2265 18.9137 19.2296C18.9033 19.2326 18.8936 19.233 18.8836 19.2349C18.8789 19.2349 18.8743 19.2349 18.8705 19.2379C18.8484 19.2416 18.8268 19.2456 18.8052 19.2493H18.7979C18.7867 19.2524 18.7767 19.254 18.7662 19.2555C18.7608 19.2586 18.7554 19.2586 18.7504 19.2598C18.74 19.2629 18.7296 19.2642 18.7195 19.266C18.7141 19.2691 18.7099 19.2691 18.7049 19.2694C18.669 19.278 18.6335 19.2873 18.5976 19.2972C18.5937 19.2972 18.5898 19.3002 18.5852 19.3008C18.5744 19.3039 18.564 19.307 18.5528 19.3104C18.5481 19.3135 18.5428 19.3135 18.5381 19.3147C18.5273 19.3178 18.5165 19.3209 18.5061 19.3243C18.5019 19.3243 18.4984 19.3273 18.4945 19.3273C18.4698 19.3366 18.4455 19.3458 18.42 19.3536C18.4092 19.3569 18.3976 19.3613 18.3861 19.3653C18.3814 19.3684 18.3772 19.369 18.3718 19.3712C18.361 19.3745 18.3502 19.3789 18.3401 19.3829C18.3363 19.386 18.3324 19.3863 18.3297 19.3879C16.6539 20.0494 15.7044 22.4934 13.7005 26.355C13.5225 27.0505 13.3786 27.7877 13.2778 28.5608H13.3851C13.6873 28.5608 13.7726 28.5577 14.1204 28.5577H14.1381H14.1899H14.2076H14.2127H14.2304H14.2404H14.2474H14.2613H14.3045H14.3477H14.384H14.3937H14.4573C14.4813 28.5546 14.506 28.5546 14.5311 28.5527H14.5357C14.5461 28.5527 14.5565 28.5497 14.5666 28.5497H14.5739C14.5851 28.5497 14.5978 28.5466 14.6102 28.5453C16.1768 25.1805 17.8751 22.503 19.5667 20.8928C19.7528 20.4713 19.9361 20.1494 20.1368 19.9059C20.0195 19.7075 19.891 19.5415 19.7474 19.4211C19.7474 19.4211 19.7435 19.4211 19.7432 19.418C19.735 19.4146 19.7274 19.4106 19.7192 19.4066C19.7111 19.4022 19.7042 19.3989 19.6957 19.3945C19.6884 19.3915 19.6799 19.3874 19.6726 19.3834C19.6625 19.3804 19.6544 19.376 19.6455 19.372C19.6382 19.3689 19.6316 19.3658 19.6243 19.3627C19.6092 19.3568 19.5942 19.3507 19.5799 19.3442C19.5733 19.3411 19.5672 19.3395 19.561 19.3371C19.5506 19.3333 19.5386 19.3284 19.5278 19.3238C19.5224 19.3208 19.5162 19.3201 19.51 19.3179C19.4942 19.3127 19.4788 19.3071 19.4641 19.3022H19.4603C19.4425 19.2963 19.4252 19.292 19.407 19.287C19.4028 19.284 19.3993 19.284 19.3951 19.2834C19.3792 19.279 19.3653 19.2747 19.3503 19.2707C19.3465 19.2707 19.3429 19.2677 19.3399 19.2677C19.3036 19.2581 19.2662 19.2504 19.2283 19.2433C19.2244 19.2433 19.2206 19.2402 19.2168 19.2402C19.2006 19.2371 19.1847 19.2343 19.1685 19.2325C19.1646 19.2294 19.1623 19.2294 19.1589 19.2294C19.1396 19.2264 19.1207 19.2242 19.1018 19.222H19.0917C19.0763 19.219 19.062 19.2186 19.0477 19.217C19.0234 19.2201 19.0003 19.2214 18.9775 19.2235" fill="url(#paint11_linear_566_15578)"/>
<path d="M30.3802 21.5106C29.9946 22.7457 29.6824 23.7646 29.4106 24.6029C30.4686 23.1471 31.5107 21.3157 32.503 19.2021C31.3455 19.5657 30.7279 20.3979 30.3802 21.5106Z" fill="url(#paint12_linear_566_15578)"/>
<path d="M29.4436 28.0148C29.3895 28.0423 29.3355 28.0684 29.2822 28.092C31.3402 27.1741 33.7949 23.5337 34.9702 19.0013H34.7321C32.0318 23.8247 31.1634 27.0537 29.4436 28.0148Z" fill="url(#paint13_linear_566_15578)"/>
<path d="M28.1 27.6098C28.5477 27.0633 28.9125 26.1343 29.4104 24.6031C28.8361 25.3921 28.2579 26.0702 27.6793 26.6233C27.6793 26.6264 27.6793 26.6264 27.6763 26.6283C27.8025 27.0065 27.941 27.3404 28.0989 27.6098" fill="#079AE1"/>
<path d="M28.1002 27.6099C27.9478 27.7959 27.7864 27.9376 27.607 28.0425C27.5676 28.0654 27.5278 28.0869 27.4873 28.1066C27.6768 28.2089 27.8837 28.2772 28.1153 28.3046C28.1492 28.308 28.1828 28.3111 28.2179 28.3136H28.2241C28.2399 28.3136 28.2565 28.3136 28.2735 28.3166H28.2803H28.3309H28.3853H28.4023H28.4409C28.4471 28.3166 28.4536 28.3166 28.4598 28.3136C28.4718 28.3136 28.4845 28.3136 28.4968 28.3105H28.5012H28.5151C28.5277 28.3105 28.5416 28.3074 28.5552 28.3061H28.5583C28.5623 28.3061 28.5666 28.3031 28.5706 28.3031C28.5848 28.3 28.5996 28.2987 28.6135 28.2966H28.6261C28.6419 28.2935 28.6582 28.2916 28.6744 28.2886H28.6774H28.6821C28.7145 28.2824 28.7462 28.2762 28.7782 28.2682C28.5126 28.1709 28.2903 27.9416 28.0989 27.6151" fill="#1969BC"/>
<path d="M24.3057 28.3167C24.4983 28.3167 24.6928 28.2978 24.8881 28.2603C25.0687 28.2275 25.2497 28.1773 25.4311 28.114C25.5821 28.1877 25.7403 28.2426 25.9078 28.2765C26.0379 28.3031 26.173 28.3167 26.3146 28.3167H24.3057Z" fill="#1E5CB3"/>
<path d="M26.3143 28.3157C26.7899 28.3157 27.1666 28.2593 27.4865 28.1057C27.676 28.208 27.8829 28.2763 28.1145 28.3037C28.1485 28.3071 28.1821 28.3102 28.2172 28.3127H28.2234C28.2391 28.3127 28.2558 28.3127 28.2728 28.3157H28.2799H28.3304H26.313L26.3143 28.3157Z" fill="#1E5CB3"/>
<path d="M28.3325 28.3153H28.3873H28.4043H28.4425C28.449 28.3153 28.4552 28.3153 28.4614 28.3122C28.4734 28.3122 28.4861 28.3122 28.4988 28.3092H28.5029H28.5171C28.5297 28.3092 28.5436 28.3061 28.5569 28.3049H28.5602C28.5643 28.3049 28.5682 28.3018 28.5723 28.3018C28.5865 28.2988 28.6013 28.2975 28.6151 28.2953C28.6198 28.2953 28.6234 28.2953 28.6284 28.2923C28.6441 28.2892 28.6604 28.2876 28.6766 28.2845H28.6797H28.6844C28.7168 28.2784 28.7484 28.2722 28.7804 28.2642C28.8734 28.2985 28.9703 28.3159 29.0749 28.3159L28.3331 28.3189L28.3325 28.3153Z" fill="#1D60B5"/>
<path d="M27.677 26.6277V26.6246C27.4651 26.8273 27.2536 27.0129 27.0425 27.1808C26.9321 27.2684 26.8221 27.3514 26.7109 27.4298C26.8039 27.5409 26.8985 27.6451 26.9981 27.7401C27.1494 27.8867 27.3111 28.0103 27.4875 28.1056C27.5276 28.0858 27.5678 28.0643 27.6067 28.0415C27.7866 27.9365 27.9479 27.7949 28.1004 27.6088C27.9425 27.3394 27.804 27.0056 27.6778 26.6273" fill="#175FAB"/>
<path d="M33.9782 19.0013H32.977H32.8775H32.7833H32.7796C32.7148 19.0044 32.6519 19.0066 32.5897 19.0106C32.5604 19.0735 32.5303 19.1365 32.5013 19.1998C31.509 21.3133 30.4669 23.1447 29.409 24.6006C28.9115 26.1317 28.5464 27.0607 28.0986 27.6072C28.2901 27.9338 28.5128 28.1634 28.7775 28.2607C28.7853 28.2576 28.7914 28.2576 28.7984 28.256H28.8027C28.8073 28.256 28.8123 28.2529 28.8173 28.2529C28.8281 28.2499 28.8397 28.248 28.8505 28.2446C28.8575 28.2415 28.8633 28.2412 28.8702 28.239C28.8803 28.236 28.8907 28.2337 28.8999 28.2313C28.9061 28.2282 28.9123 28.2273 28.9185 28.226C28.9339 28.2211 28.9478 28.2174 28.9625 28.2127C28.9694 28.2097 28.9768 28.2072 28.9845 28.2053C28.993 28.2023 29.0015 28.2001 29.0092 28.1964C29.0181 28.1933 29.0269 28.1917 29.0347 28.1883C29.0416 28.1853 29.0489 28.1834 29.0555 28.1806C29.0728 28.1744 29.0899 28.1692 29.1072 28.1624C29.1119 28.1624 29.1165 28.1581 29.1215 28.1571C29.1319 28.1528 29.1427 28.1494 29.1532 28.1448C29.157 28.1417 29.1617 28.1414 29.1667 28.1398C29.2029 28.1247 29.2404 28.1092 29.2778 28.0924H29.2817C29.335 28.0689 29.389 28.0425 29.4427 28.0152C31.1629 27.0541 32.0313 23.8251 34.7316 19.0017H33.9774L33.9782 19.0013Z" fill="url(#paint14_linear_566_15578)"/>
<path d="M19.0459 19.2123C19.0502 19.2123 19.054 19.2123 19.0582 19.2153C19.0687 19.2153 19.0791 19.2153 19.0895 19.2187H19.0999C19.1188 19.2217 19.1378 19.2233 19.1571 19.2261C19.1606 19.2261 19.1636 19.2261 19.1667 19.2292C19.1825 19.2322 19.1987 19.2347 19.2149 19.2372C19.2185 19.2372 19.2231 19.2402 19.2269 19.2402C19.264 19.2477 19.3018 19.2554 19.3381 19.2649C19.3415 19.2649 19.345 19.268 19.3481 19.268C19.3636 19.2717 19.3775 19.2763 19.3929 19.2807C19.3976 19.2807 19.401 19.2837 19.4052 19.2844C19.4234 19.2891 19.4404 19.2937 19.4581 19.2995C19.4589 19.2995 19.46 19.2995 19.462 19.3026C19.4771 19.3072 19.4925 19.3131 19.5083 19.3183C19.5145 19.3214 19.5203 19.3227 19.5261 19.3242C19.5369 19.3289 19.5489 19.3335 19.5593 19.3378C19.5655 19.3378 19.5716 19.3421 19.5782 19.3443C19.5924 19.3508 19.6075 19.3567 19.6222 19.3628C19.6299 19.3659 19.6364 19.3693 19.6438 19.3721C19.6523 19.3765 19.6611 19.3804 19.6704 19.3835C19.6781 19.3872 19.6866 19.3912 19.6939 19.3946C19.7021 19.399 19.7098 19.4024 19.7175 19.4067C19.9089 19.5009 20.0853 19.6263 20.2486 19.7784C20.3088 19.7151 20.3717 19.6583 20.4369 19.6074C20.0799 19.3542 19.6754 19.2098 19.2088 19.2098C19.1548 19.2098 19.1007 19.2129 19.0459 19.2169" fill="#7DCBEC"/>
<path d="M20.249 19.7745C20.349 19.8675 20.4447 19.9714 20.5354 20.0833C20.623 20.0223 20.7099 19.9636 20.7971 19.9088C20.6828 19.7946 20.5624 19.6919 20.437 19.6035C20.3718 19.6541 20.3092 19.7112 20.249 19.7745Z" fill="#5EC5ED"/>
<path d="M19.0455 19.2129C19.1003 19.2083 19.1544 19.2064 19.2084 19.2064C19.675 19.2064 20.0795 19.3507 20.4366 19.6035C20.8133 19.3063 21.2687 19.2025 21.9013 19.2025H18.8379C18.9085 19.2025 18.9776 19.2067 19.0455 19.2129Z" fill="url(#paint15_linear_566_15578)"/>
<path d="M21.9018 19.203C21.2692 19.203 20.8137 19.3068 20.437 19.604C20.5621 19.6924 20.6825 19.7951 20.7967 19.9093C21.3213 19.5758 21.8408 19.3551 22.3529 19.2586C22.5482 19.2219 22.7432 19.203 22.9354 19.203H21.9018Z" fill="url(#paint16_linear_566_15578)"/>
<path d="M29.4104 24.6038C29.6825 23.7647 29.9939 22.7462 30.3803 21.5107C30.7284 20.3975 31.3448 19.5654 32.5023 19.2022C32.5329 19.1401 32.5618 19.076 32.5915 19.0131C30.7045 19.1262 29.8226 20.086 29.3787 21.5076C28.6025 23.9893 28.1324 25.598 27.6797 26.6232C28.2579 26.0705 28.836 25.3919 29.4104 24.6038Z" fill="url(#paint17_linear_566_15578)"/>
<path d="M32.1787 27.6548H31.9649V28.3194H31.8777V27.6548H31.6631V27.5757H32.1787V27.6548Z" fill="black"/>
<path d="M33.0546 28.3194H32.9678V27.82C32.9678 27.7806 32.9708 27.7324 32.9749 27.6756C32.9659 27.7096 32.9585 27.7332 32.9517 27.7482L32.6985 28.3194H32.6561L32.4021 27.7525C32.3947 27.7367 32.3873 27.7111 32.3792 27.6756H32.3762C32.3792 27.7056 32.3802 27.754 32.3802 27.8212V28.3194H32.2969V27.5757H32.4119L32.64 28.0948C32.6573 28.1338 32.6681 28.1639 32.6736 28.184H32.6769C32.6921 28.143 32.7044 28.1125 32.7129 28.0925L32.9456 27.5757H33.0552V28.3194H33.0546Z" fill="black"/>
<rect x="0.5" y="0.5" width="47" height="47" rx="23.5" stroke="#3347CC" stroke-opacity="0.12"/>
<defs>
<linearGradient id="paint0_linear_566_15578" x1="22.736" y1="19.1421" x2="22.736" y2="30.5903" gradientUnits="userSpaceOnUse">
<stop stop-color="#0994DC"/>
<stop offset="0.350006" stop-color="#66CEF5"/>
<stop offset="0.846161" stop-color="#127BCA"/>
<stop offset="1" stop-color="#127BCA"/>
</linearGradient>
<linearGradient id="paint1_linear_566_15578" x1="23.173" y1="18.8513" x2="23.173" y2="30.5913" gradientUnits="userSpaceOnUse">
<stop stop-color="#0E76BC"/>
<stop offset="0.360001" stop-color="#36AEE8"/>
<stop offset="0.846161" stop-color="#00ADEF"/>
<stop offset="1" stop-color="#00ADEF"/>
</linearGradient>
<linearGradient id="paint2_linear_566_15578" x1="25.532" y1="28.0525" x2="25.532" y2="18.7111" gradientUnits="userSpaceOnUse">
<stop stop-color="#1C63B7"/>
<stop offset="0.5" stop-color="#33BDF2"/>
<stop offset="1" stop-color="#33BDF2" stop-opacity="0.419608"/>
</linearGradient>
<linearGradient id="paint3_linear_566_15578" x1="24.9184" y1="17.6618" x2="24.9184" y2="29.8509" gradientUnits="userSpaceOnUse">
<stop stop-color="#166AB8"/>
<stop offset="0.399994" stop-color="#36AEE8"/>
<stop offset="0.846161" stop-color="#0798DD"/>
<stop offset="1" stop-color="#0798DD"/>
</linearGradient>
<linearGradient id="paint4_linear_566_15578" x1="23.957" y1="17.7259" x2="23.957" y2="30.6875" gradientUnits="userSpaceOnUse">
<stop stop-color="#124379"/>
<stop offset="0.389999" stop-color="#1487CB"/>
<stop offset="0.780228" stop-color="#165197"/>
<stop offset="1" stop-color="#165197"/>
</linearGradient>
<linearGradient id="paint5_linear_566_15578" x1="18.7515" y1="21.7056" x2="20.584" y2="21.7056" gradientUnits="userSpaceOnUse">
<stop stop-color="#33BDF2" stop-opacity="0.698039"/>
<stop offset="1" stop-color="#1DACD8"/>
</linearGradient>
<linearGradient id="paint6_linear_566_15578" x1="32.5146" y1="27.8181" x2="32.5146" y2="18.7183" gradientUnits="userSpaceOnUse">
<stop stop-color="#136AB4"/>
<stop offset="0.6" stop-color="#59CAF5" stop-opacity="0.54902"/>
<stop offset="1" stop-color="#59CAF5" stop-opacity="0.235294"/>
</linearGradient>
<linearGradient id="paint7_linear_566_15578" x1="12.2485" y1="23.88" x2="19.0457" y2="23.88" gradientUnits="userSpaceOnUse">
<stop stop-color="#05A1E6" stop-opacity="0.247059"/>
<stop offset="1" stop-color="#05A1E6"/>
</linearGradient>
<linearGradient id="paint8_linear_566_15578" x1="16.0128" y1="28.0475" x2="16.0128" y2="18.7301" gradientUnits="userSpaceOnUse">
<stop stop-color="#318ED5"/>
<stop offset="1" stop-color="#38A7E4"/>
</linearGradient>
<linearGradient id="paint9_linear_566_15578" x1="16.5992" y1="28.0802" x2="16.5992" y2="19.0231" gradientUnits="userSpaceOnUse">
<stop stop-color="#05A1E6"/>
<stop offset="1" stop-color="#05A1E6" stop-opacity="0.54902"/>
</linearGradient>
<linearGradient id="paint10_linear_566_15578" x1="17.0867" y1="28.5424" x2="17.0867" y2="20.8891" gradientUnits="userSpaceOnUse">
<stop stop-color="#1959A6"/>
<stop offset="0.5" stop-color="#05A1E6"/>
<stop offset="0.917587" stop-color="#7EC5EA"/>
<stop offset="1" stop-color="#7EC5EA"/>
</linearGradient>
<linearGradient id="paint11_linear_566_15578" x1="17.3798" y1="28.0532" x2="14.7855" y2="20.1249" gradientUnits="userSpaceOnUse">
<stop stop-color="#165096"/>
<stop offset="1" stop-color="#0D82CA"/>
</linearGradient>
<linearGradient id="paint12_linear_566_15578" x1="30.9567" y1="23.3607" x2="30.9567" y2="19.024" gradientUnits="userSpaceOnUse">
<stop stop-color="#05A1E6"/>
<stop offset="0.873627" stop-color="#0495D6"/>
<stop offset="1" stop-color="#0495D6"/>
</linearGradient>
<linearGradient id="paint13_linear_566_15578" x1="32.9944" y1="18.623" x2="28.9526" y2="27.597" gradientUnits="userSpaceOnUse">
<stop stop-color="#38A7E4" stop-opacity="0.329412"/>
<stop offset="0.961533" stop-color="#0E88D3"/>
<stop offset="1" stop-color="#0E88D3"/>
</linearGradient>
<linearGradient id="paint14_linear_566_15578" x1="31.4162" y1="18.974" x2="31.4162" y2="28.4349" gradientUnits="userSpaceOnUse">
<stop stop-color="#168CD4"/>
<stop offset="0.5" stop-color="#1C87CC"/>
<stop offset="1" stop-color="#154B8D"/>
</linearGradient>
<linearGradient id="paint15_linear_566_15578" x1="19.3487" y1="18.7792" x2="19.3897" y2="19.7714" gradientUnits="userSpaceOnUse">
<stop stop-color="#97D6EE"/>
<stop offset="0.703293" stop-color="#55C1EA"/>
<stop offset="1" stop-color="#55C1EA"/>
</linearGradient>
<linearGradient id="paint16_linear_566_15578" x1="20.6092" y1="19.8648" x2="20.7945" y2="18.8137" gradientUnits="userSpaceOnUse">
<stop stop-color="#7ACCEC"/>
<stop offset="1" stop-color="#3FB7ED"/>
</linearGradient>
<linearGradient id="paint17_linear_566_15578" x1="30.1354" y1="19.4973" x2="30.1354" y2="28.751" gradientUnits="userSpaceOnUse">
<stop stop-color="#1DA7E7"/>
<stop offset="1" stop-color="#37ABE7" stop-opacity="0"/>
</linearGradient>
</defs>
</svg>
