<svg width="48" height="48" viewBox="0 0 48 48" fill="none" xmlns="http://www.w3.org/2000/svg">
<path d="M26.6496 16H26.6829C26.7261 16.4693 26.6613 16.9462 26.5053 17.3901C26.278 18.0288 25.8935 18.6227 25.3545 19.0413C24.8239 19.4621 24.1508 19.742 23.464 19.6913C23.3629 18.7094 23.8114 17.7348 24.4829 17.0371C25.0606 16.4636 25.8352 16.0742 26.6496 16Z" fill="#1F1F1F"/>
<path d="M24.2932 20.442C24.9606 20.1833 25.6375 19.8958 26.3629 19.8678C26.9769 19.8526 27.5954 19.9788 28.1556 20.2299C28.7412 20.4935 29.2469 20.9253 29.6049 21.4579C28.8443 21.9477 28.2291 22.695 27.992 23.5768C27.7844 24.3624 27.8503 25.2208 28.1825 25.9632C28.5409 26.7613 29.2227 27.3889 30.0121 27.751C29.7462 28.5904 29.3511 29.3893 28.8462 30.1105C28.5257 30.5756 28.1965 31.0438 27.7723 31.4215C27.4708 31.6889 27.1049 31.898 26.7019 31.9574C26.3833 32.004 26.0549 31.9745 25.7473 31.8809C25.4106 31.7802 25.1007 31.609 24.7678 31.4983C24.25 31.3203 23.6826 31.3014 23.1496 31.4177C22.5345 31.5472 21.9974 31.9358 21.3621 31.9874C20.9114 32.048 20.4599 31.8851 20.1015 31.6177C19.5807 31.2309 19.1894 30.7029 18.8194 30.1779C18.0035 29.0381 17.4542 27.7158 17.1728 26.3454C16.936 25.1567 16.9084 23.8935 17.3076 22.7359C17.5542 22.0321 17.9614 21.3765 18.5258 20.8844C19.2364 20.2564 20.1856 19.8939 21.1368 19.9291C21.6474 19.9553 22.1311 20.1394 22.6011 20.3257C22.8773 20.4337 23.1527 20.5522 23.4466 20.6034C23.739 20.6545 24.0231 20.5386 24.2932 20.442Z" fill="#1F1F1F"/>
<rect x="0.5" y="0.5" width="47" height="47" rx="23.5" stroke="#3347CC" stroke-opacity="0.12"/>
</svg>
