<svg width="48" height="48" viewBox="0 0 48 48" fill="none" xmlns="http://www.w3.org/2000/svg">
<path fill-rule="evenodd" clip-rule="evenodd" d="M22.2554 20.8212C21.9206 21.3123 21.5936 21.832 21.2791 22.3767C20.9645 22.9215 20.678 23.4646 20.4201 24C20.678 24.5355 20.9645 25.0785 21.2791 25.6233C21.5936 26.168 21.9206 26.6877 22.2554 27.1788C22.848 27.2232 23.4616 27.2466 24.0907 27.2466C24.7197 27.2466 25.3333 27.2232 25.9259 27.1788C26.2607 26.6877 26.5877 26.168 26.9023 25.6233C27.2168 25.0785 27.5033 24.5355 27.7612 24C27.5033 23.4646 27.2168 22.9215 26.9023 22.3767C26.5877 21.832 26.2607 21.3123 25.9259 20.8212C25.3333 20.7768 24.7197 20.7534 24.0907 20.7534C23.4616 20.7534 22.848 20.7768 22.2554 20.8212ZM21.1298 20.9334C20.9217 21.2587 20.7178 21.5939 20.5192 21.938C20.3205 22.2821 20.1322 22.6263 19.9545 22.9691C19.7049 22.3768 19.4927 21.7992 19.319 21.2451C19.8857 21.1185 20.492 21.0135 21.1298 20.9334ZM22.9153 19.9026C23.3011 19.885 23.6933 19.876 24.0907 19.876C24.488 19.876 24.8802 19.885 25.266 19.9026C24.8778 19.3902 24.4837 18.9177 24.0907 18.4902C23.6976 18.9177 23.3035 19.3902 22.9153 19.9026ZM23.4785 17.8597C22.9007 18.4846 22.3253 19.1972 21.7704 19.9813C20.814 20.0697 19.9092 20.2118 19.0791 20.3997C18.9845 20.0257 18.9095 19.6657 18.8546 19.323C18.7117 18.4309 18.7083 17.679 18.8307 17.1071C18.953 16.5351 19.1884 16.1918 19.4841 16.0211C19.7797 15.8504 20.1947 15.8182 20.7512 15.9982C21.3076 16.1783 21.9571 16.5571 22.6582 17.1269C22.9276 17.3459 23.2019 17.5907 23.4785 17.8597ZM24.7028 17.8597C25.2806 18.4846 25.856 19.1972 26.4109 19.9813C27.3673 20.0697 28.2721 20.2118 29.1022 20.3997C29.1968 20.0257 29.2718 19.6657 29.3267 19.323C29.4696 18.4309 29.473 17.679 29.3506 17.1071C29.2283 16.5351 28.993 16.1918 28.6973 16.0211C28.4016 15.8504 27.9866 15.8182 27.4301 15.9982C26.8737 16.1783 26.2242 16.5571 25.5231 17.1269C25.2537 17.3459 24.9794 17.5907 24.7028 17.8597ZM29.9527 20.6155C30.0536 20.2168 30.1339 19.8312 30.1931 19.4618C30.3459 18.5078 30.3616 17.6385 30.2087 16.9235C30.0558 16.2087 29.7216 15.5993 29.136 15.2612C28.5504 14.9231 27.8556 14.9384 27.16 15.1634C26.4644 15.3884 25.7194 15.8367 24.9697 16.446C24.6794 16.682 24.3855 16.9443 24.0907 17.2311C23.7958 16.9443 23.502 16.682 23.2117 16.446C22.4619 15.8367 21.7169 15.3884 21.0213 15.1634C20.3257 14.9384 19.631 14.9231 19.0453 15.2612C18.4597 15.5993 18.1255 16.2087 17.9726 16.9235C17.8197 17.6385 17.8354 18.5078 17.9882 19.4618C18.0474 19.8312 18.1277 20.2168 18.2286 20.6155C17.8328 20.7276 17.4587 20.8508 17.1092 20.9842C16.2066 21.3289 15.4459 21.75 14.9032 22.2399C14.3606 22.7297 14 23.3238 14 24C14 24.6762 14.3606 25.2703 14.9032 25.7601C15.4459 26.25 16.2066 26.6711 17.1092 27.0158C17.4587 27.1492 17.8328 27.2724 18.2286 27.3845C18.1277 27.7832 18.0474 28.1688 17.9882 28.5382C17.8354 29.4922 17.8197 30.3615 17.9726 31.0765C18.1255 31.7913 18.4597 32.4007 19.0453 32.7388C19.631 33.0769 20.3257 33.0616 21.0213 32.8366C21.7169 32.6116 22.4619 32.1633 23.2117 31.554C23.502 31.318 23.7958 31.0557 24.0907 30.7689C24.3855 31.0557 24.6794 31.318 24.9697 31.554C25.7194 32.1633 26.4644 32.6116 27.16 32.8366C27.8556 33.0616 28.5504 33.0769 29.136 32.7388C29.7216 32.4007 30.0558 31.7913 30.2087 31.0765C30.3616 30.3615 30.3459 29.4922 30.1931 28.5382C30.1339 28.1688 30.0536 27.7832 29.9527 27.3845C30.3485 27.2724 30.7226 27.1492 31.0721 27.0158C31.9747 26.6711 32.7354 26.25 33.2781 25.7601C33.8207 25.2703 34.1813 24.6762 34.1813 24C34.1813 23.3238 33.8207 22.7297 33.2781 22.2399C32.7354 21.75 31.9747 21.3289 31.0721 20.9842C30.7226 20.8508 30.3485 20.7276 29.9527 20.6155ZM28.8623 21.2451C28.2956 21.1185 27.6893 21.0135 27.0515 20.9334C27.2596 21.2587 27.4635 21.5939 27.6621 21.938C27.8608 22.2821 28.0491 22.6263 28.2268 22.9691C28.4764 22.3768 28.6886 21.7992 28.8623 21.2451ZM28.7311 24C29.1327 23.1275 29.4621 22.2728 29.7144 21.46C30.0856 21.5651 30.4348 21.6802 30.7591 21.804C31.6031 22.1262 32.256 22.4993 32.6901 22.8912C33.1243 23.2831 33.3039 23.6586 33.3039 24C33.3039 24.3414 33.1243 24.7169 32.6901 25.1088C32.256 25.5007 31.6031 25.8738 30.7591 26.196C30.4348 26.3198 30.0856 26.4349 29.7144 26.54C29.4621 25.7272 29.1327 24.8725 28.7311 24ZM28.2268 25.0309C28.0491 25.3737 27.8608 25.7179 27.6621 26.062C27.4635 26.4061 27.2596 26.7413 27.0515 27.0666C27.6893 26.9865 28.2956 26.8815 28.8623 26.7549C28.6886 26.2008 28.4764 25.6232 28.2268 25.0309ZM29.1022 27.6003C28.2721 27.7882 27.3673 27.9303 26.4109 28.0187C25.856 28.8028 25.2806 29.5154 24.7028 30.1403C24.9794 30.4093 25.2537 30.6541 25.5231 30.8731C26.2242 31.4429 26.8737 31.8217 27.4301 32.0018C27.9866 32.1818 28.4016 32.1496 28.6973 31.9789C28.993 31.8082 29.2283 31.4649 29.3506 30.8929C29.473 30.321 29.4696 29.5691 29.3267 28.677C29.2718 28.3343 29.1968 27.9743 29.1022 27.6003ZM24.0907 29.5098C24.4837 29.0823 24.8778 28.6098 25.266 28.0974C24.8802 28.115 24.488 28.124 24.0907 28.124C23.6933 28.124 23.3011 28.115 22.9153 28.0974C23.3035 28.6098 23.6976 29.0823 24.0907 29.5098ZM21.1298 27.0666C20.9217 26.7413 20.7178 26.4061 20.5192 26.062C20.3205 25.7179 20.1322 25.3737 19.9545 25.0309C19.7049 25.6232 19.4927 26.2008 19.319 26.7549C19.8857 26.8815 20.492 26.9865 21.1298 27.0666ZM19.0791 27.6003C19.9092 27.7882 20.814 27.9303 21.7704 28.0187C22.3253 28.8028 22.9007 29.5154 23.4785 30.1403C23.2019 30.4093 22.9276 30.6541 22.6582 30.8731C21.9571 31.4429 21.3076 31.8217 20.7512 32.0018C20.1947 32.1818 19.7797 32.1496 19.4841 31.9789C19.1884 31.8082 18.953 31.4649 18.8307 30.8929C18.7083 30.321 18.7117 29.5691 18.8546 28.677C18.9095 28.3343 18.9845 27.9743 19.0791 27.6003ZM18.4669 26.54C18.0957 26.4349 17.7465 26.3198 17.4222 26.196C16.5782 25.8738 15.9253 25.5007 15.4912 25.1088C15.057 24.7169 14.8774 24.3414 14.8774 24C14.8774 23.6586 15.057 23.2831 15.4912 22.8912C15.9253 22.4993 16.5782 22.1262 17.4222 21.804C17.7465 21.6802 18.0957 21.5651 18.4669 21.46C18.7192 22.2728 19.0486 23.1275 19.4502 24C19.0486 24.8725 18.7192 25.7272 18.4669 26.54ZM24.0907 22.64C23.3395 22.64 22.7306 23.2489 22.7306 24C22.7306 24.7511 23.3395 25.3601 24.0907 25.3601C24.8418 25.3601 25.4507 24.7511 25.4507 24C25.4507 23.2489 24.8418 22.64 24.0907 22.64ZM21.8532 24C21.8532 22.7643 22.8549 21.7625 24.0907 21.7625C25.3264 21.7625 26.3281 22.7643 26.3281 24C26.3281 25.2357 25.3264 26.2375 24.0907 26.2375C22.8549 26.2375 21.8532 25.2357 21.8532 24Z" fill="#61DAFB"/>
<rect x="0.5" y="0.5" width="47" height="47" rx="23.5" stroke="#3347CC" stroke-opacity="0.12"/>
</svg>
