<svg width="48" height="48" viewBox="0 0 48 48" fill="none" xmlns="http://www.w3.org/2000/svg">
<path d="M15.6107 15C17.2518 15.9448 18.8909 16.8933 20.5304 17.8402C20.5312 19.7348 20.5308 21.6294 20.5308 23.524C18.8913 22.5763 17.2514 21.6286 15.6107 20.683C15.6102 18.7888 15.6102 16.8942 15.6107 15Z" fill="#5C4EE5"/>
<path d="M21.0706 18.1719C22.7114 19.1175 24.3521 20.0639 25.9908 21.0134C25.9908 22.9075 25.9908 24.8017 25.9908 26.6959C24.3513 25.7486 22.7118 24.8 21.0706 23.8553C21.0702 21.9607 21.0702 20.0661 21.0706 18.1719Z" fill="#5C4EE5"/>
<path d="M21.0706 24.4785C22.7118 25.4229 24.3504 26.3719 25.9903 27.3183C25.9916 29.2125 25.9908 31.1063 25.9908 33C24.3509 32.0527 22.7122 31.1041 21.0706 30.1594C21.0702 28.2656 21.0702 26.3723 21.0706 24.4785Z" fill="#5C4EE5"/>
<path d="M26.5305 21.0125C28.1721 20.0673 29.8124 19.12 31.4523 18.1719C31.4535 20.0665 31.4531 21.9607 31.4527 23.8553C29.8124 24.803 28.1721 25.7507 26.5305 26.6963C26.5305 24.8017 26.53 22.9071 26.5305 21.0125Z" fill="#4040B2"/>
<rect x="0.5" y="0.5" width="47" height="47" rx="23.5" stroke="#3347CC" stroke-opacity="0.12"/>
</svg>
