<svg width="20" height="20" viewBox="0 0 20 20" fill="none" xmlns="http://www.w3.org/2000/svg">
  <path fill-rule="evenodd" clip-rule="evenodd" d="M6.8907 2.49348C7.87647 2.08516 8.93301 1.875 10 1.875C11.067 1.875 12.1235 2.08516 13.1093 2.49348C14.0951 2.9018 14.9908 3.50028 15.7452 4.25476C16.4997 5.00923 17.0982 5.90493 17.5065 6.8907C17.9148 7.87647 18.125 8.93301 18.125 10C18.125 11.067 17.9148 12.1235 17.5065 13.1093C17.0982 14.0951 16.4997 14.9908 15.7452 15.7452C14.9908 16.4997 14.0951 17.0982 13.1093 17.5065C12.1235 17.9148 11.067 18.125 10 18.125C8.93301 18.125 7.87647 17.9148 6.8907 17.5065C5.90493 17.0982 5.00923 16.4997 4.25476 15.7452C3.50028 14.9908 2.9018 14.0951 2.49348 13.1093C2.08516 12.1235 1.875 11.067 1.875 10C1.875 8.93301 2.08516 7.87647 2.49348 6.8907C2.9018 5.90493 3.50028 5.00923 4.25476 4.25476C5.00923 3.50028 5.90493 2.9018 6.8907 2.49348ZM10 3.125C9.09716 3.125 8.20316 3.30283 7.36905 3.64833C6.53494 3.99383 5.77704 4.50024 5.13864 5.13864C4.50024 5.77704 3.99383 6.53494 3.64833 7.36905C3.30283 8.20316 3.125 9.09716 3.125 10C3.125 10.9028 3.30283 11.7968 3.64833 12.6309C3.99383 13.4651 4.50024 14.223 5.13864 14.8614C5.77704 15.4998 6.53494 16.0062 7.36905 16.3517C8.20316 16.6972 9.09716 16.875 10 16.875C10.9028 16.875 11.7968 16.6972 12.6309 16.3517C13.4651 16.0062 14.223 15.4998 14.8614 14.8614C15.4998 14.223 16.0062 13.4651 16.3517 12.6309C16.6972 11.7968 16.875 10.9028 16.875 10C16.875 9.09716 16.6972 8.20316 16.3517 7.36905C16.0062 6.53494 15.4998 5.77704 14.8614 5.13864C14.223 4.50024 13.4651 3.99383 12.6309 3.64833C11.7968 3.30283 10.9028 3.125 10 3.125Z" fill="#00D2EF"/>
  <path fill-rule="evenodd" clip-rule="evenodd" d="M13.3307 7.55427C13.575 7.7981 13.5754 8.19383 13.3316 8.43816L9.38539 12.3924C9.35785 12.4418 9.32309 12.4883 9.28111 12.5303C9.03704 12.7743 8.64132 12.7744 8.39724 12.5303L8.38057 12.5136C8.38038 12.5134 8.38076 12.5138 8.38057 12.5136L6.59139 10.7244C6.34731 10.4804 6.34731 10.0846 6.59139 9.84056C6.83547 9.59648 7.2312 9.59648 7.47527 9.84056L8.82205 11.1873L12.4468 7.55518C12.6906 7.31085 13.0863 7.31044 13.3307 7.55427Z" fill="#00D2EF"/>
</svg>
