<svg width="20" height="20" viewBox="0 0 20 20" fill="none" xmlns="http://www.w3.org/2000/svg">
  <path fill-rule="evenodd" clip-rule="evenodd" d="M10 3.125C6.20227 3.125 3.125 6.19558 3.125 10C3.125 13.7977 6.19558 16.875 10 16.875C13.7973 16.875 16.875 13.7973 16.875 10C16.875 6.20268 13.7973 3.125 10 3.125ZM1.875 10C1.875 5.50442 5.51273 1.875 10 1.875C14.4877 1.875 18.125 5.51232 18.125 10C18.125 14.4877 14.4877 18.125 10 18.125C5.50442 18.125 1.875 14.4873 1.875 10ZM7.19972 7.19972C7.4438 6.95565 7.83953 6.95565 8.08361 7.19972L10 9.11612L11.9164 7.19972C12.1605 6.95565 12.5562 6.95565 12.8003 7.19972C13.0444 7.4438 13.0444 7.83953 12.8003 8.08361L10.8839 10L12.8003 11.9164C13.0444 12.1605 13.0444 12.5562 12.8003 12.8003C12.5562 13.0444 12.1605 13.0444 11.9164 12.8003L10 10.8839L8.08361 12.8003C7.83953 13.0444 7.4438 13.0444 7.19972 12.8003C6.95565 12.5562 6.95565 12.1605 7.19972 11.9164L9.11612 10L7.19972 8.08361C6.95565 7.83953 6.95565 7.4438 7.19972 7.19972Z" fill="#FFA726"/>
</svg>
