<svg width="33" height="144" viewBox="0 0 33 144" fill="none" xmlns="http://www.w3.org/2000/svg">
    <path
        d="M1 51C0.447715 51 0 51.4477 0 52C0 52.5523 0.447715 53 1 53V51ZM32.7071 52.7071C33.0976 52.3166 33.0976 51.6834 32.7071 51.2929L26.3431 44.9289C25.9526 44.5384 25.3195 44.5384 24.9289 44.9289C24.5384 45.3195 24.5384 45.9526 24.9289 46.3431L30.5858 52L24.9289 57.6569C24.5384 58.0474 24.5384 58.6805 24.9289 59.0711C25.3195 59.4616 25.9526 59.4616 26.3431 59.0711L32.7071 52.7071ZM1 53H32V51H1V53Z"
        fill="url(#paint0_linear_412_23849)" fill-opacity="0.3" />
    <defs>
        <linearGradient id="paint0_linear_412_23849" x1="16.5" y1="52" x2="1.55357" y2="52"
            gradientUnits="userSpaceOnUse">
            <stop stop-color="#8C90A4" />
            <stop offset="1" stop-color="#8C90A4" stop-opacity="0" />
        </linearGradient>
    </defs>
</svg>