<svg width="48" height="48" viewBox="0 0 48 48" fill="none" xmlns="http://www.w3.org/2000/svg">
<rect width="48" height="48" rx="24" fill="#5383FF" fill-opacity="0.15"/>
<path d="M28.3 27.75C28.3 27.3358 28.6358 27 29.05 27H30.75C31.1642 27 31.5 27.3358 31.5 27.75V30.3C31.5 30.7142 31.1642 31.05 30.75 31.05C30.3358 31.05 30 30.7142 30 30.3V28.5H29.05C28.6358 28.5 28.3 28.1642 28.3 27.75Z" fill="#5383FF"/>
<path fill-rule="evenodd" clip-rule="evenodd" d="M18 14.75C16.7542 14.75 15.75 15.7542 15.75 17V27C16.3953 26.516 17.1839 26.25 18 26.25C18.8161 26.25 19.6047 26.516 20.25 27V17C20.25 15.7558 19.2374 14.75 18 14.75ZM20.25 30C20.25 29.4033 20.0129 28.831 19.591 28.409C19.169 27.9871 18.5967 27.75 18 27.75C17.4033 27.75 16.831 27.9871 16.409 28.409C15.9871 28.831 15.75 29.4033 15.75 30C15.75 30.5967 15.9871 31.169 16.409 31.591C16.831 32.0129 17.4033 32.25 18 32.25C18.5967 32.25 19.169 32.0129 19.591 31.591C20.0129 31.169 20.25 30.5967 20.25 30ZM21 32.25C21.484 31.6047 21.75 30.8161 21.75 30V17C21.75 16.916 21.7472 16.8326 21.7418 16.75H31C31.6882 16.75 32.25 17.3067 32.25 18V22.5C32.25 22.9142 32.5858 23.25 33 23.25C33.4142 23.25 33.75 22.9142 33.75 22.5V18C33.75 16.4733 32.5118 15.25 31 15.25H21.3169C20.6866 14.0592 19.434 13.25 18 13.25C15.9258 13.25 14.25 14.9258 14.25 17V30C14.25 30.9946 14.6451 31.9484 15.3483 32.6517C16.0516 33.3549 17.0054 33.75 18 33.75H23C23.4142 33.75 23.75 33.4142 23.75 33C23.75 32.5858 23.4142 32.25 23 32.25H21ZM25.25 27C25.25 25.4812 26.4812 24.25 28 24.25H32C33.5188 24.25 34.75 25.4812 34.75 27V31C34.75 32.5188 33.5188 33.75 32 33.75H28C26.4812 33.75 25.25 32.5188 25.25 31V27ZM28 25.75C27.3096 25.75 26.75 26.3096 26.75 27V31C26.75 31.6904 27.3096 32.25 28 32.25H32C32.6904 32.25 33.25 31.6904 33.25 31V27C33.25 26.3096 32.6904 25.75 32 25.75H28Z" fill="#5383FF"/>
<rect x="0.5" y="0.5" width="47" height="47" rx="23.5" stroke="#5383FF" stroke-opacity="0.15"/>
</svg>
