<svg width="48" height="48" viewBox="0 0 48 48" fill="none" xmlns="http://www.w3.org/2000/svg">
<rect width="48" height="48" rx="24" fill="#5383FF" fill-opacity="0.15"/>
<path fill-rule="evenodd" clip-rule="evenodd" d="M18 15.75C16.7572 15.75 15.75 16.7572 15.75 18V30C15.75 31.2428 16.7572 32.25 18 32.25H30C31.2428 32.25 32.25 31.2428 32.25 30V18C32.25 16.7572 31.2428 15.75 30 15.75H18ZM14.25 18C14.25 15.9288 15.9288 14.25 18 14.25H30C32.0712 14.25 33.75 15.9288 33.75 18V30C33.75 32.0712 32.0712 33.75 30 33.75H18C15.9288 33.75 14.25 32.0712 14.25 30V18ZM19.4238 20.5199C19.689 20.2017 20.1619 20.1587 20.4801 20.4238L23.4801 22.9238C23.6511 23.0663 23.75 23.2774 23.75 23.5C23.75 23.7226 23.6511 23.9337 23.4801 24.0762L20.4801 26.5762C20.1619 26.8413 19.689 26.7983 19.4238 26.4801C19.1587 26.1619 19.2017 25.689 19.5199 25.4238L21.8285 23.5L19.5199 21.5762C19.2017 21.311 19.1587 20.8381 19.4238 20.5199ZM24.25 27C24.25 26.5858 24.5858 26.25 25 26.25H28C28.4142 26.25 28.75 26.5858 28.75 27C28.75 27.4142 28.4142 27.75 28 27.75H25C24.5858 27.75 24.25 27.4142 24.25 27Z" fill="#5383FF"/>
<rect x="0.5" y="0.5" width="47" height="47" rx="23.5" stroke="#5383FF" stroke-opacity="0.15"/>
</svg>
