<svg width="48" height="48" viewBox="0 0 48 48" fill="none" xmlns="http://www.w3.org/2000/svg">
<rect width="48" height="48" rx="24" fill="#5383FF" fill-opacity="0.15"/>
<path fill-rule="evenodd" clip-rule="evenodd" d="M24.4905 19.5995C24.3587 19.3839 24.1212 19.24 23.85 19.24C23.2958 19.24 22.85 19.6858 22.85 20.24C22.85 20.7647 23.2765 21.24 23.85 21.24C24.1451 21.24 24.3909 21.1072 24.5541 20.9441C24.7172 20.7809 24.85 20.5351 24.85 20.24C24.85 19.9688 24.7061 19.7313 24.4905 19.5995Z" fill="#5383FF"/>
<path fill-rule="evenodd" clip-rule="evenodd" d="M22.25 27.5C22.25 27.0858 22.5858 26.75 23 26.75H25.31C25.7242 26.75 26.06 27.0858 26.06 27.5C26.06 27.9142 25.7242 28.25 25.31 28.25H23C22.5858 28.25 22.25 27.9142 22.25 27.5Z" fill="#5383FF"/>
<path fill-rule="evenodd" clip-rule="evenodd" d="M20.2688 14.9922C21.4518 14.5022 22.7196 14.25 24 14.25C25.2804 14.25 26.5482 14.5022 27.7312 14.9922C28.9141 15.4822 29.9889 16.2003 30.8943 17.1057C31.7997 18.0111 32.5178 19.0859 33.0078 20.2688C33.4978 21.4518 33.75 22.7196 33.75 24C33.75 25.2804 33.4978 26.5482 33.0078 27.7312C32.5178 28.9141 31.7997 29.9889 30.8943 30.8943C29.9889 31.7997 28.9141 32.5178 27.7312 33.0078C26.5482 33.4978 25.2804 33.75 24 33.75C22.7196 33.75 21.4518 33.4978 20.2688 33.0078C19.0859 32.5178 18.0111 31.7997 17.1057 30.8943C16.2003 29.9889 15.4822 28.9141 14.9922 27.7312C14.5022 26.5482 14.25 25.2804 14.25 24C14.25 22.7196 14.5022 21.4518 14.9922 20.2688C15.4822 19.0859 16.2003 18.0111 17.1057 17.1057C18.0111 16.2003 19.0859 15.4822 20.2688 14.9922ZM24 15.75C22.9166 15.75 21.8438 15.9634 20.8429 16.378C19.8419 16.7926 18.9325 17.4003 18.1664 18.1664C17.4003 18.9325 16.7926 19.8419 16.378 20.8429C15.9634 21.8438 15.75 22.9166 15.75 24C15.75 25.0834 15.9634 26.1562 16.378 27.1571C16.7926 28.1581 17.4003 29.0675 18.1664 29.8336C18.9325 30.5997 19.8419 31.2074 20.8429 31.622C21.8438 32.0366 22.9166 32.25 24 32.25C25.0834 32.25 26.1562 32.0366 27.1571 31.622C28.1581 31.2074 29.0675 30.5997 29.8336 29.8336C30.5997 29.0675 31.2074 28.1581 31.622 27.1571C32.0366 26.1562 32.25 25.0834 32.25 24C32.25 22.9166 32.0366 21.8438 31.622 20.8429C31.2074 19.8419 30.5997 18.9325 29.8336 18.1664C29.0675 17.4003 28.1581 16.7926 27.1571 16.378C26.1562 15.9634 25.0834 15.75 24 15.75ZM23.4596 20.6365C23.5931 20.8432 23.8256 20.98 24.09 20.98C24.5042 20.98 24.84 20.6442 24.84 20.23C24.84 19.9361 24.7081 19.6866 24.5368 19.52C24.3646 19.3525 24.0989 19.2179 23.7825 19.2422C23.3807 19.2731 23.0751 19.6161 23.0906 20.0188C23.1007 20.283 23.2466 20.5109 23.4596 20.6365ZM22.259 23.25C22.259 22.8358 22.5948 22.5 23.009 22.5H24.159C24.5732 22.5 24.909 22.8358 24.909 23.25V27.5C24.909 27.9142 24.5732 28.25 24.159 28.25C23.7448 28.25 23.409 27.9142 23.409 27.5V24H23.009C22.5948 24 22.259 23.6642 22.259 23.25Z" fill="#5383FF"/>
<rect x="0.5" y="0.5" width="47" height="47" rx="23.5" stroke="#5383FF" stroke-opacity="0.15"/>
</svg>
