<svg width="48" height="48" viewBox="0 0 48 48" fill="none" xmlns="http://www.w3.org/2000/svg">
<rect width="48" height="48" rx="24" fill="#5383FF" fill-opacity="0.15"/>
<path fill-rule="evenodd" clip-rule="evenodd" d="M22.6962 14.3517C23.101 14.1189 23.5519 14.0023 24.0035 14.0044C24.4469 14.0065 24.8885 14.123 25.2851 14.3524C25.2853 14.3526 25.2849 14.3523 25.2851 14.3524L31.704 18.0568C31.7042 18.0569 31.7038 18.0567 31.704 18.0568C32.0744 18.2701 32.381 18.5669 32.6024 18.9174C32.8584 19.3227 33 19.7978 33 20.2949V27.7049C33 27.8096 32.9782 27.9107 32.9382 28.003C32.8331 28.7868 32.3708 29.4919 31.6817 29.898L31.6767 29.901L25.2611 33.6142C24.8731 33.8343 24.4406 33.9458 24.0102 33.9516C23.5562 33.9578 23.0974 33.8464 22.6889 33.613L22.6864 33.6116L16.2727 29.9135C15.4578 29.454 14.984 28.5887 14.984 27.6819V20.2819C14.984 19.7939 15.1234 19.323 15.374 18.9211C15.595 18.5668 15.9038 18.2638 16.2828 18.0502L22.6962 14.3517ZM31.5 27.423V20.2949C31.5 20.0844 31.4404 19.8866 31.3343 19.7186C31.2423 19.573 31.1142 19.448 30.9559 19.3569L24.5342 15.651C24.3661 15.5536 24.1812 15.5053 23.9965 15.5044C23.8086 15.5035 23.6183 15.5518 23.4441 15.6519C23.444 15.652 23.4443 15.6518 23.4441 15.6519L17.0212 19.3559C16.8671 19.4424 16.7394 19.5665 16.6468 19.7149C16.5419 19.8831 16.484 20.0798 16.484 20.2819V27.6819C16.484 28.0735 16.6886 28.4268 17.0112 28.6079L17.0187 28.6121L23.4331 32.3107C23.4334 32.3109 23.4337 32.311 23.4341 32.3112C23.6004 32.406 23.7932 32.4544 23.9899 32.4517C24.1754 32.4492 24.3581 32.4013 24.5183 32.311C24.5192 32.3105 24.52 32.31 24.5209 32.3095L30.9202 28.6057C30.9209 28.6053 30.9216 28.6049 30.9224 28.6044C31.2533 28.4084 31.461 28.0443 31.461 27.6619C31.461 27.5791 31.4746 27.4987 31.5 27.423ZM18.0889 20.536C18.2983 20.1786 18.7578 20.0587 19.1152 20.2681L23.9995 23.1303L28.8701 20.2685C29.2272 20.0587 29.6868 20.1781 29.8967 20.5352C30.1065 20.8924 29.9871 21.352 29.63 21.5618L24.75 24.4291V29.9999C24.75 30.4141 24.4142 30.7499 24 30.7499C23.5858 30.7499 23.25 30.4141 23.25 29.9999V24.4297L18.3568 21.5623C17.9994 21.3528 17.8795 20.8934 18.0889 20.536Z" fill="#5383FF"/>
<rect x="0.5" y="0.5" width="47" height="47" rx="23.5" stroke="#5383FF" stroke-opacity="0.15"/>
</svg>
