<svg width="48" height="48" viewBox="0 0 48 48" fill="none" xmlns="http://www.w3.org/2000/svg">
<rect width="48" height="48" rx="24" fill="#5383FF" fill-opacity="0.15"/>
<path fill-rule="evenodd" clip-rule="evenodd" d="M24 15.75C19.4427 15.75 15.75 19.4347 15.75 24C15.75 28.5573 19.4347 32.25 24 32.25C28.5568 32.25 32.25 28.5568 32.25 24C32.25 19.4432 28.5568 15.75 24 15.75ZM14.25 24C14.25 18.6053 18.6153 14.25 24 14.25C29.3852 14.25 33.75 18.6148 33.75 24C33.75 29.3852 29.3852 33.75 24 33.75C18.6053 33.75 14.25 29.3847 14.25 24Z" fill="#5383FF"/>
<path fill-rule="evenodd" clip-rule="evenodd" d="M21.24 21.83C21.24 20.3058 22.4658 19.08 23.99 19.08C25.5018 19.08 26.74 20.3033 26.74 21.83C26.74 23.0216 25.969 23.6474 25.4376 24.0162L25.4261 24.0241C24.9689 24.3289 24.75 24.5731 24.75 25V25.25C24.75 25.6642 24.4142 26 24 26C23.5858 26 23.25 25.6642 23.25 25.25V25C23.25 23.7913 24.0255 23.1558 24.5878 22.7801C25.0327 22.4707 25.24 22.2367 25.24 21.83C25.24 21.1367 24.6782 20.58 23.99 20.58C23.2942 20.58 22.74 21.1342 22.74 21.83C22.74 22.2442 22.4042 22.58 21.99 22.58C21.5758 22.58 21.24 22.2442 21.24 21.83Z" fill="#5383FF"/>
<path fill-rule="evenodd" clip-rule="evenodd" d="M23.9939 27.25C23.9956 27.25 23.9973 27.25 23.999 27.25C24.0238 27.25 24.0483 27.2512 24.0725 27.2536C24.5566 27.2947 24.999 27.6902 24.999 28.25C24.999 28.5451 24.8662 28.7909 24.7031 28.9541C24.5399 29.1172 24.2941 29.25 23.999 29.25C23.4255 29.25 22.999 28.7747 22.999 28.25C22.999 27.72 23.4067 27.2891 23.9271 27.2525C23.9475 27.2509 23.9681 27.25 23.989 27.25C23.9906 27.25 23.9923 27.25 23.9939 27.25Z" fill="#5383FF"/>
<rect x="0.5" y="0.5" width="47" height="47" rx="23.5" stroke="#5383FF" stroke-opacity="0.15"/>
</svg>
