<svg width="48" height="48" viewBox="0 0 48 48" fill="none" xmlns="http://www.w3.org/2000/svg">
<rect width="48" height="48" rx="24" fill="#5383FF" fill-opacity="0.15"/>
<path fill-rule="evenodd" clip-rule="evenodd" d="M24.0019 14.1399C24.2877 14.1406 24.5483 14.3037 24.6738 14.5605L27.4301 20.1981L33.5987 21.1008C33.8806 21.1421 34.1148 21.3395 34.2031 21.6103C34.2914 21.8812 34.2187 22.1787 34.0153 22.3783L29.5452 26.7637L30.5994 32.9632C30.6474 33.245 30.5309 33.5296 30.2991 33.6969C30.0673 33.8643 29.7606 33.8853 29.5081 33.7512L23.9885 30.8179L18.4691 33.7416C18.2167 33.8754 17.9101 33.8541 17.6786 33.6867C17.4471 33.5192 17.3308 33.2348 17.3787 32.9532L18.433 26.7532L13.9623 22.3577C13.7593 22.1582 13.6868 21.8611 13.775 21.5905C13.8631 21.3199 14.0968 21.1226 14.3784 21.081L20.5501 20.1684L23.3279 14.5571C23.4547 14.301 23.7161 14.1392 24.0019 14.1399ZM23.9959 16.5889L21.7202 21.1856C21.6111 21.406 21.401 21.5589 21.1578 21.5948L16.0883 22.3444L19.7639 25.9581C19.9388 26.1301 20.0186 26.3768 19.9774 26.6186L19.1128 31.7032L23.638 29.3061C23.8579 29.1896 24.1213 29.1898 24.341 29.3066L28.8649 31.7107L28.0007 26.6286C27.9595 26.3865 28.0395 26.1395 28.2148 25.9675L31.8858 22.3661L26.8215 21.625C26.5765 21.5891 26.365 21.4347 26.2563 21.2123L23.9959 16.5889Z" fill="#5383FF"/>
<rect x="0.5" y="0.5" width="47" height="47" rx="23.5" stroke="#5383FF" stroke-opacity="0.15"/>
</svg>
