<svg width="48" height="48" viewBox="0 0 48 48" fill="none" xmlns="http://www.w3.org/2000/svg">
<rect width="48" height="48" rx="24" fill="#5383FF" fill-opacity="0.15"/>
<rect x="0.5" y="0.5" width="47" height="47" rx="23.5" stroke="#5383FF" stroke-opacity="0.15"/>
<path fill-rule="evenodd" clip-rule="evenodd" d="M17.75 16.5C16.5042 16.5 15.5 17.5042 15.5 18.75V19H32V18.75C32 17.5058 30.9874 16.5 29.75 16.5H17.75ZM33.5 18.75C33.5 16.6742 31.8126 15 29.75 15H17.75C15.6758 15 14 16.6758 14 18.75V26.75C14 28.8126 15.6742 30.5 17.75 30.5H20.75C21.1642 30.5 21.5 30.1642 21.5 29.75C21.5 29.3358 21.1642 29 20.75 29H17.75C16.5058 29 15.5 27.9874 15.5 26.75V20.5H32V23.75C32 24.1642 32.3358 24.5 32.75 24.5C33.1642 24.5 33.5 24.1642 33.5 23.75V18.75ZM18 23.75C18 23.3358 18.3358 23 18.75 23H20.75C21.1642 23 21.5 23.3358 21.5 23.75C21.5 24.1642 21.1642 24.5 20.75 24.5H18.75C18.3358 24.5 18 24.1642 18 23.75ZM27.34 27.499C26.8773 27.499 26.5 27.8701 26.5 28.349V29.941C26.7945 29.6771 27.2473 29.6867 27.5303 29.9697C27.8232 30.2626 27.8232 30.7374 27.5303 31.0303L26.2803 32.2803C25.9874 32.5732 25.5126 32.5732 25.2197 32.2803L23.9697 31.0303C23.6768 30.7374 23.6768 30.2626 23.9697 29.9697C24.2527 29.6867 24.7055 29.6771 25 29.941V28.349C25 27.0479 26.0427 25.999 27.34 25.999H28.74C29.1542 25.999 29.49 26.3348 29.49 26.749C29.49 27.1632 29.1542 27.499 28.74 27.499H27.34ZM31.2197 27.2197C31.5126 26.9268 31.9874 26.9268 32.2803 27.2197L33.5303 28.4697C33.8232 28.7626 33.8232 29.2374 33.5303 29.5303C33.2473 29.8133 32.7945 29.8229 32.5 29.559V31.1595C32.4854 32.4454 31.4458 33.491 30.15 33.491H28.74C28.3258 33.491 27.99 33.1552 27.99 32.741C27.99 32.3268 28.3258 31.991 28.74 31.991H30.15C30.613 31.991 30.9928 31.6184 31 31.146V29.559C30.7055 29.8229 30.2527 29.8133 29.9697 29.5303C29.6768 29.2374 29.6768 28.7626 29.9697 28.4697L31.2197 27.2197Z" fill="#5383FF"/>
</svg>
