<svg width="16" height="15" viewBox="0 0 16 15" fill="none" xmlns="http://www.w3.org/2000/svg">
<path d="M14.494 3.91914C13.8233 2.77002 12.9136 1.86026 11.7646 1.18965C10.6154 0.519012 9.36082 0.183777 7.99998 0.183777C6.6393 0.183777 5.38432 0.519114 4.23537 1.18965C3.08624 1.86023 2.17655 2.77002 1.50588 3.91914C0.835303 5.06823 0.5 6.32305 0.5 7.68355C0.5 9.31783 0.976806 10.7874 1.93066 12.0927C2.88441 13.398 4.11651 14.3013 5.62686 14.8026C5.80267 14.8352 5.93282 14.8122 6.01744 14.7343C6.10209 14.6562 6.14437 14.5585 6.14437 14.4414C6.14437 14.4219 6.14269 14.2462 6.13944 13.9141C6.13609 13.582 6.13452 13.2923 6.13452 13.0451L5.9099 13.084C5.76669 13.1102 5.58602 13.1213 5.3679 13.1182C5.14988 13.1151 4.92355 13.0923 4.68922 13.0498C4.45479 13.0077 4.23674 12.91 4.0349 12.7571C3.83316 12.6041 3.68995 12.4038 3.60529 12.1566L3.50764 11.9318C3.44255 11.7822 3.34007 11.616 3.20008 11.4339C3.06008 11.2515 2.91851 11.1279 2.77529 11.0628L2.70692 11.0139C2.66136 10.9813 2.61908 10.9421 2.57999 10.8966C2.54093 10.8511 2.51168 10.8055 2.49215 10.7599C2.47259 10.7142 2.4888 10.6768 2.54096 10.6474C2.59312 10.618 2.68739 10.6037 2.82417 10.6037L3.01941 10.6329C3.14962 10.659 3.31069 10.737 3.50282 10.8672C3.69484 10.9974 3.85269 11.1667 3.97641 11.3749C4.12622 11.6419 4.30672 11.8453 4.51841 11.9853C4.72992 12.1253 4.94319 12.1952 5.15799 12.1952C5.37279 12.1952 5.55831 12.1789 5.71463 12.1465C5.87077 12.114 6.01727 12.065 6.15405 12C6.21264 11.5636 6.37217 11.2284 6.6325 10.994C6.26145 10.955 5.92786 10.8963 5.63155 10.8182C5.33541 10.74 5.02938 10.6131 4.71368 10.4372C4.3978 10.2615 4.13576 10.0433 3.9275 9.783C3.71919 9.52257 3.54824 9.18067 3.41488 8.7576C3.28145 8.33435 3.21472 7.84612 3.21472 7.29277C3.21472 6.50488 3.47193 5.83441 3.98626 5.28098C3.74532 4.68863 3.76807 4.0246 4.05456 3.28893C4.24337 3.23027 4.52337 3.27429 4.89441 3.42072C5.26553 3.56722 5.53725 3.69271 5.70984 3.79676C5.88243 3.90078 6.02072 3.98892 6.12491 4.06041C6.73049 3.8912 7.35544 3.80658 7.99991 3.80658C8.64438 3.80658 9.26947 3.8912 9.87508 4.06041L10.2462 3.82614C10.4999 3.66983 10.7996 3.52658 11.1444 3.39637C11.4895 3.26622 11.7533 3.23038 11.9357 3.28904C12.2286 4.02473 12.2547 4.68874 12.0137 5.28109C12.528 5.83451 12.7853 6.50515 12.7853 7.29287C12.7853 7.84623 12.7183 8.336 12.5851 8.76249C12.4517 9.18905 12.2793 9.53061 12.0677 9.78789C11.856 10.0451 11.5923 10.2616 11.2766 10.4373C10.9608 10.6131 10.6547 10.74 10.3585 10.8182C10.0623 10.8964 9.72866 10.9551 9.35761 10.9942C9.69603 11.2871 9.86527 11.7493 9.86527 12.3808V14.4412C9.86527 14.5582 9.90597 14.6559 9.98745 14.734C10.0688 14.812 10.1973 14.8349 10.3731 14.8023C11.8837 14.3011 13.1158 13.3978 14.0695 12.0924C15.0231 10.7871 15.5001 9.31755 15.5001 7.68328C15.4998 6.32294 15.1643 5.06823 14.494 3.91914Z" fill="white"/>
</svg>
