<svg width="114" height="114" viewBox="0 0 114 114" fill="none" xmlns="http://www.w3.org/2000/svg">
<g filter="url(#filter0_ddi_2228_1853)">
<g clip-path="url(#clip0_2228_1853)">
<rect x="5" y="1" width="104" height="104" rx="52" fill="white"/>
<rect x="5" y="1" width="104" height="104" rx="52" fill="url(#paint0_radial_2228_1853)"/>
<path opacity="0.7" d="M89.5781 53H57M89.5781 53H109.125M89.5781 53V32.3672M89.5781 53H143.875M89.5781 53V85.5781M89.5781 53H196M57 53V20.4219M57 53H24.4219M57 53V85.5781M196 53H109.125M196 53V-33.875M196 53H143.875M196 53V192H143.875M57 20.4219V-33.875M57 20.4219H89.5781M57 20.4219V0.875M57 20.4219H36.3672M57 20.4219V-86M109.125 53V32.3672M196 -33.875V-86H57M196 -33.875H109.125M57 -86V-33.875M57 -86V0.875M57 -86H-29.875M57 -33.875H109.125M109.125 -33.875V20.4219M109.125 20.4219H97.1797M109.125 20.4219V32.3672M89.5781 20.4219H97.1797M89.5781 20.4219V32.3672M97.1797 20.4219V32.3672M97.1797 32.3672H89.5781M97.1797 32.3672H109.125M24.4219 53H-29.875M24.4219 53V20.4219M24.4219 53H4.875M24.4219 53V73.6328M24.4219 53H-82M57 0.875H36.3672M-29.875 -86H-82V53M-29.875 -86V0.875M-82 53H-29.875M-82 53H4.875M-82 53V139.875M-29.875 53V0.875M-29.875 0.875H24.4219M24.4219 0.875V12.8203M24.4219 0.875H36.3672M24.4219 20.4219V12.8203M24.4219 20.4219H36.3672M24.4219 12.8203H36.3672M36.3672 12.8203V20.4219M36.3672 12.8203V0.875M57 85.5781V105.125M57 85.5781H77.6328M57 85.5781V139.875M57 85.5781H24.4219M57 85.5781V192M57 192V105.125M57 192H143.875M57 192V139.875M57 192H-82V139.875M57 105.125H77.6328M143.875 192V105.125M143.875 53V105.125M143.875 105.125H89.5781M89.5781 105.125V93.1797M89.5781 105.125H77.6328M89.5781 85.5781V93.1797M89.5781 85.5781H77.6328M89.5781 93.1797H77.6328M77.6328 93.1797V85.5781M77.6328 93.1797V105.125M4.875 53V73.6328M-82 139.875H4.875M57 139.875H4.875M4.875 139.875V85.5781M4.875 85.5781H16.8203M4.875 85.5781V73.6328M24.4219 85.5781H16.8203M24.4219 85.5781V73.6328M16.8203 85.5781V73.6328M16.8203 73.6328H24.4219M16.8203 73.6328H4.875" stroke="url(#paint1_radial_2228_1853)" stroke-width="1.31132"/>
<path fill-rule="evenodd" clip-rule="evenodd" d="M48.4998 32.3136C51.2316 31.182 54.1596 30.5996 57.1165 30.5996C60.0735 30.5996 63.0014 31.182 65.7333 32.3136C68.4651 33.4452 70.9473 35.1037 73.0382 37.1946C75.1291 39.2855 76.7876 41.7677 77.9192 44.4995C79.0508 47.2314 79.6332 50.1593 79.6332 53.1163C79.6332 56.0732 79.0508 59.0012 77.9192 61.733C76.7876 64.4649 75.1291 66.9471 73.0382 69.038C70.9473 71.1288 68.4651 72.7874 65.7333 73.919C63.0014 75.0505 60.0735 75.6329 57.1165 75.6329C54.1596 75.6329 51.2316 75.0505 48.4998 73.919C45.7679 72.7874 43.2857 71.1288 41.1948 69.038C39.104 66.9471 37.4454 64.4649 36.3138 61.733C35.1823 59.0012 34.5999 56.0732 34.5999 53.1163C34.5999 50.1593 35.1823 47.2314 36.3138 44.4995C37.4454 41.7677 39.104 39.2855 41.1948 37.1946C43.2857 35.1037 45.7679 33.4452 48.4998 32.3136ZM57.1165 33.6329C54.5579 33.6329 52.0244 34.1369 49.6606 35.116C47.2967 36.0952 45.1489 37.5303 43.3397 39.3395C41.5305 41.1487 40.0954 43.2965 39.1163 45.6603C38.1371 48.0242 37.6332 50.5577 37.6332 53.1163C37.6332 55.6749 38.1371 58.2084 39.1163 60.5722C40.0954 62.9361 41.5305 65.0839 43.3397 66.8931C45.1489 68.7023 47.2967 70.1374 49.6606 71.1165C52.0244 72.0957 54.5579 72.5996 57.1165 72.5996C59.6751 72.5996 62.2086 72.0957 64.5725 71.1165C66.9363 70.1374 69.0841 68.7023 70.8933 66.8931C72.7025 65.0839 74.1377 62.9361 75.1168 60.5722C76.0959 58.2084 76.5999 55.6749 76.5999 53.1163C76.5999 50.5577 76.0959 48.0242 75.1168 45.6603C74.1376 43.2965 72.7025 41.1487 70.8933 39.3395C69.0841 37.5303 66.9363 36.0952 64.5725 35.116C62.2086 34.1369 59.6751 33.6329 57.1165 33.6329ZM58.7683 40.2883C59.4097 40.827 59.4929 41.7837 58.9541 42.4251L57.9741 43.5918C57.4354 44.2332 56.4787 44.3164 55.8373 43.7776C55.1959 43.2388 55.1127 42.2821 55.6515 41.6408L56.6315 40.4741C57.1702 39.8327 58.1269 39.7495 58.7683 40.2883ZM60.0769 45.6287C61.8983 45.7042 63.552 46.6233 64.6048 48.1096C64.8471 48.4517 64.937 48.8789 64.8531 49.2897C64.7693 49.7005 64.5191 50.0582 64.162 50.278C63.3889 50.7537 62.9066 51.5961 62.9028 52.4988C62.9218 53.5427 63.5302 54.463 64.4828 54.8734C65.1901 55.178 65.5568 55.9644 65.3355 56.7021C65.0055 57.802 64.4912 58.8214 63.8903 59.7359L63.8809 59.7502L63.8808 59.7502C63.4995 60.3163 63.0167 61.0126 62.4187 61.5684C61.7964 62.1468 60.9534 62.6638 59.8566 62.7052L59.8281 62.7063L59.8281 62.706C58.8921 62.7237 58.2322 62.4397 57.7999 62.2536C57.7817 62.2458 57.764 62.2382 57.7466 62.2307C57.362 62.0659 57.1468 61.9829 56.7661 61.9829C56.3518 61.9829 56.1106 62.0698 55.7623 62.2191C55.7279 62.2338 55.6912 62.2499 55.6523 62.2669C55.2667 62.4357 54.6596 62.7015 53.847 62.7502C53.8264 62.7515 53.8059 62.7523 53.7853 62.7527C52.6087 62.7753 51.7099 62.1667 51.1016 61.5921C50.5023 61.0258 50.0023 60.3167 49.6318 59.7891C47.3445 56.6834 46.8334 52.6084 48.2924 49.042C48.313 48.9917 48.3363 48.9425 48.3621 48.8946C49.3902 46.9942 51.3292 45.8059 53.4788 45.7436L53.5228 45.7429C54.4501 45.7429 55.2783 46.0753 55.7968 46.2897C55.8765 46.3226 55.9479 46.3525 56.013 46.3797C56.0818 46.4085 56.1436 46.4343 56.201 46.4579C56.2523 46.4506 56.3042 46.446 56.3566 46.444C56.3753 46.4391 56.4345 46.4239 56.5495 46.3831C56.6483 46.348 56.7586 46.3054 56.8999 46.2505L56.9202 46.2427C57.0507 46.192 57.203 46.1328 57.3633 46.0742C58.0236 45.833 58.9747 45.5395 60.0769 45.6287ZM57.6282 49.2186C57.3514 49.4835 56.9782 49.6396 56.5795 49.6396C56.1295 49.6396 55.7229 49.5151 55.448 49.4177C55.2277 49.3397 54.9853 49.2382 54.785 49.1542C54.7327 49.1323 54.6833 49.1117 54.6379 49.0929C54.1251 48.8809 53.8015 48.7812 53.5421 48.7765C52.5074 48.8147 51.5837 49.3711 51.0676 50.2706C50.0491 52.8392 50.4299 55.7656 52.0825 58.0014L52.1041 58.0314C52.5025 58.599 52.8388 59.0603 53.1848 59.3872C53.4869 59.6726 53.6492 59.7139 53.7086 59.7192C53.9423 59.6992 54.0957 59.6334 54.5026 59.4588C54.5235 59.4498 54.5451 59.4406 54.5674 59.431C55.0766 59.2128 55.7572 58.9496 56.7661 58.9496C57.7854 58.9496 58.4686 59.24 58.9415 59.4427C59.3592 59.6217 59.5033 59.6758 59.7543 59.6734C59.8927 59.6655 60.074 59.6065 60.3536 59.3466C60.6643 59.0578 60.9735 58.6365 61.3599 58.063C61.6077 57.6852 61.8279 57.2978 62.0143 56.904C60.6872 55.856 59.8942 54.2551 59.8696 52.5313L59.8693 52.5096H59.8695C59.8695 51.1944 60.3307 49.9554 61.1214 48.9734C60.7561 48.7815 60.3516 48.6732 59.9315 48.6587C59.9038 48.6578 59.8761 48.656 59.8485 48.6536C59.4053 48.6139 58.9489 48.7243 58.4043 48.9233C58.2735 48.9711 58.1468 49.0203 58.0104 49.0733L57.9981 49.0781C57.8828 49.1229 57.7552 49.1724 57.6282 49.2186Z" fill="#5383FF"/>
</g>
</g>
<defs>
<filter id="filter0_ddi_2228_1853" x="0" y="0" width="114" height="114" filterUnits="userSpaceOnUse" color-interpolation-filters="sRGB">
<feFlood flood-opacity="0" result="BackgroundImageFix"/>
<feColorMatrix in="SourceAlpha" type="matrix" values="0 0 0 0 0 0 0 0 0 0 0 0 0 0 0 0 0 0 127 0" result="hardAlpha"/>
<feMorphology radius="1" operator="erode" in="SourceAlpha" result="effect1_dropShadow_2228_1853"/>
<feOffset dy="4"/>
<feGaussianBlur stdDeviation="3"/>
<feComposite in2="hardAlpha" operator="out"/>
<feColorMatrix type="matrix" values="0 0 0 0 0.027451 0 0 0 0 0.0392157 0 0 0 0 0.105882 0 0 0 0.05 0"/>
<feBlend mode="normal" in2="BackgroundImageFix" result="effect1_dropShadow_2228_1853"/>
<feColorMatrix in="SourceAlpha" type="matrix" values="0 0 0 0 0 0 0 0 0 0 0 0 0 0 0 0 0 0 127 0" result="hardAlpha"/>
<feMorphology radius="2" operator="erode" in="SourceAlpha" result="effect2_dropShadow_2228_1853"/>
<feOffset dy="2"/>
<feGaussianBlur stdDeviation="2"/>
<feComposite in2="hardAlpha" operator="out"/>
<feColorMatrix type="matrix" values="0 0 0 0 0.027451 0 0 0 0 0.0392157 0 0 0 0 0.105882 0 0 0 0.05 0"/>
<feBlend mode="normal" in2="effect1_dropShadow_2228_1853" result="effect2_dropShadow_2228_1853"/>
<feBlend mode="normal" in="SourceGraphic" in2="effect2_dropShadow_2228_1853" result="shape"/>
<feColorMatrix in="SourceAlpha" type="matrix" values="0 0 0 0 0 0 0 0 0 0 0 0 0 0 0 0 0 0 127 0" result="hardAlpha"/>
<feMorphology radius="1" operator="erode" in="SourceAlpha" result="effect3_innerShadow_2228_1853"/>
<feOffset/>
<feComposite in2="hardAlpha" operator="arithmetic" k2="-1" k3="1"/>
<feColorMatrix type="matrix" values="0 0 0 0 0.764706 0 0 0 0 0.831373 0 0 0 0 1 0 0 0 1 0"/>
<feBlend mode="normal" in2="shape" result="effect3_innerShadow_2228_1853"/>
</filter>
<radialGradient id="paint0_radial_2228_1853" cx="0" cy="0" r="1" gradientUnits="userSpaceOnUse" gradientTransform="translate(5 1) rotate(45) scale(147.078)">
<stop stop-color="#5383FF" stop-opacity="0"/>
<stop offset="1" stop-color="#5383FF" stop-opacity="0.1"/>
</radialGradient>
<radialGradient id="paint1_radial_2228_1853" cx="0" cy="0" r="1" gradientUnits="userSpaceOnUse" gradientTransform="translate(36.5 30) rotate(43.7267) scale(170.815 230.998)">
<stop stop-color="#E0E7FF" stop-opacity="0"/>
<stop offset="1" stop-color="#E0E7FF"/>
</radialGradient>
<clipPath id="clip0_2228_1853">
<rect x="5" y="1" width="104" height="104" rx="52" fill="white"/>
</clipPath>
</defs>
</svg>
