<svg width="48" height="48" viewBox="0 0 48 48" fill="none" xmlns="http://www.w3.org/2000/svg">
<rect width="48" height="48" rx="24" fill="#5383FF" fill-opacity="0.15"/>
<rect x="0.5" y="0.5" width="47" height="47" rx="23.5" stroke="#5383FF" stroke-opacity="0.15"/>
<path fill-rule="evenodd" clip-rule="evenodd" d="M17.71 14.7002C17.2418 14.7002 16.8128 14.9617 16.6008 15.3856L16.5992 15.3887L14.8665 18.8142C14.7588 19.0229 14.7036 19.2482 14.7097 19.4694L14.71 19.4902C14.71 20.326 15.3842 21.0002 16.22 21.0002C17.2366 21.0002 18.0529 20.184 18.06 19.1749C18.0629 18.7617 18.3994 18.4287 18.8126 18.4302C19.2258 18.4317 19.56 18.767 19.56 19.1802C19.56 20.1904 20.3792 21.0117 21.4026 21.0202C22.4143 21.0188 23.2329 20.1969 23.24 19.1849C23.2429 18.7717 23.5794 18.4387 23.9926 18.4402C24.4058 18.4417 24.74 18.777 24.74 19.1902C24.74 20.0763 25.3675 20.8167 26.2031 20.9912C26.2942 20.952 26.3945 20.9302 26.5 20.9302C27.5089 20.9302 28.3204 20.1264 28.3397 19.1281C28.3392 19.1023 28.3399 19.071 28.3433 19.0368C28.3464 19.006 28.3577 18.8976 28.419 18.775C28.4523 18.7084 28.5163 18.6053 28.6326 18.5158C28.6924 18.4698 28.7635 18.4294 28.8453 18.4012C28.8857 18.3873 28.9269 18.3769 28.9685 18.3701C28.9892 18.3667 29.0097 18.3642 29.03 18.3626C29.036 18.3621 29.0419 18.3617 29.0478 18.3614C29.052 18.3611 29.0561 18.3609 29.0602 18.3608L29.0751 18.3603L29.0825 18.3602C29.0861 18.3602 29.0898 18.3602 29.09 19.1102L29.0898 18.3602C29.2897 18.3601 29.4813 18.4399 29.6221 18.5817C29.7629 18.7234 29.8413 18.9154 29.84 19.1152L29.84 19.1202C29.84 20.136 30.6642 20.9602 31.68 20.9602C31.9155 20.9602 32.15 20.9064 32.3633 20.8C33.1007 20.4272 33.3935 19.5209 33.0216 18.7905L31.2912 15.3796C31.08 14.9635 30.6497 14.7002 30.18 14.7002H17.71ZM29.8363 19.0464C29.8366 19.0488 29.8372 19.0545 29.8378 19.0628C29.8373 19.0571 29.8369 19.0521 29.8363 19.0464ZM29.0788 21.2152C29.5616 21.8137 30.2467 22.2424 31.03 22.3969V31.1602H26C25.5858 31.1602 25.25 31.496 25.25 31.9102C25.25 32.3244 25.5858 32.6602 26 32.6602H33C33.4142 32.6602 33.75 32.3244 33.75 31.9102C33.75 31.496 33.4142 31.1602 33 31.1602H32.53V22.3391C32.7027 22.2888 32.8719 22.2228 33.0354 22.141L33.0378 22.1398C34.5194 21.3923 35.1062 19.5793 34.3585 18.1103L32.6288 14.7009C32.16 13.777 31.2102 13.2002 30.18 13.2002H17.71C16.6788 13.2002 15.7284 13.778 15.26 14.7131L13.532 18.1291C13.3221 18.5369 13.1982 19.0067 13.21 19.5005C13.2155 21.16 14.5592 22.5002 16.22 22.5002C17.264 22.5002 18.1927 22.0242 18.8041 21.2787C19.4166 22.032 20.3514 22.5129 21.3947 22.5202L21.4 22.5202C22.4458 22.5202 23.3739 22.0402 23.9846 21.2921C24.5971 22.0469 25.5322 22.5295 26.5795 22.5302C26.742 22.5303 26.8926 22.4787 27.0155 22.3909C27.8443 22.2631 28.5704 21.832 29.0788 21.2152ZM13.248 27.4992C13.248 26.115 14.3638 24.9992 15.748 24.9992H21.249C22.6274 24.9992 23.7348 26.1176 23.7489 27.4915L23.749 27.4992L23.749 28.8211C23.7496 28.8341 23.75 28.8471 23.75 28.8602C23.75 28.8733 23.7496 28.8863 23.749 28.8993V31.008C23.7348 32.3739 22.6285 33.4823 21.2634 33.5001C21.2589 33.5002 21.2545 33.5002 21.25 33.5002H15.7423C14.3683 33.486 13.25 32.3786 13.25 31.0002V27.554C13.2487 27.5359 13.248 27.5176 13.248 27.4992ZM22.249 29.6102H14.75V31.0002C14.75 31.5407 15.1899 31.9926 15.7543 32.0002H21.2445C21.7937 31.9927 22.2414 31.545 22.249 30.9958V29.6102ZM22.249 28.1102H14.75V27.5002C14.75 27.4861 14.7496 27.472 14.7488 27.458C14.7701 26.9216 15.206 26.4992 15.748 26.4992H21.249C21.7895 26.4992 22.2414 26.9391 22.249 27.5036V28.1102Z" fill="#5383FF"/>
</svg>
