<svg width="10" height="12" viewBox="0 0 10 12" fill="none" xmlns="http://www.w3.org/2000/svg">
<path fill-rule="evenodd" clip-rule="evenodd" d="M6.44565 2.34737C5.62238 1.57712 4.37177 1.57863 3.55017 2.3519C2.75903 3.09651 2.77707 4.39213 3.56891 5.23347C4.31352 6.02461 5.60914 6.00657 6.45048 5.21473C7.25172 4.46061 7.26709 3.17374 6.44565 2.34737ZM2.95048 1.71473C4.11061 0.622842 5.89005 0.622842 7.05017 1.71473C7.05339 1.71775 7.05656 1.72083 7.05969 1.72395C8.21684 2.88111 8.23074 4.74078 7.05017 5.8519C5.90818 6.92672 4.0538 7.02535 2.93174 5.83316C1.85692 4.69116 1.75829 2.83679 2.95048 1.71473ZM3.48366 8.53748C2.31876 8.53748 1.35449 9.45641 1.35449 10.6666C1.35449 10.9083 1.15862 11.1041 0.916992 11.1041C0.675368 11.1041 0.479492 10.9083 0.479492 10.6666C0.479492 8.96022 1.84856 7.66248 3.48366 7.66248H6.45866C8.16509 7.66248 9.46283 9.03154 9.46283 10.6666C9.46283 10.9083 9.26695 11.1041 9.02533 11.1041C8.7837 11.1041 8.58783 10.9083 8.58783 10.6666C8.58783 9.50175 7.6689 8.53748 6.45866 8.53748H3.48366Z" fill="#8C90A4"/>
</svg>
