<svg width="114" height="114" viewBox="0 0 114 114" fill="none" xmlns="http://www.w3.org/2000/svg">
<g filter="url(#filter0_ddi_773_20290)">
<g clip-path="url(#clip0_773_20290)">
<rect x="5" y="1" width="104" height="104" rx="52" fill="#1E2237"/>
<rect x="5" y="1" width="104" height="104" rx="52" fill="url(#paint0_radial_773_20290)" fill-opacity="0.3"/>
<path opacity="0.1" d="M89.5781 53H57M89.5781 53H109.125M89.5781 53V32.3672M89.5781 53H143.875M89.5781 53V85.5781M89.5781 53H196M57 53V20.4219M57 53H24.4219M57 53V85.5781M196 53H109.125M196 53V-33.875M196 53H143.875M196 53V192H143.875M57 20.4219V-33.875M57 20.4219H89.5781M57 20.4219V0.875M57 20.4219H36.3672M57 20.4219V-86M109.125 53V32.3672M196 -33.875V-86H57M196 -33.875H109.125M57 -86V-33.875M57 -86V0.875M57 -86H-29.875M57 -33.875H109.125M109.125 -33.875V20.4219M109.125 20.4219H97.1797M109.125 20.4219V32.3672M89.5781 20.4219H97.1797M89.5781 20.4219V32.3672M97.1797 20.4219V32.3672M97.1797 32.3672H89.5781M97.1797 32.3672H109.125M24.4219 53H-29.875M24.4219 53V20.4219M24.4219 53H4.875M24.4219 53V73.6328M24.4219 53H-82M57 0.875H36.3672M-29.875 -86H-82V53M-29.875 -86V0.875M-82 53H-29.875M-82 53H4.875M-82 53V139.875M-29.875 53V0.875M-29.875 0.875H24.4219M24.4219 0.875V12.8203M24.4219 0.875H36.3672M24.4219 20.4219V12.8203M24.4219 20.4219H36.3672M24.4219 12.8203H36.3672M36.3672 12.8203V20.4219M36.3672 12.8203V0.875M57 85.5781V105.125M57 85.5781H77.6328M57 85.5781V139.875M57 85.5781H24.4219M57 85.5781V192M57 192V105.125M57 192H143.875M57 192V139.875M57 192H-82V139.875M57 105.125H77.6328M143.875 192V105.125M143.875 53V105.125M143.875 105.125H89.5781M89.5781 105.125V93.1797M89.5781 105.125H77.6328M89.5781 85.5781V93.1797M89.5781 85.5781H77.6328M89.5781 93.1797H77.6328M77.6328 93.1797V85.5781M77.6328 93.1797V105.125M4.875 53V73.6328M-82 139.875H4.875M57 139.875H4.875M4.875 139.875V85.5781M4.875 85.5781H16.8203M4.875 85.5781V73.6328M24.4219 85.5781H16.8203M24.4219 85.5781V73.6328M16.8203 85.5781V73.6328M16.8203 73.6328H24.4219M16.8203 73.6328H4.875" stroke="url(#paint1_radial_773_20290)" stroke-width="1.31132"/>
<rect opacity="0.1" width="37.3333" height="28" transform="matrix(1 0 0 -1 38.3334 67)" fill="url(#paint2_linear_773_20290)"/>
<path d="M57 39H43C40.4227 39 38.3334 41.0893 38.3334 43.6667V62.3333C38.3334 64.9107 40.4227 67 43 67H71C73.5774 67 75.6667 64.9107 75.6667 62.3333V50.6667" stroke="url(#paint3_linear_773_20290)" stroke-width="2.5" stroke-linecap="round" stroke-linejoin="round"/>
<path d="M56.994 53.0817C57.0174 53.105 57.0174 53.1983 56.994 53.245C56.9474 53.2683 56.854 53.2683 56.8074 53.245C56.7607 53.1983 56.7607 53.105 56.784 53.0583C56.784 53.035 56.784 53.035 56.784 53.035C56.8074 52.9883 56.9007 52.9883 56.9474 53.035M63.994 53.0817C64.0174 53.105 64.0174 53.1983 63.994 53.245C63.9474 53.2683 63.854 53.2683 63.8074 53.245C63.7607 53.1983 63.7607 53.105 63.784 53.0583C63.784 53.035 63.784 53.035 63.784 53.035C63.8074 52.9883 63.9007 52.9883 63.9474 53.035M50.2277 53.0817C50.251 53.105 50.2487 53.1983 50.2253 53.245C50.1787 53.2683 50.0853 53.2683 50.0387 53.245C49.992 53.1983 49.992 53.105 50.0153 53.0583C50.0153 53.035 50.0153 53.035 50.0153 53.035C50.0387 52.9883 50.132 52.9883 50.1787 53.035" stroke="#7E65FF" stroke-width="3" stroke-linecap="round" stroke-linejoin="round"/>
<path d="M75.6666 36.7248L69.25 36.7248C66.3505 36.7248 64 39.0753 64 41.9748V43.7248M71.566 32L76.2326 36.6667L71.566 41.3333" stroke="#7E65FF" stroke-width="3" stroke-linecap="round" stroke-linejoin="round"/>
</g>
</g>
<defs>
<filter id="filter0_ddi_773_20290" x="0" y="0" width="114" height="114" filterUnits="userSpaceOnUse" color-interpolation-filters="sRGB">
<feFlood flood-opacity="0" result="BackgroundImageFix"/>
<feColorMatrix in="SourceAlpha" type="matrix" values="0 0 0 0 0 0 0 0 0 0 0 0 0 0 0 0 0 0 127 0" result="hardAlpha"/>
<feMorphology radius="1" operator="erode" in="SourceAlpha" result="effect1_dropShadow_773_20290"/>
<feOffset dy="4"/>
<feGaussianBlur stdDeviation="3"/>
<feComposite in2="hardAlpha" operator="out"/>
<feColorMatrix type="matrix" values="0 0 0 0 0.027451 0 0 0 0 0.0392157 0 0 0 0 0.105882 0 0 0 0.05 0"/>
<feBlend mode="normal" in2="BackgroundImageFix" result="effect1_dropShadow_773_20290"/>
<feColorMatrix in="SourceAlpha" type="matrix" values="0 0 0 0 0 0 0 0 0 0 0 0 0 0 0 0 0 0 127 0" result="hardAlpha"/>
<feMorphology radius="2" operator="erode" in="SourceAlpha" result="effect2_dropShadow_773_20290"/>
<feOffset dy="2"/>
<feGaussianBlur stdDeviation="2"/>
<feComposite in2="hardAlpha" operator="out"/>
<feColorMatrix type="matrix" values="0 0 0 0 0.027451 0 0 0 0 0.0392157 0 0 0 0 0.105882 0 0 0 0.05 0"/>
<feBlend mode="normal" in2="effect1_dropShadow_773_20290" result="effect2_dropShadow_773_20290"/>
<feBlend mode="normal" in="SourceGraphic" in2="effect2_dropShadow_773_20290" result="shape"/>
<feColorMatrix in="SourceAlpha" type="matrix" values="0 0 0 0 0 0 0 0 0 0 0 0 0 0 0 0 0 0 127 0" result="hardAlpha"/>
<feMorphology radius="1" operator="erode" in="SourceAlpha" result="effect3_innerShadow_773_20290"/>
<feOffset/>
<feComposite in2="hardAlpha" operator="arithmetic" k2="-1" k3="1"/>
<feColorMatrix type="matrix" values="0 0 0 0 0.494118 0 0 0 0 0.396078 0 0 0 0 1 0 0 0 0.2 0"/>
<feBlend mode="normal" in2="shape" result="effect3_innerShadow_773_20290"/>
</filter>
<radialGradient id="paint0_radial_773_20290" cx="0" cy="0" r="1" gradientUnits="userSpaceOnUse" gradientTransform="translate(5 1) rotate(45) scale(147.078)">
<stop stop-color="#7E65FF"/>
<stop offset="0.973958" stop-color="#7E65FF" stop-opacity="0.1"/>
</radialGradient>
<radialGradient id="paint1_radial_773_20290" cx="0" cy="0" r="1" gradientUnits="userSpaceOnUse" gradientTransform="translate(36.5 30) rotate(43.7267) scale(170.815 230.998)">
<stop stop-color="#E0E7FF" stop-opacity="0"/>
<stop offset="1" stop-color="#E0E7FF"/>
</radialGradient>
<linearGradient id="paint2_linear_773_20290" x1="18.6667" y1="0.5" x2="18.6667" y2="28.5" gradientUnits="userSpaceOnUse">
<stop stop-color="#7E65FF"/>
<stop offset="1" stop-color="#7E65FF" stop-opacity="0"/>
</linearGradient>
<linearGradient id="paint3_linear_773_20290" x1="75.9091" y1="66.4998" x2="37.7701" y2="39.1224" gradientUnits="userSpaceOnUse">
<stop stop-color="#B6A7FF"/>
<stop offset="1" stop-color="#D6CDFF"/>
</linearGradient>
<clipPath id="clip0_773_20290">
<rect x="5" y="1" width="104" height="104" rx="52" fill="white"/>
</clipPath>
</defs>
</svg>
