<svg width="48" height="48" viewBox="0 0 48 48" fill="none" xmlns="http://www.w3.org/2000/svg">
<rect width="48" height="48" rx="24" fill="#5383FF" fill-opacity="0.15"/>
<path fill-rule="evenodd" clip-rule="evenodd" d="M16.04 16.249C15.3247 16.249 14.75 16.8238 14.75 17.54V30.5C14.75 30.5102 14.7498 30.5203 14.7494 30.5304C14.7661 31.2031 15.32 31.749 15.999 31.749H31.999C32.6848 31.749 33.249 31.1848 33.249 30.499V17.499C33.249 16.8095 32.686 16.249 31.999 16.249H16.04ZM13.25 30.4602V17.54C13.25 15.9963 14.4953 14.749 16.04 14.749H31.999C33.512 14.749 34.749 15.9786 34.749 17.499V30.499C34.749 32.0132 33.5132 33.249 31.999 33.249H15.999C14.4786 33.249 13.249 32.012 13.249 30.499C13.249 30.486 13.2494 30.4731 13.25 30.4602ZM21.5507 20.6704C20.9619 20.0816 20.0091 20.0859 19.4344 20.6673L19.4314 20.6704L19.4314 20.6704C18.8447 21.257 18.8442 22.211 19.4299 22.7982C20.0168 23.3768 20.9731 23.3773 21.5607 22.7997C22.1405 22.2099 22.1351 21.2548 21.5607 20.6804C21.559 20.6787 21.5574 20.677 21.5557 20.6753C21.554 20.6737 21.5524 20.672 21.5507 20.6704ZM22.6163 19.6147C22.6147 19.613 22.613 19.6114 22.6114 19.6097C21.4407 18.439 19.5346 18.4341 18.3692 19.6112C17.1978 20.7842 17.1983 22.688 18.3707 23.8604L18.3737 23.8634C19.5459 25.0222 21.4461 25.0222 22.6183 23.8634L22.6183 23.8634L22.6244 23.8573C23.7816 22.6868 23.7859 20.7842 22.6214 19.6197C22.6197 19.618 22.618 19.6164 22.6163 19.6147ZM26.25 21.5C26.25 21.0858 26.5858 20.75 27 20.75H31C31.4142 20.75 31.75 21.0858 31.75 21.5C31.75 21.9142 31.4142 22.25 31 22.25H27C26.5858 22.25 26.25 21.9142 26.25 21.5ZM26.25 25.5C26.25 25.0858 26.5858 24.75 27 24.75H29.4C29.8142 24.75 30.15 25.0858 30.15 25.5C30.15 25.9142 29.8142 26.25 29.4 26.25H27C26.5858 26.25 26.25 25.9142 26.25 25.5ZM17.1749 26.7825C17.9005 26.1158 18.8512 25.746 19.838 25.746H21.138C22.1217 25.746 23.0726 26.1157 23.8014 26.7927C24.2411 27.1889 24.5715 27.684 24.7892 28.216C24.946 28.5994 24.7624 29.0373 24.379 29.1942C23.9956 29.351 23.5577 29.1674 23.4009 28.784C23.2594 28.4382 23.0517 28.1353 22.7942 27.9043L22.7836 27.8946C22.3331 27.4746 21.7461 27.246 21.138 27.246H19.838C19.2256 27.246 18.637 27.4757 18.1888 27.888L18.1871 27.8895C17.9228 28.1312 17.7177 28.4281 17.5744 28.7758C17.4166 29.1588 16.9782 29.3413 16.5952 29.1834C16.2123 29.0256 16.0298 28.5872 16.1876 28.2042C16.4103 27.6639 16.7392 27.1809 17.1749 26.7825Z" fill="#5383FF"/>
<rect x="0.5" y="0.5" width="47" height="47" rx="23.5" stroke="#5383FF" stroke-opacity="0.15"/>
</svg>
