<svg width="48" height="49" viewBox="0 0 48 49" fill="none" xmlns="http://www.w3.org/2000/svg">
<rect y="0.459961" width="48" height="48" rx="24" fill="#00A4BA" fill-opacity="0.15"/>
<path fill-rule="evenodd" clip-rule="evenodd" d="M28.8567 16.5462C28.3697 16.0642 27.5968 16.0675 27.1137 16.5568L27.107 16.5636L27.1069 16.5636C26.8862 16.7815 26.7638 17.0597 26.7413 17.3453C26.747 17.3826 26.75 17.4209 26.75 17.4599C26.75 17.4941 26.7477 17.5278 26.7433 17.5608C26.7702 17.8389 26.8921 18.1113 27.1103 18.3296C27.595 18.8143 28.3815 18.8196 28.8814 18.3279C29.3668 17.8406 29.3662 17.0568 28.8797 16.5702C28.8718 16.5623 28.8641 16.5543 28.8567 16.5462ZM29.9541 15.5234C29.9473 15.516 29.9404 15.5088 29.9334 15.5016C28.8608 14.4167 27.1235 14.4156 26.0497 15.4995C25.6974 15.8486 25.46 16.267 25.3369 16.7099H15C14.5858 16.7099 14.25 17.0457 14.25 17.4599C14.25 17.8741 14.5858 18.2099 15 18.2099H25.3477C25.4738 18.6412 25.7079 19.0485 26.0497 19.3902C27.1244 20.465 28.8567 20.4601 29.9369 19.3936L29.9403 19.3902C30.2811 19.0494 30.5137 18.6418 30.638 18.2099H33C33.4142 18.2099 33.75 17.8741 33.75 17.4599C33.75 17.0457 33.4142 16.7099 33 16.7099H30.6436C30.5224 16.2764 30.2926 15.8666 29.9541 15.5234ZM20.8653 23.5568C20.3789 23.0642 19.5991 23.0642 19.1127 23.5568L19.1063 23.5633L19.1063 23.5632C18.886 23.781 18.7637 24.0591 18.7412 24.3446C18.747 24.3822 18.75 24.4207 18.75 24.4599C18.75 24.4942 18.7477 24.5281 18.7432 24.5612C18.7704 24.8391 18.8922 25.1114 19.1103 25.3296C19.595 25.8143 20.3815 25.8196 20.8814 25.3279C21.3631 24.8444 21.3662 24.0687 20.8907 23.5814C20.8821 23.5735 20.8736 23.5653 20.8653 23.5568ZM21.9173 22.4874C20.8435 21.4166 19.1173 21.4207 18.0485 22.4997C17.6966 22.8487 17.4595 23.267 17.3366 23.7099H15C14.5858 23.7099 14.25 24.0457 14.25 24.4599C14.25 24.8741 14.5858 25.2099 15 25.2099H17.3476C17.4738 25.6412 17.7079 26.0485 18.0497 26.3902C19.1244 27.465 20.8567 27.4601 21.9369 26.3936L21.937 26.3936L21.9403 26.3902C22.2811 26.0494 22.5137 25.6418 22.638 25.2099H33C33.4142 25.2099 33.75 24.8741 33.75 24.4599C33.75 24.0457 33.4142 23.7099 33 23.7099H22.6436C22.5208 23.2705 22.2864 22.8556 21.9403 22.5096C21.9328 22.502 21.9251 22.4946 21.9173 22.4874ZM28.8663 30.5568C28.3799 30.0642 27.6 30.0642 27.1137 30.5568L27.107 30.5636L27.1069 30.5636C26.8862 30.7815 26.7638 31.0597 26.7413 31.3453C26.747 31.3826 26.75 31.4209 26.75 31.4599C26.75 31.4941 26.7477 31.5278 26.7433 31.5608C26.7702 31.8389 26.8921 32.1113 27.1103 32.3295C27.595 32.8142 28.3815 32.8196 28.8813 32.3279C29.3668 31.8407 29.3662 31.0568 28.8797 30.5702C28.878 30.5686 28.8764 30.5669 28.8748 30.5652C28.8719 30.5625 28.8691 30.5597 28.8663 30.5568ZM29.9353 29.5046C29.9348 29.504 29.9342 29.5035 29.9337 29.5029C28.8612 28.4167 27.1236 28.4155 26.0497 29.4995C25.6974 29.8486 25.46 30.267 25.3369 30.7099H15C14.5858 30.7099 14.25 31.0457 14.25 31.4599C14.25 31.8741 14.5858 32.2099 15 32.2099H25.3477C25.4738 32.6412 25.7079 33.0485 26.0497 33.3902C27.1244 34.465 28.8567 34.4601 29.9369 33.3936L29.9403 33.3902C30.2811 33.0494 30.5137 32.6418 30.638 32.2099H33C33.4142 32.2099 33.75 31.8741 33.75 31.4599C33.75 31.0457 33.4142 30.7099 33 30.7099H30.6436C30.5208 30.2705 30.2864 29.8556 29.9403 29.5096C29.9387 29.5079 29.937 29.5062 29.9353 29.5046Z" fill="#00A4BA"/>
<rect x="0.5" y="0.959961" width="47" height="47" rx="23.5" stroke="#00A4BA" stroke-opacity="0.15"/>
</svg>
