<svg width="48" height="48" viewBox="0 0 48 48" fill="none" xmlns="http://www.w3.org/2000/svg">
  <rect width="48" height="48" rx="24" fill="#00A4BA" fill-opacity="0.15"/>
  <path opacity="0.7" d="M26.5 22V28.5714M29 28.5714V22M24.7143 31H30.4666C30.7372 31 30.9566 30.7806 30.9566 30.5099V30.5099C30.9566 30.448 30.9449 30.3866 30.922 30.329L30.4745 29.2023C30.3232 28.8214 29.9549 28.5714 29.5451 28.5714H24.9783C24.426 28.5714 23.9783 28.1237 23.9783 27.5714V22M17.5946 19.8409L23.5933 17.1804C23.8522 17.0655 24.1476 17.0659 24.4063 17.1813L30.3642 19.8402C30.7245 20.001 30.9566 20.3588 30.9566 20.7534V21C30.9566 21.5523 30.5089 22 29.9566 22H18C17.4477 22 17 21.5523 17 21V20.755C17 20.3596 17.2331 20.0012 17.5946 19.8409Z" stroke="#33B6C7" stroke-width="1.5" stroke-linecap="round" stroke-linejoin="round"/>
  <path d="M16 30.9999V30.8554C16 29.9877 16.6291 29.5 17.5 29.5H19.6429C20.5137 29.5 21.1429 29.9877 21.1429 30.8554V30.9999" stroke="#00A4BA" stroke-width="1.5" stroke-linecap="round" stroke-linejoin="round"/>
  <path d="M19.8 26.0498C19.8 26.7402 19.2404 27.2998 18.55 27.2998C17.8597 27.2998 17.3 26.7402 17.3 26.0498C17.3 25.3594 17.8597 24.7998 18.55 24.7998C19.2404 24.7998 19.8 25.3594 19.8 26.0498Z" stroke="#00A4BA" stroke-width="1.5" stroke-linecap="round" stroke-linejoin="round"/>
  <rect x="0.5" y="0.5" width="47" height="47" rx="23.5" stroke="#00A4BA" stroke-opacity="0.15"/>
</svg>
