<svg width="1224" height="811" viewBox="0 0 1224 811" fill="none" xmlns="http://www.w3.org/2000/svg">
<g clip-path="url(#clip0_1583_9256)">
<g filter="url(#filter0_f_1583_9256)">
<ellipse cx="1172.86" cy="118.478" rx="549.585" ry="567.601" transform="rotate(57.1869 1172.86 118.478)" fill="#6663FF"/>
</g>
<g filter="url(#filter1_f_1583_9256)">
<ellipse rx="453.949" ry="484.743" transform="matrix(0.331963 0.943292 -0.952371 0.30494 421.872 96.4547)" fill="#930BFD"/>
</g>
<g filter="url(#filter2_f_1583_9256)">
<ellipse rx="631.024" ry="705.857" transform="matrix(0.331963 0.943292 -0.952371 0.30494 501.714 685.754)" fill="#514EFF"/>
</g>
<g filter="url(#filter3_f_1583_9256)">
<path d="M848.156 1244.54C521.256 1015.89 770.219 -135.409 896.635 -59.7503C973.753 -13.5966 1064.93 376.828 1307.02 544.141C1461.78 651.098 1738.85 573.053 1915.32 562.016C2367.85 533.712 1177.78 1475.1 848.156 1244.54Z" fill="#25B6D6"/>
</g>
<g filter="url(#filter4_ddd_1583_9256)">
<g clip-path="url(#clip1_1583_9256)">
<g filter="url(#filter5_dddddd_1583_9256)">
<rect x="69" y="71" width="1085.41" height="667.261" rx="12" fill="white" fill-opacity="0.2" style="mix-blend-mode:overlay"/>
<rect x="81" y="83" width="1061.41" height="643.261" rx="6" fill="#14182E"/>
<path d="M610.505 413.42V398.926H614.238V400.273H612.13V412.074H614.238V413.42H610.505Z" fill="white"/>
<rect x="194.119" y="139.841" width="225.113" height="74.8502" rx="6" fill="#0D99FF"/>
<path d="M290.93 174.063H288.271C288.169 173.494 287.979 172.994 287.7 172.563C287.422 172.131 287.081 171.764 286.678 171.463C286.274 171.162 285.822 170.935 285.322 170.781C284.828 170.628 284.303 170.551 283.746 170.551C282.74 170.551 281.839 170.804 281.044 171.31C280.254 171.815 279.629 172.557 279.169 173.534C278.714 174.512 278.487 175.705 278.487 177.114C278.487 178.534 278.714 179.733 279.169 180.71C279.629 181.688 280.257 182.426 281.053 182.926C281.848 183.426 282.743 183.676 283.737 183.676C284.288 183.676 284.811 183.602 285.305 183.455C285.805 183.301 286.257 183.077 286.661 182.781C287.064 182.486 287.405 182.125 287.683 181.699C287.967 181.267 288.163 180.773 288.271 180.216L290.93 180.225C290.788 181.083 290.513 181.872 290.104 182.594C289.7 183.31 289.18 183.929 288.544 184.452C287.913 184.969 287.192 185.369 286.379 185.654C285.567 185.938 284.68 186.08 283.72 186.08C282.209 186.08 280.862 185.722 279.68 185.006C278.499 184.284 277.567 183.253 276.885 181.912C276.209 180.571 275.871 178.972 275.871 177.114C275.871 175.25 276.212 173.651 276.893 172.315C277.575 170.975 278.507 169.946 279.689 169.23C280.871 168.509 282.214 168.148 283.72 168.148C284.646 168.148 285.51 168.281 286.311 168.548C287.118 168.81 287.842 169.196 288.484 169.708C289.126 170.213 289.658 170.833 290.078 171.565C290.499 172.293 290.783 173.125 290.93 174.063ZM295.897 168.387V185.841H293.349V168.387H295.897ZM298.798 185.841V172.75H301.346V185.841H298.798ZM300.085 170.73C299.641 170.73 299.261 170.583 298.943 170.287C298.63 169.986 298.474 169.628 298.474 169.213C298.474 168.793 298.63 168.435 298.943 168.139C299.261 167.838 299.641 167.688 300.085 167.688C300.528 167.688 300.906 167.838 301.218 168.139C301.536 168.435 301.695 168.793 301.695 169.213C301.695 169.628 301.536 169.986 301.218 170.287C300.906 170.583 300.528 170.73 300.085 170.73ZM309.888 186.105C308.599 186.105 307.488 185.83 306.556 185.279C305.63 184.722 304.914 183.94 304.408 182.935C303.908 181.923 303.658 180.739 303.658 179.381C303.658 178.04 303.908 176.858 304.408 175.835C304.914 174.813 305.618 174.014 306.522 173.44C307.431 172.867 308.493 172.58 309.709 172.58C310.448 172.58 311.164 172.702 311.857 172.946C312.55 173.19 313.172 173.574 313.724 174.097C314.275 174.619 314.709 175.298 315.028 176.134C315.346 176.963 315.505 177.972 315.505 179.159V180.063H305.099V178.154H313.008C313.008 177.483 312.871 176.889 312.599 176.372C312.326 175.85 311.942 175.438 311.448 175.137C310.959 174.835 310.385 174.685 309.726 174.685C309.01 174.685 308.385 174.861 307.851 175.213C307.323 175.56 306.914 176.014 306.624 176.577C306.34 177.134 306.198 177.739 306.198 178.392V179.884C306.198 180.759 306.351 181.503 306.658 182.117C306.971 182.73 307.405 183.199 307.962 183.523C308.519 183.841 309.17 184 309.914 184C310.397 184 310.837 183.932 311.235 183.796C311.633 183.654 311.976 183.443 312.266 183.165C312.556 182.887 312.778 182.543 312.931 182.134L315.343 182.568C315.15 183.279 314.803 183.901 314.303 184.435C313.809 184.963 313.187 185.375 312.437 185.671C311.692 185.96 310.843 186.105 309.888 186.105ZM320.352 178.068V185.841H317.804V172.75H320.25V174.881H320.412C320.713 174.188 321.185 173.631 321.827 173.21C322.475 172.79 323.29 172.58 324.273 172.58C325.165 172.58 325.946 172.767 326.617 173.142C327.287 173.512 327.807 174.063 328.176 174.796C328.546 175.529 328.73 176.435 328.73 177.514V185.841H326.182V177.821C326.182 176.872 325.935 176.131 325.441 175.597C324.946 175.057 324.267 174.787 323.404 174.787C322.813 174.787 322.287 174.915 321.827 175.171C321.372 175.426 321.012 175.801 320.745 176.296C320.483 176.784 320.352 177.375 320.352 178.068ZM337.731 172.75V174.796H330.58V172.75H337.731ZM332.498 169.614H335.046V181.997C335.046 182.492 335.12 182.864 335.268 183.114C335.415 183.358 335.606 183.526 335.839 183.617C336.077 183.702 336.336 183.744 336.614 183.744C336.819 183.744 336.998 183.73 337.151 183.702C337.305 183.673 337.424 183.651 337.509 183.634L337.969 185.739C337.822 185.796 337.611 185.852 337.339 185.909C337.066 185.972 336.725 186.006 336.316 186.012C335.646 186.023 335.021 185.904 334.441 185.654C333.861 185.404 333.393 185.017 333.035 184.494C332.677 183.972 332.498 183.315 332.498 182.526V169.614Z" fill="white"/>
<rect x="799.674" y="139.841" width="225.113" height="74.8502" rx="6" fill="#FFA629"/>
<path d="M887.196 172.972C887.105 172.165 886.73 171.54 886.071 171.097C885.411 170.648 884.582 170.423 883.582 170.423C882.866 170.423 882.247 170.537 881.724 170.764C881.201 170.986 880.795 171.293 880.505 171.685C880.221 172.071 880.079 172.512 880.079 173.006C880.079 173.421 880.176 173.779 880.369 174.08C880.568 174.381 880.826 174.634 881.144 174.838C881.468 175.037 881.815 175.205 882.184 175.341C882.553 175.472 882.909 175.58 883.249 175.665L884.954 176.108C885.511 176.244 886.082 176.429 886.667 176.662C887.252 176.895 887.795 177.202 888.295 177.583C888.795 177.963 889.198 178.435 889.505 178.997C889.818 179.56 889.974 180.233 889.974 181.017C889.974 182.006 889.718 182.884 889.207 183.651C888.701 184.418 887.965 185.023 886.999 185.466C886.039 185.909 884.877 186.131 883.514 186.131C882.207 186.131 881.076 185.923 880.122 185.509C879.167 185.094 878.42 184.506 877.88 183.744C877.34 182.977 877.042 182.068 876.985 181.017H879.627C879.678 181.648 879.883 182.173 880.241 182.594C880.605 183.009 881.068 183.318 881.63 183.523C882.198 183.722 882.821 183.821 883.497 183.821C884.241 183.821 884.903 183.705 885.482 183.472C886.068 183.233 886.528 182.904 886.863 182.483C887.198 182.057 887.366 181.56 887.366 180.992C887.366 180.475 887.218 180.051 886.923 179.722C886.633 179.392 886.238 179.119 885.738 178.904C885.244 178.688 884.684 178.497 884.059 178.333L881.997 177.77C880.599 177.389 879.491 176.83 878.673 176.091C877.86 175.352 877.454 174.375 877.454 173.159C877.454 172.154 877.727 171.276 878.272 170.526C878.818 169.776 879.556 169.193 880.488 168.779C881.42 168.358 882.471 168.148 883.642 168.148C884.823 168.148 885.866 168.355 886.769 168.77C887.678 169.185 888.394 169.756 888.917 170.483C889.44 171.205 889.713 172.034 889.735 172.972H887.196ZM898.03 186.105C896.741 186.105 895.63 185.83 894.698 185.279C893.772 184.722 893.056 183.94 892.55 182.935C892.05 181.923 891.8 180.739 891.8 179.381C891.8 178.04 892.05 176.858 892.55 175.835C893.056 174.813 893.761 174.014 894.664 173.44C895.573 172.867 896.636 172.58 897.851 172.58C898.59 172.58 899.306 172.702 899.999 172.946C900.692 173.19 901.315 173.574 901.866 174.097C902.417 174.619 902.851 175.298 903.17 176.134C903.488 176.963 903.647 177.972 903.647 179.159V180.063H893.241V178.154H901.15C901.15 177.483 901.013 176.889 900.741 176.372C900.468 175.85 900.084 175.438 899.59 175.137C899.101 174.835 898.528 174.685 897.868 174.685C897.153 174.685 896.528 174.861 895.993 175.213C895.465 175.56 895.056 176.014 894.766 176.577C894.482 177.134 894.34 177.739 894.34 178.392V179.884C894.34 180.759 894.493 181.503 894.8 182.117C895.113 182.73 895.547 183.199 896.104 183.523C896.661 183.841 897.312 184 898.056 184C898.539 184 898.979 183.932 899.377 183.796C899.775 183.654 900.118 183.443 900.408 183.165C900.698 182.887 900.92 182.543 901.073 182.134L903.485 182.568C903.292 183.279 902.945 183.901 902.445 184.435C901.951 184.963 901.329 185.375 900.579 185.671C899.834 185.96 898.985 186.105 898.03 186.105ZM905.946 185.841V172.75H908.409V174.83H908.546C908.784 174.125 909.205 173.571 909.807 173.168C910.415 172.759 911.103 172.554 911.87 172.554C912.029 172.554 912.216 172.56 912.432 172.571C912.654 172.583 912.827 172.597 912.952 172.614V175.051C912.85 175.023 912.668 174.992 912.407 174.958C912.145 174.918 911.884 174.898 911.622 174.898C911.02 174.898 910.483 175.026 910.012 175.281C909.546 175.531 909.176 175.881 908.904 176.33C908.631 176.773 908.495 177.279 908.495 177.847V185.841H905.946ZM926.227 172.75L921.479 185.841H918.752L913.996 172.75H916.732L920.048 182.824H920.184L923.491 172.75H926.227ZM933.29 186.105C932 186.105 930.89 185.83 929.958 185.279C929.032 184.722 928.316 183.94 927.81 182.935C927.31 181.923 927.06 180.739 927.06 179.381C927.06 178.04 927.31 176.858 927.81 175.835C928.316 174.813 929.02 174.014 929.924 173.44C930.833 172.867 931.895 172.58 933.111 172.58C933.85 172.58 934.566 172.702 935.259 172.946C935.952 173.19 936.574 173.574 937.125 174.097C937.677 174.619 938.111 175.298 938.429 176.134C938.748 176.963 938.907 177.972 938.907 179.159V180.063H928.5V178.154H936.409C936.409 177.483 936.273 176.889 936 176.372C935.728 175.85 935.344 175.438 934.85 175.137C934.361 174.835 933.787 174.685 933.128 174.685C932.412 174.685 931.787 174.861 931.253 175.213C930.725 175.56 930.316 176.014 930.026 176.577C929.742 177.134 929.6 177.739 929.6 178.392V179.884C929.6 180.759 929.753 181.503 930.06 182.117C930.373 182.73 930.807 183.199 931.364 183.523C931.921 183.841 932.571 184 933.316 184C933.799 184 934.239 183.932 934.637 183.796C935.034 183.654 935.378 183.443 935.668 183.165C935.958 182.887 936.179 182.543 936.333 182.134L938.745 182.568C938.552 183.279 938.205 183.901 937.705 184.435C937.211 184.963 936.588 185.375 935.838 185.671C935.094 185.96 934.245 186.105 933.29 186.105ZM941.206 185.841V172.75H943.669V174.83H943.806C944.044 174.125 944.465 173.571 945.067 173.168C945.675 172.759 946.362 172.554 947.129 172.554C947.288 172.554 947.476 172.56 947.692 172.571C947.913 172.583 948.087 172.597 948.212 172.614V175.051C948.109 175.023 947.928 174.992 947.666 174.958C947.405 174.918 947.144 174.898 946.882 174.898C946.28 174.898 945.743 175.026 945.271 175.281C944.806 175.531 944.436 175.881 944.163 176.33C943.891 176.773 943.754 177.279 943.754 177.847V185.841H941.206Z" fill="#363636"/>
<rect x="508.152" y="139.841" width="225.113" height="74.8502" rx="6" fill="#9747FF"/>
<path d="M591.257 185.841V168.387H597.479C598.837 168.387 599.962 168.634 600.854 169.128C601.746 169.622 602.413 170.298 602.856 171.156C603.3 172.009 603.521 172.969 603.521 174.037C603.521 175.111 603.297 176.077 602.848 176.935C602.405 177.787 601.734 178.463 600.837 178.963C599.944 179.458 598.822 179.705 597.47 179.705H593.192V177.472H597.231C598.089 177.472 598.785 177.324 599.319 177.029C599.854 176.727 600.246 176.318 600.496 175.801C600.746 175.284 600.871 174.696 600.871 174.037C600.871 173.378 600.746 172.793 600.496 172.281C600.246 171.77 599.851 171.369 599.311 171.08C598.777 170.79 598.072 170.645 597.197 170.645H593.891V185.841H591.257ZM605.876 185.841V172.75H608.339V174.83H608.475C608.714 174.125 609.135 173.571 609.737 173.168C610.345 172.759 611.032 172.554 611.799 172.554C611.958 172.554 612.146 172.56 612.362 172.571C612.583 172.583 612.757 172.597 612.882 172.614V175.051C612.779 175.023 612.598 174.992 612.336 174.958C612.075 174.918 611.814 174.898 611.552 174.898C610.95 174.898 610.413 175.026 609.941 175.281C609.475 175.531 609.106 175.881 608.833 176.33C608.561 176.773 608.424 177.279 608.424 177.847V185.841H605.876ZM619.604 186.105C618.377 186.105 617.306 185.824 616.391 185.262C615.477 184.699 614.766 183.912 614.261 182.901C613.755 181.889 613.502 180.708 613.502 179.355C613.502 177.997 613.755 176.81 614.261 175.793C614.766 174.776 615.477 173.986 616.391 173.423C617.306 172.861 618.377 172.58 619.604 172.58C620.832 172.58 621.903 172.861 622.817 173.423C623.732 173.986 624.442 174.776 624.948 175.793C625.454 176.81 625.707 177.997 625.707 179.355C625.707 180.708 625.454 181.889 624.948 182.901C624.442 183.912 623.732 184.699 622.817 185.262C621.903 185.824 620.832 186.105 619.604 186.105ZM619.613 183.966C620.408 183.966 621.067 183.756 621.59 183.335C622.113 182.915 622.499 182.355 622.749 181.656C623.005 180.958 623.133 180.188 623.133 179.347C623.133 178.512 623.005 177.744 622.749 177.046C622.499 176.341 622.113 175.776 621.59 175.35C621.067 174.923 620.408 174.71 619.613 174.71C618.812 174.71 618.147 174.923 617.619 175.35C617.096 175.776 616.707 176.341 616.451 177.046C616.201 177.744 616.076 178.512 616.076 179.347C616.076 180.188 616.201 180.958 616.451 181.656C616.707 182.355 617.096 182.915 617.619 183.335C618.147 183.756 618.812 183.966 619.613 183.966ZM629.519 172.75L632.408 177.847L635.323 172.75H638.11L634.027 179.296L638.144 185.841H635.357L632.408 180.949L629.468 185.841H626.672L630.746 179.296L626.723 172.75H629.519ZM641.809 190.75C641.428 190.75 641.082 190.719 640.769 190.656C640.457 190.6 640.224 190.537 640.07 190.469L640.684 188.381C641.15 188.506 641.565 188.56 641.928 188.543C642.292 188.526 642.613 188.389 642.891 188.134C643.176 187.878 643.426 187.46 643.641 186.881L643.957 186.012L639.167 172.75H641.894L645.21 182.909H645.346L648.661 172.75H651.397L646.002 187.588C645.752 188.27 645.434 188.847 645.048 189.318C644.661 189.796 644.201 190.154 643.667 190.392C643.133 190.631 642.514 190.75 641.809 190.75Z" fill="white"/>
<rect x="701.75" y="501.148" width="144.073" height="52.9016" rx="3" fill="white"/>
<path d="M741.205 513.289V511.966H749.085V513.289H745.908V522.148H744.377V513.289H741.205ZM749.648 522.148V514.512H751.085V515.725H751.164C751.303 515.314 751.549 514.991 751.9 514.755C752.255 514.517 752.656 514.397 753.103 514.397C753.196 514.397 753.305 514.401 753.431 514.407C753.561 514.414 753.662 514.422 753.735 514.432V515.854C753.675 515.837 753.569 515.819 753.416 515.799C753.264 515.776 753.111 515.764 752.959 515.764C752.608 515.764 752.294 515.839 752.019 515.988C751.748 516.134 751.532 516.338 751.373 516.6C751.214 516.858 751.134 517.153 751.134 517.485V522.148H749.648ZM756.909 522.317C756.425 522.317 755.988 522.227 755.596 522.049C755.205 521.866 754.895 521.603 754.667 521.258C754.441 520.913 754.329 520.491 754.329 519.99C754.329 519.559 754.412 519.205 754.577 518.926C754.743 518.648 754.967 518.428 755.248 518.265C755.53 518.103 755.845 517.98 756.193 517.897C756.541 517.814 756.896 517.751 757.257 517.708C757.714 517.655 758.086 517.612 758.371 517.579C758.656 517.543 758.863 517.485 758.992 517.405C759.121 517.326 759.186 517.196 759.186 517.017V516.982C759.186 516.548 759.063 516.212 758.818 515.973C758.576 515.735 758.215 515.615 757.734 515.615C757.234 515.615 756.839 515.726 756.551 515.948C756.266 516.167 756.069 516.411 755.959 516.679L754.562 516.361C754.728 515.897 754.97 515.522 755.288 515.237C755.61 514.949 755.979 514.74 756.397 514.611C756.814 514.478 757.254 514.412 757.714 514.412C758.019 514.412 758.342 514.449 758.684 514.522C759.028 514.591 759.35 514.72 759.648 514.909C759.95 515.098 760.197 515.368 760.389 515.72C760.581 516.068 760.677 516.52 760.677 517.077V522.148H759.226V521.104H759.166C759.07 521.296 758.926 521.485 758.734 521.671C758.541 521.856 758.294 522.01 757.993 522.133C757.691 522.256 757.33 522.317 756.909 522.317ZM757.232 521.124C757.643 521.124 757.994 521.043 758.286 520.88C758.581 520.718 758.805 520.506 758.957 520.244C759.113 519.979 759.191 519.695 759.191 519.394V518.409C759.138 518.462 759.035 518.512 758.883 518.558C758.734 518.602 758.563 518.64 758.371 518.673C758.178 518.703 757.991 518.731 757.809 518.757C757.626 518.781 757.474 518.8 757.351 518.817C757.063 518.853 756.8 518.915 756.561 519.001C756.326 519.087 756.137 519.211 755.994 519.374C755.855 519.533 755.785 519.745 755.785 520.01C755.785 520.378 755.921 520.656 756.193 520.845C756.465 521.031 756.811 521.124 757.232 521.124ZM763.878 517.614V522.148H762.391V514.512H763.818V515.754H763.913C764.088 515.35 764.363 515.025 764.738 514.78C765.116 514.535 765.591 514.412 766.165 514.412C766.685 514.412 767.141 514.522 767.532 514.74C767.923 514.956 768.226 515.277 768.442 515.705C768.657 516.132 768.765 516.661 768.765 517.291V522.148H767.278V517.47C767.278 516.916 767.134 516.484 766.846 516.172C766.558 515.857 766.161 515.7 765.658 515.7C765.313 515.7 765.006 515.774 764.738 515.924C764.473 516.073 764.262 516.291 764.107 516.58C763.954 516.865 763.878 517.21 763.878 517.614ZM776.215 516.376L774.868 516.615C774.811 516.442 774.722 516.278 774.599 516.122C774.48 515.967 774.317 515.839 774.112 515.74C773.906 515.64 773.649 515.59 773.341 515.59C772.92 515.59 772.569 515.685 772.287 515.874C772.006 516.059 771.865 516.3 771.865 516.595C771.865 516.85 771.959 517.055 772.148 517.211C772.337 517.367 772.642 517.495 773.063 517.594L774.276 517.872C774.979 518.035 775.502 518.285 775.847 518.623C776.192 518.961 776.364 519.4 776.364 519.941C776.364 520.398 776.231 520.806 775.966 521.164C775.704 521.518 775.338 521.797 774.868 521.999C774.4 522.201 773.858 522.302 773.242 522.302C772.387 522.302 771.689 522.12 771.149 521.755C770.609 521.387 770.277 520.865 770.154 520.189L771.591 519.97C771.681 520.345 771.865 520.628 772.143 520.821C772.421 521.009 772.784 521.104 773.232 521.104C773.719 521.104 774.109 521.003 774.4 520.801C774.692 520.595 774.838 520.345 774.838 520.05C774.838 519.811 774.748 519.611 774.569 519.448C774.394 519.286 774.123 519.163 773.759 519.08L772.466 518.797C771.754 518.635 771.227 518.376 770.885 518.022C770.547 517.667 770.378 517.218 770.378 516.674C770.378 516.223 770.504 515.829 770.756 515.491C771.008 515.153 771.356 514.889 771.8 514.701C772.244 514.508 772.753 514.412 773.326 514.412C774.152 514.412 774.801 514.591 775.275 514.949C775.749 515.304 776.062 515.779 776.215 516.376ZM781.367 514.512V515.705H777.051V514.512H781.367ZM778.235 522.148V513.627C778.235 513.149 778.339 512.753 778.548 512.438C778.757 512.12 779.033 511.883 779.378 511.727C779.723 511.568 780.097 511.489 780.502 511.489C780.8 511.489 781.055 511.514 781.267 511.563C781.479 511.61 781.637 511.653 781.739 511.693L781.391 512.896C781.322 512.876 781.232 512.853 781.123 512.826C781.014 512.796 780.881 512.781 780.725 512.781C780.364 512.781 780.105 512.871 779.95 513.05C779.797 513.229 779.721 513.487 779.721 513.826V522.148H778.235ZM785.55 522.302C784.834 522.302 784.21 522.138 783.676 521.81C783.142 521.482 782.728 521.023 782.433 520.433C782.138 519.843 781.991 519.153 781.991 518.365C781.991 517.572 782.138 516.88 782.433 516.286C782.728 515.693 783.142 515.232 783.676 514.904C784.21 514.576 784.834 514.412 785.55 514.412C786.266 514.412 786.891 514.576 787.424 514.904C787.958 515.232 788.372 515.693 788.667 516.286C788.962 516.88 789.11 517.572 789.11 518.365C789.11 519.153 788.962 519.843 788.667 520.433C788.372 521.023 787.958 521.482 787.424 521.81C786.891 522.138 786.266 522.302 785.55 522.302ZM785.555 521.054C786.019 521.054 786.404 520.932 786.709 520.686C787.013 520.441 787.239 520.115 787.385 519.707C787.534 519.299 787.608 518.85 787.608 518.36C787.608 517.872 787.534 517.425 787.385 517.017C787.239 516.606 787.013 516.277 786.709 516.028C786.404 515.779 786.019 515.655 785.555 515.655C785.088 515.655 784.7 515.779 784.392 516.028C784.087 516.277 783.86 516.606 783.711 517.017C783.565 517.425 783.492 517.872 783.492 518.36C783.492 518.85 783.565 519.299 783.711 519.707C783.86 520.115 784.087 520.441 784.392 520.686C784.7 520.932 785.088 521.054 785.555 521.054ZM790.503 522.148V514.512H791.94V515.725H792.019C792.159 515.314 792.404 514.991 792.755 514.755C793.11 514.517 793.511 514.397 793.958 514.397C794.051 514.397 794.161 514.401 794.287 514.407C794.416 514.414 794.517 514.422 794.59 514.432V515.854C794.53 515.837 794.424 515.819 794.272 515.799C794.119 515.776 793.967 515.764 793.814 515.764C793.463 515.764 793.15 515.839 792.875 515.988C792.603 516.134 792.387 516.338 792.228 516.6C792.069 516.858 791.99 517.153 791.99 517.485V522.148H790.503ZM795.61 522.148V514.512H797.037V515.754H797.131C797.291 515.334 797.551 515.005 797.912 514.77C798.273 514.531 798.706 514.412 799.21 514.412C799.72 514.412 800.148 514.531 800.492 514.77C800.84 515.009 801.097 515.337 801.263 515.754H801.342C801.525 515.347 801.815 515.022 802.212 514.78C802.61 514.535 803.084 514.412 803.634 514.412C804.327 514.412 804.892 514.629 805.33 515.063C805.77 515.498 805.991 516.152 805.991 517.027V522.148H804.504V517.166C804.504 516.649 804.363 516.275 804.082 516.043C803.8 515.811 803.464 515.695 803.073 515.695C802.589 515.695 802.212 515.844 801.944 516.142C801.676 516.437 801.541 516.817 801.541 517.281V522.148H800.06V517.072C800.06 516.658 799.93 516.325 799.672 516.073C799.413 515.821 799.077 515.695 798.663 515.695C798.381 515.695 798.121 515.769 797.882 515.919C797.647 516.064 797.456 516.268 797.31 516.53C797.168 516.792 797.097 517.095 797.097 517.44V522.148H795.61ZM733.813 538.057C733.813 536.811 733.977 535.664 734.305 534.617C734.633 533.569 735.112 532.603 735.742 531.718H737.104C736.859 532.046 736.63 532.449 736.418 532.926C736.206 533.404 736.02 533.927 735.861 534.497C735.702 535.064 735.578 535.652 735.488 536.262C735.399 536.869 735.354 537.467 735.354 538.057C735.354 538.846 735.432 539.645 735.588 540.453C735.743 541.262 735.954 542.013 736.219 542.705C736.484 543.398 736.779 543.963 737.104 544.401H735.742C735.112 543.516 734.633 542.55 734.305 541.502C733.977 540.455 733.813 539.307 733.813 538.057ZM741.821 543.148H738.525V532.966H741.925C742.923 532.966 743.78 533.17 744.496 533.578C745.211 533.982 745.76 534.564 746.141 535.323C746.526 536.078 746.718 536.985 746.718 538.042C746.718 539.103 746.524 540.014 746.136 540.777C745.752 541.539 745.195 542.125 744.466 542.536C743.737 542.944 742.855 543.148 741.821 543.148ZM740.061 541.806H741.736C742.512 541.806 743.157 541.66 743.67 541.368C744.184 541.073 744.568 540.647 744.824 540.09C745.079 539.53 745.206 538.848 745.206 538.042C745.206 537.243 745.079 536.566 744.824 536.009C744.572 535.452 744.196 535.029 743.695 534.741C743.195 534.453 742.573 534.308 741.831 534.308H740.061V541.806ZM751.534 543.302C750.782 543.302 750.134 543.141 749.59 542.82C749.05 542.495 748.632 542.039 748.337 541.453C748.046 540.863 747.9 540.172 747.9 539.379C747.9 538.597 748.046 537.908 748.337 537.311C748.632 536.715 749.043 536.249 749.57 535.914C750.101 535.58 750.72 535.412 751.43 535.412C751.861 535.412 752.278 535.483 752.682 535.626C753.087 535.768 753.45 535.992 753.771 536.297C754.093 536.602 754.346 536.998 754.532 537.485C754.718 537.969 754.81 538.558 754.81 539.25V539.777H748.74V538.664H753.354C753.354 538.272 753.274 537.926 753.115 537.625C752.956 537.32 752.732 537.079 752.444 536.904C752.159 536.728 751.824 536.64 751.44 536.64C751.022 536.64 750.657 536.743 750.346 536.948C750.038 537.151 749.799 537.416 749.63 537.744C749.464 538.069 749.381 538.422 749.381 538.803V539.673C749.381 540.183 749.471 540.617 749.65 540.975C749.832 541.333 750.086 541.607 750.41 541.796C750.735 541.981 751.115 542.074 751.549 542.074C751.831 542.074 752.088 542.034 752.32 541.955C752.552 541.872 752.752 541.749 752.921 541.587C753.09 541.424 753.219 541.224 753.309 540.985L754.716 541.239C754.603 541.653 754.401 542.016 754.109 542.328C753.821 542.636 753.458 542.876 753.021 543.049C752.586 543.218 752.091 543.302 751.534 543.302ZM759.758 535.512V536.705H755.587V535.512H759.758ZM756.706 533.682H758.192V540.906C758.192 541.194 758.235 541.411 758.321 541.557C758.408 541.7 758.519 541.797 758.655 541.85C758.794 541.9 758.945 541.925 759.107 541.925C759.226 541.925 759.331 541.917 759.42 541.9C759.51 541.884 759.579 541.87 759.629 541.86L759.897 543.088C759.811 543.121 759.689 543.155 759.53 543.188C759.371 543.224 759.172 543.244 758.933 543.247C758.542 543.254 758.177 543.184 757.839 543.039C757.501 542.893 757.228 542.667 757.019 542.362C756.81 542.058 756.706 541.675 756.706 541.214V533.682ZM764.271 543.302C763.555 543.302 762.931 543.138 762.397 542.81C761.863 542.482 761.449 542.023 761.154 541.433C760.859 540.843 760.712 540.153 760.712 539.365C760.712 538.572 760.859 537.88 761.154 537.286C761.449 536.693 761.863 536.232 762.397 535.904C762.931 535.576 763.555 535.412 764.271 535.412C764.987 535.412 765.612 535.576 766.146 535.904C766.679 536.232 767.093 536.693 767.388 537.286C767.683 537.88 767.831 538.572 767.831 539.365C767.831 540.153 767.683 540.843 767.388 541.433C767.093 542.023 766.679 542.482 766.146 542.81C765.612 543.138 764.987 543.302 764.271 543.302ZM764.276 542.054C764.74 542.054 765.125 541.932 765.43 541.686C765.735 541.441 765.96 541.115 766.106 540.707C766.255 540.299 766.329 539.85 766.329 539.36C766.329 538.872 766.255 538.425 766.106 538.017C765.96 537.606 765.735 537.277 765.43 537.028C765.125 536.779 764.74 536.655 764.276 536.655C763.809 536.655 763.421 536.779 763.113 537.028C762.808 537.277 762.581 537.606 762.432 538.017C762.286 538.425 762.213 538.872 762.213 539.36C762.213 539.85 762.286 540.299 762.432 540.707C762.581 541.115 762.808 541.441 763.113 541.686C763.421 541.932 763.809 542.054 764.276 542.054ZM770.591 540.558L770.581 538.743H770.84L773.883 535.512H775.662L772.192 539.191H771.959L770.591 540.558ZM769.224 543.148V532.966H770.711V543.148H769.224ZM774.047 543.148L771.312 539.519L772.336 538.48L775.871 543.148H774.047ZM779.728 543.302C778.975 543.302 778.328 543.141 777.784 542.82C777.244 542.495 776.826 542.039 776.531 541.453C776.239 540.863 776.094 540.172 776.094 539.379C776.094 538.597 776.239 537.908 776.531 537.311C776.826 536.715 777.237 536.249 777.764 535.914C778.294 535.58 778.914 535.412 779.623 535.412C780.054 535.412 780.472 535.483 780.876 535.626C781.281 535.768 781.644 535.992 781.965 536.297C782.287 536.602 782.54 536.998 782.726 537.485C782.911 537.969 783.004 538.558 783.004 539.25V539.777H776.934V538.664H781.547C781.547 538.272 781.468 537.926 781.309 537.625C781.15 537.32 780.926 537.079 780.638 536.904C780.353 536.728 780.018 536.64 779.633 536.64C779.216 536.64 778.851 536.743 778.54 536.948C778.231 537.151 777.993 537.416 777.824 537.744C777.658 538.069 777.575 538.422 777.575 538.803V539.673C777.575 540.183 777.665 540.617 777.844 540.975C778.026 541.333 778.279 541.607 778.604 541.796C778.929 541.981 779.309 542.074 779.743 542.074C780.025 542.074 780.281 542.034 780.513 541.955C780.745 541.872 780.946 541.749 781.115 541.587C781.284 541.424 781.413 541.224 781.503 540.985L782.91 541.239C782.797 541.653 782.595 542.016 782.303 542.328C782.015 542.636 781.652 542.876 781.214 543.049C780.78 543.218 780.285 543.302 779.728 543.302ZM785.874 538.614V543.148H784.387V535.512H785.814V536.754H785.909C786.084 536.35 786.36 536.025 786.734 535.78C787.112 535.535 787.588 535.412 788.161 535.412C788.681 535.412 789.137 535.522 789.528 535.74C789.919 535.956 790.222 536.277 790.438 536.705C790.653 537.132 790.761 537.661 790.761 538.291V543.148H789.275V538.47C789.275 537.916 789.13 537.484 788.842 537.172C788.554 536.857 788.158 536.7 787.654 536.7C787.309 536.7 787.003 536.774 786.734 536.924C786.469 537.073 786.258 537.291 786.103 537.58C785.95 537.865 785.874 538.21 785.874 538.614ZM792.489 543.148V535.512H793.975V543.148H792.489ZM793.239 534.333C792.981 534.333 792.759 534.247 792.573 534.075C792.391 533.899 792.3 533.69 792.3 533.448C792.3 533.203 792.391 532.994 792.573 532.822C792.759 532.646 792.981 532.558 793.239 532.558C793.498 532.558 793.718 532.646 793.901 532.822C794.086 532.994 794.179 533.203 794.179 533.448C794.179 533.69 794.086 533.899 793.901 534.075C793.718 534.247 793.498 534.333 793.239 534.333ZM795.55 543.148V542.129L799.686 536.874V536.804H795.684V535.512H801.541V536.595L797.563 541.786V541.855H801.68V543.148H795.55ZM806.24 543.302C805.488 543.302 804.84 543.141 804.296 542.82C803.756 542.495 803.338 542.039 803.043 541.453C802.752 540.863 802.606 540.172 802.606 539.379C802.606 538.597 802.752 537.908 803.043 537.311C803.338 536.715 803.749 536.249 804.276 535.914C804.807 535.58 805.426 535.412 806.136 535.412C806.567 535.412 806.984 535.483 807.388 535.626C807.793 535.768 808.156 535.992 808.477 536.297C808.799 536.602 809.052 536.998 809.238 537.485C809.424 537.969 809.516 538.558 809.516 539.25V539.777H803.446V538.664H808.06C808.06 538.272 807.98 537.926 807.821 537.625C807.662 537.32 807.438 537.079 807.15 536.904C806.865 536.728 806.53 536.64 806.146 536.64C805.728 536.64 805.363 536.743 805.052 536.948C804.744 537.151 804.505 537.416 804.336 537.744C804.17 538.069 804.087 538.422 804.087 538.803V539.673C804.087 540.183 804.177 540.617 804.356 540.975C804.538 541.333 804.792 541.607 805.116 541.796C805.441 541.981 805.821 542.074 806.255 542.074C806.537 542.074 806.794 542.034 807.026 541.955C807.258 541.872 807.458 541.749 807.627 541.587C807.796 541.424 807.925 541.224 808.015 540.985L809.422 541.239C809.309 541.653 809.107 542.016 808.815 542.328C808.527 542.636 808.164 542.876 807.727 543.049C807.292 543.218 806.797 543.302 806.24 543.302ZM813.758 538.922C813.758 540.172 813.594 541.32 813.266 542.367C812.938 543.415 812.459 544.381 811.829 545.266H810.467C810.712 544.938 810.941 544.535 811.153 544.058C811.365 543.58 811.551 543.058 811.71 542.492C811.869 541.922 811.993 541.332 812.083 540.722C812.172 540.112 812.217 539.512 812.217 538.922C812.217 538.137 812.139 537.339 811.983 536.531C811.828 535.722 811.617 534.971 811.352 534.279C811.087 533.586 810.792 533.021 810.467 532.583H811.829C812.459 533.468 812.938 534.434 813.266 535.482C813.594 536.529 813.758 537.676 813.758 538.922Z" fill="#363636"/>
<line x1="307.676" y1="214.691" x2="307.676" y2="680.676" stroke="white" stroke-opacity="0.3" stroke-width="2" stroke-dasharray="4 4"/>
<line x1="621.709" y1="214.691" x2="621.709" y2="680.676" stroke="white" stroke-opacity="0.3" stroke-width="2" stroke-dasharray="4 4"/>
<line x1="913.231" y1="214.691" x2="913.231" y2="680.676" stroke="white" stroke-opacity="0.3" stroke-width="2" stroke-dasharray="4 4"/>
<path d="M590.116 279.88C590.507 279.49 590.507 278.857 590.116 278.466L583.752 272.102C583.362 271.712 582.729 271.712 582.338 272.102C581.948 272.493 581.948 273.126 582.338 273.516L587.995 279.173L582.338 284.83C581.948 285.22 581.948 285.854 582.338 286.244C582.729 286.635 583.362 286.635 583.752 286.244L590.116 279.88ZM335.409 280.173L589.409 280.173L589.409 278.173L335.409 278.173L335.409 280.173Z" fill="white"/>
<path d="M886.487 307.258C886.878 306.867 886.878 306.234 886.487 305.843L880.123 299.479C879.733 299.089 879.1 299.089 878.709 299.479C878.319 299.87 878.319 300.503 878.709 300.894L884.366 306.551L878.709 312.207C878.319 312.598 878.319 313.231 878.709 313.622C879.1 314.012 879.733 314.012 880.123 313.622L886.487 307.258ZM649.411 307.551L885.78 307.551L885.78 305.551L649.411 305.551L649.411 307.551Z" fill="white"/>
<path d="M648.704 421.777C648.314 422.168 648.314 422.801 648.704 423.191L655.068 429.555C655.459 429.946 656.092 429.946 656.482 429.555C656.873 429.165 656.873 428.532 656.482 428.141L650.825 422.484L656.482 416.827C656.873 416.437 656.873 415.804 656.482 415.413C656.092 415.023 655.459 415.023 655.068 415.413L648.704 421.777ZM649.411 423.484L884.78 423.484L884.78 421.484L649.411 421.484L649.411 423.484Z" fill="white"/>
<path d="M649.411 484.013H765.786C770.205 484.013 773.786 487.595 773.786 492.013V499.5" stroke="white" stroke-width="2"/>
<path d="M648.704 572.194C648.314 571.803 648.314 571.17 648.704 570.78L655.068 564.416C655.459 564.025 656.092 564.025 656.482 564.416C656.873 564.806 656.873 565.439 656.482 565.83L650.825 571.487L656.482 577.144C656.873 577.534 656.873 578.167 656.482 578.558C656.092 578.948 655.459 578.948 655.068 578.558L648.704 572.194ZM649.411 570.487H765.786V572.487H649.411V570.487ZM772.786 563.487V556H774.786V563.487H772.786ZM765.786 570.487C769.652 570.487 772.786 567.353 772.786 563.487H774.786C774.786 568.457 770.757 572.487 765.786 572.487V570.487Z" fill="white"/>
<path d="M334.108 593.426C333.718 593.816 333.718 594.449 334.108 594.84L340.472 601.204C340.863 601.594 341.496 601.594 341.886 601.204C342.277 600.813 342.277 600.18 341.886 599.79L336.229 594.133L341.886 588.476C342.277 588.085 342.277 587.452 341.886 587.062C341.496 586.671 340.863 586.671 340.472 587.062L334.108 593.426ZM334.815 595.133L589.193 595.133L589.193 593.133L334.815 593.133L334.815 595.133Z" fill="white"/>
<rect x="395.033" y="568.119" width="144.073" height="52.9016" rx="3" fill="white"/>
<path d="M442.611 589.437H444.152V596.134C444.152 596.847 443.985 597.478 443.65 598.028C443.315 598.575 442.845 599.006 442.238 599.321C441.632 599.632 440.921 599.788 440.105 599.788C439.293 599.788 438.584 599.632 437.978 599.321C437.371 599.006 436.9 598.575 436.566 598.028C436.231 597.478 436.063 596.847 436.063 596.134V589.437H437.6V596.01C437.6 596.47 437.701 596.88 437.903 597.238C438.108 597.596 438.398 597.877 438.773 598.083C439.148 598.285 439.592 598.386 440.105 598.386C440.622 598.386 441.068 598.285 441.443 598.083C441.821 597.877 442.109 597.596 442.308 597.238C442.51 596.88 442.611 596.47 442.611 596.01V589.437ZM451.723 593.847L450.375 594.086C450.319 593.913 450.23 593.749 450.107 593.594C449.988 593.438 449.825 593.31 449.62 593.211C449.414 593.111 449.157 593.062 448.849 593.062C448.428 593.062 448.077 593.156 447.795 593.345C447.513 593.531 447.373 593.771 447.373 594.066C447.373 594.321 447.467 594.527 447.656 594.682C447.845 594.838 448.15 594.966 448.571 595.065L449.784 595.344C450.486 595.506 451.01 595.756 451.355 596.094C451.7 596.432 451.872 596.872 451.872 597.412C451.872 597.869 451.739 598.277 451.474 598.635C451.212 598.989 450.846 599.268 450.375 599.47C449.908 599.672 449.366 599.773 448.75 599.773C447.895 599.773 447.197 599.591 446.657 599.226C446.116 598.858 445.785 598.336 445.662 597.66L447.099 597.442C447.189 597.816 447.373 598.099 447.651 598.292C447.929 598.481 448.292 598.575 448.74 598.575C449.227 598.575 449.616 598.474 449.908 598.272C450.2 598.066 450.346 597.816 450.346 597.521C450.346 597.282 450.256 597.082 450.077 596.92C449.901 596.757 449.631 596.635 449.267 596.552L447.974 596.268C447.262 596.106 446.735 595.847 446.393 595.493C446.055 595.138 445.886 594.689 445.886 594.145C445.886 593.695 446.012 593.3 446.264 592.962C446.516 592.624 446.864 592.361 447.308 592.172C447.752 591.979 448.261 591.883 448.834 591.883C449.66 591.883 450.309 592.062 450.783 592.42C451.257 592.775 451.57 593.251 451.723 593.847ZM456.531 599.773C455.779 599.773 455.131 599.613 454.588 599.291C454.047 598.966 453.63 598.51 453.335 597.924C453.043 597.334 452.897 596.643 452.897 595.851C452.897 595.068 453.043 594.379 453.335 593.782C453.63 593.186 454.041 592.72 454.568 592.385C455.098 592.051 455.718 591.883 456.427 591.883C456.858 591.883 457.276 591.955 457.68 592.097C458.084 592.24 458.447 592.463 458.769 592.768C459.09 593.073 459.344 593.469 459.529 593.956C459.715 594.44 459.808 595.029 459.808 595.721V596.248H453.737V595.135H458.351C458.351 594.744 458.272 594.397 458.112 594.096C457.953 593.791 457.73 593.55 457.441 593.375C457.156 593.199 456.821 593.111 456.437 593.111C456.019 593.111 455.655 593.214 455.343 593.42C455.035 593.622 454.796 593.887 454.627 594.215C454.462 594.54 454.379 594.893 454.379 595.274V596.144C454.379 596.654 454.468 597.089 454.647 597.447C454.83 597.805 455.083 598.078 455.408 598.267C455.733 598.452 456.112 598.545 456.546 598.545C456.828 598.545 457.085 598.506 457.317 598.426C457.549 598.343 457.75 598.22 457.919 598.058C458.088 597.896 458.217 597.695 458.306 597.456L459.713 597.71C459.601 598.124 459.398 598.487 459.107 598.799C458.818 599.107 458.455 599.347 458.018 599.52C457.584 599.689 457.088 599.773 456.531 599.773ZM461.191 599.619V591.983H462.628V593.196H462.707C462.847 592.785 463.092 592.462 463.443 592.226C463.798 591.988 464.199 591.868 464.646 591.868C464.739 591.868 464.849 591.872 464.974 591.878C465.104 591.885 465.205 591.893 465.278 591.903V593.325C465.218 593.309 465.112 593.29 464.96 593.27C464.807 593.247 464.655 593.236 464.502 593.236C464.151 593.236 463.838 593.31 463.563 593.459C463.291 593.605 463.075 593.809 462.916 594.071C462.757 594.329 462.678 594.624 462.678 594.956V599.619H461.191ZM473.153 599.619H469.857V589.437H473.257C474.255 589.437 475.111 589.641 475.827 590.049C476.543 590.453 477.092 591.035 477.473 591.794C477.857 592.55 478.05 593.456 478.05 594.513C478.05 595.574 477.856 596.485 477.468 597.248C477.084 598.01 476.527 598.597 475.798 599.008C475.068 599.415 474.187 599.619 473.153 599.619ZM471.393 598.277H473.068C473.844 598.277 474.488 598.131 475.002 597.839C475.516 597.544 475.9 597.118 476.156 596.562C476.411 596.001 476.538 595.319 476.538 594.513C476.538 593.715 476.411 593.037 476.156 592.48C475.904 591.923 475.527 591.501 475.027 591.212C474.527 590.924 473.905 590.78 473.163 590.78H471.393V598.277ZM481.797 599.788C481.313 599.788 480.876 599.699 480.485 599.52C480.093 599.337 479.784 599.074 479.555 598.729C479.329 598.385 479.217 597.962 479.217 597.461C479.217 597.031 479.3 596.676 479.465 596.398C479.631 596.119 479.855 595.899 480.137 595.736C480.418 595.574 480.733 595.451 481.081 595.368C481.429 595.286 481.784 595.223 482.145 595.18C482.602 595.126 482.974 595.083 483.259 595.05C483.544 595.014 483.751 594.956 483.88 594.876C484.009 594.797 484.074 594.667 484.074 594.488V594.454C484.074 594.019 483.951 593.683 483.706 593.444C483.464 593.206 483.103 593.086 482.622 593.086C482.122 593.086 481.727 593.198 481.439 593.42C481.154 593.638 480.957 593.882 480.847 594.15L479.45 593.832C479.616 593.368 479.858 592.994 480.176 592.709C480.498 592.42 480.867 592.211 481.285 592.082C481.703 591.95 482.142 591.883 482.602 591.883C482.907 591.883 483.23 591.92 483.572 591.993C483.917 592.062 484.238 592.192 484.536 592.381C484.838 592.569 485.085 592.84 485.277 593.191C485.469 593.539 485.565 593.991 485.565 594.548V599.619H484.114V598.575H484.054C483.958 598.767 483.814 598.956 483.622 599.142C483.429 599.327 483.182 599.482 482.881 599.604C482.579 599.727 482.218 599.788 481.797 599.788ZM482.12 598.595C482.531 598.595 482.882 598.514 483.174 598.351C483.469 598.189 483.693 597.977 483.845 597.715C484.001 597.45 484.079 597.166 484.079 596.865V595.881C484.026 595.934 483.923 595.983 483.771 596.03C483.622 596.073 483.451 596.111 483.259 596.144C483.066 596.174 482.879 596.202 482.697 596.229C482.515 596.252 482.362 596.272 482.239 596.288C481.951 596.325 481.688 596.386 481.449 596.472C481.214 596.558 481.025 596.683 480.882 596.845C480.743 597.004 480.673 597.216 480.673 597.481C480.673 597.849 480.809 598.128 481.081 598.317C481.353 598.502 481.699 598.595 482.12 598.595ZM490.844 591.983V593.176H486.673V591.983H490.844ZM487.791 590.153H489.278V597.377C489.278 597.665 489.321 597.882 489.407 598.028C489.493 598.171 489.604 598.269 489.74 598.322C489.88 598.371 490.03 598.396 490.193 598.396C490.312 598.396 490.416 598.388 490.506 598.371C490.595 598.355 490.665 598.341 490.715 598.331L490.983 599.559C490.897 599.593 490.774 599.626 490.615 599.659C490.456 599.695 490.257 599.715 490.019 599.719C489.628 599.725 489.263 599.656 488.925 599.51C488.587 599.364 488.314 599.139 488.105 598.834C487.896 598.529 487.791 598.146 487.791 597.685V590.153ZM494.445 599.788C493.961 599.788 493.523 599.699 493.132 599.52C492.741 599.337 492.431 599.074 492.203 598.729C491.977 598.385 491.864 597.962 491.864 597.461C491.864 597.031 491.947 596.676 492.113 596.398C492.279 596.119 492.502 595.899 492.784 595.736C493.066 595.574 493.381 595.451 493.729 595.368C494.077 595.286 494.431 595.223 494.793 595.18C495.25 595.126 495.621 595.083 495.906 595.05C496.191 595.014 496.399 594.956 496.528 594.876C496.657 594.797 496.722 594.667 496.722 594.488V594.454C496.722 594.019 496.599 593.683 496.354 593.444C496.112 593.206 495.751 593.086 495.27 593.086C494.77 593.086 494.375 593.198 494.087 593.42C493.802 593.638 493.605 593.882 493.495 594.15L492.098 593.832C492.264 593.368 492.506 592.994 492.824 592.709C493.145 592.42 493.515 592.211 493.933 592.082C494.35 591.95 494.789 591.883 495.25 591.883C495.555 591.883 495.878 591.92 496.22 591.993C496.564 592.062 496.886 592.192 497.184 592.381C497.486 592.569 497.733 592.84 497.925 593.191C498.117 593.539 498.213 593.991 498.213 594.548V599.619H496.761V598.575H496.702C496.606 598.767 496.462 598.956 496.269 599.142C496.077 599.327 495.83 599.482 495.529 599.604C495.227 599.727 494.866 599.788 494.445 599.788ZM494.768 598.595C495.179 598.595 495.53 598.514 495.822 598.351C496.117 598.189 496.341 597.977 496.493 597.715C496.649 597.45 496.727 597.166 496.727 596.865V595.881C496.674 595.934 496.571 595.983 496.418 596.03C496.269 596.073 496.099 596.111 495.906 596.144C495.714 596.174 495.527 596.202 495.345 596.229C495.162 596.252 495.01 596.272 494.887 596.288C494.599 596.325 494.335 596.386 494.097 596.472C493.861 596.558 493.672 596.683 493.53 596.845C493.391 597.004 493.321 597.216 493.321 597.481C493.321 597.849 493.457 598.128 493.729 598.317C494.001 598.502 494.347 598.595 494.768 598.595Z" fill="#363636"/>
<rect x="395.596" y="253.523" width="144.073" height="52.9016" rx="3" fill="white"/>
<path d="M418.896 281.722H420.408L421.472 283.109L421.974 283.726L423.669 285.938H422.098L420.965 284.462L420.577 283.925L418.896 281.722ZM423.997 279.933C423.997 281.02 423.798 281.954 423.401 282.737C423.003 283.515 422.458 284.115 421.765 284.536C421.076 284.954 420.292 285.163 419.413 285.163C418.532 285.163 417.745 284.954 417.052 284.536C416.363 284.115 415.819 283.514 415.421 282.732C415.024 281.949 414.825 281.016 414.825 279.933C414.825 278.845 415.024 277.912 415.421 277.134C415.819 276.351 416.363 275.751 417.052 275.334C417.745 274.913 418.532 274.702 419.413 274.702C420.292 274.702 421.076 274.913 421.765 275.334C422.458 275.751 423.003 276.351 423.401 277.134C423.798 277.912 423.997 278.845 423.997 279.933ZM422.476 279.933C422.476 279.104 422.342 278.406 422.073 277.839C421.808 277.269 421.443 276.839 420.979 276.547C420.519 276.252 419.997 276.104 419.413 276.104C418.827 276.104 418.303 276.252 417.842 276.547C417.382 276.839 417.017 277.269 416.749 277.839C416.483 278.406 416.351 279.104 416.351 279.933C416.351 280.761 416.483 281.46 416.749 282.031C417.017 282.597 417.382 283.028 417.842 283.323C418.303 283.615 418.827 283.761 419.413 283.761C419.997 283.761 420.519 283.615 420.979 283.323C421.443 283.028 421.808 282.597 422.073 282.031C422.342 281.46 422.476 280.761 422.476 279.933ZM430.365 281.857V277.387H431.856V285.023H430.394V283.701H430.315C430.139 284.109 429.857 284.448 429.47 284.72C429.085 284.989 428.606 285.123 428.033 285.123C427.542 285.123 427.108 285.015 426.73 284.8C426.356 284.581 426.061 284.258 425.845 283.83C425.633 283.403 425.527 282.874 425.527 282.244V277.387H427.014V282.065C427.014 282.586 427.158 283 427.446 283.308C427.735 283.616 428.109 283.771 428.57 283.771C428.848 283.771 429.125 283.701 429.4 283.562C429.678 283.423 429.909 283.212 430.091 282.93C430.277 282.649 430.368 282.291 430.365 281.857ZM436.879 285.178C436.126 285.178 435.478 285.017 434.935 284.695C434.394 284.371 433.977 283.915 433.682 283.328C433.39 282.738 433.244 282.047 433.244 281.255C433.244 280.473 433.39 279.783 433.682 279.187C433.977 278.59 434.388 278.125 434.915 277.79C435.445 277.455 436.065 277.288 436.774 277.288C437.205 277.288 437.623 277.359 438.027 277.501C438.431 277.644 438.794 277.868 439.116 278.173C439.437 278.478 439.691 278.874 439.876 279.361C440.062 279.845 440.155 280.433 440.155 281.126V281.653H434.085V280.539H438.698C438.698 280.148 438.619 279.802 438.46 279.5C438.3 279.195 438.077 278.955 437.788 278.779C437.503 278.603 437.169 278.516 436.784 278.516C436.367 278.516 436.002 278.618 435.69 278.824C435.382 279.026 435.143 279.291 434.974 279.619C434.809 279.944 434.726 280.297 434.726 280.678V281.548C434.726 282.059 434.815 282.493 434.994 282.851C435.177 283.209 435.43 283.482 435.755 283.671C436.08 283.857 436.459 283.95 436.893 283.95C437.175 283.95 437.432 283.91 437.664 283.83C437.896 283.747 438.097 283.625 438.266 283.462C438.435 283.3 438.564 283.099 438.653 282.861L440.06 283.114C439.948 283.529 439.746 283.892 439.454 284.203C439.166 284.511 438.803 284.752 438.365 284.924C437.931 285.093 437.435 285.178 436.879 285.178ZM441.538 285.023V277.387H442.975V278.6H443.055C443.194 278.189 443.439 277.866 443.79 277.631C444.145 277.392 444.546 277.273 444.993 277.273C445.086 277.273 445.196 277.276 445.322 277.283C445.451 277.289 445.552 277.298 445.625 277.308V278.729C445.565 278.713 445.459 278.695 445.307 278.675C445.154 278.652 445.002 278.64 444.849 278.64C444.498 278.64 444.185 278.714 443.91 278.864C443.638 279.009 443.422 279.213 443.263 279.475C443.104 279.734 443.025 280.029 443.025 280.36V285.023H441.538ZM447.817 287.887C447.595 287.887 447.393 287.869 447.211 287.832C447.028 287.799 446.893 287.763 446.803 287.723L447.161 286.505C447.433 286.578 447.675 286.609 447.887 286.599C448.099 286.589 448.286 286.51 448.449 286.361C448.614 286.212 448.76 285.968 448.886 285.63L449.07 285.123L446.276 277.387H447.867L449.801 283.313H449.88L451.814 277.387H453.41L450.263 286.043C450.117 286.44 449.932 286.777 449.706 287.052C449.481 287.33 449.213 287.539 448.901 287.678C448.59 287.817 448.228 287.887 447.817 287.887ZM464.647 274.842H466.189V281.538C466.189 282.251 466.021 282.882 465.686 283.433C465.352 283.979 464.881 284.41 464.274 284.725C463.668 285.037 462.957 285.192 462.142 285.192C461.33 285.192 460.62 285.037 460.014 284.725C459.407 284.41 458.937 283.979 458.602 283.433C458.267 282.882 458.1 282.251 458.1 281.538V274.842H459.636V281.414C459.636 281.875 459.737 282.284 459.939 282.642C460.145 283 460.435 283.282 460.809 283.487C461.184 283.689 461.628 283.79 462.142 283.79C462.659 283.79 463.104 283.689 463.479 283.487C463.857 283.282 464.145 283 464.344 282.642C464.546 282.284 464.647 281.875 464.647 281.414V274.842ZM473.759 279.251L472.412 279.49C472.355 279.318 472.266 279.154 472.143 278.998C472.024 278.842 471.861 278.714 471.656 278.615C471.451 278.516 471.194 278.466 470.885 278.466C470.464 278.466 470.113 278.56 469.831 278.749C469.55 278.935 469.409 279.175 469.409 279.47C469.409 279.725 469.503 279.931 469.692 280.087C469.881 280.242 470.186 280.37 470.607 280.469L471.82 280.748C472.523 280.91 473.046 281.161 473.391 281.499C473.736 281.837 473.908 282.276 473.908 282.816C473.908 283.273 473.776 283.681 473.51 284.039C473.249 284.394 472.882 284.672 472.412 284.874C471.944 285.076 471.402 285.178 470.786 285.178C469.931 285.178 469.233 284.995 468.693 284.631C468.153 284.263 467.821 283.741 467.699 283.065L469.135 282.846C469.225 283.22 469.409 283.504 469.687 283.696C469.966 283.885 470.329 283.979 470.776 283.979C471.263 283.979 471.653 283.878 471.944 283.676C472.236 283.471 472.382 283.22 472.382 282.925C472.382 282.687 472.292 282.486 472.113 282.324C471.938 282.161 471.668 282.039 471.303 281.956L470.01 281.673C469.298 281.51 468.771 281.252 468.429 280.897C468.091 280.542 467.922 280.093 467.922 279.55C467.922 279.099 468.048 278.705 468.3 278.366C468.552 278.028 468.9 277.765 469.344 277.576C469.788 277.384 470.297 277.288 470.87 277.288C471.696 277.288 472.345 277.467 472.819 277.825C473.293 278.179 473.607 278.655 473.759 279.251ZM478.568 285.178C477.815 285.178 477.167 285.017 476.624 284.695C476.084 284.371 475.666 283.915 475.371 283.328C475.079 282.738 474.934 282.047 474.934 281.255C474.934 280.473 475.079 279.783 475.371 279.187C475.666 278.59 476.077 278.125 476.604 277.79C477.134 277.455 477.754 277.288 478.463 277.288C478.894 277.288 479.312 277.359 479.716 277.501C480.121 277.644 480.483 277.868 480.805 278.173C481.126 278.478 481.38 278.874 481.566 279.361C481.751 279.845 481.844 280.433 481.844 281.126V281.653H475.774V280.539H480.387C480.387 280.148 480.308 279.802 480.149 279.5C479.99 279.195 479.766 278.955 479.478 278.779C479.192 278.603 478.858 278.516 478.473 278.516C478.056 278.516 477.691 278.618 477.38 278.824C477.071 279.026 476.833 279.291 476.664 279.619C476.498 279.944 476.415 280.297 476.415 280.678V281.548C476.415 282.059 476.505 282.493 476.684 282.851C476.866 283.209 477.119 283.482 477.444 283.671C477.769 283.857 478.148 283.95 478.583 283.95C478.864 283.95 479.121 283.91 479.353 283.83C479.585 283.747 479.786 283.625 479.955 283.462C480.124 283.3 480.253 283.099 480.343 282.861L481.75 283.114C481.637 283.529 481.435 283.892 481.143 284.203C480.855 284.511 480.492 284.752 480.054 284.924C479.62 285.093 479.125 285.178 478.568 285.178ZM483.227 285.023V277.387H484.664V278.6H484.744C484.883 278.189 485.128 277.866 485.479 277.631C485.834 277.392 486.235 277.273 486.683 277.273C486.775 277.273 486.885 277.276 487.011 277.283C487.14 277.289 487.241 277.298 487.314 277.308V278.729C487.254 278.713 487.148 278.695 486.996 278.675C486.843 278.652 486.691 278.64 486.538 278.64C486.187 278.64 485.874 278.714 485.599 278.864C485.327 279.009 485.112 279.213 484.952 279.475C484.793 279.734 484.714 280.029 484.714 280.36V285.023H483.227ZM495.189 285.023H491.893V274.842H495.293C496.291 274.842 497.148 275.045 497.864 275.453C498.58 275.857 499.128 276.439 499.509 277.198C499.894 277.954 500.086 278.86 500.086 279.918C500.086 280.978 499.892 281.89 499.504 282.652C499.12 283.414 498.563 284.001 497.834 284.412C497.105 284.82 496.223 285.023 495.189 285.023ZM493.429 283.681H495.104C495.88 283.681 496.525 283.535 497.038 283.244C497.552 282.949 497.937 282.523 498.192 281.966C498.447 281.406 498.575 280.723 498.575 279.918C498.575 279.119 498.447 278.441 498.192 277.884C497.94 277.327 497.564 276.905 497.063 276.616C496.563 276.328 495.941 276.184 495.199 276.184H493.429V283.681ZM503.833 285.192C503.349 285.192 502.912 285.103 502.521 284.924C502.13 284.742 501.82 284.478 501.591 284.134C501.366 283.789 501.253 283.366 501.253 282.866C501.253 282.435 501.336 282.08 501.502 281.802C501.667 281.523 501.891 281.303 502.173 281.141C502.454 280.978 502.769 280.856 503.117 280.773C503.465 280.69 503.82 280.627 504.181 280.584C504.639 280.531 505.01 280.488 505.295 280.455C505.58 280.418 505.787 280.36 505.916 280.281C506.046 280.201 506.11 280.072 506.11 279.893V279.858C506.11 279.424 505.988 279.087 505.742 278.849C505.5 278.61 505.139 278.491 504.659 278.491C504.158 278.491 503.764 278.602 503.475 278.824C503.19 279.043 502.993 279.286 502.884 279.555L501.487 279.237C501.652 278.772 501.894 278.398 502.213 278.113C502.534 277.825 502.904 277.616 503.321 277.487C503.739 277.354 504.178 277.288 504.639 277.288C504.944 277.288 505.267 277.324 505.608 277.397C505.953 277.467 506.274 277.596 506.573 277.785C506.874 277.974 507.121 278.244 507.313 278.595C507.506 278.943 507.602 279.396 507.602 279.952V285.023H506.15V283.979H506.09C505.994 284.172 505.85 284.361 505.658 284.546C505.466 284.732 505.219 284.886 504.917 285.009C504.615 285.131 504.254 285.192 503.833 285.192ZM504.156 283.999C504.567 283.999 504.919 283.918 505.21 283.756C505.505 283.593 505.729 283.381 505.882 283.119C506.037 282.854 506.115 282.571 506.115 282.269V281.285C506.062 281.338 505.959 281.388 505.807 281.434C505.658 281.477 505.487 281.515 505.295 281.548C505.103 281.578 504.915 281.606 504.733 281.633C504.551 281.656 504.398 281.676 504.276 281.692C503.987 281.729 503.724 281.79 503.485 281.876C503.25 281.963 503.061 282.087 502.919 282.249C502.779 282.408 502.71 282.621 502.71 282.886C502.71 283.254 502.846 283.532 503.117 283.721C503.389 283.906 503.736 283.999 504.156 283.999ZM512.88 277.387V278.58H508.709V277.387H512.88ZM509.828 275.558H511.314V282.781C511.314 283.07 511.357 283.287 511.444 283.433C511.53 283.575 511.641 283.673 511.777 283.726C511.916 283.776 512.067 283.8 512.229 283.8C512.348 283.8 512.453 283.792 512.542 283.776C512.632 283.759 512.701 283.746 512.751 283.736L513.02 284.964C512.933 284.997 512.811 285.03 512.652 285.063C512.493 285.1 512.294 285.12 512.055 285.123C511.664 285.129 511.299 285.06 510.961 284.914C510.623 284.768 510.35 284.543 510.141 284.238C509.932 283.933 509.828 283.55 509.828 283.089V275.558ZM516.481 285.192C515.997 285.192 515.56 285.103 515.168 284.924C514.777 284.742 514.467 284.478 514.239 284.134C514.013 283.789 513.901 283.366 513.901 282.866C513.901 282.435 513.984 282.08 514.149 281.802C514.315 281.523 514.539 281.303 514.82 281.141C515.102 280.978 515.417 280.856 515.765 280.773C516.113 280.69 516.468 280.627 516.829 280.584C517.286 280.531 517.658 280.488 517.943 280.455C518.228 280.418 518.435 280.36 518.564 280.281C518.693 280.201 518.758 280.072 518.758 279.893V279.858C518.758 279.424 518.635 279.087 518.39 278.849C518.148 278.61 517.787 278.491 517.306 278.491C516.806 278.491 516.411 278.602 516.123 278.824C515.838 279.043 515.641 279.286 515.531 279.555L514.134 279.237C514.3 278.772 514.542 278.398 514.86 278.113C515.182 277.825 515.551 277.616 515.969 277.487C516.387 277.354 516.826 277.288 517.286 277.288C517.591 277.288 517.914 277.324 518.256 277.397C518.601 277.467 518.922 277.596 519.22 277.785C519.522 277.974 519.769 278.244 519.961 278.595C520.153 278.943 520.249 279.396 520.249 279.952V285.023H518.798V283.979H518.738C518.642 284.172 518.498 284.361 518.306 284.546C518.113 284.732 517.866 284.886 517.565 285.009C517.263 285.131 516.902 285.192 516.481 285.192ZM516.804 283.999C517.215 283.999 517.566 283.918 517.858 283.756C518.153 283.593 518.377 283.381 518.529 283.119C518.685 282.854 518.763 282.571 518.763 282.269V281.285C518.71 281.338 518.607 281.388 518.455 281.434C518.306 281.477 518.135 281.515 517.943 281.548C517.75 281.578 517.563 281.606 517.381 281.633C517.199 281.656 517.046 281.676 516.923 281.692C516.635 281.729 516.372 281.79 516.133 281.876C515.898 281.963 515.709 282.087 515.566 282.249C515.427 282.408 515.357 282.621 515.357 282.886C515.357 283.254 515.493 283.532 515.765 283.721C516.037 283.906 516.383 283.999 516.804 283.999Z" fill="#363636"/>
<rect x="893.096" y="307.551" width="38.2693" height="115.933" rx="3" fill="#FFA629" stroke="#CC8521" stroke-width="4" stroke-miterlimit="0"/>
<rect x="601.575" y="279.974" width="38.2693" height="315.159" rx="3" fill="#9747FF" stroke="#7939CC" stroke-width="4" stroke-miterlimit="0"/>
<rect x="287.541" y="279.974" width="38.2693" height="314.596" rx="3" fill="#0D99FF" stroke="#0A7ACC" stroke-width="4" stroke-miterlimit="0"/>
<rect x="701.75" y="397.033" width="144.073" height="52.9016" rx="3" fill="white"/>
<path d="M741.225 409.174V407.851H749.105V409.174H745.929V418.033H744.397V409.174H741.225ZM752.571 418.187C751.855 418.187 751.23 418.023 750.696 417.695C750.163 417.367 749.748 416.908 749.453 416.318C749.158 415.728 749.011 415.039 749.011 414.25C749.011 413.458 749.158 412.765 749.453 412.172C749.748 411.578 750.163 411.118 750.696 410.79C751.23 410.461 751.855 410.297 752.571 410.297C753.287 410.297 753.911 410.461 754.445 410.79C754.979 411.118 755.393 411.578 755.688 412.172C755.983 412.765 756.13 413.458 756.13 414.25C756.13 415.039 755.983 415.728 755.688 416.318C755.393 416.908 754.979 417.367 754.445 417.695C753.911 418.023 753.287 418.187 752.571 418.187ZM752.576 416.939C753.04 416.939 753.424 416.817 753.729 416.572C754.034 416.326 754.259 416 754.405 415.592C754.554 415.184 754.629 414.735 754.629 414.245C754.629 413.758 754.554 413.31 754.405 412.903C754.259 412.492 754.034 412.162 753.729 411.913C753.424 411.665 753.04 411.54 752.576 411.54C752.108 411.54 751.72 411.665 751.412 411.913C751.107 412.162 750.88 412.492 750.731 412.903C750.585 413.31 750.512 413.758 750.512 414.245C750.512 414.735 750.585 415.184 750.731 415.592C750.88 416 751.107 416.326 751.412 416.572C751.72 416.817 752.108 416.939 752.576 416.939ZM758.891 415.443L758.881 413.628H759.139L762.182 410.397H763.962L760.492 414.076H760.258L758.891 415.443ZM757.524 418.033V407.851H759.01V418.033H757.524ZM762.346 418.033L759.612 414.404L760.636 413.365L764.171 418.033H762.346ZM768.027 418.187C767.275 418.187 766.627 418.027 766.083 417.705C765.543 417.38 765.126 416.925 764.831 416.338C764.539 415.748 764.393 415.057 764.393 414.265C764.393 413.483 764.539 412.793 764.831 412.197C765.126 411.6 765.536 411.134 766.063 410.8C766.594 410.465 767.214 410.297 767.923 410.297C768.354 410.297 768.771 410.369 769.176 410.511C769.58 410.654 769.943 410.877 770.264 411.182C770.586 411.487 770.84 411.883 771.025 412.371C771.211 412.854 771.304 413.443 771.304 414.135V414.662H765.233V413.549H769.847C769.847 413.158 769.767 412.811 769.608 412.51C769.449 412.205 769.225 411.965 768.937 411.789C768.652 411.613 768.317 411.525 767.933 411.525C767.515 411.525 767.151 411.628 766.839 411.834C766.531 412.036 766.292 412.301 766.123 412.629C765.957 412.954 765.875 413.307 765.875 413.688V414.558C765.875 415.068 765.964 415.503 766.143 415.861C766.325 416.219 766.579 416.492 766.904 416.681C767.228 416.867 767.608 416.959 768.042 416.959C768.324 416.959 768.581 416.92 768.813 416.84C769.045 416.757 769.245 416.635 769.414 416.472C769.583 416.31 769.713 416.109 769.802 415.871L771.209 416.124C771.096 416.538 770.894 416.901 770.603 417.213C770.314 417.521 769.951 417.761 769.514 417.934C769.08 418.103 768.584 418.187 768.027 418.187ZM774.173 413.499V418.033H772.687V410.397H774.114V411.64H774.208C774.384 411.235 774.659 410.911 775.033 410.665C775.411 410.42 775.887 410.297 776.46 410.297C776.981 410.297 777.436 410.407 777.827 410.626C778.219 410.841 778.522 411.162 778.737 411.59C778.953 412.018 779.06 412.546 779.06 413.176V418.033H777.574V413.355C777.574 412.801 777.43 412.369 777.141 412.057C776.853 411.742 776.457 411.585 775.953 411.585C775.608 411.585 775.302 411.66 775.033 411.809C774.768 411.958 774.558 412.177 774.402 412.465C774.25 412.75 774.173 413.095 774.173 413.499ZM780.788 418.033V410.397H782.275V418.033H780.788ZM781.539 409.219C781.28 409.219 781.058 409.132 780.873 408.96C780.69 408.784 780.599 408.576 780.599 408.334C780.599 408.088 780.69 407.88 780.873 407.707C781.058 407.532 781.28 407.444 781.539 407.444C781.797 407.444 782.018 407.532 782.2 407.707C782.386 407.88 782.478 408.088 782.478 408.334C782.478 408.576 782.386 408.784 782.2 408.96C782.018 409.132 781.797 409.219 781.539 409.219ZM783.849 418.033V417.014L787.986 411.759V411.689H783.984V410.397H789.84V411.481L785.863 416.671V416.741H789.979V418.033H783.849ZM794.539 418.187C793.787 418.187 793.139 418.027 792.596 417.705C792.055 417.38 791.638 416.925 791.343 416.338C791.051 415.748 790.905 415.057 790.905 414.265C790.905 413.483 791.051 412.793 791.343 412.197C791.638 411.6 792.049 411.134 792.576 410.8C793.106 410.465 793.726 410.297 794.435 410.297C794.866 410.297 795.284 410.369 795.688 410.511C796.092 410.654 796.455 410.877 796.777 411.182C797.098 411.487 797.352 411.883 797.537 412.371C797.723 412.854 797.816 413.443 797.816 414.135V414.662H791.745V413.549H796.359C796.359 413.158 796.279 412.811 796.12 412.51C795.961 412.205 795.738 411.965 795.449 411.789C795.164 411.613 794.829 411.525 794.445 411.525C794.027 411.525 793.663 411.628 793.351 411.834C793.043 412.036 792.804 412.301 792.635 412.629C792.47 412.954 792.387 413.307 792.387 413.688V414.558C792.387 415.068 792.476 415.503 792.655 415.861C792.837 416.219 793.091 416.492 793.416 416.681C793.741 416.867 794.12 416.959 794.554 416.959C794.836 416.959 795.093 416.92 795.325 416.84C795.557 416.757 795.757 416.635 795.927 416.472C796.096 416.31 796.225 416.109 796.314 415.871L797.721 416.124C797.609 416.538 797.406 416.901 797.115 417.213C796.826 417.521 796.463 417.761 796.026 417.934C795.592 418.103 795.096 418.187 794.539 418.187ZM802.058 418.182C801.441 418.182 800.891 418.025 800.407 417.71C799.927 417.392 799.549 416.939 799.274 416.353C799.002 415.763 798.866 415.055 798.866 414.23C798.866 413.405 799.003 412.699 799.279 412.112C799.557 411.525 799.938 411.076 800.422 410.765C800.906 410.453 801.454 410.297 802.068 410.297C802.542 410.297 802.923 410.377 803.211 410.536C803.503 410.692 803.728 410.874 803.887 411.083C804.05 411.292 804.176 411.476 804.265 411.635H804.355V407.851H805.841V418.033H804.389V416.845H804.265C804.176 417.007 804.046 417.193 803.877 417.402C803.712 417.611 803.483 417.793 803.191 417.949C802.9 418.104 802.522 418.182 802.058 418.182ZM802.386 416.915C802.813 416.915 803.175 416.802 803.47 416.577C803.768 416.348 803.993 416.031 804.146 415.627C804.302 415.223 804.379 414.752 804.379 414.215C804.379 413.685 804.303 413.221 804.151 412.823C803.998 412.425 803.775 412.115 803.48 411.893C803.185 411.671 802.82 411.56 802.386 411.56C801.938 411.56 801.566 411.676 801.267 411.908C800.969 412.14 800.744 412.457 800.591 412.858C800.442 413.259 800.367 413.711 800.367 414.215C800.367 414.725 800.444 415.184 800.596 415.592C800.749 416 800.974 416.323 801.272 416.562C801.574 416.797 801.945 416.915 802.386 416.915ZM749.328 428.851H750.869V435.548C750.869 436.261 750.702 436.892 750.367 437.442C750.032 437.989 749.562 438.42 748.955 438.735C748.349 439.046 747.638 439.202 746.822 439.202C746.01 439.202 745.301 439.046 744.694 438.735C744.088 438.42 743.617 437.989 743.282 437.442C742.948 436.892 742.78 436.261 742.78 435.548V428.851H744.317V435.424C744.317 435.885 744.418 436.294 744.62 436.652C744.825 437.01 745.115 437.291 745.49 437.497C745.864 437.699 746.309 437.8 746.822 437.8C747.339 437.8 747.785 437.699 748.16 437.497C748.537 437.291 748.826 437.01 749.025 436.652C749.227 436.294 749.328 435.885 749.328 435.424V428.851ZM758.44 433.261L757.092 433.5C757.036 433.327 756.946 433.163 756.824 433.008C756.704 432.852 756.542 432.724 756.337 432.625C756.131 432.525 755.874 432.476 755.566 432.476C755.145 432.476 754.794 432.57 754.512 432.759C754.23 432.945 754.089 433.185 754.089 433.48C754.089 433.735 754.184 433.941 754.373 434.096C754.562 434.252 754.867 434.38 755.288 434.479L756.501 434.758C757.203 434.92 757.727 435.17 758.072 435.508C758.416 435.846 758.589 436.286 758.589 436.826C758.589 437.283 758.456 437.691 758.191 438.049C757.929 438.403 757.563 438.682 757.092 438.884C756.625 439.086 756.083 439.187 755.467 439.187C754.611 439.187 753.914 439.005 753.374 438.64C752.833 438.273 752.502 437.751 752.379 437.074L753.816 436.856C753.905 437.23 754.089 437.514 754.368 437.706C754.646 437.895 755.009 437.989 755.457 437.989C755.944 437.989 756.333 437.888 756.625 437.686C756.917 437.48 757.062 437.23 757.062 436.935C757.062 436.697 756.973 436.496 756.794 436.334C756.618 436.171 756.348 436.049 755.984 435.966L754.691 435.682C753.978 435.52 753.451 435.261 753.11 434.907C752.772 434.552 752.603 434.103 752.603 433.559C752.603 433.109 752.729 432.714 752.981 432.376C753.233 432.038 753.581 431.775 754.025 431.586C754.469 431.394 754.978 431.297 755.551 431.297C756.376 431.297 757.026 431.476 757.5 431.834C757.974 432.189 758.287 432.665 758.44 433.261ZM763.248 439.187C762.496 439.187 761.848 439.027 761.304 438.705C760.764 438.38 760.347 437.925 760.052 437.338C759.76 436.748 759.614 436.057 759.614 435.265C759.614 434.483 759.76 433.793 760.052 433.197C760.347 432.6 760.758 432.134 761.285 431.8C761.815 431.465 762.435 431.297 763.144 431.297C763.575 431.297 763.992 431.369 764.397 431.511C764.801 431.654 765.164 431.877 765.486 432.182C765.807 432.487 766.061 432.883 766.246 433.371C766.432 433.854 766.525 434.443 766.525 435.135V435.662H760.454V434.549H765.068C765.068 434.158 764.988 433.811 764.829 433.51C764.67 433.205 764.446 432.965 764.158 432.789C763.873 432.613 763.538 432.525 763.154 432.525C762.736 432.525 762.372 432.628 762.06 432.834C761.752 433.036 761.513 433.301 761.344 433.629C761.178 433.954 761.096 434.307 761.096 434.688V435.558C761.096 436.068 761.185 436.503 761.364 436.861C761.546 437.219 761.8 437.492 762.125 437.681C762.45 437.867 762.829 437.959 763.263 437.959C763.545 437.959 763.802 437.92 764.034 437.84C764.266 437.757 764.466 437.635 764.635 437.472C764.804 437.31 764.934 437.109 765.023 436.871L766.43 437.124C766.317 437.538 766.115 437.901 765.824 438.213C765.535 438.521 765.172 438.761 764.735 438.934C764.301 439.103 763.805 439.187 763.248 439.187ZM767.908 439.033V431.397H769.345V432.61H769.424C769.563 432.199 769.809 431.876 770.16 431.64C770.515 431.402 770.916 431.282 771.363 431.282C771.456 431.282 771.565 431.286 771.691 431.292C771.821 431.299 771.922 431.307 771.995 431.317V432.739C771.935 432.723 771.829 432.704 771.676 432.684C771.524 432.661 771.371 432.65 771.219 432.65C770.868 432.65 770.554 432.724 770.279 432.873C770.008 433.019 769.792 433.223 769.633 433.485C769.474 433.743 769.394 434.038 769.394 434.37V439.033H767.908ZM779.87 439.033H776.573V428.851H779.974C780.972 428.851 781.828 429.055 782.544 429.463C783.26 429.867 783.809 430.449 784.19 431.208C784.574 431.964 784.767 432.87 784.767 433.927C784.767 434.988 784.573 435.899 784.185 436.662C783.8 437.424 783.244 438.011 782.514 438.422C781.785 438.829 780.904 439.033 779.87 439.033ZM778.11 437.691H779.785C780.561 437.691 781.205 437.545 781.719 437.253C782.233 436.958 782.617 436.532 782.872 435.976C783.128 435.416 783.255 434.733 783.255 433.927C783.255 433.129 783.128 432.451 782.872 431.894C782.62 431.337 782.244 430.915 781.744 430.626C781.243 430.338 780.622 430.194 779.879 430.194H778.11V437.691ZM788.514 439.202C788.03 439.202 787.592 439.113 787.201 438.934C786.81 438.751 786.5 438.488 786.272 438.143C786.046 437.799 785.934 437.376 785.934 436.876C785.934 436.445 786.016 436.09 786.182 435.812C786.348 435.533 786.572 435.313 786.853 435.15C787.135 434.988 787.45 434.865 787.798 434.782C788.146 434.7 788.501 434.637 788.862 434.594C789.319 434.541 789.69 434.497 789.976 434.464C790.261 434.428 790.468 434.37 790.597 434.29C790.726 434.211 790.791 434.081 790.791 433.903V433.868C790.791 433.434 790.668 433.097 790.423 432.858C790.181 432.62 789.82 432.501 789.339 432.501C788.839 432.501 788.444 432.612 788.156 432.834C787.871 433.052 787.674 433.296 787.564 433.564L786.167 433.246C786.333 432.782 786.575 432.408 786.893 432.123C787.215 431.834 787.584 431.626 788.002 431.496C788.419 431.364 788.859 431.297 789.319 431.297C789.624 431.297 789.947 431.334 790.289 431.407C790.633 431.476 790.955 431.606 791.253 431.795C791.555 431.983 791.802 432.254 791.994 432.605C792.186 432.953 792.282 433.405 792.282 433.962V439.033H790.831V437.989H790.771C790.675 438.181 790.531 438.37 790.338 438.556C790.146 438.742 789.899 438.896 789.598 439.018C789.296 439.141 788.935 439.202 788.514 439.202ZM788.837 438.009C789.248 438.009 789.599 437.928 789.891 437.765C790.186 437.603 790.41 437.391 790.562 437.129C790.718 436.864 790.796 436.581 790.796 436.279V435.295C790.743 435.348 790.64 435.397 790.488 435.444C790.338 435.487 790.168 435.525 789.976 435.558C789.783 435.588 789.596 435.616 789.414 435.643C789.231 435.666 789.079 435.686 788.956 435.702C788.668 435.739 788.404 435.8 788.166 435.886C787.931 435.972 787.742 436.097 787.599 436.259C787.46 436.418 787.39 436.63 787.39 436.895C787.39 437.263 787.526 437.542 787.798 437.731C788.07 437.916 788.416 438.009 788.837 438.009ZM797.561 431.397V432.59H793.39V431.397H797.561ZM794.508 429.567H795.995V436.791C795.995 437.079 796.038 437.296 796.124 437.442C796.21 437.585 796.321 437.683 796.457 437.736C796.596 437.785 796.747 437.81 796.91 437.81C797.029 437.81 797.133 437.802 797.223 437.785C797.312 437.769 797.382 437.756 797.432 437.746L797.7 438.974C797.614 439.007 797.491 439.04 797.332 439.073C797.173 439.109 796.974 439.129 796.736 439.133C796.345 439.139 795.98 439.07 795.642 438.924C795.304 438.778 795.03 438.553 794.822 438.248C794.613 437.943 794.508 437.56 794.508 437.099V429.567ZM801.162 439.202C800.678 439.202 800.24 439.113 799.849 438.934C799.458 438.751 799.148 438.488 798.919 438.143C798.694 437.799 798.581 437.376 798.581 436.876C798.581 436.445 798.664 436.09 798.83 435.812C798.996 435.533 799.219 435.313 799.501 435.15C799.783 434.988 800.098 434.865 800.446 434.782C800.794 434.7 801.148 434.637 801.51 434.594C801.967 434.541 802.338 434.497 802.623 434.464C802.908 434.428 803.115 434.37 803.245 434.29C803.374 434.211 803.439 434.081 803.439 433.903V433.868C803.439 433.434 803.316 433.097 803.071 432.858C802.829 432.62 802.467 432.501 801.987 432.501C801.486 432.501 801.092 432.612 800.804 432.834C800.519 433.052 800.321 433.296 800.212 433.564L798.815 433.246C798.981 432.782 799.223 432.408 799.541 432.123C799.862 431.834 800.232 431.626 800.649 431.496C801.067 431.364 801.506 431.297 801.967 431.297C802.272 431.297 802.595 431.334 802.936 431.407C803.281 431.476 803.603 431.606 803.901 431.795C804.203 431.983 804.449 432.254 804.642 432.605C804.834 432.953 804.93 433.405 804.93 433.962V439.033H803.478V437.989H803.419C803.323 438.181 803.178 438.37 802.986 438.556C802.794 438.742 802.547 438.896 802.245 439.018C801.944 439.141 801.582 439.202 801.162 439.202ZM801.485 438.009C801.896 438.009 802.247 437.928 802.539 437.765C802.834 437.603 803.057 437.391 803.21 437.129C803.366 436.864 803.444 436.581 803.444 436.279V435.295C803.39 435.348 803.288 435.397 803.135 435.444C802.986 435.487 802.815 435.525 802.623 435.558C802.431 435.588 802.244 435.616 802.061 435.643C801.879 435.666 801.727 435.686 801.604 435.702C801.316 435.739 801.052 435.8 800.814 435.886C800.578 435.972 800.389 436.097 800.247 436.259C800.108 436.418 800.038 436.63 800.038 436.895C800.038 437.263 800.174 437.542 800.446 437.731C800.717 437.916 801.064 438.009 801.485 438.009Z" fill="#363636"/>
<rect x="701.75" y="279.974" width="144.073" height="52.9016" rx="3" fill="white"/>
<path d="M725.05 308.173H726.562L727.626 309.56L728.128 310.177L729.823 312.389H728.252L727.119 310.912L726.731 310.375L725.05 308.173ZM730.151 306.383C730.151 307.47 729.952 308.405 729.555 309.187C729.157 309.966 728.612 310.566 727.919 310.987C727.23 311.405 726.446 311.613 725.568 311.613C724.686 311.613 723.899 311.405 723.206 310.987C722.517 310.566 721.973 309.964 721.575 309.182C721.178 308.4 720.979 307.467 720.979 306.383C720.979 305.296 721.178 304.363 721.575 303.584C721.973 302.802 722.517 302.202 723.206 301.784C723.899 301.364 724.686 301.153 725.568 301.153C726.446 301.153 727.23 301.364 727.919 301.784C728.612 302.202 729.157 302.802 729.555 303.584C729.952 304.363 730.151 305.296 730.151 306.383ZM728.63 306.383C728.63 305.555 728.496 304.857 728.227 304.29C727.962 303.72 727.598 303.289 727.134 302.998C726.673 302.703 726.151 302.555 725.568 302.555C724.981 302.555 724.457 302.703 723.996 302.998C723.536 303.289 723.171 303.72 722.903 304.29C722.638 304.857 722.505 305.555 722.505 306.383C722.505 307.212 722.638 307.911 722.903 308.481C723.171 309.048 723.536 309.479 723.996 309.774C724.457 310.066 724.981 310.211 725.568 310.211C726.151 310.211 726.673 310.066 727.134 309.774C727.598 309.479 727.962 309.048 728.227 308.481C728.496 307.911 728.63 307.212 728.63 306.383ZM736.519 308.307V303.838H738.01V311.474H736.548V310.152H736.469C736.293 310.559 736.012 310.899 735.624 311.171C735.239 311.439 734.76 311.574 734.187 311.574C733.696 311.574 733.262 311.466 732.884 311.25C732.51 311.032 732.215 310.708 731.999 310.281C731.787 309.853 731.681 309.325 731.681 308.695V303.838H733.168V308.516C733.168 309.036 733.312 309.451 733.6 309.759C733.889 310.067 734.263 310.221 734.724 310.221C735.002 310.221 735.279 310.152 735.554 310.012C735.833 309.873 736.063 309.663 736.245 309.381C736.431 309.099 736.522 308.741 736.519 308.307ZM743.033 311.628C742.28 311.628 741.632 311.467 741.089 311.146C740.549 310.821 740.131 310.365 739.836 309.779C739.544 309.189 739.398 308.498 739.398 307.706C739.398 306.923 739.544 306.234 739.836 305.637C740.131 305.041 740.542 304.575 741.069 304.24C741.599 303.906 742.219 303.738 742.928 303.738C743.359 303.738 743.777 303.81 744.181 303.952C744.585 304.095 744.948 304.318 745.27 304.623C745.591 304.928 745.845 305.324 746.031 305.811C746.216 306.295 746.309 306.884 746.309 307.576V308.103H740.239V306.99H744.852C744.852 306.599 744.773 306.252 744.614 305.951C744.455 305.646 744.231 305.405 743.942 305.23C743.657 305.054 743.323 304.966 742.938 304.966C742.521 304.966 742.156 305.069 741.844 305.275C741.536 305.477 741.298 305.742 741.129 306.07C740.963 306.395 740.88 306.748 740.88 307.129V307.999C740.88 308.509 740.969 308.944 741.148 309.302C741.331 309.659 741.584 309.933 741.909 310.122C742.234 310.307 742.613 310.4 743.048 310.4C743.329 310.4 743.586 310.36 743.818 310.281C744.05 310.198 744.251 310.075 744.42 309.913C744.589 309.751 744.718 309.55 744.808 309.311L746.214 309.565C746.102 309.979 745.9 310.342 745.608 310.654C745.32 310.962 744.957 311.202 744.519 311.375C744.085 311.544 743.589 311.628 743.033 311.628ZM747.692 311.474V303.838H749.129V305.051H749.209C749.348 304.64 749.593 304.317 749.944 304.081C750.299 303.843 750.7 303.723 751.148 303.723C751.24 303.723 751.35 303.727 751.476 303.733C751.605 303.74 751.706 303.748 751.779 303.758V305.18C751.719 305.164 751.613 305.145 751.461 305.125C751.308 305.102 751.156 305.091 751.003 305.091C750.652 305.091 750.339 305.165 750.064 305.314C749.792 305.46 749.576 305.664 749.417 305.926C749.258 306.184 749.179 306.479 749.179 306.811V311.474H747.692ZM753.971 314.338C753.749 314.338 753.547 314.32 753.365 314.283C753.183 314.25 753.047 314.213 752.957 314.174L753.315 312.956C753.587 313.029 753.829 313.06 754.041 313.05C754.253 313.04 754.44 312.961 754.603 312.811C754.768 312.662 754.914 312.419 755.04 312.081L755.224 311.574L752.43 303.838H754.021L755.955 309.764H756.035L757.969 303.838H759.564L756.417 312.493C756.272 312.891 756.086 313.227 755.861 313.503C755.635 313.781 755.367 313.99 755.055 314.129C754.744 314.268 754.382 314.338 753.971 314.338ZM770.801 301.292H772.343V307.989C772.343 308.702 772.175 309.333 771.84 309.883C771.506 310.43 771.035 310.861 770.429 311.176C769.822 311.487 769.111 311.643 768.296 311.643C767.484 311.643 766.774 311.487 766.168 311.176C765.561 310.861 765.091 310.43 764.756 309.883C764.421 309.333 764.254 308.702 764.254 307.989V301.292H765.79V307.865C765.79 308.325 765.891 308.735 766.093 309.093C766.299 309.451 766.589 309.732 766.963 309.938C767.338 310.14 767.782 310.241 768.296 310.241C768.813 310.241 769.259 310.14 769.633 309.938C770.011 309.732 770.299 309.451 770.498 309.093C770.7 308.735 770.801 308.325 770.801 307.865V301.292ZM779.913 305.702L778.566 305.941C778.509 305.768 778.42 305.604 778.297 305.449C778.178 305.293 778.016 305.165 777.81 305.066C777.605 304.966 777.348 304.917 777.039 304.917C776.619 304.917 776.267 305.011 775.986 305.2C775.704 305.386 775.563 305.626 775.563 305.921C775.563 306.176 775.657 306.382 775.846 306.537C776.035 306.693 776.34 306.821 776.761 306.92L777.974 307.199C778.677 307.361 779.2 307.611 779.545 307.949C779.89 308.287 780.062 308.726 780.062 309.267C780.062 309.724 779.93 310.132 779.664 310.49C779.403 310.844 779.036 311.123 778.566 311.325C778.098 311.527 777.557 311.628 776.94 311.628C776.085 311.628 775.387 311.446 774.847 311.081C774.307 310.713 773.975 310.191 773.853 309.515L775.289 309.297C775.379 309.671 775.563 309.954 775.841 310.147C776.12 310.336 776.483 310.43 776.93 310.43C777.417 310.43 777.807 310.329 778.098 310.127C778.39 309.921 778.536 309.671 778.536 309.376C778.536 309.137 778.446 308.937 778.267 308.775C778.092 308.612 777.822 308.49 777.457 308.407L776.164 308.123C775.452 307.961 774.925 307.702 774.584 307.348C774.245 306.993 774.076 306.544 774.076 306C774.076 305.55 774.202 305.155 774.454 304.817C774.706 304.479 775.054 304.216 775.498 304.027C775.942 303.834 776.451 303.738 777.025 303.738C777.85 303.738 778.499 303.917 778.973 304.275C779.447 304.63 779.761 305.106 779.913 305.702ZM784.722 311.628C783.969 311.628 783.321 311.467 782.778 311.146C782.238 310.821 781.82 310.365 781.525 309.779C781.233 309.189 781.088 308.498 781.088 307.706C781.088 306.923 781.233 306.234 781.525 305.637C781.82 305.041 782.231 304.575 782.758 304.24C783.288 303.906 783.908 303.738 784.617 303.738C785.048 303.738 785.466 303.81 785.87 303.952C786.275 304.095 786.638 304.318 786.959 304.623C787.281 304.928 787.534 305.324 787.72 305.811C787.905 306.295 787.998 306.884 787.998 307.576V308.103H781.928V306.99H786.541C786.541 306.599 786.462 306.252 786.303 305.951C786.144 305.646 785.92 305.405 785.632 305.23C785.347 305.054 785.012 304.966 784.627 304.966C784.21 304.966 783.845 305.069 783.534 305.275C783.225 305.477 782.987 305.742 782.818 306.07C782.652 306.395 782.569 306.748 782.569 307.129V307.999C782.569 308.509 782.659 308.944 782.838 309.302C783.02 309.659 783.273 309.933 783.598 310.122C783.923 310.307 784.303 310.4 784.737 310.4C785.018 310.4 785.275 310.36 785.507 310.281C785.739 310.198 785.94 310.075 786.109 309.913C786.278 309.751 786.407 309.55 786.497 309.311L787.904 309.565C787.791 309.979 787.589 310.342 787.297 310.654C787.009 310.962 786.646 311.202 786.208 311.375C785.774 311.544 785.279 311.628 784.722 311.628ZM789.381 311.474V303.838H790.818V305.051H790.898C791.037 304.64 791.282 304.317 791.634 304.081C791.988 303.843 792.389 303.723 792.837 303.723C792.929 303.723 793.039 303.727 793.165 303.733C793.294 303.74 793.395 303.748 793.468 303.758V305.18C793.408 305.164 793.302 305.145 793.15 305.125C792.997 305.102 792.845 305.091 792.693 305.091C792.341 305.091 792.028 305.165 791.753 305.314C791.481 305.46 791.266 305.664 791.107 305.926C790.947 306.184 790.868 306.479 790.868 306.811V311.474H789.381ZM801.343 311.474H798.047V301.292H801.447C802.445 301.292 803.302 301.496 804.018 301.904C804.734 302.308 805.282 302.89 805.663 303.649C806.048 304.405 806.24 305.311 806.24 306.368C806.24 307.429 806.046 308.34 805.658 309.103C805.274 309.865 804.717 310.452 803.988 310.863C803.259 311.27 802.377 311.474 801.343 311.474ZM799.583 310.132H801.259C802.034 310.132 802.679 309.986 803.192 309.694C803.706 309.399 804.091 308.973 804.346 308.417C804.601 307.856 804.729 307.174 804.729 306.368C804.729 305.57 804.601 304.892 804.346 304.335C804.094 303.778 803.718 303.356 803.217 303.067C802.717 302.779 802.095 302.635 801.353 302.635H799.583V310.132ZM809.987 311.643C809.503 311.643 809.066 311.554 808.675 311.375C808.284 311.192 807.974 310.929 807.745 310.584C807.52 310.24 807.407 309.817 807.407 309.316C807.407 308.886 807.49 308.531 807.656 308.253C807.821 307.974 808.045 307.754 808.327 307.591C808.609 307.429 808.923 307.306 809.271 307.223C809.619 307.141 809.974 307.078 810.335 307.034C810.793 306.981 811.164 306.938 811.449 306.905C811.734 306.869 811.941 306.811 812.07 306.731C812.2 306.652 812.264 306.522 812.264 306.343V306.309C812.264 305.874 812.142 305.538 811.896 305.299C811.655 305.061 811.293 304.941 810.813 304.941C810.312 304.941 809.918 305.052 809.629 305.275C809.344 305.493 809.147 305.737 809.038 306.005L807.641 305.687C807.806 305.223 808.048 304.849 808.367 304.564C808.688 304.275 809.058 304.066 809.475 303.937C809.893 303.805 810.332 303.738 810.793 303.738C811.098 303.738 811.421 303.775 811.762 303.848C812.107 303.917 812.428 304.047 812.727 304.235C813.028 304.424 813.275 304.695 813.467 305.046C813.66 305.394 813.756 305.846 813.756 306.403V311.474H812.304V310.43H812.244C812.148 310.622 812.004 310.811 811.812 310.997C811.62 311.182 811.373 311.337 811.071 311.459C810.77 311.582 810.408 311.643 809.987 311.643ZM810.311 310.45C810.721 310.45 811.073 310.369 811.364 310.206C811.659 310.044 811.883 309.832 812.036 309.57C812.191 309.305 812.269 309.021 812.269 308.72V307.735C812.216 307.789 812.114 307.838 811.961 307.885C811.812 307.928 811.641 307.966 811.449 307.999C811.257 308.029 811.07 308.057 810.887 308.083C810.705 308.107 810.552 308.127 810.43 308.143C810.141 308.18 809.878 308.241 809.639 308.327C809.404 308.413 809.215 308.538 809.073 308.7C808.933 308.859 808.864 309.071 808.864 309.336C808.864 309.704 809 309.983 809.271 310.172C809.543 310.357 809.89 310.45 810.311 310.45ZM819.034 303.838V305.031H814.863V303.838H819.034ZM815.982 302.008H817.468V309.232C817.468 309.52 817.511 309.737 817.598 309.883C817.684 310.026 817.795 310.124 817.931 310.177C818.07 310.226 818.221 310.251 818.383 310.251C818.502 310.251 818.607 310.243 818.696 310.226C818.786 310.21 818.855 310.196 818.905 310.186L819.174 311.414C819.087 311.448 818.965 311.481 818.806 311.514C818.647 311.55 818.448 311.57 818.209 311.574C817.818 311.58 817.453 311.511 817.115 311.365C816.777 311.219 816.504 310.994 816.295 310.689C816.086 310.384 815.982 310.001 815.982 309.54V302.008ZM822.635 311.643C822.151 311.643 821.714 311.554 821.323 311.375C820.931 311.192 820.622 310.929 820.393 310.584C820.167 310.24 820.055 309.817 820.055 309.316C820.055 308.886 820.138 308.531 820.303 308.253C820.469 307.974 820.693 307.754 820.975 307.591C821.256 307.429 821.571 307.306 821.919 307.223C822.267 307.141 822.622 307.078 822.983 307.034C823.44 306.981 823.812 306.938 824.097 306.905C824.382 306.869 824.589 306.811 824.718 306.731C824.847 306.652 824.912 306.522 824.912 306.343V306.309C824.912 305.874 824.789 305.538 824.544 305.299C824.302 305.061 823.941 304.941 823.46 304.941C822.96 304.941 822.565 305.052 822.277 305.275C821.992 305.493 821.795 305.737 821.685 306.005L820.288 305.687C820.454 305.223 820.696 304.849 821.014 304.564C821.336 304.275 821.705 304.066 822.123 303.937C822.541 303.805 822.98 303.738 823.44 303.738C823.745 303.738 824.069 303.775 824.41 303.848C824.755 303.917 825.076 304.047 825.374 304.235C825.676 304.424 825.923 304.695 826.115 305.046C826.307 305.394 826.404 305.846 826.404 306.403V311.474H824.952V310.43H824.892C824.796 310.622 824.652 310.811 824.46 310.997C824.267 311.182 824.02 311.337 823.719 311.459C823.417 311.582 823.056 311.643 822.635 311.643ZM822.958 310.45C823.369 310.45 823.721 310.369 824.012 310.206C824.307 310.044 824.531 309.832 824.683 309.57C824.839 309.305 824.917 309.021 824.917 308.72V307.735C824.864 307.789 824.761 307.838 824.609 307.885C824.46 307.928 824.289 307.966 824.097 307.999C823.904 308.029 823.717 308.057 823.535 308.083C823.353 308.107 823.2 308.127 823.078 308.143C822.789 308.18 822.526 308.241 822.287 308.327C822.052 308.413 821.863 308.538 821.72 308.7C821.581 308.859 821.511 309.071 821.511 309.336C821.511 309.704 821.647 309.983 821.919 310.172C822.191 310.357 822.537 310.45 822.958 310.45Z" fill="#363636"/>
<rect x="69.7927" y="71.7927" width="1083.82" height="665.676" rx="11.2073" stroke="url(#paint0_linear_1583_9256)" stroke-opacity="0.2" stroke-width="1.58549"/>
</g>
</g>
<rect x="69.7927" y="71.7927" width="1083.82" height="665.676" rx="11.8912" stroke="black" stroke-opacity="0.1" stroke-width="1.58549" shape-rendering="crispEdges"/>
</g>
</g>
<defs>
<filter id="filter0_f_1583_9256" x="239.164" y="-807.766" width="1867.39" height="1852.49" filterUnits="userSpaceOnUse" color-interpolation-filters="sRGB">
<feFlood flood-opacity="0" result="BackgroundImageFix"/>
<feBlend mode="normal" in="SourceGraphic" in2="BackgroundImageFix" result="shape"/>
<feGaussianBlur stdDeviation="185.624" result="effect1_foregroundBlur_1583_9256"/>
</filter>
<filter id="filter1_f_1583_9256" x="-551.15" y="-843.934" width="1946.05" height="1880.78" filterUnits="userSpaceOnUse" color-interpolation-filters="sRGB">
<feFlood flood-opacity="0" result="BackgroundImageFix"/>
<feBlend mode="normal" in="SourceGraphic" in2="BackgroundImageFix" result="shape"/>
<feGaussianBlur stdDeviation="243.632" result="effect1_foregroundBlur_1583_9256"/>
</filter>
<filter id="filter2_f_1583_9256" x="-689.856" y="-434.643" width="2383.14" height="2240.79" filterUnits="userSpaceOnUse" color-interpolation-filters="sRGB">
<feFlood flood-opacity="0" result="BackgroundImageFix"/>
<feBlend mode="normal" in="SourceGraphic" in2="BackgroundImageFix" result="shape"/>
<feGaussianBlur stdDeviation="243.632" result="effect1_foregroundBlur_1583_9256"/>
</filter>
<filter id="filter3_f_1583_9256" x="199.133" y="-550.578" width="2304.81" height="2318.78" filterUnits="userSpaceOnUse" color-interpolation-filters="sRGB">
<feFlood flood-opacity="0" result="BackgroundImageFix"/>
<feBlend mode="normal" in="SourceGraphic" in2="BackgroundImageFix" result="shape"/>
<feGaussianBlur stdDeviation="243.632" result="effect1_foregroundBlur_1583_9256"/>
</filter>
<filter id="filter4_ddd_1583_9256" x="11.2238" y="22.8531" width="1200.96" height="784.954" filterUnits="userSpaceOnUse" color-interpolation-filters="sRGB">
<feFlood flood-opacity="0" result="BackgroundImageFix"/>
<feColorMatrix in="SourceAlpha" type="matrix" values="0 0 0 0 0 0 0 0 0 0 0 0 0 0 0 0 0 0 127 0" result="hardAlpha"/>
<feMorphology radius="8.55944" operator="dilate" in="SourceAlpha" result="effect1_dropShadow_1583_9256"/>
<feOffset dy="9.62937"/>
<feGaussianBlur stdDeviation="24.6084"/>
<feComposite in2="hardAlpha" operator="out"/>
<feColorMatrix type="matrix" values="0 0 0 0 0 0 0 0 0 0 0 0 0 0 0 0 0 0 0.12 0"/>
<feBlend mode="normal" in2="BackgroundImageFix" result="effect1_dropShadow_1583_9256"/>
<feColorMatrix in="SourceAlpha" type="matrix" values="0 0 0 0 0 0 0 0 0 0 0 0 0 0 0 0 0 0 127 0" result="hardAlpha"/>
<feMorphology radius="3.20979" operator="dilate" in="SourceAlpha" result="effect2_dropShadow_1583_9256"/>
<feOffset dy="25.6783"/>
<feGaussianBlur stdDeviation="20.3287"/>
<feComposite in2="hardAlpha" operator="out"/>
<feColorMatrix type="matrix" values="0 0 0 0 0 0 0 0 0 0 0 0 0 0 0 0 0 0 0.14 0"/>
<feBlend mode="normal" in2="effect1_dropShadow_1583_9256" result="effect2_dropShadow_1583_9256"/>
<feColorMatrix in="SourceAlpha" type="matrix" values="0 0 0 0 0 0 0 0 0 0 0 0 0 0 0 0 0 0 127 0" result="hardAlpha"/>
<feMorphology radius="7.48951" operator="erode" in="SourceAlpha" result="effect3_dropShadow_1583_9256"/>
<feOffset dy="11.7692"/>
<feGaussianBlur stdDeviation="8.02448"/>
<feComposite in2="hardAlpha" operator="out"/>
<feColorMatrix type="matrix" values="0 0 0 0 0 0 0 0 0 0 0 0 0 0 0 0 0 0 0.2 0"/>
<feBlend mode="normal" in2="effect2_dropShadow_1583_9256" result="effect3_dropShadow_1583_9256"/>
<feBlend mode="normal" in="SourceGraphic" in2="effect3_dropShadow_1583_9256" result="shape"/>
</filter>
<filter id="filter5_dddddd_1583_9256" x="-50.3253" y="71" width="1324.06" height="935.743" filterUnits="userSpaceOnUse" color-interpolation-filters="sRGB">
<feFlood flood-opacity="0" result="BackgroundImageFix"/>
<feColorMatrix in="SourceAlpha" type="matrix" values="0 0 0 0 0 0 0 0 0 0 0 0 0 0 0 0 0 0 127 0" result="hardAlpha"/>
<feOffset dy="4.12755"/>
<feGaussianBlur stdDeviation="1.65102"/>
<feColorMatrix type="matrix" values="0 0 0 0 0 0 0 0 0 0 0 0 0 0 0 0 0 0 0.0224916 0"/>
<feBlend mode="normal" in2="BackgroundImageFix" result="effect1_dropShadow_1583_9256"/>
<feColorMatrix in="SourceAlpha" type="matrix" values="0 0 0 0 0 0 0 0 0 0 0 0 0 0 0 0 0 0 127 0" result="hardAlpha"/>
<feOffset dy="9.91907"/>
<feGaussianBlur stdDeviation="3.96763"/>
<feColorMatrix type="matrix" values="0 0 0 0 0 0 0 0 0 0 0 0 0 0 0 0 0 0 0.0323114 0"/>
<feBlend mode="normal" in2="effect1_dropShadow_1583_9256" result="effect2_dropShadow_1583_9256"/>
<feColorMatrix in="SourceAlpha" type="matrix" values="0 0 0 0 0 0 0 0 0 0 0 0 0 0 0 0 0 0 127 0" result="hardAlpha"/>
<feOffset dy="18.6767"/>
<feGaussianBlur stdDeviation="7.47069"/>
<feColorMatrix type="matrix" values="0 0 0 0 0 0 0 0 0 0 0 0 0 0 0 0 0 0 0.04 0"/>
<feBlend mode="normal" in2="effect2_dropShadow_1583_9256" result="effect3_dropShadow_1583_9256"/>
<feColorMatrix in="SourceAlpha" type="matrix" values="0 0 0 0 0 0 0 0 0 0 0 0 0 0 0 0 0 0 127 0" result="hardAlpha"/>
<feOffset dy="33.3161"/>
<feGaussianBlur stdDeviation="13.3264"/>
<feColorMatrix type="matrix" values="0 0 0 0 0 0 0 0 0 0 0 0 0 0 0 0 0 0 0.0476886 0"/>
<feBlend mode="normal" in2="effect3_dropShadow_1583_9256" result="effect4_dropShadow_1583_9256"/>
<feColorMatrix in="SourceAlpha" type="matrix" values="0 0 0 0 0 0 0 0 0 0 0 0 0 0 0 0 0 0 127 0" result="hardAlpha"/>
<feOffset dy="62.3141"/>
<feGaussianBlur stdDeviation="24.9256"/>
<feColorMatrix type="matrix" values="0 0 0 0 0 0 0 0 0 0 0 0 0 0 0 0 0 0 0.0575083 0"/>
<feBlend mode="normal" in2="effect4_dropShadow_1583_9256" result="effect5_dropShadow_1583_9256"/>
<feColorMatrix in="SourceAlpha" type="matrix" values="0 0 0 0 0 0 0 0 0 0 0 0 0 0 0 0 0 0 127 0" result="hardAlpha"/>
<feOffset dy="149.157"/>
<feGaussianBlur stdDeviation="59.6626"/>
<feColorMatrix type="matrix" values="0 0 0 0 0 0 0 0 0 0 0 0 0 0 0 0 0 0 0.08 0"/>
<feBlend mode="normal" in2="effect5_dropShadow_1583_9256" result="effect6_dropShadow_1583_9256"/>
<feBlend mode="normal" in="SourceGraphic" in2="effect6_dropShadow_1583_9256" result="shape"/>
</filter>
<linearGradient id="paint0_linear_1583_9256" x1="424.134" y1="38.6889" x2="922.244" y2="898.948" gradientUnits="userSpaceOnUse">
<stop stop-color="white"/>
<stop offset="1" stop-color="white" stop-opacity="0"/>
</linearGradient>
<clipPath id="clip0_1583_9256">
<rect width="1224" height="810.35" fill="white"/>
</clipPath>
<clipPath id="clip1_1583_9256">
<rect x="69" y="71" width="1085.41" height="667.261" rx="12.6839" fill="white"/>
</clipPath>
</defs>
</svg>
