<svg width="48" height="49" viewBox="0 0 48 49" fill="none" xmlns="http://www.w3.org/2000/svg">
<rect y="0.459961" width="48" height="48" rx="24" fill="#00A4BA" fill-opacity="0.15"/>
<path fill-rule="evenodd" clip-rule="evenodd" d="M16.5 15.46L17.25 15.46C18.9069 15.46 20.25 16.8031 20.25 18.46V19.6669L20.9946 18.9223C21.2875 18.6294 21.7623 18.6294 22.0552 18.9223C22.3481 19.2152 22.3481 19.6901 22.0552 19.983L20.0552 21.983C19.7623 22.2759 19.2875 22.2759 18.9946 21.983L16.9946 19.983C16.7017 19.6901 16.7017 19.2152 16.9946 18.9223C17.2875 18.6294 17.7623 18.6294 18.0552 18.9223L18.75 19.6171V18.46C18.75 17.6315 18.0784 16.96 17.25 16.96L16.5 16.96C16.0858 16.96 15.75 16.6242 15.75 16.21C15.75 15.7957 16.0858 15.46 16.5 15.46ZM23.25 18.46C23.25 18.0457 23.5858 17.71 24 17.71H30C31.5188 17.71 32.75 18.9412 32.75 20.46V28.46C32.75 29.9787 31.5188 31.21 30 31.21H18C16.4812 31.21 15.25 29.9787 15.25 28.46V23.46C15.25 23.0457 15.5858 22.71 16 22.71C16.4142 22.71 16.75 23.0457 16.75 23.46V28.46C16.75 29.1503 17.3096 29.71 18 29.71H30C30.6904 29.71 31.25 29.1503 31.25 28.46V20.46C31.25 19.7696 30.6904 19.21 30 19.21H24C23.5858 19.21 23.25 18.8742 23.25 18.46ZM21.604 23.9417C21.6121 23.9492 21.6201 23.9568 21.6279 23.9646C21.7874 24.1241 21.8269 24.3051 21.8368 24.3522C21.8527 24.4273 21.8553 24.4929 21.8544 24.5398C21.8531 24.6165 21.8404 24.7543 21.7674 24.9004C21.6948 25.0455 21.5771 25.1632 21.432 25.2358C21.2754 25.3141 21.1288 25.3225 21.0566 25.3225C20.9844 25.3225 20.8378 25.3141 20.6812 25.2358C20.6091 25.1997 20.5432 25.1523 20.4862 25.0953C20.3059 24.9149 20.2626 24.7033 20.2529 24.5872C20.2471 24.5179 20.249 24.4332 20.2685 24.342C20.2811 24.2719 20.3037 24.2037 20.3357 24.1396C20.5266 23.7578 20.9011 23.71 21.0378 23.71C21.2083 23.71 21.4272 23.7667 21.604 23.9417ZM24.5177 23.9547C24.5211 23.958 24.5244 23.9613 24.5278 23.9646C24.6824 24.1193 24.7236 24.2939 24.7342 24.3402C24.751 24.4138 24.7549 24.4786 24.7549 24.5262C24.7549 24.6022 24.7451 24.7467 24.6683 24.9004C24.5957 25.0455 24.478 25.1632 24.3329 25.2358C24.1762 25.3141 24.0296 25.3225 23.9574 25.3225C23.8853 25.3225 23.7387 25.3141 23.582 25.2358C23.5099 25.1997 23.4441 25.1523 23.3871 25.0953C23.2068 24.9149 23.1635 24.7032 23.1538 24.5872C23.148 24.5179 23.1499 24.4332 23.1693 24.342C23.182 24.2719 23.2046 24.2037 23.2366 24.1396C23.4275 23.7578 23.802 23.71 23.9387 23.71C24.1101 23.71 24.3304 23.7673 24.5078 23.9446C24.5111 23.948 24.5144 23.9513 24.5177 23.9547ZM27.5177 23.9548C27.5211 23.958 27.5244 23.9613 27.5278 23.9646C27.6824 24.1193 27.7236 24.2939 27.7342 24.3402C27.751 24.4138 27.7549 24.4786 27.7549 24.5262C27.7549 24.6022 27.7451 24.7467 27.6683 24.9004C27.5957 25.0455 27.478 25.1632 27.3329 25.2358C27.1762 25.3141 27.0296 25.3225 26.9574 25.3225C26.8853 25.3225 26.7387 25.3141 26.582 25.2358C26.5099 25.1997 26.4441 25.1523 26.3871 25.0953C26.2068 24.9149 26.1635 24.7032 26.1538 24.5872C26.148 24.5179 26.1499 24.4332 26.1693 24.342C26.182 24.2719 26.2046 24.2037 26.2366 24.1396C26.4275 23.7578 26.802 23.71 26.9387 23.71C27.1101 23.71 27.3304 23.7673 27.5078 23.9446C27.5111 23.948 27.5144 23.9514 27.5177 23.9548Z" fill="#00A4BA"/>
<rect x="0.5" y="0.959961" width="47" height="47" rx="23.5" stroke="#00A4BA" stroke-opacity="0.15"/>
</svg>
