<svg width="48" height="48" viewBox="0 0 48 48" fill="none" xmlns="http://www.w3.org/2000/svg">
  <rect width="48" height="48" rx="24" fill="#00D2EF" fill-opacity="0.15"/>
  <path fill-rule="evenodd" clip-rule="evenodd" d="M14.25 21C14.25 20.5858 14.5858 20.25 15 20.25H33C33.4142 20.25 33.75 20.5858 33.75 21C33.75 21.4142 33.4142 21.75 33 21.75H15C14.5858 21.75 14.25 21.4142 14.25 21Z" fill="#00D2EF"/>
  <path fill-rule="evenodd" clip-rule="evenodd" d="M18.25 25C18.25 24.5858 18.5858 24.25 19 24.25H21.5C21.9142 24.25 22.25 24.5858 22.25 25C22.25 25.4142 21.9142 25.75 21.5 25.75H19C18.5858 25.75 18.25 25.4142 18.25 25Z" fill="#00D2EF"/>
  <path fill-rule="evenodd" clip-rule="evenodd" d="M14.25 31C14.25 30.5858 14.5858 30.25 15 30.25H23C23.4142 30.25 23.75 30.5858 23.75 31C23.75 31.4142 23.4142 31.75 23 31.75H15C14.5858 31.75 14.25 31.4142 14.25 31Z" fill="#00D2EF"/>
  <path fill-rule="evenodd" clip-rule="evenodd" d="M20.4697 28.4697C20.7626 28.1768 21.2374 28.1768 21.5303 28.4697L23.5303 30.4697C23.8232 30.7626 23.8232 31.2374 23.5303 31.5303L21.5303 33.5303C21.2374 33.8232 20.7626 33.8232 20.4697 33.5303C20.1768 33.2374 20.1768 32.7626 20.4697 32.4697L21.9393 31L20.4697 29.5303C20.1768 29.2374 20.1768 28.7626 20.4697 28.4697Z" fill="#00D2EF"/>
  <path fill-rule="evenodd" clip-rule="evenodd" d="M18 17.75C16.7572 17.75 15.75 18.7572 15.75 20V27C15.75 27.4142 15.4142 27.75 15 27.75C14.5858 27.75 14.25 27.4142 14.25 27V20C14.25 17.9288 15.9288 16.25 18 16.25H30C32.0712 16.25 33.75 17.9288 33.75 20V28C33.75 30.0712 32.0712 31.75 30 31.75H27C26.5858 31.75 26.25 31.4142 26.25 31C26.25 30.5858 26.5858 30.25 27 30.25H30C31.2428 30.25 32.25 29.2428 32.25 28V20C32.25 18.7572 31.2428 17.75 30 17.75H18Z" fill="#00D2EF"/>
  <rect x="0.5" y="0.5" width="47" height="47" rx="23.5" stroke="#00D2EF" stroke-opacity="0.15"/>
</svg>
