<svg width="48" height="48" viewBox="0 0 48 48" fill="none" xmlns="http://www.w3.org/2000/svg">
<rect width="48" height="48" rx="24" fill="#00A4BA" fill-opacity="0.15"/>
<path fill-rule="evenodd" clip-rule="evenodd" d="M28.8854 15.9005C29.446 15.6997 30.0517 15.6998 30.6123 15.9008L30.6137 15.9013L32.2545 16.4932C32.5518 16.6005 32.75 16.8826 32.75 17.1987V19.0525C32.75 20.2098 31.9611 21.0766 31.3585 21.5828C31.039 21.8511 30.7233 22.059 30.4892 22.1994C30.3714 22.2701 30.2721 22.3249 30.2006 22.3629C30.1649 22.3819 30.1359 22.3967 30.1149 22.4073L30.0894 22.42L30.0814 22.4239L30.0786 22.4253L30.0775 22.4258C30.0773 22.4259 30.0766 22.4262 29.7522 21.75L30.0775 22.4258C29.8798 22.5206 29.6497 22.5246 29.4491 22.436C29.3955 22.4123 29.3454 22.3827 29.2995 22.348C29.2995 22.3479 29.2996 22.348 29.2995 22.348C29.2281 22.31 29.1287 22.2551 29.0109 22.1845C28.777 22.0443 28.4614 21.8366 28.142 21.5689C27.5403 21.0644 26.75 20.1993 26.75 19.045V17.1912C26.75 16.8742 26.9493 16.5914 27.2479 16.4849L28.8854 15.9005C28.8856 15.9005 28.8852 15.9006 28.8854 15.9005ZM29.7623 20.886C29.5774 20.7741 29.3398 20.6157 29.1057 20.4194C28.5835 19.9816 28.25 19.5018 28.25 19.045V17.7199L29.391 17.3128C29.6242 17.2291 29.8721 17.2291 30.1054 17.3126C30.1052 17.3125 30.1056 17.3126 30.1054 17.3126L31.25 17.7255V19.0525C31.25 19.5145 30.915 19.9964 30.3938 20.4342C30.1701 20.622 29.9432 20.7752 29.7623 20.886ZM18 18.75C17.3096 18.75 16.75 19.3096 16.75 20V28C16.75 28.6904 17.3096 29.25 18 29.25H30C30.6904 29.25 31.25 28.6904 31.25 28V24C31.25 23.5858 31.5858 23.25 32 23.25C32.4142 23.25 32.75 23.5858 32.75 24V28C32.75 29.5188 31.5188 30.75 30 30.75H18C16.4812 30.75 15.25 29.5188 15.25 28V20C15.25 18.4812 16.4812 17.25 18 17.25H24C24.4142 17.25 24.75 17.5858 24.75 18C24.75 18.4142 24.4142 18.75 24 18.75H18ZM21.604 23.4818C21.6121 23.4892 21.6201 23.4968 21.6279 23.5047C21.7874 23.6641 21.8269 23.8452 21.8368 23.8922C21.8527 23.9674 21.8553 24.033 21.8544 24.0799C21.853 24.1566 21.8404 24.2943 21.7674 24.4404C21.6948 24.5856 21.5771 24.7032 21.432 24.7758C21.2754 24.8541 21.1287 24.8625 21.0566 24.8625C20.9844 24.8625 20.8378 24.8541 20.6812 24.7758C20.6091 24.7398 20.5432 24.6923 20.4862 24.6353C20.3059 24.455 20.2626 24.2433 20.2529 24.1273C20.2471 24.0579 20.249 23.9733 20.2685 23.882C20.2811 23.8119 20.3037 23.7437 20.3357 23.6796C20.5266 23.2979 20.9011 23.25 21.0378 23.25C21.2083 23.25 21.4272 23.3067 21.604 23.4818ZM24.5177 23.4948C24.5211 23.498 24.5244 23.5013 24.5278 23.5047C24.6824 23.6593 24.7236 23.8339 24.7342 23.8802C24.751 23.9538 24.7549 24.0187 24.7549 24.0662C24.7549 24.1423 24.7451 24.2867 24.6683 24.4404C24.5957 24.5856 24.478 24.7032 24.3329 24.7758C24.1762 24.8541 24.0296 24.8625 23.9574 24.8625C23.8853 24.8625 23.7387 24.8541 23.582 24.7758C23.5099 24.7398 23.4441 24.6923 23.3871 24.6353C23.2068 24.455 23.1635 24.2433 23.1538 24.1273C23.148 24.0579 23.1499 23.9732 23.1693 23.882C23.182 23.8119 23.2046 23.7437 23.2366 23.6796C23.4275 23.2979 23.802 23.25 23.9387 23.25C24.1101 23.25 24.3304 23.3073 24.5078 23.4847C24.5111 23.488 24.5144 23.4914 24.5177 23.4948ZM27.5177 23.4948C27.5211 23.498 27.5244 23.5013 27.5278 23.5047C27.6824 23.6593 27.7236 23.8339 27.7342 23.8802C27.751 23.9538 27.7549 24.0187 27.7549 24.0662C27.7549 24.1423 27.7451 24.2867 27.6683 24.4404C27.5957 24.5856 27.478 24.7032 27.3329 24.7758C27.1762 24.8541 27.0296 24.8625 26.9574 24.8625C26.8853 24.8625 26.7387 24.8541 26.582 24.7758C26.5099 24.7398 26.4441 24.6923 26.3871 24.6353C26.2068 24.455 26.1635 24.2433 26.1538 24.1273C26.148 24.0579 26.1499 23.9732 26.1693 23.882C26.182 23.8119 26.2046 23.7437 26.2366 23.6796C26.4275 23.2979 26.802 23.25 26.9387 23.25C27.1101 23.25 27.3304 23.3073 27.5078 23.4847C27.5111 23.488 27.5144 23.4914 27.5177 23.4948Z" fill="#00A4BA"/>
<rect x="0.5" y="0.5" width="47" height="47" rx="23.5" stroke="#00A4BA" stroke-opacity="0.15"/>
</svg>
