<svg width="48" height="48" viewBox="0 0 48 48" fill="none" xmlns="http://www.w3.org/2000/svg">
  <rect width="48" height="48" rx="24" fill="#00A4BA" fill-opacity="0.15"/>
  <rect opacity="0.7" x="15" y="17" width="18" height="14" rx="2" stroke="#33B6C7" stroke-width="1.5" stroke-linecap="round" stroke-linejoin="round"/>
  <path d="M22.0652 20.9464C22.6449 21.5261 22.6449 22.4789 22.0652 23.0652C21.4789 23.6449 20.5261 23.6449 19.9398 23.0652C19.3534 22.4789 19.3534 21.5261 19.9398 20.9398C20.5194 20.3534 21.4722 20.3534 22.0586 20.9398" stroke="#00A4BA" stroke-width="1.5" stroke-linecap="round" stroke-linejoin="round"/>
  <path d="M28.5 25.5H26.5" stroke="#00A4BA" stroke-width="1.5" stroke-linecap="round" stroke-linejoin="round"/>
  <path d="M29.5 22.5H26.5" stroke="#00A4BA" stroke-width="1.5" stroke-linecap="round" stroke-linejoin="round"/>
  <path d="M24 28C24 26.8954 23.1046 26 22 26H20C18.8954 26 18 26.8954 18 28" stroke="#00A4BA" stroke-width="1.5" stroke-linecap="round" stroke-linejoin="round"/>
  <rect x="0.5" y="0.5" width="47" height="47" rx="23.5" stroke="#00A4BA" stroke-opacity="0.15"/>
</svg>
