<svg width="48" height="48" viewBox="0 0 48 48" fill="none" xmlns="http://www.w3.org/2000/svg">
<rect width="48" height="48" rx="24" fill="#00A4BA" fill-opacity="0.15"/>
<path fill-rule="evenodd" clip-rule="evenodd" d="M30.03 13.75C30.4442 13.75 30.78 14.0858 30.78 14.5V15.0943C31.3171 15.2323 31.7967 15.515 32.1736 15.8994L32.6969 15.5993C33.0562 15.3933 33.5146 15.5176 33.7206 15.8769C33.9267 16.2362 33.8024 16.6946 33.443 16.9006L32.9225 17.1991C32.9926 17.4537 33.03 17.7223 33.03 18C33.03 18.278 32.992 18.5473 32.9209 18.803L33.4356 19.1009C33.7941 19.3084 33.9166 19.7672 33.7091 20.1257C33.5016 20.4842 33.0428 20.6066 32.6843 20.3992L32.1694 20.1012C31.7932 20.4841 31.3154 20.7668 30.78 20.9051V21.5C30.78 21.9142 30.4442 22.25 30.03 22.25C29.6158 22.25 29.28 21.9142 29.28 21.5V20.906C28.743 20.7684 28.2654 20.4864 27.89 20.1043L27.3731 20.4007C27.0137 20.6067 26.5554 20.4824 26.3494 20.1231C26.1433 19.7638 26.2676 19.3054 26.6269 19.0994L27.1392 18.8057C27.068 18.5491 27.03 18.2789 27.03 18C27.03 17.7213 27.0675 17.4518 27.1377 17.1962L26.6243 16.8991C26.2658 16.6916 26.1434 16.2328 26.3509 15.8743C26.5583 15.5158 27.0171 15.3934 27.3757 15.6008L27.8859 15.8961C28.2621 15.5127 28.7413 15.2307 29.28 15.0934V14.5C29.28 14.0858 29.6158 13.75 30.03 13.75ZM28.7071 17.2863C28.7148 17.2747 28.7221 17.2628 28.7291 17.2506C28.7371 17.2369 28.7445 17.2231 28.7515 17.2091C29.0142 16.7817 29.4857 16.5 30.03 16.5C30.5827 16.5 31.0659 16.7969 31.3261 17.2423C31.3272 17.2442 31.3283 17.2461 31.3294 17.248C31.331 17.251 31.3328 17.2539 31.3345 17.2568C31.4589 17.4754 31.53 17.7289 31.53 18C31.53 18.8258 30.8558 19.5 30.03 19.5C29.5061 19.5 29.0483 19.2346 28.7804 18.8318C28.7689 18.8048 28.7556 18.7781 28.7406 18.752C28.7245 18.7238 28.7068 18.6971 28.6877 18.6718C28.5867 18.4697 28.53 18.2415 28.53 18C28.53 17.7407 28.594 17.4979 28.7071 17.2863ZM18 18.75C17.3096 18.75 16.75 19.3096 16.75 20V28C16.75 28.6904 17.3096 29.25 18 29.25H30C30.6904 29.25 31.25 28.6904 31.25 28V24C31.25 23.5858 31.5858 23.25 32 23.25C32.4142 23.25 32.75 23.5858 32.75 24V28C32.75 29.5188 31.5188 30.75 30 30.75H18C16.4812 30.75 15.25 29.5188 15.25 28V20C15.25 18.4812 16.4812 17.25 18 17.25H24C24.4142 17.25 24.75 17.5858 24.75 18C24.75 18.4142 24.4142 18.75 24 18.75H18ZM21.604 23.4818C21.6121 23.4892 21.6201 23.4968 21.6279 23.5047C21.7874 23.6641 21.8269 23.8451 21.8368 23.8922C21.8527 23.9674 21.8553 24.033 21.8544 24.0799C21.8531 24.1566 21.8404 24.2943 21.7674 24.4404C21.6948 24.5856 21.5771 24.7032 21.432 24.7758C21.2754 24.8541 21.1288 24.8625 21.0566 24.8625C20.9844 24.8625 20.8378 24.8541 20.6812 24.7758C20.6091 24.7398 20.5432 24.6923 20.4862 24.6353C20.3059 24.455 20.2626 24.2433 20.2529 24.1273C20.2471 24.0579 20.249 23.9733 20.2685 23.882C20.2811 23.8119 20.3037 23.7437 20.3357 23.6796C20.5266 23.2979 20.9011 23.25 21.0378 23.25C21.2083 23.25 21.4272 23.3067 21.604 23.4818ZM24.5177 23.4948C24.5211 23.498 24.5244 23.5013 24.5278 23.5047C24.6824 23.6593 24.7236 23.8339 24.7342 23.8802C24.751 23.9538 24.7549 24.0187 24.7549 24.0662C24.7549 24.1423 24.7451 24.2867 24.6683 24.4404C24.5957 24.5856 24.478 24.7032 24.3329 24.7758C24.1762 24.8541 24.0296 24.8625 23.9574 24.8625C23.8853 24.8625 23.7387 24.8541 23.582 24.7758C23.5099 24.7398 23.4441 24.6923 23.3871 24.6353C23.2068 24.455 23.1635 24.2433 23.1538 24.1273C23.148 24.0579 23.1499 23.9733 23.1693 23.882C23.182 23.8119 23.2046 23.7437 23.2366 23.6796C23.4275 23.2979 23.802 23.25 23.9387 23.25C24.1101 23.25 24.3304 23.3073 24.5078 23.4847C24.5111 23.488 24.5144 23.4914 24.5177 23.4948ZM27.5177 23.4948C27.5211 23.498 27.5244 23.5013 27.5278 23.5047C27.6824 23.6593 27.7236 23.8339 27.7342 23.8802C27.751 23.9538 27.7549 24.0187 27.7549 24.0662C27.7549 24.1423 27.7451 24.2867 27.6683 24.4404C27.5957 24.5856 27.478 24.7032 27.3329 24.7758C27.1762 24.8541 27.0296 24.8625 26.9574 24.8625C26.8853 24.8625 26.7387 24.8541 26.582 24.7758C26.5099 24.7398 26.4441 24.6923 26.3871 24.6353C26.2068 24.455 26.1635 24.2433 26.1538 24.1273C26.148 24.0579 26.1499 23.9732 26.1693 23.882C26.182 23.8119 26.2046 23.7437 26.2366 23.6796C26.4275 23.2979 26.802 23.25 26.9387 23.25C27.1101 23.25 27.3304 23.3073 27.5078 23.4847C27.5111 23.488 27.5144 23.4914 27.5177 23.4948Z" fill="#00A4BA"/>
<rect x="0.5" y="0.5" width="47" height="47" rx="23.5" stroke="#00A4BA" stroke-opacity="0.15"/>
</svg>
