<svg width="48" height="49" viewBox="0 0 48 49" fill="none" xmlns="http://www.w3.org/2000/svg">
<rect y="0.459961" width="48" height="48" rx="24" fill="#00A4BA" fill-opacity="0.15"/>
<path fill-rule="evenodd" clip-rule="evenodd" d="M25.8345 16.4079C23.1494 15.8 20.2456 16.5305 18.1664 18.6098C15.0847 21.6889 14.9457 26.5871 17.7511 29.8325V28.9494C17.7511 28.5352 18.0869 28.1994 18.5011 28.1994C18.9153 28.1994 19.2511 28.5352 19.2511 28.9494V31.4494C19.2511 31.8636 18.9153 32.1994 18.5011 32.1994H18.352C18.3477 32.1995 18.3435 32.1995 18.3392 32.1994H16.0011C15.5869 32.1994 15.2511 31.8636 15.2511 31.4494C15.2511 31.0352 15.5869 30.6994 16.0011 30.6994H16.5191C13.3042 26.865 13.4995 21.1526 17.1058 17.5491M17.1058 17.5491C19.5665 15.0885 23.0029 14.2289 26.1657 14.9449C26.5697 15.0364 26.823 15.438 26.7316 15.842C26.6401 16.246 26.2385 16.4994 25.8345 16.4079M31.4761 18.2174H32.0011C32.4153 18.2174 32.7511 17.8816 32.7511 17.4674C32.7511 17.0532 32.4153 16.7174 32.0011 16.7174H29.6583C29.6538 16.7174 29.6493 16.7174 29.6449 16.7174H29.5011C29.0869 16.7174 28.7511 17.0532 28.7511 17.4674V19.9674C28.7511 20.3816 29.0869 20.7174 29.5011 20.7174C29.9153 20.7174 30.2511 20.3816 30.2511 19.9674V19.092C33.0307 22.3294 32.8877 27.2238 29.8204 30.2955C27.7419 32.3737 24.8287 33.1 22.1528 32.494C21.7488 32.4025 21.3471 32.6558 21.2556 33.0597C21.1641 33.4637 21.4174 33.8654 21.8214 33.9569C24.9734 34.6708 28.42 33.8172 30.8814 31.3558C34.4738 27.7582 34.6729 22.0446 31.4761 18.2174ZM24.2538 21.3028C24.0933 21.1423 23.8429 21.151 23.7003 21.2968L23.6954 21.3018L20.8454 24.1618L20.8444 24.1628C20.6873 24.3199 20.6873 24.575 20.8444 24.7321L23.7007 27.5884C23.8588 27.7406 24.1199 27.7404 24.2778 27.588L26.9581 24.9172C26.9926 24.8455 27.0392 24.7781 27.0978 24.7181C27.2561 24.5562 27.2476 24.2966 27.1038 24.1528L24.2538 21.3028ZM28.3699 25.526C28.886 24.7872 28.825 23.7527 28.1644 23.0921L25.3144 20.2421C24.5758 19.5035 23.3684 19.4939 22.6306 20.2452L19.7838 23.1021C19.7839 23.102 19.7836 23.1022 19.7838 23.1021C19.0413 23.845 19.041 25.05 19.7838 25.7928L22.6438 28.6528L22.6498 28.6587C23.3912 29.3837 24.587 29.3837 25.3284 28.6587L28.1935 25.8037C28.2729 25.7246 28.3328 25.6295 28.3699 25.526Z" fill="#00A4BA"/>
<rect x="0.5" y="0.959961" width="47" height="47" rx="23.5" stroke="#00A4BA" stroke-opacity="0.15"/>
</svg>
