<svg width="48" height="49" viewBox="0 0 48 49" fill="none" xmlns="http://www.w3.org/2000/svg">
<rect y="0.459961" width="48" height="48" rx="24" fill="#00A4BA" fill-opacity="0.15"/>
<path fill-rule="evenodd" clip-rule="evenodd" d="M24 16.21C19.4427 16.21 15.75 19.8947 15.75 24.46C15.75 29.0172 19.4347 32.71 24 32.71C28.5568 32.71 32.25 29.0167 32.25 24.46C32.25 19.9032 28.5568 16.21 24 16.21ZM14.25 24.46C14.25 19.0653 18.6153 14.71 24 14.71C29.3852 14.71 33.75 19.0747 33.75 24.46C33.75 29.8452 29.3852 34.21 24 34.21C18.6053 34.21 14.25 29.8447 14.25 24.46Z" fill="#00A4BA"/>
<path fill-rule="evenodd" clip-rule="evenodd" d="M21.24 22.29C21.24 20.7657 22.4658 19.54 23.99 19.54C25.5018 19.54 26.74 20.7633 26.74 22.29C26.74 23.4816 25.969 24.1074 25.4376 24.4762L25.4261 24.4841C24.9689 24.7889 24.75 25.033 24.75 25.46V25.71C24.75 26.1242 24.4142 26.46 24 26.46C23.5858 26.46 23.25 26.1242 23.25 25.71V25.46C23.25 24.2513 24.0255 23.6158 24.5878 23.24C25.0327 22.9306 25.24 22.6967 25.24 22.29C25.24 21.5966 24.6782 21.04 23.99 21.04C23.2942 21.04 22.74 21.5942 22.74 22.29C22.74 22.7042 22.4042 23.04 21.99 23.04C21.5758 23.04 21.24 22.7042 21.24 22.29Z" fill="#00A4BA"/>
<path fill-rule="evenodd" clip-rule="evenodd" d="M23.9939 27.71C23.9956 27.71 23.9973 27.71 23.999 27.71C24.0238 27.71 24.0483 27.7112 24.0725 27.7135C24.5566 27.7547 24.999 28.1501 24.999 28.71C24.999 29.0051 24.8662 29.2509 24.7031 29.414C24.5399 29.5772 24.2941 29.71 23.999 29.71C23.4255 29.71 22.999 29.2347 22.999 28.71C22.999 28.1799 23.4067 27.7491 23.9271 27.7125C23.9475 27.7108 23.9681 27.71 23.989 27.71C23.9906 27.71 23.9923 27.71 23.9939 27.71Z" fill="#00A4BA"/>
<rect x="0.5" y="0.959961" width="47" height="47" rx="23.5" stroke="#00A4BA" stroke-opacity="0.15"/>
</svg>
