<svg width="48" height="49" viewBox="0 0 48 49" fill="none" xmlns="http://www.w3.org/2000/svg">
<rect y="0.459961" width="48" height="48" rx="24" fill="#00A4BA" fill-opacity="0.15"/>
<path fill-rule="evenodd" clip-rule="evenodd" d="M32.2976 25.8579C32.6842 25.8579 32.9976 25.5445 32.9976 25.1579V19.1579C32.9976 18.7713 32.6842 18.4579 32.2976 18.4579H27.0362H26.9976L26.2976 18.4579C25.911 18.4579 25.5976 18.7713 25.5976 19.1579L25.5976 19.8579V25.1579C25.5976 25.5445 25.911 25.8579 26.2976 25.8579H32.2976ZM31.5976 24.4579V19.8579H26.9976V24.4579H31.5976Z" fill="#00A4BA"/>
<path fill-rule="evenodd" clip-rule="evenodd" d="M26.2976 19.8579C26.6842 19.8579 26.9976 19.5445 26.9976 19.1579V15.1579C26.9976 14.7713 26.6842 14.4579 26.2976 14.4579H23.0362H22.9976L22.2976 14.4579C21.911 14.4579 21.5976 14.7713 21.5976 15.1579L21.5976 15.8579V19.1579C21.5976 19.5445 21.911 19.8579 22.2976 19.8579H26.2976ZM25.5976 18.4579V15.8579H22.9976V18.4579H25.5976Z" fill="#00A4BA"/>
<path fill-rule="evenodd" clip-rule="evenodd" d="M15.7 23.0591C15.3134 23.0591 15 23.3725 15 23.7591V29.7591C15 30.1457 15.3134 30.4591 15.7 30.4591H20.9614H21L21.7 30.4591C22.0866 30.4591 22.4 30.1457 22.4 29.7591L22.4 29.0591V23.7591C22.4 23.3725 22.0866 23.0591 21.7 23.0591H15.7ZM16.4 24.4591V29.0591H21V24.4591H16.4Z" fill="#00A4BA"/>
<path fill-rule="evenodd" clip-rule="evenodd" d="M21.7 29.0591C21.3134 29.0591 21 29.3725 21 29.7591V33.7591C21 34.1457 21.3134 34.4591 21.7 34.4591H24.9614H25L25.7 34.4591C26.0866 34.4591 26.4 34.1457 26.4 33.7591L26.4 33.0591V29.7591C26.4 29.3725 26.0866 29.0591 25.7 29.0591H21.7ZM22.4 30.4591V33.0591H25V30.4591H22.4Z" fill="#00A4BA"/>
<rect x="0.5" y="0.959961" width="47" height="47" rx="23.5" stroke="#00A4BA" stroke-opacity="0.15"/>
</svg>
