<svg width="48" height="49" viewBox="0 0 48 49" fill="none" xmlns="http://www.w3.org/2000/svg">
<rect y="0.459961" width="48" height="48" rx="24" fill="#00A4BA" fill-opacity="0.15"/>
<path fill-rule="evenodd" clip-rule="evenodd" d="M27.1672 19.8085C25.0103 17.6437 21.5168 17.6437 19.3599 19.8094L19.3579 19.8115C17.1937 21.9678 17.1921 25.4621 19.3598 27.6299C21.5163 29.7863 25.012 29.7879 27.18 27.629C29.3363 25.4719 29.336 21.9774 27.1792 19.8205C27.1773 19.8187 27.1755 19.8168 27.1737 19.815C27.1715 19.8129 27.1694 19.8107 27.1672 19.8085ZM28.2343 18.7544C28.2328 18.7529 28.2313 18.7513 28.2298 18.7498C25.487 15.997 21.0413 15.9966 18.2981 18.7499C15.5453 21.4937 15.5472 25.9386 18.2992 28.6905C21.0427 31.434 25.4867 31.4325 28.2387 28.6916L28.2398 28.6905C30.9827 25.9476 30.9827 21.5027 28.2398 18.7599C28.238 18.758 28.2362 18.7562 28.2343 18.7544Z" fill="#00A4BA"/>
<path fill-rule="evenodd" clip-rule="evenodd" d="M27.1792 27.6399C27.4721 27.347 27.9469 27.347 28.2398 27.6399L31.5298 30.9299C31.8227 31.2227 31.8227 31.6976 31.5298 31.9905C31.2369 32.2834 30.7621 32.2834 30.4692 31.9905L27.1792 28.7005C26.8863 28.4076 26.8863 27.9327 27.1792 27.6399Z" fill="#00A4BA"/>
<rect x="0.5" y="0.959961" width="47" height="47" rx="23.5" stroke="#00A4BA" stroke-opacity="0.15"/>
</svg>
