<svg width="48" height="49" viewBox="0 0 48 49" fill="none" xmlns="http://www.w3.org/2000/svg">
<rect y="0.459961" width="48" height="48" rx="24" fill="#00A4BA" fill-opacity="0.15"/>
<path fill-rule="evenodd" clip-rule="evenodd" d="M16.3 15.46C16.3 15.0734 16.6134 14.76 17 14.76H23C23.3866 14.76 23.7 15.0734 23.7 15.46V21.46C23.7 21.8466 23.3866 22.16 23 22.16H17C16.6134 22.16 16.3 21.8466 16.3 21.46V15.46ZM17.7 16.16V20.76H22.3V16.16H17.7Z" fill="#00A4BA"/>
<path fill-rule="evenodd" clip-rule="evenodd" d="M18.3 29.46C18.3 29.0734 18.6134 28.76 19 28.76H23C23.3866 28.76 23.7 29.0734 23.7 29.46V33.46C23.7 33.8466 23.3866 34.16 23 34.16H19C18.6134 34.16 18.3 33.8466 18.3 33.46V29.46ZM19.7 30.16V32.76H22.3V30.16H19.7Z" fill="#00A4BA"/>
<path fill-rule="evenodd" clip-rule="evenodd" d="M22.3 21.46C22.3 21.0734 22.6134 20.76 23 20.76H31C31.3866 20.76 31.7 21.0734 31.7 21.46V29.46C31.7 29.8466 31.3866 30.16 31 30.16H23C22.6134 30.16 22.3 29.8466 22.3 29.46V21.46ZM23.7 22.16V28.76H30.3V22.16H23.7Z" fill="#00A4BA"/>
<rect x="0.5" y="0.959961" width="47" height="47" rx="23.5" stroke="#00A4BA" stroke-opacity="0.15"/>
</svg>
