<svg width="114" height="114" viewBox="0 0 114 114" fill="none" xmlns="http://www.w3.org/2000/svg">
<g filter="url(#filter0_ddi_773_20353)">
<g clip-path="url(#clip0_773_20353)">
<rect x="5" y="1" width="104" height="104" rx="52" fill="white"/>
<rect x="5" y="1" width="104" height="104" rx="52" fill="url(#paint0_radial_773_20353)"/>
<path opacity="0.7" d="M89.5781 53H57M89.5781 53H109.125M89.5781 53V32.3672M89.5781 53H143.875M89.5781 53V85.5781M89.5781 53H196M57 53V20.4219M57 53H24.4219M57 53V85.5781M196 53H109.125M196 53V-33.875M196 53H143.875M196 53V192H143.875M57 20.4219V-33.875M57 20.4219H89.5781M57 20.4219V0.875M57 20.4219H36.3672M57 20.4219V-86M109.125 53V32.3672M196 -33.875V-86H57M196 -33.875H109.125M57 -86V-33.875M57 -86V0.875M57 -86H-29.875M57 -33.875H109.125M109.125 -33.875V20.4219M109.125 20.4219H97.1797M109.125 20.4219V32.3672M89.5781 20.4219H97.1797M89.5781 20.4219V32.3672M97.1797 20.4219V32.3672M97.1797 32.3672H89.5781M97.1797 32.3672H109.125M24.4219 53H-29.875M24.4219 53V20.4219M24.4219 53H4.875M24.4219 53V73.6328M24.4219 53H-82M57 0.875H36.3672M-29.875 -86H-82V53M-29.875 -86V0.875M-82 53H-29.875M-82 53H4.875M-82 53V139.875M-29.875 53V0.875M-29.875 0.875H24.4219M24.4219 0.875V12.8203M24.4219 0.875H36.3672M24.4219 20.4219V12.8203M24.4219 20.4219H36.3672M24.4219 12.8203H36.3672M36.3672 12.8203V20.4219M36.3672 12.8203V0.875M57 85.5781V105.125M57 85.5781H77.6328M57 85.5781V139.875M57 85.5781H24.4219M57 85.5781V192M57 192V105.125M57 192H143.875M57 192V139.875M57 192H-82V139.875M57 105.125H77.6328M143.875 192V105.125M143.875 53V105.125M143.875 105.125H89.5781M89.5781 105.125V93.1797M89.5781 105.125H77.6328M89.5781 85.5781V93.1797M89.5781 85.5781H77.6328M89.5781 93.1797H77.6328M77.6328 93.1797V85.5781M77.6328 93.1797V105.125M4.875 53V73.6328M-82 139.875H4.875M57 139.875H4.875M4.875 139.875V85.5781M4.875 85.5781H16.8203M4.875 85.5781V73.6328M24.4219 85.5781H16.8203M24.4219 85.5781V73.6328M16.8203 85.5781V73.6328M16.8203 73.6328H24.4219M16.8203 73.6328H4.875" stroke="url(#paint1_radial_773_20353)" stroke-width="1.31132"/>
<path d="M67.3729 62.0783C67.3729 61.1032 68.1634 60.3127 69.1386 60.3127H73.1406C74.1157 60.3127 74.9062 61.1032 74.9062 62.0783V68.0814C74.9062 69.0566 74.1157 69.8471 73.1406 69.8471C72.1655 69.8471 71.375 69.0566 71.375 68.0814V63.8439H69.1386C68.1634 63.8439 67.3729 63.0534 67.3729 62.0783Z" fill="#5383FF"/>
<path fill-rule="evenodd" clip-rule="evenodd" d="M43.125 31.4741C40.1922 31.4741 37.8281 33.8382 37.8281 36.771V60.3126C39.3473 59.1732 41.2038 58.547 43.125 58.547C45.0462 58.547 46.9027 59.1732 48.4219 60.3126V36.771C48.4219 33.842 46.0381 31.4741 43.125 31.4741ZM48.4219 67.3752C48.4219 65.9703 47.8638 64.6231 46.8705 63.6297C45.8771 62.6364 44.5298 62.0783 43.125 62.0783C41.7202 62.0783 40.3729 62.6364 39.3795 63.6297C38.3862 64.6231 37.8281 65.9703 37.8281 67.3752C37.8281 68.78 38.3862 70.1273 39.3795 71.1206C40.3729 72.114 41.7202 72.672 43.125 72.672C44.5298 72.672 45.8771 72.114 46.8705 71.1206C47.8638 70.1273 48.4219 68.78 48.4219 67.3752ZM50.1875 72.672C51.3269 71.1529 51.9531 69.2963 51.9531 67.3752V36.771C51.9531 36.5732 51.9466 36.377 51.9338 36.1825H73.7292C75.3494 36.1825 76.6719 37.4929 76.6719 39.1252V49.7189C76.6719 50.694 77.4624 51.4845 78.4375 51.4845C79.4126 51.4845 80.2031 50.694 80.2031 49.7189V39.1252C80.2031 35.5312 77.2881 32.6512 73.7292 32.6512H50.9336C49.4497 29.8479 46.5008 27.9429 43.125 27.9429C38.242 27.9429 34.2969 31.888 34.2969 36.771V67.3752C34.2969 69.7165 35.227 71.962 36.8826 73.6176C38.5382 75.2732 40.7836 76.2033 43.125 76.2033H54.8958C55.871 76.2033 56.6615 75.4128 56.6615 74.4377C56.6615 73.4625 55.871 72.672 54.8958 72.672H50.1875ZM60.1927 60.3127C60.1927 56.7372 63.0912 53.8387 66.6667 53.8387H76.0833C79.6588 53.8387 82.5573 56.7372 82.5573 60.3127V69.7293C82.5573 73.3048 79.6588 76.2033 76.0833 76.2033H66.6667C63.0912 76.2033 60.1927 73.3048 60.1927 69.7293V60.3127ZM66.6667 57.37C65.0415 57.37 63.724 58.6875 63.724 60.3127V69.7293C63.724 71.3545 65.0415 72.672 66.6667 72.672H76.0833C77.7085 72.672 79.026 71.3545 79.026 69.7293V60.3127C79.026 58.6875 77.7085 57.37 76.0833 57.37H66.6667Z" fill="#5383FF"/>
</g>
</g>
<defs>
<filter id="filter0_ddi_773_20353" x="0" y="0" width="114" height="114" filterUnits="userSpaceOnUse" color-interpolation-filters="sRGB">
<feFlood flood-opacity="0" result="BackgroundImageFix"/>
<feColorMatrix in="SourceAlpha" type="matrix" values="0 0 0 0 0 0 0 0 0 0 0 0 0 0 0 0 0 0 127 0" result="hardAlpha"/>
<feMorphology radius="1" operator="erode" in="SourceAlpha" result="effect1_dropShadow_773_20353"/>
<feOffset dy="4"/>
<feGaussianBlur stdDeviation="3"/>
<feComposite in2="hardAlpha" operator="out"/>
<feColorMatrix type="matrix" values="0 0 0 0 0.027451 0 0 0 0 0.0392157 0 0 0 0 0.105882 0 0 0 0.05 0"/>
<feBlend mode="normal" in2="BackgroundImageFix" result="effect1_dropShadow_773_20353"/>
<feColorMatrix in="SourceAlpha" type="matrix" values="0 0 0 0 0 0 0 0 0 0 0 0 0 0 0 0 0 0 127 0" result="hardAlpha"/>
<feMorphology radius="2" operator="erode" in="SourceAlpha" result="effect2_dropShadow_773_20353"/>
<feOffset dy="2"/>
<feGaussianBlur stdDeviation="2"/>
<feComposite in2="hardAlpha" operator="out"/>
<feColorMatrix type="matrix" values="0 0 0 0 0.027451 0 0 0 0 0.0392157 0 0 0 0 0.105882 0 0 0 0.05 0"/>
<feBlend mode="normal" in2="effect1_dropShadow_773_20353" result="effect2_dropShadow_773_20353"/>
<feBlend mode="normal" in="SourceGraphic" in2="effect2_dropShadow_773_20353" result="shape"/>
<feColorMatrix in="SourceAlpha" type="matrix" values="0 0 0 0 0 0 0 0 0 0 0 0 0 0 0 0 0 0 127 0" result="hardAlpha"/>
<feMorphology radius="1" operator="erode" in="SourceAlpha" result="effect3_innerShadow_773_20353"/>
<feOffset/>
<feComposite in2="hardAlpha" operator="arithmetic" k2="-1" k3="1"/>
<feColorMatrix type="matrix" values="0 0 0 0 0.764706 0 0 0 0 0.831373 0 0 0 0 1 0 0 0 1 0"/>
<feBlend mode="normal" in2="shape" result="effect3_innerShadow_773_20353"/>
</filter>
<radialGradient id="paint0_radial_773_20353" cx="0" cy="0" r="1" gradientUnits="userSpaceOnUse" gradientTransform="translate(5 1) rotate(45) scale(147.078)">
<stop stop-color="#5383FF" stop-opacity="0"/>
<stop offset="1" stop-color="#5383FF" stop-opacity="0.1"/>
</radialGradient>
<radialGradient id="paint1_radial_773_20353" cx="0" cy="0" r="1" gradientUnits="userSpaceOnUse" gradientTransform="translate(36.5 30) rotate(43.7267) scale(170.815 230.998)">
<stop stop-color="#E0E7FF" stop-opacity="0"/>
<stop offset="1" stop-color="#E0E7FF"/>
</radialGradient>
<clipPath id="clip0_773_20353">
<rect x="5" y="1" width="104" height="104" rx="52" fill="white"/>
</clipPath>
</defs>
</svg>
