<svg width="18" height="18" viewBox="0 0 18 18" fill="none" xmlns="http://www.w3.org/2000/svg">
<path fill-rule="evenodd" clip-rule="evenodd" d="M9 1.4375C4.8225 1.4375 1.4375 4.81514 1.4375 9C1.4375 13.1775 4.81514 16.5625 9 16.5625C13.1771 16.5625 16.5625 13.1771 16.5625 9C16.5625 4.82295 13.1771 1.4375 9 1.4375ZM0.0625 9C0.0625 4.05486 4.064 0.0625 9 0.0625C13.9364 0.0625 17.9375 4.06355 17.9375 9C17.9375 13.9364 13.9364 17.9375 9 17.9375C4.05486 17.9375 0.0625 13.936 0.0625 9ZM9 4.1875C9.3797 4.1875 9.6875 4.4953 9.6875 4.875V9.45833C9.6875 9.83803 9.3797 10.1458 9 10.1458C8.6203 10.1458 8.3125 9.83803 8.3125 9.45833V4.875C8.3125 4.4953 8.6203 4.1875 9 4.1875ZM8.99444 11.9792C8.99598 11.9792 8.99753 11.9792 8.99908 11.9792C9.02182 11.9792 9.04429 11.9803 9.06646 11.9824C9.51023 12.0202 9.91575 12.3826 9.91575 12.8958C9.91575 13.1664 9.79406 13.3917 9.64449 13.5412C9.49492 13.6908 9.26963 13.8125 8.99908 13.8125C8.47342 13.8125 8.08242 13.3768 8.08242 12.8958C8.08242 12.41 8.45616 12.015 8.93315 11.9815C8.95187 11.9799 8.9708 11.9792 8.98992 11.9792C8.99142 11.9792 8.99293 11.9792 8.99444 11.9792Z" fill="#F56C9D"/>
</svg>
