<svg width="114" height="114" viewBox="0 0 114 114" fill="none" xmlns="http://www.w3.org/2000/svg">
  <g filter="url(#filter0_ddi_941_18848)">
    <rect x="5" y="1" width="104" height="104" rx="52" fill="#1E2237"/>
    <rect x="5" y="1" width="104" height="104" rx="52" fill="url(#paint0_radial_941_18848)" fill-opacity="0.3"/>
    <rect opacity="0.1" width="38" height="24" rx="8" transform="matrix(1 0 0 -1 38 65)" fill="url(#paint1_linear_941_18848)"/>
    <path d="M57 41H43C40.4227 41 38.3334 43.0893 38.3334 45.6667V60.3333C38.3334 62.9107 40.4227 65 43 65H71C73.5774 65 75.6667 62.9107 75.6667 60.3333V53" stroke="#BFC7DE" stroke-width="2.5" stroke-linecap="round" stroke-linejoin="round"/>
    <path d="M56.994 53.0817C57.0174 53.105 57.0174 53.1983 56.994 53.245C56.9474 53.2683 56.854 53.2683 56.8074 53.245C56.7607 53.1983 56.7607 53.105 56.784 53.0583C56.784 53.035 56.784 53.035 56.784 53.035C56.8074 52.9883 56.9007 52.9883 56.9474 53.035M63.994 53.0817C64.0174 53.105 64.0174 53.1983 63.994 53.245C63.9474 53.2683 63.854 53.2683 63.8074 53.245C63.7607 53.1983 63.7607 53.105 63.784 53.0583C63.784 53.035 63.784 53.035 63.784 53.035C63.8074 52.9883 63.9007 52.9883 63.9474 53.035M50.2277 53.0817C50.251 53.105 50.2487 53.1983 50.2253 53.245C50.1787 53.2683 50.0853 53.2683 50.0387 53.245C49.992 53.1983 49.992 53.105 50.0153 53.0583C50.0153 53.035 50.0153 53.035 50.0153 53.035C50.0387 52.9883 50.132 52.9883 50.1787 53.035" stroke="#6A738C" stroke-width="2.5" stroke-linecap="round" stroke-linejoin="round"/>
    <path d="M70.422 47.75C70.422 47.75 75.6667 45.2341 75.6667 41.4558V37.1304L71.8381 35.7491C70.9115 35.417 69.915 35.417 68.9884 35.7491L65.1667 37.1129V41.4384C65.1667 45.1974 70.4115 47.715 70.4115 47.715L70.422 47.75Z" stroke="#6A738C" stroke-width="2.5" stroke-linecap="round" stroke-linejoin="round"/>
  </g>
  <defs>
    <filter id="filter0_ddi_941_18848" x="0" y="0" width="114" height="114" filterUnits="userSpaceOnUse" color-interpolation-filters="sRGB">
      <feFlood flood-opacity="0" result="BackgroundImageFix"/>
      <feColorMatrix in="SourceAlpha" type="matrix" values="0 0 0 0 0 0 0 0 0 0 0 0 0 0 0 0 0 0 127 0" result="hardAlpha"/>
      <feMorphology radius="1" operator="erode" in="SourceAlpha" result="effect1_dropShadow_941_18848"/>
      <feOffset dy="4"/>
      <feGaussianBlur stdDeviation="3"/>
      <feComposite in2="hardAlpha" operator="out"/>
      <feColorMatrix type="matrix" values="0 0 0 0 0.027451 0 0 0 0 0.0392157 0 0 0 0 0.105882 0 0 0 0.05 0"/>
      <feBlend mode="normal" in2="BackgroundImageFix" result="effect1_dropShadow_941_18848"/>
      <feColorMatrix in="SourceAlpha" type="matrix" values="0 0 0 0 0 0 0 0 0 0 0 0 0 0 0 0 0 0 127 0" result="hardAlpha"/>
      <feMorphology radius="2" operator="erode" in="SourceAlpha" result="effect2_dropShadow_941_18848"/>
      <feOffset dy="2"/>
      <feGaussianBlur stdDeviation="2"/>
      <feComposite in2="hardAlpha" operator="out"/>
      <feColorMatrix type="matrix" values="0 0 0 0 0.027451 0 0 0 0 0.0392157 0 0 0 0 0.105882 0 0 0 0.05 0"/>
      <feBlend mode="normal" in2="effect1_dropShadow_941_18848" result="effect2_dropShadow_941_18848"/>
      <feBlend mode="normal" in="SourceGraphic" in2="effect2_dropShadow_941_18848" result="shape"/>
      <feColorMatrix in="SourceAlpha" type="matrix" values="0 0 0 0 0 0 0 0 0 0 0 0 0 0 0 0 0 0 127 0" result="hardAlpha"/>
      <feMorphology radius="1" operator="erode" in="SourceAlpha" result="effect3_innerShadow_941_18848"/>
      <feOffset/>
      <feComposite in2="hardAlpha" operator="arithmetic" k2="-1" k3="1"/>
      <feColorMatrix type="matrix" values="0 0 0 0 0.415686 0 0 0 0 0.45098 0 0 0 0 0.54902 0 0 0 0.2 0"/>
      <feBlend mode="normal" in2="shape" result="effect3_innerShadow_941_18848"/>
    </filter>
    <radialGradient id="paint0_radial_941_18848" cx="0" cy="0" r="1" gradientUnits="userSpaceOnUse" gradientTransform="translate(5 1) rotate(45) scale(147.078)">
      <stop stop-color="#6A738C"/>
      <stop offset="0.973958" stop-color="#6A738C" stop-opacity="0.1"/>
    </radialGradient>
    <linearGradient id="paint1_linear_941_18848" x1="5.76782" y1="-1.28572" x2="28.0263" y2="26.8249" gradientUnits="userSpaceOnUse">
      <stop stop-color="#6A738C"/>
      <stop offset="1" stop-color="#6A738C" stop-opacity="0"/>
    </linearGradient>
  </defs>
</svg>
