<svg width="32" height="32" viewBox="0 0 32 32" fill="none" xmlns="http://www.w3.org/2000/svg">
<path d="M10.2274 11.1731C10.3228 10.9503 10.677 10.9386 10.7809 11.1614C11.2852 12.0158 11.7738 12.8805 12.2741 13.7389C14.6468 12.66 17.4846 12.6616 19.8589 13.7373C20.3608 12.882 20.8463 12.0158 21.3521 11.1621C21.4662 10.9104 21.8798 10.9667 21.9283 11.2388C21.9619 11.4553 21.7852 11.632 21.6969 11.8157C21.27 12.5482 20.8502 13.2847 20.4226 14.0164C21.7187 14.727 22.8359 15.7652 23.6208 17.0192C24.3744 18.2138 24.8255 19.5928 24.9397 21C19.0232 20.9977 13.1067 21.0031 7.18945 20.9969C7.40366 18.1066 9.14937 15.3829 11.712 14.018C11.2469 13.2237 10.7919 12.4231 10.3267 11.6281C10.254 11.492 10.1383 11.3294 10.2274 11.1731ZM11.6831 17.0638C11.2351 17.2506 11.0991 17.8979 11.4556 18.2372C11.8199 18.6555 12.5853 18.4498 12.6971 17.9073C12.8659 17.3491 12.2077 16.7917 11.6831 17.0638ZM19.8824 17.0481C19.3992 17.2178 19.2499 17.9167 19.6408 18.2568C20.0176 18.6609 20.7744 18.4272 20.8658 17.8831C21.0065 17.3413 20.3952 16.8222 19.8824 17.0481Z" fill="#3DDB86"/>
</svg>
