<svg width="32" height="32" viewBox="0 0 32 32" fill="none" xmlns="http://www.w3.org/2000/svg">
    <path
        d="M18.6496 8H18.6829C18.7261 8.46931 18.6613 8.9462 18.5053 9.39014C18.278 10.0288 17.8935 10.6227 17.3545 11.0413C16.8239 11.4621 16.1508 11.742 15.464 11.6913C15.3629 10.7094 15.8114 9.73483 16.4829 9.03711C17.0606 8.46363 17.8352 8.07424 18.6496 8Z"
        fill="#fff" />
    <path
        d="M16.2932 12.442C16.9606 12.1833 17.6375 11.8958 18.3629 11.8678C18.9769 11.8526 19.5954 11.9788 20.1556 12.2299C20.7412 12.4935 21.2469 12.9253 21.6049 13.4579C20.8443 13.9477 20.2291 14.695 19.992 15.5768C19.7844 16.3624 19.8503 17.2208 20.1825 17.9632C20.5409 18.7613 21.2227 19.3889 22.0121 19.751C21.7462 20.5904 21.3511 21.3893 20.8462 22.1105C20.5257 22.5756 20.1965 23.0438 19.7723 23.4215C19.4708 23.6889 19.1049 23.898 18.7019 23.9574C18.3833 24.004 18.0549 23.9745 17.7473 23.8809C17.4106 23.7802 17.1007 23.609 16.7678 23.4983C16.25 23.3203 15.6826 23.3014 15.1496 23.4177C14.5345 23.5472 13.9974 23.9358 13.3621 23.9874C12.9114 24.048 12.4599 23.8851 12.1015 23.6177C11.5807 23.2309 11.1894 22.7029 10.8194 22.1779C10.0035 21.0381 9.45422 19.7158 9.17278 18.3454C8.93604 17.1567 8.90839 15.8935 9.30763 14.7359C9.55422 14.0321 9.96141 13.3765 10.5258 12.8844C11.2364 12.2564 12.1856 11.8939 13.1368 11.9291C13.6474 11.9553 14.1311 12.1394 14.6011 12.3257C14.8773 12.4337 15.1527 12.5522 15.4466 12.6034C15.739 12.6545 16.0231 12.5386 16.2932 12.442Z"
        fill="#fff" />
</svg>