<svg width="32" height="32" viewBox="0 0 32 32" fill="none" xmlns="http://www.w3.org/2000/svg">
<path d="M12.584 12.9528C13.4489 15.5978 13.7766 20.3162 16.3058 20.3162C16.4984 20.3162 16.693 20.2974 16.8883 20.2603C14.5891 19.7242 14.3166 15.0571 12.9136 12.6401C12.8036 12.7401 12.6944 12.8443 12.584 12.9528Z" fill="url(#paint0_linear_775_14102)"/>
<path d="M12.9141 12.6392C14.317 15.0561 14.5895 19.7233 16.8887 20.2594C17.0694 20.2262 17.2504 20.176 17.4318 20.1127C15.368 19.1015 14.7976 14.5694 13.2043 12.3876C13.1078 12.4679 13.0109 12.552 12.9141 12.6392Z" fill="url(#paint1_linear_775_14102)"/>
<path d="M14.935 11.2021C14.7428 11.2021 14.5479 11.221 14.3522 11.2581C13.8404 11.3546 13.3205 11.575 12.7964 11.9085C12.9396 12.0497 13.0758 12.2114 13.2039 12.3878C13.737 11.9455 14.2665 11.6186 14.7941 11.4221C14.9921 11.3488 15.1894 11.2936 15.3874 11.2574C15.2446 11.221 15.094 11.2021 14.935 11.2021Z" fill="#14559A"/>
<path d="M19.0423 19.1815C19.2534 19.0136 19.4649 18.8279 19.6768 18.6253C18.798 15.9926 18.4834 11.2067 15.9364 11.2067C15.7543 11.2067 15.5705 11.2236 15.3872 11.2576C17.7072 11.8346 18.0044 16.8823 19.0423 19.1815Z" fill="url(#paint2_linear_775_14102)"/>
<path d="M15.3879 11.2573C15.2451 11.221 15.0946 11.2021 14.9355 11.2021L15.9371 11.2058C15.755 11.2058 15.5712 11.2228 15.3879 11.2572" fill="#3092C4"/>
<path d="M18.9973 19.7404C18.8977 19.6454 18.8032 19.5412 18.7101 19.4301C18.2817 19.7334 17.8548 19.9635 17.4307 20.1132C17.5816 20.1869 17.7398 20.2418 17.9077 20.2757C18.0378 20.3023 18.1725 20.3159 18.3141 20.3159C18.79 20.3159 19.1663 20.2595 19.4867 20.1059C19.3103 20.0105 19.1486 19.887 18.9973 19.7404Z" fill="#1969BC"/>
<path d="M14.7944 11.4223C16.8725 12.5092 17.0531 17.431 18.7112 19.4296C18.8224 19.3512 18.9324 19.2682 19.0424 19.1806C18.0045 16.8814 17.7077 11.8333 15.3881 11.2567C15.1901 11.2938 14.9924 11.3486 14.7944 11.4223Z" fill="url(#paint3_linear_775_14102)"/>
<path d="M13.2036 12.3876C14.7969 14.5695 15.3673 19.1015 17.4311 20.1128C17.8553 19.963 18.2821 19.733 18.7106 19.4296C17.0525 17.4311 16.8718 12.5092 14.7938 11.4224C14.2662 11.6184 13.7366 11.9453 13.2036 12.3876Z" fill="url(#paint4_linear_775_14102)"/>
<path d="M11.5647 12.8891C11.315 13.4538 11.0599 14.196 10.7515 15.1648C11.3648 14.3006 11.9761 13.5561 12.584 12.9528C12.5003 12.6954 12.4103 12.458 12.3135 12.2465C12.0649 12.4368 11.8144 12.651 11.5647 12.8891Z" fill="url(#paint5_linear_775_14102)"/>
<path d="M12.5356 12.0829C12.4623 12.1354 12.3886 12.189 12.3145 12.2458C12.4113 12.4573 12.5009 12.6947 12.5846 12.9521C12.695 12.844 12.8046 12.7394 12.9142 12.6394C12.7965 12.4372 12.6715 12.2504 12.5356 12.0829Z" fill="#2B74B1"/>
<path d="M12.7968 11.9093C12.7096 11.9645 12.6228 12.0228 12.5352 12.0838C12.671 12.2513 12.7961 12.4381 12.9142 12.6407C13.0111 12.5531 13.1079 12.4686 13.2044 12.3887C13.0763 12.2123 12.94 12.0506 12.7968 11.9093Z" fill="#125A9E"/>
<path d="M26.9706 11.0011C25.7954 15.5334 23.3406 19.1739 21.2827 20.0917H21.2788C21.2413 20.1087 21.2043 20.1241 21.1676 20.1392C21.1626 20.1422 21.158 20.1426 21.1541 20.1444C21.1433 20.1488 21.1332 20.1521 21.1224 20.1565C21.1174 20.1595 21.1128 20.1605 21.1082 20.1624C21.0908 20.1685 21.0738 20.1738 21.0568 20.1806C21.0495 20.1836 21.0426 20.1855 21.0356 20.188C21.0279 20.191 21.019 20.1939 21.0101 20.1963C21.0024 20.1994 20.9943 20.2016 20.9854 20.205C20.9781 20.208 20.9703 20.2093 20.9634 20.2124C20.9484 20.2167 20.9345 20.2204 20.9194 20.2257C20.9132 20.2257 20.9075 20.229 20.9009 20.2306C20.8916 20.2337 20.8812 20.2359 20.8712 20.2387C20.8642 20.2417 20.8584 20.2427 20.8511 20.2442C20.8407 20.2473 20.8291 20.2501 20.8187 20.2526C20.8048 20.2556 20.7924 20.2585 20.7793 20.2612C20.8723 20.2956 20.9692 20.3129 21.0738 20.3129C23.0252 20.3129 24.9929 16.8157 28.2485 11H26.9702L26.9706 11.0011Z" fill="url(#paint6_linear_775_14102)"/>
<path d="M10.3277 11.3867C10.329 11.3867 10.3305 11.3836 10.3313 11.3836C10.3328 11.3836 10.3352 11.3836 10.3359 11.3806H10.3384C10.3492 11.3769 10.3592 11.3725 10.37 11.3685C10.3728 11.3685 10.3742 11.3685 10.3762 11.3655C10.379 11.3655 10.3816 11.3624 10.3843 11.362C10.3959 11.3583 10.4075 11.354 10.4183 11.35H10.4201C10.446 11.3423 10.4699 11.3327 10.495 11.3237C10.4985 11.3237 10.502 11.3207 10.5062 11.3207C10.5166 11.3173 10.5274 11.3136 10.5382 11.3111C10.5433 11.308 10.5483 11.308 10.5529 11.3064C10.5641 11.3031 10.5749 11.2993 10.5853 11.2969C10.59 11.2969 10.5942 11.2938 10.5977 11.2935C10.6336 11.2836 10.6691 11.2744 10.705 11.2657C10.71 11.2657 10.7142 11.2627 10.7196 11.2623C10.73 11.2593 10.7397 11.2577 10.7509 11.2562C10.7555 11.2531 10.7609 11.2531 10.7663 11.2515C10.7767 11.2484 10.7868 11.2481 10.798 11.2456H10.8053C10.8269 11.2412 10.8489 11.2376 10.8705 11.2336H10.8837C10.8941 11.2305 10.9033 11.2302 10.9138 11.2283C10.9195 11.2283 10.9254 11.2252 10.9308 11.2252C10.9404 11.2252 10.9501 11.2222 10.9597 11.2209C10.9647 11.2209 10.9697 11.2209 10.9755 11.2178C10.9983 11.2148 11.0218 11.2135 11.0458 11.2116C10.9782 11.2051 10.9088 11.2008 10.8381 11.2008C8.64044 11.2008 5.61254 15.2785 4.24854 20.5593H4.51138C4.9479 19.7808 5.34005 19.0444 5.69861 18.3531C6.65387 14.6127 8.59952 12.0619 10.3279 11.3861" fill="url(#paint7_linear_775_14102)"/>
<path d="M11.5649 12.8883C11.8147 12.6502 12.0652 12.4359 12.3137 12.2457C12.257 12.1214 12.1983 12.0064 12.1354 11.901C11.9343 12.1449 11.7506 12.4668 11.5649 12.8883Z" fill="#0D82CA"/>
<path d="M11.7456 11.417C11.8891 11.5374 12.0177 11.703 12.1354 11.9014C12.1724 11.8558 12.2099 11.8137 12.2489 11.7744C12.0856 11.6219 11.9092 11.4969 11.7178 11.4027C11.7255 11.407 11.7332 11.4104 11.7412 11.4138C11.7412 11.4138 11.7443 11.4169 11.7456 11.4169" fill="#0D82CA"/>
<path d="M5.69824 18.3536C7.70217 14.492 8.65165 12.048 10.3275 11.3865C8.59954 12.0627 6.65351 14.6135 5.69824 18.3536Z" fill="url(#paint8_linear_775_14102)"/>
<path d="M12.2482 11.775C12.2093 11.8148 12.1722 11.8565 12.1348 11.902C12.1977 12.0074 12.2563 12.122 12.3135 12.2467C12.3876 12.19 12.4613 12.1363 12.5346 12.0838C12.4439 11.9719 12.3482 11.8681 12.2482 11.775Z" fill="#127BCA"/>
<path d="M6.60784 20.5423C6.59549 20.5453 6.58314 20.5453 6.57156 20.5466H6.56461C6.55418 20.5466 6.54337 20.5497 6.53374 20.5497H6.5287C6.50363 20.5527 6.47892 20.5527 6.45498 20.5547H6.44727C8.47551 20.4979 9.4026 19.4824 9.86267 18.0096C10.2124 16.893 10.4995 15.9524 10.7512 15.1631C9.90166 16.3588 9.04829 17.7842 8.19029 19.3809C7.77653 20.1505 7.14741 20.472 6.60783 20.5408" fill="url(#paint9_linear_775_14102)"/>
<path d="M6.6084 20.5416C7.14798 20.4729 7.7771 20.1518 8.19086 19.3818C9.04886 17.7854 9.90261 16.3597 10.7514 15.164C11.0601 14.1948 11.3149 13.453 11.565 12.8883C9.87328 14.4986 8.17503 17.176 6.6084 20.5409" fill="url(#paint10_linear_775_14102)"/>
<path d="M5.69846 18.3538C5.33991 19.045 4.94777 19.7815 4.51123 20.5599H5.27584C5.37697 19.7868 5.52055 19.0496 5.69846 18.3541" fill="#05A1E6"/>
<path d="M10.9754 11.2194C10.9693 11.2194 10.9646 11.2225 10.9592 11.2225C10.95 11.2255 10.9403 11.2255 10.9307 11.2265C10.9249 11.2265 10.9195 11.2265 10.9137 11.2296C10.9033 11.2326 10.8936 11.233 10.8836 11.2349C10.8789 11.2349 10.8743 11.2349 10.8705 11.2379C10.8484 11.2416 10.8268 11.2456 10.8052 11.2493H10.7979C10.7867 11.2524 10.7767 11.254 10.7662 11.2555C10.7608 11.2586 10.7554 11.2586 10.7504 11.2598C10.74 11.2629 10.7296 11.2642 10.7195 11.266C10.7141 11.2691 10.7099 11.2691 10.7049 11.2694C10.669 11.278 10.6335 11.2873 10.5976 11.2972C10.5937 11.2972 10.5898 11.3002 10.5852 11.3008C10.5744 11.3039 10.564 11.307 10.5528 11.3104C10.5481 11.3135 10.5428 11.3135 10.5381 11.3147C10.5273 11.3178 10.5165 11.3209 10.5061 11.3243C10.5019 11.3243 10.4984 11.3273 10.4945 11.3273C10.4698 11.3366 10.4455 11.3458 10.42 11.3536C10.4092 11.3569 10.3976 11.3613 10.3861 11.3653C10.3814 11.3684 10.3772 11.369 10.3718 11.3712C10.361 11.3745 10.3502 11.3789 10.3401 11.3829C10.3363 11.386 10.3324 11.3863 10.3297 11.3879C8.65387 12.0494 7.7044 14.4934 5.70046 18.355C5.52253 19.0505 5.37857 19.7877 5.27783 20.5608H5.38513C5.68734 20.5608 5.77264 20.5577 6.12039 20.5577H6.13815H6.18987H6.20762H6.21265H6.23041H6.24044H6.24739H6.26129H6.30452H6.34774H6.38402H6.39366H6.45734C6.48127 20.5546 6.50597 20.5546 6.53106 20.5527H6.5357C6.54613 20.5527 6.55654 20.5497 6.56657 20.5497H6.57389C6.58507 20.5497 6.59782 20.5466 6.61017 20.5453C8.1768 17.1805 9.87505 14.503 11.5667 12.8928C11.7528 12.4713 11.9361 12.1494 12.1368 11.9059C12.0195 11.7075 11.891 11.5415 11.7474 11.4211C11.7474 11.4211 11.7435 11.4211 11.7432 11.418C11.735 11.4146 11.7274 11.4106 11.7192 11.4066C11.7111 11.4022 11.7042 11.3989 11.6957 11.3945C11.6884 11.3915 11.6799 11.3874 11.6726 11.3834C11.6625 11.3804 11.6544 11.376 11.6455 11.372C11.6382 11.3689 11.6316 11.3658 11.6243 11.3627C11.6092 11.3568 11.5942 11.3507 11.5799 11.3442C11.5733 11.3411 11.5672 11.3395 11.561 11.3371C11.5506 11.3333 11.5386 11.3284 11.5278 11.3238C11.5224 11.3208 11.5162 11.3201 11.51 11.3179C11.4942 11.3127 11.4788 11.3071 11.4641 11.3022H11.4603C11.4425 11.2963 11.4252 11.292 11.407 11.287C11.4028 11.284 11.3993 11.284 11.3951 11.2834C11.3792 11.279 11.3653 11.2747 11.3503 11.2707C11.3465 11.2707 11.3429 11.2677 11.3399 11.2677C11.3036 11.2581 11.2662 11.2504 11.2283 11.2433C11.2244 11.2433 11.2206 11.2402 11.2168 11.2402C11.2006 11.2371 11.1847 11.2343 11.1685 11.2325C11.1646 11.2294 11.1623 11.2294 11.1589 11.2294C11.1396 11.2264 11.1207 11.2242 11.1018 11.222H11.0917C11.0763 11.219 11.062 11.2186 11.0477 11.217C11.0234 11.2201 11.0003 11.2214 10.9775 11.2235" fill="url(#paint11_linear_775_14102)"/>
<path d="M22.3802 13.5106C21.9946 14.7457 21.6824 15.7646 21.4106 16.6029C22.4686 15.1471 23.5107 13.3157 24.503 11.2021C23.3455 11.5657 22.7279 12.3979 22.3802 13.5106Z" fill="url(#paint12_linear_775_14102)"/>
<path d="M21.4436 20.0148C21.3895 20.0423 21.3355 20.0684 21.2822 20.092C23.3402 19.1741 25.7949 15.5337 26.9702 11.0013H26.7321C24.0318 15.8247 23.1634 19.0537 21.4436 20.0148Z" fill="url(#paint13_linear_775_14102)"/>
<path d="M20.1 19.6098C20.5477 19.0633 20.9125 18.1343 21.4104 16.6031C20.8361 17.3921 20.2579 18.0702 19.6793 18.6233C19.6793 18.6264 19.6793 18.6264 19.6763 18.6283C19.8025 19.0065 19.941 19.3404 20.0989 19.6098" fill="#079AE1"/>
<path d="M20.1002 19.6099C19.9478 19.7959 19.7864 19.9376 19.607 20.0425C19.5676 20.0654 19.5278 20.0869 19.4873 20.1066C19.6768 20.2089 19.8837 20.2772 20.1153 20.3046C20.1492 20.308 20.1828 20.3111 20.2179 20.3136H20.2241C20.2399 20.3136 20.2565 20.3136 20.2735 20.3166H20.2803H20.3309H20.3853H20.4023H20.4409C20.4471 20.3166 20.4536 20.3166 20.4598 20.3136C20.4718 20.3136 20.4845 20.3136 20.4968 20.3105H20.5012H20.5151C20.5277 20.3105 20.5416 20.3074 20.5552 20.3061H20.5583C20.5623 20.3061 20.5666 20.3031 20.5706 20.3031C20.5848 20.3 20.5996 20.2987 20.6135 20.2966H20.6261C20.6419 20.2935 20.6582 20.2916 20.6744 20.2886H20.6774H20.6821C20.7145 20.2824 20.7462 20.2762 20.7782 20.2682C20.5126 20.1709 20.2903 19.9416 20.0989 19.6151" fill="#1969BC"/>
<path d="M16.3057 20.3167C16.4983 20.3167 16.6928 20.2978 16.8881 20.2603C17.0687 20.2275 17.2497 20.1773 17.4311 20.114C17.5821 20.1877 17.7403 20.2426 17.9078 20.2765C18.0379 20.3031 18.173 20.3167 18.3146 20.3167H16.3057Z" fill="#1E5CB3"/>
<path d="M18.3143 20.3157C18.7899 20.3157 19.1666 20.2593 19.4865 20.1057C19.676 20.208 19.8829 20.2763 20.1145 20.3037C20.1485 20.3071 20.1821 20.3102 20.2172 20.3127H20.2234C20.2391 20.3127 20.2558 20.3127 20.2728 20.3157H20.2799H20.3304H18.313L18.3143 20.3157Z" fill="#1E5CB3"/>
<path d="M20.3325 20.3153H20.3873H20.4043H20.4425C20.449 20.3153 20.4552 20.3153 20.4614 20.3122C20.4734 20.3122 20.4861 20.3122 20.4988 20.3092H20.5029H20.5171C20.5297 20.3092 20.5436 20.3061 20.5569 20.3049H20.5602C20.5643 20.3049 20.5682 20.3018 20.5723 20.3018C20.5865 20.2988 20.6013 20.2975 20.6151 20.2953C20.6198 20.2953 20.6234 20.2953 20.6284 20.2923C20.6441 20.2892 20.6604 20.2876 20.6766 20.2845H20.6797H20.6844C20.7168 20.2784 20.7484 20.2722 20.7804 20.2642C20.8734 20.2985 20.9703 20.3159 21.0749 20.3159L20.3331 20.3189L20.3325 20.3153Z" fill="#1D60B5"/>
<path d="M19.677 18.6277V18.6246C19.4651 18.8273 19.2536 19.0129 19.0425 19.1808C18.9321 19.2684 18.8221 19.3514 18.7109 19.4298C18.8039 19.5409 18.8985 19.6451 18.9981 19.7401C19.1494 19.8867 19.3111 20.0103 19.4875 20.1056C19.5276 20.0858 19.5678 20.0643 19.6067 20.0415C19.7866 19.9365 19.9479 19.7949 20.1004 19.6088C19.9425 19.3394 19.804 19.0056 19.6778 18.6273" fill="#175FAB"/>
<path d="M25.9782 11.0013H24.977H24.8775H24.7833H24.7796C24.7148 11.0044 24.6519 11.0066 24.5897 11.0106C24.5604 11.0735 24.5303 11.1365 24.5013 11.1998C23.509 13.3133 22.4669 15.1447 21.409 16.6006C20.9115 18.1317 20.5464 19.0607 20.0986 19.6072C20.2901 19.9338 20.5128 20.1634 20.7775 20.2607C20.7853 20.2576 20.7914 20.2576 20.7984 20.256H20.8027C20.8073 20.256 20.8123 20.2529 20.8173 20.2529C20.8281 20.2499 20.8397 20.248 20.8505 20.2446C20.8575 20.2415 20.8633 20.2412 20.8702 20.239C20.8803 20.236 20.8907 20.2337 20.8999 20.2313C20.9061 20.2282 20.9123 20.2273 20.9185 20.226C20.9339 20.2211 20.9478 20.2174 20.9625 20.2127C20.9694 20.2097 20.9768 20.2072 20.9845 20.2053C20.993 20.2023 21.0015 20.2001 21.0092 20.1964C21.0181 20.1933 21.0269 20.1917 21.0347 20.1883C21.0416 20.1853 21.0489 20.1834 21.0555 20.1806C21.0728 20.1744 21.0899 20.1692 21.1072 20.1624C21.1119 20.1624 21.1165 20.1581 21.1215 20.1571C21.1319 20.1528 21.1427 20.1494 21.1532 20.1448C21.157 20.1417 21.1617 20.1414 21.1667 20.1398C21.2029 20.1247 21.2404 20.1092 21.2778 20.0924H21.2817C21.335 20.0689 21.389 20.0425 21.4427 20.0152C23.1629 19.0541 24.0313 15.8251 26.7316 11.0017H25.9774L25.9782 11.0013Z" fill="url(#paint14_linear_775_14102)"/>
<path d="M11.0459 11.2123C11.0502 11.2123 11.054 11.2123 11.0582 11.2153C11.0687 11.2153 11.0791 11.2153 11.0895 11.2187H11.0999C11.1188 11.2217 11.1378 11.2233 11.1571 11.2261C11.1606 11.2261 11.1636 11.2261 11.1667 11.2292C11.1825 11.2322 11.1987 11.2347 11.2149 11.2372C11.2185 11.2372 11.2231 11.2402 11.2269 11.2402C11.264 11.2477 11.3018 11.2554 11.3381 11.2649C11.3415 11.2649 11.345 11.268 11.3481 11.268C11.3636 11.2717 11.3775 11.2763 11.3929 11.2807C11.3976 11.2807 11.401 11.2837 11.4052 11.2844C11.4234 11.2891 11.4404 11.2937 11.4581 11.2995C11.4589 11.2995 11.46 11.2995 11.462 11.3026C11.4771 11.3072 11.4925 11.3131 11.5083 11.3183C11.5145 11.3214 11.5203 11.3227 11.5261 11.3242C11.5369 11.3289 11.5489 11.3335 11.5593 11.3378C11.5655 11.3378 11.5716 11.3421 11.5782 11.3443C11.5924 11.3508 11.6075 11.3567 11.6222 11.3628C11.6299 11.3659 11.6364 11.3693 11.6438 11.3721C11.6523 11.3765 11.6611 11.3804 11.6704 11.3835C11.6781 11.3872 11.6866 11.3912 11.6939 11.3946C11.7021 11.399 11.7098 11.4024 11.7175 11.4067C11.9089 11.5009 12.0853 11.6263 12.2486 11.7784C12.3088 11.7151 12.3717 11.6583 12.4369 11.6074C12.0799 11.3542 11.6754 11.2098 11.2088 11.2098C11.1548 11.2098 11.1007 11.2129 11.0459 11.2169" fill="#7DCBEC"/>
<path d="M12.249 11.7745C12.349 11.8675 12.4447 11.9714 12.5354 12.0833C12.623 12.0223 12.7099 11.9636 12.7971 11.9088C12.6828 11.7946 12.5624 11.6919 12.437 11.6035C12.3718 11.6541 12.3092 11.7112 12.249 11.7745Z" fill="#5EC5ED"/>
<path d="M11.0455 11.2129C11.1003 11.2083 11.1544 11.2064 11.2084 11.2064C11.675 11.2064 12.0795 11.3507 12.4366 11.6035C12.8133 11.3063 13.2687 11.2025 13.9013 11.2025H10.8379C10.9085 11.2025 10.9776 11.2067 11.0455 11.2129Z" fill="url(#paint15_linear_775_14102)"/>
<path d="M13.9018 11.203C13.2692 11.203 12.8137 11.3068 12.437 11.604C12.5621 11.6924 12.6825 11.7951 12.7967 11.9093C13.3213 11.5758 13.8408 11.3551 14.3529 11.2586C14.5482 11.2219 14.7432 11.203 14.9354 11.203H13.9018Z" fill="url(#paint16_linear_775_14102)"/>
<path d="M21.4104 16.6038C21.6825 15.7647 21.9939 14.7462 22.3803 13.5107C22.7284 12.3975 23.3448 11.5654 24.5023 11.2022C24.5329 11.1401 24.5618 11.076 24.5915 11.0131C22.7045 11.1262 21.8226 12.086 21.3787 13.5076C20.6025 15.9893 20.1324 17.598 19.6797 18.6232C20.2579 18.0705 20.836 17.3919 21.4104 16.6038Z" fill="url(#paint17_linear_775_14102)"/>
<path d="M24.1787 19.6548H23.9649V20.3194H23.8777V19.6548H23.6631V19.5757H24.1787V19.6548Z" fill="black"/>
<path d="M25.0546 20.3194H24.9678V19.82C24.9678 19.7806 24.9708 19.7324 24.9749 19.6756C24.9659 19.7096 24.9585 19.7332 24.9517 19.7482L24.6985 20.3194H24.6561L24.4021 19.7525C24.3947 19.7367 24.3873 19.7111 24.3792 19.6756H24.3762C24.3792 19.7056 24.3802 19.754 24.3802 19.8212V20.3194H24.2969V19.5757H24.4119L24.64 20.0948C24.6573 20.1338 24.6681 20.1639 24.6736 20.184H24.6769C24.6921 20.143 24.7044 20.1125 24.7129 20.0925L24.9456 19.5757H25.0552V20.3194H25.0546Z" fill="black"/>
<defs>
<linearGradient id="paint0_linear_775_14102" x1="14.736" y1="11.1421" x2="14.736" y2="22.5903" gradientUnits="userSpaceOnUse">
<stop stop-color="#0994DC"/>
<stop offset="0.350006" stop-color="#66CEF5"/>
<stop offset="0.846161" stop-color="#127BCA"/>
<stop offset="1" stop-color="#127BCA"/>
</linearGradient>
<linearGradient id="paint1_linear_775_14102" x1="15.173" y1="10.8513" x2="15.173" y2="22.5913" gradientUnits="userSpaceOnUse">
<stop stop-color="#0E76BC"/>
<stop offset="0.360001" stop-color="#36AEE8"/>
<stop offset="0.846161" stop-color="#00ADEF"/>
<stop offset="1" stop-color="#00ADEF"/>
</linearGradient>
<linearGradient id="paint2_linear_775_14102" x1="17.532" y1="20.0525" x2="17.532" y2="10.7111" gradientUnits="userSpaceOnUse">
<stop stop-color="#1C63B7"/>
<stop offset="0.5" stop-color="#33BDF2"/>
<stop offset="1" stop-color="#33BDF2" stop-opacity="0.419608"/>
</linearGradient>
<linearGradient id="paint3_linear_775_14102" x1="16.9184" y1="9.66178" x2="16.9184" y2="21.8509" gradientUnits="userSpaceOnUse">
<stop stop-color="#166AB8"/>
<stop offset="0.399994" stop-color="#36AEE8"/>
<stop offset="0.846161" stop-color="#0798DD"/>
<stop offset="1" stop-color="#0798DD"/>
</linearGradient>
<linearGradient id="paint4_linear_775_14102" x1="15.957" y1="9.7259" x2="15.957" y2="22.6875" gradientUnits="userSpaceOnUse">
<stop stop-color="#124379"/>
<stop offset="0.389999" stop-color="#1487CB"/>
<stop offset="0.780228" stop-color="#165197"/>
<stop offset="1" stop-color="#165197"/>
</linearGradient>
<linearGradient id="paint5_linear_775_14102" x1="10.7515" y1="13.7056" x2="12.584" y2="13.7056" gradientUnits="userSpaceOnUse">
<stop stop-color="#33BDF2" stop-opacity="0.698039"/>
<stop offset="1" stop-color="#1DACD8"/>
</linearGradient>
<linearGradient id="paint6_linear_775_14102" x1="24.5146" y1="19.8181" x2="24.5146" y2="10.7183" gradientUnits="userSpaceOnUse">
<stop stop-color="#136AB4"/>
<stop offset="0.6" stop-color="#59CAF5" stop-opacity="0.54902"/>
<stop offset="1" stop-color="#59CAF5" stop-opacity="0.235294"/>
</linearGradient>
<linearGradient id="paint7_linear_775_14102" x1="4.24848" y1="15.88" x2="11.0457" y2="15.88" gradientUnits="userSpaceOnUse">
<stop stop-color="#05A1E6" stop-opacity="0.247059"/>
<stop offset="1" stop-color="#05A1E6"/>
</linearGradient>
<linearGradient id="paint8_linear_775_14102" x1="8.0128" y1="20.0475" x2="8.0128" y2="10.7301" gradientUnits="userSpaceOnUse">
<stop stop-color="#318ED5"/>
<stop offset="1" stop-color="#38A7E4"/>
</linearGradient>
<linearGradient id="paint9_linear_775_14102" x1="8.59916" y1="20.0802" x2="8.59916" y2="11.0231" gradientUnits="userSpaceOnUse">
<stop stop-color="#05A1E6"/>
<stop offset="1" stop-color="#05A1E6" stop-opacity="0.54902"/>
</linearGradient>
<linearGradient id="paint10_linear_775_14102" x1="9.08669" y1="20.5424" x2="9.08669" y2="12.8891" gradientUnits="userSpaceOnUse">
<stop stop-color="#1959A6"/>
<stop offset="0.5" stop-color="#05A1E6"/>
<stop offset="0.917587" stop-color="#7EC5EA"/>
<stop offset="1" stop-color="#7EC5EA"/>
</linearGradient>
<linearGradient id="paint11_linear_775_14102" x1="9.37979" y1="20.0532" x2="6.7855" y2="12.1249" gradientUnits="userSpaceOnUse">
<stop stop-color="#165096"/>
<stop offset="1" stop-color="#0D82CA"/>
</linearGradient>
<linearGradient id="paint12_linear_775_14102" x1="22.9567" y1="15.3607" x2="22.9567" y2="11.024" gradientUnits="userSpaceOnUse">
<stop stop-color="#05A1E6"/>
<stop offset="0.873627" stop-color="#0495D6"/>
<stop offset="1" stop-color="#0495D6"/>
</linearGradient>
<linearGradient id="paint13_linear_775_14102" x1="24.9944" y1="10.623" x2="20.9526" y2="19.597" gradientUnits="userSpaceOnUse">
<stop stop-color="#38A7E4" stop-opacity="0.329412"/>
<stop offset="0.961533" stop-color="#0E88D3"/>
<stop offset="1" stop-color="#0E88D3"/>
</linearGradient>
<linearGradient id="paint14_linear_775_14102" x1="23.4162" y1="10.974" x2="23.4162" y2="20.4349" gradientUnits="userSpaceOnUse">
<stop stop-color="#168CD4"/>
<stop offset="0.5" stop-color="#1C87CC"/>
<stop offset="1" stop-color="#154B8D"/>
</linearGradient>
<linearGradient id="paint15_linear_775_14102" x1="11.3487" y1="10.7792" x2="11.3897" y2="11.7714" gradientUnits="userSpaceOnUse">
<stop stop-color="#97D6EE"/>
<stop offset="0.703293" stop-color="#55C1EA"/>
<stop offset="1" stop-color="#55C1EA"/>
</linearGradient>
<linearGradient id="paint16_linear_775_14102" x1="12.6092" y1="11.8648" x2="12.7945" y2="10.8137" gradientUnits="userSpaceOnUse">
<stop stop-color="#7ACCEC"/>
<stop offset="1" stop-color="#3FB7ED"/>
</linearGradient>
<linearGradient id="paint17_linear_775_14102" x1="22.1354" y1="11.4973" x2="22.1354" y2="20.751" gradientUnits="userSpaceOnUse">
<stop stop-color="#1DA7E7"/>
<stop offset="1" stop-color="#37ABE7" stop-opacity="0"/>
</linearGradient>
</defs>
</svg>
