<svg width="32" height="32" viewBox="0 0 32 32" fill="none" xmlns="http://www.w3.org/2000/svg">
<path d="M14.2705 11.1446C14.8021 11.0277 15.3503 10.9729 15.8941 11.0131C16.3368 11.0455 16.775 11.145 17.1858 11.3129C17.9007 11.6091 18.5461 12.0904 18.9993 12.7208C19.2057 13.0022 19.3684 13.3127 19.508 13.6313C19.5427 13.7225 19.4359 13.7718 19.3652 13.7885C18.6067 13.9842 17.8501 14.1864 17.0922 14.3846C17.038 14.3976 16.9753 14.4112 16.9264 14.3767C16.8523 14.3257 16.7997 14.251 16.738 14.187C16.6138 14.0459 16.4771 13.9129 16.314 13.8174C15.9355 13.601 15.4986 13.4747 15.0606 13.4996C14.6765 13.5182 14.3048 13.6485 13.9732 13.8387C13.6593 14.0206 13.3689 14.2477 13.1333 14.5247C12.7986 14.9123 12.5853 15.3997 12.5159 15.9065C12.4546 16.3391 12.4701 16.793 12.6378 17.2015C12.7841 17.5703 13.0392 17.8963 13.3666 18.1212C13.6552 18.3211 13.9974 18.4409 14.347 18.4706C14.7507 18.5105 15.1664 18.4551 15.5383 18.29C15.8971 18.1323 16.2107 17.8825 16.466 17.587C16.5881 17.4361 16.6962 17.2749 16.8086 17.117C15.9673 17.1164 15.126 17.1175 14.2847 17.1164C14.1904 17.1158 14.0794 17.0907 14.0315 17.0002C13.9832 16.9046 14.0179 16.7944 14.057 16.7022C14.2598 16.2308 14.4726 15.7631 14.7095 15.3077C14.7676 15.182 14.8977 15.0907 15.0388 15.0974C16.4357 15.0967 17.8325 15.0976 19.2293 15.0969C19.4671 14.3422 19.8934 13.6583 20.4079 13.0616C20.8518 12.5477 21.3883 12.1109 21.9942 11.8021C22.6854 11.4471 23.4497 11.2556 24.2179 11.1615C24.972 11.0731 25.7517 11.1203 26.4717 11.3731C27.1815 11.6217 27.8203 12.0595 28.3289 12.6117C28.6037 12.915 28.8337 13.2596 29.0009 13.6334C29.2307 14.1377 29.3421 14.6895 29.3701 15.241C29.4189 16.0439 29.2947 16.863 28.9631 17.5988C28.6723 18.2519 28.2328 18.8315 27.7191 19.3255C27.1092 19.917 26.3674 20.3692 25.5652 20.6477C25.155 20.788 24.732 20.9007 24.2992 20.9402C24.0841 20.9603 23.8689 20.9822 23.6538 21C22.9584 20.986 22.2601 20.8549 21.622 20.5729C20.9707 20.2848 20.3861 19.844 19.9366 19.291C19.5864 18.8609 19.3272 18.3575 19.18 17.8227C18.8752 18.4409 18.4478 18.9939 17.9535 19.4721C17.4292 19.9755 16.8043 20.3767 16.1208 20.627C15.6326 20.8083 15.1181 20.916 14.5991 20.9559C14.0769 20.9975 13.5471 20.9647 13.038 20.8388C12.1707 20.6258 11.3762 20.1401 10.7776 19.4792C10.4897 19.1591 10.2537 18.7922 10.0835 18.3968C9.79143 17.714 9.68835 16.9586 9.73414 16.2201C9.78432 15.4162 10.049 14.6334 10.463 13.9449C10.8073 13.376 11.2361 12.8565 11.7365 12.4181C12.4548 11.7871 13.3376 11.3501 14.2705 11.1446ZM24.3759 13.5207C23.9413 13.5711 23.5158 13.7104 23.1353 13.9261C22.6272 14.213 22.226 14.674 21.9948 15.2082C21.8355 15.5805 21.7192 15.9809 21.7286 16.3892C21.7359 16.7758 21.8476 17.1603 22.0519 17.4888C22.2616 17.8298 22.5718 18.1074 22.9333 18.2791C23.2854 18.443 23.6755 18.5306 24.0646 18.5122C24.5277 18.4926 24.9743 18.3249 25.3636 18.0788C25.6724 17.8896 25.9538 17.6516 26.1769 17.3654C26.4316 17.0416 26.6076 16.6569 26.6919 16.2538C26.7364 16.0311 26.7761 15.8026 26.7529 15.5747C26.7245 14.9949 26.4638 14.4246 26.0264 14.0394C25.5819 13.6426 24.966 13.459 24.3759 13.5207Z" fill="#00ACD7"/>
<path d="M4.94964 13.5584C4.98038 13.5469 5.01383 13.5464 5.04624 13.5456C6.57228 13.5458 8.09812 13.5464 9.62396 13.5454C9.65448 13.5479 9.69253 13.5383 9.71595 13.5644C9.73121 13.596 9.70466 13.6253 9.69023 13.6512C9.6227 13.7522 9.55831 13.8555 9.48994 13.956C9.45461 14.0066 9.39585 14.0434 9.33271 14.0407C7.81273 14.0365 6.29296 14.0319 4.77318 14.0281C4.71381 14.0254 4.65108 14.0371 4.59421 14.0162C4.57393 13.9945 4.6009 13.9686 4.61115 13.9493C4.69018 13.8456 4.77172 13.7442 4.85033 13.6403C4.87605 13.6054 4.90678 13.5711 4.94964 13.5584Z" fill="#00ACD7"/>
<path d="M2.89568 14.8235C2.93603 14.7631 3.01046 14.7417 3.07967 14.7442C5.04561 14.7451 7.01134 14.7438 8.97708 14.7449C9.01952 14.7384 9.07471 14.7702 9.05569 14.8195C9.02244 14.9299 8.98586 15.0399 8.94634 15.1482C8.92669 15.2034 8.86167 15.2147 8.81044 15.2142C6.83781 15.218 4.86497 15.222 2.89233 15.2268C2.8016 15.2268 2.71023 15.2312 2.62012 15.2176V15.1858C2.70542 15.0604 2.80494 14.9449 2.89568 14.8235Z" fill="#00ACD7"/>
<path d="M6.05336 15.9535C6.08472 15.941 6.11942 15.9441 6.15246 15.9429C6.99629 15.9439 7.83991 15.9427 8.68353 15.9433C8.72828 15.9372 8.7795 15.9631 8.78034 16.0135C8.78054 16.1243 8.76445 16.2352 8.7565 16.3458C8.75629 16.4037 8.69775 16.4463 8.64255 16.4394C7.75691 16.4346 6.87105 16.4311 5.98541 16.4269C5.92101 16.4248 5.85494 16.4336 5.79159 16.4189C5.78678 16.4118 5.77696 16.3976 5.77215 16.3905C5.801 16.3004 5.86121 16.2237 5.90303 16.1392C5.94359 16.0712 5.97307 15.9843 6.05336 15.9535Z" fill="#00ACD7"/>
</svg>
