<svg width="32" height="32" viewBox="0 0 32 32" fill="none" xmlns="http://www.w3.org/2000/svg">
<path d="M7.87988 8H23.8799V24H7.87988V8ZM19.7243 15.2797C19.108 15.3416 18.4968 15.65 18.1586 16.1816C17.8552 16.6428 17.7989 17.2269 17.9052 17.7591C17.9858 18.1866 18.2205 18.5784 18.5508 18.8597C19.0439 19.2931 19.6749 19.5069 20.2636 19.7734C20.4964 19.8834 20.7411 19.9872 20.9286 20.1691C21.138 20.3672 21.1911 20.7056 21.0627 20.9619C20.9561 21.1716 20.7399 21.3016 20.5186 21.3609C20.188 21.4459 19.8299 21.4266 19.5096 21.3088C19.123 21.1659 18.8371 20.845 18.6286 20.5006C18.2202 20.7356 17.8136 20.9738 17.4061 21.21C17.5408 21.4725 17.7149 21.7156 17.9258 21.9222C18.3511 22.3444 18.9208 22.6034 19.5093 22.6959C20.0355 22.7778 20.5824 22.7653 21.0971 22.6216C21.5949 22.4825 22.0664 22.1894 22.3424 21.7437C22.6539 21.2525 22.693 20.6341 22.5768 20.0759C22.4883 19.6616 22.2455 19.2903 21.9211 19.0209C21.4405 18.6163 20.8493 18.3816 20.2789 18.1353C20.0274 18.0219 19.7643 17.9163 19.5543 17.7325C19.2693 17.4866 19.2596 16.9806 19.5543 16.7388C19.7839 16.5469 20.1136 16.5413 20.3899 16.6181C20.6839 16.7044 20.8808 16.9603 21.0252 17.2163C21.4158 16.9663 21.8055 16.715 22.1958 16.4647C21.9793 16.0834 21.6799 15.7369 21.2877 15.5303C20.8114 15.2778 20.253 15.2284 19.7243 15.2797ZM15.0899 15.3459C15.0893 17.0644 15.0911 18.7828 15.0889 20.5013C15.0836 20.7812 15.0374 21.1112 14.7877 21.2819C14.5589 21.4225 14.2649 21.4313 14.0105 21.3634C13.6671 21.2578 13.4836 20.9216 13.3164 20.6306C12.9086 20.8775 12.5008 21.1241 12.0933 21.3709C12.2627 21.7312 12.5136 22.0569 12.8368 22.2919C13.2611 22.6056 13.7949 22.7416 14.3174 22.7431C14.8436 22.7484 15.3943 22.6419 15.8224 22.3191C16.1905 22.0475 16.4243 21.625 16.5199 21.1828C16.6143 20.7847 16.5902 20.3731 16.5933 19.9678C16.5933 18.4272 16.5933 16.8866 16.5933 15.3459C16.0921 15.3456 15.5908 15.3456 15.0899 15.3459Z" fill="#F7DF1E"/>
<path d="M19.7242 15.2796C20.253 15.2284 20.8114 15.2777 21.2876 15.5302C21.6798 15.7368 21.9792 16.0834 22.1958 16.4646C21.8055 16.7149 21.4158 16.9662 21.0251 17.2162C20.8808 16.9602 20.6839 16.7043 20.3898 16.6181C20.1136 16.5412 19.7839 16.5468 19.5542 16.7387C19.2595 16.9806 19.2692 17.4865 19.5542 17.7324C19.7642 17.9162 20.0273 18.0218 20.2789 18.1352C20.8492 18.3815 21.4405 18.6162 21.9211 19.0209C22.2455 19.2902 22.4883 19.6615 22.5767 20.0759C22.693 20.634 22.6539 21.2524 22.3423 21.7437C22.0664 22.1893 21.5948 22.4824 21.097 22.6215C20.5823 22.7652 20.0355 22.7777 19.5092 22.6959C18.9208 22.6034 18.3511 22.3443 17.9258 21.9221C17.7148 21.7156 17.5408 21.4724 17.4061 21.2099C17.8136 20.9737 18.2201 20.7356 18.6286 20.5006C18.837 20.8449 19.1229 21.1659 19.5095 21.3087C19.8298 21.4265 20.188 21.4459 20.5186 21.3609C20.7398 21.3015 20.9561 21.1715 21.0626 20.9618C21.1911 20.7056 21.138 20.3671 20.9286 20.169C20.7411 19.9871 20.4964 19.8834 20.2636 19.7734C19.6748 19.5068 19.0439 19.2931 18.5508 18.8596C18.2204 18.5784 17.9858 18.1865 17.9051 17.759C17.7989 17.2268 17.8551 16.6427 18.1586 16.1815C18.4967 15.6499 19.1079 15.3415 19.7242 15.2796Z" fill="black"/>
<path d="M15.0898 15.3459C15.5908 15.3456 16.092 15.3456 16.5933 15.3459C16.5933 16.8865 16.5933 18.4271 16.5933 19.9677C16.5901 20.3731 16.6142 20.7846 16.5198 21.1827C16.4242 21.6249 16.1904 22.0474 15.8223 22.319C15.3942 22.6418 14.8436 22.7484 14.3173 22.7431C13.7948 22.7415 13.2611 22.6056 12.8367 22.2918C12.5136 22.0568 12.2626 21.7312 12.0933 21.3709C12.5008 21.124 12.9086 20.8774 13.3164 20.6306C13.4836 20.9215 13.667 21.2577 14.0104 21.3634C14.2648 21.4312 14.5589 21.4224 14.7876 21.2818C15.0373 21.1112 15.0836 20.7812 15.0889 20.5012C15.0911 18.7827 15.0892 17.0643 15.0898 15.3459Z" fill="black"/>
</svg>
