<svg width="32" height="32" viewBox="0 -4 17 32" fill="none" xmlns="http://www.w3.org/2000/svg">
<path d="M9.13486 10.5206C10.1961 11.7425 8.85603 12.842 8.85603 12.842C8.85603 12.842 11.5507 11.4509 10.3132 9.70893C9.15734 8.08444 8.27097 7.27729 13.0694 4.49436C13.0694 4.49436 5.53743 6.3755 9.13486 10.5206Z" fill="#EC2025"/>
<path d="M10.3153 0C10.3153 0 12.6014 2.28682 8.14711 5.80331C4.57523 8.62414 7.33261 10.2325 8.14563 12.0701C6.06066 10.189 4.53058 8.53299 5.55708 6.99176C7.06374 4.72937 11.2377 3.63248 10.3153 0Z" fill="#EC2025"/>
<path d="M5.22508 17.0149C5.22508 17.0149 4.38431 17.5039 5.82343 17.6693C7.56688 17.8682 8.45793 17.8397 10.3792 17.4761C10.3792 17.4761 10.8843 17.7928 11.5898 18.0671C7.28277 19.913 1.84214 17.9602 5.22508 17.0149Z" fill="#0D8AC7"/>
<path d="M4.6995 14.606C4.6995 14.606 3.75649 15.304 5.19668 15.453C7.05908 15.6451 8.52986 15.6608 11.0749 15.1708C11.0749 15.1708 11.4269 15.5276 11.9804 15.7228C6.77295 17.2455 0.972788 15.8429 4.6995 14.606Z" fill="#0D8AC7"/>
<path d="M14.8329 18.7953C14.8329 18.7953 15.4551 19.3079 14.1477 19.7045C11.6616 20.4576 3.80035 20.6851 1.61653 19.7345C0.831504 19.393 2.30365 18.9191 2.76673 18.8196C3.24968 18.7149 3.52566 18.7344 3.52566 18.7344C2.65264 18.1194 -2.11724 19.942 1.10281 20.464C9.88433 21.8881 17.1107 19.8227 14.8329 18.7953Z" fill="#0D8AC7"/>
<path d="M5.63025 12.1101C5.63025 12.1101 1.63152 13.0599 4.2142 13.4048C5.30468 13.5508 7.47854 13.5177 9.50343 13.3481C11.1583 13.2085 12.82 12.9117 12.82 12.9117C12.82 12.9117 12.2364 13.1616 11.8143 13.4498C7.75364 14.5178 -0.0907534 14.021 2.16755 12.9286C4.07739 12.0054 5.63025 12.1101 5.63025 12.1101Z" fill="#0D8AC7"/>
<path d="M12.8033 16.1191C16.9311 13.9741 15.0226 11.9128 13.6904 12.1905C13.3639 12.2585 13.2183 12.3174 13.2183 12.3174C13.2183 12.3174 13.3395 12.1275 13.5711 12.0453C16.2064 11.1188 18.2332 14.778 12.7203 16.2272C12.7203 16.2272 12.7842 16.1702 12.8033 16.1191Z" fill="#0D8AC7"/>
<path d="M6.03578 21.9306C9.99798 22.1842 16.0824 21.7899 16.2265 19.9151C16.2265 19.9151 15.9495 20.6258 12.9519 21.1902C9.57012 21.8266 5.39913 21.7523 2.92527 21.3445C2.92527 21.3445 3.4317 21.7636 6.03578 21.9306Z" fill="#0D8AC7"/>
</svg>
