<svg width="32" height="32" viewBox="0 0 32 32" fill="none" xmlns="http://www.w3.org/2000/svg">
<path d="M15.9869 25C15.7458 25 15.5064 24.9368 15.2951 24.8151L13.093 23.5114C12.7642 23.3275 12.9246 23.2624 13.0331 23.225C13.4716 23.0714 13.5606 23.0367 14.0287 22.7709C14.0779 22.7429 14.1423 22.7528 14.1927 22.7825L15.8843 23.7863C15.9454 23.8194 16.0321 23.8194 16.0887 23.7863L22.6848 19.979C22.7459 19.9443 22.7855 19.8733 22.7855 19.8007V12.1892C22.7855 12.1133 22.7459 12.0456 22.6834 12.0076L16.0901 8.20355C16.029 8.16723 15.9481 8.16723 15.887 8.20355L9.29493 12.0076C9.23104 12.0439 9.19042 12.1149 9.19042 12.1876V19.799C9.19042 19.8717 9.23005 19.941 9.29279 19.9757L11.0991 21.0191C12.0798 21.5095 12.6791 20.9316 12.6791 20.3505V12.8381C12.6791 12.7308 12.7633 12.6482 12.8707 12.6482H13.7061C13.8101 12.6482 13.896 12.7308 13.896 12.8381V20.3538C13.896 21.6614 13.1827 22.4126 11.9428 22.4126C11.5614 22.4126 11.2609 22.4126 10.4221 21.9999L8.6918 21.0026C8.48143 20.8799 8.30687 20.7042 8.1855 20.493C8.06412 20.2818 8.00017 20.0426 8 19.799V12.1876C8 11.6923 8.26417 11.23 8.6918 10.9856L15.2944 7.17659C15.7121 6.94049 16.2669 6.94049 16.6813 7.17659L23.2757 10.9873C23.486 11.1096 23.6606 11.285 23.782 11.4959C23.9034 11.7068 23.9673 11.9459 23.9675 12.1892V19.8007C23.9675 20.2943 23.7017 20.755 23.2757 21.0026L16.6813 24.8116C16.4699 24.9334 16.2302 24.9971 15.9862 24.9966" fill="#689F63"/>
<path d="M18.0253 19.7548C15.1393 19.7548 14.5341 18.43 14.5341 17.3188C14.5341 17.2131 14.6193 17.1289 14.7252 17.1289H15.5771C15.6712 17.1289 15.7505 17.1974 15.7653 17.2904C15.8941 18.1585 16.2772 18.5964 18.0224 18.5964C19.4126 18.5964 20.0036 18.2824 20.0036 17.5452C20.0036 17.1208 19.8352 16.8055 17.6756 16.5941C15.8694 16.4158 14.7532 16.0179 14.7532 14.5732C14.7532 13.2425 15.876 12.45 17.7565 12.45C19.8683 12.45 20.915 13.183 21.0471 14.7581C21.0493 14.7846 21.046 14.8113 21.0374 14.8364C21.0287 14.8615 21.015 14.8846 20.997 14.9042C20.979 14.9237 20.9571 14.9393 20.9328 14.95C20.9085 14.9607 20.8822 14.9662 20.8556 14.9662H19.9987C19.9095 14.9662 19.8319 14.9034 19.8138 14.8176C19.6074 13.9045 19.1088 13.6123 17.7532 13.6123C16.2359 13.6123 16.0592 14.1406 16.0592 14.5369C16.0592 15.0174 16.2673 15.1577 18.3146 15.4285C20.3421 15.6976 21.3047 16.0774 21.3047 17.5022C21.3047 18.9387 20.106 19.7625 18.0158 19.7625L18.0253 19.7548Z" fill="#689F63"/>
</svg>
