<svg width="32" height="32" viewBox="0 0 32 32" fill="none" xmlns="http://www.w3.org/2000/svg">
<path d="M15.893 7.00015C15.1508 7.0036 14.4419 7.0669 13.8183 7.17726C11.981 7.50185 11.6474 8.18124 11.6474 9.43415V11.0889H15.9891V11.6404H10.018C8.75614 11.6404 7.65124 12.3989 7.30565 13.8417C6.90701 15.4955 6.88932 16.5274 7.30565 18.2543C7.61427 19.5396 8.35132 20.4555 9.61315 20.4555H11.1059V18.4719C11.1059 17.0388 12.3459 15.7747 13.8183 15.7747H18.1549C19.3621 15.7747 20.3258 14.7808 20.3258 13.5684V9.43415C20.3258 8.25752 19.3332 7.37364 18.1549 7.17726C17.4091 7.0531 16.6352 6.9967 15.893 7.00015ZM13.545 8.33101C13.9935 8.33101 14.3597 8.70323 14.3597 9.1609C14.3597 9.61695 13.9935 9.98573 13.545 9.98573C13.0949 9.98573 12.7303 9.61695 12.7303 9.1609C12.7303 8.70323 13.0949 8.33101 13.545 8.33101Z" fill="url(#paint0_linear_775_14191)"/>
<path d="M20.8664 11.6426V13.5706C20.8664 15.0653 19.5991 16.3234 18.154 16.3234H13.8174C12.6295 16.3234 11.6465 17.34 11.6465 18.5296V22.6639C11.6465 23.8406 12.6697 24.5326 13.8174 24.8702C15.1917 25.2743 16.5096 25.3474 18.154 24.8702C19.2471 24.5537 20.3249 23.9168 20.3249 22.6639V21.0092H15.9882V20.4576H22.4958C23.7576 20.4576 24.2278 19.5775 24.6666 18.2564C25.1199 16.8964 25.1006 15.5885 24.6666 13.8438C24.3548 12.5876 23.7592 11.6426 22.4958 11.6426H20.8664ZM18.4273 22.1123C18.8774 22.1123 19.242 22.4811 19.242 22.9372C19.242 23.3948 18.8774 23.7671 18.4273 23.7671C17.9788 23.7671 17.6126 23.3948 17.6126 22.9372C17.6126 22.4811 17.9788 22.1123 18.4273 22.1123Z" fill="url(#paint1_linear_775_14191)"/>
<defs>
<linearGradient id="paint0_linear_775_14191" x1="7" y1="7" x2="17.0116" y2="15.5312" gradientUnits="userSpaceOnUse">
<stop stop-color="#5A9FD4"/>
<stop offset="1" stop-color="#306998"/>
</linearGradient>
<linearGradient id="paint1_linear_775_14191" x1="18.323" y1="22.7981" x2="14.7312" y2="17.7649" gradientUnits="userSpaceOnUse">
<stop stop-color="#FFD43B"/>
<stop offset="1" stop-color="#FFE873"/>
</linearGradient>
</defs>
</svg>
