<svg width="32" height="32" viewBox="0 0 32 32" fill="none" xmlns="http://www.w3.org/2000/svg">
<path fill-rule="evenodd" clip-rule="evenodd" d="M14.2554 12.8212C13.9206 13.3123 13.5936 13.832 13.2791 14.3767C12.9645 14.9215 12.678 15.4646 12.4201 16C12.678 16.5355 12.9645 17.0785 13.2791 17.6233C13.5936 18.168 13.9206 18.6877 14.2554 19.1788C14.848 19.2232 15.4616 19.2466 16.0907 19.2466C16.7197 19.2466 17.3333 19.2232 17.9259 19.1788C18.2607 18.6877 18.5877 18.168 18.9023 17.6233C19.2168 17.0785 19.5033 16.5355 19.7612 16C19.5033 15.4646 19.2168 14.9215 18.9023 14.3767C18.5877 13.832 18.2607 13.3123 17.9259 12.8212C17.3333 12.7768 16.7197 12.7534 16.0907 12.7534C15.4616 12.7534 14.848 12.7768 14.2554 12.8212ZM13.1298 12.9334C12.9217 13.2587 12.7178 13.5939 12.5192 13.938C12.3205 14.2821 12.1322 14.6263 11.9545 14.9691C11.7049 14.3768 11.4927 13.7992 11.319 13.2451C11.8857 13.1185 12.492 13.0135 13.1298 12.9334ZM14.9153 11.9026C15.3011 11.885 15.6933 11.876 16.0907 11.876C16.488 11.876 16.8802 11.885 17.266 11.9026C16.8778 11.3902 16.4837 10.9177 16.0907 10.4902C15.6976 10.9177 15.3035 11.3902 14.9153 11.9026ZM15.4785 9.85968C14.9007 10.4846 14.3253 11.1972 13.7704 11.9813C12.814 12.0697 11.9092 12.2118 11.0791 12.3997C10.9845 12.0257 10.9095 11.6657 10.8546 11.323C10.7117 10.4309 10.7083 9.67898 10.8307 9.10706C10.953 8.53509 11.1884 8.19185 11.4841 8.02113C11.7797 7.85041 12.1947 7.81821 12.7512 7.99825C13.3076 8.17826 13.9571 8.55711 14.6582 9.12694C14.9276 9.34587 15.2019 9.59075 15.4785 9.85968ZM16.7028 9.85968C17.2806 10.4846 17.856 11.1972 18.4109 11.9813C19.3673 12.0697 20.2721 12.2118 21.1022 12.3997C21.1968 12.0257 21.2718 11.6657 21.3267 11.323C21.4696 10.4309 21.473 9.67898 21.3506 9.10706C21.2283 8.53508 20.993 8.19185 20.6973 8.02113C20.4016 7.85041 19.9866 7.81821 19.4301 7.99824C18.8737 8.17826 18.2242 8.55711 17.5231 9.12694C17.2537 9.34587 16.9794 9.59075 16.7028 9.85968ZM21.9527 12.6155C22.0536 12.2168 22.1339 11.8312 22.1931 11.4618C22.3459 10.5078 22.3616 9.63848 22.2087 8.92354C22.0558 8.20865 21.7216 7.59935 21.136 7.26124C20.5504 6.92313 19.8556 6.93838 19.16 7.1634C18.4644 7.38843 17.7194 7.83665 16.9697 8.44602C16.6794 8.68196 16.3855 8.94435 16.0907 9.23106C15.7958 8.94435 15.502 8.68196 15.2117 8.44602C14.4619 7.83665 13.7169 7.38844 13.0213 7.1634C12.3257 6.93838 11.631 6.92313 11.0453 7.26124C10.4597 7.59935 10.1255 8.20865 9.97262 8.92354C9.8197 9.63848 9.83537 10.5078 9.98822 11.4618C10.0474 11.8312 10.1277 12.2168 10.2286 12.6155C9.83284 12.7276 9.4587 12.8508 9.10922 12.9842C8.2066 13.3289 7.44594 13.75 6.90324 14.2399C6.36059 14.7297 6 15.3238 6 16C6 16.6762 6.36059 17.2703 6.90324 17.7601C7.44594 18.25 8.2066 18.6711 9.10922 19.0158C9.4587 19.1492 9.83284 19.2724 10.2286 19.3845C10.1277 19.7832 10.0474 20.1688 9.98822 20.5382C9.83537 21.4922 9.8197 22.3615 9.97262 23.0765C10.1255 23.7913 10.4597 24.4007 11.0453 24.7388C11.631 25.0769 12.3257 25.0616 13.0213 24.8366C13.7169 24.6116 14.4619 24.1633 15.2117 23.554C15.502 23.318 15.7958 23.0557 16.0907 22.7689C16.3855 23.0557 16.6794 23.318 16.9697 23.554C17.7194 24.1633 18.4644 24.6116 19.16 24.8366C19.8556 25.0616 20.5504 25.0769 21.136 24.7388C21.7216 24.4007 22.0558 23.7913 22.2087 23.0765C22.3616 22.3615 22.3459 21.4922 22.1931 20.5382C22.1339 20.1688 22.0536 19.7832 21.9527 19.3845C22.3485 19.2724 22.7226 19.1492 23.0721 19.0158C23.9747 18.6711 24.7354 18.25 25.2781 17.7601C25.8207 17.2703 26.1813 16.6762 26.1813 16C26.1813 15.3238 25.8207 14.7297 25.2781 14.2399C24.7354 13.75 23.9747 13.3289 23.0721 12.9842C22.7226 12.8508 22.3485 12.7276 21.9527 12.6155ZM20.8623 13.2451C20.2956 13.1185 19.6893 13.0135 19.0515 12.9334C19.2596 13.2587 19.4635 13.5939 19.6621 13.938C19.8608 14.2821 20.0491 14.6263 20.2268 14.9691C20.4764 14.3768 20.6886 13.7992 20.8623 13.2451ZM20.7311 16C21.1327 15.1275 21.4621 14.2728 21.7144 13.46C22.0856 13.5651 22.4348 13.6802 22.7591 13.804C23.6031 14.1262 24.256 14.4993 24.6901 14.8912C25.1243 15.2831 25.3039 15.6586 25.3039 16C25.3039 16.3414 25.1243 16.7169 24.6901 17.1088C24.256 17.5007 23.6031 17.8738 22.7591 18.196C22.4348 18.3198 22.0856 18.4349 21.7144 18.54C21.4621 17.7272 21.1327 16.8725 20.7311 16ZM20.2268 17.0309C20.0491 17.3737 19.8608 17.7179 19.6621 18.062C19.4635 18.4061 19.2596 18.7413 19.0515 19.0666C19.6893 18.9865 20.2956 18.8815 20.8623 18.7549C20.6886 18.2008 20.4764 17.6232 20.2268 17.0309ZM21.1022 19.6003C20.2721 19.7882 19.3673 19.9303 18.4109 20.0187C17.856 20.8028 17.2806 21.5154 16.7028 22.1403C16.9794 22.4093 17.2537 22.6541 17.5231 22.8731C18.2242 23.4429 18.8737 23.8217 19.4301 24.0018C19.9866 24.1818 20.4016 24.1496 20.6973 23.9789C20.993 23.8082 21.2283 23.4649 21.3506 22.8929C21.473 22.321 21.4696 21.5691 21.3267 20.677C21.2718 20.3343 21.1968 19.9743 21.1022 19.6003ZM16.0907 21.5098C16.4837 21.0823 16.8778 20.6098 17.266 20.0974C16.8802 20.115 16.488 20.124 16.0907 20.124C15.6933 20.124 15.3011 20.115 14.9153 20.0974C15.3035 20.6098 15.6976 21.0823 16.0907 21.5098ZM13.1298 19.0666C12.9217 18.7413 12.7178 18.4061 12.5192 18.062C12.3205 17.7179 12.1322 17.3737 11.9545 17.0309C11.7049 17.6232 11.4927 18.2008 11.319 18.7549C11.8857 18.8815 12.492 18.9865 13.1298 19.0666ZM11.0791 19.6003C11.9092 19.7882 12.814 19.9303 13.7704 20.0187C14.3253 20.8028 14.9007 21.5154 15.4785 22.1403C15.2019 22.4093 14.9276 22.6541 14.6582 22.8731C13.9571 23.4429 13.3076 23.8217 12.7512 24.0018C12.1947 24.1818 11.7797 24.1496 11.4841 23.9789C11.1884 23.8082 10.953 23.4649 10.8307 22.8929C10.7083 22.321 10.7117 21.5691 10.8546 20.677C10.9095 20.3343 10.9845 19.9743 11.0791 19.6003ZM10.4669 18.54C10.0957 18.4349 9.74649 18.3198 9.4222 18.196C8.57816 17.8738 7.92533 17.5007 7.4912 17.1088C7.05702 16.7169 6.87745 16.3414 6.87745 16C6.87745 15.6586 7.05702 15.2831 7.4912 14.8912C7.92533 14.4993 8.57816 14.1262 9.4222 13.804C9.74649 13.6802 10.0957 13.5651 10.4669 13.46C10.7192 14.2728 11.0486 15.1275 11.4502 16C11.0486 16.8725 10.7192 17.7272 10.4669 18.54ZM16.0907 14.64C15.3395 14.64 14.7306 15.2489 14.7306 16C14.7306 16.7511 15.3395 17.3601 16.0907 17.3601C16.8418 17.3601 17.4507 16.7511 17.4507 16C17.4507 15.2489 16.8418 14.64 16.0907 14.64ZM13.8532 16C13.8532 14.7643 14.8549 13.7625 16.0907 13.7625C17.3264 13.7625 18.3281 14.7643 18.3281 16C18.3281 17.2357 17.3264 18.2375 16.0907 18.2375C14.8549 18.2375 13.8532 17.2357 13.8532 16Z" fill="#61DAFB"/>
</svg>
