<svg width="32" height="32" viewBox="0 0 32 32" fill="none" xmlns="http://www.w3.org/2000/svg">
<path d="M7.61067 7C9.25184 7.94476 10.8909 8.89333 12.5304 9.84021C12.5312 11.7348 12.5308 13.6294 12.5308 15.524C10.8913 14.5763 9.25142 13.6286 7.61067 12.683C7.61025 10.7888 7.61025 8.89418 7.61067 7Z" fill="#5C4EE5"/>
<path d="M13.0706 10.1719C14.7114 11.1175 16.3521 12.0639 17.9908 13.0134C17.9908 14.9075 17.9908 16.8017 17.9908 18.6959C16.3513 17.7486 14.7118 16.8 13.0706 15.8553C13.0702 13.9607 13.0702 12.0661 13.0706 10.1719Z" fill="#5C4EE5"/>
<path d="M13.0706 16.4785C14.7118 17.4229 16.3504 18.3719 17.9903 19.3183C17.9916 21.2125 17.9908 23.1063 17.9908 25C16.3509 24.0527 14.7122 23.1041 13.0706 22.1594C13.0702 20.2656 13.0702 18.3723 13.0706 16.4785Z" fill="#5C4EE5"/>
<path d="M18.5305 13.0125C20.1721 12.0673 21.8124 11.12 23.4523 10.1719C23.4535 12.0665 23.4531 13.9607 23.4527 15.8553C21.8124 16.803 20.1721 17.7507 18.5305 18.6963C18.5305 16.8017 18.53 14.9071 18.5305 13.0125Z" fill="#4040B2"/>
</svg>
