<svg width="49" height="48" viewBox="0 0 49 48" fill="none" xmlns="http://www.w3.org/2000/svg">
<rect x="0.333252" width="48" height="48" rx="24" fill="#5383FF" fill-opacity="0.15"/>
<path fill-rule="evenodd" clip-rule="evenodd" d="M17.3333 15.75C16.6425 15.75 16.0833 16.3092 16.0833 17V20C16.0833 20.687 16.6437 21.25 17.3333 21.25H20.3333C21.019 21.25 21.5833 20.6858 21.5833 20V17C21.5833 16.3104 21.0203 15.75 20.3333 15.75H17.3333ZM14.5833 17C14.5833 15.4808 15.814 14.25 17.3333 14.25H20.3333C21.8462 14.25 23.0833 15.4796 23.0833 17V20C23.0833 21.5142 21.8475 22.75 20.3333 22.75H17.3333C15.8128 22.75 14.5833 21.513 14.5833 20V17ZM27.8636 15.4697C28.1565 15.7626 28.1565 16.2374 27.8636 16.5303L27.1439 17.25H30.3333C31.845 17.25 33.0833 18.4733 33.0833 20V23C33.0833 23.4142 32.7475 23.75 32.3333 23.75C31.919 23.75 31.5833 23.4142 31.5833 23V20C31.5833 19.3067 31.0215 18.75 30.3333 18.75H27.1439L27.8636 19.4697C28.1565 19.7626 28.1565 20.2374 27.8636 20.5303C27.5707 20.8232 27.0958 20.8232 26.8029 20.5303L24.8029 18.5303C24.51 18.2374 24.51 17.7626 24.8029 17.4697L26.8029 15.4697C27.0958 15.1768 27.5707 15.1768 27.8636 15.4697ZM16.3333 24.25C16.7475 24.25 17.0833 24.5858 17.0833 25V28C17.0833 28.6882 17.6399 29.25 18.3333 29.25H21.5226L20.8029 28.5303C20.51 28.2374 20.51 27.7626 20.8029 27.4697C21.0958 27.1768 21.5707 27.1768 21.8636 27.4697L23.8636 29.4697C24.1565 29.7626 24.1565 30.2374 23.8636 30.5303L21.8636 32.5303C21.5707 32.8232 21.0958 32.8232 20.8029 32.5303C20.51 32.2374 20.51 31.7626 20.8029 31.4697L21.5226 30.75H18.3333C16.8066 30.75 15.5833 29.5118 15.5833 28V25C15.5833 24.5858 15.919 24.25 16.3333 24.25ZM28.3333 26.75C27.6375 26.75 27.0833 27.3042 27.0833 28V31C27.0833 31.6882 27.6399 32.25 28.3333 32.25H31.3333C32.019 32.25 32.5833 31.6858 32.5833 31V28C32.5833 27.3067 32.0215 26.75 31.3333 26.75H28.3333ZM25.5833 28C25.5833 26.4758 26.809 25.25 28.3333 25.25H31.3333C32.845 25.25 34.0833 26.4733 34.0833 28V31C34.0833 32.5142 32.8475 33.75 31.3333 33.75H28.3333C26.8066 33.75 25.5833 32.5118 25.5833 31V28Z" fill="#5383FF"/>
<rect x="0.833252" y="0.5" width="47" height="47" rx="23.5" stroke="#5383FF" stroke-opacity="0.15"/>
</svg>
